<?xml version="1.0" encoding="utf-8"?>
<svg version="1.1" xmlns="http://www.w3.org/2000/svg" xmlns:xlink="http://www.w3.org/1999/xlink" viewBox="43 49 162 195" style="enable-background:new 0 0 500 500;" xml:space="preserve">
<g>
	<g>
		<path style="fill:#FFC385;" d="M90.286,193.559c-4.124-4.802-8.71-9.207-13.674-13.134c-4.809-3.805-10.719-7.323-16.724-6.081    c-2.052,0.424-4.199,1.674-4.603,3.73c-0.211,1.071,0.091,2.168,0.357,3.226c4.341,17.252-0.011,36.788,8.863,52.206    c0.446,0.775,0.956,1.565,1.741,1.994c1.805,0.986,4.005-0.385,5.358-1.935c3.094-3.542,4.572-8.174,5.973-12.665    c1.973-6.325,3.945-12.651,5.918-18.976c1.718-5.508,4.007-11.669,9.337-13.878" />
		<g>
			<path style="fill:#FFC385;" d="M90.521,193.421c-5.202-8.182-22.159-26.29-33.587-19.137     c-5.407,3.384-1.309,11.766-0.778,16.614c0.891,8.13,0.739,16.339,1.707,24.462c0.814,6.832,5.882,30.953,15.77,17.603     c9.762-13.18,6.646-33.324,19.544-44.57c0.398-0.347-0.036-0.907-0.477-0.82c-9.111,1.806-11.115,16.347-13.349,23.513     c-1.979,6.352-3.397,13.661-6.964,19.352c-1.407,2.246-2.372,3.914-5.09,3.079c-2.429-0.746-2.839-2.58-3.764-4.791     c-1.206-2.883-2.045-5.873-2.652-8.936c-2.328-11.743-1.177-23.873-3.459-35.628c-0.433-2.23-0.691-3.188-0.03-5.555     c0.877-3.142,2.614-3.555,5.755-3.387c3.996,0.213,7.693,2.377,10.882,4.623c5.818,4.1,10.648,9.339,16.064,13.909     C90.316,193.939,90.698,193.699,90.521,193.421L90.521,193.421z" />
		</g>
	</g>
	<g>
		<path style="fill:#FFC385;" d="M93.103,195.018c23.159-12.023,48.788-19.264,74.815-21.137c4.836-0.348,9.735-0.51,14.499,0.39    c3.082,0.582,6.52,2.05,7.297,5.089c0.46,1.801-0.166,3.695-0.934,5.387c-1.526,3.361-3.65,6.448-6.244,9.074    c-4.242,4.295-9.621,7.27-14.275,11.116c-4.654,3.845-8.776,9.072-8.947,15.107c-0.148,5.241,2.615,10.945-0.089,15.438    c-2.055,3.415-6.708,4.544-10.573,3.568c-3.865-0.976-7.08-3.61-9.967-6.358c-9.116-8.675-16.336-19.155-25.215-28.072    c-3.517-3.532-7.366-6.861-11.928-8.866s-9.959-2.553-14.511-0.523" />
		<g>
			<path style="fill:#FFC385;" d="M93.153,195.196c8.164-2.439,15.794-6.656,23.851-9.492c8.114-2.856,16.381-5.251,24.795-7.05     c8.606-1.84,17.34-3.107,26.12-3.726c4.651-0.328,9.627-0.674,14.216,0.371c3.428,0.78,6.413,2.938,6.379,6.64     c-0.022,2.301-2.1,5.155-3.419,7.058c-7.689,11.09-27.009,15.978-26.934,31.841c0.019,4.034,1.836,8.248,0.519,12.174     c-2.249,6.708-9.839,5.78-14.758,2.467c-6.906-4.651-12.336-11.987-17.642-18.289c-8.351-9.92-24.101-31.59-39.639-22.627     c-0.788,0.455-0.241,1.582,0.596,1.414c12.505-2.508,21.109,4.744,29.075,13.424c6.686,7.286,12.598,15.256,19.584,22.271     c4.664,4.684,10.575,10.063,17.745,8.711c6.463-1.219,8.479-6.677,7.765-12.663c-0.684-5.735-1.603-10.283,1.682-15.476     c3.034-4.797,7.843-8.001,12.36-11.248c6.106-4.39,11.885-9.385,14.663-16.606c6.47-16.815-27.643-11.219-34.854-10.218     c-11.163,1.55-22.185,4.064-32.911,7.523c-9.772,3.151-21.128,6.838-29.336,13.163     C92.856,194.976,92.933,195.262,93.153,195.196L93.153,195.196z" />
		</g>
	</g>
	<g>
		<path style="fill:#FFD5FC;" d="M95.811,188.406c7.501-22.742,15.13-45.542,25.818-66.971s24.605-41.585,43.038-56.872    c5.187-4.302,10.91-8.293,17.492-9.735c3.56-0.78,7.757-0.588,10.218,2.1c1.354,1.478,1.964,3.496,2.237,5.482    c0.693,5.046-0.533,10.138-1.751,15.084c-2.009,8.159-4.018,16.318-6.026,24.477c-0.805,3.268-1.616,6.618-1.258,9.965    c0.649,6.062,4.937,10.995,8.726,15.772c3.789,4.777,7.437,10.504,6.473,16.524c-0.854,5.33-5.192,9.469-9.892,12.123    c-6.689,3.775-14.385,5.337-21.995,6.379c-13.25,1.814-26.73,2.223-39.74,5.323c-13.01,3.1-25.896,9.324-33.636,20.23" />
		<g>
			<path style="fill:#FFD5FC;" d="M95.874,188.424c9.921-24.817,17.482-50.4,30.33-73.99     c11.043-20.277,25.917-41.517,45.687-54.175c5.016-3.211,16.074-8.708,20.547-1.65c4.178,6.593-0.284,17.432-1.995,24.249     c-1.574,6.268-3.162,12.534-4.67,18.819c-1.212,5.052-2.071,9.901-0.156,14.902c3.8,9.92,19.081,19.302,12.781,31.176     c-6.425,12.111-25.224,13.425-37.1,14.714c-22.94,2.49-52.469,3.816-66.594,25.344c-0.575,0.877,0.787,1.961,1.472,1.136     c19.377-23.337,49.275-21.07,76.538-25.614c10.068-1.678,23.992-5.286,28.291-15.886c4.708-11.607-7.198-20.071-12.065-29.012     c-3.97-7.293-1.503-14.297,0.348-21.822c1.846-7.506,3.875-15.013,5.445-22.583c1.847-8.902,1.824-21.576-10.52-20.42     c-11.27,1.056-21.165,10.637-28.802,18.183c-8.762,8.657-16.37,18.446-22.994,28.817     c-16.964,26.561-28.694,57.399-36.671,87.778C95.726,188.472,95.844,188.5,95.874,188.424L95.874,188.424z" />
		</g>
	</g>
	<g>
		<path style="fill:#FFD5FC;" d="M91.004,182.983c-5.777-33.933-11.589-68.007-22.222-100.745    c-2.076-6.393-4.448-12.921-9.017-17.851c-0.561-0.605-1.207-1.212-2.021-1.345c-1.861-0.304-3.08,1.876-3.564,3.699    c-2.847,10.724-0.891,22.055,0.777,33.024c1.668,10.969,2.972,22.531-1.044,32.875c-2.418,6.227-6.778,12.457-5.216,18.951    c0.966,4.016,4.108,7.192,7.618,9.368c3.51,2.176,7.449,3.547,11.168,5.344c4.411,2.132,8.547,4.895,11.977,8.394    c4.725,4.82,8.03,11.016,9.403,17.624" />
		<g>
			<path style="fill:#FFD5FC;" d="M91.396,182.983c-2.479-20.913-6.562-41.747-11.206-62.282     c-2.318-10.249-4.917-20.437-7.926-30.506c-2.54-8.5-4.875-18.128-10.641-25.131c-3.29-3.996-6.714-3.628-8.397,1.413     c-2.937,8.793-1.374,19.117-0.082,28.047c1.565,10.818,3.75,21.989,1.274,32.851c-1.799,7.888-8.897,15.997-6.776,24.507     c2.15,8.626,11.347,11.67,18.464,15.031c11.095,5.239,18.462,13.891,22.011,25.615c0.295,0.972,1.649,0.554,1.492-0.411     c-2.55-15.714-14.623-23.486-28.026-29.681c-3.843-1.777-7.992-3.959-10.309-7.671c-3.486-5.584-0.915-11.513,1.507-16.91     c3.124-6.96,4.868-13.742,4.821-21.418c-0.05-8.184-1.654-16.219-2.767-24.297c-0.662-4.803-1.177-9.652-1.084-14.509     c0.051-2.659,0.306-5.315,0.786-7.931c0.431-2.351,0.261-2.532,2.57-3.662c2.726-1.334,2.836-0.126,4.401,2.117     c5.091,7.298,7.264,16.863,9.726,25.297c2.677,9.17,5.022,18.435,7.139,27.75c4.662,20.519,7.672,41.36,12.254,61.885     C90.72,183.51,91.449,183.427,91.396,182.983L91.396,182.983z" />
		</g>
	</g>
</g>
</svg>