<?xml version="1.0" encoding="utf-8"?>
<svg version="1.1" xmlns="http://www.w3.org/2000/svg" xmlns:xlink="http://www.w3.org/1999/xlink" viewBox="263 60 186 125" style="enable-background:new 0 0 500 500;" xml:space="preserve">
<g>
	<g>
		<path style="fill:#FFC385;" d="M369.865,167.126c-13.205,0.706-26.581-2.058-38.425-7.939c-4.918-2.442-9.571-5.408-14.574-7.672    c-9.427-4.266-20.016-5.93-30.297-4.761c-4.542,0.516-9.164,1.639-12.827,4.373c-3.663,2.734-6.178,7.365-5.364,11.863    c0.482,2.663,2.05,5.02,3.922,6.974c6.854,7.155,17.372,9.318,27.256,10.013c24.05,1.692,48.535-3.283,70.017-14.226" />
		<g>
			<path style="fill:#FFC385;" d="M369.865,166.679c-9.203-0.243-18.495-1.314-27.288-4.126     c-8.715-2.787-16.132-7.724-24.327-11.602c-11.994-5.676-28.553-8.584-41.172-3.098c-5.212,2.266-9.788,6.935-10.037,12.888     c-0.252,6.034,4.402,10.937,9.135,14.041c11.776,7.722,28.416,7.472,41.884,6.533c8.917-0.622,17.777-2.112,26.402-4.459     c8.639-2.351,18.132-5.206,25.49-10.455c0.65-0.464,0.289-1.651-0.58-1.374c-8.389,2.674-16.251,6.633-24.772,9.012     c-8.948,2.498-18.148,4.071-27.42,4.656c-8.655,0.546-17.675,0.519-26.226-1.105c-7.878-1.496-21.205-6.216-21.503-16.101     c-0.359-11.914,15.399-13.964,24-13.906c9.838,0.066,19.106,2.747,27.773,7.324c15.518,8.195,30.679,14.632,48.64,12.666     C370.424,167.512,370.453,166.695,369.865,166.679L369.865,166.679z" />
		</g>
	</g>
	<g>
		<path style="fill:#FFD5FC;" d="M368.34,166.596c7.89-2.175,14.967-7.183,19.641-13.901c4.675-6.718,6.913-15.094,6.211-23.248    c-0.176-2.044-0.537-4.095-1.359-5.976c-2.816-6.441-11.078-9.546-17.763-7.371c-6.685,2.175-11.39,8.818-12.199,15.801    c-2.694-4.884-8.221-7.523-13.651-8.799c-5.934-1.394-12.162-1.524-18.149-0.378c-4.921,0.942-10.247,3.296-11.854,8.041    c-1.225,3.618,0.148,7.71,2.56,10.671c2.412,2.961,5.734,5.015,8.993,7.006c7.04,4.302,14.133,8.599,21.777,11.702    c7.645,3.103,15.93,4.984,24.147,4.243" />
		<g>
			<path style="fill:#FFD5FC;" d="M368.34,167.13c18.246-1.975,32.214-26.307,25.957-43.268c-2.498-6.77-9.998-10.459-16.978-9.486     c-8.613,1.201-14.307,9.084-15.635,17.199c0.75-0.098,1.5-0.196,2.25-0.294c-5.406-9.034-17.711-11.126-27.424-10.501     c-8.095,0.521-20.23,3.866-18.856,14.334c1.409,10.738,15.662,16.641,23.908,21.159c10.909,5.978,22.667,10.608,35.272,8.62     c0.599-0.094,0.43-1.015-0.139-1.028c-9.842-0.215-19.471-2.774-28.339-6.982c-7.766-3.685-16.983-8.217-23.435-13.987     c-4.048-3.62-7.078-9.955-2.771-14.627c3.465-3.759,9.558-4.673,14.36-4.973c8.889-0.556,20.087,1.168,25.298,9.228     c0.51,0.789,2.089,0.833,2.25-0.294c1.085-7.598,6.544-15.346,14.892-15.608c9.15-0.287,13.987,6.802,14.13,15.277     c0.136,8.065-2.615,16.19-7.79,22.405c-4.756,5.712-10.794,8.52-17.22,11.831C367.619,166.367,367.809,167.187,368.34,167.13     L368.34,167.13z" />
		</g>
	</g>
	<g>
		<path style="fill:#FFD5FC;" d="M400.997,146.823c3.517-4.717,4.141-11.002,3.697-16.869c-0.37-4.89-1.436-9.841-4.049-13.99    c-5.009-7.955-15.018-11.649-24.417-11.428c-9.322,0.219-19.092,4.334-23.631,12.479c0.046-1.366-1.155-2.425-2.312-3.152    c-7.758-4.871-17.656-4.278-26.73-3.028c3.211-7.048,10.989-11.387,18.729-11.657c7.74-0.27,15.299,3.082,21.253,8.033    c1.324-12.729,7.484-24.895,16.96-33.497c2.573-2.336,5.516-4.478,8.935-5.102c7.083-1.294,13.889,4.567,16.225,11.378    c2.336,6.811,1.335,14.258,0.307,21.384c2.668-7.188,5.79-14.273,10.21-20.538c4.42-6.265,10.223-11.708,17.24-14.798    c1.376-0.606,2.863-1.128,4.353-0.933c2.026,0.266,3.698,1.86,4.531,3.726c0.832,1.866,0.946,3.972,0.861,6.013    c-0.355,8.475-3.875,16.478-7.753,24.022c-9.328,18.147-21.086,35.042-34.863,50.092" />
		<g>
			<path style="fill:#FFD5FC;" d="M401.825,147.307c9.157-13.18,3.367-34.566-11.188-41.071     c-13.262-5.928-31.15-2.637-39.072,10.174c0.729,0.095,1.458,0.19,2.187,0.286c-1.117-4.586-7.153-6.349-11.237-7.206     c-6.257-1.313-12.68-0.736-18.959,0.095c0.359,0.627,0.719,1.253,1.079,1.88c7.733-15.24,26.668-12.424,38.025-3.376     c0.887,0.706,1.987,0.23,2.121-0.879c1.576-13.054,8.072-26.435,18.791-34.413c7.019-5.224,15.136-2.937,19.504,4.513     c4.155,7.085,2.814,16.021,1.711,23.738c-0.22,1.541,1.789,2.145,2.353,0.649c3.968-10.513,8.941-21.043,17.55-28.58     c2.214-1.938,4.647-3.683,7.275-5.022c2.267-1.156,3.011-1.471,5.641-0.942c3.469,0.698,4.199,2.838,4.357,6.151     c0.314,6.545-2.175,13.337-4.816,19.2c-9.16,20.34-22.533,39.117-37.492,55.566c-1.083,1.191,0.686,2.97,1.772,1.773     c9.87-10.877,18.776-22.599,26.458-35.124c7.138-11.637,15.502-25.003,16.422-38.973c0.275-4.167-0.33-9.517-4.757-11.384     c-4.434-1.87-9.938,1.971-13.361,4.435c-10.848,7.808-16.817,20.063-21.403,32.251c0.785,0.216,1.569,0.432,2.353,0.649     c1.194-8.413,2.544-17.893-1.97-25.612c-3.366-5.756-9.932-10.183-16.785-8.485c-7.348,1.821-13.282,9.149-17.287,15.158     c-4.907,7.362-7.759,15.694-8.804,24.452c0.707-0.293,1.414-0.586,2.121-0.879c-12.54-9.992-33.434-12.877-41.939,3.872     c-0.376,0.741,0.064,2.014,1.079,1.88c4.319-0.57,8.685-1.054,13.049-0.825c3.977,0.208,13.533,1.169,14.84,6.074     c0.266,1,1.668,1.166,2.187,0.286c6.835-11.599,22.912-14.492,34.853-9.91c14.478,5.556,20.037,25.748,11.685,38.631     C399.49,147.385,401.128,148.31,401.825,147.307L401.825,147.307z" />
		</g>
	</g>
</g>
</svg>