<?xml version="1.0" encoding="utf-8"?>
<svg version="1.1" id="Layer_1" xmlns="http://www.w3.org/2000/svg" xmlns:xlink="http://www.w3.org/1999/xlink" x="0px" y="0px" viewBox="1633 24 826 302" style="enable-background:new 0 0 3000 2000;" xml:space="preserve">

<g>
	<path d="M2454.795,88.711c-0.434-0.776-1.33-1.007-2.118-1.28c-1.997-0.478-4.026-0.1-6.043-0.058c0.026,0,0.051,0,0.076,0.001   c-0.038,0-0.076,0.001-0.114,0.001c-0.004,0-0.009,0.001-0.014,0.001c-0.562,0.016-0.583,0.008-0.394,0.003   c-2.846,0.02-5.692,0.041-8.537,0.061c-4.921-0.17-22.384-0.403-31.735-0.752c-19.846-2.24-39.795-2.675-59.749-2.1   c-5.96,0.291-10.909-0.091-16.7-0.301c3.457-0.417,6.916-0.811,10.38-1.152c-4.4,0.12-8.802,0.307-13.202,0.565   c-0.89-0.44-1.79-0.864-2.709-1.256c-3.481-1.851-7.804-5.788-13.135-8.028c-7.841-3.424-15.339-7.588-23.404-10.52   c-7.985-3.476-15.611-7.751-23.531-11.384c-13.567-6.874-26.795-14.755-41.577-18.765c-5.127-1.466-10.381-2.417-15.62-3.38   c-5.692-1.062-11.438-2.032-17.249-1.744c-1.829,0.009-6.144,1.561-4.845,3.53c7.676,7.19,16.505,13.637,25.5,19.166   c13.366,7.078,26.994,13.712,41.02,19.392c9.6,4.754,19.428,9.269,29.896,11.754c3.69,0.929,7.945,1.691,12.127,2.317   c-3.948,1.266-7.893,2.541-11.833,3.829c-1.107,0.125-2.214,0.252-3.318,0.407c-8.117,1.101-16.295,1.838-24.315,3.537   c-6.69,1.345-16.146,3.597-21.56,4.302c-3.668,0.355-7.92-0.016-12.23-0.528c-4.86-0.926-9.626-2.303-14.578-2.751   c-2.149-0.247-4.415-0.517-6.744-0.812c-1.366-0.792-2.664-1.684-3.827-2.752c-5.02-6.681-8.776-14.382-15.1-20.042   c-6.882-6.62-15.664-10.731-23.79-15.579c-7.96-4.424-15.566-9.534-24.045-12.952c-11.289-4.944-23.603-7.188-35.883-7.544   c-6.645-0.113-13.357-0.418-19.954,0.479c-2.198,0.456-6.365,2.028-4.953,4.821c1.413,1.245,3.899,2.873,6.963,5.06   c5.743,4.129,11.403,8.385,17.328,12.252c6.038,3.964,12.616,6.907,18.899,10.422c13.289,8.2,26.115,17.631,40.903,22.992   c14.5,5.584,29.984,7.295,45.31,9.061c3.465,0.359,6.197,1.04,11.925,2.277c3.993,0.645,8.04,0.883,12.081,0.951   c2.476,0.031,4.936-0.154,7.386-0.46c-2.515,1.374-5.06,2.696-7.627,3.975c-9.942,3.787-19.745,7.946-29.409,12.384   c-3.903,1.374-7.826,2.687-11.776,3.893c-7.686,2.498-16.152,5.146-22.339,5.809c-7.08,0.945-13.261,0.282-20.925,0.12   c-11.358,0.013-27.367-1.783-36.102-3.187c-8.058-1.062-14.804-2.169-23.287-4.729c-2.661-0.813-5.238-1.886-7.852-2.857   c1.293-1.576,1.743-3.503,0.559-5.624c0.289-3.67-1.286-7.414-4.946-8.935c-5.85-2.067-14.006,0.445-16.161,6.642   c-0.728,2.264-1.334,5.098-0.089,7.268c2.327,3.622,7.036,5.131,11.182,4.886c2.816-0.041,6.67-1.427,8.904-3.636   c1.781,0.92,3.531,1.906,5.292,2.841c3.938,1.643,7.942,3.105,12.042,4.295c9.592,2.585,19.439,4.248,29.236,5.875   c4.872,0.601,9.792,0.876,14.693,1.158c7.867,0.338,15.801,0.99,23.653,0.286c-11.513,4.056-23.094,7.899-34.843,11.26   c-14.504,4.515-29.517,8.97-47.118,9.735c-10.175,0.656-20.358-0.042-30.524-0.53c-5.76-0.335-11.596,0.16-17.299-0.882   c-6.994-2.168-13.812-4.944-20.701-7.478c-3.165-1.877-6.329-3.756-9.501-5.62c-4.974-2.807-10.044-5.438-15.028-8.222   c2.011,0.748,4.034,1.463,6.079,2.111c1.41,0.455,2.82,0.909,4.228,1.367c-7.881-3.727-15.841-7.73-22.362-13.608   c-4.112-4.279-5.302-10.1-8.36-15.97c-3.318-7.891-7.772-15.224-12.053-22.619c-1.761-3.108-3.748-6.072-5.805-8.991   c-1.508-2.264-3.037-4.556-5.116-6.344c-4.281-3.665-9.725-5.393-14.769-7.711c-10.679-4.947-22.833-3.812-34.084-1.752   c-6.585,1.373-13.659,2.545-18.683,7.394c-0.672,0.411-1.323,1.364-0.688,2.056c12.815,14.698,28.562,26.475,44.042,38.203   c4.44,3.339,12.836,9.472,15.436,11.411c5.508,4.214,11.246,8.144,17.703,10.765c16.983,7.565,34.28,14.337,51.812,20.514   c4.915,1.799,9.831,3.596,14.745,5.396c3.039,1.128,6.015,2.55,9.255,2.996c6.021,1.039,12.153,0.592,18.226,0.93   c10.4,0.525,20.82,1.129,31.231,0.531c14.203-0.507,28.104-3.583,41.726-7.465c17.012-5.183,34.089-10.144,50.733-16.434   c-4.554,2.468-9.09,4.973-13.616,7.493c2.65-1.747,5.286-3.513,7.907-5.293c-8.734,5.031-17.615,9.815-26.614,14.359   c-6.272,2.872-12.607,5.626-19.006,8.224c-2.577,0.87-5.316,1.727-8.447,2.672c-3.932,1.314-7.339,2.307-10.662,3.211   c0.885-0.376,1.766-0.764,2.641-1.168c15.959-6.698,31.774-13.707,47.178-21.611c-19.224,8.316-37.844,15.426-57.699,22.946   c-10.05,3.049-20.053,6.247-30.063,9.421c-4.863,1.052-9.824,2.124-14.354,3.208c-1.126,0.292-2.374,0.659-3.621,1.057   c-6.942,0.771-13.91,1.407-20.896,1.958c-5.102,0.233-10.203,0.476-15.304,0.706c-4.67,0.08-9.322,0.411-13.972,0.776   c-1.079-0.028-2.158-0.07-3.237-0.141c-11.656-0.687-23.019-3.395-34.373-5.932c-15.686-3.201-31.58-6.043-46.706-11.394   c-7.834-3.046-14.875-7.777-22.667-10.89c-12.694-4.82-25.566-9.291-37.681-15.471c-14.166-7.497-27.451-16.538-40.889-25.247   c-9.396-6.196-18.677-12.635-28.668-17.853c-12.99-6.846-26.723-12.125-40.331-17.592c-7.494-2.907-15.206-5.211-22.981-7.233   c-7.314-2.007-14.76-3.636-22.378-3.691c-5.676-0.081-11.341-0.829-17.019-0.487c-10.289,0.963-20.085,4.529-29.699,8.155   c-1.278,0.325-2.509,0.802-3.624,1.521c-0.458,0.289-0.858,0.748-0.89,1.282c-0.092,1.261,1.834,1.481,2.783,1.45   c1.342-0.059,2.633-0.39,3.904-0.824c1.749-0.138,3.535,0.017,5.231,0.459c4.767,1.53,8.966,4.467,13.198,7.076   c11.144,6.872,23.71,10.785,36.356,13.838c6.541,1.072,13.256,0.876,19.872,0.951c8.217-0.108,16.383-1.126,24.587-1.537   c4.828-0.071,9.654,0.347,14.479,0.51c4.052-0.058,8.042,0.36,11.96,1.122c4.862,2.64,9.615,5.486,14.204,8.629   c15.674,10.235,31.138,20.839,47.362,30.193c13.134,7.327,27.33,12.384,41.395,17.593c2.092,0.757,4.126,1.646,6.133,2.595   c-6.378-1.747-12.861-3.068-19.254-4.749c-13.698-2.454-28.111-4.247-42.438-5.459c-5.919-0.316-11.843-0.633-17.772-0.63   c-4.277,0.18-8.543,0.553-12.824,0.618c-0.008-0.093-0.007-0.183-0.019-0.277c-0.013-0.059-0.042-0.11-0.056-0.168   c0.047-0.447,0.061-0.897-0.003-1.338c-0.3-0.888-0.794-1.713-1.292-2.504c-0.88-1.07-2.231-1.464-3.565-1.644   c-0.811-0.192-1.669-0.273-2.551-0.258c-0.095-0.015-0.191-0.043-0.286-0.055c-2.516-0.3-5.266,0.379-7.452,1.817   c-4.438,1.679-9.107,5.384-8.808,10.551c1.728,8.564,13.667,7.868,19.418,3.943c1.467-1.142,2.644-2.542,3.56-4.157   c0.412-0.428,0.587-0.934,0.525-1.517c-0.002-0.007-0.002-0.015-0.004-0.023c5.389-0.181,10.114-0.739,13.592-0.64   c18.358,0.373,37.358,2.457,55.252,4.24c7.5,1.465,15.075,2.505,22.557,4.078c3.139,0.761,6.288,1.489,9.438,2.215   c3.706,1.916,7.431,3.79,11.353,5.228c-3.676-0.746-7.355-1.467-11.057-2.073c-11.232-1.852-22.571-2.982-33.953-3.253   c-11.683-0.79-23.371-0.16-34.893,1.949c-17.956,2.685-35.419,7.935-52.114,15.027c-17.071,6.904-33.566,15.356-48.339,26.415   c-4.608,3.267-8.836,7.026-13.335,10.434c-3.04,2.35-21.578,14.3-9.801,13.334c3.073-0.493,5.84-2.054,8.572-3.463   c2.603-1.038,5.287-1.868,8-2.569c4.518-1.387,9.231-0.719,13.871-0.95c7.203-0.145,14.389-0.794,21.491-2.01   c9.716-1.2,19.257-4.917,26.239-11.95c5.876-5.321,11.353-11.056,17.209-16.394c3.853-4.101,8.296-8.732,10.899-10.653   c8.194-5.25,13.763-7.14,21.849-10.338c6.703-2.959,13.989-3.763,21.224-4.277c2.789-0.225,5.579-0.437,8.369-0.65   c0.723,0.026,1.446,0.053,2.169,0.074c18.694,0.468,37.012,4.365,55.262,8.108c9.589,1.635,19.175,3.283,28.767,4.899   c6.649,1.088,13.327,2.066,19.886,3.629c2.823,0.68,5.432,2.117,8.334,2.481c4.38,0.633,8.84,0.324,13.226-0.097   c0.665-0.071,1.331-0.125,1.997-0.19c0.256,0.014,0.51,0.034,0.766,0.046c11.178,0.378,22.332-0.565,33.476-1.503   c-9.301,2.157-20.164,4.422-25.891,5.105c-6.759,1.125-9.735,0.845-17.314,2.163c-7.373,1.742-15.317,3.575-22.12,6.901   c-9.159,4.894-17.742,9.016-26.039,14.783c-0.497-0.301-1.03-0.577-1.603-0.819c-1.878-2.206-5.897-2.237-8.441-1.396   c-1.756,0.6-3.192,1.674-4.383,2.998c-1.695,1.219-3.087,2.837-3.928,4.814c-2.508,4.677,0.494,7.996,4.514,9.246   c5.487,2.176,12.506,0.116,15.608-5.006c2.967-4.052,1.821-7.391-1.26-9.512c6.613-3.629,13.458-6.796,20.275-10.02   c3.933-1.697,7.747-3.7,11.794-5.118c6.031-1.518,12.253-3.428,18.288-4.087c12.273-0.654,24.459-2.435,36.438-5.18   c6.831-1.764,13.794-2.875,20.675-4.392c3.183-0.817,5.604-1.992,8.557-2.934c0.096-0.022,0.193-0.042,0.29-0.064   c7.262-0.881,14.512-1.863,21.697-3.22c12.191-2.999,24.115-6.961,35.736-11.686c5.939-1.865,11.958-3.939,18.384-6.491   c-1.387,0.768-2.769,1.546-4.158,2.309c-25.352,14.446-51.68,27.403-75.281,44.694c-9.083,6.694-17.209,14.574-25.117,22.594   c-6.365,6.421-12.918,12.734-18.234,20.082c-12.671,17.413-23.006,37.944-22.235,59.977c-0.003,3.309,0.173,6.618,0.45,9.915   c0.146,0.948,0.049,2.211,1.064,2.66c2.989,1.193,6.157-0.325,8.592-2.069c2.29-1.535,4.578-3.071,6.868-4.606   c8.376-5.297,16.096-11.526,23.394-18.217c5.435-4.763,10.733-9.824,14.542-16.023c5.9-9.106,9.032-19.595,11.737-30.009   c0.943-3.827,2.077-7.604,3.024-11.428c0.718-3.606,1.143-7.275,2.067-10.838c2.094-6.104,3.359-12.439,5.095-18.637   c1.635-3.39,4.42-6.103,7.052-8.737c1.644-1.538,3.374-2.98,5.133-4.383c-0.77,0.516-1.541,1.03-2.311,1.546   c-4.518,3.172-9.037,6.635-12.342,11.106c-1.253,2-1.89,4.314-2.798,6.48c-2.892,7.578-6.62,14.811-8.361,22.788   c-4.973,13.791-9.797,31.679-16.559,42.145c-4.531,7.257-10.656,12.418-16.83,17.974c-6.454,5.899-13.565,10.956-20.882,15.712   c-0.37-6.957-0.22-14.114,0.526-19.504c2.003-11.661,6.702-22.689,12.607-32.886c2.044-3.646,5.372-8.689,8.896-13.468   c5.144-6.927,11.362-12.944,17.404-19.072c7.793-7.967,15.826-15.773,24.886-22.304c24.776-17.93,51.664-30.915,78.388-46.315   c24.021-13.168,47.53-27.402,72.263-39.21c22.622-8.169,45.195-16.47,67.643-25.099c5.75-1.562,11.537-2.991,17.349-4.314   c2.648-0.384,5.195-0.705,8.018-1c-16.28,4.748-32.581,9.533-48.017,16.607c-7.603,3.595-14.423,8.603-21.634,12.897   c-3.438,2.117-6.892,4.207-10.307,6.361c0.656-0.492-1.419,0.745-2.051,1.081c-1.24,0.659-2.306,1.574-3.319,2.535   c-3.114,3.004-6.373,5.958-9.44,9.078c-8.527,6.058-16.857,12.391-24.934,19.023c-8.202,7.195-15.748,15.107-23.23,23.033   c-6.271,7.1-8.767,16.489-13.006,24.785c-3.806,8.266-7.838,16.439-11.247,24.879c-1.288,3.13-2.948,6.144-3.628,9.487   c-1.213,5.989,1.469,11.761,2.74,17.512c1.348,4.799,5.489,23.273,10.684,23.081c7.709,0.519,8.981-7.228,11.751-12.597   c2.182-4.11,7.056-10.789,10.769-16.382c5.049-7.135,10.066-14.293,14.045-22.097c3.023-5.248,6.098-10.6,7.658-16.497   c2.989-13.027,7.023-25.758,10.968-38.519c2.813-8.086,3.204-16.876,7.449-24.404c0.929-2.129,4.556-6.282,8.342-10.259   c7.823-5.518,15.559-11.176,23.73-16.165c8.23-4.739,16.863-8.721,25.354-12.961c7.964-3.983,15.934-7.958,23.967-11.797   c1.264-0.368,2.529-0.735,3.795-1.09c8.396-2.671,16.841-5.173,25.326-7.543c1.95-0.591,6.61-1.795,10.986-2.341   c1.105-0.092,2.21-0.18,3.315-0.269c0.423-0.012,0.838-0.017,1.233-0.005c0.895,0.01,1.862,0.037,2.866,0.073   c0.056,0.008,0.112,0.016,0.168,0.025c2.689,1.34,5.351,2.743,8.26,3.564c9.006,2.661,18.587,2.436,27.814,1.024   c-4.546,2.452-9.417,4.264-14.086,6.472c-11.505,5.73-22.884,12.013-32.328,20.851c-11.316,9.877-19.861,22.417-26.896,35.592   c-5.921,11.501-11.431,23.613-13.386,36.491c-0.638,5.402,0.224,10.878,1.514,16.125c0.355,1.048,0.287,2.506,1.384,3.063   c0.528,0.24,1.082,0.371,1.664,0.394c5.272,0.461,8.194-4.314,11.124-7.879c4.029-4.685,7.833-9.574,12.046-14.095   c13.033-13.946,26.389-27.642,38.402-42.494c5.986-7.395,9.544-16.371,12.951-25.159c1.147-6.071,2.252-12.239,6.002-17.348   c4.196-6.223,9.947-11.26,16.41-15.024c0.294-0.15,0.6-0.271,0.912-0.379c4.987,0.117,9.969,0.422,14.949,0.697   c18.944,1.336,37.972,3.201,56.964,1.765c2.217-0.09,4.536-0.285,6.393-1.621C2454.791,90.607,2455.525,89.532,2454.795,88.711z    M2165.151,85.749c-15.611-5.423-28.901-15.601-42.968-23.994c-5.83-3.053-11.79-5.825-17.34-9.396   c-6.652-4.217-12.976-8.932-19.475-13.385c4.845,0.049,10.936,0.151,15.914,0.831c9.829,1.323,16.235,3.238,24.316,6.897   c6.306,2.702,12.053,6.472,18.065,9.74c7.607,4.103,15.443,7.78,22.982,12.007c8.596,4.763,15.982,13.705,23.553,22.078   c0.619,0.496,1.265,0.944,1.925,1.366C2182.65,90.517,2172.759,88.617,2165.151,85.749z M1950.369,121.912   c-6.144-2.945-9.402-5.72-14.27-9.238c-2.695-2.119-11.295-8.31-15.894-11.803c-14.089-10.76-28.286-21.623-40.278-34.747   c-0.427-0.443-0.83-0.908-1.223-1.382c0.633-0.515,1.273-1.019,2.01-1.367c1.568-0.676,3.275-0.931,4.931-1.307   c4.339-0.968,8.768-1.515,13.198-1.85c8.265-0.309,12.354,0.879,18.462,4.08c3.161,1.552,6.476,2.873,9.315,4.996   c1.914,1.141,8.198,10.658,11.168,15.145c3.745,5.635,7.598,11.196,11.516,16.712c3.674,5.83,7.183,11.808,11.335,17.312   c2.562,3.4,6.428,5.431,10.169,7.282c2.266,1.127,4.579,2.151,6.915,3.119c4.943,3.9,10.142,7.455,15.523,10.724   C1978.741,134.231,1964.433,128.35,1950.369,121.912z M1752.739,94.698c-10.609-1.311-26.613,0.602-31.631,0.275   c-5.429-0.11-10.867-0.236-16.28-0.662c-9.001-2.217-18.103-4.399-26.487-8.454c-8.494-3.451-15.898-10.305-24.791-12.42   c5.127-1.743,10.341-3.274,15.724-3.941c3.713-0.367,7.432,0.147,11.144,0.303c7.55,0.122,15.07,0.726,22.328,2.94   c8.786,2.258,17.532,4.764,25.945,8.184c11.578,4.651,23.217,9.313,34.391,14.866C1759.639,95.389,1756.176,95.111,1752.739,94.698   z M1816.676,169.527c-7.641,2.441-15.177,5.481-21.99,9.755c-4.865,3.439-8.883,7.962-12.953,12.282   c-5.784,5.321-11.176,11.049-16.967,16.368c-1.663,1.791-7.217,5.987-12.163,7.18c-10.169,2.267-20.615,3.22-31.027,3.115   c-4.829-0.027-9.668,0.741-14.348,2.081c1.269-0.903,2.546-1.796,3.796-2.719c3.634-2.759,7.08-5.755,10.705-8.526   c15.774-12.263,33.68-21.322,52.21-28.634c16.407-6.791,33.704-11.198,51.292-13.527   C1822.346,167.656,1819.497,168.574,1816.676,169.527z M2230.917,103.212c0.899-0.571,1.803-1.133,2.692-1.72   c1.444-0.218,2.885-0.461,4.32-0.746C2235.584,101.543,2233.248,102.37,2230.917,103.212z M2180.684,166.407   c-1.161,5.013-2.695,9.932-4.175,14.859c-1.874,6.266-3.846,12.506-5.627,18.797c-2.085,7.614-3.063,15.625-6.527,22.786   c-2.745,5.609-7.17,13.522-9.13,16.908c-6.618,10.244-15.512,21.854-20.42,30.588c-2.7-7.485-4.04-15.466-6.129-23.128   c-1.652-5.909,0.812-10.217,3.513-16.362c2.601-6.416,5.672-12.626,8.588-18.902c4.334-8.458,8.578-20.29,12.473-26.161   c4.999-6.531,11.225-12.042,16.862-18.015c4.176-4.248,8.648-8.136,13.458-11.992   C2182.172,159.186,2181.354,162.788,2180.684,166.407z M2287.604,88.035c-0.328,0.023-0.657,0.039-0.985,0.064   c2.602-1.033,5.197-2.086,7.794-3.129c2.624,0.377,5.192,0.702,7.543,0.978C2297.158,86.547,2292.371,87.233,2287.604,88.035z    M2287.96,78.821c-10.854-2.277-20.824-7.244-30.756-11.985c-9.627-3.924-19.077-8.254-28.297-13.057   c-5.926-2.892-11.905-5.715-17.318-9.519c-4.46-3.082-8.859-6.363-13.747-10.371c0.859,0.154,1.717,0.316,2.573,0.484   c10.131,1.831,18.953,4.01,26.636,7.292c9.01,3.782,17.425,8.839,26.194,13.138c5.063,2.717,10.331,5.024,15.456,7.621   c3.67,1.758,7.183,3.851,10.997,5.297c7.567,2.726,14.631,6.565,21.996,9.727c2.797,1.245,5.57,2.576,8.124,4.276   c0.318,0.215,0.635,0.431,0.953,0.648C2303.131,81.398,2295.466,80.601,2287.96,78.821z M2372.667,91.518   c-9.209,4.542-17.704,11.286-22.834,20.307c-2.191,3.603-3.016,7.769-4.41,11.696c-2.848,5.96-7.126,14.078-9.515,17.833   c-2.808,4.323-6.277,8.17-9.642,12.059c-14.272,16.917-30.146,32.418-44.152,49.546c-1.438-7.496-0.817-14.253,1.795-21.962   c3.086-9.926,7.26-19.502,12.292-28.594c8.695-16.826,25.212-35.919,45.654-45.941c9.582-5.551,20.508-8.592,29.558-15.034   c0.362-0.511,0.396-0.898,0.237-1.199c1.331,0,2.662,0.005,3.992,0.036C2374.591,90.525,2373.619,91.01,2372.667,91.518z" />
	<path d="M2446.635,87.372c-0.177-0.002-0.342,0.001-0.445,0.004c0.136-0.001,0.271-0.002,0.407-0.003   C2446.61,87.373,2446.622,87.373,2446.635,87.372z" />
	<path d="M1857.263,121.434c7.997,8.414,17.74,14.835,27.176,21.505c17.181,12.598,38.322,17.205,58.354,23.266   c8.619,2.829,17.125,6.039,25.881,8.429c21.772,5.549,44.399,4.526,66.628,3.304c-18.209-0.342-36.607-0.19-54.459-4.283   c-12.029-2.531-22.012-7.075-33.389-10.772c-3.884-1.211-7.814-2.358-11.747-3.516c-0.454-0.251-0.909-0.499-1.357-0.762   c-3.963-1.797-6.36-7.929-7.88-10.511c-2.085-4.28-4.105-8.682-7.052-12.45c-3.671-3.747-8.34-6.361-12.909-8.857   c-5.712-2.884-11.901-4.99-18.257-5.824c-5.359-0.77-10.65-0.28-14.87-0.565c-3.301-0.389-4.149-0.719-7.832-2.724   c-1.403-0.741-2.653-1.936-4.289-2.098c-2.264-0.251-5.219,0.29-6.478,2.362c-0.133,0.388-0.063,0.735,0.21,1.041   C1855.637,119.895,1856.46,120.659,1857.263,121.434z M1874.047,125.119c4.459-0.047,10.366,0.026,15.577,1.526   c7.903,1.826,17.974,6.754,23.129,10.647c6.254,5.941,9.798,14.265,16.238,20.047c0.017,0.012,0.036,0.023,0.054,0.035   c-12.602-3.846-25.01-8.28-35.874-15.906c-8.131-5.702-14.148-9.928-21.969-16.372   C1872.151,125.137,1873.101,125.142,1874.047,125.119z" />
</g>
</svg>