<?xml version="1.0" encoding="utf-8"?>
<svg version="1.1" id="Layer_1" xmlns="http://www.w3.org/2000/svg" xmlns:xlink="http://www.w3.org/1999/xlink" x="0px" y="0px" viewBox="2234 698 751 861" style="enable-background:new 0 0 3000 2000;" xml:space="preserve">

<g>
	<path d="M2981.73,914.112c-0.297-3.119-4.116-2.21-5.888-0.814c-8.748,8.436-16.733,17.771-26.833,24.676   c-6.982,4.796-14.741,8.306-22.567,11.478c-9.81,3.832-19.916,7.103-30.328,8.8c-12.809,2.711-25.225,6.999-37.75,10.766   c-6.856,2.187-13.699,4.498-20.281,7.424c-16.691,7.932-32.179,18.215-47.258,28.839c-14.563,10.47-29.868,20.02-43.15,32.153   c-7.173,6.626-13.321,14.26-19.745,21.593c-5.141,5.855-10.087,11.863-14.629,18.198c6.82-7.958,14.024-15.048,21.419-22.61   c5.831-5.862,11.431-11.988,17.809-17.271c10.614-8.829,21.495-16.222,32.782-24.004c9.762-6.888,19.445-13.892,29.59-20.212   c9.07-5.649,18.212-11.322,28.065-15.517c11.302-4.65,23.14-7.791,34.775-11.474c5.288-1.515,10.588-3.028,15.927-4.345   c4.331-0.857,8.715-1.479,12.97-2.685c12.607-3.408,24.96-7.899,36.58-13.888c12.425-6.049,22.3-15.712,31.871-25.483   c-0.397,0.999-0.927,2.021-1.501,3.055c-3.951,6.264-9.061,11.69-14.257,16.929c-3.52,3.561-7.092,7.104-11.113,10.104   c-15.777,10.869-32.755,19.883-49.071,29.906c-23.041,12.617-43.094,23.44-67.258,34.58c-7.589,3.711-15.568,6.49-23.421,9.578   c-9.573,4.187-19.222,8.21-28.551,12.928c-6.865,3.564-14.081,6.374-20.995,9.828c-8.759,4.906-17.302,10.246-25.772,15.63   c-6.099,4.031-11.436,9.056-17.178,13.559c-7.833,5.788-14.738,12.665-22.121,18.989c-0.489,0.409-0.978,0.819-1.467,1.228   c0.681-0.495,1.365-0.985,2.045-1.48c7.172-5.239,14.031-11.284,20.772-15.809c6.981-4.65,14.259-10.769,20.032-14.384   c9.056-5.52,18.259-10.843,27.487-16.076c9.589-4.341,19.125-8.786,28.535-13.51c6.868-2.986,13.686-6.099,20.596-8.985   c8.442-3.241,16.897-6.427,25.019-10.422c23.302-10.977,46.12-22.981,68.525-35.683c15.964-9.862,32.693-18.577,47.992-29.468   c3.998-3.039,7.553-6.604,11.077-10.169c5.211-5.289,10.365-10.719,14.459-16.94C2980.512,920.425,2982.326,917.34,2981.73,914.112   z" />
	<path d="M2829.095,988.904c-0.933,0.666-1.865,1.332-2.796,2c-6.324,4.532-12.622,9.1-18.887,13.713   c-2.538,1.606-8.799,5.797-12.595,8.327c-22.348,15.005-44.353,30.596-65.055,47.822c33.358-23.111,68.392-44.142,98.702-71.314   C2828.674,989.269,2828.885,989.086,2829.095,988.904z" />
	<path d="M2669.837,1068.117c5.116-22.366,7.855-45.246,9.278-68.129c-3.497,16.506-7.4,32.917-11.066,49.385   c-3.178,12.854-5.526,25.996-11,38.142c-2.09,4.665-3.636,9.59-6.215,14.022c-2.561,4.083-5.247,8.133-8.444,11.75   c-2.169,2.468-4.806,4.445-7.208,6.67c-2.147,2.032-4.545,3.767-7.013,5.383c2.774-1.495,5.488-3.112,7.972-5.059   c10.352-7.01,18.999-16.679,24.075-28.163C2664.076,1084.397,2667.783,1076.542,2669.837,1068.117z" />
	<path d="M2627.201,1148.13c10.587,1.96,21.175,4.095,31.898,5.143c13.155,0.983,26.46-0.114,39.271-3.249   c-1.486,0.17-2.971,0.362-4.455,0.55C2671.678,1153.521,2649.397,1149.543,2627.201,1148.13z" />
	<path d="M2520.843,1110.145c-8.186,15.427-18.544,31.773-25.414,46.894c-4.349,8.182-9.997,18.769-13.523,28.316   c5.727-9.799,12.26-19.091,18.088-28.829C2507.957,1141.573,2515.602,1126.288,2520.843,1110.145z" />
	<path d="M2804.216,954.555c-3.654,4.041-6.619,8.646-9.917,12.972c-5.484,7.829-11.206,15.628-15.099,24.402   c4.915-8.238,11.337-15.413,17.354-22.842c3.937-4.438,7.832-9.374,11.733-13.539c4.585-4.535,9.956-8.167,15.04-12.105   c6.737-5.186,13.62-11.141,19.812-13.815c1.418-0.459,2.822-0.785,4.339-1.06c0.043-0.009,0.089-0.019,0.133-0.028   c4.462,2.146,11.17,0.802,15.184-1.922c5.732-3.391,7.444-11.437,4.339-17.167c-1.151-2.094-2.555-4.246-4.96-4.989   c-6.3-1.979-13.065,2.468-17.254,6.888c-1.161,1.396-1.797,3.139-2.529,4.78c-0.958,2.229-1.684,4.911-0.715,7.249   c0.448,0.947,0.884,1.966,1.461,2.865c-9.588,2.896-17.186,10.176-24.922,16.277   C2813.443,946.399,2808.443,950.062,2804.216,954.555z" />
	<path d="M2796.752,1129.556c-1.793-0.497-3.752-0.006-5.591,0.019c-6.063,0.208-11.931,1.771-17.827,3.052   c-6.802,1.149-13.674,1.913-20.563,2.283c-7.343,0.381-14.696-0.027-22.042,0.131c-18.654,0.754-37.277,1.988-55.78,4.538   c-11.018,1.385-18.213,2.407-28.385,2.86c-12.842,0.75-25.74,1.209-38.337,4.047c-5.613,1.026-11.288,1.968-16.804,3.421   c0.644-0.535,1.311-1.044,1.979-1.549c7.816-4.092,15.665-8.113,23.741-12.13c7.766-3.965,15.659-7.812,23.528-11.731   c5.282-1.101,10.413-3.168,15.604-4.557c8.278-2.386,16.293-5.561,24.368-8.542c4.909-2.048,10.694-4.82,14.486-5.978   c4.313-1.474,6.259-1.659,10.651-2.695c3.802-1.006,7.547-2.223,11.386-3.088c2.279-0.387,10.906-1.627,15.335-2.465   c1.25-0.206,2.793-0.18,5.183-0.412c1.426-0.179,2.848-0.397,4.267-0.624c0.428,1.281,1.054,2.492,1.877,3.535   c1.413,1.31,3.515,1.57,5.371,1.507c4.251-0.199,8.119-2.422,11.074-5.388c1.669-1.567,3.392-3.176,4.289-5.329   c0.915-2.072,1.45-4.523,0.825-6.745c-1.152-2.401-2.533-4.991-4.642-6.673c-5.679-3.367-12.918,0.966-17.4,4.654   c-1.868,1.554-2.869,3.771-3.277,6.13c-0.257,1.507-0.502,3.071-0.436,4.607c-1.308,0.165-2.585,0.294-4.315,0.382   c-3.872,0.457-7.682,1.348-11.535,1.945c-6.591,0.676-12.894,2.739-19.219,4.608c-12.324,2.269-23.016,9-34.547,13.517   c-7.177,3.196-14.587,5.794-21.95,8.521c-1.515,0.556-3.035,1.133-4.567,1.671c22.852-11.452,45.363-23.715,63.873-41.527   c10.72-11.212,20.156-23.543,29.735-35.743c2.327-2.273,4.635-4.569,6.747-7.041c1.87-2.222,3.475-4.654,5.525-6.724   c2.669-3.036,4.685-6.596,7.398-9.601c2.79-3.119,5.305-6.463,7.927-9.721c3.591-3.703,6.902-7.645,9.571-12.072   c2.237-3.683,4.185-7.538,5.871-11.51c1.221-2.312,2.404-4.644,3.59-6.966c3.215-6.446,6.28-12.843,9.284-19.191   c1.198-0.278,1.977-0.989,2.566-1.892c0.014-0.002,0.028-0.004,0.042-0.006c0.003-0.026,0.007-0.051,0.01-0.077   c0.813-1.286,1.279-2.919,2.014-4.245c1.776-3.882,2.864-5.647,4.96-9.427c9.021-17.593,18.143-35.145,26.5-53.064   c3.043-4.835,6.168-9.618,8.907-14.633c4.745-8.583,7.569-17.927,11.961-25.22c3.061-5.12,5.889-10.401,9.408-15.228   c4.562-5.714,11.943-13.682,14.928-16.995c5.927-5.917,13.155-10.346,19.304-16.029c8.039-6.757,13.815-15.695,18.502-24.997   c3.632-6.744,7.375-13.43,11.365-19.97c4.229-6.877,8.43-13.767,13.106-20.353c4.174-6.355,8.941-12.312,12.88-18.818   c1.844-2.934,3.57-5.943,5.548-8.789c1.532-2.422,3.463-4.871,3.736-7.771c0.025-0.867,0.131-2.07-0.854-2.411   c-0.476-0.171-0.967-0.247-1.474-0.225c-3.742,0.21-6.648,3.102-9.853,4.761c-4.232,2.672-8.6,5.11-12.947,7.586   c-8.373,4.876-17.253,8.91-25.331,14.281c-8.366,6.062-15.978,13.161-23.288,20.445c-9.499,9.279-16.299,22.942-21.131,32.953   c-7.057,14.668-13.98,29.398-20.595,44.271c-2.54,5.291-4.932,10.644-7.233,16.036c-1.328,1.629-2.654,3.261-3.975,4.896   c1.086-1.071,2.171-2.145,3.254-3.218c-10.79,25.533-19.498,51.938-30.745,77.297c-1.436,2.728-2.973,5.792-4.569,9.055   c0.559-6.1,1.019-12.211,1.605-18.303c0.262-17.924,0.942-35.883-0.359-53.783c-1.592-19.223-5.348-38.253-11.254-56.617   c-2.949-8.928-5.235-18.046-7.804-27.082c-2.944-9.154-8.255-17.463-14.808-24.458c-3.949-4.154-8.152-8.166-13.07-11.159   c-2.546-1.839-5.65-2.988-8.74-1.801c-8.199,2.585-5.565,8.748-4.321,15.115c1.767,10.563,3.771,21.086,4.577,31.779   c1.561,13.697,2.285,27.486,4.32,41.123c1.164,6.666,2.569,13.292,3.776,19.951c0.938,5.739,1.709,11.52,3.229,17.145   c2.478,8.331,8.098,14.661,11.363,21.362c5.416,11.922,7.498,24.993,8.715,37.938c0.914,11.204,3.194,25.836,3.63,35.273   c-0.575,7.444-1.927,14.871-3.99,22.097c-3.575,7.495-7.16,14.721-12.651,22.399c-1.742,2.199-3.494,4.391-5.243,6.585   c2.364-6.884,4.2-13.992,4.618-21.271c0.268-3.536-0.752-7.077-1.292-10.56c-1.225-6.493-2.979-12.874-5.163-19.107   c1.878-1.243,3.361-3.066,3.99-5.224c0.029-0.068,0.05-0.136,0.077-0.205c1.758-1.981,2.798-4.56,2.498-7.236   c-0.045-0.391-0.115-0.787-0.203-1.183c-0.077-0.908-0.38-1.858-0.964-2.839c-0.056-0.075-0.12-0.139-0.179-0.21   c-1.043-1.878-2.658-3.37-4.822-3.739c-0.043-0.015-0.08-0.038-0.124-0.052c-1.627-0.519-3.269-0.342-4.812,0.275   c-3.364,0.559-6.635,1.94-8.806,4.526c-2.999,4.42-4.44,11.601,1.051,13.113c0.736,1.917,2.175,3.537,4.173,4.196   c2.221,0.65,4.63,0.338,6.734-0.648c1.223,9.784,2.144,20.431,2.575,28.613c-0.912,8.01-2.42,15.932-4.32,23.767   c-0.565,2.255-1.289,4.456-2.085,6.631c-8.14,10.179-16.293,20.351-24.326,30.615c-8.735,10.91-17.032,22.233-26.709,32.343   c-8.021,7.872-17.028,14.601-26.477,20.681c2.609-6.037,5.306-12.045,7.516-18.238c5.313-16.649,9.119-33.752,12.01-50.978   c1.802-12.267,4.221-24.53,4.469-36.956c0.165-7.578-1.487-15.026-2.828-22.443c-4.134-18.972-7.897-38.028-12.982-56.776   c-3.298-13.25-13.136-45.534-28.74-45.735c-9.577,0.626-9.61,10.606-8.33,17.87c0.651,7.878,2.276,15.619,3.674,23.387   c2.785,16.398,5.436,32.818,7.84,49.276c2.142,20.471,2.136,41.049,2.032,61.611c-0.095,12.813,0.199,23.872-0.917,37.059   c-1.316,7.766-3.782,15.276-6.228,22.744c-3.04,8.43-5.871,15.599-13.569,21.498c-4.579,3.587-9.987,5.883-14.719,9.234   c-5.668,3.753-10.392,8.65-15.615,12.956c-2.869,1.972-6.031,3.542-8.701,5.81c-3.711,3.133-5.809,7.634-8.01,11.861   c-0.663,1.189-0.572,1.507-1.409,2.42c-10.724,5.587-21.399,11.27-31.995,17.105c-3.974,1.757-7.958,3.49-11.855,5.416   c-6.943,3.47-14.061,6.624-20.75,10.567c5.768-6.682,11.254-13.616,16.497-20.701c4.064-5.814,8.786-11.332,11.658-17.865   c2.945-7.062,3.798-14.689,4.599-22.228c0.323-2.624,0.678-5.259,0.807-7.902c0.375-0.074,0.74-0.155,1.086-0.239   c5.711-1.321,9.7-6.967,9.141-12.788c0.02-4.179-2.719-8.292-6.819-9.418c-2.846-0.737-5.887,0.235-8.39,1.613   c-4.854,3.067-5.002,8.522-4.126,13.737c0.018,1.259,0.269,2.519,0.761,3.713c0.178,0.757,0.358,1.498,0.529,2.204   c0.393,2.864-0.516,8.344-0.866,12.743c-0.467,6.881-1.168,13.836-3.542,20.361c-3.546,7.96-9.097,15.329-13.602,23.021   c-3.606,5.104-7.007,10.355-10.589,15.474c-7.302,4.387-14.332,9.175-21.252,14.125c-11.795,6.951-23.423,14.163-34.745,21.82   c0.199-0.23,0.399-0.46,0.598-0.689c8.052-10.469,15.818-21.152,23.457-31.921c3.171-4.089,7.099-7.505,10.426-11.46   c7.536-8.484,14.586-17.395,20.865-26.853c8.659-13.104,15.929-27.799,16.593-43.751c0.396-4.602,0.818-9.273-0.032-13.849   c-1.43-7.622-4.502-14.848-8.093-21.687c-2.814-5.506-6.453-10.555-11.162-14.596c-0.955-0.791-1.946-1.839-3.259-1.848   c-1.684-0.089-3.565,0.482-4.774,1.68c-2.537,5.17-2.943,11.246-3.847,16.903c-0.751,5.654-1.594,11.288-2.78,16.87   c-2.054,10.104-3.639,20.338-6.561,30.242c-3.125,10.439-10.032,24.197-13.82,32.073c-5.428,9.65-11.284,19.147-15.213,29.54   c-5.353,14.285-8.737,29.223-14.077,43.509c-0.403,1.018-0.76,1.974-1.103,2.887c-2.472,2.843-4.944,5.686-7.416,8.529   c-1.86,2.046-3.919,3.971-5.708,6.099c-9.904,0.165-20.717,4.012-25.466,13.257c-6.669,12.198-14.577,23.63-21.767,35.509   c-0.125,0.221-0.259,0.435-0.387,0.653c7.675-19.094,14.28-38.848,14.593-59.603c0.257-7.402-0.681-15.001-4.424-21.518   c-2.637-4.862-5.784-8.986-11.906-8.217c-5.401,0.367-11.176,3.093-13.287,8.357c-1.049,2.187-0.963,4.662-0.942,7.029   c-0.164,2.683,0.569,5.758,3.203,7.004c0.621,0.257,1.273,0.444,1.936,0.599c0.503,0.443,1.104,0.815,1.825,1.087   c4.4,1.4,9.526-0.002,13.142-2.731c0.672-0.553,1.401-1.504,2.06-2.635c1.914,7.817,1.854,16.767,1.332,24.171   c-0.824,16.9-5.113,33.268-9.462,49.541c-2.226,3.354-4.653,6.577-6.575,10.132c-1.108,1.844-2.226,3.684-3.343,5.524   c-2.465,3.529-4.893,7.084-7.241,10.691c0.976-5.881,1.895-11.769,2.317-17.711c0.517-10.005-0.765-19.988-1.867-29.914   c-0.823-6.644-0.673-13.543-3.097-19.877c-4.011-8.278-9.505-15.813-14.98-23.181c-5.941-7.502-12.133-14.989-19.637-20.986   c-2.72-2.244-6.16-3.356-9.656-3.538c-1.756-0.2-3.604,0.336-4.987,1.43c-0.883,0.671-0.858,1.884-1.255,2.838   c-1.182,4.438,1.551,8.682,2.903,12.774c2.321,6.633,5.515,12.907,8.38,19.313c3.424,7.333,7.961,14.149,10.997,21.645   c2.895,7.777,4.627,16.022,9.047,23.159c1.815,3.065,3.828,6.013,6.021,8.82c3.193,4.048,5.407,6.228,6.266,11.566   c0.968,6.486-2.575,14.469-5.525,21.609c-1.827,4.148-3.766,7.116-6.474,12.002c-3.304,7.253-7.521,14.175-9.745,21.865   c-1.149,4.128-2.434,8.217-3.739,12.297c-0.246,0.748-0.59,1.467-0.686,2.256c-0.044,0.132-0.053,0.254-0.034,0.368   c-1.769,3.087-3.213,6.393-4.483,9.719c-2.406,5.406-4.238,11.008-5.859,16.678c-0.526-7.609-1.709-15.192-3.126-22.689   c-1.423-7.326-2.469-14.998-6.388-21.494c-0.316-0.541-0.649-1.084-0.994-1.622c0.286-3.417-0.503-6.866-2.776-9.495   c-0.936-0.915-1.703-2.053-2.868-2.689c-0.924-0.434-1.981-0.501-2.988-0.379c-3.823,0.327-7.445,2.713-9.544,5.976   c-1.874,0.678-3.602,1.709-4.947,3.144c-2.181,3.089-1.904,7.516-0.544,10.893c0.49,1.026,1.091,2.061,1.817,2.98   c0.286,0.588,0.685,1.134,1.25,1.611c3.897,3.048,10.019,2.362,13.956-0.701c0.889-0.506,1.721-1.092,2.47-1.777   c0.301,0.664,0.58,1.327,0.828,1.979c2.631,7.007,4.486,14.282,6.659,21.439c2.035,6.862,3.817,13.802,5.01,20.839   c-0.681,2.592-1.353,5.187-2.048,7.772c-0.904,3.458-1.688,6.944-2.409,10.443c-1.612,4.456-3.182,8.927-4.66,13.43   c-1.322,4.406-2.449,8.861-3.474,13.342c-1.358-3.734-3.012-7.371-5.086-10.868c-5.481-10.082-11.805-19.655-18.424-29.02   c-5.273-6.836-9.28-15.837-17.695-19.293c-6.9-2.41-14.5-1.371-21.531-0.059c-3.772,0.649-7.628,1.491-10.747,3.833   c-0.392,0.314-0.764,0.764-0.741,1.276c-0.045,0.259,0.042,0.48,0.262,0.663c0.855,0.591,1.729,1.153,2.591,1.734   c6.739,4.995,10.506,10.751,13.966,17.419c3.527,6.656,6.593,13.58,10.562,19.989c5.622,8.574,11.939,16.676,18.569,24.488   c5.381,6.421,10.548,13.037,16.158,19.259c3.304,3.221,6.876,6.155,10.293,9.254c0.228,0.209,0.462,0.411,0.691,0.618   c0.962,6.349,2.141,12.651,4.218,18.748c1.51,4.695,4.198,8.867,6.269,13.319c4.861,9.78,10.09,19.4,14.705,29.282   c1.198,2.207,3.938,2.374,6.141,1.698c1.339-0.419,2.848-1.042,3.55-2.322c0.182-0.256,0.232-0.543,0.151-0.861   c-0.397-1.748-1.02-3.431-1.547-5.142c-2.172-7.285-4.616-14.484-7.076-21.676c-1.683-5.344-3.718-10.581-5.693-15.835   c0.549,0.452,1.099,0.901,1.646,1.356c-0.632-0.712-1.286-1.404-1.927-2.107c-2.343-6.257-4.572-12.547-5.987-19.086   c-1.39-6.43-1.039-17.74-1.252-22.216c-0.039-18.272,2.419-36.446,6.936-54.128c1.608-3.624,3.211-7.25,4.789-10.887   c5.932-13.628,11.749-26.52,17.965-39.188c0.743-0.475,1.518-0.931,2.354-1.35c3.746-2.109,8.162-1.611,12.292-2.157   c5.198-0.362,10.346-1.181,15.511-1.849c11.241-1.516,20.117-1.99,32.503-1.009c13.113,1.403,26.318,1.219,39.464,0.384   c3.382-0.21,6.719-0.785,10.059-1.324c5.327-0.64,13.624-2.901,12.219-9.838c-0.61-1.916-2.202-3.217-3.589-4.579   c-2.872-3.015-6.009-5.791-9.586-7.944c-5.613-3.672-12.458-4.451-18.963-5.292c-7.877-0.974-15.841-1.64-23.776-1.097   c-10.439,0.717-20.732,3.025-30.668,6.256c-12.28,3.643-22.759,11.077-32.493,19.207c2.179-4.232,4.415-8.456,6.736-12.69   c0.973-0.167,1.935-0.55,2.746-0.991c2.847-2.073,3.592-5.88,5.13-8.878c2.757-5.921,4.483-9.204,7.78-14.966   c0.5-0.746,0.981-1.504,1.466-2.259c10.697-8.286,22.999-15.566,33.293-17.81c9.144-1.741,14.85-3.271,20.528-4.148   c0.469-0.001,1.432-0.017,1.854-0.03c0.342,0.03,0.792,0.069,0.96,0.091c0.674,0.049,1.399,0.016,2.119-0.094   c0.052,0.118,0.094,0.24,0.153,0.355c0.07,1.484,0.324,2.991,1.288,4.136c1.567,1.47,4.008,1.443,5.828,0.464   c0.568-0.298,1.071-0.676,1.533-1.102c0.568-0.146,1.126-0.336,1.659-0.576c0.969-0.36,1.833-0.881,2.61-1.502   c0.123-0.048,0.248-0.096,0.368-0.144c4.75-2.191,7.52-5.199,6.57-10.697c-1.272-8.932-12.457-11.387-18.853-6.013   c-3.286,2.721-6.052,6.763-5.483,11.147c-3.46,0.548-6.841,1.602-10.253,2.39c-5.204,1.304-10.506,2.301-15.594,4.021   c-9.75,3.71-18.597,9.428-26.518,16.224c1.563-2.55,3.088-5.125,4.635-7.684c14.233-19.792,30.466-38.138,48.045-55.029   c0.284-0.278,0.566-0.56,0.849-0.84c0.588-0.03,1.278-0.166,2.063-0.413c3.447,0.738,6.986,0.377,10.406-0.492   c0.875-0.263,1.754-0.521,2.631-0.781c0.928,0.262,1.888,0.575,2.943,0.965c9.727,4.195,18.293,10.666,27.802,15.305   c4.081,2.16,8.451,3.624,12.765,5.226c4.765,2.06,9.469,4.364,14.584,5.446c4.201,0.871,8.497,0.241,12.744,0.314   c6.768,0.066,13.589,0.213,20.298-0.826c12.168-2.463,23.757-7.207,35.866-9.911c12.045-2.572,24.46-4.221,36.748-2.555   c2.677,0.32,5.338,0.798,7.879,1.716c1.563,0.455,3.118,1.238,4.779,0.897c1.563-0.295,3.393-0.887,4.087-2.42   c0.154-0.995-0.883-1.234-1.613-1.56c-5.522-2.913-10.989-5.958-16.457-8.98c-18.223-11.057-38.941-17.566-60.007-20.38   c-24.812-3.27-50.01,0.217-74.268,5.664c-7.171,1.724-14.329,3.517-21.459,5.398c-1.055,0.297-2.103,0.637-3.15,0.983   c-1.984-0.43-3.989-0.761-6.008-1.001c2.85-2.229,5.64-4.548,8.517-6.689c3.982-3.077,7.938-6.186,11.878-9.314   c0.984-0.463,2.068-0.997,3.477-1.793c3.194-1.88,6.134-4.159,9.276-6.126c1.184-0.756,2.354-1.533,3.534-2.295   c-3.881,2.744-7.692,5.589-11.552,8.359c14.208-8.995,29.107-16.828,44.733-23.074c8.382-3.457,17.957-6.298,25.608-6.666   c5.877-0.025,7.492,0.349,13.313,0.628c3.966,0.273,6.499,0.706,9.798,2.08c0.018,2.967,1.343,5.938,3.155,8.239   c4.348,3.675,11.28,2.487,15.44-0.936c1.187-0.992,2.025-2.293,2.652-3.694c0.96-1.917,1.849-3.959,1.752-6.148   c-0.188-3.19-0.335-6.728-2.069-9.5c-4.158-5.402-15.182-0.537-18.959,3.467c-0.778,0.833-1.551,1.785-2.094,2.829   c-3.287-0.545-6.662-0.701-9.974-0.85c-3.647-0.135-7.303-0.561-10.951-0.27c-13.395,1.037-26.001,6.296-37.889,12.267   c-5.821,2.955-11.527,6.139-17.134,9.484c4.32-2.833,8.629-5.681,12.939-8.529c-7.522,3.963-14.992,8.039-22.364,12.277   c2.899-2.392,5.782-4.803,8.643-7.242c3.735-2.814,7.536-5.544,11.33-8.281c2.984-1.753,5.966-3.508,8.934-5.281   c11.041-6.68,22.472-12.676,33.754-18.933c4.928-2.705,9.737-5.338,14.474-7.92c0.626-0.269,1.238-0.528,1.83-0.774   c6.824-3.34,11.099-4.865,17.142-6.763c5.099-2.159,10.516-3.183,15.964-4.032c3.505-0.546,6.97-1.51,10.542-1.433   c5.575,0.016,11.063,1.222,16.436,2.617c8.52,1.824,15.978,6.354,23.847,9.864c7.871,3.172,16.417,4.783,24.909,4.332   c10.15-0.472,20.157-3.019,30.003-5.374c10.516-2.857,20.997-5.782,31.203-9.618c14.944-3.965,30.703-4.771,45.19-10.513   c5.943-2.213,11.481-5.615,15.906-10.178c0.674-0.838,1.692-1.424,2.12-2.426   C2797.628,1130.175,2797.211,1129.709,2796.752,1129.556z M2844.473,841.504c1.645-3.552,3.265-7.115,4.885-10.677   c6.472-6.746,12.633-13.772,18.015-21.463c13.321-18.243,23.431-38.574,33.322-58.811c-15.258,22.867-29.443,46.455-45.456,68.813   c-0.595,0.854-1.209,1.694-1.826,2.531c5.259-11.632,10.503-23.271,16.013-34.788c6.723-14.313,12.705-27.948,25.086-39.631   c7.683-7.156,15.18-14.804,24.471-19.873c10.546-5.896,21.296-11.442,31.557-17.832c-0.564,1.026-1.336,2.145-2.232,3.582   c-1.753,2.549-3.324,5.217-4.989,7.824c-7.94,12.41-17.263,23.906-24.789,36.599c-4.853,7.627-9.391,15.45-13.817,23.331   c-4.039,7.858-10.226,17.035-14.982,21.267c-6.402,6.189-13.811,11.177-20.558,16.956c-6.665,6.956-13.469,14.002-18.895,21.985   c-3.438,5.905-6.541,12.037-9.283,18.295c-2.938,7.966-4.978,16.261-8.548,23.993c-2.752,5.607-5.521,11.202-8.041,16.914   c-2.867,4.758-5.741,9.513-8.599,14.277C2825.998,890.617,2834.77,865.881,2844.473,841.504z M2775.038,881.143   c-2.998-5.286-5.488-8.671-8.541-14.398c-2.979-5.651-3.794-12.122-4.898-18.336c-1.109-7.021-2.676-13.957-4.018-20.935   c-1.729-8.554-2.407-17.265-3.205-25.943c-0.965-9.937-2.043-19.863-3.057-29.795c-1.459-8.822-3.516-20.648-4.937-27.758   c-0.007-0.566,0.029-1.136,0.158-1.689c0.042-0.223,0.101-0.443,0.173-0.659c8.407,4.583,20.291,17.057,25.161,27.28   c4.676,8.984,5.931,19.189,9.155,28.705c5.211,16.179,9.731,32.604,11.953,49.489c2.115,13.028,2.442,29.626,2.498,41.129   c-0.306,10.89,0.146,21.82-0.942,32.67c-0.847,9.19-1.393,18.417-2.777,27.548c-0.005,0.043-0.013,0.084-0.019,0.127   c-1.272,2.712-2.547,5.433-3.814,8.126c0.003-0.039,0.008-0.078,0.01-0.116c-0.05-4.155-0.479-8.283-0.986-12.406   c0.232-1.055,0.466-2.109,0.696-3.164c1.535-7.093,2.78-14.282,3.106-21.543c0.367-9.77-0.224-19.567-0.644-29.327   c-1.158-16.345-4.844-32.377-9.388-48.088c-4.142-15.077-8.927-29.957-14.244-44.66c2.749,13.808,5.593,27.595,8.23,41.425   c2.983,14.711,6.158,29.409,8.442,44.243c1.165,7.478,1.908,14.998,2.669,22.524c1.494,10.88,2.03,21.862,1.065,32.816   c-0.091,1.042-0.174,2.084-0.263,3.126c-0.471-3.687-0.955-7.374-1.241-11.075C2783.682,913.754,2782.542,896.462,2775.038,881.143   z M2604.638,1132.708c2.783-2.406,6.252-3.819,9.143-6.076c4.471-3.55,8.45-7.688,13.11-11.004   c8.775-6.162,19.637-10.143,25.454-19.709c4.238-6.412,6.674-13.776,8.912-21.072c2.253-7.352,4.51-14.855,4.626-22.601   c0.551-15.864,0.309-31.739,0.267-47.609c-0.045-19.149-0.716-38.355-3.972-57.258c-1.965-12.877-4.196-25.713-6.413-38.549   c-1.404-7.544-2.999-15.07-3.654-22.727c-0.499-4.673-1.236-8.857,0.735-11.912c1.258,0.468,1.858,1.045,2.809,1.591   c5.01,4.017,6.787,8,9.826,13.277c4.48,8.62,7.338,17.939,9.786,27.306c5.537,20.924,10.02,42.114,14.243,63.337   c4.466,18.721-0.544,37.138-2.94,56.625c-2.265,15.957-4.567,31.925-7.828,47.714c-1.494,5.921-3.308,11.757-4.992,17.628   c-7.049,4.503-14.332,8.656-21.632,12.652c-17.805,8.906-35.612,17.805-53.308,26.919   C2600.519,1138.245,2602.044,1135.041,2604.638,1132.708z M2389.594,1206.887c0.144-0.714,0.37-1.396,0.701-2.026   c0.519,0.36,1.043,0.804,1.487,1.322C2391.026,1206.361,2390.293,1206.597,2389.594,1206.887z M2305.837,1480.55   c-4.332-5.725-8.425-11.636-12.744-17.374c-6.961-9.205-14.355-18.123-20.612-27.837c-6.053-10.045-11.907-26.99-22.787-35.819   c-0.575-0.494-1.193-0.931-1.82-1.356c1.214-0.236,2.465-0.363,3.661-0.632c3.358-0.631,6.787-0.809,10.195-0.584   c0.913,0.117,1.805,0.32,2.699,0.535c0.54,0.168,1.065,0.372,1.575,0.613c0.212,0.138,0.866,0.445,1.202,0.588   c6.975,4.788,10.563,13.011,15.535,19.629c7.605,11.119,14.229,20.959,20.321,33.802c2.813,6.757,4.423,13.931,5.804,21.1   c-0.012,0.06-0.023,0.12-0.035,0.18c0.015-0.044,0.03-0.088,0.045-0.132c0.069,0.355,0.139,0.711,0.207,1.066   c0.721,3.889,1.277,7.817,1.828,11.747C2309.194,1484.258,2307.477,1482.439,2305.837,1480.55z M2316.782,1467.091   c-0.693-3.356-1.504-6.674-2.504-9.931c1.198-3.541,2.425-7.073,3.705-10.585   C2317.257,1453.39,2316.859,1460.238,2316.782,1467.091z M2374.846,1346.874c20.469-0.473,40.652-4.783,60.622-9.039   c0.551-0.12,1.102-0.243,1.652-0.364c-0.933,0.112-1.866,0.223-2.799,0.336c-11.046,1.354-22.094,2.742-33.081,4.527   c-8.502,1.404-16.995,2.858-25.542,3.939c2.177-1.55,4.405-3.027,6.711-4.384c11.202-5.936,23.854-8.934,36.386-10.384   c11.051-0.944,22.223,0.279,33.089,2.316c6.831,1.666,10.6,4.597,15.785,9.61c2.861,2.87,5.23,4.552,4.19,7.225   c-0.32,1.801-1.572,1.239-3.952,1.826c-3.6,0.583-7.196,1.211-10.85,1.318c-8.327,0.341-16.667,0.618-24.999,0.251   c-8.403-0.651-16.797-1.462-25.233-1.552c-9.41-0.029-24.821,2.12-30.813,2.984c-4.41,0.465-8.871,0.578-13.27,1.132   C2366.664,1353.24,2370.656,1349.915,2374.846,1346.874z M2364.578,1330.079c-0.151,1.437-0.718,2.926-1.132,4.41   c-5.11,9.05-9.897,18.285-14.52,27.591c-0.06,0.039-0.118,0.079-0.177,0.119c0.876-2.891,1.764-5.777,2.737-8.631   c3.834-8.421,7.095-15.642,11.275-22.451c0.824-1.439,1.585-2.911,2.316-4.399   C2364.908,1327.838,2364.729,1328.956,2364.578,1330.079z M2360.884,1283.43c-2.166-3.008-4.475-7.665-6.315-12.313   c-1.751-4.982-3.107-10.105-5.204-14.964c-7.013-13.599-14.855-26.879-19.711-41.481c-0.991-2.559-2.089-5.157-2.239-7.927   c2.9,1.32,5.095,3.7,8.04,6.496c5.568,5.654,10.671,11.751,15.39,18.127c3.13,4.141,6.503,9.187,8.448,12.365   c2.806,4.232,5.371,8.717,6.08,13.826c0.963,5.731,1.104,11.561,1.884,17.318c0.761,6.721,1.428,12.964,1.564,19.109   C2366.413,1290.341,2363.139,1287.173,2360.884,1283.43z M2425.835,1253.292c-3.973,3.915-7.831,7.942-11.622,12.032   c0.173-0.282,0.355-0.558,0.527-0.841c1.985-3.364,4.082-6.658,6.028-10.045c1.93-3.267,3.669-6.875,6.791-9.186   c2.735-1.64,5.76-2.328,8.856-2.532C2432.901,1246.263,2429.402,1249.822,2425.835,1253.292z M2477.146,1238.443   c24.237,2.295,48.638,2.795,72.923,0.942c-23.517-1.202-47.052-1.964-70.596-1.507c16.466-3.953,33.189-6.776,50.144-7.282   c19.087-0.683,38.294,2.677,56.264,9.061c10.558,3.599,20.198,9.12,29.907,14.498c-13.346-0.753-26.717,1.449-39.655,4.618   c-10.18,2.651-20.097,6.464-30.444,8.417c-5.683,0.646-11.42,0.435-17.127,0.357c-3.622-0.162-7.305,0.53-10.879-0.278   c-4.34-1.094-8.365-3.071-12.417-4.921c-6.044-2.236-12.03-4.624-17.658-7.794c-7.719-4.134-15.015-9.501-23.162-12.773   C2468.662,1240.61,2472.896,1239.492,2477.146,1238.443z M2477.126,1173.685c3.68-9.031,8.226-16.338,13.399-25.622   c5.42-11.117,11.038-22.236,14.648-34.105c3.375-12.306,5.288-24.96,7.76-37.465c0.973-6.253,1.501-12.624,2.865-18.805   c3.895,4.02,5.764,7.441,8.31,12.347c3.028,5.985,5.576,12.271,6.986,18.846c1.113,5.442,0.702,8.641,0.249,14.137   c-0.504,9.366-2.946,18.482-7.099,26.888c-8.475,18.375-25.037,37.657-40.052,53.734c-6.026,8.33-12.008,16.703-18.191,24.922   C2469.568,1196.893,2472.678,1185.058,2477.126,1173.685z M2463.116,1224.784c-0.167,0.064-0.329,0.132-0.503,0.193   c-0.327,0.127-0.654,0.254-0.982,0.381c0.827-0.677,1.662-1.345,2.513-1.995c2.549-1.929,5.151-3.776,7.775-5.592   C2469.005,1220.132,2466.065,1222.464,2463.116,1224.784z M2787.101,1134.761c-5.556,4.897-12.788,6.988-19.793,8.879   c-10.062,2.444-20.367,3.733-30.473,5.964c-4.961,1.19-9.664,3.201-14.484,4.836c-7.403,2.267-14.917,4.177-22.361,6.312   c-5.224,0.993-18.608,4.589-27.294,4.22c-6.084,0.035-12.11-1.433-17.792-3.527c-5.337-2.146-10.288-5.124-15.574-7.375   c-7.417-2.689-15.149-4.861-23.02-5.691c12.412-1.749,25.005-2.005,37.519-2.848c15.268-1.61,30.467-3.908,45.77-5.213   c6.797-0.383,20.194-1.253,29.761-1.548c7.558-0.083,15.124,0.31,22.672-0.216c7.021-0.49,14.042-1.187,20.971-2.444   c4.54-0.888,8.989-2.288,13.623-2.625c0.694-0.063,1.39-0.11,2.086-0.159C2788.195,1133.827,2787.669,1134.316,2787.101,1134.761z" />
	<path d="M2380.247,1412.645c-0.083-1.729-1.02-3.604-2.54-4.512c-5.82-4.992-15.523-2.093-20.406,3.089   c-2.329,2.673-3.613,6.093-3.759,9.576c-2.813,2.234-5.213,4.976-7.824,7.442c-16.189,14.302-19.46,37.573-19.359,58.098   c2.226-15.763,6.112-31.594,14.421-45.333c3.404-6.052,8.433-10.187,13.48-14.819c0.051,0.16,0.096,0.322,0.153,0.481   c0.623,1.889,1.515,3.997,3.34,4.995c0.851,0.407,1.817,0.447,2.745,0.489c0.089,0.004,0.128,0.006,0.149,0.007   c1.704,0.126,3.424,0.046,5.067-0.457c2.466-0.816,5.068-2.053,6.449-4.359c0.048-0.086,0.084-0.18,0.129-0.268   c1.028-0.324,2.016-0.751,2.924-1.277c4.169-2.655,6.1-8.246,5.022-13.044C2380.241,1412.716,2380.248,1412.682,2380.247,1412.645z    M2364.919,1427.954c-0.15-0.016-0.309-0.034-0.467-0.053c-0.114-0.108-0.238-0.242-0.325-0.386   c-0.105-0.199-0.181-0.398-0.276-0.597c0.46,0.19,0.931,0.346,1.413,0.468C2365.155,1427.582,2365.041,1427.772,2364.919,1427.954z   " />
</g>
</svg>