<?xml version="1.0" encoding="utf-8"?>
<svg version="1.1" id="Layer_1" xmlns="http://www.w3.org/2000/svg" xmlns:xlink="http://www.w3.org/1999/xlink" x="0px" y="0px" viewBox="1351 280 342 910" style="enable-background:new 0 0 3000 2000;" xml:space="preserve">

<g>
	<path d="M1596.69,366.811c-0.04-0.088-0.083-0.176-0.128-0.262c-0.009,0.043,0.029,0.156,0.14,0.304   C1596.698,366.834,1596.694,366.828,1596.69,366.811z" />
	<path d="M1623.769,1024.59c12.546-8.77,23.632-19.381,34.9-29.68c7.893-8.589,13.832-18.737,19.346-28.956   c4.114-7.776,8.375-15.637,11.038-24.043c1.311-4.949,0.469-10.069-0.255-15.04c-0.479-3.398-1.086-6.954-3.096-9.819   c-3.177-4.014-8.87-5.16-13.64-3.741c-8.276,2.623-14.312,9.676-19.241,16.504c-11.191,16.301-19.078,34.586-25.827,53.097   c-4.781,13.261-9.562,26.525-14.045,39.89c-1.596-10.18-3.273-20.348-5.053-30.498c-3.052-17.465-7.186-34.841-14.666-50.99   c-3.054-7.176-6.275-14.77-9.632-22.511c0.729-2.499,1.621-4.964,1.985-7.551c0.948-6.321,2.838-12.691,4.114-19.268   c2.319-13.125,7.78-25.336,11.752-37.985c4.587-13.718,7.182-27.963,11.383-41.787c2.668-10.662,7.153-20.835,8.932-31.707   c1.629-8.032,3.341-19.746-5.358-24.237c-15.531-3.828-27.791,21.504-33.691,32.803c-3.557,7.953-7.342,15.797-11.153,23.623   c-3.205,8.335-1.849,17.464-1.494,26.16c0.959,17.156,2.856,34.33,6.915,51.051c1.885,6.537,4.46,12.848,6.927,19.187   c-0.053,1.162-0.091,2.325-0.111,3.49c-0.061,1.749-0.368,3.477-0.643,5.206c-4.54-10.446-9.334-21.148-14.378-31.513   c-8.88-19.502-17.91-38.966-28.605-57.555c-1.36-2.556-2.688-5.104-4.001-7.648c0.015-0.06,0.029-0.116,0.044-0.18   c0.224,0.349,0.44,0.702,0.673,1.046c-0.187-0.476-0.387-0.946-0.584-1.418c0.284-1.197,0.656-2.833,0.841-3.235   c1.293-4.723,3.057-9.279,4.695-13.885c2.285-7.328,4.152-14.78,6.396-22.124c3.264-11.868,7.429-23.745,7.394-36.201   c-0.054-7.091-0.381-15.234-7.297-19.153c-1.104-0.8-2.229-1.576-3.259-2.472c-1.806-0.938-4.048-0.691-5.906-0.019   c-3.205,2.084-6.645,4.564-8.574,7.959c-3.362,6.338-4.115,13.664-5.488,20.613c-1.937,10.969-2.065,22.195-0.405,33.209   c1.357,8.974,3.19,18.054,6.687,26.425c-12.291-24.687-22.637-48.87-32.693-73.04c2.419-4.012,5.491-7.547,8.375-11.263   c2.135-3.035,3.781-6.378,5.617-9.595c7.454-14.338,16.236-27.713,27.266-39.566c11.938-13.451,22.78-27.871,31.461-43.657   c4.671-8.108,9.437-16.316,11.845-25.43c1.08-4.434,4.303-12.447-0.217-15.613c-6.212-3.337-13.169-0.089-18.527,3.429   c-2.675,1.395-5.414,2.664-8.07,4.096c-28.862,15.721-40.471,48.417-52.866,76.876c-1.273,2.967-2.347,5.994-3.268,9.061   c0.982-7.938,2.093-15.861,3.231-23.777c2.674-17.3,5.639-35.54,12.07-53.167c3.579-9.439,6.264-19.209,10.13-28.533   c2.964-6.353,7.008-12.136,10.543-18.176c6.969-11.068,13.386-22.475,19.911-33.813c0.497-0.611,0.985-1.231,1.486-1.839   c7.449-7.44,15.167-14.679,23.452-21.186c5.701-4.386,12.504-6.92,18.946-9.98c7.235-3.519,14.222-7.609,20.417-12.771   c5.629-5.034,13.464-10.484,12.597-18.982c-0.235-1.331-0.831-2.562-1.179-3.862c-0.097-0.457-0.354-0.797-0.772-1.02   c-0.885-0.501-1.928-0.661-2.936-0.667c-19.336,2.508-47.772,27.461-62.158,40.852c-7.258,7.297-11.307,17.055-16.662,25.714   c-4.942,8.579-9.904,17.147-14.864,25.715c-5.704,9.76-12.075,19.164-17.274,29.205c-0.051,0.12-0.096,0.243-0.147,0.364   c1.796-18.903,2.173-37.951-0.094-56.782c-1.381-8.816-4.095-17.374-7.487-25.612c-2.119-5.012-3.474-10.914-8.004-14.364   c-6.216-4.061-15.833-3.561-19.656,3.481c-8.081,11.286-0.665,38.962,2.939,51.753c3.414,12.281,7.8,24.262,12.608,36.06   c1.611,4.146,3.443,8.202,5.088,12.332c1.666,4.686,2.494,9.608,3.296,14.5c0.823,3.458,0.402,6.971,0.022,10.457   c-0.005,0.049-0.009,0.097-0.014,0.146c-5.304,15.348-7.511,31.56-8.886,47.691c-0.95,12.541-1.531,25.135-1.371,37.713   c0.175,3.374,0.396,6.746,0.614,10.119c-0.572,5.362-0.89,10.757-1.083,16.122c-0.013,1.66-0.447,3.625,0,5.246   c-0.037-0.09-0.074-0.179-0.111-0.269c-14.006-35.53-23.982-72.694-28.49-110.648c-2.002-14.736-4.129-29.516-3.743-44.428   c0.244-26.835,4.226-51.728,10.084-76.89c2.952-5.732,6.473-11.152,10.762-16.047c5.55-5.162,10.903-10.542,16.498-15.66   c6.643-6.057,18.031-15.3,22.665-19.285c19.066-13.575,37.456-28.005,54.769-43.762c6.946-6.464,14.746-12.853,20.037-20.534   c3.275-4.946,9.562-11.434,6.755-17.711c-2.885-5.64-9.834-7.2-15.628-5.882c-3.909,0.81-7.409,2.835-11.105,4.266   c-11.116,4.875-22.048,10.526-31.57,18.12c-11.862,9.731-23.613,19.718-34.412,30.621c-10.836,13.521-19.097,29.056-26.374,44.729   c-0.22,0.553-0.436,1.107-0.655,1.66c-0.141-0.186-0.321-0.376-0.552-0.572c-0.216-0.109-0.444-0.189-0.67-0.276   c3.078-11.593,5.688-23.337,9.792-34.611c8.136-19.914,19.037-38.521,29.081-57.513c1.946-3.033,3.898-6.063,5.859-9.086   c7.918-5.485,15.836-10.974,23.886-16.263c10.915-6.607,21.035-14.611,30.073-23.624c6.768-7.033,17.883-20.15,16.822-30.351   c-5.153-13.163-20.807-1.824-28.547,2.746c-6.194,4.19-11.957,9.159-16.394,15.214c-5.276,7.285-9.212,15.427-13.562,23.276   c-4.832,9-9.606,18.032-14.231,27.138c-1.692,1.497-3.368,3.009-5.009,4.555c-4.663,4.733-6.181,11.297-8.974,17.126   c2.496-3.716,4.482-7.741,6.988-11.447c1.206-1.629,2.611-3.116,4.111-4.502c-1.06,2.13-2.1,4.27-3.137,6.412   c-0.159,0.23-0.32,0.46-0.479,0.69c-6.835,9.661-13.582,19.383-20.011,29.321c-1.788,2.798-3.564,5.61-5.303,8.446   c4.811-17.839,8.289-36.054,8.28-54.536c-0.269-13.132-2.189-26.363-6.74-38.722c-1.992-4.26-4.211-9.289-8.75-11.299   c-4.031-1.421-8.795-1.106-12.62,0.796c-2.299,1.183-3.42,3.699-3.805,6.148c-0.514,3.086-0.85,6.21-1.101,9.328   c-0.774,20.554,5.563,40.392,9.215,60.424c1.927,8.863,3.701,17.774,6.175,26.505c1.352,5.634-0.028,11.404-0.999,16.981   c-0.28,1.65-0.508,3.307-0.714,4.966c-2.763,6.502-4.693,13.317-6.76,20.064c-2.69,9.829-5.463,19.642-8.141,29.478   c0.013-1.397-0.004-2.796-0.06-4.193c-0.255-12.93-1.799-25.801-4.439-38.457c-1.406-6.9-3.261-14.321-9.089-18.835   c-1.794-2.392-5.58-2.066-7.849-0.55c-1.505,1.758-2.743,3.928-3.801,6.013c-3.112,11.567,1.473,23.553,5.758,34.235   c2.555,6.04,4.694,12.33,7.875,18.07c2.306,3.564,5.304,6.65,7.22,10.466c0.436,0.776,1.452,2.898,1.366,2.475   c-1.047-4.524-3.231-8.575-5.355-12.659c-1.332-2.608-1.851-5.517-2.661-8.308c-2.743-11.586-7.542-22.943-7.491-34.998   c-0.093-3.605-0.008-6.273,1.05-8.975c4.683,6.085,5.471,13.755,8.034,21.733c2.866,10.36,5.118,20.882,7.008,31.46   c0.485,2.508,0.838,5.038,1.062,7.58c-3.195,11.922-6.197,23.893-8.668,35.989c-2.41,12.549-4.227,25.234-5.319,37.976   c-2.009-8.595-4.311-17.128-6.72-25.608c-6.776-21.951-14.789-44.347-29.731-62.173c-7.144-8.043-17.813-18.761-29.235-18.684   c-5.356,0.292-11.195,2.138-14.654,6.441c-4.63,5.841-1.419,13.962,0.937,20.135c5.586,13.569,16.777,23.424,26.68,33.802   c8.055,8.513,15.157,17.859,23.255,26.332c7.272,8.39,16.619,15.161,22.108,24.966c2.566,4.201,4.598,8.665,6.314,13.257   c-0.081,3.177-0.126,6.356-0.101,9.535c0.172,17.241,3.242,34.28,5.563,51.323c0.15,1.041,0.329,2.075,0.488,3.114   c-5.121-9.066-10.737-17.838-17.142-26.071c-5.205-6.214-10.3-13.041-17.403-17.18c-4.446-1.679-9.73-5.191-14.397-2.578   c-1.023,0.512-1.23,1.704-1.77,2.612c-0.934,1.801-2.074,3.574-2.374,5.617c-0.715,4.747,1.964,9.127,3.675,13.379   c1.683,4.153,3.994,8.122,7.543,10.948c8.454,7.234,21.423,17.105,32.239,24.952c3.203,2.356,6.662,4.364,9.778,6.832   c1.379,1.22,2.698,2.5,3.984,3.811c7.845,35.982,20.842,70.746,35.886,104.329c1.038,2.357,2.081,4.713,3.123,7.068   c-5.783-11.231-11.645-22.422-17.524-33.601c-13.389-24.914-26.089-50.292-42.173-73.622   c-12.354-17.712-26.679-35.565-46.324-45.429c-12.901-5.533-24.172-5.995-30.04,8.883c-2.6,6.796,1.115,13.834,3.961,19.941   c6.264,12.707,16.161,23.134,26.15,32.993c3.601,3.606,6.755,7.618,10.217,11.35c7.962,8.012,16.618,15.309,25.005,22.866   c9.927,9.154,18.724,19.428,28.565,28.652c6.075,5.61,12.376,10.971,18.508,16.515c4.577,5.001,8.881,10.26,13.521,15.214   c3.585,3.79,7.267,7.469,10.987,11.101c9.236,15.336,18.708,30.534,28.201,45.714c2.266,4.183,4.571,8.346,6.972,12.459   c7.419,14.205,14.443,28.593,21.03,43.203c0.728,1.502,1.437,3,2.154,4.5c-1.148-1.542-2.29-3.089-3.461-4.613   c-8.377-10.442-17.967-19.836-27.208-29.501c-5.909-5.742-11.109-12.098-16.47-18.328c-7.594-7.098-15.384-14.007-23.246-20.81   c-3.653-2.858-7.102-6.146-11.357-8.096c0.085,0.013,0.171,0.026,0.256,0.039c-0.113-0.023-0.223-0.055-0.335-0.079   c-0.023-0.01-0.044-0.023-0.067-0.034c-6.543-2.718-13.483-4.396-20.148-6.809c-2.269-0.692-4.538-1.386-6.807-2.08   c-2.817-1.836-5.219-4.328-7.458-6.832c-4.463-4.72-8.641-9.707-13.148-14.382c-11.14-11.573-24.191-21.102-37.469-30.063   c-6.785-4.524-13.166-10.26-21.436-11.773c-5.445-1.351-12.866-1.877-16.506,3.237c-4.199,5.924-0.012,13.323,1.333,19.572   c3.137,9.005,10.629,15.982,18.259,21.357c8.453,5.496,18.226,8.073,27.918,10.341c22.707,6.669,45.455,13.286,67.912,20.744   c10.427,5.819,17.156,13.196,25.427,20.084c4.656,4.132,7.443,5.948,11.73,11.036c3.837,4.911,8.251,9.289,12.654,13.684   c9.532,9.947,19.598,19.383,28.87,29.575c7.234,8.378,14.24,16.965,20.979,25.753c0.951,2.11,1.9,4.219,2.83,6.314   c-7.495-7.801-14.773-15.812-22.387-23.499c-11.357-11.655-22.56-23.677-36.085-32.878c-17.667-12.992-40.881-20.486-62.556-14.466   c-4.913,1.742-10.468,4.306-12.845,9.217c-1.221,4.31,0.583,9.222,3.457,12.495c6.686,6.092,15.401,9.452,23.729,12.682   c6.075,2.399,12.13,4.859,18.333,6.916c14.794,5.086,31.907,7.104,45.572,13.23c6.66,3.456,13.043,7.422,19.76,10.774   c5.036,2.541,10.324,4.58,15.214,7.403c4.878,2.911,9.387,6.487,13.278,10.636c3.287,7.625,6.435,15.109,9.418,22.357   c5.987,16.017,8.912,32.97,11.825,49.761c1.526,8.989,2.991,17.989,4.396,26.999c-12.177-13.312-25.046-25.965-39.004-37.431   c-10.975-8.667-21.818-18.961-35.849-22.124c-3.904-0.683-7.947-0.447-11.82,0.33c-2.576,0.612-5.337,1.502-7.11,3.572   c-3.169,4.731-2.111,11.429,0.107,16.371c7.018,13.939,23.176,20.613,36.642,26.849c7.171,2.851,14.307,5.989,21.772,7.982   c9.726,2.119,19.112,3.034,28.208,5.256c1.571,0.308,5.349,1.511,7.416,2.433c0.051,0.019,0.108,0.048,0.161,0.07   c1.536,9.977,2.982,19.967,4.307,29.974c1.558,12.499,3.123,25,4.621,37.508c-3.16-6.999-6.547-13.89-10.175-20.668   c-3.293-5.916-5.962-12.269-10.064-17.685c-4.225-5.51-11.011-9.045-18.035-8.186c-5.009,0.342-8.041,4.473-8.394,9.248   c0.214,8.692,7.139,15.458,13.34,20.783c10.684,8.531,20.45,16.162,30.376,25.259c1.259,1.081,2.494,2.191,3.725,3.304   c-0.178-0.218-0.352-0.438-0.528-0.657c-5.247-6.261-10.255-12.76-16.196-18.39c-8.311-8.718-20.162-17.015-22.636-27.96   c-0.657-3.091-0.059-5.588,1.691-7.855c1.87,0.316,3.51,0.84,5.665,2.385c6.238,4.484,9.678,11.755,14.051,17.946   c5.941,8.806,11.906,17.59,17.658,26.517c1.478,12.476,2.884,24.959,4.122,37.46c0.944,14.523,0.626,29.093,0.944,43.636   c1.827-14.221,3.927-28.442,4.664-42.774c0.28-13.438-0.16-26.859-1.095-40.251c0.777-1.558,1.574-3.106,2.415-4.63   c3.305-5.361,6.792-10.613,10.477-15.721c1.785-1.461,3.62-2.848,5.479-4.159c5.501-3.546,11.464-6.302,16.144-11.001   c4.294-3.503,8.935-7.254,11.035-12.536c0.693-1.862-0.551-3.465-2.322-4.022c-4.802-1.349-9.855,1.031-13.646,3.893   c-8.27,6.253-14.341,14.871-19.832,23.549c-1.225,1.981-2.39,3.998-3.525,6.032c-2.632,3.046-5.046,6.325-6.901,9.876   c-1.335-15.636-3.286-31.227-5.521-46.752c-0.808-5.682-1.652-11.359-2.513-17.033   C1617.358,1028.938,1620.496,1026.676,1623.769,1024.59z M1570.71,505.244c4.507-5.578,16.093-15.444,23.796-21.501   c8.016-6.366,18.819-14.147,28.987-18.613c0.132,0.507,0.235,1.019,0.246,1.551c0.299,5.739-5.175,10.094-10.905,15.125   c-8.422,7.19-18.577,11.759-28.422,16.611c-6.855,3.326-12.601,8.282-17.953,13.648   C1567.856,509.78,1569.269,507.503,1570.71,505.244z M1509.656,602.042c-0.014-4.798-0.212-9.615-1.14-14.324   c-2.769-10.298-6.02-20.472-8.801-30.769c-4.344-18.189-14.922-50.674-9.499-66.182c0.793-1.677,1.497-2.771,2.14-3.574   c0.357,0.205,0.762,0.471,1.251,0.844c2.332,2.251,5.202,9.523,7.325,15.081c3.777,9.626,6.814,19.585,8.245,29.846   c2.561,19.096,3.897,38.343,4.321,57.605C1512.177,594.378,1510.934,598.216,1509.656,602.042z M1548.375,324.705   c5.876-8.9,9.868-16.611,16.515-23.638c5.748-6.536,17.433-13.54,23.053-16.25c4.715,5.226-4.216,17.206-7.384,21.675   c-7.85,10.345-18.981,19.811-28.364,27.416c-6.491,4.517-12.868,9.278-19.01,14.309   C1538.274,340.397,1543.367,332.579,1548.375,324.705z M1445.192,551.768c-5.92-8.169-12.89-15.518-19.086-23.479   c-6.574-8.412-12.955-16.97-20.155-24.872c-8.709-8.692-17.828-17.474-23.281-28.679c-3.652-7.7-7.796-19.936,1.826-22.996   c4.942-2.941,22.415,11.84,29.657,22.941c11.643,16.883,18.468,34.824,25.666,53.11c4.311,11.866,8.669,23.743,12.483,35.783   c-0.074,1.346-0.137,2.693-0.193,4.04C1450.503,562.051,1448.308,556.675,1445.192,551.768z M1491.404,455.283   c8.246-14.65,16.772-29.367,27.366-42.459c11.029-11.094,23.007-21.278,35.141-31.148c11.03-8.349,23.416-14.093,36.246-19.292   c0.485-0.046,0.68-0.458,2.692,0.235c0.824,0.468,2.919,2.156,3.661,3.825c0.018,0.034,0.033,0.07,0.051,0.105   c0.011-0.052,0.071,0.021,0.128,0.262c0.015,0.033,0.033,0.065,0.048,0.099c-0.019-0.022-0.021-0.036-0.036-0.057   c0.004,0.018,0.008,0.021,0.012,0.041c1.096,4.227-2.456,8.739-5.352,13.028c-6.027,8.995-14.636,16.145-22.661,23.422   c-5.974,5.259-14.782,12.839-19.389,16.961c-9.469,7.357-22.407,17.064-33.216,24.956c-10.266,8.849-20.694,17.606-29.707,27.766   c-2.582,2.668-5.125,5.31-7.426,8.137C1482.999,472.484,1487.19,463.875,1491.404,455.283z M1483.489,460.877   c-1.327,3.376-2.631,6.761-3.909,10.156c0.717-2.647,1.444-5.302,2.185-7.974c0.152-0.534,0.294-1.072,0.443-1.607   C1482.674,461.284,1483.108,461.091,1483.489,460.877z M1488.453,386.527c-1.766-12.766-3.733-25.494-6.2-38.145   c-1.922-9.281-3.573-18.592-3.598-28.103c-0.213-3.475,0.1-6.936,0.499-10.386c0.387-2.765,0.129-3.324,1.41-6.024   c9.175,4.703,13.753,35.572,14.498,51.017c0.513,17.26-1.3,34.458-3.961,51.515   C1490.953,399.734,1489.102,393.175,1488.453,386.527z M1438.901,633.714c-6.565-6.124-11.663-9.423-17.301-15.52   c-2.864-3.677-3.85-6.723-5.298-9.925c-1.212-2.959-2.894-5.648-2.735-10.072c0.01-0.039,0.024-0.108,0.054-0.263   c0.243-0.979,0.644-1.896,1.074-2.803c1.447,0.482,2.813,1.019,4.003,1.788c5.674,3.564,10.202,8.531,15.024,13.172   c8.804,9.151,16.87,18.943,24.586,29.014c0.728,4.511,1.541,9.004,2.439,13.478   C1453.106,645.756,1445.927,640.179,1438.901,633.714z M1496.374,731.833c0.382,0.545,1.075,0.698,1.68,0.437   c0.151-0.058,0.302-0.147,0.38-0.292c1.019-3.977,1.989-7.966,2.915-11.966c-1.301,3.431-2.627,6.852-3.987,10.26   c-0.334-0.904-0.121-1.989,0.02-2.916c0.768-3.659,1.342-7.356,2.171-11.004c2.284-13.487,6.352-26.784,12.633-38.964   c16.773-31.458,25.78-63.265,59.772-77.873c1.11-0.605,2.177-1.285,3.259-1.937c0.551,1.802,0.345,6.135-1.079,10.299   c-2.485,10.273-7.86,19.44-13.01,28.561c-3.386,6.056-7.149,11.893-11.094,17.598c-7.756,11.556-18.7,23.518-27.766,36.46   c-6.973,10.295-11.644,21.876-16.475,33.271c-2.13,4.683-5.336,8.916-7.64,13.52c-0.908-2.184-1.815-4.368-2.72-6.553   C1495.661,731.135,1495.946,731.515,1496.374,731.833z M1484.694,756.727c-6.459-6.566-13.142-12.915-19.73-19.352   c-8.352-9.037-16.833-17.933-25.843-26.323c-7.841-6.812-15.682-13.631-23.265-20.731c-4.833-4.786-8.975-10.222-13.926-14.9   c-11.803-11.237-23.716-25.701-28.038-39.756c-1.976-6.086-0.582-9.996,3.2-15.328c-1.067,1.127,1.213-1.378,1.723-1.853   c0.075-0.062,0.127-0.106,0.162-0.136c0.075-0.052,0.149-0.105,0.226-0.154c0.155-0.001,0.311,0.005,0.433,0.028   c-1.306-0.317,1.75,0.339,2.188,0.37c0.005,0.001,0.006,0.001,0.01,0.002c0.641,0.155,1.279,0.325,1.913,0.507   c36.092,12.995,65.76,71.715,84.344,105.953c6.027,11.707,12.381,23.229,18.916,34.646   C1486.244,758.703,1485.486,757.701,1484.694,756.727z M1533.266,813.314c-1.788-7.247-2.883-14.657-3.47-22.095   c-1.257-14.467-0.188-29.075,3.502-43.133c1.648-6.489,3.494-15.285,7.12-18.686c0.266-0.254,0.516-0.477,0.76-0.687   c1.78,1.218,3.226,2.25,4.432,4.662c1.577,3.166,2.302,11.242,2.241,16.564c-0.526,14.411-4.619,28.361-6.981,42.526   c-0.955,8.947-3.835,17.807-4.769,27.555C1535.153,817.785,1534.134,815.577,1533.266,813.314z M1411.776,788.651   c-5.375-1.686-10.965-2.586-16.29-4.442c-8.17-2.883-15.128-7.202-19.785-12.258c-5.495-5.648-8.695-10.288-10.123-17.169   c-1.921-5.911-2.863-11-0.898-13.329c0.006-0.007,0.013-0.014,0.018-0.021c0.695,0.137,1.467,0.337,1.522,0.315   c3.215,0.583,7.422,2.577,10.469,4.747c16.167,11.505,33.351,22.205,46.764,34.52c5.382,4.864,10.5,10.017,15.956,14.803   c0.587,0.57,1.19,1.123,1.809,1.659C1431.419,794.489,1421.612,791.521,1411.776,788.651z M1569.441,917.883   c-6.407-3.773-13.089-7.072-19.399-11.024c-7.646-4.901-15.495-9.566-24.363-11.876c-15.713-4.248-31.814-7.239-46.88-13.601   c-8.762-3.211-21.128-8.231-26.392-12.571c-3.622-2.923-4.776-8.152-4.226-10.932c0.82-2.745,4.18-4.444,6.941-5.739   c7.714-2.76,20.556-1.958,31.965,2.328c8.009,3.056,16.067,8.039,23.628,13.111c12.116,8.079,22.763,18.072,33.718,27.607   c9.803,8.369,19.435,17.048,29.419,25.301c0.133,0.3,0.266,0.601,0.399,0.901C1572.71,920.133,1571.106,918.958,1569.441,917.883z    M1592.597,857.041c-3.93,13.616-7.199,27.403-7.806,41.614c-0.346,2.87-0.601,5.747-0.774,8.628   c-1.373-5.792-2.812-11.572-3.768-17.447c-1.812-15.524-2.083-31.185-2.039-46.8c0.369-10.221-0.92-20.745,2.013-29.121   c9.324-18.259,16.794-40.167,30.529-52.063c0.058-0.052,0.128-0.104,0.193-0.157c1.843,2.491,2.236,4.661,2.454,8.594   c-0.281,14.362-7.205,29.592-11.094,44.991C1598.328,829.013,1596.196,843.201,1592.597,857.041z M1596.429,1030.262   c-10.075-3.382-20.198-3.934-30.45-8.525c-17.601-8.021-48.854-20.246-48.553-40.473c0.152-2.594-0.073-2.584,1.052-5.04   c0.021-0.036,0.047-0.069,0.069-0.104c0.115-0.138,0.246-0.261,0.379-0.381c0.207-0.092,0.288-0.142,0.314-0.169   c0.118-0.049,0.233-0.104,0.353-0.148c0.036-0.012,0.047-0.015,0.074-0.024c7.094-2.524,21.299,6.471,31.952,14.431   c18.511,13.077,36.037,27.435,53.004,42.436c0.068,0.443,0.142,0.886,0.21,1.329   C1602.178,1032.142,1599.333,1031.094,1596.429,1030.262z M1659.214,1057.56c-0.023,0.043-0.042,0.08-0.066,0.125   c-1.541,2.415-1.541,2.268-2.255,3.243c-3.557,3.971-7.661,7.463-11.582,11.07c-0.429,0.271-0.881,0.561-1.331,0.85   C1648.727,1067.026,1654.011,1061.197,1659.214,1057.56z M1614.056,1029.979c-0.244-1.598-0.49-3.194-0.739-4.791   c6.328-13.286,12.734-26.535,18.811-39.939c9.908-21.141,20.383-44.734,34.132-61.142c2.944-3.07,5.752-5.623,8.409-6.887   c1.556,0.799,3.872,2.914,4.492,7.862c0.872,4.924,1.776,12.908,0.966,15.824c-2.432,8.639-7.111,16.512-11.179,24.467   c-5.405,10.263-11.118,20.894-17.493,28.476c-10.579,10.638-20.47,22.043-32.108,31.577   C1617.44,1026.779,1615.745,1028.376,1614.056,1029.979z" />
</g>
</svg>