<?xml version="1.0" encoding="utf-8"?>
<svg version="1.1" id="Layer_1" xmlns="http://www.w3.org/2000/svg" xmlns:xlink="http://www.w3.org/1999/xlink" x="0px" y="0px" viewBox="2478 1237 475 505" style="enable-background:new 0 0 3000 2000;" xml:space="preserve">

<g>
	<path d="M2484.46,1737.06c11.623-5.169,23.997-8.138,36.053-12.042c9.451-3.18,18.34-7.813,27.175-12.395   c4.885-2.705,10.058-4.893,14.699-8.022c5.397-3.667,10.686-7.503,15.785-11.576c3.675-2.887,7.364-5.866,10.174-9.638   c1.844-2.338,3.691-4.745,5.227-7.312c7.914-6.431,15.609-13.125,22.983-20.182c0.293-0.297,0.587-0.593,0.88-0.889   c0.102,0.005,0.206-0.01,0.314-0.05c0.947-0.736,1.912-1.447,2.854-2.19c3.096-2.424,5.948-5.137,8.955-7.67   c1.36-1.139,2.712-2.286,4.056-3.442c1.732-1.234,3.48-2.446,5.272-3.597c15.358-9.343,31.73-16.854,48.203-23.987   c10.668-5.109,21.675-9.539,32.105-15.119c14.756-9.06,28.907-19.248,42.111-30.454c4.671-4.071,8.973-8.522,13.509-12.733   c5.186-4.818,10.865-9.067,16.244-13.665c4.924-4.335,8.46-8.538,13.799-11.237c2.454-1.215,4.983-2.28,7.42-3.527   c0.847-0.547,1.943-0.912,2.296-1.931c0.178-0.769,0.057-1.56-0.115-2.321c-0.549-1.805-1.656-3.951-3.772-4.06   c-8.065-1.504-16.186,1.08-24.139,2.287c-17.869,3.684-35.2,10.322-50.217,20.791c-8.238,5.396-15.997,11.479-23.91,17.332   c-7.498,5.539-14.969,11.202-21.499,17.885c-11.11,11.556-21.847,23.455-32.769,35.185c-0.891,0.938-1.792,1.865-2.685,2.8   c-1.565,1.263-3.131,2.525-4.687,3.799c10.699-13.529,19.599-28.365,27.897-43.478c7.143-14.412,13.38-28.644,19.987-41.834   c4.174-8.385,9.36-16.245,13.207-24.803c4.353-10.105,10.297-19.935,18.3-29.018c5.094-5.613,9.79-11.594,15.11-16.991   c1.62,1.879,3.939,3.137,6.473,3.16c5.997,0.58,13.812-2.295,17.112-7.507c0.637-1.152,0.713-2.494,1.122-3.724   c0.922-1.887,1.554-3.953,2.762-5.682c0.206-0.271,0.431-0.525,0.658-0.777c0.521,7.991,5.273,14.362,14.127,26.525   c10.18,13.271,23.427,24.045,38.307,31.643c3.197,1.469,6.472,2.832,9.866,3.775c0.534,0.104,1.187,0.464,1.585-0.078   c0.194-0.302,0.291-0.635,0.29-0.996c-0.471-5.922-6.409-8.983-10.818-11.933c-4.647-3.045-8.741-5.866-12.793-9.192   c-12.93-10.633-27.346-26.963-32.739-42.71c-1.412-4.931-1.841-10.068-3.032-15.047c3.411,5.743,7.563,11.054,11.87,16.144   c11.117,13.173,26.075,24.504,43.524,26.957c12.386,1.669,24.802-0.415,36.827-3.371c8.84-1.654,17.354-4.508,25.462-8.389   c8.052-3.563,15.944-7.558,23.248-12.498c5.044-3.392,9.6-7.462,13.878-11.767c1.848-2.152,4.423-4.175,4.758-7.161   c0.059-8.419-7.74-8.161-13.917-9.542c-9.311-1.909-18.507-4.495-27.975-5.533c-1.044-0.093-2.089-0.173-3.136-0.247   c16.459-4.348,25.15-12.533,36.678-26.007c4.234-4.889,8.186-10.028,11.932-15.299c2.708-3.812,5.64-7.643,7.051-12.157   c0.372-2.019-0.467-4.183-1.855-5.65c-0.827-0.851-2.123-0.649-3.202-0.818c-9.8-1.131-19.393,1.765-28.663,4.603   c-11.738,3.39-23.069,7.337-34.022,12.614c1.536-1.928,2.865-4.047,4.27-6.065c3.343-4.499,6.809-8.998,8.701-14.339   c1.903-4.625,2.915-9.531,3.362-14.499c0.466-3.746,0.355-6.238,1.379-9.519c0.857-3.059,3.1-8.453,3.653-9.595   c1.073-2.312,1.682-2.559,1.962-4.38c-0.057-2.009-0.831-4.206-2.522-5.4c-0.408-0.293-0.861-0.184-1.31-0.077   c-3.248,1.079-4.688,0.756-7.542,1.141c-6.578,0.517-13.139-0.877-19.713-0.533c-3.163,0.132-6.269,0.737-9.256,1.78   c-3.515,1.168-7.136,2.157-10.495,3.735c-0.341-0.532-0.76-1.006-1.255-1.367c-0.747-0.517-1.396,0.286-1.992,0.677   c-6.346,5.509-12.248,11.516-18.218,17.44c0.512-1.098,0.997-2.21,1.475-3.319c1.82-4.516,3.272-9.268,3.59-14.149   c0.348-9.468-1.525-18.914-4.126-27.977c-1.177-4.124-1.719-7.415-1.108-12.13c0.146-2.265,0.998-4.216,1.051-6.873   c-0.032-1.274-0.513-2.49-1.091-3.61c0.618,1.092-0.76-1.649-1.552-1.907c-0.895-0.47-1.985,0.195-2.82,0.564   c-2.162,1.186-4.275,2.461-6.363,3.772c-10.333,6.708-20.406,14.22-28.545,23.531c-4.527,5.565-8.122,11.716-11.323,18.092   c0.383-1.739,0.665-3.498,0.78-5.277c0.014-1.698-0.625-3.169-0.631-4.845c-0.116-2.825-0.195-6.857-0.373-10.355   c0.08-4.986-0.087-9.979,0.158-14.961c0.816-8.031,1.719-16.106,1.242-24.186c0.215-0.991-1.346-9.192-5.912-6.139   c-4.703,3.562-9.091,7.594-12.99,12.027c-4.893,6.703-9.76,13.458-14.448,20.315c-3.808,5.813-6.533,12.28-8.749,18.847   c-2.95,8.972-4.167,18.418-4.716,27.817c-0.583,8.944-0.422,17.894,1.138,26.735c-0.761-8.162-0.254-16.302,0.884-24.406   c1.573-13.773,5.724-27.343,11.963-38.208c5.198-8.533,11.348-16.464,17.007-24.687c2.87-3.404,6.087-6.511,9.422-9.455   c1.439-1.13,2.012-1.899,2.928-2.521c0.035,2.086-0.014,4.472-0.049,6.667c-0.191,4.842-0.63,9.667-0.917,14.502   c0.014,6.996,0.24,14.01,0.906,20.975c0.287,3.378,0.37,6.818,1.357,10.075c0.126,3.189-0.373,6.4-1.032,9.516   c-0.244,1.131-0.497,2.261-0.773,3.386c-1.528,3.288-2.998,6.604-4.474,9.905c-0.562-1.451-1.118-2.904-1.697-4.347   c-1.029-2.538-1.899-6.427-2.644-10.168c-0.463-3.509-2.345-16.117-6.474-16.89c-0.673,0-0.867,0.777-0.922,1.375   c-0.052,0.067-0.33,1.183-0.459,1.351c-0.354,0.911-0.767,1.798-1.153,2.696c-2.108,5.305-4.298,8.722-7.442,14.286   c-4.515,8.406-9.352,16.693-13.007,25.522c-2.16,6.174-2.585,12.833-3.085,19.314c-0.457,9.238,0.056,18.647,2.553,27.568   c-0.295-0.396-0.588-0.792-0.883-1.188c-6.14-7.698-10.99-16.218-15.109-25.141c-4.903-8.959-8.61-19.407-13.243-29.763   c3.781,10.723,7.01,21.698,12.434,31.746c2.377,4.825,4.872,9.627,7.902,14.078c2.786,3.865,5.932,7.441,9.108,10.986   c0.479,1.634,1.017,3.253,1.638,4.848c2.302,5.972,5.849,11.154,10.12,15.728c-3.267-2.592-6.465-5.252-9.526-8.086   c-7.165-5.28-14.07-11.467-18.322-19.143c-3.797-8.42-8.203-17.461-12.792-25.846c2.536,5.851,5.222,11.641,7.685,17.522   c2.014,5.011,3.761,10.213,6.967,14.622c4.43,6.344,10.405,11.52,16.876,15.698c4.064,3.44,8.457,6.501,13.083,9.143   c4.715,4.28,10.018,7.987,15.377,11.301c-10.99-8.581-23.472-20.256-27.053-32.103c-3.082-9.777-3.069-18.898-2.364-29.602   c0.595-7.228,1.219-13.738,4.661-20.431c2.861-6.048,8.197-16.026,12.391-23.603c2.461-3.933,4.356-8.157,6.086-12.452   c0.103-0.259,0.211-0.517,0.321-0.775c0.78,3.574,1.379,8.454,2.501,12.547c1.055,4.354,2.922,8.44,4.558,12.594   c2.504,7.536,4.692,12.634,6.452,19.237c1.375,5.014,1.797,9.643,2.364,15.366c0.449,3.791,1.098,7.075,0.797,10.632   c-0.246,4.732-1.425,9.291-2.515,13.91c-1.093,4.322-1.883,8.708-2.957,13.035c-1.216,5.354-2.111,10.668-2.948,15.98   c-3.665-7.466-7.271-14.615-10.613-22.258c-2.292-5.77-2.834-13.155-3.049-19.991c0.002-2.765,0.312-5.519,0.427-8.279   c-0.158,0.796-0.332,1.589-0.505,2.382c-1.841,8.413-1.747,17.505,0.951,25.724c3.318,8.41,7.866,16.264,12.538,24.018   c-0.292,1.876-0.581,3.752-0.877,5.63c0.365-1.273,0.82-3.001,1.313-4.904c0.53,0.878,1.061,1.755,1.592,2.631   c-0.037,0.326-0.074,0.653-0.11,0.979c-0.476,0.615-0.877,1.283-0.981,2.031c-1.127-0.236-2.261-0.439-3.398-0.629   c-4.602-1.975-9.07-4.232-13.36-6.853c-4.714-2.834-9.548-5.509-13.984-8.774c-10.305-8.605-19.927-18.058-28.245-27.996   c-10.416-12.037-19.553-23.962-24.6-37.96c-1.023-3.387-2.427-11.099-3.111-15.697c-0.192-2.352,0.595-6.167,1.296-9.383   c0.903-5.387,2.524-10.585,4.31-15.734c1.065-2.76,1.847-7.339,2.555-9.843c0.241,0.314,0.476,0.632,0.692,0.965   c0.927,1.431,2.897,5.395,4.416,7.611c3.912,5.567,8.671,10.526,13.675,15.119c5.345,4.742,10.576,9.847,14.04,16.163   c3.763,8.245,5.574,17.104,8.082,25.764c-1.111-4.89-1.893-9.845-2.937-14.748c-0.927-3.959-2.332-7.781-3.655-11.62   c-5.329-12.121-16.743-19.813-24.622-29.814c-2.723-3.225-4.247-5.94-6.223-9.734c-0.955-1.812-2.06-3.547-3.34-5.148   c-0.568-0.657-1.003-1.569-1.864-1.859c-1.664-0.736-2.24,3.822-2.653,4.88c-0.927,5.009-3.114,9.644-4.574,14.498   c-1.505,6.45-3.632,13.292-3.438,19.94c0.229,2.997,1.045,5.878,1.373,7.914c0.636,3.444,1.19,6.922,2.259,10.266   c4.914,14.269,13.556,26.964,23.354,38.326c10.103,12.368,21.579,23.796,34.781,32.839c6.967,3.899,14.157,7.54,21.676,10.245   c-2.43-0.352-4.863-0.689-7.273-1.123c-16.725-2.721-33.652-3.917-50.44-6.17c-12.257-2.161-24.184-5.891-36.326-8.606   c-1.688-0.408-3.367-0.847-5.045-1.294c-1.568-0.064-1.039,2.862-0.712,3.766c0.665,2.237,2.544,3.733,4.58,4.695   c1.835,1.1,3.653,2.229,5.482,3.338c7.904,4.714,16.104,8.927,24.909,11.686c8.803,3.234,17.975,5.856,27.314,6.754   c12.953-0.518,26.06-1.832,38.452-5.677c-1.683,0.925-3.362,1.857-5.041,2.788c-5.62,3.006-11.522,6.258-15.015,11.797   c-2.638,4.664-4.976,10.283-3.75,15.709c0.319,1.343,0.953,2.606,1.807,3.691c-4.886,3.634-9.3,7.857-13.885,11.861   c-5.335,4.731-10.504,9.764-14.632,15.606c-4.725,6.295-7.813,13.553-11.788,20.302c-7.669,12.478-15.854,29.578-20.934,41.022   c-9.091,19.655-19.477,38.799-32.454,56.188c-8.221,11.288-17.882,21.388-27.609,31.371c-7.57,7.894-15.306,15.622-23.114,23.277   c1.146-1.61,2.277-3.23,3.405-4.85c5.659-8.366,11.318-16.764,16.257-25.58c5.313-10.348,8.504-18.772,13.598-29.118   c4.948-10.345,9.56-20.871,13.208-31.752c1.277-3.987,2.112-8.103,3.478-12.063c1.9-5.744,4.176-11.357,6.015-17.121   c4.249-14.438,7.383-29.184,11.307-43.714c3.387-13.365,7.187-26.631,9.339-40.269c0.95-5.915,1.406-12.126-0.301-17.943   c-0.949-3.039-1.93-8.04-5.987-7.7c-3.436,1.128-3.977,5.553-6.333,7.94c-10.662,13.901-22.323,27.001-32.662,41.161   c-2.427,3.274-5.014,6.436-7.278,9.827c-3.075,4.975-5.496,10.325-8.163,15.524c-6.691,13.677-10.574,28.518-14.613,43.139   c-3.044,10.823-3.487,22.057-4.886,33.148c-0.976,8.806-2.492,17.607-2.455,26.487c0.093,4.389,0.662,8.747,1.14,13.104   c0.637,4.648,0.917,9.372,2.12,13.92c1.582,5.452,1.146,11.311,0.075,16.909c-0.852,1.455-1.667,2.93-2.286,4.506   c-1.218,2.882-1.708,6.006-2.76,8.944c-0.783,2.084-2.239,4.51-3.998,6.953c-1.803,1.739-3.603,3.481-5.409,5.216   c-3.777,3.561-7.505,7.175-11.233,10.787c-0.504,0.393-1.022,0.8-1.56,1.231c-6.793,4.974-13.64,9.873-21.329,13.382   c-8.577,4.661-17.039,9.524-25.724,13.983c-6.262,3.026-12.761,5.526-19.22,8.096c-6.844,3.087-13.605,6.382-19.999,10.332   c-0.689,0.38-1.377,0.761-2.065,1.142C2482.996,1737.605,2483.728,1737.333,2484.46,1737.06z M2780.812,1448.556   c6.033,16.268,17.156,30.414,29.903,42.012c3.319,2.875,6.792,5.573,10.387,8.097c-10.11-5.606-20.041-13.57-27.885-22.042   c-5.276-5.502-10.349-12.597-15.181-19.427c-4.964-6.927-2.566-17.655-0.091-27.011   C2778.948,1436.31,2778.731,1442.644,2780.812,1448.556z M2865.458,1420.179c5.202-0.43,10.406,0.212,15.596,0.528   c12.891,0.557,25.624,2.575,38.116,5.781c3.708,0.953,7.934,1.635,11.412,2.5c-3.182,3.606-6.968,6.739-10.607,9.835   c-5.658,4.488-17.051,10.938-25.449,14.677c-8.483,4.136-17.306,7.494-26.6,9.271c-12.01,2.949-21.854,4.984-34.015,3.896   c-17.376-1.444-32.437-11.053-44.814-24.208c-3.791-3.977-7.456-8.138-10.611-12.646c6.824,3.091,12.94,7.597,20.138,9.896   c9.971,3.911,20.692,4.913,31.207,6.449c0.873,0.109,1.749,0.193,2.623,0.29c-0.867-0.239-1.736-0.472-2.604-0.709   c-11.855-3.525-24.045-5.834-35.73-9.945c-3.689-1.156-7.141-2.925-10.706-4.394c0.974,0.305,1.95,0.602,2.923,0.893   c8.832,2.638,17.955,3.053,27.002,2.067c7.425,1.72,14.819,3.636,22.405,4.393c6.979,0.922,13.974,2.091,21.038,1.805   c8.787,0.162,17.403-1.959,26.012-3.472c-9.01,0.166-18.03,1.23-27.026,0.406c-6.838-0.242-13.57-1.552-20.372-2.2   c-5.473-0.292-10.902-1.041-16.337-1.737c7.895-1.361,15.673-3.673,23.079-6.428c3.445-1.389,6.849-2.929,10.167-4.639   C2856.652,1421.497,2861.001,1420.484,2865.458,1420.179z M2910.83,1365.653c7.328-1.461,16.88-3.749,22.893-4.312   c2.906-0.242,5.814-0.264,8.712-0.056c-0.058,0.099-0.108,0.186-0.169,0.292c-4.44,6.741-9.451,13.086-14.506,19.372   c-6.191,7.361-12.192,14.969-19.589,21.184c-4.826,4.213-13.209,8.171-20.289,10.818c-1.365,0.524-2.707,1.117-4.063,1.67   c-5.486-0.119-10.98-0.011-16.445,0.291c-1.122,0.097-2.232,0.261-3.335,0.455c4.446-3.184,8.569-6.797,12.207-10.915   c11.528-5.145,21.452-13.605,30.644-22.169c-6.524,4.333-13.114,8.569-19.568,13.007c-2.653,1.924-5.348,3.792-8.097,5.576   c4.87-6.11,9.314-12.764,11.42-20.341c0.857-2.557,0.568-5.468-1.08-7.649c-0.585-0.838-1.475-1.618-2.517-1.615   C2894.883,1369.037,2902.811,1367.168,2910.83,1365.653z M2885.851,1371.602c-2.332,0.933-4.671,1.876-7.027,2.786   c0.3-0.302,0.591-0.613,0.874-0.931C2881.741,1372.812,2883.793,1372.196,2885.851,1371.602z M2852.792,1320.078   c0.561-0.267,1.128-0.521,1.708-0.75c3.396-1.24,6.95-1.97,10.457-2.82c6.583-2.026,12.875-1.334,20.292-0.528   c3.798,0.381,7.635,0.447,11.441,0.149c-0.161,0.384-0.329,0.765-0.481,1.153c-4.169,8.21-2.823,17.5-5.175,25.43   c-1.861,7.5-4.633,11.989-8.611,18.668c-1.785,3.151-3.254,6.505-5.401,9.437c-1.851,2.283-3.889,4.414-6.08,6.374   c-0.363,0.116-0.72,0.247-1.084,0.359c-7.882,2.641-15.843,5.046-23.743,7.617c-13.947,5.93-27.496,12.841-40.543,20.556   c-4.735,2.736-9.436,5.531-14.135,8.328c6.771-5.988,13.43-12.126,19.496-18.814c6.464-3.738,12.677-7.865,18.756-12.199   c4.315-3.102,8.835-6.151,12.037-10.469c2.814-3.7,5.604-7.431,8.161-11.315c1.059,0.328,2.203,0.259,3.295-0.443   c0.826-0.434,1.404-1.166,1.583-2.058c0.899-0.373,1.654-0.95,2.079-1.831c0.591-1.299,0.056-2.936-0.948-3.88   c-0.851-0.594-1.953-0.604-2.963-0.321c-0.122-0.456-0.31-0.91-0.596-1.36c-1.309-2.343-2.98-2.31-4.667-0.336   c-1.425,1.519-2.577,3.58-1.876,5.698c0.059,0.234,0.139,0.466,0.229,0.697c-0.53,0.778-1.059,1.55-1.548,2.284   c-2.934,4.122-5.371,8.632-8.761,12.409c-7.755,7.754-15.956,15.065-24.119,22.389c0.763-0.852,1.52-1.709,2.262-2.581   c7.709-9.308,14.347-19.421,20.322-29.917c7.104-7.167,13.506-14.998,19.127-23.386c-5.961,5.8-11.474,12.037-16.486,18.663   c2.005-3.678,3.943-7.393,5.814-11.135c1.834-3.316,2.189-7.128,2.88-10.79c0.333-2.7,1.962-8.609,2.459-9.254   C2848.872,1323.693,2851.194,1322.033,2852.792,1320.078z M2854.847,1355.983c-0.163-1.021-0.604-1.953-1.48-2.473   c1.1,0.005,2.194,0.33,2.599,0.972C2855.91,1355.211,2855.484,1355.688,2854.847,1355.983z M2784.344,1376.838   c0.745-4.184,0.356-8.424-0.128-12.613c-0.517-6.265-1.044-12.553-2.787-18.624c-0.373-1.232-0.768-2.457-1.158-3.684   c0.686-3.416,1.944-6.754,2.872-10.087c2.025-6.542,4.096-13.065,6.407-19.511c-3.69,6.862-6.695,14.119-8.552,21.697   c-0.417,2.028-0.936,4.103-1.265,6.189c-1.824-5.604-3.822-11.156-5.941-16.656c0.716-1.192,1.401-2.327,2.072-3.436   c-0.331,0.809-0.683,1.609-1.081,2.393c0.868-1.351,1.684-2.736,2.368-4.19c0.146-0.339,0.286-0.683,0.428-1.025   c12.769-20.901,18.193-26.895,42.552-43.215c2.614-1.63,5.165-3.451,7.857-4.974c-0.44,3.271-0.574,6.86,0.03,10.034   c0.468,3.582,1.757,6.952,2.668,10.425c1.716,6.984,3.163,13.529,3.338,20.417c0.119,7.936-2.404,15.709-5.369,22.986   c-0.49,0.966-1.019,1.91-1.563,2.845c-0.32,0.309-0.636,0.621-0.957,0.929c-8.834,8.862-17.957,17.436-26.743,26.343   c5.495-8.681,10.75-17.509,15.862-26.427c2.139-3.635,4.298-7.258,6.503-10.853c1.664-2.772,3.586-5.475,4.267-8.694   c0.152-0.704,0.306-1.432,0.449-2.173c0.565-0.35,1.091-0.772,1.564-1.204c1.445-1.35,2.054-3.092,1.871-4.818   c0.076-0.274,0.148-0.547,0.228-0.811c0.529-1.084-0.204-2.242-1.254-2.635c-0.309-0.202-0.64-0.402-0.985-0.556   c-0.712-0.679-1.578-1.04-2.445-1.084c-0.51-0.7-1.278-1.284-2.168-0.945c-2.226-0.027-3.941,1.731-4.705,3.702   c-1.074,2.868,0.197,6.357,2.632,8.169c-0.459,0.999-1.024,1.99-1.772,3.14c-2.249,3.79-4.388,7.644-6.419,11.556   c-3.095,5.796-7.04,14.254-9.112,18.965c-3.208,6.58-6.331,13.202-9.421,19.838c-2.264,2.528-4.429,5.145-6.45,7.869   c0.204-3.335,0.796-6.651,1.77-9.846c1.432-4.06,3.179-7.995,4.225-12.185c1.563-3.783,4.051-7.115,5.968-10.725   c2.471-4.328,4.862-8.701,7.282-13.057c-4.973,6.453-9.928,12.98-14.184,19.931c-1.079,1.927-1.383,4.136-2.056,6.212   c-2.421,6.496-4.136,13.359-3.509,20.337c-0.801,1.101-1.58,2.218-2.323,3.359c1.854-10.123,1.981-20.698,5.76-30.383   c3.92-8.496,11.139-15.436,13.194-24.755c0.078-0.357,0.175-0.715,0.28-1.074c0.58-0.055,1.186-0.259,1.813-0.688   c1.083-0.676,1.589-1.904,1.908-3.091c0.96-3.123,0.314-6.788-2.13-9.061c-1.44-1.355-3.568-0.408-5.14,0.228   c-2.695,1.289-2.88,4.638-1.758,7.138c0.011,0.68,0.323,1.455,0.845,1.9c0.163,0.388,0.353,0.761,0.569,1.116   c-0.438,1.609-0.848,3.229-1.571,4.734c-0.938,1.974-4.76,8.464-6.612,11.958c-7.909,12.537-6.219,27.872-7.19,42.029   c-0.219,0.337-0.444,0.669-0.657,1.01c-1.257,2.721-2.386,5.511-3.429,8.333   C2782.438,1385.372,2783.731,1381.178,2784.344,1376.838z M2773.384,1415.627c0.751-2.904,1.563-6.056,2.276-8.562   c0.577-2.019,1.217-4.018,1.859-6.017c-1.312,5.73-2.087,11.581-2.753,17.424   C2774.304,1417.519,2773.844,1416.567,2773.384,1415.627z M2775.007,1418.971c1.89-8.916,4.647-19.148,8.194-25.918   c1.757-3.521,3.136-7.278,5.835-10.219c6.417-7.918,14.051-14.714,21.418-21.719c5.584-5.302,10.96-10.817,16.463-16.202   c5.042-4.985,10.087-9.968,15.116-14.968c-0.343,1.734-0.661,3.473-1.058,5.17c-1.071,4.647-1.318,4.076-3.267,8.057   c-1.53,2.85-2.977,5.746-4.606,8.542c-9.639,17.313-21.107,33.756-35.757,47.209c-3.851,3.531-7.632,7.139-11.446,10.71   c0.137-0.211,0.268-0.425,0.409-0.633c2.226-3.498,4.418-7.017,6.51-10.597c6.412-10.076,11.995-20.646,18.239-30.825   c-9.803,11.011-18.377,23.19-24.982,36.385c-1.494,2.983-3.125,5.973-3.996,9.207c-0.493,0.453-0.982,0.911-1.478,1.361   c-1.773,1.678-3.683,3.221-5.292,5.062C2775.208,1419.386,2775.108,1419.18,2775.007,1418.971z M2784.231,1420.371   c0.603-0.527,1.207-1.056,1.811-1.584c21.753-9.09,42.893-19.656,64.851-28.23c11.321-3.421,22.622-6.947,33.742-10.969   c-0.167,0.342-0.334,0.675-0.499,0.988c-4.998,9.464-11.935,17.882-19.991,24.905c-11.558,9.528-29.787,17.908-46.26,21.216   c-12.49,2.917-25.559,2.718-38.535-1.812c0.013-0.05,0.026-0.1,0.039-0.15c-0.02,0.049-0.038,0.095-0.057,0.144   c-0.028-0.01-0.057-0.018-0.085-0.028c-0.158-0.053-0.305-0.101-0.446-0.147c0.256-0.227,0.522-0.455,0.794-0.68   c0.709,0.03,1.419,0.037,2.128,0.049c0.012,0.181,0.023,0.361,0.034,0.542c0.011-0.18,0.022-0.36,0.032-0.54   c7.766,0.123,15.557-0.838,23.091-2.685c9.475-2.737,18.444-6.976,27.282-11.3c0.16-0.079,0.32-0.159,0.48-0.238   c-1.217,0.325-2.433,0.656-3.647,0.992c-15.634,4.333-31.082,9.781-47.148,12.248c0.017-0.29,0.035-0.58,0.052-0.87   C2782.942,1421.436,2783.833,1420.774,2784.231,1420.371z M2780.491,1423.303c0.381-0.3,0.761-0.59,1.128-0.868   c0.014,0.229,0.029,0.458,0.044,0.686C2781.272,1423.181,2780.883,1423.247,2780.491,1423.303z M2725.658,1428.499   c-11.948-2.549-25.391-6.878-35.164-10.789c-3.219-1.387-6.33-2.988-9.398-4.672c3.03,0.717,6.059,1.437,9.08,2.188   c6.591,1.571,13.118,3.546,19.86,4.376c17.398,1.853,34.916,1.896,52.364,3.001c3.013,0.215,6.045,0.241,9.063,0.407   c0.715,0.207,1.425,0.427,2.146,0.614c0.105,0.672,0.312,1.323,0.588,1.944c-0.544,0.128-1.092,0.24-1.637,0.359   c0.295-0.244,0.589-0.489,0.885-0.733c-0.575,0.297-1.141,0.612-1.713,0.914   C2756.632,1429.278,2741.014,1429.256,2725.658,1428.499z M2748.163,1460.893c-1.009-0.442-1.687-1.056-2.154-1.605   c-0.176-1.417,0.557-4.619,1.411-6.979c2.015-7.643,8.255-13.068,14.41-17.619c3.044-2.378,6.012-4.851,8.983-7.318   c1.203-0.431,2.401-0.88,3.587-1.365c0.687,1.322,1.736,2.457,3.026,3.203c0.021,0.01,0.043,0.017,0.064,0.026   c0.026,0.045,0.054,0.089,0.079,0.134c-3.057,8.1-4.438,13.755-4.188,18.747c-0.211,0.15-0.421,0.3-0.622,0.464   c-1.612,1.366-2.587,3.336-3.779,5.053c-0.462,0.948-0.668,2.025-1.3,2.886c-1.174,1.486-2.861,2.524-4.628,3.161   C2758.42,1461.686,2752.894,1462.391,2748.163,1460.893z M2699.868,1587.857c5.634-3.238,11.448-6.14,16.852-9.78   c5.132-3.459,10.046-7.252,15.019-10.938c2.682-2.105,5.358-4.218,8.026-6.339c-2.041,1.202-4.079,2.409-6.115,3.621   c-6.09,3.549-12.185,7.112-18.368,10.491c-2.939,1.429-5.825,2.968-8.782,4.359c-3.011,1.358-6.155,2.455-9.009,4.14   c-4.42,3.164-8.816,6.367-13.185,9.604c4.073-4.306,8.161-8.595,12.347-12.789c8.996-8.372,17.888-14.349,28.023-21.92   c14.828-11.171,30.747-21.274,48.736-26.436c7.677-2.375,15.533-4.122,23.462-5.413c1.532-0.249,2.895-0.497,4.19-0.717   c-1.872,1.103-3.555,2.503-5.201,3.915c-3.469,2.955-6.642,6.239-10.222,9.063c-5.549,4.6-11.276,8.987-16.49,13.975   c-14.544,14.723-30.333,25.723-47.917,37.239c-8.208,5.492-17.523,8.918-26.388,13.169c-8.632,4.074-17.356,7.947-26.146,11.665   c-2.9,1.454-5.815,2.883-8.727,4.32C2671.603,1610.103,2688.305,1597.209,2699.868,1587.857z M2605.986,1646.454   c1.218-2.835,2.449-5.664,3.369-8.615c2.351-6.253,2.241-12.976,2.99-19.524c0.366-3.333,1.578-6.505,2.796-9.606   c2.392-5.166,3.693-10.75,5.671-16.081c3.52-11.057,5.993-22.398,8.697-33.673c0.707-2.971,0.893-6.028,1.329-9.04   c1.3-7.2,2.847-14.347,4.63-21.443c2.08-8.073,3.905-16.263,7.075-23.995c-3.384,6.217-5.556,12.985-7.834,19.661   c-2.487,7.453-4.642,15.008-6.357,22.676c-0.547,2.842-0.796,5.74-1.567,8.539c-4.655,17.167-8.54,34.644-15.406,51.098   c-3.862,9.072-1.69,19.372-5.486,28.473c-0.981,3.051-2.389,5.933-3.574,8.906c-0.176,0.55-0.355,1.098-0.543,1.643   c0.077-2.614-0.145-5.22-0.818-7.742c-0.905-3.343-0.962-6.829-1.342-10.254c-0.429-5.161-1.126-10.316-1.145-15.501   c0.162-8.911,1.556-17.741,2.558-26.583c0.872-6.215,1.149-12.492,2-18.707c0.927-5.728,2.251-11.394,3.802-16.983   c3.951-13.765,8.15-28.812,14.225-40.134c2.303-4.394,4.329-8.952,7.035-13.12c6.577-9.11,13.521-17.959,20.478-26.782   c7.405-9.727,16.391-18.362,22.603-28.937c0.886-1.134,0.941-1.469,1.877-1.825c0.168,0.554,0.329,1.11,0.453,1.677   c0.114,0.491,0.172,0.311,0.091,0.453c0.643,5.014-0.158,10.104-1.095,15.033c-2.16,13.066-6.015,25.755-9.168,38.602   c-4.968,18.243-8.354,36.957-15.212,54.632c-2.082,5.454-3.338,11.155-5.014,16.732c-1.856,5.613-4.012,11.122-6.273,16.583   c-3.867,9.314-8.374,18.346-12.522,27.536c-2.068,4.531-4.987,12.35-6.416,15.191c-3.632,7.573-7.8,14.872-11.764,22.273   c-0.575,1.042-1.145,2.088-1.717,3.132C2604.936,1649.317,2605.362,1647.848,2605.986,1646.454z" />
	<path d="M2868.75,1343.276c-0.363-0.239-0.737-0.41-1.062-0.412c-0.417-0.03-0.56,0.486-0.822,0.73   c-1.496,1.424-1.816,3.635-1.247,5.562c0.164,0.688,0.424,1.246,0.744,1.707c-0.039,0.076-0.074,0.158-0.115,0.232   c-1.72,3.914-4.732,7.003-7.386,10.289c-11.323,14.481-27.221,22.388-43.446,31.262c16.955-5.309,34.771-11.504,46.289-25.813   c3.684-4.328,7.395-8.907,8.766-14.537c1.616-0.377,3.186-1.566,3.962-3.263c0.441-1.119,0.21-2.358,0.094-3.519   c-0.011-0.92-0.259-2.51-1.417-2.932c-1.228,0.057-2.54-0.356-3.709,0.165C2869.159,1342.893,2868.947,1343.076,2868.75,1343.276z    M2872.55,1345.49c-0.018,0.156-0.046,0.304-0.101,0.434c-0.108,0.185-0.275,0.381-0.462,0.573   c-0.039-0.442-0.239-0.875-0.513-1.224C2871.833,1345.318,2872.192,1345.4,2872.55,1345.49z M2871.191,1345.545   c0.404,0.431,0.191,0.773-0.18,1.017c-0.094-0.439-0.222-0.871-0.435-1.284c0.038-0.006,0.076-0.01,0.115-0.014   C2870.864,1345.348,2871.036,1345.433,2871.191,1345.545z" />
</g>
</svg>