<svg width="1535" height="48" viewBox="0 0 1535 48" preserveAspectRatio="none" fill="none" xmlns="http://www.w3.org/2000/svg">
<path d="M1072.07 23.9543C1072.35 24.2293 1072.84 24.4432 1073.09 24.7182C1071.4 25.0237 1071.12 24.6876 1069 24.7182C1069.37 26.032 1079.04 26.6125 1080.27 25.2987C1078.37 25.2987 1077.05 25.1154 1075.67 24.9321C1075.73 24.5654 1074.93 23.8016 1072.07 23.9849L1072.07 23.9543Z" fill="#231F20"/>
<path d="M1084.35 23.771C1083 23.0072 1078.12 23.5571 1075.67 23.1905C1076.93 23.9849 1082.21 23.2822 1084.35 23.771Z" fill="#231F20"/>
<path d="M1074.1 23.4044C1073.67 23.1294 1072.81 23.0072 1071.55 23.0377C1071.61 23.4349 1072.84 23.4349 1074.1 23.4044Z" fill="#231F20"/>
<path d="M1099.18 24.9015C1097.19 25.2681 1095.44 24.7182 1092.52 24.9015C1093.66 25.482 1098.35 25.7265 1099.18 24.9015Z" fill="#231F20"/>
<path d="M1065.41 22.0906C1064.58 22.1822 1060.35 21.1739 1059.27 22.0906C1061.76 21.9072 1064.15 22.4266 1065.41 22.0906Z" fill="#231F20"/>
<path d="M450.768 6.44707C451.381 6.44707 451.197 6.11098 451.289 5.86655C450.43 5.80544 450.308 6.01932 450.277 6.23319C450.706 6.20264 450.768 6.2943 450.798 6.41652L450.768 6.44707Z" fill="#231F20"/>
<path d="M1498.28 37.398C1497.48 37.3369 1496.44 37.2758 1494.88 37.3063C1494.97 37.5202 1495.86 37.6424 1497.61 37.6424C1497.98 37.5813 1498.31 37.5202 1498.28 37.398Z" fill="#231F20"/>
<path d="M413.928 5.31658C413.836 4.91938 412.639 4.91938 411.38 4.94994C410.858 5.59157 412.976 5.25548 413.928 5.31658Z" fill="#231F20"/>
<path d="M1099.7 25.0848C1100.13 25.3598 1101.36 25.3598 1102.25 25.4515C1102.19 25.0543 1100.96 25.0543 1099.7 25.0848Z" fill="#231F20"/>
<path d="M1514 32.8455C1513.82 32.6621 1512.19 32.6621 1511.27 32.7538C1511.45 32.9371 1513.08 32.9371 1514 32.8455Z" fill="#231F20"/>
<path d="M1399.8 38.4979C1401.98 38.5896 1407.47 39.2006 1411.43 38.7423C1412.45 38.7729 1411.16 38.8646 1411.43 38.9868C1416.31 39.0784 1420.7 39.2618 1423.74 38.8034C1422.42 38.7118 1417.79 38.8951 1417.6 38.4674C1414.35 38.4368 1411.68 38.4674 1410.08 38.6507C1408.55 38.6507 1410.97 38.4368 1410.08 38.2229C1408.49 38.2229 1405.63 38.3451 1403.24 38.3146C1402.87 38.3146 1401.73 38.1618 1400.5 38.1313C1398.6 38.1007 1397.31 38.3451 1397.1 37.9479C1394.03 38.009 1393.32 38.2229 1391.63 37.8563C1391.39 37.9479 1388.9 38.1924 1388.22 37.9479C1387.76 37.7952 1387.15 38.0396 1388.22 38.0396C1388.68 38.2535 1386.81 38.1924 1386.17 38.284C1390.03 38.8034 1396.45 38.3146 1399.86 38.4674L1399.8 38.4979Z" fill="#231F20"/>
<path d="M1354.67 36.2675C1353.66 36.3286 1352.49 36.3897 1352.61 36.6036C1353.23 36.6647 1354.15 36.6952 1355.34 36.6952C1355.56 36.4814 1355.22 36.3591 1354.67 36.2675Z" fill="#231F20"/>
<path d="M1303.4 31.99L1300.67 31.99C1300.11 32.3261 1303.95 32.3261 1303.4 31.99Z" fill="#231F20"/>
<path d="M1425.12 39.0173C1423.68 38.9868 1423.31 39.0784 1422.39 39.109C1422.18 39.2618 1426.23 39.2618 1425.12 39.0173Z" fill="#231F20"/>
<path d="M83.8417 0.977974C82.3067 0.122468 78.0394 0.672437 74.6317 0.61133C77.6096 1.31407 81.0787 0.519668 83.8417 0.977974Z" fill="#231F20"/>
<path d="M186.196 3.05562C193.564 3.23894 201.177 3.78891 210.264 3.81947C210.172 3.08617 207.686 3.51393 206.672 3.45282C198.476 2.81119 184.568 2.50565 173.394 2.32233C176.095 3.57504 181.161 2.93341 186.196 3.08618L186.196 3.05562Z" fill="#231F20"/>
<path d="M172.902 2.65842C173.394 1.98624 170.876 2.38344 169.832 2.29178C169.894 2.78064 171.552 2.65842 172.902 2.65842Z" fill="#231F20"/>
<path d="M395.508 4.91939C395.416 4.76662 394.986 4.73606 394.986 4.55274L393.973 4.55274C393.727 4.94994 394.71 4.91939 395.508 4.91939Z" fill="#231F20"/>
<path d="M3.56327e-06 40.759L4.19632e-06 48.0003L1535 48.0001L1535 47.0835C1533.4 46.9002 1531.01 46.778 1529.04 46.6252C1530.92 46.1975 1527.29 46.0141 1524.93 45.8614C1526.71 45.3114 1523.27 45.1281 1524.93 44.6698C1522.66 44.6087 1523.36 44.1809 1520.14 44.242C1520.57 43.692 1517.22 43.4476 1517.41 43.0504C1517.65 42.4699 1522.38 42.2255 1523.58 41.6755C1523.12 41.37 1520.82 41.2783 1520.85 40.9117C1509.64 40.545 1499.42 41.0033 1486.65 40.82C1485.94 40.82 1485.02 40.6672 1484.59 40.6367C1479.65 40.4839 1472.83 40.7283 1468.17 40.7283C1467.21 40.7283 1464.42 40.7283 1463.38 40.7283C1462.86 40.7283 1461.5 40.545 1461.32 40.545C1459.6 40.545 1458.56 40.6672 1455.86 40.6367C1447.04 40.545 1436.15 40.6367 1428.5 40.3006C1426.05 40.6978 1422.02 39.9339 1419.6 40.3922C1418.31 40.27 1416.04 40.27 1415.48 40.0562C1406.83 40.2395 1402.07 39.4451 1394.98 39.7201C1393.41 39.5978 1392.71 39.384 1389.51 39.4756C1388.68 39.4451 1388.1 39.3534 1388.13 39.2312C1386.17 39.2618 1384.11 39.5673 1382.67 39.4145C1380.92 39.4145 1383.62 39.2618 1382.67 39.0784C1379.69 39.1701 1379.63 38.8951 1378.55 38.7423C1377.26 38.8035 1376.04 38.8951 1374.44 38.9257C1372.69 38.7423 1371.28 38.7118 1369.86 38.7118C1368.88 38.5896 1367.87 38.4979 1366.89 38.3757C1367.65 38.3451 1368.27 38.284 1368.3 38.1313C1366.83 38.1313 1365.44 38.1313 1364.09 38.0702C1359.09 37.5202 1353.93 37.0008 1348.37 36.4814C1345.12 36.1758 1341.1 35.9008 1336.62 35.5342C1325.75 34.6481 1315.59 33.3954 1303.86 32.5094C1300.21 32.2344 1296.34 32.2344 1292.59 31.9289C1286.97 31.5011 1281.63 30.9511 1276.2 30.7984C1274.08 30.7373 1271.69 30.8595 1269.54 30.7984C1261.56 30.5234 1254.74 29.8206 1245.99 29.4846C1244.82 29.2707 1243.75 29.0568 1242.92 28.7207C1239.88 28.4457 1236.84 28.9346 1233.71 28.904C1231.1 28.904 1228.46 28.3846 1225.51 28.3235C1224.5 28.3235 1223.43 28.5374 1222.44 28.5068C1213.45 28.2624 1202.89 27.6208 1193.28 27.3764C1188.83 27.2541 1184.38 27.468 1180.48 27.193C1176.82 26.9486 1168.99 26.3986 1164.11 26.4292C1163.01 26.4292 1161.6 26.6736 1160.52 26.6125C1157.11 26.4597 1153.89 25.6653 1150.3 25.482C1144 25.1765 1137.8 25.3598 1131.88 25.1154C1130.74 24.3515 1128.47 24.046 1125.74 23.9849C1124.57 23.9849 1124.33 24.2904 1123.19 24.3515C1117.79 24.7487 1110.33 23.8016 1106.83 24.5349C1109.71 25.207 1113.92 24.7487 1119.11 25.1154C1121.47 25.2681 1122.98 25.7876 1125.25 25.8792C1127 25.9403 1128.75 25.6653 1130.87 25.6959C1140.01 25.7876 1149.38 26.8569 1157.48 26.8264C1160.18 27.4986 1163.81 27.4069 1167.71 27.193C1168.9 27.2541 1168.84 27.7736 1169.76 27.9569C1168.72 28.7513 1164.51 28.0485 1162.61 27.9569C1160.64 28.1096 1159.45 28.4457 1156.47 28.3235C1155.89 28.3235 1155.76 27.9874 1155.46 27.9569C1154.66 27.8652 1154.53 28.2013 1153.92 28.1402C1152.85 28.0485 1151.93 27.6208 1150.85 27.5597C1145.85 27.2847 1138.79 27.4986 1134.49 27.3764C1134 27.3764 1134.09 27.0097 1133.97 27.0097C1132.71 27.0097 1131.39 27.2847 1130.37 27.193C1128.56 27.1014 1129.36 26.3681 1127.3 26.8264C1126.51 27.6819 1129.42 27.1625 1129.36 27.7736C1125.46 28.2624 1123.47 27.5597 1118.62 27.7736C1117.69 27.468 1116.07 27.468 1116.56 26.6431C1117.82 26.0625 1119.87 26.7958 1121.69 26.6431C1119.05 25.5737 1110.66 26.2459 1105.81 25.5126C1106.43 27.0097 1111.92 25.757 1112.48 27.0097C1111.13 27.7736 1108.58 27.0097 1106.86 27.0097C1102.71 26.9486 1096.33 27.1625 1091.51 27.0097C1090.4 26.9792 1089.42 26.6736 1088.44 26.6431C1086.26 26.5209 1084.54 26.8569 1082.3 26.8264C1075.76 26.7042 1069.07 25.9709 1062.86 25.6959C1063.26 25.0848 1066.64 25.8792 1066.46 25.5126C1067.13 24.2904 1065.23 25.0848 1065.44 24.1988C1066.18 23.6488 1067.44 24.4432 1069.04 24.1988C1068.3 23.3738 1070.75 23.7099 1070.57 23.0683C1068.02 23.1905 1066.61 22.885 1064.43 22.885C1064.77 23.0377 1065.23 23.4044 1064.43 23.4349C1062.47 23.4655 1064.25 23.2822 1063.91 22.885C1057.25 22.6405 1049.11 22.4266 1042.42 21.9378C1039.26 21.7239 1033.73 21.8461 1029.13 21.5711C1027.62 21.4795 1026.49 21.1128 1025.04 20.9906C1019.55 20.624 1013.84 20.6851 1008.16 20.4407C1005.64 20.3184 1000.36 19.7074 997.412 19.4935C989.799 18.913 981.878 19.1574 974.387 18.7296C973.098 18.7296 972.791 18.4241 972.33 18.1491C971.256 18.2713 970.857 18.6074 969.26 18.5158C964.226 17.8436 962.721 18.4241 956.458 17.9352C955.384 17.813 954.709 17.5686 954.402 17.1714C949.336 16.8048 944.271 17.1409 939.052 16.9881C932.697 16.8048 927.017 16.2548 920.11 16.0409C919.311 16.0409 917.899 15.9493 917.04 15.8576C906.632 14.7882 892.326 15.3382 880.2 14.3605C878.296 14.2077 876.024 14.0549 872.525 13.9938C852.723 13.5355 832.308 12.2828 812.66 11.7328C804.34 11.4884 797.187 11.5495 789.635 11.1523C789.143 11.3356 788.622 11.519 788.1 11.7328C784.845 11.0607 780.977 11.794 778.368 10.969C775.482 11.3662 770.877 11.2134 769.158 10.6024C769.25 10.7857 769.035 10.969 768.636 10.969C763.448 11.1218 756.908 9.99128 751.751 10.6024C750.461 10.6024 749.755 10.3274 749.694 9.83851C748.896 9.65519 748.466 10.1746 747.637 10.2052C746.563 10.2663 746.532 9.83851 746.102 9.83851C745.488 9.83851 743.861 10.2052 743.554 10.2052C743.186 10.2052 741.927 9.83852 741.006 9.83852C739.379 9.83852 739.225 10.5413 738.458 9.65519C736.708 9.50242 737.813 10.419 735.91 10.2357C734.252 10.2968 734.835 9.50242 733.362 9.47187C729.678 9.59409 724.152 10.8773 722.617 9.10523C720.314 9.10523 721.972 9.53298 721.082 9.86907C716.385 9.3191 710.951 9.93018 706.253 9.86907C701.986 9.80796 698.087 8.92191 694.987 9.68575C686.728 9.04412 676.935 8.8608 669.905 9.13578C663.826 8.28028 653.818 8.28028 647.893 8.76914C646.603 8.61637 645.897 8.24973 644.301 8.18862C643.134 8.4636 641.599 8.58582 640.218 8.76914C638.499 8.76914 638.099 8.28028 637.148 8.0053C635.705 8.03585 635.736 8.61637 634.6 8.76914C631.96 8.06641 630.148 8.24973 626.403 8.0053C624.254 8.83025 620.785 8.46361 617.715 8.58582C616.886 8.58582 616.548 8.89136 615.658 8.95247C612.004 9.22745 607.799 8.67748 605.926 7.82198C589.133 8.0053 568.503 7.42478 549.622 7.45534C542.438 7.45534 535.132 7.21091 528.654 6.87482C526.014 7.73032 523.097 6.93592 519.966 6.87482C512.352 6.72205 503.756 7.39423 496.941 6.50817C495.099 6.38596 494.454 6.72205 493.349 6.87482C488.099 6.56928 479.012 6.41651 471.859 6.32485C470.201 6.32485 467.223 6.2943 466.241 6.6915C465.965 6.41652 465.934 6.38596 464.706 6.11098C463.109 5.83599 463.048 6.53873 461.636 6.6915C459.917 6.84427 457.123 6.41652 455.496 6.50818C454.544 6.56929 454.636 6.87482 453.961 6.87482C451.597 6.87482 448.711 6.81372 446.777 6.11098C445.611 6.90538 442.356 5.836 441.159 6.6915C435.234 6.26375 426.147 6.50818 419.669 6.50818L419.669 7.05815C417.305 6.01932 410.213 6.47763 404.841 6.11098C403.736 6.01932 403.858 6.38597 403.828 6.6915C402.477 6.75261 401.617 6.6304 401.771 6.11098C399.867 6.26375 401.771 6.78317 400.758 7.05815C400.021 6.69151 397.411 7.05815 396.675 6.69151C395.078 6.59984 395.324 7.21092 394.127 7.24147C389.215 6.90538 383.596 7.39424 377.763 7.24147C376.75 7.24148 376.689 6.90538 376.229 6.87483C373.251 6.66095 369.689 7.11926 367.018 7.24148C361.37 7.51646 351.975 6.84428 343.994 7.05816C342.673 7.08871 342.581 7.36369 340.923 7.4248C339.02 7.51646 336.748 7.54702 334.784 7.4248C332.143 7.27203 328.858 7.11926 325.574 6.66096C324.008 6.66096 323.578 7.05816 322.504 7.21093C317.039 6.6304 308.259 7.48591 301.013 6.44708C300.614 6.53874 300.185 6.63041 299.479 6.63041C298.343 6.53875 298.742 6.99705 297.944 6.99705C296.163 7.14982 295.764 6.78318 294.874 6.63041C277.988 6.93595 260.428 5.92767 244.219 6.04989C241.916 6.04989 239.613 5.56103 237.065 5.49992C232.89 5.34715 226.781 5.68325 220.18 5.68325C212.69 5.68325 204.984 4.94996 198.69 5.10273C196.91 5.13328 195.344 5.37771 193.563 5.28605C192.919 5.2555 191.814 4.9194 191.015 4.9194C184.845 4.82774 177.569 5.01107 170.538 4.91941C162.649 4.79719 153.868 4.0639 148.005 4.91941C141.742 4.21667 132.286 4.67498 127.037 3.6056C128.479 3.33061 130.567 3.2695 132.655 3.23895C131.396 2.32234 127.313 2.75009 123.967 2.68898C118.164 2.56677 111.564 1.80292 107.603 2.87231C106.191 2.26123 103.612 2.78065 101.463 2.68898C100.604 2.65843 99.8364 2.32234 98.9154 2.32234C97.3497 2.29179 95.9682 2.50566 94.3104 2.50566C88.6002 2.50566 81.8155 1.80293 76.9035 3.08619C75.3685 2.84176 72.2371 2.59733 69.7504 2.71954C68.9522 2.7501 68.461 3.08619 67.6935 3.08619C64.2858 3.17785 59.7729 3.23896 56.4266 3.08619C55.0144 3.02508 54.1241 2.7501 52.8347 2.71954C45.2825 2.53622 37.3312 2.96397 29.2878 3.08619C27.7528 2.90287 26.5555 2.59733 24.6828 2.50567C22.8715 2.20013 24.3758 3.1473 23.1478 3.08619C21.5821 3.02508 22.0119 2.23068 20.569 2.13902C16.2096 1.98626 13.815 2.26124 10.3459 1.77238C10.8985 1.25296 13.4159 1.37518 14.429 1.40573C17.806 1.43629 20.9681 1.61961 24.6828 1.58906C26.9853 1.58905 29.1036 2.07792 31.3447 2.13902C34.2919 2.26124 37.6075 2.26124 40.0328 2.13902C41.7827 2.04736 43.3791 1.65016 45.1597 1.58905C48.199 1.46684 52.5891 2.29179 53.8478 1.03908C46.2342 0.855762 39.9407 1.43628 33.8928 1.03909C30.6079 0.82521 27.8142 0.153027 24.1609 0.458565C22.5031 0.305796 23.4548 1.06964 22.104 1.03909C16.0254 0.397458 8.8723 0.366905 0.921 0.580782C0.6447 0.580782 0.307 0.580782 5.07736e-08 0.580782L9.35112e-08 1.06964C2.3332 0.977981 4.5129 0.88632 7.061 1.1613C5.3418 1.68072 2.7016 1.77238 1.52275e-07 1.74183L2.48435e-07 2.84176C3.4998 2.7501 7.675 2.3529 10.1617 2.29179C11.8809 2.26124 13.6922 2.41401 15.2886 2.47512C17.2841 2.53622 19.9243 2.47512 20.4155 3.05564C15.964 2.99453 10.7757 3.20841 7.1224 2.87232C6.1093 3.17785 2.456 3.57505 0.0614003 3.45284L0.0614036 40.759C0.276304 40.759 0.460504 40.759 0.706104 40.759C0.675404 40.759 0.644704 40.759 0.614004 40.7896C0.429804 40.7896 0.245604 40.7896 0.0614036 40.7896L3.56327e-06 40.759ZM1172.89 27.3764C1177.81 28.1402 1185.48 27.8958 1189.78 28.8735C1186.06 29.2707 1183.33 28.2624 1180.05 29.0568C1177.59 28.4457 1171.57 29.179 1171.36 27.743C1172.1 27.6819 1172.22 27.4375 1172.89 27.3764ZM1115.58 27.3764C1114.26 27.3764 1113.8 27.0403 1113.03 26.8264C1113.92 27.0097 1115.76 26.8264 1115.58 27.3764ZM1079.23 31.1345C1077.94 31.1345 1076.59 31.1039 1076.68 30.5845C1078.15 30.554 1079.47 30.5845 1079.23 31.1345ZM1066.95 29.8207C1063.94 30.0651 1068.79 30.7067 1066.95 29.8207V29.8207ZM1063.88 29.8207C1063.14 30.0957 1061.21 30.004 1061.33 29.454C1062.59 29.454 1063.45 29.5457 1063.88 29.8207ZM1060.81 24.9321C1059.83 24.9015 1059.67 25.1459 1058.75 25.1154C1058.35 24.4738 1060.72 24.3821 1060.81 24.9321ZM1056.72 23.0377L1057.74 23.0377C1057.74 23.2822 1058.38 23.3127 1058.26 23.5877L1056.72 23.5877L1056.72 23.0377ZM997.351 20.7768C996.092 20.7768 995.233 20.6851 994.803 20.4101C996.062 20.4101 997.289 20.3796 997.351 20.7768ZM219.474 27.5598L220.487 27.5598L220.487 27.9264L219.474 27.9264L219.474 27.5598ZM125.287 3.78892C121.296 3.78892 119.3 4.12501 116.599 3.6056C118.41 3.39172 124.304 3.11674 125.287 3.78892ZM113.529 3.42227L116.077 3.42227C116.875 4.0028 112.73 4.0028 113.529 3.42227ZM113.037 4.36944C114.327 4.70553 115.923 4.0028 116.599 4.73609C115.432 4.61387 112.608 5.07218 113.037 4.36944ZM109.446 4.18612L111.502 4.18612C111.901 4.91941 109.046 4.91941 109.446 4.18612ZM74.1405 3.42228L75.6755 3.42228L75.6755 3.78892L74.1405 3.78892L74.1405 3.42228ZM71.5617 3.78892C71.6538 4.7972 66.8339 4.27779 66.4348 3.78892L71.5617 3.78892Z" fill="#231F20"/>
<path d="M48.5367 0.214133C48.3218 -0.21362 46.0193 0.153025 44.9448 0.0308101C45.6202 0.519671 47.2166 0.397455 48.5367 0.214133Z" fill="#231F20"/>
<path d="M71.5617 0.397453C70.6407 0.397453 70.4872 0.641884 69.5048 0.580776C69.3513 0.916868 72.3599 0.916868 71.5617 0.397453Z" fill="#231F20"/>
<path d="M121.204 0.977971L119.669 0.977971L119.669 1.34462L121.204 1.34462L121.204 0.977971Z" fill="#231F20"/>
<path d="M289.562 4.55275C291.036 3.7889 277.313 4.24721 281.887 4.36943C284.835 4.27777 287.137 4.46109 289.562 4.55275Z" fill="#231F20"/>
<path d="M223.557 3.05562C223.772 3.30005 224.202 3.45282 225.092 3.42226C225.338 3.02507 224.356 3.05562 223.557 3.05562Z" fill="#231F20"/>
<path d="M334.599 6.6304C335.857 6.6304 334.752 5.98877 334.599 5.86656C333.31 5.86656 334.445 6.50819 334.599 6.6304Z" fill="#231F20"/>
<path d="M284.957 6.23321C284.957 6.23321 284.435 6.04989 284.435 5.86656L283.422 5.86656C283.177 6.26376 284.159 6.23321 284.957 6.23321Z" fill="#231F20"/>
<path d="M279.831 4.36943C277.988 3.54447 275.041 4.06389 272.677 4.00278C268.564 3.88057 264.511 3.30005 260.397 3.63614C263.652 4.30832 268.625 4.06389 273.199 4.21666C275.502 4.27777 277.651 4.55275 279.861 4.39998L279.831 4.36943Z" fill="#231F20"/>
<path d="M228.162 3.42226C227.702 3.08617 226.351 2.9334 225.614 3.23894C225.522 3.63614 227.426 3.3306 228.162 3.42226Z" fill="#231F20"/>
</svg>
