<?xml version="1.0" encoding="utf-8"?>
<!-- Generator: Adobe Illustrator 28.1.0, SVG Export Plug-In . SVG Version: 6.00 Build 0)  -->
<svg version="1.1" id="Layer_1" xmlns="http://www.w3.org/2000/svg" xmlns:xlink="http://www.w3.org/1999/xlink" x="0px" y="0px"
	 viewBox="0 0 1535 48" preserveAspectRatio="none" style="enable-background:new 0 0 1535 48;" xml:space="preserve">
<style type="text/css">
	.st0{fill:#231F20;}
</style>
<path class="st0" d="M462.9,24c-0.3-0.3-0.8-0.5-1-0.8c1.7-0.3,2,0,4.1,0c-0.4-1.3-10-1.9-11.3-0.6c1.9,0,3.2,0.2,4.6,0.4
	C459.3,23.4,460.1,24.2,462.9,24L462.9,24z"/>
<path class="st0" d="M450.7,24.2c1.3,0.8,6.2,0.2,8.7,0.6C458.1,24,452.8,24.7,450.7,24.2z"/>
<path class="st0" d="M460.9,24.6c0.4,0.3,1.3,0.4,2.5,0.4C463.4,24.6,462.2,24.6,460.9,24.6z"/>
<path class="st0" d="M435.8,23.1c2-0.4,3.7,0.2,6.7,0C441.3,22.5,436.7,22.3,435.8,23.1z"/>
<path class="st0" d="M469.6,25.9c0.8-0.1,5.1,0.9,6.1,0C473.2,26.1,470.8,25.6,469.6,25.9z"/>
<path class="st0" d="M1084.2,41.6c-0.6,0-0.4,0.3-0.5,0.6c0.9,0.1,1-0.2,1-0.4C1084.3,41.8,1084.2,41.7,1084.2,41.6L1084.2,41.6z"/>
<path class="st0" d="M36.7,10.6c0.8,0.1,1.8,0.1,3.4,0.1c-0.1-0.2-1-0.3-2.7-0.3C37,10.4,36.7,10.5,36.7,10.6z"/>
<path class="st0" d="M1121.1,42.7c0.1,0.4,1.3,0.4,2.5,0.4C1124.1,42.4,1122,42.7,1121.1,42.7z"/>
<path class="st0" d="M435.3,22.9c-0.4-0.3-1.7-0.3-2.6-0.4C432.8,22.9,434,22.9,435.3,22.9z"/>
<path class="st0" d="M21,15.2c0.2,0.2,1.8,0.2,2.7,0.1C23.6,15.1,21.9,15.1,21,15.2z"/>
<path class="st0" d="M135.2,9.5c-2.2-0.1-7.7-0.7-11.6-0.2c-1,0,0.3-0.1,0-0.2c-4.9-0.1-9.3-0.3-12.3,0.2c1.3,0.1,5.9-0.1,6.1,0.3
	c3.2,0,5.9,0,7.5-0.2c1.5,0-0.9,0.2,0,0.4c1.6,0,4.4-0.1,6.8-0.1c0.4,0,1.5,0.2,2.7,0.2c1.9,0,3.2-0.2,3.4,0.2
	c3.1-0.1,3.8-0.3,5.5,0.1c0.2-0.1,2.7-0.3,3.4-0.1c0.5,0.2,1.1-0.1,0-0.1c-0.5-0.2,1.4-0.2,2-0.2C145,9.2,138.6,9.7,135.2,9.5
	L135.2,9.5z"/>
<path class="st0" d="M180.3,11.7c1-0.1,2.2-0.1,2.1-0.3c-0.6-0.1-1.5-0.1-2.7-0.1C179.4,11.5,179.8,11.6,180.3,11.7z"/>
<path class="st0" d="M231.6,16h2.7C234.9,15.7,231.1,15.7,231.6,16z"/>
<path class="st0" d="M109.9,9c1.4,0,1.8-0.1,2.7-0.1C112.8,8.7,108.8,8.7,109.9,9z"/>
<path class="st0" d="M1451.2,47c1.5,0.9,5.8,0.3,9.2,0.4C1457.4,46.7,1453.9,47.5,1451.2,47z"/>
<path class="st0" d="M1348.8,44.9c-7.4-0.2-15-0.7-24.1-0.8c0.1,0.7,2.6,0.3,3.6,0.4c8.2,0.6,22.1,0.9,33.3,1.1
	C1358.9,44.4,1353.8,45.1,1348.8,44.9L1348.8,44.9z"/>
<path class="st0" d="M1362.1,45.3c-0.5,0.7,2,0.3,3.1,0.4C1365.1,45.2,1363.4,45.3,1362.1,45.3z"/>
<path class="st0" d="M1139.5,43.1c0.1,0.2,0.5,0.2,0.5,0.4h1C1141.3,43.1,1140.3,43.1,1139.5,43.1z"/>
<path class="st0" d="M1535,7.2V0L0,0l0,0.9c1.6,0.2,4,0.3,6,0.5C4.1,1.8,7.7,2,10.1,2.1c-1.8,0.5,1.7,0.7,0,1.2
	c2.3,0.1,1.6,0.5,4.8,0.4c-0.4,0.5,2.9,0.8,2.7,1.2c-0.2,0.6-5,0.8-6.2,1.4c0.5,0.3,2.8,0.4,2.7,0.8C25.4,7.5,35.6,7,48.3,7.2
	c0.7,0,1.6,0.2,2.1,0.2c4.9,0.2,11.8-0.1,16.4-0.1c1,0,3.8,0,4.8,0c0.5,0,1.9,0.2,2.1,0.2c1.7,0,2.8-0.1,5.5-0.1
	c8.8,0.1,19.7,0,27.4,0.3c2.4-0.4,6.5,0.4,8.9-0.1c1.3,0.1,3.6,0.1,4.1,0.3c8.7-0.2,13.4,0.6,20.5,0.3c1.6,0.1,2.3,0.3,5.5,0.2
	c0.8,0,1.4,0.1,1.4,0.2c2,0,4-0.3,5.5-0.2c1.8,0-0.9,0.2,0,0.3c3-0.1,3,0.2,4.1,0.3c1.3-0.1,2.5-0.2,4.1-0.2
	c1.8,0.2,3.2,0.2,4.6,0.2c1,0.1,2,0.2,3,0.3c-0.8,0-1.4,0.1-1.4,0.2c1.5,0,2.9,0,4.2,0.1c5,0.6,10.2,1.1,15.7,1.6
	c3.2,0.3,7.3,0.6,11.8,0.9c10.9,0.9,21,2.1,32.8,3c3.7,0.3,7.5,0.3,11.3,0.6c5.6,0.4,11,1,16.4,1.1c2.1,0.1,4.5-0.1,6.7,0
	c8,0.3,14.8,1,23.6,1.3c1.2,0.2,2.2,0.4,3.1,0.8c3,0.3,6.1-0.2,9.2-0.2c2.6,0,5.2,0.5,8.2,0.6c1,0,2.1-0.2,3.1-0.2
	c9,0.2,19.5,0.9,29.2,1.1c4.5,0.1,8.9-0.1,12.8,0.2c3.7,0.2,11.5,0.8,16.4,0.8c1.1,0,2.5-0.2,3.6-0.2c3.4,0.2,6.6,0.9,10.2,1.1
	c6.3,0.3,12.5,0.1,18.4,0.4c1.1,0.8,3.4,1.1,6.1,1.1c1.2,0,1.4-0.3,2.6-0.4c5.4-0.4,12.9,0.5,16.4-0.2c-2.9-0.7-7.1-0.2-12.3-0.6
	c-2.4-0.2-3.9-0.7-6.1-0.8c-1.8-0.1-3.5,0.2-5.6,0.2c-9.1-0.1-18.5-1.2-26.6-1.1c-2.7-0.7-6.3-0.6-10.2-0.4
	c-1.2-0.1-1.1-0.6-2.1-0.8c1-0.8,5.2-0.1,7.2,0c2-0.2,3.2-0.5,6.1-0.4c0.6,0,0.7,0.3,1,0.4c0.8,0.1,0.9-0.2,1.5-0.2
	c1.1,0.1,2,0.5,3.1,0.6c5,0.3,12.1,0.1,16.4,0.2c0.5,0,0.4,0.4,0.5,0.4c1.3,0,2.6-0.3,3.6-0.2c1.8,0.1,1,0.8,3.1,0.4
	c0.8-0.9-2.1-0.3-2.1-0.9c3.9-0.5,5.9,0.2,10.7,0c0.9,0.3,2.6,0.3,2.1,1.1c-1.3,0.6-3.3-0.2-5.1,0c2.6,1.1,11,0.4,15.9,1.1
	c-0.6-1.5-6.1-0.2-6.7-1.5c1.3-0.8,3.9,0,5.6,0c4.2,0.1,10.5-0.2,15.3,0c1.1,0,2.1,0.3,3.1,0.4c2.2,0.1,3.9-0.2,6.1-0.2
	c6.5,0.1,13.2,0.9,19.4,1.1c-0.4,0.6-3.8-0.2-3.6,0.2c-0.7,1.2,1.2,0.4,1,1.3c-0.7,0.5-2-0.2-3.6,0c0.7,0.8-1.7,0.5-1.5,1.1
	c2.5-0.1,4,0.2,6.1,0.2c-0.3-0.2-0.8-0.5,0-0.5c2,0,0.2,0.2,0.5,0.5c6.7,0.2,14.8,0.5,21.5,0.9c3.2,0.2,8.7,0.1,13.3,0.4
	c1.5,0.1,2.6,0.5,4.1,0.6c5.5,0.4,11.2,0.3,16.9,0.5c2.5,0.1,7.8,0.7,10.7,0.9c7.6,0.6,15.5,0.3,23,0.8c1.3,0,1.6,0.3,2.1,0.6
	c1.1-0.1,1.5-0.5,3.1-0.4c5,0.7,6.5,0.1,12.8,0.6c1.1,0.1,1.7,0.4,2.1,0.8c5.1,0.4,10.1,0,15.3,0.2c6.4,0.2,12,0.7,18.9,0.9
	c0.8,0,2.2,0.1,3.1,0.2c10.4,1.1,24.7,0.5,36.8,1.5c1.9,0.2,4.2,0.3,7.7,0.4c19.8,0.5,40.2,1.7,59.9,2.3c8.3,0.2,15.5,0.2,23,0.6
	c0.5-0.2,1-0.4,1.5-0.6c3.3,0.7,7.1-0.1,9.7,0.8c2.9-0.4,7.5-0.2,9.2,0.4c-0.1-0.2,0.1-0.4,0.5-0.4c5.2-0.2,11.7,1,16.9,0.4
	c1.3,0,2,0.3,2.1,0.8c0.8,0.2,1.2-0.3,2.1-0.4c1.1-0.1,1.1,0.4,1.5,0.4c0.6,0,2.2-0.4,2.5-0.4c0.4,0,1.6,0.4,2.5,0.4
	c1.6,0,1.8-0.7,2.5,0.2c1.8,0.2,0.6-0.8,2.5-0.6c1.7-0.1,1.1,0.7,2.5,0.8c3.7-0.1,9.2-1.4,10.7,0.4c2.3,0,0.6-0.4,1.5-0.8
	c4.7,0.5,10.1-0.1,14.8,0c4.3,0.1,8.2,0.9,11.3,0.2c8.3,0.6,18.1,0.8,25.1,0.5c6.1,0.9,16.1,0.9,22,0.4c1.3,0.2,2,0.5,3.6,0.6
	c1.2-0.3,2.7-0.4,4.1-0.6c1.7,0,2.1,0.5,3.1,0.8c1.4,0,1.4-0.6,2.5-0.8c2.6,0.7,4.5,0.5,8.2,0.8c2.1-0.8,5.6-0.5,8.7-0.6
	c0.8,0,1.2-0.3,2.1-0.4c3.7-0.3,7.9,0.3,9.7,1.1c16.8-0.2,37.4,0.4,56.3,0.4c7.2,0,14.5,0.2,21,0.6c2.6-0.9,5.6-0.1,8.7,0
	c7.6,0.2,16.2-0.5,23,0.4c1.8,0.1,2.5-0.2,3.6-0.4c5.2,0.3,14.3,0.5,21.5,0.5c1.7,0,4.6,0,5.6-0.4c0.3,0.3,0.3,0.3,1.5,0.6
	c1.6,0.3,1.7-0.4,3.1-0.6c1.7-0.2,4.5,0.3,6.1,0.2c1-0.1,0.9-0.4,1.5-0.4c2.4,0,5.2,0.1,7.2,0.8c1.2-0.8,4.4,0.3,5.6-0.6
	c5.9,0.4,15,0.2,21.5,0.2v-0.5c2.4,1,9.5,0.6,14.8,0.9c1.1,0.1,1-0.3,1-0.6c1.4-0.1,2.2,0.1,2.1,0.6c1.9-0.2,0-0.7,1-0.9
	c0.7,0.4,3.3,0,4.1,0.4c1.6,0.1,1.4-0.5,2.5-0.5c4.9,0.3,10.5-0.2,16.4,0c1,0,1.1,0.3,1.5,0.4c3,0.2,6.5-0.2,9.2-0.4
	c5.6-0.3,15,0.4,23,0.2c1.3,0,1.4-0.3,3.1-0.4c1.9-0.1,4.2-0.1,6.1,0c2.6,0.2,5.9,0.3,9.2,0.8c1.6,0,2-0.4,3.1-0.5
	c5.5,0.6,14.2-0.3,21.5,0.8c0.4-0.1,0.8-0.2,1.5-0.2c1.1,0.1,0.7-0.4,1.5-0.4c1.8-0.2,2.2,0.2,3.1,0.4c16.9-0.3,34.4,0.7,50.7,0.6
	c2.3,0,4.6,0.5,7.2,0.5c4.2,0.2,10.3-0.2,16.9-0.2c7.5,0,15.2,0.7,21.5,0.6c1.8,0,3.3-0.3,5.1-0.2c0.6,0,1.7,0.4,2.5,0.4
	c6.2,0.1,13.4-0.1,20.5,0c7.9,0.1,16.7,0.9,22.5,0c6.3,0.7,15.7,0.2,21,1.3c-1.4,0.3-3.5,0.3-5.6,0.4c1.3,0.9,5.3,0.5,8.7,0.5
	c5.8,0.1,12.4,0.9,16.4-0.2c1.4,0.6,4,0.1,6.1,0.2c0.9,0,1.6,0.4,2.5,0.4c1.6,0,2.9-0.2,4.6-0.2c5.7,0,12.5,0.7,17.4-0.6
	c1.5,0.2,4.7,0.5,7.2,0.4c0.8,0,1.3-0.4,2.1-0.4c3.4-0.1,7.9-0.2,11.3,0c1.4,0.1,2.3,0.3,3.6,0.4c7.6,0.2,15.5-0.2,23.5-0.4
	c1.5,0.2,2.7,0.5,4.6,0.6c1.8,0.3,0.3-0.6,1.5-0.6c1.6,0.1,1.1,0.9,2.6,0.9c4.4,0.2,6.8-0.1,10.2,0.4c-0.6,0.5-3.1,0.4-4.1,0.4
	c-3.4,0-6.5-0.2-10.3-0.2c-2.3,0-4.4-0.5-6.7-0.5c-2.9-0.1-6.3-0.1-8.7,0c-1.7,0.1-3.3,0.5-5.1,0.5c-3,0.1-7.4-0.7-8.7,0.5
	c7.6,0.2,13.9-0.4,20,0c3.3,0.2,6.1,0.9,9.7,0.6c1.7,0.2,0.7-0.6,2.1-0.6c6.1,0.6,13.2,0.7,21.2,0.5c0.3,0,0.6,0,0.9,0v-0.5
	c-2.3,0.1-4.5,0.2-7.1-0.1c1.7-0.5,4.4-0.6,7.1-0.6v-1.1c-3.5,0.1-7.7,0.5-10.2,0.5c-1.7,0-3.5-0.1-5.1-0.2c-2-0.1-4.6,0-5.1-0.6
	c4.5,0.1,9.6-0.2,13.3,0.2c1-0.3,4.7-0.7,7.1-0.6L1535,7.2c-0.3,0-0.5,0-0.7,0c0,0,0.1,0,0.1,0C1534.6,7.2,1534.8,7.2,1535,7.2
	L1535,7.2z M362.1,20.6c-4.9-0.8-12.6-0.5-16.9-1.5c3.7-0.4,6.5,0.6,9.7-0.2c2.5,0.6,8.5-0.1,8.7,1.3
	C362.9,20.3,362.8,20.6,362.1,20.6z M419.4,20.6c1.3,0,1.8,0.3,2.5,0.5C421.1,21,419.2,21.2,419.4,20.6z M455.8,16.9
	c1.3,0,2.6,0,2.5,0.6C456.8,17.4,455.5,17.4,455.8,16.9z M468.1,18.2C471.1,17.9,466.2,17.3,468.1,18.2L468.1,18.2z M471.1,18.2
	c0.7-0.3,2.7-0.2,2.6,0.4C472.4,18.5,471.6,18.5,471.1,18.2z M474.2,23.1c1,0,1.1-0.2,2.1-0.2C476.7,23.5,474.3,23.6,474.2,23.1z
	 M478.3,25h-1c0-0.2-0.6-0.3-0.5-0.5h1.5V25z M537.6,27.2c1.3,0,2.1,0.1,2.5,0.4C538.9,27.6,537.7,27.6,537.6,27.2z M1315.5,20.4h-1
	v-0.4h1V20.4z M1409.7,44.2c4,0,6-0.3,8.7,0.2C1416.6,44.6,1410.7,44.9,1409.7,44.2z M1421.5,44.6h-2.5
	C1418.1,44,1422.3,44,1421.5,44.6z M1422,43.6c-1.3-0.3-2.9,0.4-3.6-0.4C1419.6,43.4,1422.4,42.9,1422,43.6z M1425.6,43.8h-2.1
	C1423.1,43.1,1426,43.1,1425.6,43.8z M1460.9,44.6h-1.5v-0.4h1.5V44.6z M1463.4,44.2c-0.1-1,4.7-0.5,5.1,0H1463.4z"/>
<path class="st0" d="M1486.5,47.8c0.2,0.4,2.5,0.1,3.6,0.2C1489.4,47.5,1487.8,47.6,1486.5,47.8z"/>
<path class="st0" d="M1463.4,47.6c0.9,0,1.1-0.2,2.1-0.2C1465.6,47.1,1462.6,47.1,1463.4,47.6z"/>
<path class="st0" d="M1413.8,47h1.5v-0.4h-1.5V47z"/>
<path class="st0" d="M1245.4,43.4c-1.5,0.8,12.2,0.3,7.7,0.2C1250.2,43.7,1247.9,43.5,1245.4,43.4z"/>
<path class="st0" d="M1311.4,44.9c-0.2-0.2-0.6-0.4-1.5-0.4C1309.7,45,1310.6,44.9,1311.4,44.9z"/>
<path class="st0" d="M1200.4,41.4c-1.3,0-0.2,0.6,0,0.8C1201.7,42.1,1200.6,41.5,1200.4,41.4z"/>
<path class="st0" d="M1250,41.8c0,0,0.5,0.2,0.5,0.4h1C1251.8,41.7,1250.8,41.8,1250,41.8z"/>
<path class="st0" d="M1255.2,43.6c1.8,0.8,4.8,0.3,7.2,0.4c4.1,0.1,8.2,0.7,12.3,0.4c-3.3-0.7-8.2-0.4-12.8-0.6
	C1259.5,43.7,1257.3,43.4,1255.2,43.6L1255.2,43.6z"/>
<path class="st0" d="M1306.8,44.6c0.5,0.3,1.8,0.5,2.5,0.2C1309.5,44.4,1307.6,44.7,1306.8,44.6z"/>
</svg>
