<?xml version="1.0" encoding="utf-8"?>
<svg version="1.1" xmlns="http://www.w3.org/2000/svg" xmlns:xlink="http://www.w3.org/1999/xlink" xml:space="preserve" viewBox="48 628 166 124">
<path d="M173.925,695.306c11.802,4.036,23.022,0.467,35.646-3.476c-5.688,7.164-13.021,8.302-36.261,7.024
		c-0.293,0.947-0.817,1.966-0.902,3.02c-1.268,15.708-11.199,25.645-21.69,36.244c-9.975,10.077-21.6,9.379-33.431,10.336
		c-5.466,0.442-24.338-12.263-26.633-17.257c-0.834-1.814-1.888-3.945-3.467-4.922c-5.727-3.546-11.317-6.993-11.91-14.643
		c-0.016-0.204-0.178-0.516-0.341-0.572c-9.29-3.167-10.176-13.179-15.775-19.332c-6.974-7.665-6.172-13.465,2.37-18.996
		c2.75-1.781,4.863-4.559,7.211-6.938c0.458-0.464,0.496-1.422,0.994-1.758c7.947-5.376,15.943-10.68,23.916-16.018
		c3.107-2.08,6.229-4.144,9.251-6.342c0.891-0.648,1.322-2.316,2.203-2.529c9.062-2.194,18.101-5.194,27.297-5.843
		c5.263-0.371,10.864,3.011,16.19,5.029c2.279,0.863,4.692,2.156,6.279,3.935c9.044,10.143,15.822,21.769,19.084,34.922
		C175.327,682.716,174.022,688.907,173.925,695.306z"/>
</svg>
