<?xml version="1.0" encoding="utf-8"?>
<svg version="1.1" xmlns="http://www.w3.org/2000/svg" xmlns:xlink="http://www.w3.org/1999/xlink" xml:space="preserve" viewBox="500 286 123 272">
<path d="M504.908,552.961c1.061-0.961,2.124-1.919,3.182-2.883c4.582-4.174,7.891-9.092,8.09-15.474
		c0.209-6.715-0.202-13.459,0.206-20.157c0.341-5.586,1.492-11.121,2.251-16.683c0.456-3.336,0.784-6.69,1.285-10.019
		c0.676-4.49,1.091-9.067,2.303-13.415c1.319-4.734,3.43-9.246,5.175-13.863c0.232-0.613,0.302-1.286,0.511-1.909
		c2.417-7.185,4.786-14.388,7.29-21.542c2.758-7.876,5.47-15.775,8.529-23.536c2.519-6.39,5.514-12.592,8.299-18.877
		c1.629-3.675,3.212-7.371,4.903-11.017c2.61-5.626,5.015-11.373,8.017-16.786c3.838-6.921,8.19-13.556,12.295-20.329
		c0.422-0.697,0.595-1.544,1.01-2.248c4.058-6.895,7.725-14.074,12.367-20.554c3.112-4.343,7.844-7.486,11.444-11.528
		c4.987-5.599,9.591-11.539,14.361-17.331c0.791-0.96,1.594-1.911,3.358-4.023c-0.588,3.713-1.14,5.928-1.258,8.166
		c-0.392,7.446-0.384,14.921-0.996,22.347c-0.542,6.571-1.503,13.126-2.655,19.622c-1.272,7.17-2.971,14.264-4.488,21.391
		c-0.104,0.488-0.217,0.977-0.365,1.453c-2.392,7.66-4.831,15.306-7.175,22.98c-1.709,5.595-3.185,11.264-4.973,16.833
		c-1.267,3.946-2.663,7.88-4.383,11.644c-4.058,8.881-8.457,17.607-12.494,26.498c-2.197,4.84-3.856,9.921-5.906,14.831
		c-1.612,3.861-3.239,7.744-5.244,11.406c-2.854,5.211-6.104,10.204-9.106,15.337c-3.755,6.422-7.296,12.974-11.194,19.307
		c-2.092,3.399-4.477,6.699-7.188,9.619c-6.229,6.71-12.857,13.05-19.078,19.768c-2.663,2.876-4.795,6.263-7.021,9.519
		c-2.335,3.417-4.37,7.044-6.798,10.389c-0.801,1.105-2.415,1.62-3.657,2.405C505.507,553.856,505.208,553.408,504.908,552.961z"/>
</svg>
