<?xml version="1.0" encoding="utf-8"?>
<svg version="1.1" xmlns="http://www.w3.org/2000/svg" xmlns:xlink="http://www.w3.org/1999/xlink" xml:space="preserve" viewBox="570 535 177 228">
<path d="M574.884,539.712c1.158,0.817,2.391,1.547,3.457,2.47c2.304,1.993,4.479,4.135,6.785,6.124
		c4.084,3.523,8.194,7.018,12.371,10.429c0.914,0.747,2.122,1.172,3.247,1.614c6.3,2.473,12.717,4.678,18.9,7.413
		c6.456,2.857,11.809,7.438,17.159,11.995c6.601,5.622,13.308,11.125,20.099,16.515c9.421,7.478,18.119,15.618,24.369,26.022
		c1.676,2.791,2.87,5.872,4.279,8.822c6.857,14.356,6.602,29.422,4.759,44.745c-1.645,13.679-1.218,27.377,1.152,40.962
		c0.351,2.011,1.314,4.156,2.617,5.72c9.358,11.229,20.168,20.802,33.483,27.075c3.772,1.777,8.129,2.396,12.279,3.255
		c2.744,0.568,2.805,0.351,2.11,2.948c-0.818,3.055-0.802,2.966-3.886,2.408c-11.128-2.012-20.577-7.518-29.204-14.444
		c-6.164-4.949-12.146-10.194-17.695-15.815c-4.928-4.992-10.708-7.878-17.31-9.618c-8.976-2.366-17.97-4.678-26.871-7.302
		c-6.929-2.042-14.05-3.856-20.509-6.968c-9.723-4.683-19.278-9.985-24.722-20.145c-0.704-1.314-1.804-2.468-2.895-3.514
		c-4.731-4.535-7.92-9.923-9.832-16.209c-3.17-10.422-6.734-20.756-8.074-31.611c-1.08-8.751-1.9-17.557-2.304-26.362
		c-0.295-6.433,0.006-12.928,0.552-19.352c0.378-4.444,1.633-8.812,2.489-13.216c1.932-9.936,1.021-19.375-4.721-28.042
		c-1.107-1.671-1.841-3.588-2.746-5.392C574.441,540.063,574.663,539.888,574.884,539.712z"/>
</svg>
