<?xml version="1.0" encoding="utf-8"?>
<svg version="1.1" xmlns="http://www.w3.org/2000/svg" xmlns:xlink="http://www.w3.org/1999/xlink" xml:space="preserve" viewBox="657 330 103 236">
<path d="M696.48,561.619c0.291-1.753,0.211-3.678,0.933-5.23c4.704-10.095,6.99-20.71,7.626-31.789
		c0.218-3.788-0.764-6.24-3.97-8.645c-5.82-4.366-11.118-9.435-16.57-14.283c-5.629-5.005-9.862-10.737-10.077-18.753
		c-0.045-1.679-1.281-3.348-2.067-4.973c-0.309-0.639-1.149-1.082-1.31-1.723c-2.574-10.26-5.237-20.503-7.52-30.829
		c-0.968-4.377-1.101-8.939-1.625-13.415c-0.042-0.36-0.331-0.753-0.246-1.059c2.769-9.921-0.264-20.773,4.862-30.311
		c0.52-0.968,1.387-1.91,1.483-2.922c1.117-11.793,9.324-20.711,12.715-31.569c0.217-0.694,0.443-1.489,0.927-1.978
		c6.206-6.267,12.515-12.432,18.668-18.75c1.979-2.032,3.517-4.487,5.373-6.649c1.24-1.444,2.71-3.801,4.033-3.772
		c1.519,0.033,3.87,1.999,4.319,3.566c1.396,4.868,6.051,6.592,8.555,9.902c5.568,7.361,12.304,13.653,16.315,22.733
		c4.498,10.181,7.985,20.548,11.347,31.029c1.291,4.026,1.587,8.373,2.296,12.581c0.088,0.522-0.245,1.139-0.096,1.624
		c3.288,10.72-0.848,21.211-1.004,31.823c-0.036,2.494-0.036,5.559-1.389,7.355c-3.855,5.116-4.839,10.851-5.558,16.904
		c-0.26,2.192-1.767,4.255-2.794,6.332c-0.725,1.467-2.192,2.81-2.315,4.293c-0.956,11.464-8.537,18.82-17.035,24.338
		c-10.775,6.995-16.231,15.032-16.004,28.491c0.147,8.684-4.196,17.444-6.527,26.17C698.711,561.947,697.595,561.783,696.48,561.619
		z"/>
</svg>
