<?xml version="1.0" encoding="utf-8"?>
<svg version="1.1" xmlns="http://www.w3.org/2000/svg" xmlns:xlink="http://www.w3.org/1999/xlink" xml:space="preserve" viewBox="209 41 143 255">
<path d="M227.405,286.825c0.488,0.06,0.98,0.1,1.462,0.191c0.189,0.036,0.357,0.186,0.676,0.363
		c-0.58,0.569-1.337,0.473-1.906,0.778c-0.62,0.332-1.266,0.616-1.884,0.952c-0.618,0.336-1.204,0.728-1.823,1.062
		c-0.618,0.333-1.265,0.61-1.886,0.938c-0.616,0.326-1.214,0.685-1.879,1.063c-0.488-0.313-0.946-0.607-1.4-0.898
		c0-0.842,0.063-1.613-0.018-2.37c-0.075-0.695-0.276-1.381-0.475-2.055c-0.211-0.713-0.484-1.408-0.47-2.257
		c0.358,0.395,0.732,0.775,1.069,1.187c0.768,0.938,1.057,1.08,2.138,0.52c1.371-0.711,2.727-1.475,3.994-2.354
		c1.327-0.921,2.57-1.971,3.796-3.026c4.11-3.534,8.306-6.97,12.2-10.75c1.464-1.422,3.008-2.762,4.476-4.18
		c0.706-0.682,1.323-1.457,1.977-2.193c0.187-0.21,0.34-0.453,0.542-0.646c1.473-1.406,2.962-2.794,4.43-4.205
		c0.863-0.829,1.728-1.66,2.534-2.544c2.086-2.288,4.208-4.549,6.191-6.924c2.66-3.186,5.214-6.462,7.791-9.717
		c0.614-0.776,1.076-1.648,1.228-2.657c0.203-1.347-0.058-1.976-1.254-2.593c-2.566-1.322-5.097-2.729-7.739-3.88
		c-4.469-1.947-9.105-2.292-13.824-0.919c-0.946,0.275-1.88,0.596-2.831,0.852c-0.485,0.131-1.013,0.146-1.336-0.345
		c-0.374-0.568-0.893-0.603-1.484-0.537c-1.462,0.164-2.588-0.437-3.571-1.624c0.128-0.634,0.263-1.306,0.431-2.14
		c-0.352-0.213-0.722-0.534-1.151-0.674c-0.935-0.306-1.904-0.507-2.852-0.775c-0.541-0.154-1.083-0.323-1.598-0.545
		c-1.166-0.502-1.385-0.805-1.147-2.091c0.171-0.926-0.171-1.475-0.878-1.947c-1.054-0.703-2.098-1.42-3.141-2.14
		c-0.462-0.32-0.942-0.626-1.357-1c-1.038-0.938-1.063-1.183-0.413-2.544c0.091-0.19,0.213-0.367,0.294-0.561
		c0.309-0.738,0.182-1.418-0.448-1.898c-0.78-0.596-1.615-1.12-2.439-1.657c-0.588-0.383-1.244-0.678-1.787-1.114
		c-1.244-1-1.318-1.557-0.581-3.046c0.121-0.245,0.178-0.521,0.278-0.823c-0.996-1.456-2.945-2.058-3.431-3.944
		c0.037-0.669,0.552-1.078,0.964-1.551c0.404-0.465,1.041-0.758,1.119-1.597c-0.355-0.813-1.219-1.208-1.936-1.744
		c-0.969-0.724-1.886-1.477-2.247-2.851c0.344-0.421,0.729-0.892,1.089-1.331c-0.044-0.197-0.034-0.363-0.111-0.459
		c-0.397-0.492-0.85-0.942-1.221-1.452c-0.697-0.958-0.674-2.129,0.248-2.827c0.224-0.17,0.439-0.355,0.639-0.552
		c0.146-0.143,0.262-0.318,0.47-0.576c-0.239-0.391-0.458-0.816-0.741-1.195c-0.548-0.733-1.172-1.412-1.686-2.166
		c-0.309-0.454-0.555-0.989-0.677-1.522c-0.189-0.823,0.069-1.533,0.869-1.96c0.427-0.228,0.853-0.461,1.214-0.656
		c0.192-0.733-0.334-0.975-0.661-1.301c-0.701-0.7-1.41-1.382-1.505-2.574c0.499-0.492,1.033-1.018,1.618-1.595
		c-0.256-0.524-0.543-1.006-0.73-1.524c-0.188-0.521-0.332-1.071-0.394-1.62c-0.078-0.688,0.229-1.242,0.863-1.556
		c0.503-0.249,1.026-0.456,1.542-0.677c0.376-0.161,0.755-0.315,1.148-0.478c-0.065-0.857-0.676-1.313-1.005-1.913
		c-0.338-0.616-0.772-1.186-1.046-1.827c-0.464-1.082-0.298-1.561,0.636-2.364c0.209-0.18,0.417-0.36,0.694-0.599
		c-0.115-0.547-0.2-1.094-0.348-1.622c-0.256-0.917-0.152-1.811,0.071-2.712c0.151-0.609,0.521-0.988,1.124-1.128
		c0.731-0.171,1.467-0.321,2.351-0.512c-0.296-0.639-0.55-1.125-0.75-1.633c-0.204-0.52-0.433-1.05-0.514-1.596
		c-0.163-1.101,0.266-1.734,1.324-2.068c0.663-0.209,1.343-0.367,2.085-0.567c-0.023-0.944-0.403-1.826,0.075-2.717
		c0.153-0.284-0.143-0.801-0.212-1.214c-0.171-1.016,0.125-1.796,1.12-2.247c0.438-0.199,0.846-0.463,1.305-0.718
		c-0.065-0.76-0.172-1.452-0.173-2.144c-0.002-1.057,0.406-1.512,1.451-1.735c0.474-0.101,0.954-0.171,1.563-0.279
		c-0.066-0.407-0.072-0.741-0.177-1.041c-0.231-0.661-0.594-1.285-0.75-1.96c-0.212-0.917,0.18-1.492,1.065-1.767
		c0.461-0.143,0.938-0.236,1.507-0.376c-0.027-0.477-0.03-0.879-0.078-1.277c-0.058-0.488-0.207-0.971-0.223-1.459
		c-0.049-1.506,0.455-2.074,1.939-2.188c0.626-0.048,1.26-0.008,2.046-0.008c-0.035-0.447-0.045-0.836-0.1-1.22
		c-0.119-0.831-0.382-1.66-0.367-2.486c0.024-1.399,0.757-2.02,2.148-2.018c0.421,0.001,0.843,0.056,1.264,0.086
		c0.415,0.03,0.83,0.059,1.364,0.097c0.078-0.375,0.2-0.694,0.196-1.013c-0.006-0.418-0.14-0.833-0.171-1.253
		c-0.115-1.581,0.076-1.819,1.729-2.287c0.198-0.056,0.384-0.158,0.57-0.251c0.057-0.029,0.092-0.1,0.236-0.265
		c-0.053-0.448-0.14-0.994-0.177-1.544c-0.038-0.559-0.1-1.132-0.024-1.681c0.18-1.302,0.743-1.832,2.034-2.036
		c0.479-0.076,0.962-0.126,1.562-0.204c0.109-0.57,0.234-1.104,0.308-1.645c0.117-0.853,0.372-1.645,0.885-2.345
		c0.636-0.867,1.442-1.309,2.55-1.102c0.684,0.127,1.378,0.204,1.984,0.292c0.694-0.549,0.539-1.23,0.564-1.834
		c0.042-1.01,0.295-1.937,0.794-2.815c0.482-0.849,1.142-1.41,2.135-1.547c0.485-0.067,0.965-0.176,1.543-0.284
		c0.079-0.338,0.207-0.66,0.221-0.987c0.049-1.181,0.34-2.194,1.432-2.886c0.287-0.182,0.384-0.704,0.51-1.089
		c0.175-0.531,0.22-1.116,0.454-1.615c0.473-1.008,1.209-1.73,2.423-1.749c0.211-0.003,0.424,0.001,0.634-0.019
		c1.181-0.11,1.324-0.237,1.517-1.328c0.012-0.069,0.01-0.141,0.022-0.21c0.39-2.285,0.39-2.285,2.776-2.935
		c0.156-0.373,0.356-0.812,0.521-1.263c0.121-0.329,0.157-0.693,0.298-1.011c0.922-2.086,1.756-2.49,3.562-2.04
		c0.272,0.068,0.549,0.129,0.827,0.162c0.466,0.056,0.855-0.128,1.051-0.543c0.391-0.825,0.712-1.683,1.1-2.51
		c0.416-0.887,0.831-1.781,1.329-2.622c0.427-0.721,1.091-1.087,1.974-0.845c0.135,0.037,0.275,0.071,0.414,0.08
		c0.876,0.062,1.166-0.113,1.431-0.889c0.114-0.333,0.163-0.688,0.287-1.016c0.197-0.525,0.383-1.064,0.66-1.548
		c0.953-1.667,1.67-1.986,3.63-1.708c0.206,0.029,0.417,0.021,0.756,0.036c0.146-0.337,0.392-0.687,0.442-1.064
		c0.083-0.624,0.035-1.265,0.052-1.899c0.065-2.336,0.327-2.696,2.677-3.558c0.232-1.23,0.316-2.554,0.321-3.88
		c0.017-4.297-0.118-8.586-0.693-12.852c-0.084-0.625-0.079-1.265-0.081-1.898c0-0.189,0.117-0.378,0.219-0.682
		c1.115,0.131,2.023,0.626,2.751,1.406c0.474,0.508,0.958,1.082,1.2,1.718c1.047,2.755,2.44,5.379,2.947,8.345
		c0.27,1.582,0.902,3.103,1.384,4.647c0.336,1.075,0.675,2.151,1.054,3.212c0.208,0.582,0.329,1.247,1.149,1.611
		c0.408-0.132,0.953-0.258,1.454-0.48c0.898-0.398,1.637-0.167,2.325,0.448c1.205,1.077,1.81,2.492,2.231,4.001
		c0.187,0.67,0.314,1.357,0.481,2.093c0.474,0,0.884,0.053,1.275-0.011c0.949-0.154,1.586,0.192,1.949,1.206
		c0.234,0.653,0.316,1.364,0.438,2.053c0.207,1.163,0.141,2.38,0.654,3.532c0.39,0,0.733,0.014,1.075-0.002
		c1.576-0.074,2.396,0.374,2.919,1.834c0.279,0.78,0.362,1.641,0.451,2.474c0.119,1.109,0.158,2.227,0.225,3.232
		c0.678,0.529,1.221,0.178,1.755,0.118c2.141-0.24,3.187,0.507,3.523,2.648c0.14,0.892,0.105,1.811,0.154,2.789
		c0.256,0.1,0.5,0.243,0.761,0.287c0.699,0.118,1.44,0.171,1.846,0.854c0.507,0.852,0.943,1.738,0.748,2.791
		c-0.179,0.968-0.34,1.939-0.503,2.91c-0.046,0.272-0.07,0.548-0.118,0.94c0.444,0.085,0.836,0.178,1.235,0.232
		c0.626,0.085,1.27,0.085,1.882,0.224c1.335,0.304,1.995,1.314,1.756,2.67c-0.097,0.551-0.308,1.081-0.472,1.62
		c-0.14,0.461-0.288,0.919-0.471,1.505c0.62,0.199,1.132,0.385,1.655,0.527c1.654,0.447,2.107,0.987,2.033,2.67
		c-0.036,0.835-0.218,1.664-0.33,2.468c0.042,0.095,0.054,0.174,0.1,0.22c1.53,1.494,1.528,1.493,0.613,3.348
		c-0.181,0.366-0.332,0.747-0.463,1.043c0.229,0.544,0.616,0.457,0.951,0.491c0.837,0.085,1.683,0.116,2.509,0.262
		c0.849,0.151,1.346,0.756,1.507,1.58c0.107,0.549,0.064,1.126,0.154,1.679c0.065,0.4,0.12,0.925,0.386,1.147
		c0.928,0.775,0.924,1.663,0.561,2.672c-0.044,0.123-0.006,0.275-0.006,0.573c0.405,0.079,0.853,0.17,1.303,0.253
		c1.129,0.207,1.625,0.774,1.479,1.883c-0.081,0.615-0.337,1.211-0.554,1.802c-0.192,0.525-0.441,1.028-0.655,1.545
		c-0.022,0.053,0.02,0.133,0.061,0.358c0.251,0.061,0.563,0.145,0.88,0.211c0.616,0.13,1.267,0.164,1.843,0.391
		c1.797,0.708,2.497,2.297,1.839,4.113c-0.19,0.524-0.52,0.997-0.766,1.502c-0.151,0.31-0.264,0.639-0.438,1.069
		c0.396,0.223,0.722,0.477,1.093,0.603c0.89,0.303,1.181,0.971,1.135,1.808c-0.03,0.555-0.187,1.104-0.306,1.651
		c-0.088,0.4-0.208,0.793-0.348,1.319c0.717,0.145,1.323,0.24,1.914,0.391c1.973,0.506,2.651,1.676,2.043,3.638
		c-0.247,0.798-0.658,1.546-0.991,2.31c0.043,0.14,0.043,0.31,0.128,0.395c1.39,1.397,1.415,1.517,0.576,3.258
		c-0.119,0.248-0.244,0.493-0.354,0.715c0.257,0.703,0.903,0.685,1.392,0.896c2.099,0.904,2.642,2.32,1.653,4.404
		c-0.18,0.379-0.408,0.735-0.655,1.176c0.107,0.228,0.178,0.507,0.344,0.708c0.475,0.575,0.425,1.163,0.119,1.772
		c-0.25,0.496-0.52,0.982-0.838,1.579c0.51,0.336,0.971,0.627,1.42,0.937c1.159,0.8,1.483,1.578,1.018,2.89
		c-0.227,0.641-0.667,1.221-1.083,1.774c-0.328,0.435-0.767,0.786-1.243,1.26c0.358,0.361,0.625,0.674,0.936,0.937
		c0.607,0.514,0.671,1.392,0.185,2.108c-0.429,0.632-0.88,1.248-1.4,1.983c0.469,0.352,0.832,0.649,1.219,0.91
		c1.484,0.998,1.731,2.115,0.751,3.556c-0.236,0.347-0.527,0.656-0.775,0.962c0.223,1.615,0.223,1.615-0.867,3.769
		c0.308,0.667,1.035,0.66,1.577,0.935c1.734,0.879,2.094,2.169,0.975,3.766c-0.281,0.4-0.658,0.731-0.979,1.105
		c-0.268,0.313-0.518,0.642-0.822,1.022c0.438,0.532,0.833,1.01,1.251,1.518c-0.008,0.988-0.529,1.722-1.12,2.431
		c-0.267,0.32-0.674,0.638-0.727,1c-0.179,1.219-1.038,1.96-1.761,2.731c-0.093,0.758,0.497,1.042,0.828,1.462
		c0.4,0.508,0.488,1.042,0.164,1.563c-0.366,0.59-0.761,1.198-1.271,1.655c-0.783,0.701-1.672,1.283-2.521,1.911
		c-0.333,0.246-0.676,0.478-1.133,0.8c0.438,0.62,0.837,1.167,1.217,1.727c0.404,0.595,0.351,1.164-0.061,1.759
		c-0.458,0.66-1.043,1.131-1.765,1.46c-0.627,0.285-1.246,0.588-1.973,0.933c0.375,0.744,0.707,1.346,0.986,1.972
		c0.277,0.621,0.142,1.056-0.363,1.504c-0.551,0.488-1.201,0.686-1.92,0.782c-0.894,0.12-1.777,0.318-2.815,0.51
		c0.228,0.731,0.409,1.307,0.575,1.84c-0.536,1.147-1.667,1.328-2.596,1.849c-0.079,0.169-0.251,0.362-0.236,0.539
		c0.066,0.773-0.319,1.198-1.004,1.398c-0.743,0.217-1.499,0.39-2.242,0.604c-0.263,0.076-0.507,0.214-0.881,0.376
		c0.117,0.701,0.255,1.372,0.336,2.05c0.077,0.644-0.166,1.143-0.781,1.339c-0.726,0.231-1.495,0.348-2.254,0.451
		c-0.891,0.121-1.827-0.122-2.758,0.324c-0.013,0.281-0.046,0.552-0.033,0.82c0.07,1.462-0.024,1.73-1.312,2.264
		c-0.698,0.29-1.482,0.408-2.24,0.507c-0.615,0.08-1.248,0.016-1.907,0.016c-0.204,0.393-0.355,0.701-0.522,1
		c-0.135,0.241-0.29,0.47-0.467,0.753c-0.496,0-0.983,0.048-1.457-0.007c-4.618-0.542-9.191-1.331-13.714-2.429
		c-1.936-0.47-3.928-0.327-5.886-0.125c-0.735,0.076-1.454,0.485-2.137,0.828c-0.408,0.205-0.54,0.664-0.359,1.102
		c0.187,0.452,0.444,0.876,0.688,1.302c0.139,0.244,0.322,0.463,0.469,0.703c1.114,1.822,0.871,2.425-1.182,2.931
		c-0.751,0.185-1.546,0.262-2.249,0.557c-1.188,0.499-2.33,0.394-3.511,0.06c-1.218-0.344-2.46-0.607-3.666-0.989
		c-1.07-0.339-2.131-0.736-3.148-1.209c-1.31-0.61-2.464-0.458-3.51,0.499c-0.463,0.424-0.924,0.873-1.286,1.382
		c-2.947,4.134-6.277,7.956-9.544,11.831c-6.731,7.983-14.268,15.192-21.76,22.432c-3.74,3.614-7.828,6.866-11.728,10.316
		c-0.889,0.786-1.653,1.713-2.474,2.576c-0.057,0.005-0.118-0.001-0.17,0.018c-0.039,0.015-0.066,0.062-0.098,0.095
		C227.241,286.919,227.323,286.872,227.405,286.825z"/>
</svg>
