<?xml version="1.0" encoding="utf-8"?>
<svg version="1.1" xmlns="http://www.w3.org/2000/svg" xmlns:xlink="http://www.w3.org/1999/xlink" xml:space="preserve" viewBox="358 42 194 352">
<path d="M375.627,278.094c0.316-0.709,0.598-1.341,0.844-1.895c-0.363-1.089-1.294-1.188-2.057-1.46
		c-1.273-0.455-2.121-1.293-2.761-2.462c-0.39-0.713-0.399-1.343,0.015-1.976c0.305-0.466,0.709-0.866,1.059-1.304
		c0.255-0.318,0.495-0.65,0.805-1.059c-0.354-0.34-0.609-0.677-0.944-0.889c-1.012-0.639-2.072-1.203-3.08-1.847
		c-0.949-0.607-1.884-1.251-2.361-2.462c0.191-0.517,0.405-1.094,0.66-1.782c-0.508-0.43-1.008-0.802-1.446-1.237
		c-0.746-0.741-1.501-1.483-2.159-2.299c-0.523-0.649-0.503-1.111,0.034-1.712c0.558-0.625,1.22-1.156,1.841-1.723
		c0.295-0.269,0.601-0.525,1.022-0.891c-1.654-1.366-3.593-2.307-4.172-4.395c0.266-1.056,1.275-1.35,1.82-2.045
		c0.109-0.55-0.353-0.741-0.63-1.022c-1.008-1.026-1.707-2.213-2.068-3.561c0.604-1.342,2.024-1.577,2.99-2.476
		c-0.136-0.481-0.29-0.937-0.391-1.404c-0.117-0.546-0.235-1.099-0.265-1.654c-0.037-0.68,0.255-1.223,0.882-1.562
		c0.606-0.327,1.201-0.674,1.822-1.024c-0.194-1.074-0.941-1.686-1.354-2.478c-0.453-0.868-1.061-1.719-1.249-2.649
		c-0.46-2.282-0.201-3.388,2.657-4.084c0.87-0.212,1.803-0.167,2.858-0.253c-0.086-0.396-0.104-0.729-0.229-1.015
		c-0.708-1.611-1.453-3.206-2.162-4.817c-0.43-0.978-0.641-2.005-0.585-3.085c0.043-0.839,0.37-1.514,1.101-1.925
		c0.609-0.342,1.261-0.61,1.9-0.896c0.438-0.196,0.888-0.365,1.251-0.514c0.377-0.882-0.152-1.479-0.337-2.131
		c-0.227-0.797-0.287-1.528,0.428-2.118c0.485-0.4,0.556-0.939,0.564-1.523c0.009-0.703-0.011-1.419,0.117-2.105
		c0.357-1.917,1.368-2.799,3.3-2.975c0.35-0.032,0.705-0.003,1.056-0.028c0.336-0.024,0.671-0.082,1.082-0.135
		c0-0.502,0.039-0.911-0.007-1.31c-0.21-1.847-0.022-3.665,0.456-5.444c0.622-2.315,1.493-3.418,4.695-2.962
		c1.229,0.175,2.405,0.753,3.589,1.19c0.458,0.169,0.863,0.477,1.31,0.683c1.564,0.723,2.121,0.566,3.226-0.83
		c0.348-0.439,0.693-0.902,1.122-1.252c1.003-0.82,2.153-1.051,3.357-0.502c0.635,0.289,1.225,0.686,1.809,1.074
		c0.349,0.232,0.639,0.552,0.97,0.815c1.638,1.305,2.064,1.331,3.955,0.283c0.181-0.1,0.389-0.151,0.639-0.245
		c1.441,0.413,2.627,1.246,3.579,2.425c0.398,0.493,0.761,1.014,1.143,1.519c0.486,0.643,1.115,1.172,1.91,1.216
		c1.657,0.092,2.411,1.292,3.219,2.433c0.279,0.394,0.474,0.872,0.611,1.34c0.707,2.402,2.107,4.446,3.359,6.564
		c0.393,0.666,0.807,1.332,1.3,1.923c0.535,0.641,1.103,1.301,1.783,1.766c1.394,0.953,2.848,1.825,4.323,2.647
		c1.433,0.799,2.984,1.269,4.654,1.162c0.486-0.031,0.98-0.116,1.444-0.258c0.576-0.176,0.927-0.619,1.081-1.202
		c0.054-0.203,0.099-0.415,0.103-0.624c0.072-3.444-0.342-6.757-2.579-9.583c-0.918-1.16-1.822-2.33-2.72-3.506
		c-0.697-0.913-1.558-1.656-2.57-2.159c-3.336-1.657-5.91-4.289-8.687-6.665c-1.174-1.005-2.362-1.997-3.588-2.936
		c-1.125-0.861-2.219-1.739-3.011-2.932c-0.152-0.229-0.243-0.5-0.342-0.708c0.14-1.175,1.351-1.451,1.856-2.454
		c-0.177-0.299-0.353-0.665-0.591-0.984c-0.59-0.79-1.242-1.535-1.805-2.342c-0.4-0.573-0.719-1.206-1.033-1.834
		c-0.425-0.85-0.592-1.727,0.026-2.603c-0.412-0.498-0.836-0.887-1.104-1.364c-0.303-0.538-0.533-1.139-0.673-1.741
		c-0.133-0.573,0.057-1.103,0.584-1.478c0.567-0.402,1.108-0.839,1.749-1.329c-0.253-0.455-0.392-0.849-0.651-1.135
		c-0.375-0.415-0.868-0.722-1.252-1.131c-0.43-0.457-0.861-0.937-1.171-1.476c-0.481-0.837-0.302-1.463,0.488-1.987
		c0.638-0.423,1.306-0.799,2.04-1.244c-0.122-0.537-0.191-1.012-0.343-1.459c-0.158-0.465-0.44-0.888-0.59-1.354
		c-0.68-2.1-0.394-2.485,1.159-3.242c0.308-0.15,0.591-0.352,0.925-0.554c-0.152-1.328-0.646-2.497-0.983-3.705
		c-0.228-0.817-0.4-1.62-0.126-2.487c0.256-0.81,0.686-1.363,1.515-1.596c0.736-0.207,1.465-0.439,2.29-0.689
		c-0.027-0.554-0.014-1.033-0.079-1.5c-0.175-1.255-0.47-2.498-0.561-3.757c-0.216-3.001,0.767-4.134,3.749-4.446
		c0.699-0.073,1.409-0.034,2.11-0.097c0.895-0.081,1.241-0.451,1.221-1.382c-0.017-0.771-0.168-1.538-0.218-2.31
		c-0.079-1.192-0.154-2.385-0.165-3.579c-0.004-0.482,0.127-0.976,0.266-1.445c0.328-1.111,1.05-1.806,2.227-1.979
		c0.696-0.103,1.395-0.194,2.085-0.331c0.545-0.108,0.864-0.487,0.89-1.036c0.03-0.631-0.052-1.27,0.003-1.898
		c0.085-0.976,0.156-1.968,0.393-2.912c0.302-1.2,1.133-1.976,2.411-2.019c2.779-0.096,2.649-0.843,2.655-2.955
		c0.006-2.037,0.887-2.889,2.949-3.123c0.209-0.024,0.422-0.018,0.633-0.023c0.978-0.024,1.506-0.29,1.566-1.53
		c0.027-0.553,0.157-1.121,0.348-1.642c0.387-1.054,1.016-1.863,2.297-1.822c0.14,0.005,0.281-0.023,0.421-0.033
		c1.02-0.075,1.701-0.556,2.013-1.567c0.186-0.603,0.403-1.214,0.719-1.755c0.703-1.203,1.662-2.024,3.157-2.18
		c2.144-0.224,2.377-0.56,2.302-2.657c-0.025-0.702-0.117-1.413-0.042-2.106c0.201-1.856,1.221-2.879,3.077-3.206
		c0.345-0.061,0.69-0.121,1.033-0.19c0.066-0.013,0.123-0.066,0.318-0.176c0.097-0.358,0.229-0.817,0.345-1.28
		c0.17-0.682,0.26-1.393,0.504-2.046c0.472-1.257,1.623-1.989,2.965-1.955c0.419,0.01,0.851,0.053,1.252,0.169
		c1.242,0.359,1.996-0.145,2.56-1.238c0.581-1.125,1.318-2.169,1.9-3.293c0.688-1.327,1.645-2.29,3.133-2.604
		c0.881-0.186,1.326-0.718,1.5-1.556c0.129-0.62,0.243-1.246,0.421-1.854c0.478-1.639,1.282-2.965,3.165-3.279
		c1.011-0.168,1.454-0.86,1.796-1.827c2.032-5.743,3.073-11.701,4.041-17.683c0.247-1.526,0.618-3.035,1.002-4.534
		c0.41-1.602,1.313-2.947,2.399-4.171c0.073-0.082,0.247-0.074,0.523-0.148c0.461,1.157,0.829,2.347,0.897,3.62
		c0.105,1.969,0.202,3.938,0.29,5.907c0.022,0.492,0.058,0.994-0.013,1.477c-0.462,3.155-0.272,6.332-0.262,9.495
		c0.007,2.173,0.345,4.346,0.542,6.518c0.095,1.051,0.19,2.102,0.32,3.149c0.059,0.473,0.203,0.934,0.333,1.512
		c0.558-0.027,1.031-0.024,1.498-0.078c0.637-0.074,1.16,0.167,1.423,0.697c0.338,0.681,0.584,1.419,0.779,2.156
		c0.157,0.595,0.179,1.225,0.269,1.906c0.526,0.047,0.935,0.129,1.34,0.109c0.918-0.044,1.508,0.434,1.769,1.222
		c0.285,0.859,0.477,1.762,0.588,2.661c0.1,0.809,0.411,1.344,1.239,1.458c1.859,0.255,2.287,1.611,2.512,3.165
		c0.301,2.081,0.634,4.158,0.975,6.375c0.546-0.114,0.935-0.181,1.317-0.28c0.613-0.158,1.212-0.385,1.833-0.498
		c1.609-0.293,2.793,0.143,3.602,2.157c0.328,0.818,0.287,1.789,0.382,2.694c0.079,0.755-0.184,1.546,0.211,2.244
		c0.634,0.547,1.375,0.387,2.056,0.382c1.167-0.008,1.829,0.594,2.208,1.61c0.324,0.871,0.398,1.763,0.321,2.699
		c-0.092,1.119-0.083,2.249-0.066,3.373c0.005,0.32,0.19,0.638,0.323,1.051c0.556-0.044,1.034-0.099,1.513-0.116
		c2.122-0.074,3.135,0.943,3.043,3.1c-0.059,1.384-0.516,2.753-0.825,4.122c-0.12,0.533-0.324,1.047-0.534,1.708
		c0.491,0,0.823,0.011,1.156-0.002c0.983-0.038,1.971-0.168,2.948-0.111c1.691,0.099,2.598,0.864,3.036,2.448
		c0.278,1.007,0.296,2.068,0.819,3.034c0.195,0.36-0.035,0.952-0.08,1.438c-0.062,0.677-0.606,1.293-0.233,2.131
		c0.373,0,0.774,0.01,1.174-0.002c0.84-0.025,1.69-0.158,2.517-0.07c1.324,0.142,2.162,0.926,2.454,2.26
		c0.291,1.33,0.268,2.647-0.006,3.982c-0.137,0.666-0.53,1.323-0.173,2.189c0.289,0,0.621,0.007,0.952-0.001
		c0.843-0.022,1.692-0.129,2.527-0.059c1.418,0.118,2.042,0.693,2.176,2.116c0.077,0.819-0.076,1.675-0.227,2.495
		c-0.125,0.675-0.401,1.321-0.655,2.122c0.424,0.135,0.73,0.307,1.041,0.316c0.56,0.017,1.122-0.072,1.684-0.102
		c1.331-0.07,1.815,0.29,1.872,1.657c0.046,1.108-0.107,2.225-0.18,3.47c0.329,0.144,0.688,0.338,1.07,0.461
		c0.599,0.194,1.245,0.271,1.816,0.523c1.248,0.549,1.689,1.383,1.427,2.711c-0.121,0.613-0.4,1.197-0.633,1.784
		c-0.414,1.047-0.865,2.081-1.261,3.134c-0.114,0.302-0.095,0.655-0.157,1.14c0.547-0.03,0.949-0.079,1.349-0.069
		c0.628,0.014,1.274-0.019,1.877,0.121c1.568,0.365,2.365,1.49,2.245,3.084c-0.041,0.55-0.166,1.095-0.263,1.706
		c0.429,0.212,0.803,0.389,1.169,0.58c1.011,0.527,1.378,1.134,1.11,2.207c-0.202,0.81-0.602,1.57-0.917,2.351
		c-0.256,0.634-0.793,1.171-0.674,2.086c0.437,0.074,0.896,0.148,1.353,0.229c1.034,0.185,2.076,0.34,3.099,0.571
		c0.869,0.196,1.215,0.864,1.354,1.696c0.171,1.02-0.081,1.967-0.478,2.876c-0.337,0.773-0.768,1.504-1.146,2.26
		c-0.18,0.359-0.332,0.732-0.556,1.229c0.47,0.129,0.791,0.215,1.11,0.305c0.541,0.151,1.1,0.257,1.619,0.465
		c1.121,0.45,1.383,0.864,1.327,2.11c-0.028,0.625-0.166,1.244-0.252,1.847c1.209,1.611,1.304,2.227,0.546,4.063
		c-0.241,0.583-0.583,1.124-0.855,1.696c-0.204,0.43-0.369,0.879-0.528,1.265c0.508,0.67,1.185,0.655,1.776,0.839
		c2.391,0.744,2.808,1.719,1.565,3.905c-0.519,0.912-1.204,1.729-1.808,2.594c-0.23,0.329-0.443,0.67-0.758,1.148
		c0.794,0.269,1.451,0.459,2.082,0.712c2.011,0.805,2.38,1.438,1.911,3.546c-0.181,0.813-0.507,1.62-0.908,2.352
		c-0.608,1.109-1.342,2.148-2.016,3.22c-0.213,0.339-0.409,0.688-0.683,1.153c0.753,0.343,1.399,0.589,1.997,0.921
		c1.254,0.695,1.265,1.201,1.021,2.218c-0.255,1.063-0.713,1.953-1.452,2.758c-0.942,1.026-1.899,2.052-2.774,3.361
		c0.413,0.176,0.706,0.32,1.013,0.425c0.332,0.114,0.685,0.168,1.015,0.287c2.548,0.913,2.727,1.852,1.647,4.176
		c-0.455,0.98-1.364,1.749-2.135,2.7c0.136,0.141,0.292,0.382,0.512,0.519c1.213,0.754,0.918,1.679,0.357,2.529
		c-0.497,0.752-1.047,1.468-1.535,2.146c0.422,0.866,1.202,0.95,1.78,1.314c1.763,1.109,1.926,1.465,1.319,3.685
		c-0.212,0.775-0.788,1.492-1.328,2.124c-0.867,1.015-1.845,1.935-2.77,2.901c-0.234,0.244-0.446,0.508-0.684,0.782
		c0.403,0.676,1.072,0.775,1.611,1.053c2.073,1.067,2.574,1.889,0.784,4.322c-0.532,0.724-1.317,1.263-1.986,1.886
		c-0.255,0.237-0.509,0.474-0.879,0.818c0.384,0.37,0.692,0.721,1.053,1.003c0.728,0.569,1.436,1.14,1.708,2.189
		c-0.388,1.034-1.147,1.828-2.056,2.516c-1.46,1.104-2.915,2.216-4.358,3.342c-0.431,0.336-0.816,0.729-1.322,1.186
		c1.039,1.147,2.529,1.79,2.923,3.475c-0.412,1.24-1.282,2.195-2.556,2.781c-1.407,0.647-2.827,1.268-4.243,1.897
		c-0.446,0.198-0.896,0.385-1.316,0.565c-0.15,0.806,0.494,1.026,0.853,1.4c1.654,1.722,1.644,2.285-0.088,4.001
		c-0.857,0.85-1.785,1.579-2.876,2.119c-1.135,0.561-2.232,1.198-3.343,1.806c-0.058,0.032-0.096,0.102-0.244,0.265
		c0.258,0.977,0.538,2.039,0.829,3.14c-0.793,0.823-1.602,1.464-2.615,1.819c-1.925,0.676-3.853,1.345-5.783,2.007
		c-0.657,0.226-1.324,0.425-2.132,0.682c0.24,0.752,0.464,1.392,0.648,2.044c0.211,0.751,0.012,1.184-0.634,1.605
		c-0.759,0.495-1.598,0.445-2.448,0.445c-2.181,0.001-4.363,0.004-6.543,0.079c-0.837,0.029-1.68,0.203-2.495,0.41
		c-0.444,0.113-0.836,0.432-1.363,0.72c0.257,0.533,0.424,0.98,0.674,1.374c0.49,0.773,1.04,1.506,1.538,2.274
		c0.473,0.731,0.385,1.461-0.064,2.184c-0.497,0.802-1.17,1.407-2.009,1.819c-0.629,0.309-1.281,0.571-1.923,0.855
		c-0.097,0.21-0.249,0.393-0.259,0.584c-0.042,0.768-0.52,1.122-1.181,1.296c-0.736,0.194-1.48,0.352-2.095,0.497
		c-0.49,0.775-0.173,1.388-0.045,1.989c0.226,1.062-0.205,1.74-1.109,2.254c-1.026,0.584-2.104,0.782-3.256,0.616
		c-0.759-0.109-1.469-0.27-2.225,0.2c-0.632,0.393-1.368,0.055-2.043-0.156c-1.073-0.335-2.148-0.664-3.225-0.983
		c-0.269-0.079-0.551-0.115-0.829-0.162c-0.696-0.116-1.31,0.015-1.512,0.778c-0.285,1.078-1.083,1.257-1.967,1.105
		c-0.894-0.154-1.771-0.446-2.633-0.743c-1.06-0.367-2.049-0.846-3.24-0.29c-0.424,0.198-1.104-0.031-1.627-0.194
		c-1.68-0.521-3.323-1.172-5.017-1.639c-1.349-0.371-2.746-0.715-4.133-0.767c-1.919-0.072-3.776-0.365-5.626-0.824
		c-0.887-0.22-1.785-0.425-2.69-0.538c-1.24-0.154-1.888,0.18-2.35,1.314c-0.285,0.699-0.44,1.492-0.462,2.248
		c-0.049,1.688-0.091,3.391,0.067,5.068c0.391,4.134,0.837,8.265,1.37,12.383c0.768,5.934,1.583,11.863,2.471,17.78
		c0.689,4.595,1.468,9.178,2.3,13.75c1.059,5.819,2.205,11.623,3.325,17.431c0.535,2.777,0.817,5.574,0.732,8.402
		c-0.019,0.632-0.038,1.275-0.168,1.889c-0.27,1.27-1.038,1.974-2.314,2.101c-0.694,0.069-1.408,0.038-2.103-0.041
		c-0.757-0.086-1.055-0.607-0.841-1.379c0.112-0.404,0.26-0.809,0.465-1.173c0.79-1.404,0.948-2.844,0.776-4.47
		c-0.519-4.91-1.556-9.729-2.327-14.594c-0.871-5.491-1.638-10.999-2.448-16.499c-0.062-0.418-0.091-0.84-0.157-1.258
		c-0.469-2.989-0.973-5.973-1.409-8.967c-0.477-3.273-0.888-6.556-1.336-9.833c-0.524-3.835-1.086-7.665-1.576-11.504
		c-0.267-2.093-0.392-4.205-0.633-6.302c-0.192-1.671-0.331-3.348-1.187-4.886c-0.509-0.914-1.193-1.309-2.18-1.397
		c-1.712-0.152-3.378,0.143-5.019,0.534c-2.603,0.62-5.217,1.222-7.768,2.02c-3.279,1.026-6.125,2.827-8.442,5.398
		c-0.618,0.685-1.233,1.348-2.101,1.727c-1.151,0.502-1.46,0.41-2.195-0.716c-0.076-0.117-0.162-0.228-0.251-0.335
		c-0.044-0.053-0.107-0.09-0.331-0.273c-0.812,0.063-1.787,0.116-2.756,0.221c-1.094,0.119-2.102-0.077-3.022-0.687
		c-0.382-0.253-0.584-0.618-0.545-1.073c0.053-0.621,0.145-1.239,0.21-1.78c-0.674-0.775-1.55-0.913-2.3-1.275
		c-1.16-0.561-2.167-1.284-2.969-2.313c-0.553-0.71-0.604-1.417-0.174-2.151c0.317-0.541,0.715-1.036,1.092-1.541
		c0.244-0.326,0.515-0.632,0.832-1.018c-0.732-0.696-1.384-1.321-2.042-1.941c-0.677-0.639-1.185-1.384-1.525-2.255
		c-0.31-0.796-0.295-1.542,0.352-2.141c0.667-0.617,1.375-1.197,2.106-1.738c0.506-0.374,1.133-0.606,1.388-1.243
		c0.323-0.808,1.007-1.15,1.765-1.375c0.674-0.2,1.362-0.35,2.048-0.508c1.575-0.365,3.153-0.718,4.728-1.085
		c0.273-0.064,0.54-0.163,0.8-0.269c1.58-0.64,2.042-1.967,1.074-3.375c-0.384-0.559-0.965-1.028-1.545-1.397
		c-1.953-1.243-4.171-1.715-6.433-1.836c-2.248-0.12-4.507-0.075-6.76-0.028c-1.354,0.028-2.629,0.467-3.827,1.096
		c-2.118,1.112-4.239,2.221-6.338,3.367c-1.13,0.617-2.311,1.044-3.585,1.192c-1.13,0.132-1.546-0.174-1.812-1.252
		c-0.034-0.136-0.038-0.28-0.07-0.417c-0.299-1.271-0.495-1.455-1.824-1.608c-0.979-0.112-1.966-0.167-2.943-0.293
		c-0.907-0.116-1.815-0.252-2.707-0.45c-1.253-0.279-2.385-0.821-3.408-1.809c0.102-0.657,0.219-1.34,0.31-2.025
		c0.085-0.633-0.184-1.116-0.75-1.379c-0.573-0.266-1.178-0.46-1.766-0.693C376.99,279.721,376.19,279.181,375.627,278.094z"/>
</svg>
