<?xml version="1.0" encoding="utf-8"?>
<svg version="1.1" xmlns="http://www.w3.org/2000/svg" xmlns:xlink="http://www.w3.org/1999/xlink" xml:space="preserve" viewBox="373 354 82 100">
<path d="M449.878,420.415c0.808,0.572,0.392,1.602-0.013,2.298c-0.402,0.776-0.802,1.553-1.214,2.323
		c-1.622,2.984-3.093,6.054-4.94,8.91c-1.858,2.847-4.187,5.358-6.678,7.661c-2.983,2.705-6.422,4.965-10.111,6.581
		c-3.743,1.45-7.837,1.808-11.824,1.748c-5.386,0.082-10.244-1.902-14.63-4.91c-5.441-4.039-12.243-7.51-19.114-5.173
		c-0.01,0.003-0.02,0.007-0.03,0.01c-0.344,0.828-0.647,1.672-0.892,2.534c-0.188,0.763-0.145,1.9-1.217,1.842
		c-1.777-0.271-0.172-3.239,0.02-4.496c-0.016-0.03-0.03-0.061-0.042-0.093c-0.169-0.421,0-0.847,0.305-1.143
		c0-0.001,0.001-0.001,0.001-0.001c1.182-5.001,2.848-9.885,3.791-14.943c0.728-4.426,1.164-8.949,0.796-13.432
		c-0.3-2.958-0.887-5.892-0.939-8.874c-0.136-10.257,5.02-17.258,11.347-24.717c4.548-5.179,9.577-10.004,15.083-14.157
		c1.345-0.957,2.702-1.895,4.047-2.85c0.674-0.414,1.297-1.146,2.154-1.03c1.795,0.437,1.837,3.556,2.202,5.048
		c0.543,3.367,1.085,6.733,1.679,10.091c0.822,5.499,2.476,11.249,0.809,16.739c-1.17,3.526-2.639,6.973-4.397,10.246
		c-2.517,4.558-6.502,8.026-10.124,11.68c-4.707,4.859-9.972,9.124-14.721,13.937c-2.326,2.423-4.856,4.711-6.661,7.57
		c-0.252,0.404-0.502,0.812-0.747,1.222c0.996-0.786,1.996-1.565,3.018-2.314c5.578-4.151,12.368-5.981,19.067-7.409
		c5.248-1.175,10.505-2.332,15.792-3.313c7.214-1.026,14.49-1.76,21.778-1.864c1.125-0.007,2.249,0.003,3.374-0.035
		C447.849,420.114,448.97,419.901,449.878,420.415z"/>
</svg>
