<?xml version="1.0" encoding="utf-8"?>
<svg version="1.1" xmlns="http://www.w3.org/2000/svg" xmlns:xlink="http://www.w3.org/1999/xlink" xml:space="preserve" viewBox="30 181 125 144">
<path d="M150.522,249.673c0.143,0.921-0.107,1.879-0.201,2.798c-0.34,2.212-0.81,4.408-1.49,6.542
		c-1.062,3.724-3.764,6.586-6.435,9.26c-1.699,1.702-3.294,3.52-5.149,5.057c-2.306,1.874-4.918,3.355-7.639,4.535
		c-2.163,0.922-4.396,1.695-6.682,2.25c-3.017,0.873-6.356,0.886-9.1,2.53c-5.946,3.583-6.629,10.758-5.49,17.008
		c1.019,5.413,2.693,10.701,5.182,15.622c0.549,1.189,1.114,2.371,1.706,3.539c0.176,0.37,0.397,0.736,0.434,1.15
		c0.028,0.516-0.433,0.986-0.956,0.919c-0.405-0.061-0.67-0.383-0.898-0.696c-0.595-0.78-1.124-1.606-1.687-2.408
		c-1.185-1.729-2.265-3.535-3.192-5.416c-1.129-2.264-2.228-4.552-3.081-6.937c-0.283-0.144-0.418-0.46-0.473-0.78
		c-0.159-0.591-0.327-1.178-0.485-1.769c-0.635-2.387-1.021-4.836-1.832-7.175c-0.953-3.08-2.713-5.821-4.293-8.608
		c-2-3.33-4.818-5.526-8.876-4.812c-2.401,0.838-4.631,2.158-6.448,3.947c-3.81,3.425-6.473,8.121-10.648,11.112
		c-3.835,2.185-8.498,0.785-12.486-0.249c-1.622-0.351-1.763-1.167-0.514-2.27c1.759-1.911,3.724-3.606,5.873-5.066
		c1.511-1.003,2.738-2.325,3.956-3.653c0.913-0.976,1.826-1.956,2.599-3.049c2.639-4.256,5.57-7.762,10.375-9.608
		c4.443-2.24,8.649-1.312,12.184,2.073c1.255,1.114,2.344,2.393,3.359,3.725c0.316,0.404,0.635,0.806,0.949,1.212
		c-0.034-0.07-0.068-0.141-0.102-0.213c-0.894-1.845-1.665-3.765-2.464-5.64c-0.004-0.063,0.004-0.123,0.022-0.18
		c-0.163-0.358-0.325-0.715-0.482-1.076c-0.455-1.09-0.91-2.18-1.396-3.257c-0.194-0.156-0.361-0.364-0.564-0.498
		c-1.708-1.285-3.442-2.54-5.238-3.7c-1.6-1.079-3.462-1.615-5.309-2.096c-2.493-0.726-5.036-1.282-7.626-1.519
		c-1.889-0.172-3.788-0.194-5.679-0.343c-9.019-0.638-13.889-3.515-19.824-10.197c-3.174-3.447-4.824-7.898-6.616-12.149
		c-2.332-5.429-4.207-11.325-8.341-15.703c-0.311-0.407-0.982-0.56-1.005-1.133c0.012-0.367,0.352-0.644,0.707-0.646
		c0.278-0.001,0.482,0.178,0.701,0.326c0.337,0.225,0.679,0.444,1.021,0.66c4.527,2.644,8.978,5.492,12.809,9.1
		c2.099,1.924,4.184,3.869,6.166,5.913c2.808,2.985,5.527,6.073,8.578,8.812c3.255,2.665,6.967,4.745,10.845,6.362
		c3.895,1.745,7.796,3.568,11.208,6.162c-0.155-0.193-0.283-0.424-0.422-0.615c-0.431-0.678-0.782-1.418-1.035-2.186
		c-1.951-2.011-4.002-3.923-6.198-5.663c-2.174-1.738-4.824-2.79-6.863-4.704c-3.446-2.978-6.131-6.695-9.139-10.09
		c-4.052-4.633-6.787-10.216-9.05-15.897c-2.205-5.023-2.686-10.47-2.723-15.895c-0.132-5.194-0.604-10.46-2.415-15.368
		c-0.377-0.918-0.768-1.867-1.493-2.566c-0.101-0.161-0.118-0.364-0.032-0.536c0.142-0.282,0.456-0.363,0.744-0.318
		c0.132-0.104,0.299-0.17,0.473-0.176c0.621-0.024,0.908,0.622,1.244,1.039c2.512,4.013,5.353,7.81,7.755,11.892
		c2.217,3.78,4.2,7.699,6.126,11.635c2.082,4.751,3.078,9.921,3.795,15.036c1.177,7.63,2.46,17.478,9.238,22.251
		c0.318,0.095,0.495,0.333,0.504,0.558c0.464,0.281,0.925,0.565,1.373,0.868c0.607,0.408,1.197,0.841,1.772,1.292
		c-1.424-3.09-2.089-6.563-2.529-9.913c-0.218-3.998-0.533-8.292,1.243-12.001c1.38-2.723,3.634-4.866,5.311-7.398
		c1.617-2.391,3.057-4.931,4.021-7.66c1.192-3.194,1.861-6.548,2.755-9.828c0.203-0.823,1.209-1.055,1.61-0.2
		c0.552,1.937,0.489,4.01,0.74,6.003c0.183,1.948,0.369,3.894,0.66,5.829c0.744,4.76,1.822,9.667,0.567,14.438
		c-1.207,4.583-3.574,8.743-5.634,12.98c-1.194,2.4-2.059,4.96-2.427,7.621c-0.304,1.936-0.463,4.029,0.025,5.934
		c2.947,2.979,5.701,6.156,7.917,9.718c2.937,5.385,5.384,11.046,7.33,16.873c-0.004-0.43-0.006-0.859-0.006-1.29
		c-0.379-3.289-0.776-6.576-1.23-9.856c-0.771-5.782-2.323-11.425-3.199-17.189c-0.997-5.941,0.119-10.831,1.969-16.448
		c1.633-5.192,3.763-10.203,5.692-15.286c0.386-1.066,0.773-2.132,1.163-3.197c0.152-0.367,0.218-0.791,0.525-1.066
		c0.346-0.31,0.879-0.393,1.29-0.16c1.187,0.697,0.811,3.259,0.876,4.483c-0.096,2.724-0.408,5.437-0.511,8.162
		c-0.165,4.025-0.132,8.075-0.885,12.049c-0.733,4.681-1.884,9.291-2.563,13.977c1.107-3.534,2.609-6.879,4.656-9.843
		c4.333-6.161,9.909-11.518,16.45-15.286c2.85-1.595,5.716-3.209,8.282-5.239c0.602-0.482,1.149-1.024,1.71-1.552
		c0.311-0.31,0.713-0.576,1.171-0.516c1.521,0.27,0.499,2.281,0.458,3.276c-0.342,1.889-0.706,3.773-1.089,5.652
		c-0.863,4.531-2.249,9.074-5.033,12.816c-2.557,3.383-5.819,6.207-9.443,8.398c-4.752,2.914-12.609,6.584-14.841,11.881
		c-1.197,3.146-1.812,6.501-2.238,9.83c-0.389,3.65-0.251,7.335-0.083,10.994c0.078,1.379,0.247,2.752,0.397,4.125
		c0.014,0.113,0.054,0.231,0.044,0.345c-0.025,0.314-0.321,0.49-0.61,0.487c-0.105-0.007-0.192-0.036-0.262-0.078
		c0.201,0.852,0.392,1.706,0.573,2.562c0.018,0.083,0.034,0.16,0.05,0.244c0.042,0.204,0.017,0.188,0.107-0.098
		c0.86-2.605,1.082-5.375,2.096-7.937c1.05-2.778,2.184-5.548,3.634-8.145c1.377-2.462,3.151-4.671,5.072-6.728
		c0.923-1.015,1.849-2.033,2.828-2.991c1.934-1.905,4.206-3.414,6.514-4.824c3.437-2.119,7.145-3.793,11.041-4.867
		c2.79-0.795,5.426-2.136,7.823-3.76c1.967-1.384,3.443-3.323,4.578-5.424c0.21-0.346,0.486-0.696,0.91-0.768
		C150.037,249.064,150.412,249.311,150.522,249.673z M108.225,306.358c-0.927-3.317-1.713-6.708-1.895-10.157
		c0-0.016-0.005-0.256-0.008-0.256c-0.313,0.145-0.703,0.081-0.964-0.144c-0.092-0.075-0.09-0.117-0.061,0.007
		C106.067,299.374,106.787,302.988,108.225,306.358z M92.109,265.351c0.052,0.059,0.105,0.118,0.158,0.177
		c-0.784-1.274-1.692-2.467-2.678-3.59c-0.626-0.758-1.321-1.474-1.96-2.228c-0.132,0.091-0.297,0.139-0.482,0.122
		c-0.072-0.005-0.139-0.021-0.201-0.044c0.015,0.012,0.029,0.023,0.044,0.034C88.909,261.45,90.355,263.553,92.109,265.351z"/>
</svg>
