<?xml version="1.0" encoding="utf-8"?>
<svg version="1.1" xmlns="http://www.w3.org/2000/svg" xmlns:xlink="http://www.w3.org/1999/xlink" xml:space="preserve" viewBox="303 44 86 115">
<path d="M376.669,129.866c0.97-0.787,1.782-1.745,2.671-2.619c3.007-2.784,5.616-6.088,3.435-10.27
		c-0.89-2.227-3.064-4.824-5.685-3.484c-3.06,1.446-5.162,4.387-6.301,7.504c-1.478,3.901-2.091,8.043-2.116,12.196
		c-2.25-4.018-4.532-8.017-6.657-12.101c-1.634-3.141-3.098-6.364-4.478-9.623c-0.016-0.132-0.053-0.274-0.108-0.419
		c-0.155-0.627-0.284-1.266-0.373-1.903c-0.012-0.029-0.001-0.05,0.031-0.063c0.159-0.176,0.121-0.41,0.043-0.612
		c-0.077-0.387-0.103-0.784-0.14-1.176c-0.143-1.515,0.046-3.038,0.044-4.558c0.027-0.858,0.042-1.714,0.113-2.569
		c0.112-0.774,0.052-1.672,0.575-2.307c0.722-0.702,1.53-1.319,2.347-1.906c2.946-2.106,5.901-4.197,8.893-6.235
		c1.471-1.089,2.911-2.22,4.433-3.235c2.2-1.513,4.475-3.073,6.073-5.247c2.884-3.509,3.996-9.014,0.543-12.53
		c-2.492-2.371-5.894-0.405-8.424,0.886c-3.355,1.866-5.636,5.064-7.967,8.022c-4.54,5.425-4.47,7.189-6.246,13.7
		c-0.516,2.016-1.335,3.958-1.656,6.022c-0.541,2.702-0.555,5.46-0.531,8.208c-0.003,0.079-0.006,0.157-0.007,0.236
		c-2.177-5.432-4.036-10.991-5.424-16.683c-0.209-0.791-0.409-1.59-0.584-2.394c0.144-0.072,0.255-0.197,0.272-0.367
		c-0.007-0.176-0.065-0.351-0.087-0.528c-0.105-0.741-0.466-1.44-0.603-2.156c0.206-1.506,0.273-3.036,0.719-4.495
		c0.576-1.815,1.47-3.507,2.202-5.26c1.01-2.5,1.863-5.098,2.104-7.797c0.215-3.384-0.288-6.893-1.618-10.023
		c-0.823-1.727-1.747-3.467-3.149-4.801c-1.905-1.731-4.847-2.381-7.311-1.66c-1.545,0.567-2.874,1.695-3.785,3.054
		c-2.015,3.019-0.715,9.107,0.148,12.487c1.067,3.48,2.501,6.88,4.255,10.072c1.529,2.631,3.399,5.062,4.775,7.781
		c0.122,0.17,0.13,0.355,0.082,0.554c-0.032,0.638-0.25,1.308-0.129,1.934c0.122,0.258,0.4,0.396,0.682,0.409
		c0.211,1.355,0.552,2.691,0.836,4.032c0.617,3.044,1.429,6.038,2.37,8.995c-1.757-2.056-3.528-4.099-5.537-5.917
		c-2.272-2.062-3.794-4.768-5.404-7.342c-1.415-2.462-3.371-4.531-5.091-6.771c-1.441-2.059-3.308-3.717-5.218-5.324
		c-0.863-0.753-1.699-1.546-2.662-2.169c-2.704-1.704-5.809-2.524-8.839-3.421c-2.071-0.722-4.15-1.857-6.414-1.464
		c-2.7,0.431-4.578,1.346-4.434,4.4c0.047,3.246,1.359,5.991,3.527,8.354c2.75,3.283,6.118,6.375,10.365,7.463
		c1.981,0.476,4.02,0.718,5.96,1.364c3.516,1.089,6.881,2.597,10.368,3.755c1.495,0.48,3.072,0.606,4.564,1.086
		c0.682,0.178,1.261,0.737,1.963,0.796c1.864,1.723,3.683,3.505,5.367,5.409c0.794,0.884,1.616,1.743,2.425,2.611
		c0.778,2.245,1.616,4.47,2.488,6.679c2.772,7.347,6.289,14.359,10.183,21.163c-1.024-0.551-2.008-1.179-2.98-1.82
		c-1.608-1.078-3.315-1.998-4.975-2.987c-1.029-0.883-1.704-2.109-2.493-3.198c-1.37-2.106-3.141-3.897-4.821-5.749
		c-1.431-1.65-3.076-3.068-4.955-4.188c-1.491-0.971-3.056-1.85-4.764-2.374c-3.447-1.266-7.592-1.264-10.026,1.878
		c-1.147,1.472-1.162,3.412-0.638,5.131c0.312,1.259,0.805,2.476,1.614,3.499c2.442,3.187,5.672,4.586,9.463,5.53
		c3.35,0.94,6.838,1.24,10.304,1.347c2.3-0.003,4.663-0.069,6.925,0.014c2.056,1.093,4.016,2.355,6.048,3.49
		c0.734,0.38,1.496,0.718,2.248,1.067c0.412,0.708,0.829,1.412,1.249,2.114c0.632,1.066,1.248,2.141,1.854,3.221
		c-0.011,0.3,0.045,0.576,0.369,0.66c1.739,3.114,3.421,6.261,5.24,9.329c1.043,1.659,2.243,3.218,3.411,4.793
		c0.98,1.313,1.919,2.666,3.046,3.861c0.425,0.511,1.272-0.062,1.031-0.642c-0.836-1.111-1.686-2.229-2.487-3.373
		c-1.981-2.691-3.857-5.463-5.368-8.448c-1.226-2.418-2.514-4.8-3.828-7.17c1.255-1.084,2.396-2.32,3.688-3.372
		C374.673,131.416,375.667,130.637,376.669,129.866z"/>
</svg>
