<?xml version="1.0" encoding="utf-8"?>
<svg version="1.1" xmlns="http://www.w3.org/2000/svg" xmlns:xlink="http://www.w3.org/1999/xlink" xml:space="preserve" viewBox="275 353 87 102">
<path d="M281.501,373.016c-2.23-0.71-1.645,2.599-1.746,3.88c0.073,4.69-0.187,9.432,0.624,14.07
		c2.074,10.695,11.354,17.653,18.586,25.019c4.327,4.205,7.398,9.378,6.622,15.424c-0.931,0.909-1.859,1.817-2.769,2.737
		c-1.982,2.029-3.937,4.084-5.879,6.152c-1.71,1.854-3.221,3.875-4.912,5.747c-0.571,0.641-1.141,1.281-1.666,1.961
		c-0.379,0.551-1.017,1.149-0.733,1.868c0.22,0.539,0.918,0.72,1.402,0.436c3.071-2.296,5.583-5.212,8.208-7.983
		c3.032-3.076,5.971-6.238,8.853-9.456c0.701-0.812,1.402-1.626,2.097-2.447c2.353-1.132,4.953-1.761,7.534-2.063
		c4.303-0.464,8.566-1.229,12.857-1.785c6.66-0.712,12.997-3.457,17.973-7.958c2.868-2.372,5.36-5.168,7.145-8.449
		c1.597-2.557,1.623-3.922-1.836-3.913c-3.369-0.212-6.786-0.473-10.139,0.047c-6.793,1.154-10.984,7.285-16.157,11.239
		c-3.989,3.429-8.971,5.243-13.413,7.963c1.016-1.352,1.983-2.737,2.873-4.171c2.24-3.773,3.346-8.082,4.194-12.348
		c0.957-2.035,2.03-4.088,3.549-5.766c2.405-2.301,5.016-4.414,6.933-7.175c1.563-2.222,2.934-4.665,3.495-7.346
		c1.547-8.216-1.679-16.343-3.882-24.145c-0.541-1.697-1.03-3.426-1.812-5.031c-0.741-1.583-1.649-2.183-3.011-0.602
		c-1.835,1.835-3.748,3.654-5.176,5.836c-3.682,6.232-4.274,16.41-3.602,23.536c0.243,2.675,0.606,5.336,1.086,7.978
		c0.801,3.845,1.374,7.797,0.71,11.708c-0.791,4.158-1.827,8.361-3.947,12.074c-1.654,2.615-3.661,4.956-5.797,7.187
		c0.094-0.358,0.181-0.719,0.261-1.081c1.907-8.563-0.262-19.223-3.864-27.128c-4.654-8.851-12.261-15.565-19.766-21.961
		C284.749,375.742,283.217,374.237,281.501,373.016z"/>
</svg>
