<?xml version="1.0" encoding="utf-8"?>
<svg version="1.1" xmlns="http://www.w3.org/2000/svg" xmlns:xlink="http://www.w3.org/1999/xlink" xml:space="preserve" viewBox="130 55 73 96">
<path d="M176.79,78.117c-1.348,1.746-2.837,3.373-4.291,5.031c0.763-2.748,1.779-5.416,3.089-7.951
		c1.409-2.933,3.226-6.02,2.94-9.386c-0.647-3.063-4.438-3.633-7.018-4.214c-2.741-0.47-5.538-0.319-8.297-0.565
		c-0.556-0.078-1.113-0.185-1.657-0.33c-1.498-0.413-2.789-1.697-4.436-1.424c-2.364,0.523-2.183,3.087-1.73,4.945
		c0.182,0.874,0.14,1.78,0.038,2.659c-0.652-1.373-1.417-2.787-2.586-3.803c-0.781-0.725-1.887-0.577-2.817-0.267
		c-0.981,0.289-1.947,0.636-2.889,1.038c-3.469,1.506-8.075,3.122-8.698,7.397c-0.122,1.714,1.115,3.074,1.878,4.5
		c2.91,4.927,7.388,8.953,9.152,14.521c0.911,2.861,1.553,5.839,1.753,8.839c0.015,3.664-0.053,7.33,0.002,10.996
		c0.027,1.089-0.047,2.181-0.256,3.251c-0.232,1.141-0.805,2.167-1.112,3.285c-0.304,1.018-0.616,2.036-0.885,3.064
		c-0.407,1.375-0.561,2.861-1.286,4.115c-1.224,2.232-2.313,4.538-3.613,6.726c-1.029,1.809-2.192,3.54-3.232,5.343
		c-1.502,2.561-2.79,5.309-4.835,7.497c-0.231,0.247-0.473,0.485-0.733,0.702c-0.069,0.057-0.049,0.027-0.135-0.002
		c-0.377-0.133-0.768,0.172-0.764,0.566c-0.032,0.168-0.061,0.347,0.02,0.508c0.934,1.795,4.938-3.67,5.617-4.796
		c2.793-4.667,5.937-9.12,8.394-13.983c2.652-5.107,5.721-10.184,10.343-13.744c3.724-3.053,6.884-4.444,11.768-4.353
		c4.726,0.047,11.302,0.74,15.387,3.181c2.165,1.44,3.769,3.601,5.979,4.969c3.214,1.869,6.829-2.076,6.999-5.183
		c0.111-2.173-0.619-4.361-1.758-6.193c-0.274-0.45-0.604-0.867-0.931-1.278c-0.149-0.184-0.317-0.391-0.282-0.637
		c1.715-3.69,2.226-7.962,1.271-11.934c-0.51-2.345-1.658-4.464-2.732-6.588c-0.324-0.645-0.646-1.317-1.121-1.865
		c-0.537-0.673-1.516-1.02-1.697-1.936c-0.177-1.418,0.396-2.871-0.117-4.267c-0.65-2.408-3.053-3.371-5.331-3.578
		c-1.431-0.118-2.924-0.295-4.335,0.046C179.458,73.808,178.281,76.275,176.79,78.117z"/>
</svg>
