<?xml version="1.0" encoding="utf-8"?>
<svg version="1.1" xmlns="http://www.w3.org/2000/svg" xmlns:xlink="http://www.w3.org/1999/xlink" viewBox="462 445 267 272" xml:space="preserve">
<g>
	<path style="fill:#FFD34E;" d="M679.878,591.785c1.578-4.206,2.663-8.597,3.268-13.051c0.232-0.611,0.457-1.223,0.675-1.838
		c0.913-2.57,1.655-5.201,2.187-7.877c0.566-2.839,0.98-5.726,1.152-8.617c0.17-2.836-0.045-5.665-0.588-8.451
		c-0.54-2.776-1.525-5.439-2.694-8.006c-2.174-4.774-5.664-8.8-9.645-12.162c-2.077-1.753-4.281-3.383-6.585-4.827
		c-2.225-1.395-4.574-2.589-6.967-3.669c-2.151-0.971-4.339-1.856-6.558-2.65c-2.981-1.513-6.078-2.798-9.24-3.88
		c-3.594-1.229-7.275-2.138-11.005-2.801c-1.274-0.767-2.577-1.485-3.902-2.161c-9.301-4.745-19.715-7.046-30.133-7.046
		c-0.613,0-1.227,0.008-1.84,0.024c-5.622,0.145-11.242,0.982-16.68,2.404c-4.046,1.058-8.009,2.468-11.847,4.146
		c-4.646,1.075-9.146,2.675-13.517,4.585c-4.772,2.084-9.303,4.719-13.499,7.801c-2.251,1.654-4.421,3.422-6.462,5.33
		c-1.893,1.771-3.653,3.68-5.319,5.664c-3.49,4.158-6.602,8.664-9.162,13.45c-0.083,0.155-0.165,0.31-0.246,0.465
		c-0.353,0.493-0.7,0.99-1.04,1.492c-3.053,4.501-5.452,9.411-7.429,14.468c-1.954,4.998-3.242,10.218-4.045,15.518
		c-0.841,5.554-1.244,11.174-1.031,16.79c0.172,4.538,0.796,9.062,1.876,13.472c-0.033,0.459-0.062,0.918-0.088,1.378
		c-0.149,2.657-0.115,5.326,0.166,7.975c0.155,1.467,0.372,2.932,0.676,4.376c0.263,1.25,0.624,2.479,1.025,3.692
		c0.851,2.574,1.961,5.089,3.262,7.467c1.281,2.339,2.848,4.529,4.591,6.546c1.741,2.015,3.798,3.702,5.912,5.306
		c1.719,1.303,3.542,2.48,5.437,3.535c1.376,1.132,2.831,2.176,4.312,3.15c2.102,1.383,4.323,2.58,6.597,3.652
		c2.487,1.172,5.047,2.195,7.672,3.012c2.509,0.78,5.081,1.354,7.669,1.797c2.798,0.479,5.63,0.809,8.465,0.984
		c5.808,0.361,11.641-0.334,17.373-1.225c2.744-0.426,5.473-0.928,8.181-1.544c2.098-0.476,4.181-1.02,6.251-1.605
		c4.48-0.263,8.951-0.876,13.357-1.68c5.456-0.996,10.811-2.516,16.047-4.337c5.151-1.791,10.23-3.859,14.925-6.655
		c2.291-1.364,4.478-2.871,6.569-4.525c1.987-1.57,3.763-3.364,5.363-5.326c1.689-2.072,3.19-4.285,4.477-6.629
		c0.816-1.486,1.528-3.031,2.15-4.611c2.62-3.005,4.941-6.271,6.958-9.708c0.707-1.205,1.371-2.435,1.999-3.683
		c1.243-1.673,2.429-3.386,3.555-5.133C675.491,601.926,677.94,596.951,679.878,591.785z M680.56,554.924
		c0.048,0.438,0.086,0.876,0.114,1.314c-0.008-0.022-0.017-0.045-0.025-0.067c-0.205-1.524-0.459-3.038-0.786-4.537
		C680.154,552.716,680.388,553.814,680.56,554.924z M608.168,511.873c1.781,0.258,3.55,0.589,5.302,0.994
		c-0.417,0.031-0.833,0.065-1.249,0.102c-0.859,0.076-1.716,0.165-2.573,0.266c-1.293-0.402-2.594-0.778-3.902-1.127
		c-0.908-0.242-1.82-0.468-2.736-0.676C604.733,511.511,606.454,511.658,608.168,511.873z M576.712,517.578
		c4.859-0.605,9.788-0.711,14.672-0.327c-0.829,0.271-1.654,0.552-2.476,0.845c-6.059-0.568-12.175-0.33-18.178,0.632
		C572.704,518.255,574.699,517.869,576.712,517.578z M533.048,616.913c0.281,1.065,0.608,2.116,0.973,3.154
		c-0.481-0.838-0.937-1.69-1.367-2.557c-0.154-0.74-0.285-1.486-0.396-2.238c-0.164-1.367-0.272-2.739-0.335-4.113
		C532.18,613.099,532.549,615.023,533.048,616.913z M525.058,560.898c-1.003,3.14-1.808,6.343-2.447,9.578
		c-0.029,0.071-0.059,0.142-0.088,0.213c-0.303,0.527-0.602,1.057-0.896,1.59c-0.397,0.718-0.783,1.442-1.161,2.17
		c0.288-1.774,0.629-3.538,1.029-5.289c0.618-1.804,1.311-3.583,2.044-5.341c0.498-1.171,1.014-2.334,1.549-3.487
		c0.102-0.159,0.205-0.317,0.309-0.474C525.283,560.203,525.169,560.551,525.058,560.898z M529.281,581.867
		c-0.767,2.456-1.458,4.945-2.053,7.458c0.014-1.943,0.091-3.885,0.227-5.824c0.078-0.192,0.157-0.384,0.236-0.576
		c0.698-1.622,1.444-3.223,2.235-4.799c-0.19,1.097-0.358,2.197-0.506,3.299C529.374,581.572,529.327,581.72,529.281,581.867z
		 M538.579,646.007c-1.847-0.811-3.653-1.727-5.396-2.75c-0.972-0.955-1.888-1.966-2.744-3.04c-0.188-0.253-0.374-0.508-0.556-0.766
		c0.395,0.286,0.795,0.565,1.196,0.838c1.842,1.253,3.81,2.28,5.839,3.182c0.496,0.303,1,0.596,1.51,0.878
		c2.407,1.328,4.957,2.411,7.527,3.38c1.586,0.599,3.2,1.135,4.831,1.606C546.619,648.616,542.503,647.598,538.579,646.007z
		 M582.532,633.343c-3.169,1.311-6.409,2.423-9.699,3.393c-3.034,0.894-6.114,1.633-9.237,2.143
		c-1.756-0.479-3.484-1.059-5.174-1.742c-2.562-1.124-4.97-2.51-7.213-4.183c-0.652-0.519-1.286-1.057-1.903-1.615
		c0.026-0.024,0.051-0.048,0.075-0.073c0.579-0.578,0.908-1.372,0.908-2.19c-0.037-0.274-0.073-0.548-0.111-0.824
		c-0.146-0.524-0.412-0.98-0.796-1.367c-0.066-0.079-0.132-0.159-0.197-0.239c-1.416-2.037-2.773-4.109-4.11-6.201
		c-1.015-1.59-2.026-3.186-3.069-4.758c-1.004-1.513-2.006-3.029-2.881-4.622c-0.26-0.473-0.513-0.952-0.759-1.434
		c-0.555-4.892-0.437-9.863,0.178-14.746c0.94-6.579,2.78-12.981,5.32-19.115c1.405-3.271,3.003-6.453,4.801-9.527
		c1.76-3.009,3.735-5.893,5.848-8.663c4.368-5.584,9.371-10.606,14.948-14.98c5.622-4.297,11.733-7.896,18.237-10.686
		c1.968-0.812,3.963-1.549,5.986-2.204c0.118,0.014,0.237,0.029,0.355,0.044c7.018,0.98,13.868,2.919,20.411,5.63
		c3.221,1.379,6.351,2.95,9.377,4.701c0.151,0.18,0.3,0.362,0.447,0.545c1.258,1.697,2.302,3.508,3.159,5.438
		c1.161,2.892,1.951,5.926,2.419,9.005c0.616,5.215,0.1,10.494-0.576,15.683c-1.215,8.695-3.547,17.182-6.9,25.293
		c-1.106,2.583-2.326,5.118-3.697,7.574c-1.368,2.451-2.918,4.793-4.612,7.029c-3.137,3.987-6.704,7.639-10.691,10.781
		c-3.129,2.367-6.452,4.455-9.858,6.402C589.961,629.873,586.298,631.724,582.532,633.343z M621.899,620.891
		c-7.161,5.457-15.095,9.945-23.362,13.488c-1.827,0.76-3.674,1.466-5.54,2.118c0.289-0.151,0.578-0.303,0.865-0.457
		c4.663-2.483,9.207-5.258,13.392-8.489c2.227-1.718,4.342-3.538,6.337-5.523c1.835-1.828,3.554-3.771,5.165-5.798
		c1.733-2.181,3.354-4.441,4.81-6.816c1.387-2.259,2.607-4.619,3.725-7.021c2.348-5.041,4.284-10.301,5.808-15.648
		c1.571-5.509,2.601-11.146,3.277-16.832c0.323-2.711,0.585-5.43,0.676-8.159c0.098-2.915-0.098-5.801-0.547-8.682
		c-0.066-0.422-0.138-0.843-0.218-1.262c0.753,1.066,1.467,2.158,2.139,3.279c1.076,1.795,2.01,3.676,2.843,5.594
		c1.373,3.361,2.41,6.858,2.951,10.45c0.482,4.084,0.342,8.204-0.166,12.28c-0.761,5.246-2.255,10.333-4.278,15.228
		c-1.679,3.887-3.658,7.647-5.971,11.191C630.184,613.867,626.164,617.555,621.899,620.891z M633.124,644.913
		c2.588-1.314,5.15-2.685,7.648-4.162C638.327,642.318,635.764,643.699,633.124,644.913z M640.485,614.302
		c-1.918,2.435-4.016,4.708-6.26,6.832c1.806-2.077,3.485-4.265,5.034-6.544c0.418-0.616,0.825-1.238,1.22-1.867
		c0.49-0.586,0.971-1.179,1.443-1.779c2.11-2.679,4.047-5.476,5.802-8.387C645.718,606.705,643.274,610.631,640.485,614.302z
		 M641.475,546.524c-0.502-0.468-1.011-0.926-1.527-1.377c-0.025-0.031-0.049-0.062-0.074-0.094
		c-1.597-2.019-3.338-3.924-5.162-5.74c-2.011-2.002-4.159-3.875-6.408-5.617c0.473,0.248,0.943,0.502,1.409,0.763
		c1.896,1.062,3.702,2.272,5.434,3.583c3.189,2.516,6.102,5.372,8.625,8.559c1.627,2.161,3.031,4.462,4.244,6.868
		C645.988,551.015,643.799,548.69,641.475,546.524z M652.093,569.44c-0.188,1.343-0.406,2.683-0.654,4.015
		c-0.139-2.148-0.42-4.288-0.858-6.409c-0.11-0.53-0.23-1.058-0.361-1.583c0.687,1.179,1.324,2.386,1.919,3.613
		C652.123,569.198,652.108,569.319,652.093,569.44z M669.353,586.237c-0.054,0.382-0.111,0.763-0.171,1.143
		c-0.048,0.117-0.095,0.235-0.144,0.352c-0.887,2.055-1.865,4.066-2.932,6.027c0.371-1.567,0.68-3.151,0.921-4.747
		c0.252-1.668,0.44-3.341,0.563-5.017c0.789-3.716,1.291-7.498,1.52-11.282c0.093-1.539,0.12-3.082,0.078-4.622
		c0.195,0.907,0.363,1.82,0.501,2.738C670.304,575.949,670.004,581.13,669.353,586.237z M665.97,545.606
		c-0.177-0.213-0.355-0.425-0.536-0.634c0.835,0.917,1.639,1.864,2.411,2.84c2.119,2.81,3.954,5.814,5.373,9.036
		c0.165,0.408,0.325,0.818,0.478,1.23c0.021,0.211,0.04,0.423,0.058,0.635c-0.877-2.227-1.9-4.402-3.084-6.482
		C669.329,549.875,667.698,547.691,665.97,545.606z"/>
	<path style="fill:#FFD34E;" d="M632.117,462.81c-0.394,0-0.785,0.103-1.127,0.303c-0.54,0.316-0.806,0.769-1.024,1.332
		c-0.722,1.862-1.346,3.764-2.003,5.649c-0.662,1.898-1.313,3.799-1.969,5.701c-1.212,3.523-2.407,7.049-3.607,10.576
		c-0.573,1.68-1.141,3.361-1.711,5.042c-0.419,1.237,0.47,2.615,1.672,2.946c0.619,0.17,1.292,0.081,1.845-0.241
		c0.56-0.328,0.896-0.828,1.101-1.432c2.84-8.406,5.718-16.803,8.425-25.254c0.19-0.597,0.385-1.194,0.545-1.801
		c0.311-1.175-0.377-2.418-1.556-2.742C632.514,462.837,632.315,462.81,632.117,462.81z"/>
	<path style="fill:#FFD34E;" d="M682.801,484.823c-0.399,0.113-0.745,0.313-1.038,0.605c-0.898,0.7-1.62,1.582-2.346,2.453
		c-0.741,0.89-1.429,1.825-2.132,2.746c-1.392,1.825-2.679,3.738-3.831,5.724c-0.681,1.174-1.221,2.425-1.692,3.698
		c-0.456,1.228-0.801,2.491-0.992,3.786c-0.03,0.224-0.06,0.446-0.089,0.669c0.001,0.455,0.115,0.878,0.343,1.27
		c0.33,0.562,0.875,0.983,1.504,1.156c0.65,0.179,1.357,0.087,1.939-0.254c0.505-0.296,1.067-0.896,1.156-1.504
		c0.053-0.358,0.099-0.716,0.174-1.071c0.087-0.41,0.214-0.814,0.33-1.215c0.207-0.716,0.453-1.419,0.726-2.112
		c0.63-1.398,1.431-2.694,2.26-3.983c0.797-1.239,1.645-2.437,2.505-3.633c0.687-0.955,1.378-1.903,2.083-2.844
		c0.44-0.544,0.877-1.082,1.389-1.562c0.936-0.875,0.883-2.442,0-3.326c-0.438-0.44-1.041-0.689-1.662-0.689
		C683.217,484.768,683.008,484.796,682.801,484.823z"/>
	<path style="fill:#FFD34E;" d="M711.3,529.278c-1.734,0.328-3.421,0.91-5.11,1.411c-3.28,0.972-6.428,2.314-9.448,3.914
		c-1.16,0.615-1.508,2.201-0.864,3.299c0.315,0.539,0.839,0.942,1.441,1.107c0.643,0.178,1.276,0.065,1.858-0.243
		c1.319-0.698,2.655-1.342,4.023-1.937c1.601-0.657,3.232-1.202,4.891-1.701c1.704-0.514,3.393-1.108,5.148-1.422
		c0.504-0.043,1.004-0.044,1.508-0.006c0.211,0.046,0.417,0.102,0.628,0.167c1.197,0.362,2.497-0.422,2.821-1.602
		c0.164-0.593,0.079-1.238-0.231-1.768c-0.318-0.543-0.792-0.849-1.371-1.054c-0.782-0.275-1.582-0.377-2.407-0.437
		c-0.156-0.011-0.313-0.017-0.469-0.017C712.906,528.987,712.094,529.128,711.3,529.278z"/>
	<path style="fill:#FFD34E;" d="M715.076,567.68c-1.233-0.251-2.487-0.414-3.73-0.611c-2.077-0.328-4.158-0.651-6.238-0.97
		c-0.301-0.041-0.602-0.081-0.904-0.122c-0.615,0.001-1.186,0.157-1.716,0.464c-0.761,0.445-1.33,1.183-1.563,2.033
		c-0.242,0.878-0.117,1.836,0.342,2.622c0.403,0.687,1.21,1.436,2.033,1.563c1.967,0.301,3.934,0.607,5.9,0.916
		c1.286,0.202,2.584,0.369,3.862,0.616c1.335,0.258,2.68,0.483,3.999,0.82c1.245,0.317,2.47,0.657,3.682,1.082
		c0.007,0.003,0.015,0.007,0.022,0.01c0.263,0.111,0.527,0.223,0.79,0.334c0.586,0.157,1.172,0.157,1.759,0
		c0.826-0.228,1.544-0.78,1.977-1.52c0.446-0.764,0.567-1.695,0.332-2.548c-0.216-0.783-0.778-1.603-1.52-1.976
		c-1.468-0.74-3.021-1.274-4.603-1.711c-0.582-0.161-1.161-0.339-1.755-0.46C716.854,568.041,715.966,567.861,715.076,567.68z"/>
	<path style="fill:#FFD34E;" d="M704.241,614.698c1.142,0.619,2.311,1.238,3.374,1.992c0.049,0.042,0.099,0.085,0.147,0.129
		c0.562,0.487,1.166,0.798,1.928,0.798c0.719,0,1.418-0.289,1.927-0.798c0.509-0.509,0.798-1.208,0.798-1.927
		c0-0.767-0.313-1.362-0.798-1.928c-0.362-0.422-0.76-0.787-1.197-1.13c-0.404-0.318-0.805-0.658-1.227-0.948
		c-0.532-0.365-1.056-0.745-1.607-1.081c-1.327-0.811-2.661-1.588-4.017-2.352c-3.042-1.715-6.151-3.316-9.24-4.948
		c-0.498-0.263-1.024-0.413-1.565-0.413c-0.258,0-0.519,0.034-0.782,0.106c-0.761,0.209-1.422,0.719-1.82,1.4
		c-0.811,1.385-0.375,3.392,1.092,4.167c2.999,1.584,5.999,3.163,8.984,4.771C701.575,613.255,702.909,613.976,704.241,614.698z"/>
	<path style="fill:#FFD34E;" d="M683.172,641.828c-2.421-2.725-4.799-5.485-7.159-8.262c-0.468-0.55-1.311-0.833-2.011-0.833
		c-0.752,0-1.48,0.303-2.011,0.833c-0.531,0.532-0.833,1.261-0.833,2.011c0,0.803,0.33,1.417,0.833,2.011
		c2.357,2.779,4.722,5.55,7.193,8.229c1.97,2.137,3.977,4.28,6.197,6.16c0.529,0.448,1.075,0.741,1.789,0.741
		c0.669,0,1.316-0.269,1.788-0.741c0.472-0.472,0.741-1.121,0.741-1.789c0-0.691-0.279-1.288-0.741-1.788
		C686.979,646.256,685.109,644.01,683.172,641.828z"/>
	<path style="fill:#FFD34E;" d="M648.12,678.675c-1.427-2.615-2.909-5.203-4.119-7.928c-0.505-1.28-0.859-2.581-1.082-3.937
		c-0.02-0.238-0.029-0.474-0.034-0.716c-0.03-1.631-1.339-2.993-2.993-2.993c-1.608,0-3.022,1.362-2.992,2.993
		c0.024,1.33,0.265,2.676,0.571,3.969c0.349,1.479,0.976,2.89,1.603,4.268c0.902,1.984,1.95,3.889,3.018,5.787
		c1.029,1.831,2.023,3.725,3.304,5.395c0.152,0.195,0.304,0.392,0.456,0.589c0.362,0.361,0.791,0.611,1.285,0.749
		c0.752,0.208,1.571,0.1,2.243-0.293c0.651-0.381,1.138-1.014,1.339-1.741c0.193-0.703,0.134-1.626-0.294-2.244
		C649.566,681.336,648.84,679.995,648.12,678.675z"/>
	<path style="fill:#FFD34E;" d="M597.628,700.62c0.017,0.131,0.035,0.262,0.052,0.393c-0.018-0.136-0.036-0.273-0.055-0.41
		c-0.001-0.01-0.003-0.02-0.004-0.03C597.624,700.589,597.626,700.604,597.628,700.62z"/>
	<path style="fill:#FFD34E;" d="M597.416,699.039c0.003,0.026,0.007,0.052,0.01,0.078c-0.001-0.009-0.002-0.017-0.003-0.026
		C597.421,699.073,597.418,699.056,597.416,699.039z"/>
	<path style="fill:#FFD34E;" d="M597.481,699.529c0.004,0.03,0.008,0.06,0.012,0.09c0,0.004,0.001,0.008,0.002,0.011
		C597.49,699.596,597.486,699.563,597.481,699.529z"/>
	<path style="fill:#FFD34E;" d="M597.565,700.146c0.004,0.031,0.008,0.063,0.013,0.094c-0.011-0.08-0.022-0.16-0.033-0.241
		c0.006,0.046,0.013,0.093,0.019,0.139C597.564,700.141,597.564,700.143,597.565,700.146z"/>
	<polygon style="fill:#FFD34E;" points="597.565,700.148 597.565,700.146 597.564,700.144 	"/>
	<path style="fill:#FFD34E;" d="M597.496,699.64c0-0.003-0.001-0.007-0.001-0.01c0.001,0.008,0.002,0.017,0.004,0.026
		C597.498,699.651,597.497,699.645,597.496,699.64z"/>
	<path style="fill:#FFD34E;" d="M597.628,700.62c-0.004-0.031-0.008-0.063-0.013-0.094c0.002,0.016,0.004,0.031,0.006,0.047
		c-0.001-0.01-0.003-0.02-0.004-0.029c0.003,0.02,0.005,0.04,0.008,0.06c0.011,0.08,0.022,0.16,0.033,0.241
		c-0.016-0.115-0.031-0.229-0.047-0.344c-0.009-0.067-0.018-0.134-0.027-0.201c0.006,0.047,0.012,0.094,0.019,0.141
		c-0.009-0.067-0.018-0.134-0.027-0.201c-0.004-0.031-0.008-0.061-0.012-0.092c0.001,0.01,0.003,0.02,0.004,0.03
		c-0.008-0.06-0.016-0.119-0.024-0.179l0,0c0,0,0-0.001,0-0.001c-0.001-0.004-0.001-0.008-0.002-0.012
		c-0.003-0.023-0.006-0.046-0.009-0.07c-0.004-0.03-0.008-0.06-0.012-0.089c0.002,0.014,0.004,0.029,0.006,0.043
		c-0.001-0.009-0.002-0.018-0.004-0.028c0.002,0.011,0.003,0.021,0.004,0.032c0.001,0.005,0.001,0.01,0.002,0.016
		c-0.003-0.024-0.006-0.047-0.01-0.071c-0.001-0.006-0.002-0.012-0.003-0.018c-0.005-0.041-0.011-0.081-0.016-0.122
		c-0.003-0.021-0.005-0.041-0.008-0.061c-0.38-2.824-0.842-5.637-1.266-8.454c-0.153-1.224-0.331-2.449-0.429-3.676
		c-0.168-2.092-0.338-4.183-0.491-6.277c-0.05-0.688-0.24-1.286-0.74-1.786c-0.472-0.471-1.118-0.74-1.786-0.74
		c-0.666,0-1.314,0.269-1.784,0.74c-0.444,0.444-0.787,1.143-0.74,1.786c0.156,2.162,0.33,4.322,0.495,6.482
		c0.075,0.97,0.214,1.939,0.322,2.905c0.079,0.704,0.164,1.407,0.254,2.112c0.459,3.576,0.909,7.158,1.216,10.751
		c0.062,0.738,0.252,1.371,0.791,1.909c0.503,0.503,1.195,0.791,1.909,0.791c0.712,0,1.405-0.288,1.909-0.791
		c0.467-0.468,0.851-1.228,0.79-1.909C597.861,702.512,597.752,701.565,597.628,700.62z M597.534,699.921c0-0.001,0-0.002,0-0.003
		c0.002,0.018,0.005,0.036,0.007,0.054C597.539,699.955,597.536,699.938,597.534,699.921z"/>
	<path style="fill:#FFD34E;" d="M597.498,699.656c0.001,0.008,0.002,0.016,0.003,0.024c0.003,0.025,0.007,0.049,0.01,0.074
		c0.003,0.022,0.006,0.044,0.009,0.065c0,0,0,0.001,0,0.002c0.001,0.007,0.002,0.014,0.003,0.021
		c-0.001-0.007-0.002-0.014-0.003-0.021c0,0.002,0,0.004,0.001,0.006c-0.027-0.203-0.055-0.405-0.081-0.608
		c0.009,0.066,0.018,0.133,0.026,0.199c-0.014-0.101-0.027-0.202-0.041-0.303c0.023,0.175,0.047,0.349,0.07,0.524
		c0.002,0.014,0.004,0.028,0.006,0.043C597.501,699.674,597.5,699.665,597.498,699.656z"/>
	<path style="fill:#FFD34E;" d="M549.372,684.8c-0.215,0-0.432,0.034-0.644,0.106c-0.44,0.149-0.871,0.315-1.256,0.574
		c-0.4,0.269-0.778,0.581-1.148,0.889c-0.737,0.612-1.327,1.38-1.89,2.145c-1.073,1.46-1.723,3.229-2.377,4.901
		c-0.664,1.696-1.318,3.388-1.892,5.117c-0.343,1.038-0.684,2.076-1.019,3.117c-0.444,1.38-0.886,2.76-1.308,4.146
		c-0.406,1.331-0.812,2.668-1.078,4.034c-0.126,0.649-0.102,1.255,0.242,1.841c0.312,0.535,0.83,0.933,1.427,1.099
		c0.617,0.17,1.29,0.081,1.843-0.242c0.505-0.296,0.977-0.841,1.098-1.429c0.412-2.014,1.069-3.996,1.703-5.95
		c0.374-1.151,0.739-2.304,1.122-3.452c0.487-1.463,0.95-2.932,1.484-4.378c0.454-1.232,0.933-2.461,1.436-3.677
		c0.419-0.955,0.889-1.877,1.488-2.733c0.383-0.458,0.799-0.876,1.255-1.26c0.076-0.053,0.153-0.103,0.232-0.15
		c0.566-0.208,1.033-0.536,1.346-1.071c0.324-0.555,0.412-1.229,0.243-1.848C551.402,685.583,550.408,684.8,549.372,684.8z"/>
	<path style="fill:#FFD34E;" d="M515.206,663.953c-0.251-0.07-0.525-0.106-0.802-0.106c-0.514,0-1.038,0.126-1.449,0.401
		c-3.798,2.539-7.616,5.055-11.374,7.653c-1.65,1.141-3.3,2.282-4.943,3.433c-1.539,1.079-3.087,2.149-4.576,3.299
		c-0.199,0.153-0.397,0.308-0.597,0.461c-0.366,0.369-0.62,0.803-0.76,1.304c-0.21,0.763-0.102,1.594,0.297,2.277
		c0.387,0.661,1.027,1.155,1.767,1.358c0.522,0.141,1.046,0.141,1.57,0c0.501-0.141,0.936-0.394,1.304-0.76
		c0.021-0.017,0.043-0.034,0.064-0.051c1.321-1.002,2.685-1.949,4.039-2.905c1.627-1.148,3.261-2.282,4.893-3.419
		c3.717-2.589,7.501-5.086,11.265-7.606c0.646-0.433,1.13-0.98,1.342-1.746c0.208-0.753,0.1-1.575-0.294-2.251
		C516.57,664.643,515.937,664.154,515.206,663.953z"/>
	<path style="fill:#FFD34E;" d="M493.022,635.721c0.105,0.022,0.208,0.046,0.311,0.074c0.006,0.011,0.012,0.022,0.018,0.033
		c0.009,0.039,0.017,0.077,0.026,0.115c0.241,1.086,1.478,1.708,2.508,1.425c0.51-0.141,0.953-0.482,1.219-0.938
		c0.288-0.49,0.327-1.026,0.206-1.571c-0.111-0.498-0.338-0.954-0.608-1.384c-0.316-0.505-0.719-0.864-1.208-1.194
		c-0.231-0.111-0.465-0.213-0.704-0.307c-0.233-0.087-0.461-0.153-0.706-0.208c-0.516-0.114-1.058-0.153-1.585-0.168
		c-0.082-0.003-0.164-0.004-0.246-0.004c-0.846,0-1.696,0.126-2.536,0.207c-0.512,0.05-1.025,0.08-1.536,0.133
		c-0.63,0.067-1.257,0.161-1.882,0.258c-1.566,0.243-3.124,0.573-4.679,0.881c-1.007,0.201-2.014,0.402-3.021,0.601
		c-3.007,0.598-6.006,1.242-8.995,1.925c-1.124,0.257-1.772,1.528-1.476,2.601c0.145,0.528,0.499,0.987,0.972,1.263
		c0.51,0.298,1.063,0.336,1.63,0.213c2.491-0.543,4.985-1.079,7.478-1.616c1.155-0.25,2.312-0.488,3.468-0.73
		c2.143-0.45,4.288-0.938,6.455-1.26c0.804-0.095,1.612-0.155,2.417-0.244C491.372,635.736,492.195,635.662,493.022,635.721z
		 M493.396,635.812c0.035,0.043,0.069,0.088,0.1,0.134c-0.035-0.045-0.07-0.09-0.105-0.136
		C493.393,635.811,493.395,635.812,493.396,635.812z M493.302,635.741c0,0.001,0.001,0.002,0.002,0.003
		c-0.03-0.013-0.059-0.025-0.089-0.038C493.245,635.717,493.274,635.729,493.302,635.741z"/>
	<path style="fill:#FFD34E;" d="M470.368,580.215c0.681,0.218,1.368,0.421,2.052,0.635c1.027,0.323,2.055,0.646,3.083,0.968
		c0.969,0.304,1.926,0.654,2.888,0.98c1.341,0.455,2.665,0.935,3.975,1.473c1.774,0.779,3.446,1.732,5.065,2.797
		c1.117,0.734,2.703,0.227,3.35-0.878c0.331-0.566,0.421-1.255,0.247-1.887c-0.176-0.639-0.583-1.103-1.126-1.463
		c-1.293-0.856-2.624-1.662-4.017-2.347c-1.48-0.729-3.026-1.328-4.561-1.926c-1.14-0.444-2.311-0.818-3.464-1.225
		c-0.91-0.323-1.825-0.628-2.742-0.931c-0.6-0.198-1.199-0.396-1.799-0.593c-1.032-0.341-2.089-0.626-3.109-1.006
		c-0.201-0.105-0.391-0.219-0.582-0.347c-0.352-0.234-0.764-0.341-1.179-0.341c-0.658,0-1.325,0.267-1.78,0.722
		c-0.938,0.938-0.947,2.518,0,3.455c0.278,0.276,0.604,0.605,0.942,0.795c0.242,0.136,0.483,0.251,0.738,0.358
		C469.014,579.736,469.677,579.994,470.368,580.215z"/>
	<path style="fill:#FFD34E;" d="M477.506,529.057c-1.322-0.533-2.642-1.069-4-1.503c-0.152-0.049-0.307-0.071-0.46-0.072
		c-0.752,0-1.468,0.549-1.67,1.281c-0.251,0.91,0.3,1.881,1.21,2.132c1.86,0.513,3.676,1.189,5.485,1.856
		c1.747,0.645,3.479,1.324,5.212,2.003c1.729,0.756,3.454,1.516,5.182,2.275c0.455,0.2,0.897,0.425,1.343,0.645
		c1.186,0.588,2.366,1.189,3.531,1.82c2.187,1.186,4.258,2.543,6.232,4.055c0.553,0.433,1.098,0.875,1.638,1.325
		c0.559,0.465,1.068,0.973,1.585,1.483c0.502,0.494,1.328,0.501,1.828,0c0.498-0.498,0.499-1.331,0-1.828
		c-0.38-0.38-0.749-0.768-1.148-1.128c-0.418-0.376-0.858-0.733-1.292-1.091c-0.957-0.791-1.943-1.547-2.949-2.276
		c-1.911-1.384-3.941-2.585-6.015-3.704c-1.205-0.65-2.418-1.289-3.656-1.875c-1.038-0.491-2.077-0.984-3.117-1.476
		C483.505,531.587,480.524,530.274,477.506,529.057z"/>
	<path style="fill:#FFD34E;" d="M512.055,507.225c0.361,0.176,0.704,0.395,1.052,0.596c2.124,1.221,4.247,2.444,6.371,3.665
		c0.821,0.474,1.643,0.947,2.466,1.419c1.174,0.677,2.278,1.464,3.406,2.215c0.954,0.634,2.319,0.191,2.871-0.753
		c0.284-0.484,0.361-1.075,0.212-1.617c-0.152-0.55-0.499-0.943-0.963-1.254c-1.149-0.768-2.276-1.57-3.47-2.265
		c-0.936-0.544-1.873-1.088-2.809-1.634c-2.137-1.243-4.273-2.486-6.41-3.728c-1.259-0.733-2.599-1.334-3.901-1.984
		c-1.913-0.954-3.825-1.906-5.737-2.862c-1.802-0.9-3.645-1.726-5.466-2.589c-0.886-0.421-1.779-0.828-2.669-1.243
		c-0.421-0.194-0.837-0.394-1.263-0.577c-0.745-0.323-1.489-0.651-2.258-0.913c-0.659-0.223-1.384-0.311-2.077-0.311
		c-0.021,0-0.042,0-0.063,0c-1.201,0.009-2.202,0.995-2.202,2.202c0,0.582,0.233,1.147,0.645,1.558
		c0.438,0.437,0.957,0.596,1.558,0.644c0.032,0.002,0.063,0.004,0.094,0.007c0.552,0.122,1.081,0.308,1.606,0.517
		c1.662,0.714,3.305,1.468,4.952,2.216c1.712,0.78,3.449,1.522,5.141,2.346c2.151,1.048,4.302,2.095,6.452,3.144
		C510.412,506.424,511.234,506.825,512.055,507.225z"/>
	<path style="fill:#FFD34E;" d="M531.09,466.293c-0.084,0.376-0.126,0.755-0.122,1.137c-0.008,0.418,0.113,1,0.243,1.43
		c0.224,0.738,0.628,1.44,1.012,2.109c0.299,0.52,0.678,0.996,1.039,1.474c0.391,0.514,0.771,1.037,1.156,1.555
		c2.1,2.816,4.443,5.429,6.991,7.847c3.737,3.547,7.477,7.09,11.233,10.617c0.646,0.607,1.443,0.969,2.339,0.969
		c0.872,0,1.721-0.351,2.338-0.969c1.244-1.246,1.314-3.443,0-4.677c-2.835-2.665-5.661-5.337-8.478-8.021
		c-1.09-1.038-2.179-2.076-3.269-3.114c-0.563-0.536-1.096-1.102-1.634-1.662c-1.199-1.253-2.356-2.544-3.433-3.903
		c-0.563-0.745-1.111-1.5-1.676-2.243c-0.3-0.393-0.587-0.797-0.848-1.217c0.589-0.354,1.208-0.655,1.837-0.942
		c0.483-0.285,0.867-0.669,1.152-1.152c0.434-0.742,0.552-1.646,0.324-2.476c-0.221-0.802-0.759-1.499-1.476-1.92
		c-0.464-0.271-1.087-0.46-1.679-0.46c-0.279,0-0.551,0.042-0.797,0.137C534.771,461.804,531.56,463.208,531.09,466.293z"/>
	<path style="fill:#FFD34E;" d="M583.743,449.306c-0.95,0-1.871,0.383-2.543,1.053c-0.187,0.243-0.374,0.486-0.562,0.729
		c-0.326,0.56-0.488,1.166-0.491,1.814c-0.138,1.102-0.11,2.212-0.102,3.32c0.007,0.912,0.039,1.822,0.07,2.733
		c0.066,2.034,0.175,4.064,0.277,6.097c0.193,3.809,0.468,7.615,0.712,11.421c0.129,2.008,0.266,4.017,0.4,6.025
		c0.068,1.03,0.364,1.936,1.111,2.683c0.708,0.71,1.681,1.113,2.684,1.113c1.003,0,1.974-0.403,2.684-1.113
		c0.669-0.67,1.175-1.714,1.111-2.683c-0.589-8.923-1.193-17.847-1.662-26.777c-0.05-0.939-0.106-1.879-0.096-2.82
		C587.358,450.941,585.688,449.306,583.743,449.306z"/>
</g>
</svg>