<?xml version="1.0" encoding="utf-8"?>
<svg version="1.1" xmlns="http://www.w3.org/2000/svg" xmlns:xlink="http://www.w3.org/1999/xlink" viewBox="440 119 278 260" xml:space="preserve">
<g>
	<path style="fill:#FFD34E;" d="M542.719,218.264c-0.418,0.473-0.828,0.954-1.228,1.442c-0.944,0.889-1.865,1.802-2.763,2.736
		c-1.953,2.03-3.738,4.197-5.444,6.436c-3.307,4.335-6.011,9.13-7.95,14.228c-0.947,2.491-1.624,5.091-2.091,7.714
		c-0.503,2.841-0.759,5.721-0.689,8.606c0.035,1.514,0.202,3.012,0.406,4.512c0.185,1.372,0.449,2.723,0.817,4.057
		c0.387,1.402,0.935,2.748,1.501,4.084c0.529,1.248,1.129,2.46,1.799,3.639c1.36,2.394,3.067,4.607,4.939,6.621
		c1.879,2.021,4.01,3.767,6.201,5.435c0.581,0.442,1.171,0.87,1.77,1.283c0.821,0.874,1.672,1.719,2.553,2.536
		c1.984,1.84,4.117,3.516,6.288,5.128c2.148,1.594,4.386,3.068,6.705,4.402c2.41,1.385,4.934,2.539,7.499,3.603
		c2.483,1.03,5.044,1.875,7.672,2.444c2.772,0.6,5.625,0.91,8.456,1.03c2.736,0.115,5.481-0.011,8.195-0.364
		c5.536-0.718,10.984-2.212,16.222-4.13c2.615-0.958,5.182-2.067,7.668-3.32c2.363-1.191,4.637-2.558,6.846-4.013
		c2.318-1.525,4.542-3.189,6.716-4.912c2.075-1.643,4.068-3.387,5.988-5.209c3.947-3.748,7.532-7.889,10.698-12.316
		c3.196-4.467,5.812-9.406,7.58-14.61c0.923-2.715,1.445-5.525,1.805-8.364c0.338-2.677,0.335-5.375,0.008-8.052
		c-0.349-2.86-0.965-5.656-1.831-8.404c-0.837-2.661-1.923-5.253-3.159-7.751c-1.153-2.334-2.512-4.558-4.018-6.679
		c-1.608-2.263-3.371-4.426-5.294-6.429c-1.917-1.996-4.053-3.751-6.274-5.398c-2.084-1.544-4.312-2.897-6.654-4.011
		c-2.538-1.205-5.199-2.11-7.921-2.791c-2.782-0.696-5.619-1.118-8.459-1.491c-3.052-0.402-6.115-0.627-9.182-0.691
		c-0.056-0.123-0.135-0.238-0.239-0.335c-0.787-0.738-1.597-1.49-2.471-2.126c-1.014-0.738-2.194-1.061-3.415-1.288
		c-1.183-0.219-2.381-0.303-3.582-0.303c-1.343,0-2.689,0.105-4.018,0.245c-2.722,0.286-5.375,0.901-7.988,1.706
		c-2.619,0.807-5.207,1.771-7.739,2.821c-4.973,2.064-9.708,4.719-14.115,7.808C550.218,210.806,546.205,214.325,542.719,218.264z
		 M641.719,253.407c-0.446,3.014-1.264,5.935-2.414,8.757c-0.34,0.779-0.702,1.548-1.086,2.304c0.235-1.469,0.388-2.951,0.462-4.43
		c0.038-0.765,0.044-1.533,0.023-2.299c0.107-0.492,0.207-0.985,0.301-1.478c0.479-2.507,0.789-5.053,0.984-7.599
		c0.069-0.318,0.134-0.638,0.193-0.958c0.369-1.989,0.563-4.01,0.486-6.027c0.518,1.438,0.904,2.911,1.138,4.428
		C642.075,248.537,642.01,250.98,641.719,253.407z M635.669,222.76c2.446,3.242,4.509,6.734,6.131,10.458
		c0.011,0.027,0.022,0.054,0.033,0.081c-1.032-1.414-2.202-2.715-3.51-3.877c-0.584-1.838-1.316-3.632-2.136-5.373
		c-0.292-0.62-0.606-1.226-0.941-1.819C635.389,222.407,635.53,222.583,635.669,222.76z M557.81,268.538
		c-0.181-0.243-0.358-0.489-0.53-0.738c0.435-2.038,1.053-4.033,1.837-5.967c0.117-0.267,0.237-0.533,0.359-0.797
		c0.015,0.119,0.031,0.237,0.047,0.356c0.165,1.194,0.421,2.365,0.748,3.525c0.393,1.399,0.936,2.744,1.51,4.078
		c0.892,2.072,2.083,3.966,3.469,5.73c-1.231-0.683-2.419-1.442-3.552-2.284C560.255,271.283,558.964,269.981,557.81,268.538z
		 M565.001,253.124c0.007-0.064,0.015-0.127,0.023-0.191c0.081-0.547,0.173-1.091,0.276-1.633c0.198-0.27,0.399-0.537,0.601-0.804
		c0.03-0.038,0.06-0.076,0.09-0.114C565.621,251.283,565.291,252.2,565.001,253.124z M579.74,285.722
		c-2.876,0.342-5.788,0.344-8.665,0.001c-0.285-0.044-0.568-0.093-0.85-0.146c-0.296-0.149-0.591-0.3-0.884-0.452
		c-1.625-0.84-3.204-1.773-4.673-2.865c-1.22-0.988-2.3-2.104-3.282-3.327c-0.191-0.256-0.377-0.514-0.558-0.776
		c2.043,1.31,4.252,2.356,6.508,3.244c2.468,0.973,5.078,1.571,7.687,2.022c0.379,0.065,0.759,0.128,1.139,0.187
		c0.731,0.378,1.477,0.73,2.233,1.06c0.739,0.322,1.485,0.626,2.237,0.909C580.336,285.63,580.038,285.677,579.74,285.722z
		 M572.411,271.442c0.019,0.145,0.039,0.291,0.06,0.436c-0.668-1.027-1.255-2.101-1.761-3.222c-0.566-1.435-0.962-2.909-1.201-4.433
		c-0.214-1.923-0.208-3.854,0.011-5.774c0.329-2.104,0.908-4.146,1.699-6.121c0.502-1.134,1.073-2.23,1.713-3.286
		c-0.372,1.129-0.686,2.276-0.962,3.431c-0.365,1.527-0.597,3.072-0.802,4.627C570.538,261.878,570.885,266.858,572.411,271.442z
		 M584.659,279.216c-1.153-0.983-2.209-2.07-3.165-3.25c-1.049-1.424-1.92-2.954-2.644-4.569c-0.389-0.968-0.724-1.951-1.002-2.951
		c-0.032-1.489,0.051-2.981,0.226-4.459c0.525-3.484,1.56-6.878,2.894-10.134c1.693-3.906,3.869-7.575,6.442-10.968
		c1.048-1.328,2.16-2.602,3.352-3.803c0.142-0.143,0.286-0.285,0.431-0.426c0.203,0.003,0.407,0.007,0.61,0.015
		c0.433,0.424,0.85,0.862,1.253,1.316c-1.297,0.79-2.508,1.728-3.637,2.729c-0.897,0.795-1.687,1.7-2.419,2.647
		c-0.89,1.151-1.702,2.335-2.429,3.594c-1.388,2.407-2.405,5.051-3.056,7.749c-0.33,1.364-0.525,2.763-0.67,4.156
		c-0.141,1.352-0.137,2.712,0,4.061c0.138,1.353,0.37,2.691,0.756,3.995c0.4,1.353,1.01,2.664,1.759,3.859
		c1.452,2.312,3.51,4.19,5.992,5.338c0.654,0.302,1.328,0.567,2.017,0.782C589.136,279.16,586.897,279.259,584.659,279.216z
		 M579.906,207.821c1.505-0.291,3.018-0.539,4.534-0.754c1.163-0.149,2.329-0.278,3.496-0.387c-0.228,0.08-0.455,0.162-0.682,0.246
		c-0.532,0.196-1.061,0.4-1.588,0.613c-0.368,0.002-0.736,0.006-1.105,0.013C583.004,207.58,581.453,207.676,579.906,207.821z
		 M598.592,259.359c-0.198,1.262-0.497,2.509-0.93,3.711c-0.088-0.366-0.163-0.736-0.226-1.11c-0.031-0.292-0.056-0.585-0.074-0.878
		c0.378-0.796,0.806-1.564,1.288-2.299C598.633,258.975,598.614,259.167,598.592,259.359z M610.912,253.379
		c-0.247,1.099-0.528,2.186-0.839,3.269c-0.563,1.954-1.254,3.889-2.024,5.771c-0.985,2.246-2.235,4.384-3.695,6.354
		c-0.367,0.457-0.751,0.895-1.153,1.314c-0.056-0.02-0.112-0.041-0.168-0.062c-0.655-0.309-1.271-0.669-1.859-1.087
		c-0.071-0.06-0.142-0.121-0.211-0.182c0.431-0.498,0.813-1.048,1.145-1.615c0.366-0.624,0.628-1.316,0.9-1.984
		c0.482-1.182,0.779-2.451,1.007-3.703c0.468-2.558,0.526-5.164,0.295-7.748c0.298-0.156,0.6-0.304,0.906-0.443
		c0.839-0.317,1.689-0.542,2.572-0.69c0.836-0.082,1.667-0.095,2.503-0.019c0.254,0.048,0.505,0.106,0.753,0.172
		c0.002,0.018,0.003,0.037,0.005,0.055C611.003,252.98,610.957,253.179,610.912,253.379z M602.873,246.455
		c0.099-0.086,0.199-0.17,0.299-0.254c0.514-0.37,1.047-0.699,1.614-0.978c0.487-0.176,0.983-0.308,1.494-0.404
		c0.18-0.016,0.36-0.027,0.54-0.033c0.641,0.626,1.244,1.29,1.808,1.988c0.066,0.091,0.132,0.182,0.197,0.274
		c-1.103-0.002-2.213,0.157-3.292,0.351c-0.75,0.134-1.484,0.36-2.199,0.635C603.196,247.503,603.042,246.977,602.873,246.455z
		 M624.616,233.236c-0.171-0.236-0.346-0.47-0.523-0.702c-0.168-0.365-0.344-0.725-0.528-1.082c0.099,0.036,0.198,0.073,0.296,0.11
		c0.331,0.581,0.639,1.176,0.928,1.781C624.731,233.308,624.673,233.272,624.616,233.236z M606.809,210.738
		c3.175,0.469,6.279,1.314,9.252,2.525c2.516,1.112,4.875,2.508,7.078,4.156c1.634,1.298,3.155,2.726,4.508,4.313
		c-0.012-0.007-0.024-0.013-0.036-0.02c-0.912-0.493-1.857-0.93-2.821-1.323c-0.976-0.697-1.977-1.357-3.007-1.972
		c-1.643-1.28-3.373-2.457-5.178-3.487c-2.425-1.385-5.029-2.479-7.645-3.444c-0.713-0.263-1.432-0.513-2.155-0.749
		C606.806,210.738,606.807,210.738,606.809,210.738z M599.286,232.716c1.981-0.001,3.963,0.139,5.937,0.383
		c3.689,0.536,7.308,1.44,10.765,2.84c0.727,0.317,1.449,0.651,2.161,1.003c0.523,1.439,0.865,2.928,1.096,4.441
		c0.153,1.298,0.236,2.599,0.248,3.906c0.014,1.396-0.098,2.791-0.267,4.176c-0.023,0.154-0.046,0.307-0.07,0.46
		c-0.37-1.106-0.871-2.181-1.429-3.195c-0.626-1.137-1.43-2.191-2.297-3.152c-0.942-1.046-2.087-1.923-3.236-2.723
		c-0.977-0.68-2.034-1.236-3.125-1.707c-0.137-0.059-0.275-0.117-0.412-0.174c-1.39-1.05-2.894-1.944-4.47-2.696
		c-2.195-1.047-4.495-1.883-6.865-2.433C597.963,233.446,598.618,233.069,599.286,232.716z M596.099,244.62
		c0.106,0.212,0.21,0.425,0.311,0.64c-0.134,0.175-0.266,0.352-0.396,0.53c-0.719,0.98-1.295,2.06-1.814,3.156
		c-0.63,1.33-1.168,2.708-1.583,4.121c-0.399,1.357-0.612,2.744-0.799,4.141c-0.096,0.717-0.148,1.44-0.162,2.163
		c-0.233,0.566-0.436,1.143-0.603,1.724c-0.442,1.539-0.407,3.139-0.187,4.705c0.091,0.645,0.246,1.258,0.468,1.868
		c0.304,0.832,0.585,1.75,1.246,2.383c0.601,0.575,1.229,0.911,2.026,1.151c0.321,0.097,0.652,0.148,0.984,0.166
		c0.291,0.343,0.607,0.665,0.931,0.978c0.458,0.444,0.952,0.858,1.473,1.236c-0.502,0.157-1.01,0.28-1.532,0.372
		c-0.805,0.076-1.605,0.081-2.412,0.011c-0.673-0.12-1.322-0.301-1.963-0.542c-0.696-0.329-1.356-0.712-1.984-1.157
		c-0.547-0.463-1.04-0.971-1.496-1.522c-0.51-0.712-0.952-1.46-1.325-2.254c-0.414-1.087-0.691-2.207-0.874-3.355
		c-0.168-1.583-0.138-3.156,0.045-4.735c0.331-2.12,0.895-4.185,1.692-6.179c0.839-1.888,1.887-3.684,3.119-5.342
		c0.942-1.162,1.992-2.202,3.154-3.141C594.961,245.336,595.521,244.962,596.099,244.62z M570.057,202.113
		c2.188-0.909,4.413-1.737,6.66-2.477c2.343-0.77,4.737-1.382,7.182-1.727c2.336-0.285,4.702-0.444,7.047-0.175
		c0.823,0.122,1.64,0.292,2.421,0.581c0.276,0.141,0.53,0.302,0.782,0.483c0.188,0.15,0.374,0.303,0.558,0.458
		c-1.31,0.023-2.62,0.074-3.93,0.152c-2.962,0.176-5.909,0.516-8.845,0.938c-2.737,0.393-5.451,0.928-8.134,1.596
		c-3.658,0.91-7.241,2.14-10.714,3.619C565.344,204.285,567.672,203.131,570.057,202.113z M563.383,222.328
		c-0.409,0.243-0.814,0.494-1.214,0.751c-2.261,1.455-4.384,3.152-6.372,4.958c-3.92,3.562-7.239,7.811-9.842,12.417
		c-1.362,2.409-2.495,4.949-3.474,7.535c-0.943,2.494-1.658,5.074-2.156,7.691c-1.034,5.439-1.162,11.164,0.074,16.58
		c-1.317-1.834-2.429-3.785-3.347-5.852c-0.91-2.259-1.59-4.6-1.968-7.007c-0.259-2.356-0.194-4.724,0.083-7.077
		c0.48-3.205,1.325-6.332,2.539-9.335c1.068-2.436,2.339-4.788,3.813-7.004c1.827-2.137,3.844-4.106,6.05-5.852
		c3.183-2.393,6.686-4.308,10.338-5.887C559.699,223.508,561.527,222.872,563.383,222.328z"/>
	<path style="fill:#FFD34E;" d="M592.232,179.812c0.825,0,1.626-0.331,2.208-0.915c0.619-0.619,0.849-1.356,0.915-2.208
		c0.4-5.284,0.746-10.571,1.094-15.857c0.224-3.402,0.356-6.811,0.535-10.214c0.064-1.208,0.128-2.414,0.191-3.622
		c0.019-0.381,0.032-0.763,0.047-1.144c0.025-0.56,0.083-1.128,0.038-1.687c-0.072-0.897-0.309-1.67-0.962-2.323
		c-0.613-0.613-1.456-0.962-2.325-0.962c-1.795,0-3.28,1.494-3.285,3.285c-0.076,2.044-0.101,4.09-0.16,6.133
		c-0.052,1.772-0.118,3.543-0.185,5.314c-0.064,1.688-0.098,3.382-0.199,5.068c-0.147,2.433-0.293,4.866-0.44,7.299
		c-0.176,2.905-0.38,5.806-0.594,8.709c-0.058,0.795,0.366,1.661,0.915,2.208C590.607,179.481,591.407,179.812,592.232,179.812z"/>
	<path style="fill:#FFD34E;" d="M637.221,193.095c1.725,1.01,3.992,0.404,5.003-1.311c1.609-2.734,3.204-5.477,4.85-8.188
		c1.388-2.288,2.775-4.574,4.163-6.861c0.703-1.159,1.383-2.337,2.122-3.474c1.333-2.046,2.662-4.094,3.995-6.14
		c0.583-0.897,1.176-1.788,1.768-2.681c0.198-0.298,0.396-0.597,0.594-0.895c0.354-0.285,0.65-0.629,0.888-1.031
		c0.721-1.025,1.409-2.065,2.063-3.133c1.297-2.118,0.053-4.939-2.278-5.597c-0.357-0.101-0.733-0.153-1.11-0.153
		c-0.784,0-1.571,0.224-2.201,0.69c-0.438,0.326-0.725,0.503-1.026,0.886c-0.314,0.4-0.58,0.721-0.822,1.14
		c-0.309,0.536-0.536,1.11-0.871,1.632c-0.661,1.03-1.32,2.06-1.981,3.09c-0.911,1.419-1.814,2.843-2.719,4.266
		c-0.982,1.544-2.003,3.069-2.946,4.638c-1.068,1.778-2.136,3.553-3.204,5.329c-2.556,4.251-5.087,8.514-7.598,12.791
		C634.901,189.813,635.506,192.091,637.221,193.095z"/>
	<path style="fill:#FFD34E;" d="M669.904,219.969c2.835-0.887,5.665-1.78,8.514-2.622c2.544-0.752,5.088-1.503,7.634-2.254
		c1.309-0.388,2.62-0.718,3.949-1.041c1.324-0.323,2.65-0.645,3.975-0.966c0.567-0.138,1.132-0.294,1.704-0.407
		c2.194-0.429,4.383-0.874,6.588-1.243c1.953-0.326,3.905-0.664,5.859-0.98c0.195-0.008,0.386-0.007,0.586,0.004
		c1.451,0.084,2.805-1.068,3.177-2.419c0.469-1.704-0.56-3.612-2.301-4.053c-0.44-0.111-0.946-0.229-1.388-0.232
		c-0.009,0-0.018,0-0.027,0c-0.312,0-0.617,0.023-0.93,0.052c-0.441,0.041-0.882,0.118-1.32,0.189
		c-0.441,0.071-0.885,0.132-1.322,0.219c-0.872,0.174-1.745,0.345-2.615,0.526c-2.031,0.422-4.057,0.856-6.082,1.305
		c-1.725,0.384-3.429,0.809-5.142,1.247c-1.695,0.434-3.415,0.813-5.091,1.315c-2.584,0.775-5.166,1.551-7.748,2.327
		c-3.238,0.973-6.461,1.981-9.683,2.997c-0.787,0.248-1.449,0.718-1.871,1.438c-0.423,0.723-0.537,1.604-0.315,2.411
		C666.495,219.384,668.276,220.48,669.904,219.969z"/>
	<path style="fill:#FFD34E;" d="M709.734,249.167c-0.871-0.274-1.817-0.41-2.718-0.512c-1.223-0.137-2.464-0.21-3.695-0.236
		c-0.862-0.018-1.725-0.034-2.588-0.051c-1.624-0.033-3.249-0.05-4.873-0.105c-5.351-0.182-10.698-0.369-16.047-0.594
		c-0.05-0.002-0.099-0.003-0.149-0.003c-2.166,0-3.948,1.986-3.948,4.1c0,1.083,0.436,2.132,1.2,2.897
		c0.792,0.792,1.795,1.152,2.897,1.2c5.257,0.227,10.515,0.417,15.773,0.604c1.489,0.053,2.977,0.06,4.466,0.08
		c2.841,0.039,5.703-0.047,8.531,0.24c0.184,0.038,0.366,0.081,0.551,0.131c1.601,0.437,3.341-0.267,4.179-1.702
		c0.501-0.855,0.636-1.896,0.373-2.851c-0.269-0.974-0.882-1.661-1.702-2.213C711.304,249.691,710.516,249.413,709.734,249.167z"/>
	<path style="fill:#FFD34E;" d="M660.913,285.444c-1.171,0.323-2.189,1.107-2.802,2.155c-0.634,1.084-0.806,2.403-0.474,3.614
		c0.309,1.122,1.103,2.258,2.156,2.803c5.287,2.74,10.576,5.475,15.868,8.207c3.006,1.552,6.01,3.122,9.055,4.596
		c2.3,1.113,4.596,2.311,7.002,3.181c0.777,0.209,1.556,0.209,2.334,0c1.098-0.303,2.049-1.037,2.624-2.018
		c1.217-2.082,0.475-4.781-1.575-6.007c-1.779-1.065-3.631-2.011-5.459-2.988c-1.756-0.939-3.525-1.854-5.289-2.779
		c-3.582-1.879-7.18-3.733-10.77-5.596c-3.018-1.566-6.037-3.13-9.056-4.694c-0.775-0.402-1.583-0.637-2.417-0.637
		C661.716,285.28,661.318,285.332,660.913,285.444z"/>
	<path style="fill:#FFD34E;" d="M640.711,338.946c0.966,1.573,1.946,3.135,2.936,4.692c0.783,1.229,1.577,2.448,2.383,3.662
		c0.368,0.555,0.745,1.1,1.128,1.646c0.615,0.878,1.248,1.776,1.976,2.561c1.233,1.33,3.39,1.529,4.919,0.635
		c1.875-1.098,2.619-3.671,1.457-5.555c-1.084-1.757-2.091-3.567-3.13-5.352c-0.882-1.516-1.767-3.031-2.664-4.54
		c-1.906-3.208-3.813-6.412-5.648-9.661c-2.101-3.722-4.183-7.45-6.232-11.202c-0.781-1.43-2.332-2.206-3.892-2.206
		c-0.779,0-1.561,0.194-2.249,0.596c-1.003,0.586-1.753,1.56-2.061,2.681c-0.327,1.187-0.13,2.39,0.452,3.457
		c2.562,4.698,5.196,9.352,7.831,14.01C638.797,335.924,639.778,337.425,640.711,338.946z"/>
	<path style="fill:#FFD34E;" d="M604.636,360.077c-0.534-3.051-1.009-6.113-1.489-9.173c-0.224-2.318-0.443-4.635-0.666-6.953
		c-0.128-1.335-0.255-2.671-0.384-4.006c-0.194-2.027-0.262-4.064-0.379-6.097c-0.057-0.984-0.354-1.86-1.064-2.57
		c-0.68-0.678-1.611-1.065-2.571-1.065c-0.959,0-1.892,0.387-2.57,1.065c-0.647,0.647-1.117,1.636-1.064,2.57
		c0.107,1.919,0.161,3.846,0.338,5.759c0.084,0.912,0.17,1.825,0.254,2.737c0.24,2.593,0.48,5.186,0.722,7.779
		c0.155,1.679,0.425,3.335,0.684,5.002c0.297,1.916,0.558,3.842,0.897,5.751c0.334,1.883,0.649,3.772,1.02,5.649
		c0.409,2.061,0.767,4.162,1.436,6.159c0.296,0.883,0.792,1.616,1.612,2.095c0.81,0.475,1.798,0.604,2.703,0.354
		c0.877-0.241,1.636-0.828,2.096-1.612c0.492-0.843,0.563-1.767,0.353-2.703c-0.389-1.74-0.668-3.506-0.973-5.262
		C605.273,363.729,604.955,361.903,604.636,360.077z"/>
	<path style="fill:#FFD34E;" d="M544.313,363.36c0.248-1.117,0.532-2.21,0.836-3.314c0.205-0.744,0.41-1.488,0.615-2.232
		c0.274-0.995,0.598-1.973,0.911-2.957c0.978-3.09,2.126-6.118,3.369-9.111c0.654-1.519,1.386-3.006,2.352-4.35
		c0.543-0.643,1.146-1.216,1.797-1.747c0.169-0.123,0.339-0.245,0.511-0.364c0.21-0.147,0.465-0.233,0.699-0.335
		c0.546-0.239,0.968-0.905,1.118-1.453c0.172-0.628,0.084-1.313-0.246-1.875c-0.318-0.544-0.845-0.95-1.453-1.118
		c-0.216-0.029-0.431-0.057-0.647-0.087c-0.438,0.001-0.848,0.113-1.228,0.332c-0.437,0.191-0.807,0.406-1.195,0.685
		c-0.502,0.361-0.987,0.749-1.457,1.149c-0.931,0.792-1.695,1.75-2.391,2.75c-1.305,1.877-2.164,4.051-3.019,6.156
		c-0.829,2.046-1.676,4.085-2.413,6.167c-0.565,1.59-1.099,3.194-1.608,4.804c-0.527,1.662-1.08,3.315-1.543,4.996
		c-0.222,0.809-0.459,1.613-0.645,2.432c-0.108,0.478-0.217,0.954-0.326,1.43c-0.129,0.569-0.198,1.16-0.271,1.736
		c-0.075,0.586-0.114,1.147-0.067,1.736c0.062,0.775,0.266,1.441,0.83,2.005c0.529,0.529,1.257,0.831,2.006,0.831
		c0.749,0,1.475-0.301,2.004-0.831c0.351-0.354,0.596-0.771,0.73-1.252c0.124-0.462,0.133-0.924,0.03-1.387
		c-0.027-0.512,0.01-1.025,0.067-1.535C543.868,365.529,544.071,364.447,544.313,363.36z"/>
	<path style="fill:#FFD34E;" d="M490.154,340.875c0.404,0.235,0.841,0.353,1.311,0.354c0.468-0.001,0.905-0.119,1.309-0.354
		c1.579-0.718,2.805-2.054,4.04-3.242c0.685-0.658,1.366-1.32,2.048-1.981c1.364-1.319,2.748-2.615,4.125-3.92
		c1.479-1.4,3.003-2.755,4.505-4.132c1.198-1.099,2.414-2.181,3.624-3.267c1.124-1.008,2.247-2.016,3.371-3.025
		c1.846-1.656,3.696-3.322,5.649-4.85c0.359-0.273,0.712-0.551,1.051-0.848c0.113-0.099,0.225-0.199,0.336-0.298
		c0.026,0.033,0.055,0.065,0.084,0.095c0.216,0.216,0.51,0.338,0.814,0.338c0.276,0,0.634-0.113,0.813-0.338
		c0.335-0.418,0.673-0.835,1.01-1.252c0.203-0.254,0.345-0.493,0.345-0.832c0-0.303-0.122-0.622-0.345-0.832
		c-0.284-0.266-0.56-0.524-0.949-0.631c-0.129-0.036-0.264-0.051-0.4-0.051c-0.375,0-0.765,0.117-1.094,0.253
		c-0.958,0.398-1.733,1.101-2.535,1.744c-0.435,0.325-0.884,0.632-1.321,0.955c-0.525,0.387-1.038,0.788-1.551,1.19
		c-1.098,0.86-2.168,1.755-3.249,2.635c-0.661,0.54-1.318,1.081-1.976,1.626c-1.74,1.438-3.48,2.877-5.221,4.315
		c-2.983,2.464-5.988,4.897-9.009,7.313c-0.095,0.076-0.189,0.152-0.283,0.227c-0.736,0.564-1.471,1.129-2.207,1.693
		c-0.427,0.328-0.867,0.643-1.3,0.965c-0.625,0.463-1.255,0.919-1.948,1.275c-0.141,0.048-0.283,0.09-0.428,0.131
		c-1.362,0.379-2.19,1.827-1.813,3.194C489.139,339.973,489.574,340.536,490.154,340.875z"/>
	<path style="fill:#FFD34E;" d="M473.76,297.237c9.178-1.771,18.351-3.555,27.545-5.239c0.896-0.163,1.746-0.924,2.19-1.684
		c0.495-0.847,0.631-1.878,0.37-2.824c-0.252-0.916-0.866-1.711-1.685-2.191c-0.585-0.343-1.174-0.473-1.788-0.473
		c-0.336,0-0.68,0.039-1.035,0.104c-5.473,1.001-10.938,2.027-16.401,3.08c-2.658,0.513-5.315,1.026-7.973,1.539
		c-1.107,0.213-2.221,0.407-3.325,0.643c-4.017,0.855-8.032,1.711-12.048,2.566c-1.433,0.305-2.862,0.634-4.293,0.953
		c-1.037,0.231-2.075,0.463-3.113,0.693c-1.588,0.355-3.164,0.737-4.772,0.985c-0.268,0.036-0.536,0.072-0.803,0.108
		c-0.586,0.164-1.094,0.46-1.525,0.889c-0.645,0.645-1.012,1.531-1.012,2.444c0,0.912,0.368,1.798,1.012,2.443
		c0.668,0.668,1.513,0.973,2.444,1.012c2.183,0.092,4.39-0.417,6.516-0.87c1.119-0.239,2.24-0.476,3.36-0.715
		c1.487-0.316,2.974-0.632,4.462-0.947c2.464-0.522,4.928-1.043,7.393-1.566C470.77,297.87,472.261,297.526,473.76,297.237z"/>
	<path style="fill:#FFD34E;" d="M466.7,250.408c1.92,0.498,3.89,0.795,5.846,1.111c1.803,0.292,3.608,0.57,5.414,0.84
		c4.044,0.607,8.085,1.228,12.126,1.851c3.637,0.56,7.271,1.13,10.906,1.704c0.284,0.039,0.567,0.077,0.851,0.115
		c0.578-0.003,1.118-0.148,1.617-0.438c0.716-0.418,1.251-1.113,1.472-1.913c0.228-0.828,0.11-1.729-0.323-2.468
		c-0.381-0.65-1.139-1.35-1.915-1.472c-9.106-1.443-18.214-2.923-27.363-4.078c-2.617-0.33-5.235-0.693-7.867-0.898
		c-0.518,0.001-1.003,0.133-1.451,0.392c-0.643,0.377-1.124,1-1.322,1.718C464.281,248.364,465.184,250.015,466.7,250.408z"/>
	<path style="fill:#FFD34E;" d="M466.299,190.478c0.556,0.444,1.13,0.803,1.738,1.168c0.76,0.456,1.564,0.84,2.352,1.246
		c1.054,0.542,2.107,1.084,3.162,1.627c1.771,0.912,3.585,1.749,5.378,2.619c1.567,0.761,3.136,1.516,4.704,2.273
		c1.425,0.688,2.871,1.342,4.268,2.087c2.217,1.182,4.437,2.364,6.655,3.547c3.045,1.624,6.044,3.386,8.801,5.468
		c2.795,2.218,5.28,4.764,7.66,7.414c0.889,0.989,2.548,0.902,3.451,0c0.456-0.456,0.715-1.081,0.715-1.726
		c0-0.674-0.274-1.232-0.715-1.725c-1.787-1.996-3.626-3.935-5.608-5.74c-2.086-1.898-4.354-3.567-6.725-5.093
		c-1.281-0.825-2.577-1.636-3.912-2.372c-1.01-0.556-2.018-1.113-3.026-1.669c-1.193-0.657-2.384-1.313-3.576-1.97
		c-0.544-0.3-1.081-0.624-1.638-0.902c-1.926-0.962-3.841-1.946-5.762-2.92c-2.155-1.092-4.297-2.208-6.44-3.322
		c-0.828-0.43-1.643-0.875-2.457-1.329c0.042-0.003,0.085-0.006,0.127-0.009c0.742-0.053,1.39-0.26,1.928-0.799
		c0.509-0.509,0.799-1.208,0.799-1.928c0-1.439-1.208-2.728-2.669-2.728c-0.02,0-0.039,0-0.059,0.001
		c-0.91,0.022-1.822,0.073-2.73,0.155c-0.483,0.043-0.966,0.087-1.449,0.13c-0.792,0.072-1.579,0.14-2.369,0.247
		c-0.702,0.094-1.353,0.289-2.029,0.491c-0.723,0.216-1.339,0.669-1.723,1.326c-0.262,0.449-0.392,0.935-0.395,1.456
		c0.003,0.52,0.133,1.006,0.395,1.455C465.425,189.546,465.784,190.065,466.299,190.478z"/>
	<path style="fill:#FFD34E;" d="M513.992,168.142c0.486,0.772,0.94,1.577,1.467,2.323c1.297,1.836,2.571,3.691,3.912,5.496
		c1.711,2.303,3.437,4.596,5.246,6.823c1.721,2.117,3.55,4.147,5.411,6.14c1.867,1.997,3.786,3.946,5.721,5.878
		c1.934,1.934,3.951,3.77,5.953,5.633c0.569,0.529,1.259,0.848,2.046,0.848c0.764,0,1.506-0.308,2.046-0.848
		c1.087-1.086,1.152-3.015,0-4.091c-1.597-1.493-3.231-2.946-4.784-4.485c-1.631-1.616-3.239-3.257-4.829-4.912
		c-2.997-3.12-5.887-6.336-8.55-9.746c-1.329-1.729-2.658-3.473-3.904-5.263c-0.799-1.147-1.599-2.293-2.398-3.441
		c-0.486-0.696-0.955-1.392-1.413-2.107c-0.829-1.295-1.676-2.57-2.361-3.946c-0.015-0.047-0.028-0.094-0.04-0.141
		c-0.083-0.69-0.298-1.29-0.814-1.808c-0.533-0.532-1.265-0.836-2.019-0.836c-0.754,0-1.486,0.304-2.019,0.836
		c-0.555,0.555-0.799,1.25-0.837,2.021c-0.072,1.486,0.6,2.842,1.278,4.124C513.377,167.155,513.68,167.646,513.992,168.142z"/>
	<path style="fill:#FFD34E;" d="M538.139,129.551c0.084,0.567,0.281,1.126,0.463,1.668c0.252,0.753,0.546,1.497,0.847,2.231
		c0.465,1.136,0.931,2.271,1.396,3.407c0.763,1.86,1.563,3.703,2.36,5.55c1.472,3.41,2.931,6.824,4.386,10.241
		c1.16,2.723,2.322,5.446,3.48,8.17c1.146,3.305,2.312,6.602,3.466,9.903c0.698,1.993,1.395,3.987,2.094,5.98
		c0.776,2.217,1.335,4.489,1.953,6.755c0.51,1.879,2.524,3.014,4.398,2.497c1.885-0.518,3.004-2.517,2.497-4.398
		c-0.498-1.844-0.892-3.74-1.517-5.547c-0.21-0.605-0.419-1.212-0.628-1.817c-0.848-2.448-1.695-4.896-2.542-7.342
		c-0.786-2.273-1.571-4.546-2.358-6.819c-0.285-0.821-0.59-1.613-0.924-2.415c-1.826-4.391-3.651-8.782-5.479-13.172
		c-1.256-3.017-2.535-6.029-3.718-9.075c-0.448-1.155-0.896-2.309-1.345-3.463c-0.518-1.335-1.093-2.684-1.422-4.083
		c0.002-0.108,0.009-0.217,0.02-0.331c-0.003-0.679-0.174-1.311-0.514-1.897c-0.491-0.841-1.307-1.47-2.247-1.729
		c-0.313-0.086-0.634-0.127-0.955-0.128c-1.646,0-3.282,1.083-3.671,2.755c-0.103,0.444-0.259,1.134-0.233,1.517
		C537.981,128.525,538.062,129.038,538.139,129.551z"/>
</g>
</svg>