<?xml version="1.0" encoding="utf-8"?>
<svg version="1.1" xmlns="http://www.w3.org/2000/svg" xmlns:xlink="http://www.w3.org/1999/xlink" viewBox="109 476 210 220" xml:space="preserve">
<g>
	<path style="fill:#FFD34E;" d="M279.595,587.578c0.285-2.702,0.389-5.421,0.296-8.135c-0.082-2.395-0.356-4.783-0.799-7.14
		c0.057-0.94,0.093-1.881,0.11-2.821c0.094-5.349-0.588-10.731-2.063-15.871c-0.741-2.584-1.711-5.089-2.794-7.545
		c-1.025-2.324-2.228-4.57-3.58-6.721c-2.744-4.367-6.228-8.284-10.159-11.614c-1.996-1.692-4.12-3.24-6.359-4.599
		c-2.303-1.395-4.748-2.535-7.257-3.506c-4.324-1.672-8.948-2.401-13.572-2.402c-0.655,0-1.309,0.015-1.962,0.043
		c-2.552,0.112-5.078,0.448-7.561,0.983c-3.508-0.303-7.051-0.239-10.54,0.159c-2.734,0.312-5.429,0.82-8.083,1.552
		c-2.702,0.745-5.326,1.733-7.902,2.831c-4.808,2.049-9.379,4.607-13.652,7.615c-4.327,3.046-8.359,6.52-11.956,10.402
		c-0.22,0.238-0.439,0.477-0.656,0.717c-0.263,0.263-0.523,0.529-0.781,0.797c-1.859,1.935-3.559,4.004-5.184,6.136
		c-1.531,2.006-2.932,4.113-4.211,6.288c-2.703,4.599-4.873,9.547-6.549,14.606c-1.683,5.078-2.695,10.348-3.068,15.682
		c-0.278,3.981-0.149,7.984,0.309,11.947c-0.001,0.003-0.001,0.006-0.001,0.01c-0.41,2.668-0.632,5.352-0.546,8.051
		c0.081,2.561,0.422,5.129,0.92,7.641c0.476,2.399,1.178,4.755,2.094,7.022c0.946,2.345,2.091,4.562,3.551,6.63
		c1.512,2.143,3.251,4.121,5.163,5.912c1.888,1.769,3.973,3.361,6.173,4.722c2.186,1.353,4.582,2.376,7.007,3.215
		c0.394,0.136,0.791,0.266,1.19,0.388c1.218,0.856,2.471,1.662,3.767,2.402c2.224,1.269,4.577,2.31,6.961,3.238
		c4.661,1.814,9.57,2.992,14.515,3.702c5.341,0.767,10.739,0.848,16.104,0.286c2.706-0.284,5.396-0.721,8.045-1.333
		c1.579-0.365,3.138-0.815,4.675-1.329c0.732-0.07,1.463-0.163,2.194-0.277c2.539-0.395,5.021-1.149,7.408-2.088
		c2.489-0.98,4.886-2.16,7.151-3.58c2.251-1.411,4.363-3.061,6.369-4.799c3.976-3.44,7.462-7.417,10.549-11.666
		c3.092-4.257,5.691-8.855,7.916-13.617c2.344-5.011,4.289-10.238,5.475-15.648C278.902,593.138,279.301,590.356,279.595,587.578z
		 M159.324,596.708c-0.189-1.519-0.332-3.042-0.424-4.567c0.036-0.331,0.076-0.661,0.118-0.991c0.039-0.273,0.085-0.546,0.128-0.819
		c0.055,1.14,0.184,2.275,0.356,3.406c0.046,0.305,0.103,0.606,0.169,0.906C159.543,595.329,159.429,596.018,159.324,596.708z
		 M165.967,560.02c-0.499,0.745-0.999,1.49-1.498,2.234C164.939,561.491,165.44,560.747,165.967,560.02z M166.005,577.777
		c-0.739,1.195-1.392,2.444-1.987,3.718c0.179-1.159,0.385-2.315,0.613-3.466c0.184-0.288,0.371-0.574,0.559-0.859
		c0.377-0.422,0.752-0.844,1.127-1.268C166.205,576.525,166.1,577.15,166.005,577.777z M211.814,528.018
		c0.376-0.032,0.753-0.06,1.129-0.083c-1.059,0.385-2.11,0.791-3.153,1.218C210.458,528.762,211.132,528.384,211.814,528.018z
		 M182.278,606.084c0.031,0.036,0.063,0.073,0.095,0.109c0.205,0.755,0.41,1.51,0.615,2.266c0.13,0.482,0.303,0.951,0.463,1.425
		c0.112,0.331,0.224,0.663,0.337,0.994c-0.974-1.618-1.847-3.295-2.604-5.04c-0.292-0.704-0.561-1.417-0.821-2.133
		C180.971,604.522,181.613,605.315,182.278,606.084z M175.9,545.132c-0.487,0.285-0.966,0.583-1.444,0.882
		c0.26-0.294,0.512-0.595,0.777-0.884c1.035-1.03,2.111-2.018,3.219-2.969C177.58,543.132,176.723,544.118,175.9,545.132z
		 M185.176,636.631c-0.131-0.019-0.261-0.038-0.391-0.058c-2.064-0.966-3.994-2.153-5.82-3.526
		c-0.797-0.632-1.569-1.292-2.319-1.976c0.428,0.045,0.856,0.084,1.282,0.113c0.647,0.045,1.298,0.065,1.949,0.063
		c0.076,0.099,0.153,0.197,0.23,0.295c0.364,0.464,0.75,0.897,1.177,1.307c0.943,0.909,2.063,1.611,3.259,2.129
		c0.78,0.338,1.569,0.615,2.377,0.845c0.146,0.09,0.292,0.182,0.439,0.27c0.494,0.295,0.996,0.577,1.505,0.847
		C187.631,636.895,186.401,636.783,185.176,636.631z M194.869,534.202c-0.169-0.014-0.336-0.024-0.497-0.034
		c-0.332-0.021-0.668-0.016-1.004,0.009c0.018-0.163,0.035-0.326,0.055-0.49c0.028-0.226-0.027-0.471-0.125-0.701
		c0.234-0.104,0.465-0.213,0.7-0.314c1.515-0.628,3.053-1.206,4.61-1.73C197.324,531.986,196.079,533.076,194.869,534.202z
		 M206.653,628.379c-0.179,0.084-0.359,0.165-0.54,0.246c-0.294,0.118-0.59,0.229-0.887,0.333c-1.055-0.221-2.106-0.459-3.15-0.726
		c-0.549-0.293-1.092-0.596-1.629-0.909c0.234-0.231,0.47-0.462,0.691-0.706c0.296-0.326,0.58-0.666,0.852-1.017
		c0.827,0.378,1.684,0.673,2.56,0.895c0.77,0.612,1.572,1.185,2.395,1.721C206.847,628.269,206.751,628.326,206.653,628.379z
		 M208.232,646.137c1.74-0.211,3.469-0.498,5.182-0.867c0.892,0.276,1.79,0.53,2.695,0.762
		C213.488,646.225,210.856,646.263,208.232,646.137z M219.915,531.962c-0.082,0.03-0.164,0.06-0.246,0.09
		c-0.139-0.017-0.277-0.034-0.416-0.05c-0.112-0.013-0.225-0.021-0.337-0.033c0.521-0.164,1.043-0.322,1.567-0.474
		C220.292,531.648,220.103,531.804,219.915,531.962z M226.176,579.256c0.159-0.019,0.317-0.035,0.476-0.052
		c0.046,0.043,0.094,0.084,0.14,0.128c-0.627,0.006-1.252,0.055-1.872,0.138C225.338,579.392,225.756,579.319,226.176,579.256z
		 M226.379,620.353c0.108-0.096,0.218-0.192,0.324-0.29c0.128,0.052,0.255,0.107,0.384,0.158c0.099,0.039,0.198,0.076,0.297,0.114
		C227.049,620.347,226.714,620.349,226.379,620.353z M234.586,538.355c0.033-0.004,0.066-0.008,0.099-0.012
		c-0.039,0.028-0.079,0.056-0.118,0.085c-0.025-0.02-0.05-0.039-0.074-0.059C234.524,538.365,234.555,538.36,234.586,538.355z
		 M235.065,550.509c-0.738-0.094-1.466-0.141-2.199-0.143c0.793-0.064,1.588-0.109,2.382-0.142c0.021,0.037,0.04,0.076,0.061,0.113
		C235.228,550.394,235.146,550.451,235.065,550.509z M241.379,523.382c-0.328-0.177-0.657-0.35-0.99-0.517
		c0.8,0.174,1.589,0.386,2.373,0.616C242.303,523.432,241.842,523.399,241.379,523.382z M261.936,556.12
		c-0.184-0.322-0.374-0.641-0.576-0.954c-0.101-0.596-0.212-1.19-0.331-1.782c0.32,0.442,0.634,0.89,0.944,1.34
		C261.965,555.189,261.954,555.655,261.936,556.12z M265.903,561.917c0.021-0.18,0.041-0.361,0.061-0.542
		c0.359,0.704,0.707,1.413,1.038,2.131C266.659,562.963,266.287,562.436,265.903,561.917z M267.725,544.442
		c-0.072-0.097-0.609-0.792-0.465-0.604c-0.066-0.086-0.133-0.172-0.199-0.258c-0.578-0.732-1.186-1.442-1.821-2.128
		c-0.053-0.206-0.111-0.412-0.18-0.615c-0.427-1.262-1.133-2.49-2.072-3.438c-0.829-0.837-2.014-1.313-3.152-1.562
		c-0.703-0.733-1.528-1.351-2.387-1.891c-0.488-0.306-1.019-0.555-1.553-0.774c-0.49-1.069-1.051-2.086-1.752-3.046
		c-0.628-0.86-1.319-1.663-2.076-2.407c1.175,0.73,2.318,1.513,3.425,2.351c3.145,2.478,5.988,5.316,8.466,8.461
		c1.472,1.947,2.781,4.005,3.94,6.146C267.842,544.598,267.784,544.52,267.725,544.442z"/>
	<path style="fill:#FFD34E;" d="M220.056,482.61c-0.256-0.071-0.521-0.106-0.784-0.106c-0.525,0-1.049,0.138-1.505,0.406
		c-0.63,0.368-1.214,1.045-1.366,1.775c-0.567,2.742-0.615,5.582-0.746,8.371c-0.134,2.871-0.195,5.749-0.284,8.622
		c-0.053,1.706,1.463,3.129,3.128,3.129c1.745,0,3.078-1.425,3.129-3.129c0.086-2.84,0.172-5.681,0.251-8.522
		c0.033-1.182,0.054-2.365,0.1-3.547c0.054-1.38,0.088-2.763,0.259-4.133c-0.001-0.537-0.137-1.037-0.406-1.501
		C221.443,483.312,220.798,482.815,220.056,482.61z"/>
	<path style="fill:#FFD34E;" d="M246.848,494.888c0.16-0.328,0.339-0.642,0.544-0.945c0.063-0.072,0.127-0.143,0.192-0.214
		c0.408-0.457,0.662-0.974,0.662-1.6c0-0.598-0.24-1.178-0.662-1.601c-0.434-0.434-1.023-0.654-1.61-0.654
		c-0.581,0-1.161,0.216-1.589,0.654c-0.829,0.851-1.467,1.806-1.9,2.913c-0.377,0.965-0.544,1.949-0.688,2.97
		c-0.159,1.137-0.316,2.272-0.387,3.418c-0.068,1.094-0.048,2.196,0.005,3.291c0.03,0.613,0.225,1.168,0.666,1.611
		c0.426,0.425,1.01,0.666,1.612,0.666c1.195,0,2.337-1.037,2.277-2.277c-0.074-1.563-0.052-3.122,0.137-4.674
		C246.272,497.245,246.445,496.035,246.848,494.888z"/>
	<path style="fill:#FFD34E;" d="M273.039,502.062c-0.226,0-0.454,0.028-0.681,0.086c-0.984,0.254-1.881,0.684-2.702,1.28
		c-0.932,0.676-1.787,1.441-2.639,2.213c-0.772,0.7-1.505,1.425-2.194,2.208c-0.734,0.832-1.41,1.704-2.088,2.581
		c-0.442,0.574-0.472,1.551-0.289,2.213c0.198,0.718,0.677,1.342,1.32,1.717c0.664,0.389,1.471,0.494,2.213,0.29
		c0.228-0.096,0.457-0.193,0.685-0.29c0.431-0.255,0.775-0.598,1.03-1.028c0.829-1.054,1.718-2.066,2.671-3.01
		c0.513-0.509,1.046-0.996,1.563-1.501c0.408-0.397,0.828-0.784,1.265-1.151c0.266-0.182,0.538-0.344,0.831-0.483
		c0.129-0.055,0.259-0.109,0.388-0.164c0.4-0.237,0.719-0.556,0.957-0.957c0.36-0.616,0.459-1.366,0.269-2.056
		C275.311,502.821,274.215,502.062,273.039,502.062z"/>
	<path style="fill:#FFD34E;" d="M286.529,533.046c0.522-0.59,1.073-1.16,1.676-1.671c1.19-0.851,2.481-1.515,3.821-2.097
		c0.632-0.259,1.273-0.5,1.911-0.748c1.099-0.43,2.226-0.709,3.38-0.925c0.307-0.03,0.611-0.054,0.922-0.064
		c1.315-0.046,2.415-1.064,2.415-2.415c0-1.33-1.099-2.395-2.415-2.414c-0.061-0.001-0.122-0.001-0.183-0.001
		c-0.914,0-1.831,0.094-2.733,0.248c-1.307,0.224-2.536,0.624-3.772,1.087c-1.339,0.499-2.671,1.038-3.932,1.711
		c-0.806,0.429-1.578,0.924-2.303,1.478c-0.871,0.665-1.649,1.404-2.375,2.224c-0.456,0.516-0.744,1.09-0.744,1.794
		c0,0.67,0.27,1.32,0.744,1.794C283.874,533.979,285.612,534.083,286.529,533.046z"/>
	<path style="fill:#FFD34E;" d="M290.934,546.904c-0.953,0.228-1.51,1.29-1.257,2.212c0.266,0.965,1.261,1.489,2.212,1.255
		c3.521-0.86,7.041-1.725,10.558-2.6c1.448-0.36,2.893-0.726,4.341-1.079c1.665-0.407,3.326-0.841,5.011-1.153
		c0.688-0.128,1.17-0.874,1.17-1.536c0-0.421-0.17-0.828-0.467-1.125c-0.248-0.248-0.656-0.473-1.027-0.473
		c-0.034,0-0.067,0.002-0.099,0.006c-1.797,0.206-3.551,0.586-5.319,0.957c-1.497,0.314-2.984,0.67-4.475,1.007
		C298.024,545.179,294.479,546.052,290.934,546.904z"/>
	<path style="fill:#FFD34E;" d="M314.549,569.646c-0.396-0.195-0.803-0.362-1.215-0.525c-0.331-0.056-0.663-0.103-0.997-0.141
		c-0.18-0.019-0.362-0.027-0.544-0.026c-0.081-0.002-0.162-0.002-0.243-0.002c-0.775,0-1.55,0.067-2.323,0.127
		c-0.625,0.049-1.252,0.099-1.878,0.151c-1.106,0.092-2.213,0.179-3.318,0.281c-3.251,0.297-6.503,0.596-9.754,0.9
		c-0.258,0.034-0.516,0.069-0.773,0.103c-0.494,0.138-0.923,0.389-1.286,0.75c-0.544,0.543-0.853,1.291-0.853,2.06
		s0.309,1.516,0.853,2.06c0.502,0.502,1.328,0.923,2.06,0.853c3.197-0.303,6.392-0.608,9.587-0.914
		c0.942-0.091,1.882-0.187,2.822-0.282c0.611-0.062,1.221-0.124,1.832-0.185c0.574-0.058,1.145-0.134,1.716-0.198
		c0.666-0.073,1.358-0.167,2.034-0.159c0.07,0.019,0.139,0.039,0.208,0.062c1.158,0.334,2.434-0.205,3.037-1.235
		c0.364-0.622,0.463-1.379,0.271-2.072C315.612,570.621,315.153,569.945,314.549,569.646z"/>
	<path style="fill:#FFD34E;" d="M306.552,607.756c-0.448-0.305-0.9-0.593-1.361-0.875c-0.491-0.301-0.974-0.628-1.483-0.897
		c-1.043-0.552-2.077-1.128-3.141-1.638c-1.624-0.777-3.249-1.555-4.878-2.322c-0.281-0.118-0.563-0.237-0.844-0.356
		c-0.314-0.084-0.627-0.126-0.94-0.126c-0.313,0-0.626,0.042-0.94,0.126c-0.882,0.243-1.649,0.833-2.111,1.624
		c-0.478,0.815-0.608,1.81-0.355,2.722c0.224,0.817,0.83,1.74,1.623,2.112c2.673,1.256,5.331,2.535,7.965,3.87
		c0.932,0.474,1.859,0.957,2.793,1.429c1.247,0.632,2.502,1.254,3.709,1.964c1.178,0.693,2.722,0.489,3.685-0.475
		c1.125-1.125,1.236-3.194,0-4.302C309.108,609.568,307.844,608.637,306.552,607.756z"/>
	<path style="fill:#FFD34E;" d="M299.985,634.062c-0.95-0.908-1.916-1.794-2.886-2.679c-2.231-2.035-4.506-4.023-6.771-6.018
		c-0.441-0.388-0.927-0.634-1.528-0.634c-0.57,0-1.124,0.231-1.528,0.634c-0.403,0.403-0.632,0.957-0.632,1.526
		c0,0.537,0.217,1.166,0.632,1.528c2.242,1.951,4.483,3.904,6.74,5.836c0.996,0.854,1.992,1.706,2.982,2.563
		c0.905,0.783,1.843,1.55,2.657,2.427c0.575,0.622,1.581,0.715,2.295,0.297c0.425-0.248,0.741-0.66,0.871-1.133
		c0.125-0.452,0.091-1.064-0.191-1.459C301.863,635.883,300.931,634.967,299.985,634.062z"/>
	<path style="fill:#FFD34E;" d="M286.331,656.44c-0.734-1.267-1.484-2.525-2.231-3.784c-1.693-2.856-3.419-5.695-5.139-8.535
		c-0.456-0.754-1.271-1.189-2.104-1.189c-0.406,0-0.817,0.103-1.193,0.323c-1.118,0.654-1.55,2.176-0.866,3.299
		c1.708,2.799,3.413,5.603,5.141,8.389c1.522,2.452,3.071,4.888,4.58,7.348c0.63,1.029,1.972,1.414,3.029,0.795
		c0.495-0.29,0.866-0.771,1.018-1.323c0.168-0.611,0.042-1.152-0.223-1.707C287.747,658.814,287.021,657.631,286.331,656.44z"/>
	<path style="fill:#FFD34E;" d="M264.861,672.164c-0.616-1.282-1.191-2.595-1.752-3.905c-0.491-1.191-0.998-2.417-1.26-3.682
		c-0.019-0.355-0.012-0.707,0.014-1.06c0.036-0.154,0.081-0.301,0.138-0.458c0.285-0.775,0.081-1.779-0.323-2.47
		c-0.419-0.716-1.114-1.252-1.916-1.472c-0.276-0.076-0.561-0.114-0.846-0.114c-0.566,0-1.131,0.149-1.624,0.437
		c-0.765,0.448-1.175,1.106-1.472,1.915c-0.219,0.593-0.282,1.246-0.347,1.87c-0.06,0.59-0.071,1.166-0.01,1.756
		c0.071,0.687,0.183,1.356,0.364,2.02c0.159,0.586,0.385,1.155,0.598,1.721c0.665,1.765,1.434,3.485,2.242,5.188
		c0.783,1.653,1.604,3.3,2.719,4.759c0.16,0.208,0.32,0.415,0.48,0.623c0.384,0.383,0.837,0.646,1.36,0.792
		c0.795,0.219,1.661,0.106,2.372-0.311c0.689-0.403,1.204-1.071,1.415-1.84c0.208-0.753,0.137-1.708-0.311-2.373
		C265.982,674.486,265.421,673.328,264.861,672.164z"/>
	<path style="fill:#FFD34E;" d="M231.103,676.762c-0.898-3.43-1.825-6.854-2.741-10.28c-0.381-1.428-1.732-2.378-3.154-2.378
		c-0.278,0-0.558,0.036-0.835,0.112c-1.714,0.472-2.723,2.284-2.266,3.991c0.909,3.403,1.816,6.806,2.732,10.208
		c0.817,3.035,1.658,6.068,2.433,9.116c0.427,1.676,2.263,2.669,3.907,2.217c0.794-0.219,1.482-0.749,1.897-1.459
		c0.448-0.765,0.508-1.597,0.32-2.447C232.724,682.795,231.894,679.78,231.103,676.762z"/>
	<path style="fill:#FFD34E;" d="M207.679,665.768c-0.236-0.065-0.479-0.097-0.722-0.097c-0.483,0-0.964,0.127-1.384,0.372
		c-0.548,0.32-1.161,0.974-1.257,1.634c-0.932,6.494-1.848,12.988-2.725,19.49c0.006-0.048,0.013-0.095,0.019-0.143
		c-0.015,0.115-0.031,0.23-0.046,0.345c0.003-0.023,0.006-0.047,0.01-0.071c-0.006,0.045-0.012,0.09-0.018,0.135
		c0,0,0,0.001,0,0.001c0.003-0.022,0.006-0.043,0.009-0.065c-0.014,0.105-0.028,0.21-0.042,0.315
		c0.009-0.066,0.018-0.131,0.027-0.197c-0.009,0.07-0.019,0.139-0.028,0.209c0.001-0.004,0.001-0.008,0.002-0.012
		c-0.011,0.084-0.023,0.168-0.034,0.252c-0.015,0.109-0.031,0.218-0.046,0.328c-0.03,0.225-0.061,0.449-0.091,0.673
		c0.001,0.457,0.117,0.882,0.346,1.277c0.331,0.566,0.879,0.989,1.512,1.163c1.334,0.368,2.741-0.44,3.113-1.767
		c0.221-0.787,0.349-1.6,0.497-2.403c0.134-0.73,0.252-1.464,0.376-2.197c0.267-1.59,0.509-3.186,0.758-4.781
		c0.578-3.694,1.098-7.398,1.635-11.099c0.033-0.241,0.065-0.484,0.098-0.726c-0.001-0.494-0.126-0.954-0.373-1.38
		C208.954,666.413,208.361,665.957,207.679,665.768z M201.5,687.847c0.006-0.049,0.013-0.098,0.019-0.146
		c0.006-0.042,0.011-0.083,0.017-0.125C201.525,687.667,201.512,687.757,201.5,687.847z M201.583,687.235
		c0.001-0.007,0.002-0.014,0.003-0.021c0.003-0.018,0.005-0.036,0.007-0.053C201.589,687.185,201.586,687.21,201.583,687.235z"/>
	<path style="fill:#FFD34E;" d="M190.202,664.259c-0.371-0.217-0.796-0.328-1.222-0.328c-0.214,0-0.429,0.028-0.637,0.085
		c-0.193,0.081-0.385,0.163-0.577,0.243c-0.362,0.216-0.651,0.503-0.866,0.866c-0.624,0.828-1.025,1.813-1.417,2.766
		c-0.369,0.897-0.672,1.809-0.92,2.746c-0.4,1.513-0.67,3.073-0.943,4.614c-0.285,1.612-0.57,3.225-0.855,4.838
		c-0.229,1.3-0.451,2.604-0.655,3.908c-0.277,1.752-0.571,3.506-0.73,5.273c-0.054,0.608,0.289,1.289,0.707,1.706
		c0.451,0.451,1.069,0.707,1.706,0.707c0.638,0,1.257-0.256,1.707-0.707c0.126-0.163,0.251-0.326,0.377-0.488
		c0.219-0.376,0.328-0.782,0.33-1.217c0.008-0.066,0.016-0.133,0.024-0.199c0.373-2.543,0.811-5.077,1.234-7.611
		c0.235-1.402,0.48-2.802,0.721-4.204c0.454-2.652,0.876-5.34,1.864-7.854c0.284-0.643,0.594-1.277,1.018-1.839
		c0.368-0.49,0.398-1.297,0.243-1.86C191.145,665.099,190.742,664.576,190.202,664.259z"/>
	<path style="fill:#FFD34E;" d="M171.985,654.211c-0.049,0-0.097,0.003-0.145,0.009c-0.544,0.072-0.974,0.115-1.468,0.369
		c-0.337,0.172-0.645,0.366-0.951,0.586c-0.778,0.56-1.457,1.212-2.083,1.935c-1.17,1.354-2.029,2.911-2.844,4.493
		c-0.845,1.643-1.666,3.289-2.41,4.983c-0.434,0.989-0.844,1.984-1.242,2.987c-0.522,1.322-1.034,2.642-1.528,3.973
		c-0.476,1.284-0.921,2.581-1.247,3.911c-0.27,1.104,0.338,2.258,1.457,2.567c1.095,0.301,2.266-0.362,2.566-1.457
		c0.451-1.643,1.079-3.228,1.696-4.813c0.52-1.337,1.069-2.663,1.613-3.991c0.725-1.654,1.474-3.292,2.31-4.893
		c0.801-1.537,1.547-3.1,2.563-4.509c0.461-0.563,0.959-1.086,1.514-1.555c0.153-0.105,0.309-0.204,0.469-0.297
		c0.054-0.007,0.108-0.015,0.162-0.022c0.368-0.103,0.687-0.289,0.958-0.559c0.406-0.406,0.636-0.962,0.636-1.535
		c0-0.574-0.231-1.13-0.636-1.536C173.047,654.527,172.486,654.211,171.985,654.211z M172.121,658.527
		c-0.134,0.018-0.268,0.036-0.402,0.054c0.04-0.005,0.081-0.011,0.121-0.016C171.934,658.551,172.028,658.539,172.121,658.527
		C172.121,658.526,172.121,658.526,172.121,658.527z"/>
	<path style="fill:#FFD34E;" d="M148.612,632.092c-0.27-0.035-0.539-0.072-0.807-0.109c-0.547,0.003-1.058,0.14-1.531,0.415
		c-2.182,1.018-4.353,2.058-6.523,3.102c-1.419,0.684-2.813,1.402-4.211,2.128c-2.946,1.532-5.918,3.095-8.645,4.996
		c-0.63,0.438-1.103,0.946-1.312,1.704c-0.202,0.737-0.098,1.54,0.288,2.2c0.801,1.368,2.542,1.773,3.905,1.025
		c1.547-0.852,3.121-1.657,4.683-2.482c1.383-0.731,2.759-1.476,4.147-2.198c1.396-0.727,2.791-1.445,4.209-2.129
		c2.17-1.046,4.339-2.087,6.521-3.106c0.68-0.318,1.201-1.114,1.394-1.813c0.216-0.784,0.104-1.638-0.305-2.338
		C150.027,632.809,149.369,632.301,148.612,632.092z"/>
	<path style="fill:#FFD34E;" d="M134.186,623.392c1.094-0.056,2.185-0.083,3.274,0.022c0.566,0.113,1.091,0.308,1.621,0.524
		c0.113,0.051,0.226,0.103,0.337,0.158c0.548,0.259,1.077,0.385,1.681,0.22c0.546-0.151,1.019-0.516,1.304-1.003
		c0.296-0.505,0.376-1.118,0.221-1.683c-0.14-0.505-0.514-1.072-1.004-1.304c-0.839-0.398-1.711-0.79-2.604-1.05
		c-0.586-0.171-1.224-0.208-1.829-0.27c-0.452-0.047-0.91-0.055-1.366-0.055c-0.099,0-0.199,0-0.298,0.001
		c-2.304,0.011-4.576,0.296-6.856,0.601c-1.526,0.203-3.053,0.413-4.571,0.67c-1.665,0.282-3.333,0.555-4.957,1.027
		c-1.152,0.335-1.86,1.539-1.537,2.71c0.323,1.174,1.545,1.833,2.708,1.537c1.683-0.426,3.403-0.687,5.114-0.97
		c1.911-0.317,3.828-0.604,5.746-0.872C132.173,623.529,133.175,623.443,134.186,623.392z"/>
	<path style="fill:#FFD34E;" d="M122.715,594.45c1.309,0.407,2.633,0.769,3.907,1.274c1.087,0.488,2.18,0.982,3.158,1.667
		c0.15,0.131,0.293,0.267,0.43,0.411c0.191,0.297,0.35,0.606,0.497,0.927c0.118,0.306,0.218,0.609,0.3,0.932
		c0.298,1.178,1.59,1.874,2.742,1.558c1.189-0.328,1.854-1.564,1.556-2.742c-0.151-0.596-0.379-1.141-0.619-1.708
		c-0.227-0.531-0.471-1.031-0.813-1.499c-0.814-1.115-1.957-1.906-3.164-2.551c-1.187-0.635-2.441-1.185-3.708-1.636
		c-1.015-0.36-2.059-0.657-3.09-0.965c-0.59-0.175-1.181-0.352-1.77-0.528c-0.376-0.111-0.749-0.24-1.13-0.332
		c-0.57-0.14-1.141-0.278-1.711-0.417c-0.352-0.087-0.71-0.147-1.065-0.206c-0.573-0.096-1.145-0.174-1.723-0.174
		c-0.132,0-0.263,0.004-0.395,0.013c-0.585,0.041-1.096,0.206-1.52,0.63c-0.402,0.402-0.63,0.953-0.63,1.521
		c0,1.164,0.977,2.158,2.149,2.149c0.199-0.001,0.391,0.003,0.587,0.017c1.289,0.213,2.562,0.587,3.807,0.974
		C121.246,593.993,121.981,594.221,122.715,594.45z"/>
	<path style="fill:#FFD34E;" d="M133.882,569.737c-1.216-1.437-2.432-2.874-3.647-4.311c-0.198-0.235-0.408-0.456-0.619-0.681
		c-0.666-0.715-1.333-1.429-1.997-2.144c-0.931-0.997-1.855-2.001-2.793-2.991c-1.285-1.356-2.57-2.711-3.851-4.068
		c-0.617-0.653-1.233-1.304-1.845-1.961c-0.642-0.69-1.296-1.374-1.889-2.106c-0.039-0.051-0.078-0.102-0.117-0.153
		c-0.076-0.098-0.151-0.194-0.227-0.292c-0.179-0.179-0.392-0.303-0.636-0.372c-0.124-0.034-0.252-0.051-0.379-0.051
		c-0.255,0-0.51,0.067-0.732,0.197c-0.322,0.189-0.563,0.501-0.662,0.862c-0.094,0.339-0.073,0.815,0.145,1.111
		c0.546,0.736,1.125,1.438,1.757,2.101c0.49,0.513,0.976,1.027,1.472,1.533c1.068,1.084,2.136,2.17,3.204,3.254
		c2.307,2.345,4.576,4.723,6.849,7.101c0.284,0.296,0.548,0.604,0.816,0.915c0.792,0.925,1.583,1.849,2.376,2.774
		c0.763,0.89,1.526,1.78,2.289,2.67c0.92,1.073,1.787,2.189,2.668,3.295c0.2,0.251,0.598,0.375,0.904,0.375
		c0.337,0,0.664-0.136,0.902-0.375c0.239-0.237,0.374-0.566,0.374-0.902c0-0.37-0.155-0.625-0.374-0.904
		c-0.79-0.997-1.561-2.011-2.383-2.983C134.951,570.999,134.416,570.368,133.882,569.737z"/>
	<path style="fill:#FFD34E;" d="M148.788,547.865c0.931-0.931,0.959-2.533,0-3.46c-1.791-1.732-3.618-3.417-5.453-5.101
		c-1.12-1.026-2.239-2.037-3.394-3.023c-1.35-1.156-2.706-2.307-4.049-3.471c-0.734-0.636-1.467-1.273-2.201-1.908
		c-0.376-0.326-0.729-0.682-1.091-1.022c-0.574-0.537-1.128-1.083-1.628-1.691c-0.294-0.292-0.642-0.495-1.042-0.607
		c-0.204-0.056-0.414-0.084-0.624-0.084c-0.417,0-0.832,0.109-1.194,0.321c-0.528,0.309-0.923,0.821-1.086,1.411
		c-0.156,0.567-0.113,1.322,0.238,1.82c1.366,1.939,3.16,3.475,4.923,5.04c1.365,1.212,2.761,2.385,4.151,3.571
		c3.084,2.633,6.068,5.391,8.991,8.203C146.289,548.789,147.833,548.821,148.788,547.865z"/>
	<path style="fill:#FFD34E;" d="M154.7,520.672c1.063,1.16,2.195,2.261,3.297,3.384c1.801,1.837,3.612,3.664,5.428,5.486
		c0.904,0.905,2.417,0.902,3.32,0c0.906-0.906,0.904-2.415,0-3.322c-1.776-1.782-3.55-3.565-5.315-5.356
		c-1.124-1.14-2.262-2.266-3.368-3.422c-1.187-1.242-2.376-2.481-3.557-3.729c-1.242-1.312-2.529-2.603-3.652-4.021
		c-0.261-0.26-0.569-0.44-0.924-0.54c-0.181-0.049-0.367-0.074-0.553-0.074c-0.37,0-0.739,0.097-1.061,0.285
		c-0.962,0.563-1.36,1.9-0.752,2.867c1.031,1.642,2.353,3.103,3.624,4.561C152.334,518.109,153.522,519.385,154.7,520.672z"/>
	<path style="fill:#FFD34E;" d="M168.734,505.196c0.547,1.031,1.084,2.069,1.647,3.091c1.742,3.164,3.485,6.327,5.235,9.488
		c0.635,1.145,2.179,1.513,3.289,0.862c1.151-0.672,1.498-2.143,0.863-3.289c-1.653-2.982-3.301-5.968-4.95-8.952
		c-0.422-0.764-0.844-1.528-1.265-2.292c-0.817-1.484-1.679-2.954-2.38-4.497c-0.213-0.54-0.407-1.093-0.517-1.661
		c-0.062-0.562-0.197-1.035-0.614-1.452c-0.394-0.394-0.935-0.619-1.493-0.619c-0.559,0-1.1,0.225-1.494,0.619
		c-0.421,0.421-0.571,0.917-0.619,1.494c-0.072,0.874,0.091,1.741,0.297,2.589c0.216,0.886,0.594,1.721,0.967,2.55
		C168.019,503.832,168.372,504.513,168.734,505.196z"/>
	<path style="fill:#FFD34E;" d="M185.726,487.116c0.176,0.708,0.402,1.403,0.582,2.11c0.216,0.84,0.43,1.68,0.646,2.521
		c0.338,1.319,0.672,2.639,1.018,3.956c1.179,4.485,2.36,8.968,3.544,13.451c0.507,1.92,2.585,3.071,4.486,2.547
		c1.928-0.531,3.057-2.565,2.547-4.486c-1.161-4.379-2.328-8.756-3.495-13.134c-0.304-1.14-0.613-2.278-0.921-3.418
		c-0.112-0.415-0.224-0.83-0.337-1.245c1.043-0.998,1.387-2.693,0.582-3.963c-0.898-1.417-1.871-2.803-3.04-4.01
		c-0.636-0.657-1.54-1.008-2.446-1.008c-0.306,0-0.612,0.04-0.908,0.121c-0.583,0.163-1.091,0.459-1.521,0.886
		c-0.427,0.43-0.723,0.938-0.886,1.521c-0.124,0.67-0.285,1.349-0.214,2.03C185.436,485.714,185.553,486.417,185.726,487.116z"/>
</g>
</svg>