<?xml version="1.0" encoding="utf-8"?>
<!-- Generator: Adobe Illustrator 28.0.0, SVG Export Plug-In . SVG Version: 6.00 Build 0)  -->
<svg version="1.1" id="Layer_1" xmlns="http://www.w3.org/2000/svg" xmlns:xlink="http://www.w3.org/1999/xlink" x="0px" y="0px" viewBox="-31 -31 792 792" style="enable-background:new 0 0 427 774;" xml:space="preserve">
<style type="text/css">
	.st0{opacity:0.2;fill:#584136;enable-background:new    ;}
</style>
<path class="st0" d="M428.1,523c-1.5-0.5-3.3,1.2-4.7-0.8c-0.4-1.1,0-2,1.2-2.4 M428.7,356.1l-4.1,10c-4.2,4.5-8.7,4.2-13.2,2.4  c-4-1.6-7.6-4-9.9-7.9c-0.9-1.6-2.2-2.9-3.3-4.4c-0.5-0.7-0.9-1.6-1.3-2.4c1.5-5.4,2.9-10,8.1-12.4l3.1-7.5c2.1-0.5,4.3-1,6.5-1.5  v-0.6c3,0.5,6,1,9.2,1.6c1.4,1.7,3,3.4,4.1,5.4c1,1.9,1.4,4,2,5.9 M374.9,502.2c4.2-0.2,8.2-0.5,12.8-0.7c2.4,0.8,5.6,1.8,8.8,2.9  c1.9,2,2.5,4.5,2.6,6.3c1.6,3.1,2.7,5.3,3.6,7c0.3,3.9-1.6,6.2-3.2,8.5c-3.4,2.5-7,4-11.3,4c-1.3,0-2.7,0.7-4.2,1.1  c-0.9-0.2-2.2-0.4-3-0.5c-4.4-3.3-8.6-6.5-13.6-10.3c-0.3-1-0.8-3.1-1.1-4.4C367.7,509.8,370.7,505.4,374.9,502.2L374.9,502.2z   M368.5,557.1c-1,1.7-1.9,3.2-2.9,4.8c-1.1,0.7-2.4,1.4-3.7,2.2c-2.1-0.4-4-0.7-6.2-1.1c-2.6-2.3-6.5-3.4-7.9-7.8l2.8-6.7  c1.7-1.1,3.5-2.2,5.1-3.2c6.8-0.8,9.9,1,12.7,7C368.4,553.9,368.5,555.4,368.5,557.1L368.5,557.1z M416.6,384.6  c0.3,1,0.9,2.6,1.4,4.2l-1.6,4c-1.2,0.8-2.5,1.6-4.2,2.7c-0.8,0-2,0.1-3.2-0.1s-2.4-0.5-3.6-0.8c-3-3-3.8-6.9-3.6-11  c-1.9-0.4-3.5-0.7-5.3-1c-0.6-1.6-1.2-3.2-1.8-5c1.6-0.7,3-1.4,4.8-2.2c1.6,1.5,3.1,2.8,5.2,4.7C408.2,379.7,412.5,380,416.6,384.6  L416.6,384.6z M85.6,281.7c5.6-3.7,12.4-2.9,16.8,1.9c0.4,0.5,0.8,0.9,1.2,1.4c3.3,3.9,3.1,5.8-1.2,9  C92.8,294.1,86.1,289.2,85.6,281.7z M420.3,402.6c0.1-1.1,0.2-2.5,0.3-3.9c0.7-1,1.4-2,2.3-3.3l0,0c-1.1-2.3-1.4-4.3-0.3-6.7  c1.4,0.1,2.9,0.2,4.2,0.3c2.4,2.2,3.5,4.6,2.4,7.5 M289.5,586.4c-0.7-1.2-1.1-2-1.6-2.9l2-4.8c1.2-0.3,2.5-0.7,4.2-1.1  c0.3-1.4,0.6-2.8,0.9-4.2c6.5-4.2,6.8-4.2,11.4-1.8c0.5,3,1.5,6.2-1.6,9c-1.2,0.1-2.6,0.3-3.9,0.4c-0.2,0.3-0.6,0.5-0.6,0.7  c0,3.1-2,4.4-4.6,4.8C293.8,586.7,291.8,586.4,289.5,586.4z M350.5,486.2c-6.6,1.6-11.2-1.1-15-5.9c0.3-0.5,0.8-1.1,1.2-1.7  c-0.2-0.8-0.5-1.5-0.6-2.1c0.9-1.3,1.8-2.5,2.7-3.7c7.3-1.1,11.8,1.5,13.9,8.4L350.5,486.2L350.5,486.2z M431,551.7L431,551.7  c-3.7-0.9-6.9-2.4-9.6-5.2c-0.3-2.6,1.8-3.9,3-5.5c1.3-0.3,2.5-0.6,3.8-1 M148.9,223c6.6,2.1,12.9,2.4,16.6,8.3  c0.6,0.9,0.9,1.9,1.4,2.8c-0.9,1.6-2.1,2.6-3.7,2.5c-2.1-0.1-4.5,0-6.3-1c-2.8-1.5-5.4-3.6-6-7.2C150.5,227.1,149.8,225.7,148.9,223  L148.9,223z M357.9,274.5c2.5-1.7,5-0.4,7.4-0.5c2.2,1.8,4.8,3.3,5.6,6.4c-0.1,2.6-1.8,4.2-3.3,6c-1.4-0.1-2.8-0.1-4-0.2  c-1.9-1.3-3.7-2.5-5.8-3.8c-0.4-1.2-0.8-2.7-1.3-4.4L357.9,274.5z M335.1,10.7c2.9,1.7,5.5,3.2,8.5,5c0.5,2.1,1.1,4.8,1.7,7.5  l-1.5,3.7c-2.3,1.2-4.1,0.4-5.9-0.7C333.1,19.7,332.2,15.3,335.1,10.7L335.1,10.7z M363.1,317.1c1.6-2,3.5-3.3,5.5-3.9  c2.6,0.2,4.8,0.4,7.3,0.6c0.1,0.9,0.2,2.1,0.3,3.5c1.1,0.3,2.2,0.7,3.2,1c0.1,0.4,0.2,0.8,0.3,1.1c-0.8,0-1.5,0-2.4-0.1  c-0.1,2.5-0.9,4.4-3,5.6c-2.8,0.8-5.4,0.2-8.7-2.1C365,321.5,364,319.2,363.1,317.1L363.1,317.1z M430.6,426.5  c-2.1-0.2-4.2-0.4-6.5-0.6c-1-2.3-2.1-4.6-3-6.7 M229.3,593.7c-0.3,1.2-0.6,2.2-1,3.5c-3.1,1.1-6.2,2.5-9.4,3.3  c-2.1,0.5-4.6,0.8-6.6-1.4c-0.1-0.7-0.2-1.6-0.3-2.3c1.4-3.3,3.9-4.9,7.3-5C222.5,591.6,226.2,589.7,229.3,593.7L229.3,593.7z   M334.8,204.9c-0.7-2.7,0-4.7,1.5-6.7c1.5,0.1,3.1,0.1,4.7,0.1c4.2,2.9,5.3,6.8,4.8,11.8c-0.9,0.5-1.9,1.2-2.8,1.7  C339,210.7,337.1,207.7,334.8,204.9L334.8,204.9z M247.7,605.1c-0.6-1.4-1.2-3-1.7-4.3c4.2-4.2,7.6-4.5,13.3-1.3  c0.2,0.9,0.4,1.9,0.5,2.5C259.4,606,253.4,607.5,247.7,605.1L247.7,605.1z M423.5,512.1c-2.4,0.7-4.9,0.4-7.6-0.7  c-0.9-1.4-1.9-3-2.9-4.5c1.5-2.8,4-3.3,6.6-4.3c0.7,0.1,1.8,0.3,3,0.5c0.9-0.5,1.9-1.1,3.7-2.1c-0.5,1.8-0.8,2.7-1.2,4.3  C425.6,507,425.6,509.6,423.5,512.1L423.5,512.1z M416.5,270.3c-1.9-0.6-3.3-1.1-4.8-1.5c-2.1-2.9-4.2-5.6-2.2-9.7  c1.4-0.4,3-0.8,4.7-1.3c1.9,1.5,3.7,2.9,5.5,4.4L416.5,270.3L416.5,270.3z M372.9,450.5c-0.4,1.3-0.8,3.1-1.4,5.3  c-2.6,0-4.9-0.1-7.2-0.1c-1.5-2.3-4-3.9-4-7.2c2.2-2.1,5.1-2,7.7-2C370,446.5,371.6,447.9,372.9,450.5L372.9,450.5z M357.6,595.3  c0.7,1.5,1.2,2.6,1.6,3.5c-0.2,2.6-1.5,4.3-3.6,5.1c-1,0.4-2.1,0.6-3.1,0.6c-2.1,0.1-3.6-0.9-4.4-2.7c-0.8-1.7-0.4-3.4,0.9-4.7  s2.9-2.2,4.4-3.3C354.7,594.4,356,594.8,357.6,595.3L357.6,595.3z M104.6,332.9c3.3,0.9,6.1,1.5,8.9,2.4c2.5,0.7,3.9,2.4,3.6,5.1  c-3.3,3.1-5.9,3.5-8.9,1.1c-2-1.6-3.8-3.6-4.6-6.2C103.5,334.8,104.2,334.1,104.6,332.9L104.6,332.9z M246.1,235.8  c-6.1,0.6-8.6-1.6-10.1-9.3c1-0.5,2.1-1.2,3.1-1.7C246.7,230.5,247.4,231.5,246.1,235.8L246.1,235.8z M288.6,416.5  c1.3,1.1,2.4,2,3.6,2.9c0,1.1,0.1,2.1,0.1,3.2c-0.9,0.9-1.8,1.7-2.7,2.7c-1.2,0-2.4,0-3.7,0c-1.1-0.9-2.2-1.7-3.3-2.6  c-0.5-1.6-1.1-3.2-1.6-4.9C283.3,415.7,285.9,416.5,288.6,416.5L288.6,416.5z M286.6,398.8c0-0.5,0-0.9,0.1-1.1  c0.1-0.3,0.3-0.5,0.5-1.1c2.2-0.2,4.6-0.5,6.9-0.8c2.3,1.4,4.5,2.6,4.6,5.6c-2.2,3.3-4.2,3.9-7.2,2c-0.9-0.6-1.7-1.3-2.5-2.1  C288.1,400.6,287.3,399.6,286.6,398.8L286.6,398.8z M404.1,162.4c5.4,1.2,7,3.6,6.4,10.1c-0.7,0.2-1.5,0.5-2.4,0.7  c-0.7,0.1-1.5,0.1-2.2,0.1C401,168.4,400.6,165.7,404.1,162.4z M29.7,276.1c2.9,0.3,5.1,0.5,7.4,0.7c2,0.2,3.4,1.3,4.7,2.6  c1.2,1.3,2.1,2.6,1.7,4.5c-3.6,1.7-5.7,1.6-8.3-1C33.4,280.9,31.9,278.7,29.7,276.1L29.7,276.1z M17.2,256.3c5.8-1.7,9-0.7,12.6,3.9  c-0.8,2.4-3.2,3.3-7.2,2.8C20.4,261.3,17.9,259.7,17.2,256.3z M180.9,255.7c2.1,0,3.8,0.6,5,2.1c1.5,2,4.4,2.9,4.6,5.9  c-2.3,0.7-4.4,1.3-7,2.2c-0.2-0.2-1.5-0.6-1.6-1.2C181.4,261.8,179.6,259,180.9,255.7L180.9,255.7z M375.8,545.6  c-1.6-1.4-2.8-2.5-4.2-3.6c0.5-1.5,1-2.8,1.3-3.8c2.1-1.9,4.2-1.6,6.4-1.2c1.7,1.6,2.2,3.6,2,6.2  C379.7,543.9,377.9,544.7,375.8,545.6z M287.9,310.5c0.4,1.7,0.8,3.5,1.1,5c-2.2,2.4-4.2,1.9-6.2,0.6c-2.6-1.8-3.3-4.2-2.4-8.7  L287.9,310.5z M309.2,655c-1.1-1-2.1-2-3-2.7c-0.1-2.9,1.1-4.7,3.3-6c2.2-0.4,4.2,0.1,6,2.1C315.2,651.9,313.3,654,309.2,655  L309.2,655z M431.9,572.7c-2.1,1.7-4.2,1.4-6.2-0.1l0,0c-1.6-3.8-1.6-3.8,2.1-7c1.1,0,2.5,0.1,3.7,0.1 M152.4,194.3  c-1.2,0.3-2.6,0.5-4,0.7c-2.5-2.7-6.7-4.2-5.5-9.1C148.7,186.4,151.7,189,152.4,194.3z M332.6,606.4c-1.6,1.3-2.8,2.2-3.8,3  c-2.7,0.4-4.9,0.3-6.2-2.4c-0.1-2.3,1.3-3.6,3.4-5c1.2,0,2.7,0.1,5,0.2C331.5,603.5,332,604.9,332.6,606.4L332.6,606.4z   M384.8,376.4c2.7,2.6,5.2,4.4,4.7,8c-3.8,2.6-5.2,2.2-7.5-2.5c0.4-1,0.8-2.2,1.4-3.3C383.6,378,384.1,377.4,384.8,376.4  L384.8,376.4z M416.7,477.5c-1.1-0.9-2-1.7-2.9-2.4c-0.5-1.3-1-2.6-1.5-4c1.3-0.4,2.7-1,4.3-1.5c2,1.6,3.8,3.1,5.6,4.5  C421.3,477.1,419.3,477.5,416.7,477.5L416.7,477.5z M327.7,436.1c-0.4-1.6-0.6-2.9-0.9-4.2c2.6-2,4.5-0.7,6.6,0.5  c0.3,0.9,0.6,1.7,0.8,2.4c-0.5,1.6-0.9,1.9-4,2.8c-0.6,1-1.2,2-2,3.3c-0.9-0.9-1.5-1.5-2.2-2.2C326.7,437.7,327.2,437,327.7,436.1z   M394.7,362.8l-1.3,3c-2,1.6-3.9,0.8-6.6-2.8c0.2-1.3,0.4-3,0.6-4.6C391.1,358.2,392.9,360.1,394.7,362.8z M381.3,627.1  c-1.3-1.4-1.4-3-0.5-4.6c3-1,5.7-1.9,8.6-2.8c1.3,0.3,2.3,0.9,1.7,3c-1.2,0.4-2.4,0.8-3.9,1.3C385.8,625.6,384.1,627.1,381.3,627.1  L381.3,627.1z M140.2,312.2c-3.1,1.2-5.1-0.4-7.2-1.5c-1.6-0.8-2.4-2.4-2-4.3c1.9-1.6,3.8-1.1,5.6,0  C138.6,307.5,140.3,309.1,140.2,312.2z M225.5,150c-0.6-2.2-1-4.1-1.5-6.2c1.5-0.6,2.7,0,3.4,0.8c1.8,2.3,4.8,3.9,4.9,7.6  C229,154.4,227.6,151.4,225.5,150z M58,189.4c4.8-1.2,7.2-0.1,9.8,4.3c-0.1,0.4-0.1,0.8-0.4,1.2c-0.2,0.4-0.6,0.6-1,1  C61.8,196.2,60,192.8,58,189.4z M37.8,222.3c-4.4-0.4-7.5-1.9-9.1-6.4c3.1-0.9,5.7-0.5,8,1.6C38.5,219.1,38.5,219,37.8,222.3  L37.8,222.3z M348.3,495.3c-1.9,1.5-3.5,2.7-5,3.9c-2.3-0.3-4.2-1.1-5.2-3.9c0.5-0.7,1.1-1.6,1.6-2.4  C343.5,493.2,346.4,494,348.3,495.3L348.3,495.3z M235.6,236.1c3.6,0.5,5.7,3.1,8.3,5.1c-0.3,0.9-0.6,1.7-0.8,2.3  C237.7,244.4,235.7,242.4,235.6,236.1z M326.3,412.1c1.1-4,4-3.3,6.4-3.6c1.8,1.2,3.2,2.5,2.6,5.1  C332.1,414.5,329.2,414.6,326.3,412.1z M329.4,368.5c0.1,3-2.5,3.3-3.9,4.8c-3.2-1.9-2.9-4.6-2.7-7.4  C326,364.9,328,366.1,329.4,368.5z M153,613.8c-2.4,1.3-4.5,2.7-6.8,3.8c-1.1,0.5-2.4,0.6-3.4-1c1.8-2.4,4.1-4.3,6.9-5.4  C151.3,610.5,152.6,611.3,153,613.8z M100.9,551.2c-3.6,2.5-6.6,2.6-9.9,0.6c1-1.5,2.9-2.7,5.8-3.5  C99.9,549.1,99.8,549.1,100.9,551.2z M375.6,714.4c0.6-4.7,1.4-5.2,5.8-4.1c0.3,0.4,0.6,0.9,0.9,1.4s0.4,1.2,0.7,2  c-0.7,0.8-1.5,1.7-2.4,2.7L375.6,714.4L375.6,714.4z M110.8,613.4c3.8,2,5.5,5.3,7.1,9c-0.5,0.9-1.1,1.9-1.8,3.2  C113.3,621.8,111.2,618.2,110.8,613.4L110.8,613.4z M419.3,185.1c4.8,1.2,5.9,3.1,4.3,7.1c-1.7,0.7-2.9-0.3-4.3-1.1  C417.9,189.2,417.4,187.3,419.3,185.1z M427.9,246.3c-1.1-3.1-0.5-5.3,2.6-7 M371.2,189.1c1.3-0.7,1.9-1,2.8-1.5  c1.3,1,2.6,2,3.7,2.9c0.8,2.1,0.2,3.5-1.2,4.9L373,194C372.4,192.6,371.9,191,371.2,189.1L371.2,189.1z M273.5,450.7  c2.1-0.3,3.9-0.6,5.7-0.8c1,1,1.7,1.9,2.5,2.8l-1.2,2.9c-1.5,0.1-3,0.2-4.6,0.3C275.2,454.2,274.5,452.7,273.5,450.7L273.5,450.7z   M295.1,633.7c-2.7,1.7-4.6,3-7.2,1.1c-0.1-0.8-0.2-1.8-0.2-2.7c1.9-1.9,3.9-2.6,6.8-2C294.7,631.2,294.9,632.4,295.1,633.7  L295.1,633.7z M358.5,311.6c2.4,1.1,3.3,2.9,2.6,5.5c-1.1,0.2-2.4,0.5-3.9,0.7c-0.7-1.3-1.3-2.5-2.1-4  C356.5,312.9,357.6,312.1,358.5,311.6L358.5,311.6z M281.6,161c5,1.6,5.6,2.4,4.8,6.8C282.3,167.5,280.7,165.3,281.6,161z   M273.6,637c0.8-2.4,1.5-4.4,2.3-6.9c2.2,1.5,3.7,2.9,4,5.3C278.2,637.2,276.3,638,273.6,637L273.6,637z M277.4,465.2  c1.5,0.8,2.7,1.4,4.2,2.2l-1.4,3.3c-2.9,0-5.2-0.3-6.3-3.5C275.1,466.5,276.1,466,277.4,465.2L277.4,465.2z M25,591.7  c5.4-3.3,6.8-3.2,8.2,0.4c-1.2,1.7-2.9,2-4.8,1.9C27.1,593.9,27.1,593.9,25,591.7L25,591.7z M383.7,548.4c1.1-0.8,2.1-1.5,3.4-2.4  c1.2,0.9,2.3,1.8,3.8,3c-1.1,1.3-1.9,2.3-2.8,3.3C386,551.6,384.1,551.4,383.7,548.4z M318.2,278c2.2-0.9,3.6,0.6,4.6,1.7  c1.3,1.4,3.2,2.8,3.2,5.3c-1.7-0.8-3.2-1.6-4.6-2.2C319.3,281.9,318.1,280.6,318.2,278L318.2,278z M194.3,450.2  c2.2,1.3,4.6,1.1,5.1,4c-0.9,0.5-1.9,1.1-3.1,1.8c-1.4-0.8-2.7-1.5-4.4-2.4C192.8,452.3,193.5,451.4,194.3,450.2L194.3,450.2z   M280.1,618c1.7,0.4,3.5,0.7,3.6,2.9c-3.7,3-4.2,3-6.8,0.7C277.1,619.6,278.6,618.8,280.1,618z M38,264.9c3.5,0.5,7.1,0.2,9.1,4.1  C43.4,270.6,41.9,269.9,38,264.9z M383.8,441.3c1.2,1.5,2.3,2.9,3.4,4.3c-0.2,1.3-0.8,2.4-1.7,3.3c-2-0.2-2.6-1.7-3.4-3.4  L383.8,441.3z M307.4,426.9c-3.4,2.7-4.5,2.4-6.9-2.3c1-0.3,1.9-0.9,2.8-0.8C305.1,424.1,306.9,424.7,307.4,426.9z M104.2,509.8  c2.2-0.5,3.5-0.8,4.9-1.2c1.6,0.8,3.3,1.5,5.5,2.6c-1.2,0.7-1.8,1.3-2.5,1.4C109.3,513.1,107,512.1,104.2,509.8z M314.9,472  c0.9,0.3,1.6,0.5,3.1,0.9c0.4,0.9,0.9,2.4,1.4,3.8c-0.9,0.4-1.3,0.7-1.7,0.8c-0.9,0.1-1.8,0.1-2.8,0.1c-0.7-1-1.5-2-2.2-3  C313.4,473.7,314.1,472.9,314.9,472z M103.1,439c4.5-1.1,6.7-0.2,8.5,3C107.9,443.8,105.6,441.6,103.1,439z M169.3,543.7  c-0.6,2.2-2.2,2.5-3.7,2.7c-0.9,0.1-1.9-0.4-2.7-0.6c-0.6-2.3,0.5-3.2,2.1-3.7C166.8,541.4,168.3,541.8,169.3,543.7L169.3,543.7z   M222.5,485.2c0.4,0.7,0.7,1.5,1.3,2.6c-0.6,0.5-1.1,1.2-1.7,1.4c-1.9,0.7-3.6,0.7-4.7-1.3C218.1,485.8,219.8,484.9,222.5,485.2  L222.5,485.2z M222.6,316.1c3.9-0.6,4.7-0.3,6.4,3.1c-0.9,0.6-1.9,1.2-2.7,1.6C224.4,319.8,223.2,318.2,222.6,316.1z M409.3,431.9  c0.1-1.2,0.2-1.9,0.4-3.1c1.8,0.1,3.4,0.2,5.1,0.3c0.2,1.5,0.4,2.6,0.5,3.7C413,434.3,411.4,432.8,409.3,431.9L409.3,431.9z   M326.2,423.6c-0.3,0.5-0.6,0.9-1,1.7c-1.3-0.4-2.6-0.9-4.3-1.5c-0.1-1.4-0.2-2.7-0.4-4.3C323.8,419.7,325.3,421.3,326.2,423.6z   M396.1,493.2c0.9-1,1.6-1.8,2.2-2.4c2.1,0.5,3.5,1.6,4.2,3.4C400.4,495.4,398.3,495.1,396.1,493.2z M274.5,391.8  c0.6,1.1,1.2,2.2,1.9,3.5c-3.5,1.8-5.1-0.4-7.1-2.5C271,391.7,272.6,391.8,274.5,391.8L274.5,391.8z M364.8,493.2l-4.4-1.8  c0.4-1.3,0.7-2.3,1-3.7c1.7,0.5,2.9,0.9,3.9,1.1C366.6,490.6,365.8,491.7,364.8,493.2z M412.4,586.4c0.9-0.9,1.8-1.8,2.5-2.5  c2.7,0.5,3.5,2,3.4,4.3C416,589.4,414.1,589.1,412.4,586.4z M334.9,243.9c-1.1-1.3-3.1-2.4-2.1-5c2.6-0.3,4.2,1,5.5,3  C337.9,243.8,336.5,243.9,334.9,243.9z M283.4,184.9c-2.6-0.9-4-2.7-4.2-5.6C283.5,180.2,283.8,180.6,283.4,184.9z M314.7,494.7  c2.3-0.7,4.3-1.3,6.3-1.9c-0.4,1.5-0.7,3-1.1,4.4C317.6,497.7,315.9,496.9,314.7,494.7L314.7,494.7z M315.5,486  c-1.5,0.1-2.8,0.2-4.2,0.4c-0.6-1-1.1-2-1.7-3C313.8,481.5,315.1,482.1,315.5,486z M251.2,420c-1.9,0.6-3.7,0.4-5.6-0.5  c0.3-1.1,0.6-2.1,0.9-3.4c1.2,0.3,2.1,0.5,3.1,0.8C250.1,417.8,250.5,418.7,251.2,420z M331.9,357.2c0.6-0.4,1.1-0.9,1.6-1.3  c2.3,0.3,3.1,1.9,3.8,3.4c-0.5,1.6-1.4,1.8-2.6,1.6C332.8,360.4,331.9,359.2,331.9,357.2L331.9,357.2z M415.7,563.5  c0.1-0.9,0.2-1.9,0.3-2.8c2.4-0.6,4,0.2,4.9,2.4C419.3,564.3,417.8,564.9,415.7,563.5L415.7,563.5z M2.8,594.9c1.8-0.8,3-1.4,4.4-2  l3.7,1.5c-0.5,0.5-0.8,0.9-1.1,1C7.7,596.1,5.5,597.7,2.8,594.9L2.8,594.9z M398.3,571.3c0.3,1.7,0.4,2.8,0.6,3.8  c-1.7,1.5-2.9,1.1-5.2-1.3c0.1-0.5,0.3-1.1,0.5-1.9C395.4,571.8,396.5,571.6,398.3,571.3z M255.4,394.6c-1.3-1.3-2.3-2.2-3.5-3.3  c0.9-0.8,1.5-1.3,2.1-1.8c1.9,0.3,3.5,0.7,4,3.1C257.4,393.1,256.6,393.7,255.4,394.6L255.4,394.6z M307,617.5  c0.6-1.3,1.1-2.3,1.5-3.1c2.3-0.6,3.6,0.1,4.5,2C311.3,618.2,309.5,618.6,307,617.5L307,617.5z M392.9,438c0.5-0.7,0.9-1.1,1.2-1.6  c3.5,2.1,4,3.6,2.1,6.4C395.1,441.3,394.1,439.8,392.9,438z M271.5,438.3c-1.1-1.2-1.6-2.5-0.5-4.5c1.2,0.3,2.4,0.7,3.5,1  C274.3,437.2,273.3,438.3,271.5,438.3z M149.8,510.2c-1.9,0.6-3,1-4.2,1.4c-1-0.9-1.9-1.7-2.8-2.5c0.4-0.5,0.7-1,1-1.1  C145.9,507.3,147.6,508.2,149.8,510.2z M303.7,531.6c0.9,0.9,1.4,1.4,2.3,2.2c-0.7,0.8-1.2,1.9-2,2.2c-1.6,0.5-2.9-0.2-3.8-2.2  C301.2,533.1,302.3,532.5,303.7,531.6z M313.3,255.1c1.3,1.1,2.3,2,3.6,3.2c-1.1,1-1.9,1.7-2.7,2.4  C311.8,259.3,311.7,257.8,313.3,255.1L313.3,255.1z M264.8,390.5c-2.7,0.5-4.7-0.4-6.1-2.8c1.5-0.4,3-0.6,4.3,0.3  C263.6,388.5,264,389.4,264.8,390.5L264.8,390.5z M394.3,448.1c1.9-1.1,2.9-1.7,4-2.3c0.9,0.5,1.7,0.9,2.7,1.4  c-0.3,0.9-0.6,1.8-1,2.9C398.3,449.5,396.8,449,394.3,448.1L394.3,448.1z M361,255.7c1-0.2,1.7-0.4,2.5-0.6c0.7,0.7,1.3,1.4,2,2.2  l-1,2.3C362.7,260.2,361.6,259.1,361,255.7L361,255.7z M329.7,261c-1,0.2-1.7,0.4-2.4,0.6c-1.4-1.2-3-2.3-1.5-4.6  C328.1,256.9,329.4,258.1,329.7,261L329.7,261z M256.6,426.2c3.6-1.7,4.4,1.7,7.3,3.2c-1.8,0.3-2.8,0.9-3.2,0.6  C259.2,429,257.5,428.1,256.6,426.2z M46.2,352.6c-1.1-1-2.1-1.9-3.6-3.3c3-0.5,5.1-0.9,6.6,2C48.1,351.8,47.2,352.1,46.2,352.6  L46.2,352.6z M407.6,578.7c1.2-0.9,2.3-1.7,3.6-2.7c0.9,0.8,1.5,1.3,2.3,2c-1.6,2.1-3.7,1.4-5.4,1.9L407.6,578.7L407.6,578.7z   M413.1,403.4c0.9-0.3,1.8-0.5,2.5-0.7c1.5,1.2,2.8,2.1,2.1,4C416,407,414.4,405.9,413.1,403.4z M356.3,436.1  c-1.2,0.4-2.1,0.8-3.2,1.1c-0.7-1.1-1.2-2.1-2-3.4c1.4-0.3,2.4-0.4,4.3-0.8C355.7,433.9,356,434.9,356.3,436.1z M204.4,502.2  c-2.1-1.5-2.9-3.3-1.8-6.2C205,497.7,204.9,499.9,204.4,502.2z M234.1,497.2c2.5-1.1,4.4-1,5.6,0.3  C237.9,499.2,236.3,498.9,234.1,497.2z M317,304.6c3.7,1.3,3.7,1.3,2.6,3.9C317.6,308.2,316.8,306.8,317,304.6z M175,665.3  c2.5,0.7,3.3,2.2,4.2,3.9C176.1,670.2,175.5,669.7,175,665.3z M299.6,394.9c1.1-0.2,2.1-0.4,3.3-0.7c0.6,0.9,1.1,1.8,1.6,2.6  c-0.3,0.4-0.5,0.7-0.8,0.8C301.7,398,300.2,397.5,299.6,394.9L299.6,394.9z M396.7,746.5c-2.3,1.6-3.4,0.9-4.3-0.7  c0.1-0.4,0.1-1,0.4-1.3c0.7-0.5,1.5-0.9,2.7-1.5C395.9,744.3,396.3,745.4,396.7,746.5z M295.3,634.7c1.3-0.7,2.3-1.1,3.3-1.6  c1.3,2,1.1,3.4,0.5,5C296.5,638.4,296.8,636,295.3,634.7L295.3,634.7z M336.1,386.2c-0.7-0.1-1-0.1-1.3-0.2  c-0.4-0.2-0.8-0.4-1.5-0.9c0.4-1.2,0.9-2.4,1.3-3.5C336.5,381.7,336.9,383.1,336.1,386.2z M381.4,487.1c2,0.3,3.5,1.2,4.4,2.7  c-1.2,0.3-2.3,0.5-3.8,0.8C381.8,489.3,381.6,488.3,381.4,487.1z M22.8,383.6c2.5-1.7,4-0.8,5.7,0.6C26.9,385.3,25,385.1,22.8,383.6  z M129,174.8c-2.9-0.2-3.2-0.4-4.1-3.8C127.4,171,128.5,172.3,129,174.8z M354.7,148.9c-1.3-0.4-2.4-0.7-3.9-1.1  c0.5-1.5,0.9-2.7,1.5-4.7C353.2,145.5,355.1,146.4,354.7,148.9L354.7,148.9z M121.9,472.3c2.5-2.8,2.7-2.8,5.3-0.3  C125.4,473.6,123.6,472.2,121.9,472.3z M216.9,519.3c-1.9,1.4-3.6,1.2-5.3-0.7C213.8,517,215.2,518.3,216.9,519.3z M192.3,459.2  c3-1.9,3.1-1.9,5.5,0.9C195.7,461.5,194.3,460,192.3,459.2z M296.4,444.8c0.3,1.2,0.5,1.7,0.6,2.1c-0.9,1.9-2.2,1.5-4.2-1.2  C294.1,445.4,295.1,445.2,296.4,444.8z M323.9,453.5c-0.1,2.2-1.6,2.4-2.7,3.6c-0.8-0.6-1.5-1.2-2.9-2.3  C320.7,454.2,322.2,453.9,323.9,453.5L323.9,453.5z M163.2,327.9c2.3-0.2,3.9,0.7,4.7,2.7C165.7,330.6,164,330.3,163.2,327.9z   M394.8,423.8c-1,0.1-1.7,0.2-2.7,0.3c-0.3-1.8-0.6-3.5-0.9-5.1c0.3-0.1,0.5-0.2,0.7-0.3C392.9,420.3,393.7,421.8,394.8,423.8z   M192.1,572.6c1.5-0.8,3-1.2,4.6-1.2c0.1,0.5,0.2,1,0.3,1.7C195.3,573.8,193.9,574.2,192.1,572.6L192.1,572.6z M266.6,441.4  l-4.1-1.7c0.2-0.6,0.3-1.1,0.5-1.8C264.9,438,266.4,438.3,266.6,441.4z M310.6,507.1c0.6,1.1,0.9,1.7,1.1,2.3  c-0.3,0.5-0.4,0.8-0.6,1c-1.6,0.9-2.9,0.6-3.6-1.6C308.4,508.2,309.3,507.8,310.6,507.1L310.6,507.1z M237.4,538.6  c1.6-1.9,3.3-2.3,5.2-1.3C241.4,539.3,239.7,538.6,237.4,538.6z M429.4,532.3c0,1,0,2.1,0,3.8c-1.6-0.8-2.5-1.3-4.1-2  c1.3-1,2.2-1.6,3-2.3C428.7,532,429.1,532.1,429.4,532.3z M355.1,368.3c-0.7-1.1-1.2-1.9-1.9-2.8c0.7-0.6,1.2-1.1,2-1.8  c0.7,0.9,1.3,1.6,2.1,2.6C356.5,366.9,355.9,367.5,355.1,368.3L355.1,368.3z M291.2,612.8c1.2-3.1,1.9-3.2,4.5-0.8  C294.6,613.5,293.1,613.1,291.2,612.8z M396.5,393.1c2,0.1,3.4,0.7,3.7,3.1C397.9,396,396.7,395,396.5,393.1z M209.1,394.3  c-2.2,0.8-3.7,0.3-5.1-0.9C205.9,392.4,207.6,392.7,209.1,394.3z M391.5,473.1c2.1-0.4,3.3,0,4.3,1.4  C394,475.7,392.6,475.2,391.5,473.1z M232.8,444.8c1.8-1.2,3.1-1,4.4,0.3C235.3,447.3,235.1,447.3,232.8,444.8z M378.6,615.1  c-2.1,0.4-3.6,1-4.6-1.2c1.1-0.5,2-1,3.3-1.6C377.7,613.2,378,614,378.6,615.1z M424.6,493.1c-0.5,0.9-0.7,1.3-1.2,2  c-1.1-1-2.2-1.9-3.3-2.9c0.7-0.3,1-0.6,1.2-0.5C422.2,492.1,423.1,492.6,424.6,493.1z M429.2,444c-1.7,0-2.2,0-3.1,0  c-0.1-1.1-0.1-2.1-0.2-3.1c0.7,0,1.4-0.2,1.5,0C428.1,441.6,428.4,442.5,429.2,444z M327.6,597.5c-0.6,0.5-1.2,1-1.7,1.4l-2.7-1.1  c0.3-0.6,0.5-1.1,0.8-1.3C325.4,595.7,326.6,596.3,327.6,597.5L327.6,597.5z M172.2,602.9c-2.2,0.7-3.4,1.1-4.7,1.6  C168,601.3,168.3,601.2,172.2,602.9z M353.8,501.7c1.9-0.9,2.7-1.4,3.6-1.8c1.3,1.1,1.3,2.1,0,3.3L353.8,501.7z M358.7,477.3  c0.6-0.7,1.3-1.5,2.3-2.6c0.4,1.4,0.7,2.4,1,3.6C360.4,479.4,359.4,479.3,358.7,477.3L358.7,477.3z M352.6,390.8  c-1.9,0.5-2.8-0.5-3.5-2C351,388.3,352.1,389,352.6,390.8z M407.6,273.1c-1.9-0.3-2.6-1.5-2.1-3.5  C407.3,270.2,407.5,271.5,407.6,273.1z M229.8,585.2c-1.7,1.1-2.9,0.7-4.4-1c1.4-0.3,2.4-0.6,3.5-0.9  C229.2,584.1,229.5,584.7,229.8,585.2L229.8,585.2z M346.1,407.7c-0.8,0.6-1.1,0.9-1.8,1.3c-0.6-0.6-1.2-1.2-2.1-2.1  c0.9-0.6,1.5-1,2.4-1.6C345.2,406.2,345.5,406.8,346.1,407.7z M253.6,656.9c-0.9-1.3-1-2.5-0.3-3.8c0.5,0.3,0.9,0.6,1.5,0.9  L253.6,656.9z M383.7,344.6c-0.9-0.3-1.7-0.6-2.7-1c0.2-0.8,0.3-1.4,0.5-2.1C383.1,342.1,383.8,343.2,383.7,344.6L383.7,344.6z   M318.8,518.3c1.4,1.3,1.7,2.6,0.4,4.2C318,521.5,317.8,520.1,318.8,518.3z M375.6,377.9c1.7,1.1,2.6,1.7,3.9,2.6  c-1.3,0.7-2,1.1-3.2,1.8C376,380.9,375.9,379.9,375.6,377.9L375.6,377.9z M189.3,595.7c-0.8,2.3-2.5,1.3-4.2,1.7  C186.1,595.7,187.5,595.1,189.3,595.7z M420.3,516c1.5-2.2,2.7-1.6,4-0.6l-0.8,1.9L420.3,516z M294.7,672.3  c-1.8,0.1-2.8,0.1-4.1,0.1c0.4-2,1.7-2.2,3.4-2.5C294.1,670.5,294.3,671.1,294.7,672.3L294.7,672.3z M315,375.9  c0.3-0.9,0.5-1.4,0.6-1.9c1.9-0.1,2.8,0.6,2.7,2.5c-0.4,0.1-0.7,0.4-0.9,0.3C316.7,376.7,316,376.3,315,375.9L315,375.9z   M262.5,536.5c-2.1,1.1-3.4,0.8-4.4-1C259.8,534.3,261,534.7,262.5,536.5z M155.4,291c-2.4,0.4-3.6-0.4-4.6-1.7  C152.2,289.1,153.7,289.6,155.4,291z M246.6,390l-1.3,3.2l-1.8-0.7c0.3-0.9,0.6-1.7,0.9-2.7C245,389.9,245.5,390,246.6,390z   M164.4,507.3c0.4,0.9,0.6,1.3,0.9,1.8c-1.5,1.2-2.8,0.6-4.4-0.5C162.2,508.2,163.2,507.8,164.4,507.3L164.4,507.3z M343.2,71  c1.5,1.5,1.9,2.6,0.3,4C341.9,73.9,342,72.8,343.2,71z M338.9,419.8c-2.1,0.6-3.3,0.5-3.5-1.7C337.2,417.2,338.2,417.7,338.9,419.8z   M417.1,298.2c0.7,0.7,1.5,1.4,2.7,2.5c-1.1,0.3-1.8,0.8-2,0.6c-0.7-0.6-1.1-1.5-1.7-2.2C416.5,298.8,416.8,298.5,417.1,298.2z   M397,453.9l-3.2-1.3c1.1-0.7,1.7-1.1,2.6-1.7c0.5,1,0.9,1.7,1.2,2.4C397.4,453.4,397.2,453.7,397,453.9z M375.9,469.1  c0.4,1.6,0.6,2.3,1,3.7l-3.7-1.5C374.1,470.5,374.7,470,375.9,469.1z M319.1,620.2c0.5-3.5,0.7-3.6,3.6-2.4  C321.6,618.5,320.7,619.1,319.1,620.2z M173.8,349.6c0.8,0.2,1.6,0.3,2.7,0.5c-0.1,0.8-0.3,1.3-0.5,2.4c-1.2-0.8-2-1.4-2.9-2  L173.8,349.6z M392.4,682c0.2-2.1,1.1-2.7,3.3-2.2C395.4,681.8,394.5,682.5,392.4,682z M209.3,34.3c2.7,0.5,4.1,1.1,3.8,4.4  C211.6,37,210.7,36,209.3,34.3z M82.7,405.5c-2.2,1.7-3.3,1-4.3-0.5C79.8,404,81,404.6,82.7,405.5z M176.2,485.1  c-1-0.2-2-0.3-3.4-0.5C174.4,482.6,175.5,482.5,176.2,485.1z M333.3,648.3c-0.8,0.6-1.3,1.1-2.1,1.7c-0.6-0.6-1.1-1.1-1.7-1.7  C330.7,646.9,331.7,646.9,333.3,648.3L333.3,648.3z M372.5,415.6c-0.9-0.2-1.7-0.3-2.3-0.7c-0.5-0.2-0.8-0.7-1.4-1.2  C370.4,413.5,371.6,414.1,372.5,415.6z M327.9,476.3c0-1.3,0-1.8-0.1-2.8c1.2,0.4,2.1,0.6,3.9,1.2  C330,475.4,329.2,475.8,327.9,476.3z M71.4,290.6c1.6,0.8,2.7,1.4,3.8,2C73.3,293.3,72.2,292.8,71.4,290.6z M267.9,409.6l-4.6-1.9  c1.8-0.5,2.6-0.7,3.6-0.9C267.3,407.5,267.5,408.2,267.9,409.6L267.9,409.6z M91.2,266.5c1.7,0.9,2.8,1.5,4.7,2.5  C93.6,269,92.1,268.2,91.2,266.5z M146.3,323.2c-1.7,0.9-2.8,0-3.8-1.3C144.1,321.7,145.3,322.1,146.3,323.2z M322.3,613.4  c1.1-0.6,1.7-1,2.4-1.4c0.5,0.6,0.9,1.1,1.3,1.6C324.9,614.9,323.9,614.7,322.3,613.4z M127.7,452.2c0.1,0.7,0.1,1.1,0.3,2.1  c-1.3-0.3-2.3-0.6-3.6-0.9C125.4,451.6,126.6,452.3,127.7,452.2L127.7,452.2z M208.5,484.4c-1.4,0.4-2.5,0-3.7-1.5  c1.7-0.6,2.9-0.1,3.9,0.8c0.1,0.1,0.2,0.3,0.1,0.4C208.8,484.1,208.6,484.2,208.5,484.4L208.5,484.4z M376.2,664.1  c-0.7,0.7-1.4,1.4-2.3,2.5c-1.1-2.6,0.3-2.9,1.4-3.3C375.6,663.6,375.9,663.9,376.2,664.1L376.2,664.1z M381.9,319.6  c-0.4-0.8-0.8-1.5-1.4-2.6c1.1-0.1,1.7-0.1,2.8-0.2c-0.1,1.1-0.2,1.9-0.3,2.8C382.6,319.6,382.3,319.7,381.9,319.6L381.9,319.6z   M175.7,566.4c-2.6-1.4-3-2.8-3.1-5C174.6,562.4,174.8,564,175.7,566.4z M365.4,205.1l1-2.5c0.8,1.1,1.3,1.9,2.4,3.4  C367.3,205.7,366.6,205.5,365.4,205.1z M243.5,657c0.7,0.8,0.9,1.1,1.6,1.9c-1.4,0.4-2.6,0.6-3.7,0.9c-0.1-0.2-0.2-0.4-0.3-0.6  C241.8,658.6,242.6,657.9,243.5,657z M299.2,541.3c0.5-1.4,0.6-1.9,0.8-2.5c0.7,0.2,1.5,0.4,3.2,0.9  C301.4,540.4,300.6,540.7,299.2,541.3L299.2,541.3z M411.4,409.1c0.6,0.8,1.1,1.4,1.7,2.3c-1.9,0.7-2.6,0-3.3-1.4  C410.4,409.7,410.8,409.4,411.4,409.1z M399.7,338.9c0.8,1.5,1.2,2.3,1.8,3.5C399.1,342.4,398.3,341.9,399.7,338.9z M337.6,602.6  c-1.6,0.5-2.4,0.8-3.7,1.3c0.3-1.1,0.5-1.6,0.7-2.5L337.6,602.6z M341.9,68.3c-0.5-0.9-1-1.8-1.5-2.8c0.2-0.2,0.4-0.3,0.7-0.5  c0.6,0.8,1.3,1.6,2,2.4C342.6,67.8,342.3,68.1,341.9,68.3z M270.3,207c-2,0.5-2.5-0.5-2.8-1.7C268.3,204.1,268.9,204.5,270.3,207z   M264,413.9c0.9,0.3,1.8,0.6,2.9,0.9C265.9,415.5,264.9,415.2,264,413.9z M415.2,374.5c0.5-0.7,0.8-1.2,1.5-2.1  c0.6,1.2,0.9,2,1.7,3.8C416.7,375.4,416,375,415.2,374.5L415.2,374.5z M377.2,453.7c0.2-1,0.3-2,0.5-3.4c2.2,1.6,1.5,2.6,0.9,3.6  C378.2,453.8,377.7,453.7,377.2,453.7L377.2,453.7z M421,487.9c0.5-0.2,1.1-0.4,1.8-0.6c0.6,0.6,1.2,1.3,2.3,2.3  c-1.8-0.3-2.9-0.5-4.1-0.6C421,488.6,421,488.2,421,487.9L421,487.9z M282.4,432.8c1.2-1,2.1-1,2.8,0.5  C284.2,433.9,283.2,433.7,282.4,432.8z M280.2,477.7c0.2,0.8,0.4,1.3,0.6,2.4c-1.3-0.3-2.2-0.5-4.1-0.8  C278.4,478.5,279.2,478.2,280.2,477.7z M144.9,49.5c-0.5-0.4-1-0.6-1.4-1.1c-0.3-0.4-0.4-1-0.7-1.9C145.1,46.6,145,48.1,144.9,49.5z   M246.2,198.3c1.4,0.4,2.2,1.5,2.2,3.1C247.4,200.1,246.8,199.2,246.2,198.3z M287.5,489.3l-2.2-0.9c0.4-0.7,0.8-1.2,1.4-2.2  c0.6,1.1,1,1.7,1.4,2.4C288,488.8,287.7,489.1,287.5,489.3z M427,255.8c-0.4-0.7-0.8-1.4-1.4-2.3C426.8,253.6,427.3,254.4,427,255.8  z M332.1,541.5c0.7-0.4,1.4-0.8,2.6-1.4C334.6,542.2,333.8,542.5,332.1,541.5z M329.5,486.4c-1.1,0.5-1.8,0.8-3.3,1.4l1.4-3.5  C328.3,485.1,328.7,485.6,329.5,486.4L329.5,486.4z M277.4,332.8c1.7-1,2.6-0.5,2.7,1.4C279,333.7,278.2,333.2,277.4,332.8z   M332.1,510.6c2.3-0.9,3.1-0.3,3.7,1.5L332.1,510.6z M378.3,466.9c1.7-0.3,2.5-0.4,3.6-0.5C381.4,468.3,380.6,468.6,378.3,466.9z   M323.5,193.4c-0.9-1.5-1.3-2.3-1.8-3.2C323.1,190.3,323.7,191.4,323.5,193.4z M184.4,503.7c-1.5-0.2-2.3-0.3-3.7-0.5  C182.1,502.5,183.3,502.6,184.4,503.7z M312.5,358.7c-0.7,0.5-1.1,0.8-1.7,1.2c-0.5-0.7-0.9-1.3-1.4-1.9c0.1-0.2,0.3-0.4,0.4-0.6  C310.6,357.8,311.4,358.2,312.5,358.7L312.5,358.7z M400.4,499c-1.1,0.4-1.6,0.6-2.4,0.9c-0.1-0.9-0.2-1.5-0.5-3.1  C398.8,497.8,399.4,498.3,400.4,499z M315.5,447.5c1.8-1.2,2.7-0.7,3.6,0.7C317.6,449.1,316.7,448.4,315.5,447.5z M125,554.3  c1.1-0.1,2.1-0.1,3.2-0.2c0,0.2,0,0.5,0.1,0.7c-1,0.2-2.1,0.4-3.2,0.6C125.1,555,125,554.6,125,554.3L125,554.3z M264.4,596.4  c1.4-0.5,2.2-0.8,2.9-1.1c0.5,0.7,0.7,0.9,1.1,1.4C267.4,598,266.4,598,264.4,596.4L264.4,596.4z M256,440l-2.7-1.1  C255,437.7,255.8,437.7,256,440z M39.6,254.5c0.3,1,0.6,2.1,1,3.1c-0.1,0.1-0.3,0.1-0.5,0.1c-0.6-0.9-1.2-1.8-1.8-2.7L39.6,254.5z   M388.1,318.7c0.6,0.3,1.2,0.6,1.8,0.9c-0.1,0.2-0.2,0.5-0.3,0.7c-0.7-0.2-1.4-0.4-2-0.7C387.8,319.4,388,319.1,388.1,318.7  L388.1,318.7z M90.7,641.6c1.4,0,2.3,0,4.3,0C93,642.9,92.1,643,90.7,641.6z M279.4,435.3l2,0.8l-0.2,0.7c-0.7-0.2-1.4-0.3-2.2-0.5  C279.2,436.1,279.3,435.7,279.4,435.3L279.4,435.3z M374.7,458.7l2,0.8c-0.1,0.2-0.1,0.5-0.2,0.7c-0.7-0.2-1.4-0.3-2.1-0.5  C374.4,459.4,374.6,459,374.7,458.7z M213.7,402.1c1.5,0.5,2.3,0.8,3.6,1.3C215.5,404.6,214.7,404.1,213.7,402.1z M220.7,610.3  c-0.8,0.2-1.6,0.4-2.4,0.6c-0.1-0.2-0.1-0.5-0.2-0.7c0.8-0.2,1.6-0.4,2.4-0.7C220.6,609.7,220.6,610,220.7,610.3L220.7,610.3z   M201,431c1.3,0.4,2.2,0.7,3.5,1C203.2,432.6,202,432.3,201,431z M220.1,498.7c-0.7-0.2-1.4-0.4-2.1-0.6c0-0.3,0.1-0.5,0.1-0.8  c0.7,0.1,1.5,0.2,2.2,0.3C220.3,497.9,220.2,498.3,220.1,498.7L220.1,498.7z M309.9,495.8c1.4-0.8,2-1.2,2.8-1.7  c0.2,0.8,0.4,1.3,0.7,2.3C312.3,496.2,311.5,496.1,309.9,495.8L309.9,495.8z M332.4,519.6l3,1.3C334.1,522,333.4,521.9,332.4,519.6z   M52.9,141c0.6,0.4,1.2,0.7,1.9,1c-0.1,0.2-0.2,0.4-0.3,0.7c-0.6-0.2-1.3-0.4-1.9-0.7C52.6,141.7,52.8,141.3,52.9,141L52.9,141z   M199.5,418.4c0.6,0.2,1.2,0.4,2,0.7c-1.6,2-1.7,0.3-2.4,0.4C199.3,419.1,199.4,418.8,199.5,418.4z M319.1,249.7  c0.4,0.6,0.8,1.2,1.2,1.8c-0.5,0.2-0.8,0.4-1.4,0.6c-0.3-0.7-0.5-1.4-0.8-2.1C318.5,250,318.8,249.8,319.1,249.7z M365.8,429.7  l-1.9-0.8c0.1-0.2,0.1-0.5,0.2-0.7c0.7,0.1,1.4,0.3,2.1,0.4C366,429,365.9,429.3,365.8,429.7L365.8,429.7z M391.9,652.4l-2.1-0.9  c1.2-1.6,1.9-0.9,2.5-0.2C392.1,651.7,391.9,652,391.9,652.4L391.9,652.4z M315,463.3l-3.2-1.3C313.9,461.4,314.7,461.3,315,463.3z   M227.7,335.3l2.1,0.9c-0.1,0.2-0.1,0.5-0.2,0.7c-0.7-0.2-1.4-0.3-2.1-0.5C227.6,336,227.7,335.6,227.7,335.3L227.7,335.3z   M358.8,536.8c-0.6-0.2-1.2-0.3-2.9-0.8c1.4-0.5,1.8-0.8,2.2-0.7c0.4,0.1,0.6,0.5,1,0.7C359.1,536.3,359,536.5,358.8,536.8  L358.8,536.8z M418.5,497l-1.8-0.8c0.1-0.2,0.1-0.4,0.2-0.7c0.7,0.1,1.3,0.3,2,0.4L418.5,497L418.5,497z M426.6,372.4l-1.9-1.2  c0.1-0.2,0.2-0.5,0.4-0.7l2,0.8C426.9,371.7,426.8,372,426.6,372.4z M390,476.7c0.4,0.6,0.7,1.1,1.3,1.9c-0.6,0.3-1,0.4-1.8,0.7  c-0.2-1-0.4-1.7-0.5-2.3C389.3,476.9,389.6,476.8,390,476.7L390,476.7z M415.7,414.6c0.9,0.6,1.5,1,2.4,1.6  C416.9,416.5,416,415.9,415.7,414.6z M402.5,441.3c-1.3-0.6-2.1-1-3.2-1.5C401,438.9,401.9,438.9,402.5,441.3z M405.1,539.6l2.9,1.2  C406.6,541.8,405.9,541.9,405.1,539.6z M103.5,213.8c-0.5-0.3-1.1-0.7-1.6-1c0.1-0.2,0.2-0.4,0.3-0.6l1.7,0.7  C103.7,213.1,103.6,213.5,103.5,213.8z M357.2,343.1c0.5,0.3,1,0.7,1.5,1c-0.1,0.2-0.2,0.4-0.3,0.6l-1.7-0.7  C356.9,343.7,357,343.4,357.2,343.1L357.2,343.1z M313.9,440.3l2.9,1.2C314.8,442.7,314.4,441.3,313.9,440.3z M239.9,608.8  c0.7,0.1,1.4,0.2,2,0.3c0,0.2,0,0.5,0,0.7c-0.7,0.1-1.4,0.1-2.1,0.1C239.9,609.5,239.9,609.1,239.9,608.8L239.9,608.8z M149.9,439.5  c-0.7-0.2-1.3-0.4-2-0.5c0-0.2,0-0.4,0-0.5c0.7-0.1,1.4-0.2,2.2-0.3C150,438.7,150,439,149.9,439.5z M284,336.3  c0.6,0.4,1.1,0.9,1.7,1.3c-0.2,0.2-0.3,0.4-0.5,0.6c-0.6-0.4-1.2-0.9-1.7-1.3C283.6,336.7,283.8,336.5,284,336.3L284,336.3z   M278.8,488.7l-2.9-1.2c1.7-0.1,2.3-0.1,3-0.2C278.9,487.9,278.8,488.2,278.8,488.7L278.8,488.7z M356.1,467.4  c-0.7-0.1-1.4-0.1-2.1-0.2c0-0.3,0.1-0.6,0.1-0.9c0.7,0.1,1.4,0.2,2,0.3C356.2,466.9,356.2,467.1,356.1,467.4z M142.4,374l-2.5-1  C140.9,372.9,142.3,371.7,142.4,374z M211.1,471.7c-0.6-0.2-1.3-0.4-1.9-0.6c0-0.2,0.1-0.4,0.1-0.7c0.7,0,1.4,0.1,2.1,0.2  C211.3,471,211.2,471.4,211.1,471.7L211.1,471.7z M129.5,532.8c-1.2,0-2.1,0-3.4,0C127.2,532.3,128.4,532.2,129.5,532.8z   M249.7,505.4c-0.7-0.1-1.4-0.1-2.1-0.2c0-0.2,0-0.5,0-0.8c0.7,0,1.4-0.1,2.1-0.1C249.7,504.6,249.7,505,249.7,505.4z M168.4,379.5  c-0.5-0.3-1-0.7-1.5-1c0.1-0.2,0.2-0.4,0.3-0.6c0.6,0.2,1.2,0.4,1.8,0.6C168.7,378.8,168.5,379.2,168.4,379.5L168.4,379.5z   M209.2,606.6c0.6-0.3,1.1-0.7,1.7-1.1c0.1,0.2,0.3,0.4,0.5,0.5l-1.5,1.5C209.6,607.3,209.4,606.9,209.2,606.6L209.2,606.6z   M210.5,578.6c-0.5,0.4-0.9,0.8-2.1,1.9c0.3-1.3,0.3-1.8,0.5-2.1c0.2-0.4,0.6-0.6,0.9-0.9C210,577.8,210.3,578.2,210.5,578.6  L210.5,578.6z M391.2,27.3c-0.2-1.1-0.5-2.2-0.7-3.3c1.5,1,1.3,2.2,0.5,3.4L391.2,27.3L391.2,27.3z M259.6,307.5l-1.8-0.9  c0.1-0.2,0.1-0.5,0.1-0.7c0.5,0,1-0.1,1.3,0.1s0.6,0.7,0.8,1C259.9,307.3,259.7,307.4,259.6,307.5z M412.9,562.5c-0.7,0-1.4,0-2.1,0  c0-0.3,0-0.6,0-0.9c0.7,0,1.4,0.1,2.2,0.1C412.9,562,412.9,562.2,412.9,562.5z M153.8,186.6c1.5,0,2-0.1,2.3,0  c0.3,0.2,0.5,0.7,1,1.3c-0.6,0.1-1,0.3-1.4,0.1C155.3,187.9,155,187.6,153.8,186.6z M263,497.5l-1.9-0.4l0.1-0.8c0.7,0,1.4,0,2,0  C263.1,496.7,263.1,497.1,263,497.5z M270.6,416.9c1.1-0.3,1.7-0.5,2.3-0.7l0.4,0.6c-0.3,0.3-0.6,0.8-1,0.9  C271.9,417.7,271.4,417.3,270.6,416.9L270.6,416.9z M2.8,326.4l-2.6-1.1C1.3,325,2.2,325.4,2.8,326.4z M412,510.1  c0.5,0.3,0.7,0.4,1.3,0.8c-0.7,0.6-1.2,1-2.5,2.1L412,510.1z M256.3,520.4c1.6-0.1,2.2-0.1,2.9-0.2c0.1,0.2,0.1,0.5,0.2,0.7  c-0.4,0.2-0.8,0.5-1.2,0.5C257.8,521.5,257.5,521.1,256.3,520.4z M380.2,560.3c0.2-0.8,0.2-1,0.3-1.4c0.7,0.2,1.3,0.4,2,0.5  c0,0.2,0,0.4,0,0.6C381.9,560.1,381.2,560.2,380.2,560.3z M352,420c0.1,0.2,0.1,0.5,0.2,0.7c-0.3,0-0.7,0.1-1,0.2  c0-0.3-0.1-0.6,0.1-0.7C351.4,420,351.8,420,352,420L352,420z M103.1,342.2l2.3,1c0,0-0.1,0.2-0.2,0.4l-2.3-1  C102.9,342.5,103,342.3,103.1,342.2z M211.1,223.4c0.4,0.5,0.7,1,1.1,1.5c-0.2,0.2-0.3,0.3-0.5,0.4c-0.4-0.4-0.9-0.8-1.3-1.3  C210.6,223.8,210.9,223.6,211.1,223.4L211.1,223.4z M428.6,470.2c-0.2-0.5-0.4-0.9-0.8-1.7c0.9,0.2,1.5,0.3,2.8,0.5  C429.5,469.6,429.1,469.9,428.6,470.2z M256.4,462.7c-1.3,1-2,1.2-2.5-0.7C254.9,462.3,255.5,462.5,256.4,462.7z M242.7,426.3  l1.2,0.5c-0.1,0.2-0.2,0.4-0.2,0.6c-0.4-0.2-0.8-0.4-1.2-0.6C242.6,426.7,242.6,426.5,242.7,426.3z M127.1,655.9  c-0.4-0.2-0.7-0.4-1-0.7c0,0,0.3-0.4,0.4-0.6c0.4,0.3,0.7,0.5,1.1,0.8C127.4,655.5,127.2,655.7,127.1,655.9L127.1,655.9z M328.4,451  c0.3,0,0.5-0.1,0.8-0.1c0,0.3,0,0.7,0,1c-0.3,0-0.6,0-0.8-0.1C328.3,451.6,328.5,451.2,328.4,451z M251.6,536.1c0.5,0,0.9,0,1.4,0  c0,0.2,0.1,0.4,0.1,0.6c-0.5,0.1-0.9,0.3-1.4,0.4C251.7,536.8,251.6,536.5,251.6,536.1z M127.8,312.7c-0.9-0.8-1.4-1.6-0.1-3.4  C127.7,310.9,127.7,311.8,127.8,312.7L127.8,312.7z M361.5,155.3c-0.1-0.4-0.2-0.9-0.3-1.3c0.4,0,0.7,0,1.1,0  c-0.1,0.4-0.2,0.9-0.2,1.3C362,155.3,361.7,155.3,361.5,155.3z M207.3,689.3c0.3,0.6,0.7,1.2,1,1.7c-0.2,0.1-0.4,0.3-0.5,0.4  c-0.5-0.5-0.9-1.1-1.4-1.6C206.7,689.7,207,689.5,207.3,689.3L207.3,689.3z M320.4,713.1c-0.4,0-0.8,0.1-1.1,0.1  c-0.1,0-0.2-0.6-0.2-0.7c0.3-0.2,0.7-0.2,1.1-0.3C320.2,712.4,320.3,712.7,320.4,713.1L320.4,713.1z M340.4,382.7l2.4,1  C341.2,384.6,340.5,384.3,340.4,382.7z M418.1,442.2c-0.3-0.1-0.7-0.1-1.1-0.2c0.1-0.3,0.2-0.7,0.3-1c0.3,0.1,0.7,0.3,1,0.5  C418.3,441.7,418.2,442,418.1,442.2L418.1,442.2z M101.3,653.6c-0.3-0.4-0.5-0.8-0.8-1.2c0.2-0.2,0.3-0.3,0.5-0.4  c0.4,0.3,0.8,0.7,1.2,1.1C101.9,653.2,101.6,653.4,101.3,653.6z M399.9,257.5c-0.1-0.2-0.2-0.4-0.3-0.7c0.4-0.1,0.7-0.2,1.1-0.3  c0,0.3,0.1,0.6,0,0.8C400.5,257.4,400.1,257.3,399.9,257.5L399.9,257.5z M315.7,465.7c-0.1-0.2-0.1-0.5-0.2-0.7  c0.4,0,0.7-0.1,1.1-0.1c0,0.3,0,0.7-0.1,0.8C316.3,465.8,316,465.7,315.7,465.7z M391,493.4c0.3,0.3,0.4,0.5,0.6,0.7  c-0.3,0.2-0.6,0.5-0.9,0.6c-0.1,0-0.5-0.5-0.5-0.5C390.4,493.8,390.7,493.6,391,493.4L391,493.4z M389.3,497.2  c0.1-0.4,0.1-0.8,0.3-1.1c0-0.1,0.8,0,0.8,0c0.1,0.4,0,0.8,0,1.2C390.1,497.3,389.8,497.2,389.3,497.2z M339.9,508.6  c0.3,0.3,0.7,0.6,1,0.9c-0.2,0.2-0.5,0.6-0.5,0.6c-0.3-0.3-0.6-0.6-0.9-0.9C339.6,509,339.8,508.8,339.9,508.6L339.9,508.6z   M357.3,443.3c0.1,0.6,0.3,1.2,0.5,1.8c-0.2,0.1-0.5,0.1-0.7,0.2c-0.1-0.6-0.3-1.2-0.4-1.8C356.8,443.4,357,443.4,357.3,443.3z   M405.3,605.5c-0.8-0.2-1.3-0.3-2.8-0.6c1.3-0.5,1.7-0.9,2.1-0.8C404.8,604.2,404.9,604.8,405.3,605.5L405.3,605.5z M51.2,641.6  c1.1-0.5,1.6-0.8,2.2-1.1c-0.3,0.4-0.5,0.9-0.8,1.3C52.5,641.9,52.1,641.7,51.2,641.6L51.2,641.6z M370.7,473.4  c-0.6-0.2-1.2-0.3-1.8-0.5c0.1-0.2,0.2-0.5,0.2-0.8c0.6,0.2,1.2,0.4,1.7,0.5C370.8,472.9,370.8,473.1,370.7,473.4z M333.4,569.1  c-0.7,0-1.3,0-2,0c0-0.2,0-0.4-0.1-0.6c0.7-0.1,1.3-0.2,2-0.4L333.4,569.1L333.4,569.1z M415.8,293.3c0.1,0.4,0.3,0.9,0.4,1.3  c-0.4,0.2-0.7,0.4-1,0.6c-0.3-0.4-0.6-0.7-0.9-1.1C414.7,293.8,415.3,293.5,415.8,293.3z M177.6,311.8c-0.1-0.3-0.2-0.5-0.3-0.7  c0.4-0.1,0.7-0.1,1.1-0.2c0,0.3,0.1,0.7,0,0.8C178.2,311.8,177.8,311.7,177.6,311.8z M366.9,467c-0.4,0.1-0.9,0.3-1.3,0.4  c-0.1,0-0.3-0.6-0.3-0.6c0.4-0.3,0.8-0.5,1.2-0.7C366.5,466.3,366.7,466.6,366.9,467L366.9,467z M429.9,538.4  c-0.4,0.1-0.8,0.3-1.5,0.6c-0.3-0.7-0.4-1.1-0.8-2.1c1.2,0.2,1.7,0.3,2.3,0.5C429.9,537.8,429.9,538.1,429.9,538.4L429.9,538.4z   M290.1,519.3c0.4-0.1,0.8-0.3,1.2-0.5c0.1,0.1,0.1,0.3,0.2,0.4c-0.4,0.1-0.8,0.3-1.2,0.5C290.2,519.6,290.1,519.5,290.1,519.3  L290.1,519.3z M289.1,288c0.1,0.5,0.2,0.9,0.3,1.4c0,0-0.3,0.1-0.4,0.1c-0.3-0.4-0.5-0.8-0.8-1.2C288.5,288.2,288.8,288.1,289.1,288  z M402.4,470.2c-0.4,0.2-0.8,0.3-1.1,0.4c-0.1-0.2-0.1-0.3-0.2-0.5c0.4-0.1,0.8-0.3,1.2-0.4C402.2,469.9,402.3,470,402.4,470.2  L402.4,470.2z M155.6,172c0.2,0.4,0.4,0.8,0.6,1.2c-0.2,0.1-0.4,0.2-0.6,0.3c-0.2-0.4-0.5-0.8-0.7-1.2  C155.1,172.3,155.4,172.1,155.6,172L155.6,172z M297.1,507.4l-1.1,0.4c0,0-0.1-0.3-0.2-0.4c0.4-0.1,0.8-0.3,1.1-0.4  C297,507.1,297.1,507.3,297.1,507.4L297.1,507.4z M311.2,570.4c0.4-0.2,0.8-0.3,1.1-0.5c0.1,0.1,0.2,0.3,0.3,0.4  c-0.3,0.3-0.7,0.6-1,0.9C311.5,570.9,311.4,570.7,311.2,570.4L311.2,570.4z M424.6,467.2c-0.1-0.4-0.3-0.7-0.8-2.1  c1,1.1,1.2,1.4,1.5,1.7L424.6,467.2z M344.7,542.2c-0.4,0.3-0.8,0.5-1.3,0.7c-0.1-0.2-0.2-0.4-0.3-0.6c0.4-0.2,0.8-0.5,1.3-0.7  C344.5,541.9,344.6,542.1,344.7,542.2L344.7,542.2z M211.7,275.1c-0.2-0.4-0.3-0.8-0.5-1.2c0.3-0.2,0.7-0.3,1-0.5  c0.3,0.4,0.5,0.7,0.8,1.1C212.5,274.7,212.1,275,211.7,275.1L211.7,275.1z M218,432.3c-0.2-0.4-0.3-0.8-0.4-1.1  c0.2-0.1,0.4-0.1,0.5-0.2c0.1,0.4,0.3,0.8,0.4,1.2C218.3,432.2,218.1,432.2,218,432.3L218,432.3z M396.4,147.2  c-0.3-0.4-0.5-0.7-0.8-1c0.2-0.1,0.4-0.3,0.6-0.4c0.2,0.4,0.5,0.7,0.7,1.1C396.7,147,396.6,147.1,396.4,147.2L396.4,147.2z   M261.5,530l-1.7-0.7c0,0,0.1-0.2,0.1-0.3l1.7,0.7C261.6,529.7,261.5,529.9,261.5,530z M409.1,161.8c0-0.4-0.1-0.9-0.1-1.4  c0.2,0,0.4,0,0.5-0.1c0.1,0.4,0.2,0.9,0.3,1.3C409.6,161.7,409.4,161.7,409.1,161.8z M100.9,668.7c0.6-0.3,1.1-0.6,1.7-0.9  c0.1,0.2,0.1,0.5,0.2,0.7c-0.6,0-1.2,0-1.9,0.1L100.9,668.7z M314.1,406.2c0.2,0.4,0.4,0.7,0.6,1.1c-0.2,0.1-0.4,0.2-0.7,0.4  c-0.3-0.3-0.5-0.7-0.8-1C313.5,406.5,313.9,406.3,314.1,406.2z M382.2,438.6c-0.3-0.4-0.6-0.7-0.8-1.1c0.1-0.1,0.3-0.2,0.4-0.4  c0.3,0.3,0.7,0.7,0.9,1C382.5,438.3,382.4,438.5,382.2,438.6z M354.2,620.4c0.4-0.1,0.9-0.3,1.3-0.4c0.1,0.2,0.2,0.3,0.2,0.5  c-0.4,0.2-0.7,0.5-1.1,0.7C354.5,620.9,354.4,620.6,354.2,620.4z M415.3,516.9c-0.2-0.3-0.4-0.7-0.5-1c0.2-0.2,0.3-0.3,0.3-0.3  c0.3,0.3,0.6,0.5,0.9,0.8C415.8,516.5,415.6,516.7,415.3,516.9z M114.1,149.5c-0.4,0.1-0.7,0.3-1.1,0.4c-0.1-0.1-0.1-0.3-0.2-0.5  c0.4-0.1,0.7-0.3,1.1-0.4C114,149.2,114.1,149.4,114.1,149.5L114.1,149.5z M175.3,118.8l1.5,0.7c-0.1,0.2-0.1,0.3-0.2,0.5  c-0.5-0.2-1-0.5-1.5-0.7C175.2,119.1,175.2,119,175.3,118.8L175.3,118.8z M324.7,582.3c-0.4,0.1-0.8,0.3-1.2,0.4  c-0.1-0.1-0.1-0.3-0.1-0.5c0.4-0.1,0.8-0.2,1.2-0.4C324.7,582,324.7,582.2,324.7,582.3L324.7,582.3z M368.6,566.8  c0.5,0.2,1,0.3,1.5,0.5l-0.2,0.5c-0.5-0.2-1-0.3-1.5-0.5C368.5,567.1,368.5,567,368.6,566.8z M199,319.7l-1.6-0.7  c0,0,0.1-0.2,0.2-0.4l1.6,0.7L199,319.7z M321,221.9c-0.2-0.3-0.3-0.7-0.5-1.1c0.3-0.1,0.5-0.2,0.8-0.3c0.1,0.4,0.2,0.8,0.3,1.2  C321.4,221.8,321.2,221.8,321,221.9L321,221.9z M119.8,281c-0.2-0.3-0.3-0.7-0.5-1.1c0.2-0.1,0.4-0.2,0.6-0.4  c0.3,0.3,0.6,0.6,0.8,0.9C120.5,280.7,120.1,280.9,119.8,281L119.8,281z M363.3,460.2c-0.4,0.3-0.7,0.5-1,0.8l-0.4-0.6  c0.4-0.2,0.8-0.4,1.1-0.6C363.1,459.9,363.2,460.1,363.3,460.2L363.3,460.2z M281.3,440.1c0.5-0.1,0.9-0.3,2-0.7  c-0.8,0.7-1,1.1-1.2,1.2C281.9,440.7,281.7,440.4,281.3,440.1z M374.5,352.6c0.1,0.4,0.3,0.8,0.4,1.3c-0.2,0.1-0.4,0.1-0.6,0.2  c-0.1-0.4-0.3-0.9-0.4-1.3C374.1,352.7,374.3,352.6,374.5,352.6L374.5,352.6z M404.2,280.1l0.6,1.3c-0.2,0.1-0.4,0.2-0.6,0.3  c-0.2-0.4-0.5-0.8-0.7-1.3C403.8,280.3,404,280.2,404.2,280.1z M361.2,745.6c-0.4,0.2-0.7,0.4-1.1,0.5c-0.1-0.2-0.2-0.3-0.2-0.4  c0.4-0.2,0.7-0.4,1.1-0.6C361,745.3,361.1,745.4,361.2,745.6z M397.5,464.8c0.5,0.2,1,0.4,1.5,0.5c-0.1,0.2-0.1,0.3-0.2,0.5  c-0.5-0.2-1-0.3-1.6-0.5C397.3,465.1,397.4,465,397.5,464.8L397.5,464.8z M223.4,456.4c0.6,0.2,1.1,0.3,1.7,0.5  c-0.1,0.2-0.1,0.4-0.2,0.6c-0.6-0.2-1.1-0.3-1.7-0.5C223.3,456.7,223.4,456.6,223.4,456.4z M141.1,390.1c-0.4,0-0.9,0-1.3,0.1  c0-0.2-0.1-0.3-0.1-0.5c0.5-0.1,0.9-0.2,1.3-0.4C141.1,389.6,141.1,389.9,141.1,390.1L141.1,390.1z M246.8,691.9  c0.3-0.2,0.7-0.5,1-0.7c0.1,0.2,0.2,0.3,0.3,0.5c-0.4,0.2-0.7,0.3-1.1,0.5C247,692.2,246.9,692.1,246.8,691.9L246.8,691.9z   M265.3,2.5c-0.1-0.4-0.3-0.8-0.4-1.2c0.2-0.1,0.4-0.2,0.5-0.3c0.3,0.3,0.5,0.7,0.8,1C265.9,2.2,265.6,2.3,265.3,2.5z M331.3,466.3  c-0.4,0-0.7,0.1-1.1,0.1c0-0.3,0-0.7,0.1-0.7c0.3-0.1,0.7,0,1,0V466.3L331.3,466.3z M422.1,261.4c0.2,0.4,0.4,0.8,0.6,1.3  c-0.2,0.1-0.4,0.2-0.6,0.3c-0.2-0.4-0.4-0.8-0.6-1.3C421.7,261.6,421.9,261.5,422.1,261.4z M180.9,636.9c-0.2-0.5-0.4-0.9-0.6-1.3  c0.2-0.1,0.3-0.2,0.5-0.3c0.3,0.4,0.7,0.8,1,1.2C181.5,636.6,181.2,636.7,180.9,636.9z M200.6,330.8c0.6,0.3,1.2,0.6,1.7,0.9  c-0.1,0.2-0.2,0.4-0.3,0.5c-0.6-0.3-1.2-0.6-1.8-0.8C200.4,331.2,200.5,331,200.6,330.8L200.6,330.8z M151.4,497.1  c-0.4,0-0.9,0-1.3,0l-0.1-0.4c0.4-0.2,0.8-0.3,1.1-0.4C151.3,496.5,151.4,496.8,151.4,497.1z M234.4,502.4c0.4-0.2,0.8-0.4,1.2-0.5  c0.1,0.2,0.1,0.3,0.2,0.5c-0.4,0.2-0.8,0.4-1.2,0.5C234.6,502.8,234.5,502.6,234.4,502.4L234.4,502.4z M304.4,235.3  c-0.2-0.4-0.4-0.8-0.7-1.1c0.2-0.1,0.5-0.3,0.7-0.4c0.3,0.3,0.6,0.7,0.9,1C305,234.9,304.7,235.1,304.4,235.3z M330.8,496.6l1.2-0.2  c0,0.3,0,0.8-0.1,0.8c-0.4,0.1-0.7,0-1.1,0.1C330.8,497.1,330.8,496.9,330.8,496.6z M294.4,299.3c0.1,0.4,0.3,0.8,0.5,1.2  c-0.1,0.1-0.2,0.1-0.3,0.2c-0.3-0.4-0.5-0.7-0.8-1.1C293.9,299.5,294.1,299.4,294.4,299.3L294.4,299.3z M303.6,355.5  c0.3,0.4,0.5,0.7,0.8,1c-0.2,0.1-0.4,0.2-0.5,0.4c-0.2-0.4-0.4-0.7-0.6-1.1C303.4,355.7,303.5,355.6,303.6,355.5z M431.2,582  c-0.1-0.3-0.2-0.6-0.4-0.9 M119.6,456.7c0.2,0.4,0.4,0.8,0.6,1.2c-0.2,0.1-0.4,0.2-0.5,0.3c-0.3-0.4-0.5-0.7-0.8-1.1  C119.1,457,119.4,456.9,119.6,456.7L119.6,456.7z M312.8,332.7c-0.3-0.4-0.6-0.8-0.8-1.2c0.2-0.1,0.4-0.3,0.6-0.4  c0.3,0.4,0.5,0.8,0.8,1.2C313.2,332.5,313,332.6,312.8,332.7L312.8,332.7z M194.7,613c0.5-0.1,1-0.3,1.4-0.4  c0.1,0.2,0.1,0.4,0.2,0.6c-0.5,0.1-1,0.3-1.5,0.4C194.8,613.4,194.7,613.2,194.7,613L194.7,613z M367,733.3c0.4-0.1,0.8-0.3,1.2-0.5  c0.1,0.2,0.2,0.4,0.3,0.6c-0.3,0.3-0.7,0.6-1,0.9C367.4,734,367.2,733.7,367,733.3L367,733.3z M346.4,596.4  c-0.5,0.1-0.9,0.2-1.4,0.3c0,0-0.1-0.3-0.1-0.4c0.3-0.3,0.7-0.5,1.1-0.8C346.1,595.7,346.2,596.1,346.4,596.4z M271.4,378.4  c0.4,0.3,0.7,0.5,1,0.7c-0.3,0-0.6,0-0.8-0.1C271.6,379,271.6,378.8,271.4,378.4L271.4,378.4z M300.6,257.6  C300.2,257.4,300,257.4,300.6,257.6C300.1,257.3,300.3,257.4,300.6,257.6z M43.4,225.1c-0.3-0.1-0.6-0.3-0.9-0.4  c0-0.1,0.1-0.2,0.1-0.2c0.3,0.1,0.6,0.3,0.9,0.4L43.4,225.1L43.4,225.1z M273.3,707.2c-0.2,0.3-0.3,0.5-0.4,0.7  c0-0.1-0.2-0.3-0.1-0.3C272.9,707.5,273,707.4,273.3,707.2z M242.7,338.8l-1-0.4c0,0,0.1-0.2,0.1-0.3l1,0.4  C242.8,338.5,242.8,338.7,242.7,338.8z M226.8,523.4C226.5,523.3,226.3,523.3,226.8,523.4C226.5,523.4,226.2,523.4,226.8,523.4z   M409.6,701.8l0.9,0.4l-0.1,0.3l-0.9-0.4L409.6,701.8z M337.6,338.5l-0.9-0.4c0,0,0.1-0.2,0.1-0.3c0.3,0.1,0.6,0.3,0.9,0.5  C337.7,338.4,337.6,338.5,337.6,338.5z M429.4,55.6C429.3,56,429.2,56.3,429.4,55.6C429.2,56,429.1,56.2,429.4,55.6z M396,554.2  c-0.3,0-0.5,0-0.8-0.1c0.1-0.2,0.2-0.4,0.3-0.5C395.6,553.8,395.8,554,396,554.2L396,554.2z M260.2,464.9c-0.3-0.2-0.5-0.3-0.7-0.4  c0.1,0,0.3-0.1,0.3-0.1C259.9,464.5,260,464.7,260.2,464.9z M132.3,639.8c-0.2-0.1-0.5-0.2-0.7-0.3c0-0.1,0-0.1,0.1-0.1  c0.2,0.1,0.5,0.1,0.7,0.2C132.3,639.7,132.3,639.8,132.3,639.8L132.3,639.8z M302.4,375.3C302,375.2,301.7,375.1,302.4,375.3  C301.8,375,302,375.1,302.4,375.3z M361.8,170C362.4,170.2,362.2,170.1,361.8,170C362.1,170.2,362.4,170.3,361.8,170z M391.7,31.8  C391.6,32.4,391.5,32.6,391.7,31.8C391.5,32.3,391.4,32.6,391.7,31.8z M248.1,443.6C247.6,443.5,247.4,443.4,248.1,443.6  C247.4,443.2,247.6,443.3,248.1,443.6z M421,468.8c-0.2,0-0.5-0.1-0.7-0.1c-0.1,0-0.1-0.2-0.1-0.3c0.3,0.1,0.6,0.2,0.9,0.3  C421.1,468.7,421,468.7,421,468.8L421,468.8z M163.8,682.8c0.5,0.3,0.7,0.5,1,0.7c-0.2,0-0.5,0-0.8,0  C163.9,683.5,163.9,683.3,163.8,682.8L163.8,682.8z M389.3,440.3c0.3,0.1,0.7,0.2,1,0.3c0,0.1-0.1,0.2-0.1,0.3l-1-0.4  C389.2,440.5,389.3,440.4,389.3,440.3L389.3,440.3z M364.5,239.8C364.9,239.9,364.7,239.9,364.5,239.8  C365,239.9,364.7,239.8,364.5,239.8z M335.2,582.2c-0.4,0.5-0.6,0.7-0.8,1c0-0.2,0-0.5,0-0.7C334.5,582.4,334.7,582.3,335.2,582.2  L335.2,582.2z M371.3,489.5C370.9,489.4,370.7,489.3,371.3,489.5C370.7,489.2,370.9,489.3,371.3,489.5z M353,406.5  c-0.3-0.1-0.7-0.3-1-0.5c0-0.1,0.1-0.2,0.1-0.2c0.3,0.1,0.7,0.3,1,0.5C353,406.4,353,406.5,353,406.5L353,406.5z M397.4,472.2  l-0.9-0.4c0,0,0.1-0.2,0.1-0.3c0.3,0.1,0.6,0.3,0.8,0.4C397.4,472,397.4,472.1,397.4,472.2L397.4,472.2z M205.8,225.6  C205.3,225.1,205.5,225.4,205.8,225.6C205.4,225.6,205.1,225.5,205.8,225.6z M275.3,577.9C274.9,577.8,274.6,577.7,275.3,577.9  C274.7,577.6,275,577.7,275.3,577.9z M345.4,403.4c0,0,0,0.2-0.1,0.3c-0.1-0.1-0.3-0.1-0.4-0.1c0-0.1,0.1-0.2,0.2-0.3  C345.2,403.3,345.3,403.4,345.4,403.4z M258.3,614.2c-0.1,0.3-0.3,0.6-0.4,0.9c-0.1,0-0.2-0.1-0.3-0.1l0.4-1  C258,614.1,258.2,614.2,258.3,614.2L258.3,614.2z M184.7,359.1l-0.7-0.3c0,0,0.1-0.1,0.1-0.2c0.2,0.1,0.4,0.2,0.6,0.3  C184.8,359,184.7,359,184.7,359.1L184.7,359.1z M372.7,328.9C372.7,329.2,372.6,329.4,372.7,328.9  C372.7,329.2,372.7,329.4,372.7,328.9z M154.3,374.7C153.9,374.6,153.6,374.5,154.3,374.7C153.7,374.3,153.9,374.5,154.3,374.7z   M304.3,495C304.2,495.4,304.1,495.7,304.3,495C304.1,495.4,304,495.6,304.3,495z M30,201.2c0.4,0.2,0.6,0.3,0.8,0.4  c-0.1,0-0.2,0.1-0.3,0.1C30.3,201.6,30.2,201.4,30,201.2L30,201.2z M389.3,601.8C389.9,602,389.6,601.9,389.3,601.8  C389.6,602,389.8,602.1,389.3,601.8z M194.6,111c-0.1,0.2-0.1,0.5-0.2,0.7c-0.1,0-0.1,0-0.2-0.1C194.3,111.4,194.4,111.2,194.6,111  C194.5,111,194.6,111,194.6,111z M263.9,212.2C264.1,212.3,264.3,212.5,263.9,212.2C264.3,212.3,264.1,212.3,263.9,212.2z   M161.7,203l0.7,0.3l-0.1,0.2c-0.2-0.1-0.4-0.2-0.6-0.3C161.6,203.1,161.7,203.1,161.7,203z M251.7,406.6c0.5,0.3,0.8,0.5,1.1,0.7  c-0.3,0-0.6,0-0.8,0C251.9,407.2,251.8,407,251.7,406.6z M333.3,470.9l0.4-1c0,0,0.2,0.1,0.3,0.1c-0.1,0.3-0.3,0.6-0.4,0.9  C333.5,470.9,333.4,470.9,333.3,470.9z M413.9,420.3l1,0.4l-0.1,0.2l-1-0.4C413.8,420.5,413.9,420.4,413.9,420.3z M287.2,577.9  c-0.3-0.1-0.7-0.2-1-0.3c0-0.1,0.1-0.2,0.1-0.3l1,0.4C287.3,577.6,287.2,577.8,287.2,577.9z M263.8,176.5c0.4,0.3,0.8,0.5,0.3,0.2  c0.3,0.4,0.1,0.1-0.2-0.3L263.8,176.5L263.8,176.5z M334.9,455.3c0,0.3,0,0.6,0,0.9c-0.2-0.1-0.4-0.2-0.6-0.3  C334.5,455.6,334.7,455.4,334.9,455.3z M310.9,514C310.4,513.8,310.1,513.7,310.9,514C310.2,513.6,310.5,513.7,310.9,514z   M394.2,304.3c0.3,0.2,0.5,0.3,0.7,0.4c-0.1,0-0.2,0.1-0.3,0.1C394.5,304.7,394.4,304.5,394.2,304.3z M375.8,435.1  c-0.5-0.4-0.8-0.6-1.1-0.7c0.2,0,0.5,0,0.7,0.1C375.5,434.5,375.6,434.7,375.8,435.1z M344.6,629.9l-1-0.2c0.1-0.1,0.1-0.3,0.1-0.4  l1,0.3C344.7,629.6,344.6,629.8,344.6,629.9z M314.1,426.7C314,426.9,314,427.2,314.1,426.7C314.1,426.9,314.1,427.2,314.1,426.7z   M251.7,294.8C252.3,295,252.1,295,251.7,294.8C252,295,252.3,295.1,251.7,294.8z M269.3,530.9l1,0.4c0,0-0.1,0.2-0.1,0.3l-1-0.4  C269.2,531.1,269.2,530.9,269.3,530.9z M253.8,568c0.2-0.3,0.3-0.5,0.5-0.7c0,0.1,0.2,0.3,0.1,0.3  C254.2,567.7,254.1,567.8,253.8,568z M314.9,34.6c0-0.3,0-0.6,0.1-0.8c0-0.1,0.3-0.1,0.4-0.1l-0.2,1L314.9,34.6L314.9,34.6z   M274.9,129.1c-0.3-0.2-0.6-0.3-0.8-0.4c0.1,0,0.3-0.2,0.3-0.1C274.6,128.7,274.7,128.9,274.9,129.1z M161.1,6.6  C161.6,6.7,161.4,6.6,161.1,6.6C161.7,6.6,161.4,6.6,161.1,6.6z M259,287.1c-0.3-0.1-0.6-0.3-0.9-0.5c0-0.1,0.1-0.2,0.2-0.3  c0.3,0.1,0.6,0.3,0.9,0.5C259.2,286.9,259.1,287,259,287.1z M359,295.1c0,0,0-0.2,0-0.3c0.1,0,0.3,0,0.4,0.1c0,0,0,0.2,0,0.3  C359.3,295.1,359.1,295.1,359,295.1L359,295.1z M409.8,486.3c0.3,0,0.5,0,0.8,0.1c-0.1,0.2-0.2,0.4-0.3,0.6  C410.1,486.7,410,486.5,409.8,486.3z M407.3,707.3c-0.3-0.1-0.6-0.3-0.9-0.4c0-0.1,0.1-0.2,0.1-0.2l0.9,0.4L407.3,707.3L407.3,707.3  z M173.7,498.4c0.3,0.2,0.5,0.3,0.8,0.4c-0.1,0-0.3,0.1-0.3,0.1C174,498.8,173.9,498.7,173.7,498.4L173.7,498.4z M356.4,654.7  c0.2,0.1,0.5,0.2,0.7,0.4C356.9,655,356.7,654.8,356.4,654.7z M221.6,463.9C221.1,463.7,220.9,463.7,221.6,463.9  C221,463.5,221.2,463.6,221.6,463.9z M182,275.4c-0.3-0.2-0.5-0.3-0.7-0.4c0.1,0,0.3-0.1,0.3-0.1C181.8,275,181.9,275.2,182,275.4z   M127.6,497.9l-1-0.4l0.1-0.2l0.9,0.4C127.7,497.6,127.6,497.8,127.6,497.9z M320,445.2C320.4,445.4,320.2,445.3,320,445.2  C320.4,445.3,320.2,445.3,320,445.2z M44.4,149.8C44,149.6,43.7,149.6,44.4,149.8C43.8,149.4,44,149.6,44.4,149.8z M40.8,346  c-0.3-0.2-0.5-0.3-0.7-0.4c0.1,0,0.3-0.1,0.3-0.1C40.5,345.6,40.6,345.8,40.8,346L40.8,346z M291.2,489.9c-0.3-0.1-0.6-0.3-1-0.5  c0-0.1,0.1-0.2,0.1-0.2l1,0.4C291.4,489.7,291.3,489.8,291.2,489.9z M233.2,629.9C233,629.8,232.7,629.8,233.2,629.9  C232.9,629.9,232.7,629.9,233.2,629.9z M391.8,35.6c-0.1-0.2-0.2-0.4-0.2-0.5c0,0.1,0,0.3,0.1,0.6L391.8,35.6z M391.6,35.7  c0.1,0.2,0.2,0.4,0.3,0.5c0-0.1-0.1-0.3-0.1-0.6L391.6,35.7L391.6,35.7z M391,27.4c0.1,0.2,0.2,0.4,0.3,0.4c0-0.1-0.1-0.3-0.1-0.5  L391,27.4L391,27.4z M264,176.4c-0.1-0.2-0.2-0.4-0.2-0.4c0,0.1,0.1,0.3,0.1,0.5L264,176.4z M127.7,312.8c0.1,0.2,0.3,0.4,0.3,0.4  s-0.1-0.2-0.1-0.5L127.7,312.8z M320.2,198.8c0.1,0.2,0.3,0.4,0.3,0.4s-0.1-0.2-0.1-0.5L320.2,198.8z M320.4,198.7  c-0.1-0.2-0.2-0.4-0.2-0.4c0,0.1,0,0.3,0.1,0.5L320.4,198.7z M186.8,492.4c0.2-0.1,0.4-0.3,0.2-0.1c0.2,0,0,0-0.2,0V492.4z   M186.7,492.3c-0.2,0.1-0.4,0.2-0.4,0.2c-0.1,0,0.2,0,0.4-0.1V492.3z M100.8,668.6c-0.2,0.1-0.4,0.2-0.3,0.2c0,0,0.2-0.1,0.4-0.1  L100.8,668.6z M412.9,452.3h-0.3l0.2-0.2L412.9,452.3z M374.6,576.5v0.3l-0.2-0.2L374.6,576.5z M408.8,503.2v-0.3l0.2,0.1  L408.8,503.2z M426.2,718H426l0.2-0.2V718z M386.1,607.4v0.3l-0.2-0.1L386.1,607.4z M203.6,628.7v0.3l-0.2-0.1L203.6,628.7z   M325.1,561.9v0.3l-0.3-0.1L325.1,561.9z M362.2,361.7h0.2l-0.1,0.2L362.2,361.7z M396.2,299.3v-0.2l0.2,0.1L396.2,299.3z" />
</svg>