<?xml version="1.0" encoding="utf-8"?>
<!-- Generator: Adobe Illustrator 28.0.0, SVG Export Plug-In . SVG Version: 6.00 Build 0)  -->
<svg version="1.1" id="Layer_1" xmlns="http://www.w3.org/2000/svg" xmlns:xlink="http://www.w3.org/1999/xlink" x="0px" y="0px"
	 viewBox="0 0 602 737" style="enable-background:new 0 0 602 737;" xml:space="preserve">
<style type="text/css">
	.st0{opacity:0.2;fill:#584136;enable-background:new    ;}
</style>
<path class="st0" d="M306.1,312.5c0.4-1.5,0.8-3.3,1.3-5.1c-3.4-3.1-2.5-8.3-7-12.6c4.5,0.4,7.6,3.4,9.6-0.5c1-1.9,2.3-3.7,2.8-5.8
	c0.5-2,0.1-4.2,0.1-6.8c4.4-1.3,7.6,5,13,2.7c3.8,7.7,5.6,15.4,5.2,24.4c-4.6,3.7-9.4,7.5-13.9,11.1
	C313.6,317.6,310.1,315.2,306.1,312.5L306.1,312.5z M132.7,482.3c-1.8-0.8-3.4-1.5-5.5-2.4c0.8-2,1.4-3.6,2.3-5.9
	c2.4,0.7,4.5,1.4,7.5,2.3c1.3-0.5,3.4-1.3,5.4-2c4.5,0.7,8.2,2.4,11.5,6.7c-0.5,2.7-1.2,5.8-1.9,9.8c-2.8,1.2-5.7,2.4-8.8,3.6
	c-3.2-1-6.5-2.1-9.9-3.1C133.1,488.1,132.9,485.2,132.7,482.3L132.7,482.3z M388.1,331.1c-2.3,1.4-4.6,2.7-7.3,4.3
	c-5.5-0.2-8.2-5.3-12.2-7.7c0.7-3.3,1.2-5.9,1.7-8.4c1.6-1.3,3.2-2.7,4.8-4.1c4,4.1,10.1,0,15.1,2c-0.6,1.5-1.3,3-2,4.7
	c3,0.9,4.8-1.4,7-2.3l-0.2-0.1c-0.7,1.9-1.4,3.8-2.1,5.7c-3.4-0.2-6.7-3.9-9.2,1.3c0.6,1.4,1.3,3.1,1.9,4.6c1.1,0.1,1.8,0.2,2.4,0.2
	L388.1,331.1L388.1,331.1z M236.2,396.7c2.6-0.4,5.5-0.8,8.3-1.3c3.5,3.2,4,6.6,1.8,10.8c-1.7,0.4-3.5,0.8-5.6,1.3
	c-2.1,3.2-4.4,6.5-8.5,8c-3.6-2-4.6-5.1-4-9.4c2.2-1.5,4.5-3.1,7.3-5c-2.5-2.2-4.7-4.2-7.1-6.3c-0.1-1.4-0.2-2.8-0.2-4
	c2.4-1.3,4.5-2.5,7.1-3.8C236.8,390.1,233.2,393.6,236.2,396.7L236.2,396.7z M187.9,429.5c1.4,1.4,2.8,3,3.9,4.1
	c1.4,5.5-0.1,9.7-3.9,14c-2.1,0.5-5.2,1.2-7.9,1.7c-4.7-4-5.2-9-6.2-14.2c1.6-1.9,3.1-3.7,4.7-5.6H187.9L187.9,429.5z M270.1,439.9
	c-4-1-8-2.1-11.7-3v-12.8c3.3-1.4,6.4-2.7,9-3.9c4.7,1.4,7.2,4,9.1,8.3c-0.2,1.5-0.4,4-0.7,7.1C274.5,436.5,272.5,438.1,270.1,439.9
	L270.1,439.9z M423.2,284.7c-2.2,4.9-7.1,3.8-10.5,5.5c-5.2-1.2-6.2-5.2-7.5-9.8c1.4-2.7,2.9-5.6,4.4-8.7h8.7
	c1.1,1.9,2.2,3.7,3.3,5.8c3.7-1,7.3-1.9,10.8-2.8c0.1,0.2,0.2,0.4,0.3,0.6c-1.6,0.8-3.3,1.6-4.9,2.5c-1.7,0.9-3.3,1.8-5.4,3
	C422.7,282.1,423,283.4,423.2,284.7L423.2,284.7z M312.8,379.8c-0.9-0.7-3-2.2-5-3.6c2.4-5.4,6.3-8.4,12.1-8.7
	c0.2-2.8,0.3-5.2,0.4-7.6c1.6,0.4,2.8,0.8,4.5,1.2c0.1,3,0.7,6,4,7c-0.6,2.4-1.3,4.8-2,7.3c2.2,1.1,3.7,1.9,5.3,2.7
	c-0.1,0.3-0.2,0.6-0.2,0.9c-1.4-0.1-2.8-0.3-4.7-0.4c-0.7,0.5-1.9,1.3-2.2,1.4L312.8,379.8L312.8,379.8z M206.3,243.9
	c-0.4-1.3-0.9-2.7-1.4-4.1c0.4-0.1,1.3-0.5,2.2-0.8c0.6-2,1.2-4,1.9-6.7c-0.1-1.3-3.6-2.3-1.3-4.9c0.4,0,1-0.2,1.1-0.1
	c1.2,2.5,3.2,3.5,5.7,3.4c1.6,0,3.3,0,4.9,0c2.6,4.7,3.4,9.2,1,14.6c-1.3,1-2.9,2.3-4.7,3.7c-1.3-0.1-2.7-0.2-3.4-0.2
	C210,246.9,208.1,245.3,206.3,243.9L206.3,243.9z M199.3,383.6c-5.2-1.6-10.9-1.6-12.1-8.2c0.6-3.4,1.2-6.5,1.8-10
	c2.9,1,5.2,2,7.6,2.5c2.5,0.6,5,0.7,7.2,1C205.7,375.2,206,380.4,199.3,383.6L199.3,383.6z M53.2,283.2c2.7,2,5.7,1.8,8.7,1.2
	c8-1.6,9.1-1,11.5,6.8c5.5,2.4,5.7,2.7,5.6,7.8c-2.9-0.1-5.9-1.1-8.8-3.1h-6.4c-4.8-1.5-6-7.5-11-7.5c0.2-1.8,0.3-3.6,0.5-5.4
	L53.2,283.2z M58,254.5c9.4-0.3,12.5,2.4,13.5,12c-0.9,0.8-2.3,2.1-3.4,3.1h-7.2c-1.8-2-3.8-4-5.8-6.2C56,260.4,57,257.5,58,254.5z
	 M100.8,414.8h3.4c2.9,3.6,5.6,6.9,8.4,10.3c-0.5,3.1-2.9,4.6-4.9,6.3c-4.1,0.8-7.1-0.9-8.8-3c-0.6-3.6-1.1-6.2-1.7-9.4
	C98,418.1,99.3,416.6,100.8,414.8L100.8,414.8z M126.1,329.5c-1.2-2.2-2.4-4.3-3.7-6.7c1.8-1.7,3.1-3,4.5-4.4v-6.8
	c2.1-0.5,3.7-0.8,5.4-1.2c1-1.9,1.5-4.7,5.2-3.4c0.2,0.6,0.4,1.4,0.7,2.4c-1.4,0.7-2.5,1.3-3.9,2c0.7,1.1,1.4,2.1,2.3,3.5
	c-3.8,4.1-6.3,9.3-8.3,14.8C127.6,329.7,126.9,329.6,126.1,329.5L126.1,329.5z M155.3,356.9c2.5,4.3,2.1,8.5,0,12.7
	c-3.2,1.8-6.1,1.4-9.5-1.5c-0.5-2-1.2-4.9-1.8-7.4C147.3,356.5,150.8,355.5,155.3,356.9L155.3,356.9z M73.5,429.3
	c0.9,0.7,2,1.5,3.4,2.5v5.7c-2.3,1-4.4,2-6,2.7c-4.1-2.3-7.7-4.4-11.8-6.7c0.5-1.3,1.1-2.7,1.7-4.2H73.5z M344.7,348.7
	c-1.3-1.8-2.5-3.5-4.1-5.7c0.8-1.5,1.9-3.5,3-5.6h5.6c1.8,0.2,2.3,4.6,5.7,3.2C352.1,344.8,348.7,347.5,344.7,348.7z M135.7,515.8
	c-0.6-0.4-1.4-1-2.4-1.7c-0.9-5.6,1.5-9.5,5.8-13.1c1,0.5,2,0.9,3.1,1.5v6.7C140.8,512,139.6,515.2,135.7,515.8z M19.3,279.7
	c1.1-1.2,2.3-2.5,3.7-4c2.9,2.1,6.9,2.2,8.1,6.3c-1.1,2.3-3.1,4.1-5.8,5.2C22.2,286.3,19.1,285.2,19.3,279.7z M221.6,333.5
	c-2.5-1.6-5.1-3.1-7.5-4.6c0.4-5.1,4.3-5.2,7.7-6.4c1.5,1.4,2.9,2.8,4.4,4.2c0.4,2.1,0,3.6-1.7,5.1c-0.8,0.8-0.5,2.9-0.9,5.8
	C222.5,335.5,222,334.5,221.6,333.5z M103.7,368.2c-5.2,1.7-8.6-0.4-11.5-3.7c0.4-4.7,4.1-5.3,7.4-6.2
	C103.8,360,104.6,363.4,103.7,368.2z M289.3,543.6c-2.4,3.6-4.3,6.5-6.1,9c-3.6,0-4.7-2-5.9-4.5c0.7-1.9,1.4-3.9,2.2-6
	c1.4-0.8,2.8-1.5,4.5-2.5C285.5,540.9,286.9,541.9,289.3,543.6L289.3,543.6z M145,312.3c2.5,0.4,4.5,0.8,7.1,1.2
	c1.1-1,2.5-2.3,4.1-3.8c0.6,3.4-1.3,4.7-2.9,5.7c-1.1,2.9-2.1,5.5-3.2,8.1c-1.9-0.1-3.3-0.2-4.6-0.3
	C143.5,319.9,143.9,316.7,145,312.3L145,312.3z M232.9,375.7c-1-2.8-1.8-5-2.7-7.5c1.8-0.9,3.8-2,5.9-3c1.4,0.7,2.7,1.3,3.9,1.9
	c0.4,3,1.5,5.8-1.4,8.7h-5.7V375.7z M336.1,241.8c2.2,1.5,3.5,2.3,4.6,3.1c3.1-0.4,6-0.8,9.3-1.3c0.5,2.4,0.9,4.1,1.3,6
	c-2.9,1.3-5.4,2.5-8.2,3.7c-0.2-1.5-0.4-2.8-0.6-4C341.2,246.4,336.3,247.2,336.1,241.8L336.1,241.8z M101.2,402.1
	c1.4,1.6,2.2,2.5,3.4,3.9c-1.3,2.3-2.7,4.7-4.1,7.2c-2.8-1-5-1.7-7.1-2.5v-5.1C95.9,404.5,98.4,403.4,101.2,402.1L101.2,402.1z
	 M261.7,361.2c-1.4-1.3-2.5-2.4-3.9-3.7v-6.3c1.2-0.7,2.3-1.4,3.9-2.3c1.9,2.4,3.8,4.7,6,7.5C265.3,358.3,263.4,359.8,261.7,361.2
	L261.7,361.2z M143.1,337.9c-2.4,0.2-3.6,0.2-4.9,0.3c-0.9-2.2-1.3-4.6-2.6-6.4c-1.3-1.7-3.1-3-2.4-5.9c1.6-0.1,3.4-0.2,5.5-0.4
	C140,329.6,141.4,333.2,143.1,337.9z M396,356.9c1.8-0.3,3.4-0.5,5.3-0.8c0.9,2.3,1.8,4.5,2.8,7.1c-1.7,1.3-3.4,2.6-4.9,3.8
	C396.5,364.8,395.5,361.4,396,356.9z M340,263.3c-2.7-0.5-5.2-0.9-8.1-1.4c-0.8-1.3-1.7-2.9-2.7-4.6c0.8-1.5,1.6-2.9,2.3-4.2
	c0.8-0.1,1.3-0.3,1.6-0.1c0.8,0.4,2.3,0.9,2.3,1.5C335.8,257.9,340,259.3,340,263.3z M148.8,353.4c-2.3-1.9-3.9-3.2-5.5-4.5
	c0.2-3.6,2.3-4.8,5.2-5.8c1.6,1,3.4,2.1,5.8,3.6C152.5,348.9,150.9,350.8,148.8,353.4L148.8,353.4z M76.1,328.6
	c-5.4,3.7-9.7,2.7-14.1,0.2c0.2-1.2,0.3-1.8,0.4-2.9h11.4C74.2,326.4,75,327.3,76.1,328.6L76.1,328.6z M252.1,545.2
	c-2.6,0.1-4.5,0.2-7,0.4v-8.3c0.6-0.6,1.6-1.6,2.7-2.7c1.4,0.7,2.4,1.1,3.8,1.8C251.7,539,251.9,541.8,252.1,545.2L252.1,545.2z
	 M42,252.1c4.6-3.5,4.8-3.4,9.8,1.5c-0.6,1.3-1.2,2.9-1.8,4.4C45.8,257.8,43.3,256.3,42,252.1z M162.4,389.3
	c-1.5,3.5-3.8,3.3-6.8,2.4c-0.7-2.9-3.2-5.4-2.4-9c2,1,3.6,2.3,5.4,2.7C160.8,385.8,161.9,386.8,162.4,389.3L162.4,389.3z
	 M305.4,343.9c-3.9,3.6-7.6,2.6-12.6,0.8c4.5-1.8,8-3.3,12.1-5C305.1,341.7,305.3,342.9,305.4,343.9z M335.8,385.3
	c-0.3-2.3-0.6-4.5-1-7.2c0.9-0.7,2-1.6,3.1-2.4c1.1,0.6,2.1,1.1,3.7,1.9c-0.7,2.5-1.3,4.9-1.9,7.2c-1.7,0.1-2.9,0.2-4,0.3
	L335.8,385.3L335.8,385.3z M118.2,400.9c2.5,2.6,3.7,4.7,2.3,8c-1.2,0.2-2.7,0.6-4.4,0.9c-0.7-1.5-1.3-2.7-2-4.2
	C115.5,404.1,116.6,402.8,118.2,400.9z M228,355.2c-0.5,2-0.5,2.7-0.9,3.3c-0.5,1-1.2,2-2.1,3.3c-1.4-0.8-2.6-1.4-4.3-2.4
	c0.5-1.9,1.1-3.8,1.8-6.5C224.7,353.8,226.2,354.4,228,355.2L228,355.2z M360.7,304.5c-1.6-1.2-3.3-2.4-5.6-4.1
	c2.4-1.7,4.2-3,5.9-4.3C363.4,298.7,363.3,301.4,360.7,304.5z M178.5,315.4c-2.7,2.2-4.5,3.6-6.2,5.1c-0.9-2.6,0.2-5.9,3.6-9.8
	C176.8,312.3,177.6,313.7,178.5,315.4L178.5,315.4z M12.5,237.3H5.9c-0.6-1.3-1.2-2.8-2.1-4.8c2.3-0.2,4.1-0.3,6.3-0.4
	C10.8,233.6,11.4,235,12.5,237.3L12.5,237.3z M307,217.4c2.5,1.5,4.5,2.6,6.3,3.7c-1,0.2-2.4,0.5-3.6,0.8c-0.9,1.2-1.8,2.3-3.2,4
	c-1.1-2.2-2.1-3.9-3.1-5.8C304.7,219.2,305.8,218.4,307,217.4L307,217.4z M231.2,464.1c1.9,0.2,3.2,0.4,4.4,0.5
	c1,3.2-0.5,4.8-2.5,6.7c-1.4-1-2.6-1.8-4-2.8C229.8,467,230.4,465.8,231.2,464.1z M262.7,183.9c-3.9-1.6-3.8-3.8-3.2-6.3
	c1.7-1.8,3.4-3.4,6.4-0.7C265,179.1,263.9,181.4,262.7,183.9z M244.5,203v6.8c-1.7-0.3-3.1-0.6-4.7-0.8v-5.6
	C241,203.3,242.3,203.2,244.5,203L244.5,203z M213.1,483.1c1.3,0.4,2.6,0.8,4.5,1.4c-1.2,2.2-2.2,3.9-3.2,5.8
	c-1.1-0.6-1.8-0.8-2.2-1.3C210.7,487.2,210.9,485.4,213.1,483.1L213.1,483.1z M29.9,406.8c2.3-1.2,3.6-1.9,5.2-2.7
	c0.9,1.5,1.6,2.6,2.4,4c-1.4,1.2-2.6,2.2-4.2,3.4C32.2,410,31.4,408.8,29.9,406.8z M311.4,480.1c-0.9,2.5-1.5,4-2.1,5.6
	c-0.9-0.4-2-0.6-2.1-1c-0.6-2.2-0.9-4.4-1.7-8.3C308.3,478.1,309.7,479,311.4,480.1L311.4,480.1z M282.3,460.2
	c1.3-0.1,2.6-0.3,4.1-0.4c0.6,1,1.2,2,1.9,3.2c-0.9,1.1-1.7,2.2-2.8,3.6C283.3,465.1,281.4,463.8,282.3,460.2L282.3,460.2z
	 M337.1,350.5h4.6c1.6,2.6,1.2,4.8-0.6,7C337.6,356.2,339,353,337.1,350.5z M165.3,533.8c1-1.6,1.7-2.7,2.5-4.1
	c0.8,0.6,1.5,0.8,1.9,1.3c1.8,2.2,0.7,3.9-1.3,6C167.4,535.9,166.4,534.9,165.3,533.8L165.3,533.8z M76.9,329.1c2-1,3.5-1.7,5.6-2.8
	c0.2,2.3,0.2,3.7,0.3,5.2C80.5,333.1,79,332.2,76.9,329.1L76.9,329.1z M186.1,460.2c-2.9-2.1-3.3-4.6-1.3-7.7
	C187.4,454.5,186.2,456.9,186.1,460.2z M335.6,385.1v4.9c-2.6,0.3-4.3-0.5-5.2-2.4c1.1-2.7,3.4-2.1,5.4-2.3L335.6,385.1L335.6,385.1
	z M163,404.3c-1.5-3.2-2.7-5.8-4-8.5c3.7-1,4,2.8,6.4,3.7C164.6,401.2,164,402.4,163,404.3z M182.3,329.7c0.4,1.6,0.7,3.2,1.2,5.2
	c-1.7,0.2-3.1,0.3-4.6,0.4c-0.9-3.9,0.6-5.2,3.7-5.5L182.3,329.7z M394.9,331.6c1.6,1.2,3.1,2.3,4.5,3.4c-0.2,0.3-0.3,0.7-0.4,1.1
	c-1.7-0.7-3.4-1.3-5.5-2.2c-1.3,0.3-2.9,0.8-4.6,1.2c-0.1-0.3-0.2-0.6-0.2-0.8C390.5,333.5,392.4,332.6,394.9,331.6z M153.7,447.5
	h-3.2c-0.9-2.4-1-4.5,1.4-6.4C154.8,442.5,153.5,445,153.7,447.5L153.7,447.5z M151.7,413.3c-1,2.4-1.6,3.9-2.7,6.4
	c-1.6-2.4-2.5-3.7-4-6C147.5,413.6,149.1,413.5,151.7,413.3z M303.8,251.4c-0.3-2.3-0.4-3.8-0.6-5.2c3.4-2,3.8,0.6,4.9,2.9
	C306.9,249.7,305.7,250.4,303.8,251.4z M74.7,484.2c-1.6,1.7-2.9,3.1-4.5,4.8C69.2,483.7,69.4,483.4,74.7,484.2z M262,302.9
	c0.7-2.9,2.9-2.9,5-3.5c0.6,0.8,1.3,1.7,2.7,3.5H262z M112.3,295.9c1.9,1,3.3,1.8,5.1,2.7c-1,1.3-1.5,2.1-2.2,3
	C113.3,300.6,111,300.4,112.3,295.9z M118.1,444.4c-1.6-1.4-2.4-2.1-3.3-2.9c0.5-0.6,0.9-1.5,1.4-1.6c1.5-0.3,3-0.2,5.6-0.3
	C120.2,441.5,119.4,442.6,118.1,444.4z M353.2,415.4c2.1,3,3.4,4.8,4.9,6.9C353.1,422.4,353,422.3,353.2,415.4z M358,277.2
	c1.9,1.9,2.6,2.6,3.6,3.6c-1.4,1.7-2.1,2.5-2.8,3.5c-0.9-0.3-1.7-0.6-3.1-1.1C356.3,281.6,356.8,280.2,358,277.2L358,277.2z
	 M359.4,257v3.1c-2.9,1.9-4.5-0.2-6.5-2.8C355.2,257.2,357,257.1,359.4,257z M31.8,129c2.1-0.1,3.5-0.2,5.3-0.3
	c0.2,1.2,0.4,2,0.5,2.9C34.7,133.3,33.4,132,31.8,129z M323.5,280.7c-0.5-2.6-0.2-4.2,3-4.6c0.2,1.6,0.3,3.2,0.5,5.5
	C325.2,281.2,324.3,280.9,323.5,280.7z M167.3,502.8c0.9,1.1,1.7,2,2.6,3.1c-1.1,1.3-1.8,2.2-2.9,3.5c-0.9-1.3-1.7-2.4-2.7-3.8
	C165.1,504.9,165.8,504.2,167.3,502.8L167.3,502.8z M190.8,451.9c1.4-2,2.5-3.4,4-5.6c0.7,2.2,1.2,3.6,1.8,5.6H190.8z M222.5,396.2
	c-1.2,1.6-1.7,2.3-2.5,3.5c-1.3-1.3-2.5-2.5-3.7-3.6c0.2-0.3,0.4-0.7,0.5-1C218.4,395.4,219.9,395.7,222.5,396.2L222.5,396.2z
	 M246.7,191.3c1.2,2.4,1.3,4.4-0.6,6.3C244.7,195.6,244.9,193.4,246.7,191.3z M282.2,415.7c0.2-2.8,1.3-4.5,3.2-5
	C286.4,413.4,285.6,414.9,282.2,415.7z M207.3,383.7c2.7,0.5,5.5,1,9.3,1.7C211.4,386.7,211.4,386.7,207.3,383.7z M293,276.5
	c-0.2,1.8-0.3,3.1-0.6,5.9c-1.6-2.6-2.5-4-3.8-6.1C290.5,276.4,291.7,276.4,293,276.5z M362,541.1c-0.5-1.2-1.1-2.3-1.7-3.6
	c0.8-0.7,1.5-1.2,3-2.4c0.1,2.5,0.2,4.1,0.3,5.8C363,540.9,362.5,541,362,541.1z M125.6,507.4c1.1-1,1.9-1.7,2.8-2.4
	c2,2.5,0.9,3.9-0.8,5.3C127,509.4,126.4,508.5,125.6,507.4L125.6,507.4z M278.2,344c-1.1-0.1-1.8-0.2-2.8-0.2
	c-0.2-0.8-0.3-1.7-0.5-2.9c1.1-0.3,1.9-0.5,3.3-0.9V344z M168.4,381.7c-0.8,1.3-1.4,2.2-2.1,3.4c-0.8-1-1.7-1.7-1.9-2.5
	c-0.3-0.8,0.1-1.7,0.2-3.4C166,380.2,167,380.8,168.4,381.7L168.4,381.7z M303.6,410.3c0.7-0.6,1.2-1,2.2-1.8
	c0.8,1.9,1.5,3.5,2.4,5.6C305.6,413.9,304.7,412.1,303.6,410.3z M286.1,364.2c1.1-1,1.4-1.3,2-1.8c1.8,0.8,3.1,2.1,3.1,5.3
	C289.2,366.4,287.8,365.4,286.1,364.2L286.1,364.2z M197.7,330.5c-0.6,0.6-1.3,1.2-2.4,2.1c-1-1.1-1.9-2-3.8-4
	c2.9,0.2,4.3,0.3,5.7,0.4C197.4,329.6,197.5,330.1,197.7,330.5L197.7,330.5z M128.6,366.7h3.6c0.1,0.9,0.2,1.8,0.4,3
	c-1.2,0.2-2.2,0.4-3.5,0.6C128.9,369.1,128.8,368.3,128.6,366.7z M120.1,416.8c0.2-1.6,0.4-2.5,0.6-4c1.4,1,2.4,1.7,4.5,3.2
	C122.7,416.4,121.6,416.6,120.1,416.8z M79,238.4c-1.5,0.4-2.4,0.6-3.7,0.9v-5.4C77.1,236,77.9,237,79,238.4L79,238.4z M184.7,395.1
	c-2.3,2.2-3.7,1.6-5-0.8c0.9-0.6,1.9-1.2,3.1-1.9C183.6,393.5,184.2,394.3,184.7,395.1z M381.6,241.6c0.3,1.9,0.4,2.8,0.6,4.1
	c-1.2,0.2-2.2,0.3-4.6,0.7C379.3,244.3,380.2,243.3,381.6,241.6L381.6,241.6z M349.3,279.2c1.7,2,2.5,2.9,3.7,4.3
	c-1.5,0.4-2.4,0.6-3.7,1V279.2z M191.5,456.7c1.4,0.3,2.2,0.4,3.9,0.8c-1.3,1.6-2.2,2.5-3.9,4.6V456.7z M196.4,344
	c-2.1-2.1-3-3.1-4.5-4.6c1.7-0.3,2.6-0.5,3.9-0.7C196,340,196.1,341.2,196.4,344z M312,192.1c0.5,1.7,0.7,2.5,1.1,3.9
	c-1.6,0.2-2.7,0.3-5.4,0.6C309.7,194.5,310.6,193.5,312,192.1L312,192.1z M239.9,318.2c0.6,1,1.3,2.1,2.3,3.7
	c-1.7,0.1-2.7,0.2-4.2,0.3c0.2-1.6,0.3-2.6,0.4-3.6C238.9,318.4,239.4,318.3,239.9,318.2L239.9,318.2z M443.7,369.8
	c-1.9,1-2.7,1.5-4.1,2.3v-4.3C440.9,368.4,441.8,368.9,443.7,369.8L443.7,369.8z M151.9,198.1v5.4c-1.6-1.5-2.4-2.2-3.5-3.3
	C149.7,199.4,150.6,198.9,151.9,198.1z M179.3,400.6v3c-1.5-0.8-2.6-1.4-3.8-2c0.1-0.3,0.2-0.6,0.3-0.9h3.5V400.6z M148.9,435
	c-0.9-1.4-1.4-2.3-2.4-3.8c1.9-0.2,3.1-0.2,5.2-0.4C150.6,432.6,149.9,433.5,148.9,435L148.9,435z M511.9,515.2c3,1.9,2.3,4.1,2.1,7
	c-0.9-1.5-1.6-2.3-1.8-3.2C511.9,518,512,516.9,511.9,515.2L511.9,515.2z M341.6,270l2.7-2.8c0.3,0.3,0.7,0.6,1,0.8
	c-0.7,1.1-1.5,2.2-2.2,3.2C342.6,270.9,342.1,270.4,341.6,270L341.6,270z M467.5,347.8c-0.5-2.2-0.7-3.2-1.2-5.1
	c1.7,0.8,2.6,1.2,3.9,1.8C469.4,345.5,468.9,346.2,467.5,347.8L467.5,347.8z M444.4,401.6c-0.1,1.3-0.2,2.4-0.2,3.5
	c-0.4,0.1-0.8,0.1-1.2,0.1c-0.2-1-0.5-2.1-0.7-3.1C443.2,402,443.6,401.9,444.4,401.6z M601.9,245.9c-1-0.1-2.1-0.1-4.4-0.3
	c1.7-1.1,2.1-1.6,2.7-1.6c0.6-0.1,1.2,0.3,1.8,0.4C602,245,601.9,245.4,601.9,245.9z M269.6,416.8v-3.4c0.4-0.1,0.8-0.1,1.2-0.2
	c0.2,1.1,0.4,2.3,0.6,3.4C270.8,416.7,270.2,416.8,269.6,416.8L269.6,416.8z M471.4,24.4c-2.8-1.9-2.6-3.4,0-5.2V24.4z M440.5,374.5
	c-0.3,0.9-0.7,1.8-1.2,3.1c-1.1-0.7-1.7-1.2-2.7-1.9c1-0.8,1.8-1.5,2.6-2.1C439.6,373.9,440,374.2,440.5,374.5L440.5,374.5z
	 M154.7,304.2c2.3-0.2,3.3-0.3,4.9-0.5C158.6,306.5,157.5,306.6,154.7,304.2z M287.9,287.5c-1.8,1.7-2.7,2.6-4.1,3.9
	c-0.2-1.2-0.3-2-0.4-3.2C284.6,288,285.7,287.8,287.9,287.5z M259.9,388.7c0.1,1.1,0.2,2.1,0.3,3.6c-3.1-0.8-2-2.3-1.9-3.5
	C258.8,388.8,259.4,388.7,259.9,388.7L259.9,388.7z M401.3,291.2c1.1-0.2,2.1-0.3,3.1-0.5c0.1,0.4,0.2,0.8,0.3,1.2
	c-1,0.3-2.1,0.7-3.1,1C401.6,292.4,401.5,291.8,401.3,291.2L401.3,291.2z M186.7,526.8c0.7-0.8,1.3-1.6,2.4-3v3.4
	c-0.4,0.2-0.6,0.3-0.8,0.4C187.9,527.5,187.5,527.3,186.7,526.8L186.7,526.8z M243.9,331c-1-0.3-1.9-0.7-2.9-1
	c0.1-0.4,0.3-0.8,0.4-1.2c1,0.4,1.9,0.7,2.9,1.1C244.2,330.3,244,330.6,243.9,331z M290.9,565.1c0.2,0.9,0.3,1.9,0.7,4
	c-1.4-1.3-2.1-1.7-2.4-2.3c-0.2-0.4,0.3-1.1,0.4-1.7C290,565.1,290.5,565.1,290.9,565.1z M236.4,338.4c0.2-1.7,0.4-2.9,0.5-4.4
	C238.2,335.4,238,336.9,236.4,338.4z M280,470.7c-0.3,1.1-0.6,2.1-0.9,3.2c-0.4-0.2-0.9-0.3-1.3-0.5c0.4-1,0.8-2,1.3-3
	C279.4,470.5,279.7,470.6,280,470.7L280,470.7z M476.7,349.9c-2.3-0.1-3.4-0.2-4.5-0.3C473.6,345.9,474.4,348.1,476.7,349.9z
	 M305.5,348.3c-0.3,1-0.6,2-0.9,3c-0.4-0.2-0.8-0.3-1.3-0.5c0.4-1,0.7-2,1.1-3C304.8,348,305.2,348.1,305.5,348.3z M222.4,350
	c-0.9-0.2-1.8-0.5-2.7-0.7c0.1-0.4,0.2-0.8,0.3-1.2c0.9,0.3,1.9,0.5,2.8,0.8L222.4,350L222.4,350z M200.3,482.3
	c0.7,2.2,1,3.2,1.4,4.2c-0.3,0.1-0.6,0.3-0.9,0.4c-0.4-0.4-0.9-0.9-1-1.4C199.7,484.9,200,484.2,200.3,482.3z M212.3,260.7
	c-0.4-1-0.8-2.1-1.4-3.5C214.3,257.5,212.8,259.2,212.3,260.7z M333.4,229c0.9-0.4,1.8-0.7,2.7-1.1c0.2,0.3,0.3,0.7,0.5,1
	c-0.8,0.5-1.7,0.9-2.5,1.4C333.9,229.9,333.6,229.4,333.4,229L333.4,229z M60.9,226.2c1.1,1.3,1.7,2.1,2.7,3.3
	c-1.2,0.3-1.8,0.4-2.7,0.7V226.2z M365.7,382.3c0.6-0.4,1.2-0.8,1.7-1.1l0.6,0.8c-0.6,0.4-1.1,0.8-1.7,1.2
	C366,382.9,365.8,382.6,365.7,382.3L365.7,382.3z M309.8,345.3c-0.2-0.3-0.5-0.7-0.7-1.1c0.5-0.2,1-0.4,1.5-0.7
	c0.1,0.4,0.5,0.9,0.4,1.2C310.8,345.1,310.2,345.1,309.8,345.3z M258.5,382.5c-0.3,0.3-0.6,0.5-0.9,0.8c-0.3-0.5-0.6-1-0.9-1.5
	c0.4-0.1,0.9-0.5,1.2-0.4C258.2,381.6,258.3,382.2,258.5,382.5z M51.9,281.5h-4.7c0-0.2-0.1-0.5-0.1-0.7c0.8-0.1,1.7-0.4,2.4-0.3
	c0.7,0.2,1.4,0.8,2.1,1.2L51.9,281.5L51.9,281.5z M305.5,423.6c-0.6,0.1-1.1,0.4-1.6,0.3c-0.2,0-0.5-1-0.4-1.1
	c0.4-0.3,0.9-0.5,1.5-0.7C305.1,422.6,305.3,423,305.5,423.6L305.5,423.6z M270.3,347c-0.5,0.4-1,0.8-1.5,1.1
	c-0.1,0-0.4-0.6-0.7-0.8c0.5-0.4,1.1-0.8,1.6-1.2C269.9,346.5,270.1,346.8,270.3,347L270.3,347z M280.6,347.9h3.7
	c-1.4,0.7-2.4,1.2-3.4,1.7C280.8,348.9,280.7,348.5,280.6,347.9L280.6,347.9z M257.3,305.2c0.6,0.3,1,0.5,1.3,0.7
	c-0.3,0.5-0.5,1-0.9,1.3c-0.1,0.1-1-0.4-1-0.5C256.8,306.2,257.1,305.7,257.3,305.2z M82.7,350.7c-0.6,0.1-1.1,0.4-1.6,0.3
	c-0.2,0-0.5-1-0.4-1.1c0.4-0.3,1-0.5,1.5-0.7C82.3,349.7,82.5,350.1,82.7,350.7L82.7,350.7z M368.1,226.7c-0.7,0.7-1.1,1.2-2.1,2.3
	c-0.2-1.6-0.3-2.5-0.5-4.5C366.8,225.6,367.4,226.1,368.1,226.7z M292.2,430.8c0.6,0.3,1.2,0.6,1.7,1c0.1,0-0.4,0.7-0.5,1.1
	c-0.6-0.3-1.2-0.7-1.8-1.1C291.9,431.5,292.1,431.2,292.2,430.8z M140.2,356.2c0.4-0.6,0.7-1.2,0.7-1.1c0.5,0.2,0.9,0.5,1.3,0.9
	c0.1,0.1-0.4,1-0.5,1C141.2,356.8,140.8,356.5,140.2,356.2L140.2,356.2z M285.4,355.2c0.9,0.4,1.8,0.9,2.7,1.3
	c-0.1,0.2-0.1,0.4-0.2,0.6c-1-0.1-1.9-0.2-2.9-0.4C285.1,356.3,285.3,355.8,285.4,355.2L285.4,355.2z M156.3,226.1
	c-0.3,0.3-0.5,0.6-0.8,0.8c-0.3-0.4-0.6-0.8-0.9-1.3c0.4-0.2,0.7-0.5,1.1-0.5C156,225.2,156.1,225.8,156.3,226.1L156.3,226.1z
	 M157.9,298.1c-0.6,0.1-1.2,0.4-1.7,0.3c-0.2,0-0.5-1.1-0.4-1.2c0.4-0.3,1-0.5,1.5-0.7C157.5,296.9,157.7,297.4,157.9,298.1
	L157.9,298.1z M136.3,295.3c0.9,0.5,1.8,0.9,2.7,1.4c-0.1,0.2-0.2,0.5-0.3,0.7c-0.9-0.3-1.9-0.7-2.8-1
	C136.1,296,136.2,295.7,136.3,295.3L136.3,295.3z M233.6,223.5c0.4,0.5,1,0.9,1.2,1.4c0.2,0.6-0.1,1.3-0.4,3.1
	c-0.8-2.1-1.2-3.1-1.6-4.2C233.1,223.7,233.4,223.6,233.6,223.5L233.6,223.5z M374.7,736.7c-3-1-1.7-1.8,0-3.4V736.7z M257.2,246.6
	c0.1,1.5,0.2,2.3,0.3,3.9c-1.2-0.7-1.8-1.1-2.8-1.7C255.6,248,256.2,247.5,257.2,246.6z M152.1,332.2c-0.6-0.2-1.3-0.5-1.9-0.7
	c0.2-0.4,0.5-1.1,0.5-1.1c0.6,0.2,1.2,0.5,1.8,0.8C152.4,331.5,152.2,331.8,152.1,332.2z M213.4,410.2c-0.5,0.3-0.9,0.7-1.4,0.8
	c-0.2,0.1-0.5-0.5-0.7-0.8c0.4-0.4,0.8-0.7,1.2-1.1C212.8,409.4,213,409.7,213.4,410.2z M146.8,260.5c1-0.9,1.4-1.4,1.9-1.9
	c0.7,0.6,1.2,1,2.2,1.9H146.8z M376.2,572.2c-0.3,0.2-0.6,0.5-0.9,0.7c-0.3-0.5-0.6-0.9-0.9-1.4c0.4-0.1,0.9-0.4,1.2-0.3
	C375.9,571.3,376,571.8,376.2,572.2z M378,235.8c-0.9,2.2-1.3,3.2-2.2,5.3c-0.3-1.9-0.5-2.7-0.4-3.3
	C375.7,237.3,376.4,237,378,235.8z M397.6,419c-0.3,0.2-0.7,0.5-1,0.7c-0.3-0.5-0.5-1-0.8-1.5c0.4-0.1,0.9-0.5,1.2-0.3
	C397.4,418,397.4,418.6,397.6,419L397.6,419z M391.5,342.7c0.3-0.3,0.6-0.5,0.9-0.8c0.3,0.5,0.6,0.9,1,1.4c-0.4,0.1-0.9,0.4-1.2,0.3
	C391.9,343.6,391.8,343,391.5,342.7L391.5,342.7z M16.5,315.1c0.6-0.3,1.2-0.6,1.8-0.9c0.2,0.4,0.5,1.1,0.4,1.1
	c-0.6,0.3-1.2,0.6-1.8,0.8C16.7,315.8,16.6,315.4,16.5,315.1L16.5,315.1z M179.1,314h4.8c-1.2,1.1-1.7,1.8-2.3,1.9
	C181.3,316,180.7,315.3,179.1,314z M181.8,109.5c-0.3,0.3-0.6,0.5-0.9,0.8c-0.3-0.5-0.6-0.9-0.9-1.5c0.4-0.1,0.9-0.5,1.2-0.4
	C181.5,108.6,181.6,109.2,181.8,109.5z M40.1,231c-0.5,0.1-1.1,0.4-1.6,0.4c-0.2,0-0.5-1-0.4-1.1c0.4-0.3,0.9-0.5,1.4-0.7
	C39.7,230,39.9,230.4,40.1,231z M49.3,420.6c0.3-0.6,0.5-0.9,0.7-1.3c0.4,0.3,0.9,0.5,1.3,0.9c0.1,0.1-0.4,1-0.5,1
	C50.3,421.1,49.9,420.8,49.3,420.6L49.3,420.6z M353.5,374c0.4,0.4,0.9,0.8,1.3,1.3c-0.2,0.2-0.3,0.3-0.5,0.5
	c-0.5-0.4-0.9-0.8-1.4-1.2L353.5,374z M250,272c0.5,0.4,1,0.8,2.7,2.1c-2.1-0.6-2.7-0.8-3.4-1C249.5,272.8,249.7,272.4,250,272
	L250,272z M169.4,373.1c-0.4,0.6-0.8,1.1-1.3,1.6c-0.3-0.2-0.5-0.4-0.8-0.6c0.4-0.5,0.9-1.1,1.3-1.6
	C168.9,372.7,169.2,372.9,169.4,373.1z M268.3,371.5c-0.5-0.5-1-1-1.5-1.4c0.2-0.2,0.4-0.5,0.6-0.7c0.5,0.4,1.1,0.9,1.6,1.3
	C268.7,371,268.5,371.3,268.3,371.5z M91.3,427.2c-1-0.3-1.5-0.4-2.1-0.6c0.3-0.3,0.6-0.6,0.9-0.9C90.4,426,90.7,426.4,91.3,427.2
	L91.3,427.2z M338.4,401.1c0.6-0.4,1.2-0.7,1.8-1.1c0.2,0.2,0.4,0.4,0.6,0.7c-0.5,0.6-0.9,1.1-1.4,1.6
	C339.1,401.9,338.7,401.5,338.4,401.1z M78,289.8l-1.4-1.3c0.1-0.2,0.3-0.3,0.4-0.5c0.5,0.4,1,0.8,1.5,1.3
	C78.4,289.4,78.2,289.6,78,289.8z M307.8,256.2c-0.5-0.4-0.9-0.7-1.4-1.1c0.1-0.2,0.2-0.4,0.3-0.7c0.6,0.2,1.2,0.3,1.8,0.5
	C308.3,255.4,308.1,255.8,307.8,256.2L307.8,256.2z M354.7,225.2c0.4-0.4,0.9-0.9,1.3-1.3c0.2,0.2,0.3,0.3,0.5,0.5
	c-0.4,0.4-0.9,0.9-1.3,1.3C355,225.5,354.9,225.4,354.7,225.2z M182.5,329.8c0.6-0.8,1.1-1.6,1.7-2.4c0.2,0.3,0.5,0.6,0.7,0.9
	c-0.8,0.4-1.7,0.9-2.6,1.3L182.5,329.8z M259.9,324.8c-0.5,0.5-1,0.9-1.5,1.4c-0.2-0.2-0.3-0.4-0.5-0.6c0.5-0.5,1-0.9,1.5-1.4
	C259.5,324.4,259.7,324.6,259.9,324.8z M543.4,599.4c-0.6-0.4-1.3-0.8-1.9-1.2c0.2-0.3,0.4-0.6,0.5-0.9c0.6,0.4,1.2,0.9,1.8,1.3
	C543.6,598.9,543.5,599.2,543.4,599.4L543.4,599.4z M199.5,325.2l-1.3-1.6c0.3-0.3,0.6-0.6,0.9-0.9c0.5,0.5,1,0.9,1.4,1.4
	L199.5,325.2L199.5,325.2z M327.7,323.1c0.5-0.5,1-0.9,1.5-1.4c0.2,0.2,0.4,0.4,0.6,0.6c-0.5,0.5-0.9,1-1.4,1.5
	C328.2,323.5,328,323.3,327.7,323.1L327.7,323.1z M399.7,518.3c0.5-0.5,1-1,1.5-1.4c0.2,0.3,0.5,0.5,0.7,0.8c-0.5,0.5-0.9,1-1.4,1.5
	C400.2,518.9,400,518.6,399.7,518.3L399.7,518.3z M485.2,504.3c-0.4-0.6-0.9-1.1-1.3-1.6c0.2-0.1,0.5-0.4,0.5-0.3
	c0.5,0.4,1,0.8,1.5,1.2C485.6,503.8,485.4,504.1,485.2,504.3z M12.9,147.9l1.3,1.5c-0.2,0.2-0.3,0.3-0.5,0.5c-0.5-0.5-0.9-1-1.4-1.5
	C12.5,148.2,12.7,148,12.9,147.9L12.9,147.9z M336.2,304.4l-2.5,0.2c0-0.2,0-0.3-0.1-0.5c0.8-0.1,1.6-0.1,2.5-0.2L336.2,304.4
	L336.2,304.4z M395.2,158.9c-0.6,0.7-1.2,1.4-1.8,2.2c-0.2-0.3-0.4-0.6-0.6-0.9c0.9-0.3,1.8-0.7,2.6-1.1L395.2,158.9z M212.8,211.1
	c-0.5-0.5-0.9-1.1-1.4-1.6c0.2-0.2,0.4-0.4,0.6-0.6c0.5,0.5,1,1,1.5,1.5C213.2,210.6,213,210.8,212.8,211.1L212.8,211.1z M365,201.8
	c0.4,0.5,0.8,1.1,1.2,1.6c-0.2,0.1-0.5,0.4-0.5,0.3c-0.5-0.4-0.9-0.8-1.4-1.2C364.5,202.3,364.8,202.1,365,201.8L365,201.8z
	 M303.5,356.7c-0.4-0.4-0.7-0.9-1.1-1.3l0.6-0.4c0.3,0.5,0.6,0.9,0.9,1.4C303.8,356.5,303.7,356.6,303.5,356.7z M103.4,473.2
	c0.5-0.5,1-1,1.5-1.4c0.2,0.2,0.4,0.5,0.6,0.7c-0.5,0.5-1,0.9-1.5,1.4L103.4,473.2z M66.4,301.6h-2c0-0.2-0.1-0.3-0.1-0.5
	c0.7-0.1,1.4-0.2,2.2-0.3C66.5,301.1,66.4,301.4,66.4,301.6L66.4,301.6z M113.6,193.2c0.5-0.1,0.8-0.1,1.1-0.1
	c-0.1,0.1-0.2,0.3-0.3,0.3C114.3,193.5,114.1,193.4,113.6,193.2z M158.8,464.7c0.1-0.6,0.1-1,0.2-1.5c0.1,0.2,0.4,0.3,0.4,0.4
	C159.2,464,159,464.3,158.8,464.7z M462.7,597.6h-1.5v-0.5h1.5V597.6z M294.9,596.2c0.1-0.6,0.1-1,0.2-1.4c0.1,0.1,0.4,0.3,0.4,0.4
	C295.4,595.5,295.1,595.8,294.9,596.2L294.9,596.2z M302.3,0.5c0.6,0.1,0.9,0.1,1.3,0.1c-0.1,0.1-0.3,0.3-0.4,0.3
	C302.9,0.8,302.7,0.6,302.3,0.5z M200.2,412.4h-1.6V412h1.6V412.4z M359.9,413.5h1.9c0,0,0,0.2,0,0.3
	C361.4,413.8,361,413.7,359.9,413.5z M329.4,490.9c0.1,0.4,0.3,0.8,0.4,1.2c-0.3,0-0.6-0.1-0.9-0.1
	C329,491.7,329.2,491.3,329.4,490.9z M118,549.2h1.3v0.3H118C118,549.5,118,549.3,118,549.2z M61.9,75c0.4-1.9,0.5-2.4,0.6-2.9
	c0.1,0.2,0.3,0.4,0.3,0.5C62.8,73,62.6,73.3,61.9,75z M390.3,525.7C390.4,526.3,390.4,526.7,390.3,525.7
	C390.2,526.7,390.3,526.3,390.3,525.7z M285.2,438.6c-0.2-0.4-0.3-0.8-0.5-1.2c0.3,0,0.7,0.1,1,0.1
	C285.6,437.8,285.4,438.2,285.2,438.6z M85.1,105.5c0.6,0.1,1,0.1,1.4,0.2c-0.1,0.1-0.3,0.4-0.4,0.3
	C85.8,105.9,85.5,105.7,85.1,105.5z M85,145.2c0-0.5,0.1-1.1,0.1-1.6c0.1,0,0.3,0,0.4,0c0,0.5-0.1,1.1-0.1,1.6
	C85.2,145.2,85.1,145.2,85,145.2z M18.6,435.8c-0.5,0-1.1-0.1-1.6-0.1c0-0.1,0-0.3,0-0.4c0.5,0,1.1,0.1,1.6,0.1
	C18.6,435.5,18.6,435.7,18.6,435.8z M268.1,502.7v-1.6c0.1,0,0.3,0,0.4,0v1.6C268.4,502.7,268.2,502.7,268.1,502.7z M48,198
	C48.1,198.4,48.1,198.8,48,198C48.1,198.4,48.2,198.8,48,198z M247.1,495.3c0.4,0.1,0.8,0.1,1.1,0.1
	C247.9,495.4,247.5,495.3,247.1,495.3z M513.5,380.1c0-0.5,0.1-1.1,0.1-1.6c0.1,0,0.3,0,0.4,0c0,0.5-0.1,1.1-0.1,1.6
	C513.8,380.1,513.6,380.1,513.5,380.1z M425.8,283.6h1.2c0,0,0,0.2,0,0.3c-0.4,0-0.8-0.1-1.2-0.1
	C425.8,283.8,425.8,283.7,425.8,283.6L425.8,283.6z M48.5,285.2c0,0.5,0.1,1,0.1,1.6c-0.2,0-0.3,0-0.4,0v-1.6
	C48.2,285.2,48.4,285.2,48.5,285.2z M282.7,372.7v1.7h-0.5v-1.7H282.7z M258.3,286.6C258.9,286.6,259.2,286.6,258.3,286.6
	C258.9,286.7,259.2,286.8,258.3,286.6z M119.4,288v1.6c-0.1,0-0.3,0-0.4,0V288C119.1,288,119.2,288,119.4,288z M139.2,359.8h-1.6
	c0-0.2,0-0.4,0-0.5c0.5,0,1.1,0.1,1.6,0.1C139.2,359.5,139.2,359.6,139.2,359.8z M192.8,358c0.5,0,1.1,0.1,1.6,0.1
	c0,0.1,0,0.2,0,0.3c-0.5,0-1.1-0.1-1.6-0.1C192.8,358.2,192.8,358.1,192.8,358z M399,352.8c-0.6-0.1-1.1-0.1-1.7-0.1
	c0-0.2,0-0.3,0-0.4c0.6,0,1.1,0.1,1.7,0.1C399,352.5,399,352.6,399,352.8z M388.8,350c-1.8-0.4-2.4-0.5-2.9-0.7
	c0.2-0.1,0.4-0.4,0.5-0.4C386.8,349.1,387.2,349.3,388.8,350z M393.1,311.3h1.6c0,0,0,0.2,0,0.3h-1.6
	C393.1,311.7,393.1,311.4,393.1,311.3z M400.7,314.7c-0.9-0.2-1.4-0.3-1.9-0.4c0.4-0.2,0.8-0.4,1.2-0.5
	C400.1,313.9,400.3,314.2,400.7,314.7z M395.3,319.6c0.1-0.8,0.2-1.5,0.4-2.3c0.3,0.1,0.5,0.3,0.8,0.4c-0.4,0.6-0.9,1.2-1.3,1.8
	L395.3,319.6z M259.8,330.8h-1.7v-0.4h1.7C259.8,330.5,259.8,330.6,259.8,330.8z M186.5,324c-0.3,0.2-0.5,0.5-0.8,0.7
	c-0.2-0.4-0.3-0.7-0.4-1.1c0-0.1,0.4-0.4,0.5-0.4C186,323.4,186.2,323.7,186.5,324L186.5,324z M203.3,328.9c0,0.6-0.1,1.1-0.1,1.7
	c-0.1,0-0.3,0-0.4,0v-1.7C203,328.9,203.1,328.9,203.3,328.9L203.3,328.9z M307.9,324.8c-0.5-0.1-0.9-0.1-1.3-0.2
	c0.1-0.1,0.3-0.3,0.4-0.3C307.3,324.4,307.5,324.6,307.9,324.8z M96.5,267.5h1.6c0,0,0,0.2,0,0.4h-1.6
	C96.5,267.9,96.5,267.7,96.5,267.5z M89.7,387.6H88c0-0.1,0-0.3,0-0.4h1.7C89.7,387.4,89.7,387.5,89.7,387.6z M159.3,260.5
	C158.2,260.6,158.6,260.5,159.3,260.5C158.2,260.3,158.6,260.4,159.3,260.5z M11.4,260.3c0.1,0.4,0.3,0.8,0.4,1.2
	c-0.3,0-0.5-0.1-0.8-0.1C11.1,261,11.2,260.6,11.4,260.3z M366,242.9l0.4-0.1l-0.1,0.3L366,242.9z M353.4,317.2l0.1,0.4l-0.4-0.1
	L353.4,317.2z M166.2,527.9l-0.2-0.4h0.4L166.2,527.9z M388.3,331.3c0.2-0.3,0.3-0.5,0.4-0.7c-0.1,0.1-0.4,0.3-0.6,0.5L388.3,331.3z
	 M38.2,244.3l0.4-0.1l-0.1,0.3L38.2,244.3z M266.8,257.1l0.1,0.4l-0.3-0.1L266.8,257.1z M51.8,281.6c0.5,0.5,1,1,1.5,1.5l0.2-0.2
	l-1.4-1.5L51.8,281.6z M180.2,419.1l0.2,0.4l-0.5-0.1L180.2,419.1z M9.9,265l-0.2-0.4l0.4,0.1L9.9,265z M400.1,232.9l-0.1-0.4
	l0.4,0.1L400.1,232.9z M180.2,415.3l-0.1-0.5l0.4,0.1L180.2,415.3z M376,368.8l-0.2-0.5l0.5,0.1L376,368.8z M271.2,286.5l0.2,0.3
	l-0.4-0.1L271.2,286.5z M166.1,292.9l-0.2-0.4l0.4,0.1L166.1,292.9z M-8.5,298.1l0.1,0.3l-0.4-0.1L-8.5,298.1z M268.3,465.8l0.2,0.4
	l-0.4-0.1L268.3,465.8z M226,243l-0.4,0.2l0.1-0.4L226,243z M167.4,304.4l-0.1-0.3l0.4,0.1L167.4,304.4z M395.3,159.1l1.4-1.5
	l-0.2-0.2c-0.5,0.5-0.9,1-1.4,1.5L395.3,159.1z M396.8,157.7c0.2-0.3,0.4-0.6,0.5-0.7c-0.1,0.1-0.4,0.3-0.6,0.5L396.8,157.7
	L396.8,157.7z"/>
</svg>
