<?xml version="1.0" encoding="utf-8"?>
<!-- Generator: Adobe Illustrator 28.0.0, SVG Export Plug-In . SVG Version: 6.00 Build 0)  -->
<svg version="1.1" id="Layer_1" xmlns="http://www.w3.org/2000/svg" xmlns:xlink="http://www.w3.org/1999/xlink" x="0px" y="0px" viewBox="-32 -32 815 815" style="enable-background:new 0 0 540 770;" xml:space="preserve">
<style type="text/css">
	.st0{opacity:0.2;fill:#584136;enable-background:new    ;}
</style>
<path class="st0" d="M160.5,195.6v-0.3l0.2,0.1L160.5,195.6z M172.4,26.1c-0.1-0.1-0.1-0.2-0.2-0.4c-0.4,0.2-0.7,0.4-1.1,0.6  c0.1,0.2,0.2,0.3,0.2,0.5C171.6,26.5,172,26.3,172.4,26.1z M177.3,176.5c1.5,0.4,2.8,0.8,4.4,1.3c1.5-1.1,3.1-2.1,4.3-3.4  c1.2-1.3,1.6-3,0.8-4.7c-0.9-1.8-2.4-2.8-4.5-2.6c-1.1,0.1-2.2,0.3-3.1,0.7c-2.1,0.9-3.4,2.6-3.5,5.2  C176,173.9,176.6,175,177.3,176.5L177.3,176.5z M165.5,38.6L165.5,38.6c-0.2-0.4-0.4-0.7-0.5-1c-0.3,0.3-0.7,0.6-1,0.9  c0.1,0.2,0.3,0.4,0.4,0.6C164.7,39,165.1,38.8,165.5,38.6z M179.9,226.4c1.6-1.1,3.4-2.2,5.1-3.3l2.7-6.7c-1.4-4.3-5.4-5.4-8-7.7  c-2.1-0.3-4.1-0.6-6.2-1c-1.3,0.8-2.6,1.6-3.7,2.3c-1,1.7-1.8,3.1-2.9,4.9l0,0c0.1,1.7,0.1,3.2,0.2,4.8  C170,225.6,173.1,227.3,179.9,226.4z M155.2,211.8c-1,0.2-1.6,0.2-2.3,0.4c0,0.2,0,0.4,0,0.6c0.6,0.2,1.3,0.3,2,0.5  C155,212.8,155,212.6,155.2,211.8z M156.5,235.1c2.2,0.4,4.3,0.7,6.4-1.3c0.3-1,0.7-2.3,1.2-3.8c-1.4-1.1-2.6-2.2-4.2-3.6  c-2.2,1-3.9,1.7-5.5,2.4C154.2,231.6,154.7,233.6,156.5,235.1z M165.2,204.7c0.5,0.1,1,0.3,1.5,0.5c0-0.2,0.1-0.4,0.2-0.6  c-0.5-0.1-1-0.3-1.5-0.5L165.2,204.7z M176.7,116.7c0.2,0.1,0.4,0.3,0.7,0.4C177.1,116.9,176.9,116.8,176.7,116.7z M200.7,167.5  c-1.3,0.5-2.1,0.8-3.6,1.4l3,1.2C200.3,169.1,200.5,168.6,200.7,167.5z M191,229.3L191,229.3L191,229.3L191,229.3z M196.4,262.8  c0.2-0.2,0.3-0.4,0.5-0.5c-0.3-0.3-0.6-0.6-1-0.8c0,0-0.4,0.4-0.5,0.6C195.7,262.3,196,262.6,196.4,262.8L196.4,262.8z M155.9,157  c0.5,1.1,0.9,1.9,1.4,2.8c1.2-0.6,2.2-1.1,3.2-1.7C159.5,156,158,156.6,155.9,157z M204.4,123c-0.6-0.6-1.1-1-1.8-1.6  c-0.7,0.6-1.3,1.1-2.1,1.7l0,0C202.2,124.4,203.2,124.4,204.4,123z M189.9,175.3l-0.1-0.4c-0.5,0.1-0.9,0.2-1.4,0.3  c0.2,0.3,0.3,0.6,0.4,0.9C189.2,175.8,189.6,175.6,189.9,175.3z M180.1,151.4c-0.1-0.3-0.3-0.5-0.4-0.8c-0.4,0.2-0.8,0.5-1.1,0.7  c0.1,0.2,0.1,0.3,0.2,0.5C179.3,151.6,179.7,151.5,180.1,151.4z M192.6,229.1c-0.1-0.2-0.3-0.4-0.4-0.6c-0.4,0.3-0.8,0.5-1.2,0.8  c0.1,0.2,0.2,0.4,0.3,0.5C191.8,229.6,192.2,229.3,192.6,229.1z M198.5,276.1c-1-2.7-2.9-3.5-5.3-3.8c-1.5,1.3-3.1,2.5-5,4l0,0  c2,1.2,4.9,2,8.7,2.2C197.4,277.7,198,276.8,198.5,276.1z M190.6,141.9l-1-0.2c0,0.1-0.1,0.3-0.1,0.3l1,0.3  C190.6,142.2,190.6,142,190.6,141.9z M153.6,330.9l1.7-4.3c-0.8-1.6-1.4-3.2-3.5-3.3c-0.9,0.9-1.5,2-1.7,3.4  C151.3,328,152.4,329.4,153.6,330.9z M137.2,261.8c0.2,1.7,0.8,4.2,2.7,6.2c3.3,1,6.5,2,8.9,2.8c4.6-0.3,8.5-0.6,12.7-0.9l0,0  c4.2-3.3,7.1-7.7,8.5-14c-0.3-1.3-0.9-3.4-1.2-4.4c-5.1-3.7-9.3-6.8-13.8-10c-0.9-0.2-2.1-0.3-3-0.5c-1.6,0.5-2.9,1.2-4.2,1.2  c-4.2,0.1-7.8,1.6-11.2,4.2c-1.5,2.3-3.4,4.6-3,8.5C134.4,256.5,135.6,258.7,137.2,261.8z M154.6,281.5c-1.5,0.4-2.6,0.6-3.8,0.9  c1,1.5,2.5,2.4,4.5,2.6C155,283.9,154.8,282.8,154.6,281.5z M159.8,105.4c-1,1-1.6,1.8-2.3,2.5l0,0c0.3,0.3,0.6,0.5,0.9,0.8  C159.6,108.3,160.9,108,159.8,105.4z M139.5,27.8c0.3-0.2,0.2-0.8,0.3-1.3c-0.9-1.6-2-2.3-4.3-0.6c0.4,1.2,0.8,2.2,1.3,3.5  C138,28.8,138.9,28.4,139.5,27.8z M159.5,321.8c0.2-1.4,0.3-2.4,0.4-3.4c-0.5-0.1-0.9-0.2-1.4-0.2  C158,319.2,157.4,320.2,159.5,321.8z M137.7,92.6c2.1,0.5,3.1-0.1,3.2-2.3C138.9,89.9,138,90.6,137.7,92.6z M160,318.4L160,318.4  L160,318.4L160,318.4z M155.1,305.8c1.1-0.2,1.9-0.3,3.6-0.6C156.4,303.5,155.6,303.8,155.1,305.8z M156.2,334.6  c-0.3-0.4-0.6-0.7-0.9-1.1c-0.2,0.2-0.3,0.3-0.5,0.5c0.3,0.3,0.6,0.6,1,1C155.9,334.9,156,334.7,156.2,334.6z M202.1,164.9  c0.6,1.5,1.1,2.9,1.6,4.1c2.3,0,3.8,0.1,5,0.1c2.1-1.4,3.5-2.7,3.3-5c-1.3-2.6-3.5-2.7-6.3-2.3C204.8,162.6,203.7,163.6,202.1,164.9  L202.1,164.9z M145.4,170.5C145.1,170.3,144.9,170.2,145.4,170.5L145.4,170.5z M145.4,170.5C145.1,170.4,144.8,170.4,145.4,170.5  L145.4,170.5z M145.1,152.7c2.9-1,5.6-1.9,8.5-3c0.9-1.7,0.7-3.2-0.6-4.6l0,0c-2.9,0.1-4.5,1.6-5.8,3.3c-1.5,0.5-2.7,0.9-3.9,1.3  C142.7,151.8,143.8,152.4,145.1,152.7z M151.4,62c4.4,1,5.2,0.5,5.7-4.2l0,0l-4.9-1.9c-0.9,1-1.6,1.9-2.4,2.8c0.3,0.9,0.4,1.5,0.7,2  C150.8,61.1,151.2,61.5,151.4,62z M148.6,164.8l0.2-0.1l-0.2-0.1V164.8z M148.6,226.3c1.3-1,2.3-1.7,3.4-2.5  c-0.5-2.9-2.4-3.1-4.5-3.8c-0.8,1-1.7,2-2.7,3.4C146.2,224.5,147.4,225.4,148.6,226.3z M144.1,120.8L142,120l0,0  c-0.1,0.4-0.2,0.7-0.3,1C142.3,121.8,142.9,122.5,144.1,120.8z M141.5,198.6c-2.3-2.4-3.5-2.7-5.2-1.2c0.2,0.9,0.4,2,0.6,3.8  c1.7-0.3,2.9-0.5,4.1-0.7C141.2,199.6,141.4,199.1,141.5,198.6z M140.1,218.8c0.1-0.2,0.2-0.4,0.2-0.5c-0.3,0-0.5,0-0.8,0l0,0  C139.7,218.4,139.9,218.6,140.1,218.8z M221.8,323.5c-1.3-0.9-2.1-1.6-3.6-0.7C219.1,324.3,220,324.7,221.8,323.5z M217.4,325.9  C217.2,325.8,217,325.8,217.4,325.9L217.4,325.9z M216.8,347.4c-1.6-0.5-3-1-4.3-1.4c-0.4,0.8-0.7,1.2-1,1.7c1,2.3,2.5,3.9,5.7,4  C217.1,350.1,216.9,348.8,216.8,347.4z M217.4,325.9C217.2,325.8,217,325.7,217.4,325.9L217.4,325.9z M211.7,359.1  c-3-2.4-5.9-2.3-9.1-1.4c-0.5,2.6,0.9,3.9,2.7,5.1C207.7,362.4,210.6,363.1,211.7,359.1z M215.9,405.2c0.2-2.8,0.5-5.4-2.8-7.3  c-1.4,1.5-4,1.8-3.8,4.9C210.7,405.2,212.7,406.3,215.9,405.2z M215.9,314.1c-1,1.1-2.6,1.4-2.6,3.6l0,0c1.7-0.4,3.2-0.7,5.5-1.3  C217.4,315.3,216.7,314.7,215.9,314.1z M212.2,157.8c-1.7-1.3-2.6-1.5-3.8-0.1c0.4,0.5,0.8,1,1.4,1.5  C210.6,158.8,211.2,158.4,212.2,157.8z M224.2,296.4c-0.8-1-1.5-2-2.3-3c-1,0.1-1.9,0-2.8,0.2c-0.4,0.1-0.8,0.4-1.7,0.8  c0.5,1.4,1.1,2.8,1.5,3.8c1.5,0.4,2.3,0.6,3.1,0.9C222.8,298.1,223.4,297.3,224.2,296.4z M221.5,306.1c-0.1-0.2-0.1-0.5-0.2-0.7  c-0.3,0-0.6-0.1-0.8,0.1c-0.1,0.1-0.1,0.5-0.1,0.8C220.8,306.1,221.2,306.1,221.5,306.1z M163,394.2c-0.3-2-0.5-3-0.7-4.3  c-1.2,0.7-1.9,1.1-3.2,1.8C160.3,392.5,161.2,393,163,394.2L163,394.2z M202.3,316.1c0.2-0.2,0.4-0.4,0.6-0.6  c-0.2-0.1-0.4-0.2-0.6-0.3C202.3,315.5,202.3,315.8,202.3,316.1z M208,532.4c1-2.6-1-3.6-2.1-5c-1.6,0.1-3,0.2-3.4,2  C203.7,531.4,205.3,532.7,208,532.4z M199.8,189.2c0.5-0.2,0.7-0.2,0.7-0.3c0-0.2,0-0.5,0-0.7C200.4,188.5,200.2,188.7,199.8,189.2  L199.8,189.2z M203.2,336.6c0.2,0.6,0.6,1.5,0.9,2.3c2.1,1.1,4.1,2.5,6.7,0.4c-0.3-1.3-0.6-2.6-1-4.2c0.5-0.9,1-1.7,1.6-2.6  c-0.7-0.7-1.3-1.3-2.3-2.1c-0.8,1.4-1.3,2.3-1.9,3.3C204.1,334.7,203.7,334.9,203.2,336.6z M203.4,300.4c-0.2,0.3-0.3,0.6-0.4,0.9  c0.1,0,0.3,0.1,0.3,0.1l0.4-1C203.6,300.4,203.4,300.4,203.4,300.4z M205.4,415.5c0.5-0.4,1-0.9,1.6-1.3l0,0c0-2-1-3.2-2.9-3.6  c-1.2-0.2-2.1,0-2.6,1.6C202.3,413.6,203.1,415.2,205.4,415.5z M202.4,433.5c0-0.1,0.1-0.3,0.1-0.3l-0.9-0.4c0,0.1-0.1,0.1-0.1,0.2  C201.8,433.2,202.1,433.3,202.4,433.5z M203.8,389.6c0.4-1.1,0.8-2.3,1.2-3.5c-0.7-0.4-1.1-0.7-1.5-0.8c-0.3-0.1-0.6-0.1-1.3-0.2  C201.5,388.2,201.9,389.6,203.8,389.6z M202.4,353.2c-0.2-2.2-1.4-2.3-3.5-1.7C199.6,353.7,200.6,354.2,202.4,353.2z M220.7,329.5  l2.9,1.2C223,329.7,222.6,328.3,220.7,329.5z M224.6,116L224.6,116L224.6,116L224.6,116z M222.5,200.7c0.1,0.1,0.2,0.3,0.3,0.4  c0.4-0.2,0.7-0.3,1.1-0.5c-0.1-0.3-0.3-0.5-0.4-0.8C223.2,200.1,222.9,200.4,222.5,200.7z M224,200.6L224,200.6L224,200.6L224,200.6  z M216.8,248.5c-1.3,1.6-0.9,2.9,0.5,4.2C218.3,251,218.1,249.6,216.8,248.5z M224.4,124.7c2.2-1.4,3.4-3.2,3.2-6.1  c-0.9-0.8-1.9-1.6-3-2.7c-4.1,1-6,3.2-6.3,6.8C220.2,124.7,222.2,125.1,224.4,124.7z M213.8,58.6c0,0-0.1-0.7-0.2-0.7  c-0.3-0.1-0.7,0-1.1,0.1l0,0c0.1,0.5,0.2,0.7,0.3,0.9C213,58.9,213.4,58.8,213.8,58.6z M223.6,344.3  C223.6,344.1,223.7,343.8,223.6,344.3L223.6,344.3z M216.6,273.9c-0.3,1.4-0.7,2.9-1,4.5c1.9-0.6,3.9-1.3,6.2-2.1  C220.6,274.2,218.8,273.4,216.6,273.9z M221.8,276.3L221.8,276.3L221.8,276.3L221.8,276.3z M215.3,151c-1.6,1.1-2.5,1.7-3.6,2.4  C214.7,154.6,214.8,154.5,215.3,151z M222,307.7c0.3,2,1.2,1.9,3.3,1.3L222,307.7z M224.8,364.3c-0.3-0.3-0.5-0.7-0.8-1  c-0.2,0.1-0.4,0.3-0.6,0.4c0.2,0.4,0.4,0.7,0.6,1.1C224.2,364.7,224.5,364.5,224.8,364.3z M225.4,284.6c-1.5,0.2-2.7,0.3-4.2,0.5  c0.4,3.9,1.7,4.5,5.9,2.6C226.5,286.6,226,285.6,225.4,284.6z M223.6,344.3C223.6,344.1,223.6,343.8,223.6,344.3L223.6,344.3z   M227.5,153.4C227.5,153.4,227.5,153.5,227.5,153.4C227.5,153.5,227.5,153.5,227.5,153.4L227.5,153.4z M227.5,153.5  c-2.6-1.1-4.3-0.7-5.9,1.2c1,1.9,2.2,2.6,4.5,1.9C226.4,155.8,226.9,154.8,227.5,153.5z M226.6,275.1L226.6,275.1  c-1.7-0.3-2.4-0.4-3.6-0.5c0.3,1,0.5,1.5,0.8,2.2C224.7,276.4,225.2,276,226.6,275.1z M225.3,257C225.8,257.1,226.1,257.2,225.3,257  L225.3,257z M225.3,257C225.7,257.2,226,257.4,225.3,257L225.3,257z M107.6,241.2c0.8-0.7,1.6-1.3,2.9-2.3c-1.6-0.7-2.5-1.2-4.1-2  c0,1.7,0,2.7,0,3.8C106.8,240.8,107.2,241,107.6,241.2z M115.6,284.9L115.6,284.9L115.6,284.9L115.6,284.9z M113.2,277.7  c-0.5,0.8-0.7,1.2-1.2,2.1c1.4,0.6,2.4,1,3.4,1.3c0.2,0,0.5-0.2,1.2-0.6C115.4,279.5,114.3,278.7,113.2,277.7z M110,332.1  c0.1,0.2,0.8,0,1.5,0c-0.1-1.1-0.2-2-0.2-3.1c-0.8,0-1.4,0-3.1,0C109,330.4,109.4,331.3,110,332.1z M160.5,312.6l2,0.8  c0.1-0.4,0.2-0.7,0.4-1.1c-0.7-0.2-1.4-0.3-2.1-0.5C160.6,312.1,160.6,312.3,160.5,312.6z M115.6,283.9c-1.2-0.2-2.3-0.3-4.1-0.6  c1.1,1,1.7,1.7,2.4,2.3c0.7-0.3,1.2-0.5,1.8-0.7C115.6,284.6,115.6,284.2,115.6,283.9z M124.6,301.6c-0.6-1.5-1.1-2.7-1.6-4  c-0.9-0.7-1.8-1.5-2.9-2.4l0,0c-2.7,0-4.6,0.5-5.5,3.5c1.8,1.4,3.6,2.8,5.7,4.4C121.9,302.6,123.4,302.1,124.6,301.6z M99.9,296.3  c1.2,1.9,2.2,3.3,3,4.6c1.4-1,2.6-1.8,3.6-2.5c-0.8-0.9-1.7-2-2.9-3.4C102.8,295.3,101.6,295.7,99.9,296.3z M106.4,304  c1.3,0.2,1.8,0.3,2.8,0.5c-0.4-0.8-0.6-1.2-0.8-1.7C107.9,303.1,107.4,303.4,106.4,304z M104.3,289.1c2,1.4,3,1.3,2.5-1.3  C105.8,288.3,105,288.8,104.3,289.1z M111.7,306.1c0.3,0.3,0.5,0.6,1.5,1.7c-0.6-1.4-0.7-1.7-0.8-2.1L111.7,306.1z M113.7,269.8  c1.2,0.2,2.3,0.4,3,0.5c2.6-1,5.1-1.5,6.5-4.4c-1-1.5-2.1-3.2-3-4.5c-2.7-1.1-5.3-1.3-7.6-0.6l0,0c-2,2.5-2,5-1.5,6.8  c-0.4,1.6-0.7,2.5-1.1,4.3C111.9,270.9,112.9,270.3,113.7,269.8z M121.4,256.8c-0.2-0.3-0.4-0.6-0.5-1c-0.2,0.1-0.5,0.3-0.7,0.5  c0.3,0.2,0.6,0.5,1,0.8C121.1,257.2,121.2,257,121.4,256.8z M115.8,256.8l-3.2-1.3l-0.8,1.9C113.2,258.4,114.4,259,115.8,256.8z   M103.6,329.6L103.6,329.6c-1.2-1.2-2-2-3.1-3c-0.8,1-1.4,1.8-1.9,2.5C100.1,330,101.7,330.1,103.6,329.6z M119.6,277.2  c0.1-0.2,0.1-0.4,0.2-0.7l-1.8-0.7l0,0l-0.4,1C118.3,276.9,118.9,277,119.6,277.2z M107.1,346.5c-1.4,1.3-2.7,2.4-3.8,3.4  c-0.1,2.6-0.5,5,1.5,7.2l0,0c5.9,2.7,8.2,2.1,11.8-3.5c-1-2-2.1-4.3-3.1-6.6C111.3,346.7,109.2,346.6,107.1,346.5z M122.5,210.2  c0,0.2,0,0.5,0,0.7c0.7,0,1.4,0,2.2,0.1c0-0.3,0-0.6,0-0.9C123.9,210.2,123.2,210.2,122.5,210.2z M116.8,304.4  c0-0.1-0.1-0.3-0.1-0.3c-0.2-0.1-0.5-0.1-0.7-0.1l0,0c0,0.1-0.1,0.1-0.1,0.2C116.2,304.3,116.5,304.4,116.8,304.4z M124.3,262.5  l1.1-2.9c-1.3,1.1-1.8,1.6-2.5,2.2C123.6,262.1,123.8,262.3,124.3,262.5z M120.1,188.8c0.7-0.7,1.6-1.6,2.5-2.5  c-1.8-2.7-3.7-2.9-6-1.7C116.6,186.9,117.4,188.3,120.1,188.8z M101.2,357.1c-0.7-0.3-1.2-0.6-2.3-1.1c-0.3,1.2-0.4,1.8-0.5,2.6  c0.8,0.3,1.3,0.4,1.9,0.7L101.2,357.1z M119.5,212.1c0.1-0.9,0.2-1.9,0.2-2.8l0,0c-2.2-1.4-3.7-0.8-5.2,0.5  C115.5,211.9,117.1,212.7,119.5,212.1z M123.5,70.6l-0.9-0.4l-0.1,0.3l0.9,0.4L123.5,70.6z M126.5,65.7c-0.3-0.1-0.6-0.3-0.9-0.4  l0,0l-0.1,0.3l0.9,0.4C126.5,65.9,126.5,65.8,126.5,65.7z M106.8,55h-0.2l0.1,0.2L106.8,55z M120.1,331.8c0.1-0.4,0.2-0.7,0.3-1  c-0.4,0-0.7-0.1-1.1-0.1l0,0c-0.1,0.2-0.2,0.5-0.3,0.7C119.4,331.4,119.7,331.6,120.1,331.8z M104.3,191.9c-0.2-0.3-0.3-0.6-0.4-0.9  c-0.4,0.2-0.8,0.5-1.2,0.8c0.1,0.2,0.2,0.4,0.3,0.6C103.5,192.2,103.9,192.1,104.3,191.9z M206.8,305.6c0.1,0,0-0.5,0-0.7  c-0.4,0-0.7,0.1-1.1,0.1l0,0v0.6C206.1,305.6,206.5,305.7,206.8,305.6z M103.9,207.3c1.2,0,2.5,0,3.7,0c3.6-3.2,3.6-3.3,2-7l0,0  c-2.1-1.5-4.1-1.8-6.3,0C101.6,203.8,101.8,205.8,103.9,207.3z M91.4,232.2c0.2,1.8,0.3,3.1,0.4,4.5l4.2,1.7c1-0.7,2-1.3,2.6-1.7  c1.2-2.1-0.3-4.8,2.7-5.5c2.1,0.6,4.2,1.3,6.3,1.9c1.3-0.4,2.5-0.7,3.8-1c1.2-1.6,3.2-2.9,2.9-5.6c-2.7-2.8-6-4.3-9.6-5.1l0,0  c-1.8,0.5-3.1,1-4.3,1.4c-0.9,3-1.7,5.6-2.6,8.5C95.6,231.5,93.6,231.8,91.4,232.2z M122.6,369.9c0.7-0.2,1.5-0.4,2.5-0.7  c-1.4-2.4-3-3.5-4.7-3.2C119.7,367.9,121,368.8,122.6,369.9z M123.4,398.2L123.4,398.2c-0.9-0.4-1.6-0.8-3.2-1.6  c0.8,1.7,1.2,2.5,1.8,3.7C122.6,399.4,122.9,398.9,123.4,398.2z M124,352.2l-1-0.4c0,0.1-0.1,0.2-0.1,0.2l1,0.4  C123.9,352.3,124,352.2,124,352.2z M119.7,356.5c0.9,0.6,1.5,1,2.5,1.6C121.8,356.8,121,356.3,119.7,356.5z M127.3,269.5l0.2,0.1  v-0.3L127.3,269.5z M126.1,286.3c0.3,0,0.5,0,0.8,0c-0.2-0.2-0.4-0.4-0.6-0.6C126.2,285.9,126.2,286.1,126.1,286.3z M121.7,194.7  c0.8,0.6,1.4,1.2,2.3,2c1.3-1,2.4-1.9,3.6-2.8l0,0l-0.6-1.1C125.3,193.3,123.3,192.6,121.7,194.7z M128.3,340.8  c-2.1-0.9-3.7-2.4-6-0.8c0.2,1.1,0.4,2.2,0.6,3.7c1.8,0.1,3.4,0.1,5.1,0.2C128.1,342.6,128.2,341.9,128.3,340.8L128.3,340.8z   M128.1,362.7c-0.7-1.4-1.4-2.1-3.3-1.4c0.7,0.9,1.2,1.5,1.8,2.3C127.2,363.2,127.6,362.9,128.1,362.7z M124.6,320.4h-0.3l0.2,0.2  L124.6,320.4z M139.6,307.6L139.6,307.6C139.6,307.6,139.6,307.7,139.6,307.6L139.6,307.6z M140.4,300.6l-0.9-0.3l0,0  c0,0.1-0.1,0.1-0.1,0.2c0.3,0.1,0.6,0.3,0.9,0.4C140.4,300.8,140.4,300.6,140.4,300.6z M138,307.1c0.5,0.1,1,0.3,1.6,0.5  c0-0.2,0.1-0.3,0.2-0.5c-0.5-0.1-1-0.3-1.6-0.5C138.2,306.8,138.1,307,138,307.1z M139.6,319.2c0.4,0.7,0.8,1.4,1.3,2.3  c0.9-0.6,1.5-1,2.6-1.8l-3.2-1.3C140,318.8,139.8,319,139.6,319.2z M136.4,325.3c1,0.5,1.8,0.9,2.7,1.3c1-0.6,2.1-1.2,4-2.4l0,0  c-2.6-0.9-4-1.3-5.7-1.9C136.9,323.6,136.7,324.4,136.4,325.3z M141.7,379.3c-0.2-1.9-1.4-2.9-3.7-3  C138.3,378.6,139.7,379.2,141.7,379.3z M141.1,297.9c1,1.4,2.2,1.8,4.3,1.3C144.2,297.1,142.8,296.7,141.1,297.9z M138.1,332.7  c-1.1-0.5-1.9-0.9-3.2-1.5C135.5,333.6,136.4,333.6,138.1,332.7z M135.9,302.4c-0.1-0.2-0.1-0.3-0.2-0.5c-0.4,0.2-0.8,0.3-1.1,0.4  l0,0c0.1,0.2,0.1,0.3,0.2,0.5C135.2,302.6,135.5,302.5,135.9,302.4z M147.3,331.4c0,0.1-0.1,0.2-0.1,0.3c0.3,0.1,0.7,0.2,1,0.3  c0-0.1,0.1-0.2,0.1-0.2L147.3,331.4z M148.1,332L148.1,332L148.1,332L148.1,332z M146.9,276.2c0.2-0.3,0.2-0.7,0.2-1.1  c-0.5,0-0.8-0.1-1-0.1c0,0.4,0,0.8,0,1.2C146.1,276.2,146.9,276.3,146.9,276.2z M144.6,334.4c-1.3-1.8-2.3-3.3-3.4-4.8  c-1.9,2.9-1.4,4.3,2.2,6.4C143.8,335.5,144.1,335.1,144.6,334.4z M162.1,337.6c0.2,0.1,0.5,0,0.7,0c-0.3-0.2-0.5-0.4-1.1-0.7  C162,337.4,162,337.6,162.1,337.6z M160.1,299.3c0.4,1.3,0.6,2,1.1,3.6c1.2-1,1.8-1.5,2.6-2.2L160.1,299.3z M138.5,272.5  c-0.8,0.3-1.3,0.5-2.4,1c1,0.7,1.7,1.2,3,2.1C138.7,274,138.6,273.3,138.5,272.5z M145.9,277.6c-0.3,0.1-0.6,0.4-0.9,0.6  c0.2,0.2,0.3,0.4,0.6,0.7l0,0c0.3-0.3,0.5-0.5,0.7-0.8C146.4,278.1,145.9,277.6,145.9,277.6z M138.3,281.7c0.6-0.7,1.2-1.4,2.1-2.4  c-2.2-1.9-4.3-2.2-6.4-0.9C134.8,280.1,136.2,281.2,138.3,281.7z M147.8,295.3c-0.2-0.7-0.3-1.3-0.6-2.3c-0.7,0.3-1.1,0.5-1.8,0.8  c0.6,0.8,1,1.4,1.3,1.9l0,0C147.2,295.5,147.5,295.4,147.8,295.3z M84.3,314.1L84.3,314.1L84.3,314.1L84.3,314.1L84.3,314.1  c0,0.1,0,0.1,0,0.1l0,0l0,0l0,0l0,0l0,0C84.3,314.2,84.3,314.1,84.3,314.1C84.4,314.2,84.3,314.1,84.3,314.1z M80.6,306.4  L80.6,306.4L80.6,306.4L80.6,306.4z M85.9,308c-0.4-0.9-0.9-1.8-1.5-3.1c-1.2,0.5-2.2,0.8-3.8,1.5C82.5,308.8,83.9,309.2,85.9,308z   M80.6,294.3C80.8,293.9,80.8,293.7,80.6,294.3L80.6,294.3z M86.2,312.2c-0.9,1.1-1.4,1.5-1.8,2C85.3,314.4,86,314.4,86.2,312.2z   M80.6,294.3C81,293.8,80.8,294,80.6,294.3L80.6,294.3z M98.1,416.3c-1.1-1.6-2.2-3.1-3.4-4.9c-1.7,1.8-1,3.5-0.6,5.2  C95.5,417.8,96.8,418.4,98.1,416.3z M95.9,341.3c0.3-0.3,0.5-0.6,0.8-0.8c-0.3-0.8-0.4-1.9-2.4-1.1  C94.9,340.2,95.4,340.7,95.9,341.3z M93.6,323.2c-0.3,0.6-0.8,1.1-1.2,1.9l2.3,0.9l0,0c0.1-1.7,0.1-3.1,0.1-4.4  C94.1,322.1,93.9,322.7,93.6,323.2z M89.7,299.8c-0.6-1.1-1.1-2.1-1.6-2.9l-2.8-1.1l0,0c-0.9,1.1-1.7,2-2.5,3  C85,301,87.1,301.6,89.7,299.8z M75.5,314.8c1,1.6,2,3.3,3.1,5.1c2.4-1.8,3.7,3.8,5.9,0.7c0-2.3-0.1-4.4-0.2-6.4  C81.3,312.3,78.4,312.5,75.5,314.8z M127.8,231.8l2.9,1.1C129.8,230.6,129.1,230.8,127.8,231.8z M117.8,370.2  c-3.5-7.5-6.8-8.7-13-5.3l-1.6,4.1c1,3.3,2.8,5.5,5.8,7.2c-1,2.9,0.1,5.3,2.5,7.5c1.3,0.1,2.8,0.2,4.2,0.2c1-2.4,0.7-4.4-0.4-6.7  l0,0c0.9-1.3,1.5-2.3,2.2-3.3C117.6,372.7,117.7,371.3,117.8,370.2z M113.6,402.4c0.1-0.2,0.2-0.5,0.4-0.7l-1.9-1.2  c-0.1,0.4-0.3,0.7-0.5,1.1L113.6,402.4z M130.2,168.4c0.4,0.1,0.8-0.3,2.1-0.8c-1.5-0.3-2-0.4-2.8-0.5l0,0  C129.8,167.8,129.9,168.4,130.2,168.4z M83.8,417c2-0.1,2.9-1.1,3-3.1c-0.5-0.6-1.2-1.4-1.9-2.2c-1,0.2-1.9,0.3-3,0.5  C81.3,414.7,82,416.1,83.8,417z M98.9,343.1c-1.3,0.2-1.9,0.3-3,0.4l0,0c0.8,0.8,1.3,1.5,1.9,2c0.2,0.1,0.8-0.2,2-0.5  C99.5,344.2,99.2,343.6,98.9,343.1z M93.5,366.3c1.4-1.9,1.4-3.5,0.5-5.1c-0.5-0.9-1.4-1.8-1.5-2.8c-0.2-3.2-2-5-4.7-6.6  c-2.3-0.2-4.8-0.9-7.3,0.7l-2.1,5.3c0.6,1.6,1.2,3.1,1.8,4.5c3.4,1.6,6.7,3.2,10.2,4.8C91.3,366.8,92.3,366.6,93.5,366.3L93.5,366.3  z M146.6,353.3c-0.3-1.6-0.6-3.3-0.9-5.1c-1,0.1-1.7,0.2-2.7,0.3c1.1,1.9,2,3.5,2.9,5.1C146.1,353.6,146.3,353.5,146.6,353.3z   M90.3,373.4c0,0,0.4-0.2,0.8-0.4c-0.2-0.3-0.4-0.7-0.7-0.9c-0.1-0.1-0.4,0.2-0.7,0.3C89.9,372.8,90.1,373.1,90.3,373.4z   M296.3,431.3l1,0.4c0-0.1,0.1-0.3,0.1-0.3l-1-0.4C296.4,431.1,296.3,431.3,296.3,431.3z M315.7,177.7c3.3-0.1,5.8-1.8,7.2-5.1  c-0.1-0.8-0.3-1.6-0.4-2.3c-2-2.2-4.5-1.9-6.7-1.3c-3.2,0.8-6.3,2.3-9.3,3.4c-0.4,1.3-0.7,2.3-1,3.5v0.1  C308.7,179.8,312.4,177.8,315.7,177.7z M318.2,272.1c0.1-0.3,0.1-0.5,0.1-0.8c-0.7-0.2-1.4-0.4-2.1-0.6l0,0  c-0.1,0.4-0.2,0.7-0.3,1.1C316.8,271.9,317.5,272,318.2,272.1z M325.9,79.9c0.3-0.2,0.6-0.4,0.9-0.6c-0.5-0.5-1-1.1-1.4-1.6  c-0.2,0.1-0.3,0.3-0.5,0.4C325.2,78.7,325.5,79.3,325.9,79.9L325.9,79.9z M325.4,162.6L325.4,162.6c-0.2-0.3-0.5-0.6-0.7-1l-1.5,1.6  c0.2,0.2,0.3,0.3,0.5,0.5C324.3,163.4,324.9,163,325.4,162.6z M316.5,159.2c-0.1-0.2-0.1-0.4-0.2-0.7c-0.8,0.2-1.6,0.4-2.4,0.6l0,0  c0.1,0.3,0.2,0.6,0.2,0.8C314.9,159.7,315.7,159.5,316.5,159.2z M313.2,448.6c-0.8,0.5-1.8,1.1-2.7,1.7c1.8,3.4,2.6,3.7,6.5,3  C316.3,451.2,315.1,449.7,313.2,448.6z M301,139.7C301.3,139.8,301.5,139.8,301,139.7L301,139.7z M315.4,305.5  C315.9,305.7,316.2,305.7,315.4,305.5L315.4,305.5z M315.4,305.5C316.1,305.9,315.9,305.8,315.4,305.5L315.4,305.5z M312.1,312.6  c0.6,0.2,1.1,0.3,1.7,0.4c0-0.2,0.1-0.4,0.2-0.6c-0.6-0.2-1.1-0.3-1.7-0.5C312.2,312.2,312.2,312.5,312.1,312.6z M343.1,196.4  c-1.8-1.6-3.2-1.2-4.9-0.5c0.1,0.7,0.3,1.2,0.3,1.7C340.1,197.6,341.7,197.1,343.1,196.4z M343.1,196.4L343.1,196.4L343.1,196.4  L343.1,196.4z M339.8,156L339.8,156c0-0.2-0.1-0.4-0.2-0.6c-0.5,0.1-1,0.3-1.5,0.4c0,0.2,0.1,0.4,0.2,0.6  C338.9,156.3,339.3,156.1,339.8,156z M339.3,309c2.4,2.7,2.5,2.7,5.5,0.8C342.8,309,341.4,307.5,339.3,309z M331.9,286.3  c-1.2-1.5-2.3-1.9-3.7-1.5l0,0c-0.1,0.2-0.3,0.3-0.3,0.4s0,0.3,0.1,0.4C329.1,286.4,330.2,286.9,331.9,286.3z M336.6,338  c-1.1-1.2-2.2-1.6-3.5-1C334.4,337.4,335.3,337.7,336.6,338z M330.6,140.2v0.3l0.2-0.2L330.6,140.2z M333.9,273.1  c1.1-2.9,0.2-4.7-1.9-6.2C331.5,269.3,331.5,271.4,333.9,273.1z M329.1,375c1.5,1.6,3.2,1.8,5.1,0.8  C332.8,374.6,331.4,374.1,329.1,375z M286.4,78L286.4,78c-0.1-0.1-0.2-0.3-0.3-0.4c-0.4,0.2-0.7,0.4-1.1,0.6  c0.1,0.2,0.2,0.4,0.3,0.5C285.7,78.4,286,78.2,286.4,78z M289.3,326.3C290,326.5,289.8,326.4,289.3,326.3L289.3,326.3z M276.5,156  l0.4-1c-0.1,0-0.2-0.1-0.3-0.1c-0.1,0.3-0.3,0.6-0.4,0.9l0,0C276.3,155.9,276.5,156,276.5,156z M354.7,410.2c0-0.1,0.1-0.2,0.1-0.2  l-0.7-0.3l0,0c0,0,0,0.1-0.1,0.1C354.2,410,354.4,410.1,354.7,410.2z M288.7,169.1c-0.5-1.3-1.2-2.9-1.8-4.3l0,0  c-5.8-2.3-11.8-0.6-12.1,3.3c0.1,0.6,0.4,1.6,0.5,2.5C281.1,173.7,284.5,173.4,288.7,169.1z M280.2,113.1L279,116  c0.6,0.3,1.1,0.6,1.5,0.9C281.2,115.6,281.1,114.3,280.2,113.1z M274.3,240.4l1.7,0.7c0-0.1,0.1-0.3,0.1-0.3l-1.7-0.7  C274.4,240.2,274.3,240.4,274.3,240.4z M301,139.7C301.2,139.8,301.5,139.9,301,139.7L301,139.7z M270.9,355.4  c1.2,0.3,2,0.6,2.9,0.9C273,355,272,354.7,270.9,355.4z M281.1,343.9c-0.9-2-2.6-2.7-4.1-3.7c-0.5-0.3-1.4,0.2-3.2,0.6  C276.7,342.2,277.5,345.6,281.1,343.9z M277.9,248.6c-0.4,0-0.8,0.3-1.2,0.5c0.1,0.2,0.1,0.5,0.2,0.7c0.7,0,1.4-0.1,2.9-0.2  C278.6,248.9,278.3,248.6,277.9,248.6z M105.9,234.5L105.9,234.5c0,0.3,0,0.7,0,1c0.6,0.1,1.1,0.2,2.3,0.4c-0.4-1-0.6-1.4-0.9-2.1  C106.7,234.2,106.3,234.4,105.9,234.5z M300.2,324.6c1.2,1.3,2.5,1.5,4.4,0.2C302.2,322.4,302,322.4,300.2,324.6z M302.3,272.5  c-2.2-1.7-3.8-1.9-5.6-0.2C298,273.6,299.9,273.6,302.3,272.5z M302,267.2L302,267.2c-0.1-0.2-0.2-0.3-0.3-0.5  c-0.4,0.2-0.8,0.4-1.2,0.6c0.1,0.2,0.1,0.3,0.2,0.5C301.2,267.6,301.6,267.4,302,267.2z M295,343.5c0.1-0.2,0.1-0.3,0.2-0.5  c-0.4-0.2-0.8-0.4-1.2-0.6c-0.1,0.2-0.2,0.4-0.2,0.6L295,343.5z M294.7,161c0-0.4,0-0.8,0-1.1c-0.7,0.1-1.4,0.1-2.1,0.2  c0,0.2,0,0.5,0,0.7C293.3,160.8,294,160.9,294.7,161L294.7,161z M293.3,232.5c1.9,1,3.6,0.5,5.2-1.4  C296.1,231.1,294.3,230.5,293.3,232.5z M292.6,110.6c-0.1-0.2-0.2-0.4-0.3-0.5c-1.1,0.3-2.2,0.6-3.7,1c0.7,0.8,1,1.1,1.6,1.8  C291.2,111.9,291.9,111.2,292.6,110.6z M289.3,326.3C289.7,326.6,290,326.7,289.3,326.3L289.3,326.3z M362,269.8  c0.2,0.1,0.5,0.2,0.8,0.4l0,0c-0.2-0.2-0.3-0.4-0.5-0.5C362.3,269.7,362.1,269.7,362,269.8z M423.7,154.2L423.7,154.2  c-0.5-4.8-2.6-8.4-5.5-12.1c-0.7,1.3-1.3,2.3-1.8,3.2C418.1,148.9,419.8,152.2,423.7,154.2z M432.5,98.9c-0.5,0-1.1,0.1-1.6,0.1  c0.1,0.2,0.1,0.5,0.2,0.7C431.5,99.4,432,99.1,432.5,98.9z M407.7,112.7c-0.3-0.3-0.7-0.5-1-0.7l0,0c-0.1,0.2-0.3,0.4-0.4,0.6  c0.4,0.3,0.7,0.5,1.1,0.8C407.5,113.1,407.8,112.7,407.7,112.7z M425.8,325.6c1.9,3.2,4.1,4,8.6,2.9  C431.8,325.9,429.5,323.7,425.8,325.6z M431.6,114.4c0.4,0.4,0.8,0.7,1.2,1c0.2-0.2,0.3-0.3,0.5-0.5c-0.3-0.4-0.5-0.8-0.8-1.1  C432.2,114,431.9,114.2,431.6,114.4z M406.3,235c1.2,0.6,2.3,0.5,3.4-0.1C408.4,235,407.5,235,406.3,235z M407.3,213.8  c1.1-0.1,2.1-0.1,3.2-0.2l0,0c0-0.4-0.1-0.8-0.2-1.2c-1,0.2-2.1,0.5-3.2,0.7C407.2,213.3,407.2,213.5,407.3,213.8z M414.9,295.4  c-1.7,0.2-3.5-1.2-5.3,0.3C412.3,298.2,412.5,298.2,414.9,295.4z M409.8,270.4l-1-0.4c0,0.1-0.1,0.2-0.1,0.2l1,0.4  C409.7,270.5,409.8,270.4,409.8,270.4z M433.1,98.6c0,0-0.2,0.1-0.4,0.1c-0.1,0-0.1,0.1-0.2,0.1c0.1,0,0.2,0,0.3,0  C432.9,98.7,433.1,98.6,433.1,98.6z M498.2,420.3L498.2,420.3L498.2,420.3L498.2,420.3z M498.6,420.8c0,0,0.2,0,0.3-0.1  c-0.2-0.1-0.4-0.2-0.7-0.4C498.4,420.6,498.5,420.7,498.6,420.8z M433.7,424.3l2.3,0.9c0.1-0.1,0.1-0.4,0.1-0.4l-2.3-0.9  C433.8,424.1,433.7,424.3,433.7,424.3z M515.5,382.5c-2.2-1.5-4.1-1.7-5.7-0.5C511.6,383.3,513.1,384.2,515.5,382.5z M509.8,174.4  L509.8,174.4c-2.1-2.2-2.1-2.2-3.5-2.2c-1.9-0.1-3.6,0.3-4.7,2C503.1,177.7,504.5,177.8,509.8,174.4z M439,125.7  c1.9,0,2.9-0.1,4.3-0.1C441.9,124.2,440.9,124.4,439,125.7z M438.7,219c2.9-0.9,4.8-2.1,5.8-3.6c-3.3-2-6.4-1.7-9.9,0.8  C435.7,218.2,435.7,218.3,438.7,219z M503.1,489.5c2.2,0.2,4.5,0.4,7.4,0.6l0,0c-2.1-2.6-3.7-4.8-5.7-6.7c-2.6-2.6-4.7-2.6-8.3-0.9  c-0.4,1.9,0.5,3.2,1.8,4.5C499.6,488.3,501.1,489.3,503.1,489.5z M482.7,125c-0.9-0.1-1.3-0.2-1.4-0.1c-0.3,0.4-0.6,0.9-0.8,1.3  C481.1,125.8,481.7,125.5,482.7,125L482.7,125z M369.6,85.6c-0.1-0.4-0.2-0.6-0.2-0.6c-0.3,0-0.5,0-0.8,0  C368.8,85.2,369.1,85.3,369.6,85.6L369.6,85.6z M362.8,207.3c-0.1-2.2-0.6-3.7-3.2-5C360.5,204.6,360.8,206.2,362.8,207.3z   M355.6,265.6c-1.3-0.2-2.2-0.3-3.7-0.5C353,266.1,354.2,266.3,355.6,265.6z M367.1,164c-1.4,0.5-2.5,0.9-4.7,1.7  C366.4,167.3,366.7,167.2,367.1,164z M370.9,259.3c0.3,0.5,0.5,1,0.9,1.8l0,0c1.3-0.5,2.2-0.8,3.5-1.3  C373.7,258.7,372.4,258,370.9,259.3z M402.5,128.4c-0.2-0.1-0.5-0.2-0.7-0.3l0,0c0,0.1,0,0.1-0.1,0.2  C401.9,128.4,402.2,128.4,402.5,128.4C402.5,128.4,402.5,128.4,402.5,128.4z M358.6,493.9c0,0,0.2,0,0.3-0.1  c-0.2-0.1-0.4-0.3-0.7-0.4C358.4,493.6,358.5,493.7,358.6,493.9z M277.3,305.7c0.1,0,0.2-0.1,0.3-0.1c-0.2-0.1-0.4-0.2-0.7-0.4  C277.1,305.4,277.1,305.6,277.3,305.7z M384.9,157.1c2.8-1.2,5-3.1,6.8-5.6c-1.1-1.6-2.4-1.5-3.5-1c-2.3,1.1-4.4,2.5-6.7,3.9  C381.9,157,383.3,157.8,384.9,157.1z M358.6,103.4c-0.6-4.3-1.1-4.8-4.3-3.8C355.2,101.2,356.1,102.7,358.6,103.4z M353.8,133.2  c-0.2-0.4-0.4-0.9-0.6-1.3c-0.3,0.2-0.6,0.3-0.8,0.5c0.3,0.4,0.6,0.8,1,1.2C353.5,133.4,353.6,133.3,353.8,133.2z M386.4,258  c2.2,2,3.9,2.8,6.1,2.1c0.4-0.1,0.6-0.6,1-1.1c-1-0.8-1.9-1.6-2.9-2.5C389.4,256.9,388.3,257.3,386.4,258z M397,446.2  c-1-1.3-2.1-2.2-3.8-1.3C394.1,446,395.4,446.4,397,446.2z M398.6,395l-2.5-1C396.3,396.4,397.6,395.2,398.6,395z M398.5,378.3  c0-0.1,0-0.3-0.1-0.5c-0.4,0-0.9,0.1-1.3,0.1l0,0c0,0.3,0,0.5,0.1,0.8C397.6,378.6,398,378.5,398.5,378.3z M386.3,271.1  c-0.4,0-0.9,0.1-1.3,0.1c0.1,0.3,0.2,0.5,0.2,0.8c0.4-0.2,0.8-0.3,1.1-0.4L386.3,271.1z M389.5,329.2c-0.6-0.2-1.3-0.3-2-0.5  c-0.1,0.5-0.1,0.8-0.2,1.4c0.8-0.1,1.5-0.2,2.2-0.3C389.5,329.6,389.5,329.4,389.5,329.2z M384.3,393.6  C384.9,393.9,384.6,393.8,384.3,393.6L384.3,393.6z M389.2,478.9c-1.1-1.3-2.2-2-4.7-1.6C386.2,478.6,387.8,479.2,389.2,478.9z   M384.3,393.6C384.7,393.7,384.9,393.8,384.3,393.6L384.3,393.6z M186.4,337.9c-0.8-1.3-1.4-2.3-2.1-3.4c-1.1,0.4-1.9,0.7-3.1,1.2  c0.4,1.2,0.7,2.1,1,3C184,338.4,185,338.1,186.4,337.9z M164.5,419.4L164.5,419.4c0.2-0.1,0.4-0.2,0.6-0.2c-0.2-0.4-0.3-0.8-0.5-1.3  c-0.2,0.1-0.4,0.1-0.6,0.2C164.1,418.6,164.3,419,164.5,419.4z M169.1,358.2c-0.5-0.5-0.9-1-1.4-1.2c-0.7-0.3-1.4-0.4-2.3-0.6  C166.3,357.9,167.5,358.5,169.1,358.2z M170.6,305.9c0.4-0.2,0.8-0.4,1.1-0.7c0,0-0.2-0.6-0.3-0.6c-0.4,0.1-0.9,0.2-1.3,0.4  C170.3,305.3,170.5,305.6,170.6,305.9z M166.6,443C166.7,442.5,166.6,442.8,166.6,443L166.6,443z M174.1,312  c0.4-0.2,0.7-0.4,1.1-0.6l-0.4-0.6c-0.3,0.2-0.7,0.5-1,0.8l0,0C173.9,311.8,174,311.9,174.1,312z M176.2,280.5l-4.4-1.7  c-1,1.5-1.8,2.6-0.5,4.4c0.9,0.2,2.2,0.6,3.9,1.1C175.6,282.8,175.9,281.7,176.2,280.5z M166.6,443  C166.8,442.5,166.7,442.8,166.6,443L166.6,443z M165.4,282.5C165.7,282.6,166,282.6,165.4,282.5L165.4,282.5z M166.2,298.6  c-0.1,0.2-0.1,0.5-0.2,0.7c0.6,0.2,1.2,0.3,1.7,0.5c0.1-0.2,0.1-0.5,0.2-0.8C167.3,298.9,166.7,298.7,166.2,298.6z M165.4,282.5  C165.7,282.7,165.9,282.8,165.4,282.5L165.4,282.5z M225.7,263.9C225.7,263.8,225.7,263.8,225.7,263.9  C225.7,263.8,225.7,263.8,225.7,263.9L225.7,263.9z M200.8,294.8c-0.2-0.6-0.4-1.3-0.7-2.1c0.4-0.6,0.8-1.2,1.2-1.8  c-3.9-4.7-8.6-7.4-15.1-5.6l0,0l-2,5.1c2.2,6.8,6.8,9.4,14.1,8.1C199,297.4,199.9,296.1,200.8,294.8z M225.1,260.7  c-0.2,0.1-0.3,0.5-0.6,1c0.3,0.5,0.6,1.1,1.2,2.2c1.3-0.7,2.2-1.2,3.1-1.6C228,260.1,226.7,259.8,225.1,260.7z M173.6,343.7  c0.1-0.2,0.1-0.5,0.2-0.7l-1.9-0.8l0,0c-0.1,0.4-0.2,0.7-0.4,1.1C172.2,343.4,172.9,343.5,173.6,343.7z M235.8,232  c0.2-0.7,0.3-1.1,0.8-2.6c-1.4,0.6-2.2,0.9-4,1.7C234.3,231.7,235,231.8,235.8,232z M176.6,410.1l-0.1-0.2l-0.1,0.2H176.6z   M172.9,316.1c-2.3,0-4.6,0-7.2,0c-0.5,2.2-1,4-1.3,5.3l0,0c1.3,2.6,3,4,5,3.9c2.6-0.1,5.5-0.1,7.6-2.2  C177,319.9,174.4,318.4,172.9,316.1z M195.6,387.8l2.4,1C197.9,387.1,197.2,386.9,195.6,387.8z M182.4,427.7l-1.7-0.7  c-0.1,0.2-0.2,0.4-0.3,0.6c0.5,0.3,1,0.7,1.6,1l0,0C182.1,428.3,182.2,428,182.4,427.7z M182.8,305.3c0-0.3,0.1-0.6,0.1-0.9  c-0.7-0.1-1.4-0.1-2.1-0.1c0,0.3,0,0.5-0.1,0.8C181.4,305.2,182.1,305.3,182.8,305.3z M204.1,260.7l-3.7-1.5  C201,261.1,201.8,261.6,204.1,260.7z M210.3,209v0.3l0.2-0.1L210.3,209z M205.7,274.7c0-0.2,0-0.5,0-0.7c-0.4,0-0.8,0-1.1,0.1  c-0.1,0-0.1,0.5-0.1,0.8L205.7,274.7z M203.7,251.7c-1.1-2.2-1.8-2.3-3.1-1.2L203.7,251.7z M211.4,188.5c-0.4,0.1-0.8,0.3-1.1,0.4  l0,0c0.1,0.1,0.1,0.3,0.2,0.5c0.4-0.2,0.8-0.3,1.2-0.4C211.6,188.8,211.5,188.6,211.4,188.5z M207.2,173.7L207.2,173.7  c1,1.2,2.2,1.8,3.7,0.9c0.3-0.2,0.4-0.7,0.8-1.3l-2.8-1.1C208.3,172.7,207.8,173.2,207.2,173.7z M207.2,284.9c0.7,0.8,1.2,1.3,1.9,2  l1.4-3.5C209,284,208.3,284.4,207.2,284.9L207.2,284.9z M209.1,297.7c0-0.9-0.1-1.5-0.1-2.8c-1.4,0.6-2.1,0.9-3.8,1.6  C207,297.1,207.9,297.3,209.1,297.7z M203.8,202.2c-0.7,0-1.3,0-2,0.1l0,0v1c0.7-0.1,1.3-0.3,2-0.4  C203.9,202.6,203.8,202.4,203.8,202.2z M208.1,320.4c0.2-0.1,0.5-0.1,0.8-0.1c0-0.3,0.1-0.6,0-0.8c-0.2-0.2-0.5-0.1-0.8-0.1  C208,319.7,208,320.1,208.1,320.4z M240.3,323.8c0.1,0.4,0.3,0.9,0.7,2.1c1.4-0.4,2.4-0.7,3.6-1  C242.5,322.2,241.1,321.9,240.3,323.8z M179.1,271.9c0.8-0.4,1.7-0.9,3.5-1.9l-3.6-1.4C177.7,269.9,177.7,270.8,179.1,271.9z   M179.8,235.7c-1.6-0.4-2.2-0.6-2.9-0.8l0,0c-0.1,0.3-0.2,0.5-0.3,0.8c0.3,0.3,0.6,0.7,1,0.7C178,236.5,178.4,236.2,179.8,235.7z   M178.1,294.4c-0.8-2-1.7-2-3.2-0.9c0.3,1.1,0.6,2.1,1,3.6C176.9,295.9,177.5,295.2,178.1,294.4L178.1,294.4z M170.1,304.9  L170.1,304.9L170.1,304.9L170.1,304.9z M180.8,328.3c-0.1-0.6-0.3-1.2-0.4-1.8c-0.3,0-0.5,0.1-0.7,0.2c0.2,0.6,0.3,1.2,0.5,1.8  C180.4,328.4,180.6,328.3,180.8,328.3z M186.1,365.6c-0.3-0.2-0.6-0.3-1-0.5l0,0c0,0.1-0.1,0.2-0.1,0.3c0.3,0.2,0.6,0.3,1,0.5  C186,365.7,186,365.6,186.1,365.6z M186.5,350.8c-0.3,0.1-0.7,0.1-1,0.2c0.1,0.2,0.2,0.5,0.2,0.7l0,0c0.3,0,0.6,0,0.7-0.1  C186.6,351.3,186.5,351,186.5,350.8z M201.1,231.3c1.1-0.7,1.9-1,2.6-1.4C201.9,228.9,201.1,229.1,201.1,231.3z M280.6,307.3  c0.9,0.2,1.6,0.4,2.5,0.6C282.6,306.1,281.9,306.2,280.6,307.3z M266.6,336.5c1-2,0.5-3.3-0.6-4.5c-1.8,0-2.8,1.2-2.9,3.6  C264.2,335.8,265.5,336.2,266.6,336.5z M256.6,314.9l-1.1,2.9c0.8,0.8,1.6,1.7,2.6,2.7c1.8-0.3,3.5-0.6,5.7-0.9l0,0  c-1-2-1.7-3.4-2.5-5C259.7,314.7,258.2,314.8,256.6,314.9z M256.3,333.5l-0.2,0.7l2,0.8l0,0c0.1-0.3,0.2-0.7,0.4-1.1  C257.7,333.8,257,333.7,256.3,333.5z M266.7,239.1l-1-0.4c0,0.1-0.1,0.3-0.1,0.3l1,0.4C266.7,239.3,266.7,239.1,266.7,239.1z   M245.8,250.8c-0.4,0.2-0.8,0.3-1.2,0.5c0.1,0.1,0.1,0.3,0.2,0.4c0.4-0.1,0.8-0.3,1.2-0.5C245.9,251.1,245.9,251,245.8,250.8z   M264.6,353.6l0.4,0.5c0.6-0.2,1.2-0.4,2.2-0.8c-0.8-0.4-1.3-0.8-1.6-0.7C265.2,352.8,265,353.3,264.6,353.6z M255.1,347.7  c-1.1-0.9-2.2-1.7-3.3-2.5c-1.3,0-2.5,0-3.7,0c-0.9,1-1.8,1.9-2.7,2.8c0.1,1.1,0.2,2.2,0.2,3.2c1.2,0.9,2.2,1.8,3.6,2.8l0,0  c2.7-0.1,5.4,0.7,7.6-1.5C256.2,350.9,255.7,349.3,255.1,347.7z M246,251.3L246,251.3L246,251.3L246,251.3z M255.2,434.2  L255.2,434.2c0.2-0.2,0.4-0.4,0.5-0.7c-0.6-0.4-1.2-0.8-1.8-1.2c-0.1,0.2-0.3,0.4-0.5,0.6C254.1,433.3,254.7,433.7,255.2,434.2z   M246.3,281.1c-0.3-0.2-0.6-0.3-1-0.5c0,0.1-0.1,0.3-0.1,0.3l1,0.4C246.3,281.3,246.3,281.2,246.3,281.1z M284.1,232.8  c-0.5,0.2-0.9,0.3-1.4,0.4c0,0.2,0.1,0.4,0.1,0.6c0.5,0,0.9,0,1.4,0C284.2,233.5,284.1,233.2,284.1,232.8z M284.2,331.1l-2.7-1.1  C281.7,332.3,282.5,332.3,284.2,331.1z M277.7,234.6c-1-1.8-2.3-2-4.4-0.9C274.8,235.4,276.1,235.8,277.7,234.6z M280.9,202.4  c0,0,0.1,0.2,0.1,0.3c0.1-0.2,0.3-0.4,0.4-0.7C281.2,202.2,281,202.3,280.9,202.4z M274.5,332.3c0.2-0.7,0.3-1.3,0.5-1.9l-4.1-1.6  C271.1,331.9,272.6,332.1,274.5,332.3z M275.4,273l-2-0.3c-0.1,0.4-0.1,0.8-0.1,1.2c0.7,0,1.3,0,2,0L275.4,273z M270.4,173.8  c-2-1.6-3-1.5-4-0.3c0.4,0.5,0.6,0.7,1.1,1.4C268.2,174.6,269,174.3,270.4,173.8z M270.4,173.8L270.4,173.8L270.4,173.8L270.4,173.8  z M267.3,353.4C267.3,353.4,267.2,353.4,267.3,353.4C267.2,353.4,267.2,353.4,267.3,353.4L267.3,353.4z M239,137  c0.3,1.3,0.5,2.5,0.7,3.6c2.8,0.6,4.8-0.1,6.7-2.1c-0.1-0.9-0.2-1.9-0.3-2.7C243.6,133.9,241.7,135.2,239,137L239,137z M249.9,284.3  c0.6-0.9,0.9-1.5,1.4-2.2l-2.2-0.9c-0.2,0.2-0.4,0.4-0.6,0.7C248.9,282.6,249.2,283.3,249.9,284.3z M249,193c-0.4-0.1-0.7-0.2-1-0.3  c0,0.1-0.1,0.3-0.1,0.3l1,0.4C248.9,193.2,248.9,193.1,249,193z M254.3,152.4c1.5-0.8,3-1.6,3.1-3.6c-2.6-2.3-3.2-2.3-6.8,0.8  C250.8,151.8,252.6,152,254.3,152.4z M240.2,197.4c0.3-1.4,0.6-2.9,0.9-4.3c1.7-0.5,2.9-0.8,4.2-1.2l1.9-4.9  c-0.5-0.9-0.9-1.7-1.6-2.9c-2.3,0-4.3-0.2-6.3,0.1c-2.6,0.4-4.6,1.7-4.5,4.8c0,0.2-0.4,0.5-0.6,0.7c-1.3,0.2-2.6,0.3-3.8,0.5  c-3,2.9-2,6-1.4,9C233.4,201.8,233.8,201.7,240.2,197.4z M258.3,140.2c0.8-2.5,1.4-4.5,2.1-6.9l0,0c-2.7-1-4.5-0.2-6.2,1.6  C254.5,137.4,256.1,138.8,258.3,140.2z M238.8,136c-1.5-1.3-1.2-3.7-3.8-3.3c-0.6,1.6-0.7,3,0.6,5  C236.6,137.2,237.5,136.7,238.8,136z M252.3,337.3c0.8,1.4,1.7,1.5,2.8,0.4C254.3,336.7,253.4,336.6,252.3,337.3z M238.8,136  L238.8,136L238.8,136L238.8,136z M243,98.2c-1.4,0.1-2.4,0.1-4.1,0.2l0,0c0.4,1.2,0.6,1.8,0.8,2.3C241.3,100.5,242.6,100.2,243,98.2  z M238.8,158.7c2.7,2.4,3.3,2.3,4.5-0.9C241.4,157.6,239.9,157.2,238.8,158.7z M259.6,305.2L259.6,305.2L259.6,305.2L259.6,305.2z   M255.9,290.3c0.3,1,0.4,1.6,0.7,2.4c1-0.5,1.8-0.8,3.5-1.6C258.1,290.8,257.2,290.6,255.9,290.3z M255.4,303.1  c1.4,0.7,2.6,1.3,4.2,2.1c1.3-0.8,2.3-1.4,3.4-2c-1.1-3.2-3.4-3.4-6.3-3.4L255.4,303.1z M260,62.4c-0.1,0.2-0.2,0.4-0.4,0.7  c0.2-0.2,0.4-0.3,0.5-0.4C260.2,62.7,260.1,62.5,260,62.4z M255.3,329.8c-0.3,0.1-0.5,0.4-1.2,1.2c1.1-0.4,1.5-0.5,2-0.7  C255.8,330.1,255.5,329.8,255.3,329.8z M259.8,192.4C260.2,192.6,260.5,192.7,259.8,192.4L259.8,192.4z M259.8,192.4  C260.2,192.7,260.4,192.8,259.8,192.4L259.8,192.4z M257.9,281.7c-0.1,0.5-0.1,0.8-0.2,1.3c0.7-0.1,1.3-0.1,3-0.2L257.9,281.7  L257.9,281.7z M183.6,403.4L183.6,403.4C183.6,403.4,183.7,403.4,183.6,403.4L183.6,403.4z M261.9,437.6c-0.8-0.4-1.6-0.9-2.7-1.4  C259.3,438.1,260.1,438.5,261.9,437.6z M237.2,346.1c-2.4-4.6-3.5-4.9-6.9-2.2c0.5,2.2,2.3,2.8,4.1,3  C235.3,347.1,236.2,346.4,237.2,346.1z M259.3,463c0.8-4.5,0.1-6.9-2.6-8.6c-2-1.3-4-1.8-6.1,0.7c0.4,1.5,0.8,3.3,1.2,5L259.3,463z   M245,470.2c0.2,0.4,0.3,0.8,0.5,1.2l0,0c0.2-0.1,0.4-0.3,0.7-0.4c-0.3-0.4-0.6-0.7-0.9-1C245.2,470,245.1,470.1,245,470.2z   M268.3,641.7c0,0,0.2-0.1,0.3-0.1c-0.2-0.1-0.5-0.3-0.8-0.4C268.1,641.4,268.2,641.6,268.3,641.7z M266,391.2  c0.3,0.2,0.6,0.4,1,0.7l0,0c-0.2-0.4-0.2-0.6-0.2-0.6C266.6,391.2,266.3,391.2,266,391.2z M251.4,372.8c0.1-0.3,0-0.6,0.1-1.1l0,0  c-0.7-0.8-1.5-1.7-2.5-2.5c-0.8-0.7-1.6-1.4-2.6-2c-3-1.9-5-1.2-7.1,2.2c0.1,3,2.3,4.1,4.7,5.5c2.3-0.3,4.7-0.6,6.9-0.9  C251.2,373.4,251.4,373.1,251.4,372.8z M258.4,585.6c-0.4,4.3,0,4.7,4.3,5.5C262.4,588.2,261,586.4,258.4,585.6z M255.7,602.7  c-0.8,4.4-0.2,5.2,4.9,6.7C261.4,605.1,259.8,602.9,255.7,602.7z M261.8,375.1c0.7,1.3,1.3,2.4,1.9,3.5l0,0c1.9-0.1,3.5,0,5.2-1.1  C266.9,375.4,265.3,373.2,261.8,375.1z M236.2,395.5C236.6,395.6,236.8,395.7,236.2,395.5L236.2,395.5z M236.2,395.5  C236.7,395.8,236.6,395.7,236.2,395.5L236.2,395.5z M240,513.2C240.3,513.3,240.6,513.3,240,513.2L240,513.2z M235,414  c-0.2,0.1-0.4,0.3-0.5,0.4c0.3,0.3,0.5,0.7,0.8,1c0.1-0.1,0.3-0.2,0.4-0.3C235.5,414.7,235.2,414.3,235,414z M235.6,536.1  c0.3,0.3,0.6,0.7,0.9,1c0.2-0.2,0.5-0.3,0.7-0.4c-0.3-0.4-0.5-0.8-0.7-1.1C236.2,535.7,235.9,535.9,235.6,536.1z M240.3,262.9  l-1.1,0.4c0,0.1,0.1,0.3,0.1,0.4c0.4-0.1,0.8-0.3,1.1-0.4C240.4,263.2,240.3,262.9,240.3,262.9z M240,513.2  C240.3,513.4,240.5,513.5,240,513.2L240,513.2z M234.4,373.2c-0.2,0-0.4,0.4-0.7,0.8c0.5,0.8,1,1.7,1.6,2.6c1.1-0.3,2.1-0.5,3.3-0.7  l0,0C238,373.2,236.4,372.8,234.4,373.2z M239.2,263.3L239.2,263.3L239.2,263.3L239.2,263.3z M250.6,481.1c0.1,0.5,0.2,1,0.3,1.4  c0.3-0.1,0.6-0.3,0.9-0.4c-0.3-0.4-0.5-0.8-0.8-1.1C250.9,481,250.6,481.1,250.6,481.1z M278.6,768.1c0.3,0.3,0.5,0.7,0.8,1  c0.2-0.1,0.4-0.2,0.5-0.3c-0.2-0.4-0.3-0.8-0.4-1.2C279.3,767.8,279,768,278.6,768.1z M279.6,462.9c0.3,0.4,0.5,0.8,0.9,1  s0.9,0.1,1.3,0.1c0-0.2,0.1-0.4,0.1-0.7l-1.8-0.9C280,462.6,279.8,462.8,279.6,462.9z M282.8,375.4c-1.1,0.9-1.9,1.6-2.6,2.2  c0.6,2.3,2.2,2.8,4.1,3c0.6-0.5,1.2-1.1,2.1-1.9C285.1,377.6,284.1,376.7,282.8,375.4L282.8,375.4z M280.8,483.3  c0.3,0.1,0.6,0.3,0.9,0.4c0.1-0.1,0.1-0.2,0.2-0.3c-0.3-0.1-0.6-0.3-0.9-0.4C280.9,483.1,280.9,483.2,280.8,483.3z M285.3,362.7  c0.3,0.2,0.6,0.4,1.1,0.7c-0.2-0.4-0.2-0.6-0.3-0.7C285.8,362.7,285.5,362.7,285.3,362.7z M288.7,265.5c0-0.2,0-0.5,0-0.8  c-0.7-0.1-1.4-0.1-2.1-0.1c0,0.3,0,0.7,0,1.1C287.3,265.6,288,265.5,288.7,265.5z M286.6,350c0.7,1.2,1.1,2.2,1.6,3.1  c1,0.2,2,0.5,3.1,0.7c0.3-1.3,0.6-2.3,0.8-3.4C290.3,349.5,288.5,349.3,286.6,350z M288.2,475.1  C287.9,474.9,287.6,474.8,288.2,475.1L288.2,475.1z M288.2,475.1C287.9,475,287.6,474.9,288.2,475.1L288.2,475.1z M270,360.6  L270,360.6c0.5,1.4,0.7,2,1,2.8c1-0.3,1.8-0.5,3.6-1L270,360.6z M279.6,382.4c-1.4-2.3-3.4-3.2-6.1-2.7c0.8,1.1,1.2,2,1.8,2.5  C276.7,383.1,278.1,382.8,279.6,382.4z M277.5,557.9C277.2,557.8,277,557.8,277.5,557.9L277.5,557.9z M277.7,593.4  C277.8,593.4,277.8,593.4,277.7,593.4C277.6,593.1,277.6,593.2,277.7,593.4z M271.1,563.2c1.5,2.4,2.1,2.8,2.8,1.7  C273.6,563.7,273.1,562.7,271.1,563.2z M273.5,379.7L273.5,379.7C273.5,379.7,273.5,379.6,273.5,379.7L273.5,379.7z M277.8,593.4  L277.8,593.4C277.5,593.2,277.6,593.3,277.8,593.4z M277.5,557.9C277,557.6,277.2,557.8,277.5,557.9L277.5,557.9z M277.9,593.7  l0.1-0.1l0,0c-0.1-0.1-0.3-0.2-0.3-0.2C277.8,593.5,277.9,593.6,277.9,593.7z M278,593.7c0.1,0.2,0.2,0.4,0.3,0.4  c0-0.1-0.1-0.3-0.1-0.5L278,593.7z M220,581c-0.6-0.9-1-1.7-1.9-3.2C218,579.8,218.6,580.8,220,581z M180.9,476.7  c-0.1,0-0.3-0.1-0.4-0.1c0,0.1,0,0.3,0,0.3c0.1,0.1,0.3,0.1,0.4,0.1C180.9,476.9,180.9,476.7,180.9,476.7L180.9,476.7z M205.3,573.2  c1.5-2.1,2.2-4.1,1.4-6.8l0,0c-2.3-2.8-4.3-5.7-8.3-6.8c-0.9,0.6-2,1.2-2.8,1.8c-0.4,4.9,0.8,8.9,5,11.7  C202.1,573.2,203.8,573.2,205.3,573.2z M176.5,485.7c-1.2,0-2.6-0.1-4-0.1c-1.5,1.8-3.2,3.4-3.2,6.1c0.8,3,3.4,4.5,5.7,6.3  c2.5-0.2,4.9,1.1,7.4-0.7l1.4-3.5c-0.6-1.7-1-3.2-1.4-4.4C180.3,488.1,178.5,486.9,176.5,485.7z M181.5,405.6  c0.8,0.9,1.4,1.7,2.1,2.5c0.8-0.8,1.3-1.2,2-1.9c-0.7-0.9-1.2-1.7-2-2.8C182.8,404.2,182.2,404.8,181.5,405.6z M192.7,368.1  c0.1,0,0.2,0.1,0.3,0s0.1-0.2,0.2-0.3c-0.1,0-0.3,0-0.4-0.1C192.7,367.9,192.7,368.1,192.7,368.1z M193.7,362.5  c-0.6,0.5-0.9,0.7-1.7,1.3c0.5,0.9,0.9,1.5,1.5,2.4c0.9-0.6,1.5-1.1,2.4-1.6C194.9,363.7,194.3,363.1,193.7,362.5z M180.1,616.5  c0,0.4-0.1,0.9-0.2,1.3c0.4,0,0.7,0,1.1,0c-0.1-0.4-0.2-0.9-0.3-1.3C180.6,616.5,180.3,616.5,180.1,616.5z M189.2,382.7  c-0.8-1.5-1.6-2.5-3.5-1.9C186.2,382.7,187.4,383.3,189.2,382.7z M187.7,622.8c-0.4,2.5,1.5,3.4,2.5,5.8c0.6-2,1-3.2,1.4-4.7  C190.2,623.4,189.1,623.1,187.7,622.8L187.7,622.8z M178.5,454.8c-0.7,2.5,0.2,4.4,2.7,5.4l0,0c0.9-0.6,2-1.3,3.3-2.3  c-0.8-1.5-1.4-2.6-2.1-3.9C180.9,454.3,179.6,454.5,178.5,454.8z M171,458.6c2-0.6,3.8-1.9,5.4-3.9l0,0c-1-2.1-1.9-4.3-2.6-5.7  c-3.4-2.2-6-2.7-8.7-1.9c-2.1,1.2-2.9,3.1-2.9,5.6c-0.9,0-1.6,0-2.4-0.1c0.1,0.4,0.2,0.8,0.3,1.1c1,0.3,2.1,0.6,3.2,1  c0.2,1.4,0.3,2.6,0.4,3.5C166.2,458.4,168.4,458.5,171,458.6z M175,569.2l1-2.5c-1.2-0.3-1.9-0.5-3.4-0.9  C173.7,567.3,174.3,568.1,175,569.2z M232.2,275.8C232.4,275.4,232.4,275.2,232.2,275.8L232.2,275.8z M157.6,452.5  c-0.3,0-0.7,0.1-1.1,0.1c-0.1,0.9-0.2,1.7-0.3,2.8c1.1-0.1,1.8-0.2,2.8-0.3C158.4,454,158,453.2,157.6,452.5L157.6,452.5z   M165,576.5c-1.4,1.5-1.9,2.9-1.1,5c1.1,0.8,2.4,1.8,3.8,2.8c0.9-0.5,1.6-0.8,2.8-1.5l0,0c-0.7-1.9-1.3-3.5-1.8-4.8L165,576.5z   M180.3,601.8C179.7,601.5,179.9,601.6,180.3,601.8L180.3,601.8z M176,512.3l-0.9,2.3c0.7,0.8,1.4,1.4,2,2.1  c0.8-0.2,1.5-0.4,2.5-0.7l0,0C178.9,512.7,177.8,511.6,176,512.3z M176.4,532C176.1,531.9,175.9,531.9,176.4,532L176.4,532z   M176.4,532C175.9,532,176.1,532,176.4,532L176.4,532z M180.3,601.8C179.9,601.7,179.6,601.6,180.3,601.8L180.3,601.8z M227.3,439.5  c-0.3-0.4-0.6-0.8-0.8-1.2l0,0c-0.2,0.1-0.3,0.3-0.5,0.4c0.3,0.4,0.5,0.8,0.8,1.2C226.9,439.7,227.1,439.6,227.3,439.5z   M223.5,395.1c-1-0.4-1.7-0.7-2.4-0.9c-0.2-0.1-0.5,0.2-0.9,0.3c-0.1,2,0.9,2.7,2.8,2.5C223.1,396.5,223.3,396,223.5,395.1  L223.5,395.1z M226.2,510.3c-0.8,0.7-1.5,1.4-2.6,2.4c1.4,1.2,2.3,2,3.7,3.1l0,0C228.8,513.2,228.7,511.6,226.2,510.3z M220.1,462.6  c-1,2.7-1,2.7,2.7,3.9C223,464.2,222.1,462.9,220.1,462.6z M229.1,737.3c0.1,0,0.3-0.1,0.3-0.1c0-0.3,0-0.5,0-0.8l0,0h-0.2  L229.1,737.3z M235.7,237c-0.9-2-2.2-2.7-3.8-2.1c-0.8,0.3-1.3,1.4-2,2.2c0.9,0.8,1.4,1.3,2.3,2.1  C233.6,238.3,234.6,237.7,235.7,237z M232.2,275.8C232.4,275.5,232.5,275.2,232.2,275.8L232.2,275.8z M228,411  c-0.6,0.5-0.9,0.7-1.7,1.3l0,0c1.1,0.5,1.9,0.8,2.7,1.2c0.2-0.2,0.3-0.4,0.4-0.6C229,412.3,228.5,411.6,228,411z M202.8,706.3  c0.2-0.2,0.4-0.3,0.7-0.5c-0.5-0.9-1.1-1.8-1.6-2.7c-0.4,0.3-0.7,0.5-1.1,0.8C201.5,704.7,202.2,705.5,202.8,706.3z M220.4,519.5  c0.4,0.6,0.8,1.2,1.2,1.8c0.3-0.1,0.6-0.3,1-0.4c-0.3-0.7-0.5-1.4-0.8-2.1C221.2,519.2,220.9,519.3,220.4,519.5z M210.8,510.3  C210.8,510.3,210.9,510.3,210.8,510.3C210.9,510.3,210.9,510.3,210.8,510.3L210.8,510.3z M200.7,744.6l-1.5,3.7  c0.6,2.7,1.3,5.4,1.8,7.5c3.1,1.8,5.7,3.2,8.6,4.8l0,0c2.8-4.7,1.8-9.1-3.1-15.5C204.8,744.1,203,743.4,200.7,744.6z M213.2,509.6  c-0.7,0.2-1.4,0.4-2.4,0.6c0.3,2.9,1.6,4,3.9,4C216.3,511.9,214.7,510.8,213.2,509.6z M221,571.9c0,0,0.1,0.2,0.1,0.4l0,0  c0.1,0.2,0.2,0.4,0.2,0.4c0-0.1,0-0.3-0.1-0.5C221.2,572.1,221.1,572,221,571.9z M200.2,696.5c-1.6,1.4-1.1,2.5,0.4,4  C201.7,698.6,201.8,697.5,200.2,696.5z M220.2,549.1c-0.2,0.1-0.4,0.2-0.6,0.3c0.1,0.4,0.2,0.8,0.3,1.2c0.3-0.1,0.6-0.2,0.8-0.4  C220.5,549.9,220.3,549.5,220.2,549.1L220.2,549.1z M294.8,377.2l-1.8-0.7l-1.3,3.3c1,0.1,1.6,0.1,2.2,0.1  C294.2,379,294.5,378.2,294.8,377.2z M222,493c0.1-2.6-1.2-3.9-3.2-4.7c-1.5-0.6-3-1.3-4.7-2.1c0.1,2.5,2,3.8,3.3,5.2  C218.4,492.5,219.8,494,222,493z M222,493L222,493L222,493L222,493z M411.7,455.1c0.1,0,0.1,0.1,0.1,0.1c0-0.1,0-0.1,0-0.2  L411.7,455.1z M412.9,593c0.6,2.5,1.7,3.7,4.1,3.7C416.1,593.3,415.8,593.2,412.9,593z M420.4,486.6c-0.3,0.2-0.7,0.4-1,0.6  c0.3,0.3,0.6,0.6,0.8,0.9c0.2-0.1,0.4-0.2,0.6-0.4C420.7,487.3,420.5,487,420.4,486.6L420.4,486.6z M416.9,309.8  c0.2,0.4,0.4,0.8,0.6,1.2l0,0c0.2-0.1,0.5-0.3,0.7-0.4c-0.3-0.4-0.5-0.7-0.8-1.1C417.3,309.5,417.1,309.6,416.9,309.8z M411.9,455.2  c0,0.9,0,1.8,0,3.2C413.1,456.8,412.7,456,411.9,455.2z M409.5,315.6L409.5,315.6c1.1-0.1,2.3,0.6,3.3-1.2c-1.3-0.3-2.3-0.6-3.6-0.9  C409.4,314.5,409.4,314.9,409.5,315.6z M428.2,618L428.2,618c0.1,0.1,0.1,0.3,0.2,0.5c0.4-0.1,0.7-0.3,1.1-0.4  c-0.1-0.1-0.1-0.3-0.2-0.5C428.9,617.8,428.6,617.9,428.2,618z M437.4,554.6l1.8,0.7c0.1-0.2,0.2-0.4,0.3-0.6  c-0.5-0.3-1.1-0.7-1.7-1C437.7,553.9,437.5,554.3,437.4,554.6z M432.1,257.6c-2.9-2.2-5.2-3.2-7.9-2.7c-0.7,0.1-1.3,0.8-2.5,1.5  c2.2,1,3.9,1.8,5.5,2.5C428.6,258.5,429.8,258.2,432.1,257.6z M434.6,434.5c0.4-1.1,1-1.9,0.9-2.4c-0.8-2.6-2.6-4.5-4.7-6.1  c-3-2.3-5.7-1.9-8.9,1.3c-0.3,2.8,1.2,4.4,3.7,5.1C428.5,433.1,431.3,433.7,434.6,434.5L434.6,434.5z M383.7,761.8  C383.4,761.7,383.2,761.7,383.7,761.8L383.7,761.8z M158.1,428.5c-1-0.3-1.8-0.6-2.7-0.9c-0.1,1.5,0.7,2.5,2.3,3  C157.8,429.9,157.9,429.2,158.1,428.5z M385.8,595c0.2,0.4,0.4,0.8,0.6,1.2l0,0c0.2-0.1,0.5-0.3,0.7-0.4c-0.2-0.4-0.5-0.8-0.7-1.2  C386.2,594.8,386,594.9,385.8,595z M444.5,498.3c1.9,1,3,1.6,4.7,2.4C448.3,499,446.7,498.2,444.5,498.3z M383.7,761.8  C383.1,761.8,383.4,761.8,383.7,761.8L383.7,761.8z M384.7,580.3c0.4,0.6,0.6,1,1,1.2c0.3,0.2,0.8,0,2.3,0c-1.2-0.9-1.5-1.3-1.9-1.4  C385.7,580.1,385.3,580.3,384.7,580.3z M411.6,454.7c0,0,0.1,0.2,0.1,0.5l0.1-0.1C411.7,454.9,411.6,454.7,411.6,454.7z   M393.2,573.1c-1.4,0.3-2.7,0.5-3.9,0.8c0.8,5.4,3.8,7.9,9.6,8.2C399.9,577.2,395.7,575.7,393.2,573.1z M379.1,565.1l0.7,0.3  c0-0.1,0-0.1,0.1-0.2c-0.2-0.1-0.4-0.2-0.6-0.3C379.2,564.9,379.1,565.1,379.1,565.1z M399.2,718.5c-0.1,1.4-0.1,3,2.1,2.9  c-0.3-0.9-0.4-1.5-0.8-1.9C400.2,719.1,399.7,718.9,399.2,718.5z M406.7,457.3c-2.1-1-4.2-2.7-7.3-1.4c0,3.1,1.6,4.6,3.7,5.8  c1.8,1,3.8,1.5,5.6-0.1C409.1,459.6,408.3,458.1,406.7,457.3z M511.5,565L511.5,565L511.5,565L511.5,565z M493.3,497.4  c2,3.9,5.7,3.5,9.1,3.9C498.4,496.4,496.9,495.7,493.3,497.4z M511,564.5c0,0-0.2,0.1-0.3,0.1c0.2,0.1,0.4,0.2,0.8,0.4  C511.2,564.7,511.1,564.6,511,564.5z M500,508.7c0.3,1,0.7,2,1,3.1l1.3-0.6c-0.6-0.9-1.2-1.8-1.8-2.6  C500.3,508.6,500.2,508.7,500,508.7z M524.9,170.4c-0.3,0.1-0.6,0.6-1.1,1l3.7,1.5c1.4-0.7,2.6-1.3,4.4-2.1l0,0  C529.3,168,527.1,169.7,524.9,170.4z M536.6,439.3c0.6,1,1.5,1.3,2.6,1L536.6,439.3z M497.7,541.2L497.7,541.2L497.7,541.2  L497.7,541.2z M503.3,544L503.3,544c-0.6,3.2-0.6,3.2,1.1,4.7c2.4,2.1,5,2.5,8,1.5C510.9,545.8,507.7,544.3,503.3,544z M517.8,503  c-4-0.5-6.4,0.5-7.2,2.9c3.6,4.6,6.9,5.6,12.7,3.7C522.5,506.3,520,504.7,517.8,503z M475.2,570.9c-0.4,0.4-0.8,0.6-1,1  s-0.3,0.8-0.4,1.2c2.6,4.3,5.1,5.4,9.9,4.1C481.6,573.8,479.8,570.5,475.2,570.9z M464.7,474.4c1.1,0.6,2.2,1.1,3.8,1.9  C467.7,474,466.6,473.6,464.7,474.4z M497.6,541.4c0.3,0.2,0.6,0.3,0.9,0.4c0-0.1,0.1-0.1,0.1-0.2c-0.3-0.2-0.6-0.3-0.9-0.4  L497.6,541.4z M437.5,473.4c-4.2,3.2-4.5,5.2-1.1,9c0.4,0.5,0.8,0.9,1.2,1.4c4.5,4.7,11.3,5.4,16.8,1.6  C453.9,477.9,447.1,473.1,437.5,473.4z M455.3,361.5c1.7,1,2.9,1.5,4.3,0.4C458.6,360.5,457.5,359.8,455.3,361.5z M295.4,571.5  c-0.6-0.9-1.3-1.7-2.2-3.1C293.2,570.1,293.9,571.1,295.4,571.5z M497.9,616.6C498.6,617,498.3,616.8,497.9,616.6L497.9,616.6z   M488,623.9c-0.1,0.2-0.2,0.5-0.3,0.7c0.6,0.3,1.2,0.6,1.9,1c0.1-0.3,0.2-0.7,0.4-1C489.3,624.3,488.7,624.1,488,623.9z   M497.9,616.6C498.3,616.7,498.6,616.8,497.9,616.6L497.9,616.6z M496.3,417.1c-1.5-1.4-2.6-2.2-3.6-3.2l0,0c-1,0.5-1.9,0.9-3,1.4  C491.3,418.1,493.4,417.6,496.3,417.1z M489.6,625.5L489.6,625.5L489.6,625.5L489.6,625.5z M320.7,365.9c1.3,0.4,2.2,0.8,3.7,1.3  C323.3,365.2,322.5,364.7,320.7,365.9z M319.2,250.1c1.8,0.9,3.2,2.2,5.3,0.6C322.8,248.8,321,248.6,319.2,250.1z M314.6,280.3  c-0.6,0.2-1.1,0.9-1.7,1.4c0.5,1,0.9,1.8,1.3,2.5c2.7,0.2,4.4-0.7,5.1-2.7C318.2,279.6,316.4,279.6,314.6,280.3z M326.1,190.9  c0.2-0.4,0.2-0.8,0.5-2.1c-1.2,1.1-1.6,1.5-2,1.9l0,0c0.2,0.4,0.5,0.7,0.7,1.1C325.6,191.5,326,191.2,326.1,190.9z M319.6,337.1  c-0.2,0.1-0.3,0.1-0.5,0.2c0.2,0.4,0.3,0.8,0.4,1.2c0.1-0.1,0.3-0.1,0.5-0.2C319.9,337.9,319.8,337.5,319.6,337.1L319.6,337.1z   M335.1,734.8c-1.4-1.6-2.4-2.7-3.9-4.4C330.9,733.8,332.4,734.4,335.1,734.8z M330,545.9L330,545.9L330,545.9L330,545.9z   M329.4,543.9c-0.1,0.1-0.3,0.3-0.5,0.4c0.4,0.5,0.7,1,1.1,1.5c0.2-0.2,0.4-0.4,0.7-0.7C330.3,544.8,329.8,544.3,329.4,543.9z   M328.6,494.1L328.6,494.1c-0.4,0.2-0.9,0.4-1.3,0.6c0.3,0.4,0.5,0.7,0.8,1.1c0.3-0.2,0.7-0.3,1-0.5  C328.9,494.9,328.8,494.5,328.6,494.1z M327.7,298.1c-0.6-0.2-1.3-0.3-1.9-0.5l0,0c-0.1,0.4-0.2,0.7-0.3,1.1c0.7,0,1.4,0.1,2.1,0.1  C327.6,298.5,327.6,298.3,327.7,298.1z M305.2,184.4L305.2,184.4c0.3,0.6,0.5,1.1,0.9,1.9c1.1-0.3,2.1-0.5,3.5-0.9  C308.1,183.6,306.8,183.3,305.2,184.4z M297.7,526.2c-0.2,0.6-0.4,1.3-0.7,2.3c2.6,2,4.7,4.6,8.4,5  C305.1,527.2,303.1,525.3,297.7,526.2z M309.2,246.1C309.5,246.1,309.8,246.1,309.2,246.1L309.2,246.1z M294.8,534L294.8,534  c-1.2,4.4-0.5,5.4,7.1,10.8c1-0.5,2.1-1.2,3.1-1.7C303.5,535.4,301,533.2,294.8,534z M311.5,434.2L311.5,434.2L311.5,434.2  L311.5,434.2z M314.2,284.3L314.2,284.3L314.2,284.3L314.2,284.3z M310.1,617.3c0.1,3.7,3.1,5.2,5,7.5c0.7,0.9,1.9,1.4,3.4,0.8  c-0.6-2-1-3.9-1.6-6.1C314.7,618.1,313.3,615.1,310.1,617.3z M309.2,246.1C309.5,246.2,309.8,246.2,309.2,246.1L309.2,246.1z   M311.7,433.2c-0.7-0.2-1.5-0.3-2.2-0.4c-0.1,0.2-0.1,0.5-0.2,0.7l2,0.8C311.5,433.9,311.6,433.5,311.7,433.2z M392.3,545.1  c-1-2.6-1.7-4-2-5.5c-0.7-3.6-3.3-5.6-6.1-7c-1.8-0.9-4.2-0.8-6.3-0.9c-1.6-0.1-2.8,0.9-3.7,2.6c0.5,0.9,0.8,1.9,1.4,2.8  C379.3,543,385.6,543.2,392.3,545.1L392.3,545.1z M361.3,457c-0.1,0.2,0,0.5,0,0.8c0.4-0.1,0.7-0.1,1.1-0.2  c-0.1-0.2-0.2-0.5-0.3-0.7C361.8,456.9,361.4,456.9,361.3,457z M362.5,418.5c1,0.2,1.8,0.3,2.7,0.5l0.7-1c-0.9-0.6-1.7-1.1-2.9-1.9  C362.7,417.2,362.6,417.7,362.5,418.5z M366.1,649.1l1.5,0.7l0,0c0.1-0.1,0.1-0.3,0.2-0.4c-0.5-0.2-1-0.5-1.5-0.7  C366.2,648.8,366.1,648.9,366.1,649.1z M358.5,504c-0.1-0.6-1.4-1-1.6-1.1c-2.7,0.9-4.7,1.6-7,2.3c0.2,3,3.2,3.9,4.7,5.8  c1.2,1.5,3,2.1,5,2l0,0C361,509.7,359.1,506.9,358.5,504z M363.8,284.1c-1.4-0.2-2.4-0.3-3.4-0.5C361.3,286.2,362.3,286,363.8,284.1  z M371.4,390.6c0.1-0.2,0.2-0.4,0.3-0.6c-0.5-0.3-1-0.7-1.5-1c-0.2,0.3-0.4,0.7-0.5,1C370.2,390.2,370.8,390.4,371.4,390.6z   M372.7,222.7c-0.8-0.2-1.8-0.7-2.7-0.6c-1.5,0.2-3.1,0.5-3.7,2.7l0,0c1.1,1.9,2.5,2.2,4.3,1.6C372.3,226,373.4,225.1,372.7,222.7z   M376.1,440.5c-0.8-2.3-2.6-2.6-4.8-2.7C372.3,439.9,373.8,440.8,376.1,440.5z M370.1,389L370.1,389L370.1,389L370.1,389z   M348.4,657.9c0.1,0,0.1,0,0.1,0.1c0.1-0.2,0.2-0.5,0.2-0.7c-0.1,0-0.1-0.1-0.2-0.1C348.6,657.4,348.5,657.7,348.4,657.9z   M338.7,438.3L338.7,438.3L338.7,438.3L338.7,438.3z M340.4,449.7l1.6,0.6c0.1-0.1,0.1-0.4,0.1-0.4l-1.6-0.6L340.4,449.7z   M337.2,436.9c-0.1,0.2-0.2,0.4-0.2,0.5c0.6,0.3,1.1,0.5,1.7,0.8c0.1-0.2,0.2-0.4,0.3-0.6C338.4,437.5,337.8,437.2,337.2,436.9z   M338.6,349.6c-0.7,0.1-0.8-1.6-2.4,0.4c0.8,0.2,1.4,0.5,2,0.6C338.4,350.3,338.5,349.9,338.6,349.6z M337.7,314.8  c0.6,3,3,2.7,5.2,3.9l0,0c0.8-1.2,1.4-2.1,2.3-3.4c-1.7-0.9-3-1.5-4.5-2.3C339.6,313.7,338.6,314.3,337.7,314.8z M345.5,173.2  c1.8,0.6,3.1,0,4.2-1.7C348,171.9,346.2,170.9,345.5,173.2z M349.6,276.5C349.4,276.6,349.5,276.6,349.6,276.5  C349.5,276.5,349.4,276.5,349.6,276.5z M335.3,543.5C335.8,544,335.6,543.8,335.3,543.5L335.3,543.5z M349.7,276.4  c-0.1,0-0.1,0.1-0.2,0.1c0.1,0,0.1,0,0.2,0c0.2-0.1,0.4-0.2,0.4-0.2S349.9,276.4,349.7,276.4z M48.9,285.3c-0.7,0.5-1.2,0.9-2.2,1.7  c1.2,0.4,1.9,0.6,3.6,1.2C49.5,286.6,49.3,286.1,48.9,285.3z M3.4,153.9c-0.9-1.1-1.7-1.3-2.4-0.6c-0.1,0.2-0.3,0.3-0.4,0.6  c0.1,0,0.3,0,0.4,0C1.7,153.9,2.3,153.9,3.4,153.9z M6.3,159.1c0.1-0.2,0.2-0.3,0.3-0.5c-0.3,0-0.5,0-0.7-0.1l0,0  C6,158.7,6.2,158.9,6.3,159.1z M7.6,138c1.7-1.1,2-2.7,1.3-4.2c-1-2.2-1.8-4.6-3.7-6.3c-1.4-1.3-2.7-2.8-4.1-4.4v12.4  C2.9,136.9,4.9,138.3,7.6,138z M22.6,330.9l-0.1-0.1c0,0.1,0,0.1,0,0.2L22.6,330.9z M9.4,81.9c0-1.3,0.1-2.3,0.1-3.9  c-1.6,0.5-2.7,0.9-3.7,1.2C5.8,81.3,7.1,81.7,9.4,81.9z M22.7,330.9L22.7,330.9C22.6,330.9,22.7,330.9,22.7,330.9L22.7,330.9z   M2,168L2,168c1.4-0.6,2.2-0.9,3.3-1.3c-0.8-0.9-1.3-1.5-2.2-2.7C2.7,165.5,2.5,166.4,2,168z M22.8,331.4c0,0-0.1-0.2-0.2-0.5  l-0.1,0.1C22.7,331.2,22.8,331.3,22.8,331.4z M22.8,159.8L22.8,159.8L22.8,159.8l-0.5-1.3c-0.1-0.2-0.3-0.4-0.3-0.4s0.1,0.2,0.2,0.4  c0.2,0.4,0.4,0.8,0.5,1.2L22.8,159.8c0,0.1,0,0.1,0.1,0.1C22.9,159.9,22.9,159.8,22.8,159.8L22.8,159.8z M2.5,105.2  c-0.5-0.3-1-0.5-1.5-0.8v4.1c0.2,0,0.4,0.1,0.6,0.1C2,107.2,2.3,106.3,2.5,105.2z M14.1,154.8c-2.2,0.3-3.5,1.4-3.8,3.1  c1,1.2,2.1,2.5,3.4,4C13.6,159.6,16.2,157.7,14.1,154.8z M19.3,153.3C19.4,153.3,19.4,153.3,19.3,153.3L19.3,153.3L19.3,153.3z   M19.2,153.4l0.1-0.1c-0.1,0-0.1-0.1-0.2-0.1C19.2,153.3,19.2,153.4,19.2,153.4z M17.9,116c-0.5,0.2-1.1,0.4-1.6,0.7  c0.2,0.3,0.3,0.5,0.5,0.7C17.1,116.9,17.5,116.5,17.9,116z M17,149.5c0.2,1.9,1,3,2.2,3.7C19,151.8,18.5,150.6,17,149.5z   M16.4,147.9c-1-1.2-2-2.4-3-3.5C13,146.6,13.3,148.3,16.4,147.9z M18,145.2C17.8,145.7,17.8,145.9,18,145.2L18,145.2z M19.5,153.9  c0-0.1-0.1-0.3-0.2-0.5l-0.2,0.1C19.4,153.6,19.5,153.8,19.5,153.9z M18,145.2C17.6,145.9,17.8,145.6,18,145.2L18,145.2z M60,284.4  L60,284.4c0.3,0.8,0.5,1.6,0.9,2.7c1-0.6,1.7-1,2.4-1.4C62.9,284,62.2,283.3,60,284.4z M54.7,300.4  C54.6,300.4,54.6,300.4,54.7,300.4C54.6,300.4,54.6,300.4,54.7,300.4L54.7,300.4z M55.6,296c-2.1,1.3-2.6,2.5-1,4.4  c0.8-0.3,1.6-0.6,2.7-1.1C56.7,298.1,56.2,297.1,55.6,296z M1,281.1v4.3V296v16.1c0.9-0.6,2-1,3.2-1.4c0.2,1.2,0.3,1.9,0.3,2.6  c0,3.4,0.1,6.7,1.5,10c1.6,3.9,6.3,6.4,10.5,5.5c1.3-0.3,2.7-0.5,3.9-0.7c0.8,1,1.4,1.8,2.1,2.6c0.2-1.3,0.4-2.6,0.7-3.9  c1.8-4.6,6.8-2.8,9.6-5c1.6,1,2.9,1.7,4.4,2.7c3.5-0.9,7.1-1.1,10.8-0.6c1.5,0.2,3-0.4,4.4-0.7l2.4-6.1c-1.2-4.6-4.6-5.8-8.5-6.6  c-3.3,2.7-6.8,2.3-10,0.6c-1.9-3.1-3.6-6-5.3-8.9c1-3.1,2.8-5.5,5.8-7.3c-1.5-5.9,0.2-10.7,5.4-14c-1.6-5.2-6.8-5.9-10.1-9  c0.1-0.6,0.2-1.1,0.3-1.8c1.2-0.1,2.2-0.1,3.2-0.2c0.5,0.9,0.9,1.7,1.4,2.6c3.2,0.8,6.3,1.5,8.6,2.1c4-2.3,7.3-4.1,11.1-6.2  c2.3,0.6,5.1,1.4,8.1,2.1c-0.1,3.7-2.2,7.1-0.3,11.1c0.6,0.5,1.6,1.4,2.7,2.3c1.9-0.5,3.7-0.9,5.7-1.4c0.9,0.4,2,0.9,3.2,1.5  c0.6-3.1-1-6.3,0.6-9.2c2-1.6,4.3-2.2,6.5-1c2.9-1,4.4-3,5.3-5.7c1.3-3.8,4.4-5.7,8.3-6.6c2.2-0.5,4.4-1.2,6.1-1.6  c2.7-3.2,5.1-5.8,8.6-6.8c1.2-0.4,1.6-1.3,1.2-2.4c-1.4-2-3.3-0.2-4.7-0.7c-3.2-6.1-5.1-7.3-11.9-8.2c-2.3-0.3-4.5-0.9-6.6-1.4  c-1.5-3.2-2.3-6.3-4.1-8.6c-1.8-2.3-2.5-4.5-2.8-6.9c0.8-1.4,1.4-2.5,2-3.5c-1.2-1.8-2.5-2.4-4.6-1.9c-1.1,2.1-2.6,4-5.6,3.4  c-1.6-0.9-3.1-1.8-4.6-2.7c-0.9-2.3-1.6-4.5-2.3-6.3c-7.1-3.9-8.9-3.9-14.7-0.3c-1.3,2.7-1.9,5.7-1.4,8.9c0.3,1.9,0,3.6-1.5,5  c-1.6-2.5-2.2-4.1-1.9-6.5c0.3-2.2,0-4.3-0.9-6.3c-0.5-1.3-0.7-2.7-1.1-4.1c-1.5-1.6-3-3.4-2.7-5.9c1.6-3.8,4.4-5.1,7.5-4.2  c2.9-1.1,5.1-2,8.2-3.2c-3.8-1.6-6.8-2.8-9.7-4.2c-2.9-1.3-6.5-0.5-9-2.8c0.1-2.1,0.2-3.9,0.3-5.6c-2-2.5-4.2-4.6-4.6-7.7  c0.5-0.8,1-1.6,1.6-2.7c-4.7,0.4-7.6-1.8-9.6-5.4c0-2.6,0-5.1,0-7.8c-1.1,0.3-1.8,0.5-2.6,0.6c-0.8-0.6-1.6-1.3-2.4-1.9  c0.2,1.3,0.4,2.6,0.6,4.2c-1.6,0.8-3.1,1.5-4.4,2.2c-1.4-0.5-2.6-0.9-3.2-1.1c-2.7,2.8-5,5.2-7.3,7.6c-1.5-0.2-2.7-0.4-4.1-0.6  c-1,1.4-2.1,2.2-3.4,2.7v21.6v28.1v36.9v4.2c-0.2,0.9-0.4,1.9-0.6,2.9c0.2,0.2,0.4,0.4,0.6,0.5v12.1H1z M18.1,115.9L18.1,115.9  c0.5-0.5,1-0.9,1.6-1.4c0.2-0.1,0.4-0.3,0.5-0.3c-0.1,0-0.3,0.1-0.6,0.2c-0.5,0.5-1,0.9-1.5,1.4l0,0c-0.1,0.1-0.1,0.1-0.2,0.2  C17.9,116,18,116,18.1,115.9L18.1,115.9z M61,377.7l1.2-0.5c-0.1-0.2-0.2-0.4-0.3-0.6c-0.4,0.2-0.8,0.4-1.2,0.6  C60.8,377.4,61,377.5,61,377.7z M57.8,288.1L57.8,288.1L57.8,288.1L57.8,288.1z M57.9,320.9c-0.3,0-0.6,0-0.9,0  c0.2,0.2,0.4,0.4,0.6,0.6C57.7,321.4,57.8,321.2,57.9,320.9z M91.6,187.2c0,0.1-0.1,0.2-0.1,0.2l1,0.4c0-0.1,0.1-0.2,0.1-0.2  L91.6,187.2z M57,288.1c-0.2,0.1-0.1,0.5-0.1,0.8c0.3,0,0.7,0,1-0.1c0-0.3-0.1-0.5-0.1-0.8C57.5,288.1,57.1,288,57,288.1z   M56.3,355.2c-0.1-0.2-0.2-0.4-0.3-0.5c0,0.1,0.1,0.3,0.1,0.5H56.3z M68.5,286.5l-0.3,0.6l0.2,0.1l0.3-0.6  C68.6,286.6,68.5,286.5,68.5,286.5z M69.7,387.7c-0.1,0.1,0.1,0.7,0.2,0.7c0.4,0,0.9,0,1-0.2c0.1-0.3-0.1-0.7-0.2-1.4  C70.2,387.2,69.9,387.4,69.7,387.7z M73.2,334.3l-4.7-1.8c-0.9,1.8-0.6,3.4,0.7,4.7C70.9,336.8,72.2,336,73.2,334.3z M70.8,386.7  L70.8,386.7L70.8,386.7L70.8,386.7z M63.9,342.4c0.1-0.1,0.1-0.3,0.1-0.6c-0.2,0.3-0.3,0.4-0.4,0.6  C63.7,342.4,63.9,342.4,63.9,342.4z M65.7,297c-0.7,0-1.1,0-1.9,0c0.3,0.8,0.5,1.4,1,2.6C65.3,298.4,65.5,297.8,65.7,297z   M69.6,293.9c0.2-0.2,0.3-0.3,0.5-0.5c-0.2-0.1-0.3-0.2-0.5-0.3C69.7,293.4,69.7,293.7,69.6,293.9z M67,348.5L67,348.5  c-0.6-2-1.1-3-3-2.5c-0.1,0.6-0.2,1.2-0.4,2.2C64.7,348.3,65.5,348.4,67,348.5z M73.5,338.3l-0.9-0.4c0,0.1-0.1,0.2-0.1,0.2l0.9,0.4  L73.5,338.3z M77,5.5C77.4,4.9,77.2,5.1,77,5.5L77,5.5z M89.5,213.6C89.1,213.4,88.8,213.4,89.5,213.6L89.5,213.6z M71.5,109.3  C71.1,109.1,70.8,109,71.5,109.3L71.5,109.3z M90.5,209.3c-0.9-0.5-1.4-0.8-2.5-1.4c0.1,1.5,0.2,2.3,0.3,3.4  C89.2,210.6,89.7,210.1,90.5,209.3z M87.6,230.3c0.4,0.2,1,0.1,2.5,0.1l0,0c-1.1-1.1-1.3-1.6-1.7-1.7c-0.5-0.1-1,0.1-1.8,0.2  C87.2,229.7,87.3,230.2,87.6,230.3z M89.5,213.6C88.9,213.2,89.1,213.4,89.5,213.6L89.5,213.6z M71.7,70.5  C71.9,70.6,72.1,70.7,71.7,70.5L71.7,70.5z M45.2,291.1c-2.5-1.6-4.5-1.5-5.8,0.4c-0.7,1.1-0.6,2.8-0.8,4c1.3,0.9,2.2,1.5,3,2  c0.9,1.5,0.2,3.6,3,4.9l0,0c1-0.8,2.2-1.6,3.5-2.6c-0.9-1.5-1.6-2.7-1.9-3.1C45.7,294.2,45.4,292.4,45.2,291.1z M17.4,7.1  c-0.1,0-0.2-0.1-0.2-0.1L17,7.7c0.1,0,0.2,0.1,0.2,0.1L17.4,7.1z M77,5.5C77.2,4.8,77.1,5,77,5.5L77,5.5z M87.4,65.4v0.2l0.2-0.1  L87.4,65.4z M93.2,60.9c-0.2-0.2-0.3-0.4-0.4-0.5c0,0-0.2,0.1-0.3,0.2C92.7,60.6,92.9,60.8,93.2,60.9L93.2,60.9z M94.4,111.5  c0.5-0.4,1.2-1,2-1.6c-0.3-1.3-0.6-2.4-0.8-3.3c-2.3-1.3-3.5-0.1-4.7,1.4C91,110.3,92,111.4,94.4,111.5z M92.3,114.5  C92.1,114.8,92,115,92.3,114.5L92.3,114.5z M89.7,57.3c-0.1,0-0.2-0.1-0.2-0.1l-0.4,0.9l0.2,0.1L89.7,57.3z M93.4,162.6  c1.5,0.4,2.8,0.8,4.3,1.2c0.7-1.2,1.3-2.2,1.9-3.2c-0.7-0.8-1.2-1.3-1.7-1.9C95.5,158.6,93.6,159.1,93.4,162.6z M92.3,114.5  C92.2,114.8,92.1,115.1,92.3,114.5L92.3,114.5z M96,123.1c0.3-1,0.7-2.1,1.3-3.7l-5.2-2c-2,1.1-2.5,2.3-2.1,4.2  C91.6,123.1,93.4,124,96,123.1z M90.6,103L90.6,103L90.6,103L90.6,103z M91.1,102.8c-0.2-0.4-0.3-0.8-0.5-1.2  c-0.1,0-0.3,0.1-0.4,0.2c0.1,0.4,0.3,0.8,0.4,1.2C90.8,102.9,90.9,102.9,91.1,102.8z M78.4,53c-0.2,0.2-0.4,0.3-0.5,0.5  c0,0,0.1,0.2,0.2,0.3C78.1,53.5,78.3,53.3,78.4,53z M28.5,67.5c0-0.1,0.1-0.1,0.1-0.2c-0.3-0.2-0.6-0.3-0.9-0.4  c0,0.1-0.1,0.2-0.1,0.3C27.9,67.3,28.2,67.4,28.5,67.5z M34.2,117.8c0.1-0.8,0.3-1.7,0.3-2.7c0-0.3-0.6-0.6-1.4-1.6  c-0.8,0.4-1.8,0.9-3.1,1.4C30.7,118,31.7,118.8,34.2,117.8z M31.9,85.5c-0.7-0.1-1.1-0.2-1.8-0.3c0.2,0.8,0.3,1.5,0.6,2.9l0,0  C31.2,86.8,31.5,86.3,31.9,85.5z M71.5,109.3C71,109.2,70.8,109.1,71.5,109.3L71.5,109.3z M40.2,165.4c2-2.9,1-5.2-1.6-7.2  c-1.1,0-2.4,0-3.7,0c-1.7,2.2-2,4.3-0.5,6.3C35.9,166.4,37.9,166.8,40.2,165.4z M20.9,145.2c0.5,0.4,1,0.7,2.1,1.4  c-0.4-1.1-0.4-1.5-0.6-1.6c-0.3-0.2-0.8-0.3-1.2-0.4C21.1,144.8,21,145,20.9,145.2z M20.6,56.3c0.1,1,0.2,1.8,0.2,2.7  C22.9,57.7,22.9,57.7,20.6,56.3z M26.8,52.9c-0.4-0.9-0.7-1.4-1.2-2.3c-1,0.6-1.9,1.1-2.8,1.7c0.1,0.3,0.1,0.6,0.2,0.9  C24.2,53.1,25.3,53,26.8,52.9z M29.7,0.3c-1.7,0.1-3.2,0.3-5.4,0.5C26.5,1.6,28.3,1.5,29.7,0.3z M26.2,109.5c0.1,0,0.3-0.1,0.5-0.2  s0.4-0.2,0.5-0.3c-0.1,0-0.3,0.1-0.5,0.2C26.4,109.3,26.3,109.4,26.2,109.5z M58.1,181.6c0.4,0,0.8-0.3,1.5-0.5  c-0.6-1-1.1-1.8-1.7-2.7c-0.9,0.3-1.6,0.6-2.3,0.9l0,0C55.9,180.7,56.7,181.5,58.1,181.6z M65.8,162c0,1.1-0.1,1.7-0.1,3.4  c1.5-1,2.1-1.5,3.2-2.2L65.8,162z M70.7,195.5c0.4-0.2,0.8-0.3,1.1-0.5c-0.1-0.2-0.1-0.3-0.2-0.5c-0.4,0.2-0.8,0.3-1.1,0.5  C70.6,195.2,70.7,195.4,70.7,195.5z M74.8,159.2c-0.9-1.4-2-2.1-3.3-1.4c-0.6,0.4-1,1.3-1.6,2.2l4.3,1.7  C74.4,160.6,74.6,159.8,74.8,159.2z M54.9,74.6c-1.5-1.3-2.6-1.4-3.7,0.4c0.6,0.7,1.1,1.4,2.2,2.8C54.1,76.2,54.5,75.4,54.9,74.6z   M46.3,137.2c-0.6-1.2-0.9-1.8-1.3-2.3l0,0c-0.3,0-0.7,0-1,0c-0.2,0.6-0.4,1.2-0.7,2.1C44.4,137,45.1,137.1,46.3,137.2z M46.2,68.2  l-0.1,0.2h0.3L46.2,68.2z M27.8,32.7c-1,1.2-1.8,2.5-2.4,3.2c-1,5.1-1.3,9.5,3.5,11.9c4.4,2.2,8.7,1.7,12.1-1.5  c3-4.9,4-9.5,0.4-13.8l0,0c-3.5-2.9-7.2-3.1-11.5-1.8C29.4,31.2,28.5,31.9,27.8,32.7z M51.9,123.5c0.1-0.7,0.2-1.3,0.4-2  c-0.3-0.1-0.6-0.1-0.8-0.1c-0.1,0.7-0.2,1.3-0.2,2C51.5,123.5,51.7,123.5,51.9,123.5z M47.6,350.8c-0.1-0.3-0.4-0.6-0.6-0.9  c-0.2,0.1-0.4,0.3-0.8,0.6c0.3,0.3,0.5,0.6,0.8,0.8C47.1,351.3,47.7,350.9,47.6,350.8z M108.5,525.7c-0.5,1.7-0.9,2.9-1.3,4.3  c1.1,1.3,2.1,2.5,3.2,3.8c3.1-1.8,3.7-4,2.5-7.1C111.7,526.4,110.2,526.1,108.5,525.7z M115,519.4c-0.6-0.9-1-1.6-1.4-2.3  C113.3,518.5,113.8,519.3,115,519.4z M118,580.6c-1.5,4-0.3,5.9,4.5,7c1.9-2.3,1.4-4.2-0.2-6C121,580.9,119.7,579.9,118,580.6z   M114.6,717.3C114.8,716.9,114.9,716.7,114.6,717.3L114.6,717.3z M114.6,717.3C114.8,716.6,114.7,716.9,114.6,717.3L114.6,717.3z   M125.7,478.7c-0.3-0.4-0.6-0.7-1-1.1c-0.3,0.2-0.7,0.4-1,0.6c0.2,0.4,0.3,0.8,0.5,1.3C124.7,479.2,125.2,478.9,125.7,478.7z   M132.3,610.9c0.1,0.4,0.2,0.9,0.3,1.3c0.2,0,0.4,0,0.5-0.1c0-0.5-0.1-0.9-0.1-1.4C132.8,610.9,132.6,610.9,132.3,610.9z M119,511.1  c-0.2-0.4-0.4-0.9-0.6-1.3c-0.2,0.1-0.4,0.2-0.6,0.3c0.2,0.4,0.4,0.9,0.6,1.3C118.6,511.3,118.8,511.3,119,511.1z M128.6,503.8  c-1.4-0.4-2.9-0.9-4.8-1.4l0,0l-3.2,8.1c1.9,1.5,3.7,2.9,5.6,4.3c1.7-0.5,3.3-1,4.7-1.4C132.9,509.3,130.8,506.6,128.6,503.8z   M123.7,473.6c-0.5-0.7-1-1.5-1.7-2.2c-0.2-0.2-0.9,0.3-2,0.6c1.2,1.1,2,1.8,2.7,2.5C123,474.2,123.4,473.9,123.7,473.6z   M85.2,467.9c0,0.1,0.1,0.2,0.2,0.3c0.1-0.2,0.3-0.5,0.4-0.8C85.5,467.6,85.3,467.8,85.2,467.9z M91.7,486.7L91.7,486.7  c-0.3,0.1-0.7,0-0.7,0.2c-0.1,0.2,0,0.5,0,0.8c0.3-0.1,0.7-0.2,1-0.3C91.8,487.1,91.8,486.9,91.7,486.7z M79.5,434.4  C79.5,434.4,79.6,434.4,79.5,434.4C79.6,434.4,79.6,434.4,79.5,434.4L79.5,434.4z M79.6,434.4c0,0.3,0,0.6,0.2,0.7s0.5,0.1,0.8,0.1  c-0.1-0.4-0.2-0.7-0.3-1.1C80,434.2,79.8,434.3,79.6,434.4z M103.6,399.8c-0.5-0.5-1-0.9-1.6-1.4c-0.1,0.1-0.3,0.3-0.4,0.4  c0.4,0.5,0.7,1.1,1.1,1.6C103,400.3,103.3,400,103.6,399.8z M102.6,709.6c0.3,0.6,0.7,1.2,1,1.7l0,0c0.3-0.2,0.6-0.5,1-0.7l-1.5-1.4  C102.9,709.3,102.7,709.5,102.6,709.6z M104.6,482c0,0.8-0.1,1.5-0.1,2.3l0.9,0.1l0.4-2.3l0,0C105.4,482.1,105,482,104.6,482z   M100.1,504.9c0-0.2,0.1-0.4,0.2-0.7c-0.1,0.2-0.3,0.3-0.3,0.5C99.9,504.8,100,504.9,100.1,504.9z M90.9,446.9  c-0.6,0.3-1.9,0.9-3.4,1.6c-0.1,1.6-0.3,3.2-0.4,4.9c-1.3,0.7-2.8,1.5-2.3,3.8c0.6,0.5,1.3,1.2,2.2,2c1.2-0.6,2.3-1.2,3.2-1.7  c1.9,0.1,3.6,0.3,4.9,0.4c2.1-2,3.9-3.6,6.2-5.8l0,0c-0.4-1.5-0.8-3.1-1.3-4.8C97,447.2,94.3,447,90.9,446.9z M91.7,588.6  c-2-0.3-3.7-0.5-4.5-0.6c-3.8,0.1-4.3,2.9-5.8,4.3c-0.2,1.5-0.4,2.9-0.6,4.5l0,0c0.6,1.7,1.2,3.1,1.7,4.4c-0.7,4.1-0.3,6.8,1.2,9  c2.5-2.3,5.6-3.2,8.9-2.5c4.5-3.7,4-8.5,3.1-13.7C94.5,592.3,93,590.3,91.7,588.6z M152.7,736.6L152.7,736.6  c-0.1-0.2-0.2-0.4-0.3-0.5c0,0.1,0.1,0.3,0.1,0.6c0.1,0.2,0.2,0.4,0.2,0.5C152.8,737,152.8,736.8,152.7,736.6z M152.7,740.5  C153,739.7,152.9,739.9,152.7,740.5L152.7,740.5z M145.3,406.5l-1.2,3.1c1.8,2.7,3.7,4.6,7.3,4.3c0.2-1.7,0.4-3.3,0.5-4.6  C149.2,405.6,147.3,404.9,145.3,406.5z M149.5,452.6c0.6,0.3,1.2,0.6,1.9,0.9l0,0c0.2-0.4,0.4-0.7,0.5-1c-0.7-0.2-1.4-0.4-2.1-0.6  C149.7,452.1,149.6,452.4,149.5,452.6z M152.7,740.5C152.8,739.9,152.9,739.7,152.7,740.5L152.7,740.5z M148.9,387.8  c-0.5,3.6,2,5.4,4.8,7.9l0,0c0.7-1,1.2-1.6,1.5-2.2c0.5-1.1,0.9-2.3,1.3-3.3C154,385.6,152.6,385.2,148.9,387.8z M153.5,744.9  L153.5,744.9c-0.1-0.2-0.2-0.4-0.3-0.4c0,0.1,0.1,0.3,0.1,0.5v0.1C153.4,745,153.4,745,153.5,744.9L153.5,744.9z M134,599.4  c-0.9,0.2-1.8,0.5-2.4,0.7c-0.5,6.5,1.1,8.9,6.6,9.9c3.4-3.3,3-6-2-10.8C135.5,599.3,134.7,599.3,134,599.4z M154.1,748.3  c-0.3-1.1-0.5-2.1-0.7-3.2C152.7,746.3,152.7,747.3,154.1,748.3z M146,625.1c-0.1,0.1-0.3,0.2-0.4,0.3c0.2,0.4,0.5,0.7,0.7,1.1  c0.2-0.1,0.4-0.3,0.6-0.4C146.6,625.8,146.3,625.5,146,625.1L146,625.1z M135.9,490.8c-0.2,0.1-0.4,0.2-0.6,0.3l0.7,1.3  c0.2-0.1,0.4-0.2,0.6-0.3C136.4,491.6,136.1,491.2,135.9,490.8z M137.7,430.1c0.6,1.2,1,1.9,1.8,3.5  C140.9,430.6,140,430,137.7,430.1z M144.8,467.7c0.2,0.1,0.4,0.2,0.7,0.4c-0.2-0.2-0.3-0.4-0.4-0.5  C145.1,467.5,144.9,467.6,144.8,467.7z M132.7,499.5c0.1,1.6,0.4,2.9,2.2,3.4C135.4,500.9,134.7,499.8,132.7,499.5z M139.9,515.2  c-0.1,0.2,0,0.5,0,0.8c0.4-0.1,0.7-0.2,1-0.3c-0.1-0.2-0.2-0.4-0.3-0.7C140.4,515.1,140,515.1,139.9,515.2z M143.7,473.3v-0.2  l-0.2,0.1L143.7,473.3z M136.7,388.9c0.1-4.2-0.8-8-3.8-10.9c-1.2-0.3-2.4-0.6-3.6-0.8c-1.2-0.1-2.4,0-3.2,0c-1.7,1.1-3,2-4.2,2.8  l-1.6,4c0.6,1.6,1.1,3.2,1.5,4.2v0.1c4.1,4.4,8.5,4.7,12.1,4.2c2.1,1.9,3.7,3.2,5.3,4.7c1.7-0.8,3.1-1.5,4.7-2.3  c-0.7-1.8-1.3-3.3-1.9-5C140.2,389.5,138.6,389.2,136.7,388.9z M140.7,515L140.7,515L140.7,515L140.7,515z M137.3,412  c-2.4-3.9-6-6.2-10-7.8c-4.5-1.8-9.1-2-13.2,2.6l-4,10c-5.1,0.3-6.2,1-7.6,5.2c1,2.4,3.2,4.5,6.6,6.2c0.6,1.8,1.1,4,2.1,5.8  c1.1,2,2.8,3.6,4.2,5.3c3.2,0.5,6.2,1,9.3,1.4v-0.6c2.2-0.6,4.4-1.1,6.5-1.6l3-7.5c5.2-2.5,6.5-7.1,7.9-12.5  c-0.4-0.7-0.8-1.6-1.4-2.3C139.6,414.9,138.3,413.5,137.3,412z M69.7,457.2c1.6-0.1,2.8-0.8,2.9-3.2c-1-0.5-2.1-1-3.3-1.5  C68.5,454.3,68.7,455.9,69.7,457.2z M20.9,444.2c0.3,0,0.6,0,0.9,0c0-0.7,0-1.4,0-2c-0.3,0-0.5,0-0.8,0  C21,442.9,21,443.5,20.9,444.2z M36.2,688.8L36.2,688.8L36.2,688.8C36.1,688.7,36.1,688.7,36.2,688.8L36.2,688.8  c0.4,0.5,0.8,1,1.3,1.6l0,0c0.1,0.2,0.3,0.4,0.3,0.4c0-0.1-0.1-0.3-0.2-0.5C37.1,689.8,36.7,689.3,36.2,688.8z M38.9,425.9  c0-2.1,0.1-3.2,0.1-5.3c-1.7,1-2.4,1.4-3.6,2.1C36.5,423.7,37.3,424.4,38.9,425.9z M15.6,361.5c-1,0.2-2,0.5-3.1,0.5  c-3.4,0-6.3,1.2-7.6,4.3c-1.5,3.5-1.7,7.5,1,10.6c2.2,2.5,5,4.6,7.6,6.7c1.5,1.2,3.3,2,5.2,3.1c3.6-4.1,3.5-9.7,6.9-13.3l0,0  C26.2,366,24.5,363.9,15.6,361.5z M34.9,688c0.4,0.2,0.8,0.4,1.1,0.7c-0.2-0.4-0.4-0.7-0.7-1.1C35.2,687.7,35.1,687.9,34.9,688z   M24.9,335.5c-0.2,0.6-0.3,1.3-0.5,1.9c0.5,0.3,0.9,0.5,1.3,0.7c-0.1-0.9-0.2-1.7-0.3-2.6C25.3,335.5,25.1,335.5,24.9,335.5z   M39.8,359.1c-0.1,0.4-0.3,0.8-0.5,1.2c0.7,0.7,1.5,1.3,2.5,2.2l1.5-3.9C41.7,358.9,40.7,359,39.8,359.1L39.8,359.1z M40.3,482.4  c-1.1,2.1-0.3,3.4,0.9,4.7C43.5,484.3,43.5,484,40.3,482.4z M39,420.6L39,420.6L39,420.6C39,420.5,39,420.6,39,420.6z M77.5,591.7  c0.1,0.6,0.2,1.2,0.3,1.9c0.3-0.1,0.6-0.2,0.9-0.3c-0.2-0.6-0.4-1.1-0.6-1.7C77.9,591.7,77.7,591.7,77.5,591.7z M3.4,344.8  c0.4,3.2,2.5,4.9,5.1,6.6c5-2.1,5.8-4.8,2.9-9.6l-3.9-1.5C4.5,340.7,3.8,342.7,3.4,344.8z M19.2,340.7c-0.9,0.5-2,1-3.3,1.7  c0.6,1.4,1.1,2.6,1.8,4.1c1.6-0.4,2.8-0.7,4.3-1.1l0,0C22.1,342.8,21.3,341.5,19.2,340.7z M38.4,333.8  C38.5,333.8,38.5,333.8,38.4,333.8C38.5,333.8,38.5,333.8,38.4,333.8z M5.5,410.7c-2.1,2.8-0.8,5.3,1.3,7.9c1.4-0.9,2.9-1.7,4.4-2.6  c-0.4-1.7-0.7-3.2-1-4.4C8.7,410.4,7.4,409.8,5.5,410.7z M52.8,395.7c0.7-0.4,1-0.6,1.6-1c-0.5-0.6-0.8-1.2-1.2-1.7  c-0.3,0.1-0.6,0.3-0.9,0.4C52.5,394.1,52.6,394.8,52.8,395.7z M2.8,388.5c-0.5-0.3-1.1-0.4-1.7-0.6v5.1c1.9-0.4,2.9-1.3,2.8-3.3  C3.6,389.4,3.2,388.8,2.8,388.5z M2.7,319.4c-0.6-0.3-1.1-0.6-1.7-0.9v12c0.7-2.4,1.4-4.8,2.1-7.3C3,322.1,2.8,320.7,2.7,319.4z   M1.5,335.5c-0.1,0-0.3,0-0.4-0.1c0,0.1,0,0.3,0,0.4l0.3,0.1L1.5,335.5z M1,356.1l0.8-2c0-2.2,0.1-4.9,0-7.7  c-0.1-1.4-0.4-2.9-0.7-4.3L1,356.1L1,356.1z M28.3,327.9L28.3,327.9c0.1-0.1,0.1-0.1,0.1-0.2c-0.3-0.2-0.6-0.3-0.8-0.5  c-0.1,0.1-0.1,0.2-0.1,0.3C27.7,327.6,28,327.7,28.3,327.9z M53.2,393L53.2,393L53.2,393L53.2,393z M70.5,516  c-0.3-1.5-0.4-2.1-0.7-3.4C69,513.9,68.2,514.6,70.5,516z M60.6,498.4c-0.1-0.1-0.6,0.1-1.3,0.2c-0.4,0.8-0.9,1.9-1.5,3.1  c1.1,1.1,2,2.1,2.5,2.7l0,0c3-0.2,5.5-0.3,8.5-0.4c0.1-1.4,0.2-2.8,0.2-3.9C66.4,496.9,63,500.6,60.6,498.4z M60.2,364.4  c-0.2-3-2.2-5.2-3.4-7.6C56.7,361.4,57.3,363,60.2,364.4z M56.2,355.2l-0.1,0.1c0.2,0.4,0.4,0.8,0.5,1.2l0,0c0,0.1,0.1,0.2,0.1,0.3  c0-0.1,0-0.2,0-0.3C56.6,356,56.4,355.5,56.2,355.2z M73.1,496c0.1,0.6,0.2,1.2,0.3,1.8c0.3,0,0.5-0.1,0.7-0.1  c-0.1-0.6-0.2-1.2-0.4-1.8C73.5,495.9,73.3,495.9,73.1,496z M82.6,340.4c4.5-1.4,4.1-5.8,5.8-8.7c-1.2-2.2-2.6-3.6-5.1-3.1  c-0.9,1-1.8,2-3,3.4c-0.6-1.5-1-2.5-1.5-3.7c-1,0.1-1.9,0.2-3.6,0.4l0,0c1.1,1.9,1.9,3.2,2.6,4.4C76.8,337.3,79.7,338.8,82.6,340.4z   M76.3,342c1.3,0.1,2,0.1,2.9,0.1C78.4,340.5,77.7,340.5,76.3,342z M71.1,356.1c1.2,0.1,1.8,0.2,3.3,0.4c-1-1.3-1.5-2-2.3-3  L71.1,356.1z M47.8,451.6c0.2,0.1,0.4,0.2,0.8,0.4c-0.2-0.2-0.3-0.4-0.4-0.6C48.2,451.4,48,451.5,47.8,451.6z M155.4,427.6  L155.4,427.6C155.4,427.6,155.4,427.5,155.4,427.6L155.4,427.6z M45.7,337.4c-2.4-1.2-4.4-2.2-7.2-3.6c-0.1,0-0.5,0-1-0.1  c-3.5-1.1-6.3,0-8.9,2.4c-0.8,0.8-1.9,1.4-2.8,2c0,0-0.1,0-0.1-0.1v0.1l0,0l0,0l0,0h0.1l0,0l0,0c-1,2.4,1.7,5.1-0.2,7.3  c0.6,1.3,1.2,2.5,1.7,3.6c-0.3,1.6-0.7,2.9-0.9,4.1c0.8,1.6,1.7,2.5,3.8,1.9c-0.5-2.3-1-4.6-1.6-7.5c3.2,1.5,5.9,2.8,8.5,4.1  c2.7-0.9,5.2-1.8,7.1-2.5c1.1-3.2,1.9-5.7,2.9-8.7C46.8,339.6,46.2,338.3,45.7,337.4z M48.6,452L48.6,452L48.6,452L48.6,452z   M51.8,405.6c-1.4,2,0.3,3.4,0.4,4.9c-0.9,1.3-1.7,2.5-2.5,3.7c-0.9,0.1-1.7,0.1-2.9,0.2c0.8,1.8,1.4,3.1,2.1,4.4  c0.7-0.7,1.2-1.2,1.7-1.6c1.3,0.3,2.5,0.6,4,0.9c0.4-1.4,1-2.5,1-3.6c0-1.2-0.7-2.3-1.1-3.5c0.5-0.6,0.9-1.2,1.7-2.3l0,0  c-0.6-1.2-1.1-2.2-1.7-3.4C53.2,405.5,52.4,405.5,51.8,405.6z M44.7,408.4H45l-0.2-0.2L44.7,408.4z M48.9,488.8  c0.7,0.8,1.4,1.6,2.4,2.7l0,0l1.6-4.1c-1-0.4-1.7-0.8-2.7-1.3C49.7,487.1,49.3,487.9,48.9,488.8z M50.7,650l-0.4,0.9l0.3,0.1  l0.4-0.9C50.9,650,50.7,650,50.7,650z M48.8,657.3l2.6,1c-0.9-1.1-1.4-1.7-1.9-2.4C49.2,656.6,49.1,656.9,48.8,657.3z" />
</svg>