<?xml version="1.0" encoding="utf-8"?>
<!-- Generator: Adobe Illustrator 28.0.0, SVG Export Plug-In . SVG Version: 6.00 Build 0)  -->
<svg version="1.1" id="Layer_1" xmlns="http://www.w3.org/2000/svg" xmlns:xlink="http://www.w3.org/1999/xlink" x="0px" y="0px"
	 viewBox="0 0 147.2 123.4" style="enable-background:new 0 0 147.2 123.4;" xml:space="preserve">
<style type="text/css">
	.st0{opacity:0.2;fill:#584036;enable-background:new    ;}
</style>
<path class="st0" d="M61.9,28.1c-0.1-0.2-0.1-0.4-0.5-0.4c-0.1-0.3-0.2-0.4-0.5-0.6c-0.2-0.1-0.5,0-0.4,0.2c0.1,0.4,0.1,0.8,0.4,1.2
	c0.2,0.2,0.4,0.3,0.7,0.3c-0.4,0.5-1.1,0.8-1.5,1.4c-0.1,0-0.3,0-0.4-0.1c0-0.1,0-0.4,0-0.5c0-0.4-0.5-0.7-0.7-0.6
	c-0.3,0.1-0.3,0.4-0.3,0.7c-0.1,0,0,0.1,0,0.1s0.2,0,0.3,0.2c-0.1,0.2-0.2,0.4-0.4,0.5c0.1,0.5,0.3,0.7,0.6,1
	c0.2,0.2,0.4,0.5,0.6,0.7c-0.1,0.2,0,0.3,0,0.4c0.1,0.7-0.2,1.3-0.6,1.9c-0.4-0.4-0.8-0.5-1.2-0.3c-0.2,0.2-0.2,0.3-0.1,0.6
	c0.2,0.1,0.4,0.2,0.7,0.4c0.1,0.3,0,0.6-0.2,0.7c-0.3,0.4-0.3,0.7-0.4,1s0,0.5-0.3,0.6c-0.2,0-0.4-0.2-0.8-0.2
	c-0.1,0-0.3-0.1-0.4-0.2c-0.7-0.5-1.5-0.9-2.3-1.3c-0.6-0.2-1-0.7-1.3-1.2c0-0.1-0.1-0.3,0-0.5c0.1-0.5,0.3-0.9,0.5-1.5h0.4
	c0.3,0,0.4-0.1,0.5-0.3c0-0.1,0.1-0.2,0.1-0.3c0.2-0.7,0.6-1.2,0.9-1.8c0.1-0.2,0.2-0.3,0.5-0.3c0.4-0.1,0.6-0.1,1-0.1
	s0.6-0.3,0.6-0.7c0-0.2-0.1-0.4-0.2-0.6c-0.2-0.2-0.4-0.5-0.4-0.9c0.1-0.1-0.1-0.2-0.2-0.4c-0.2-0.3-0.3-0.5-0.1-0.8
	c0.4-0.6,0.8-1.2,1.4-1.6l0.1-0.1c-0.1-0.3-0.1-0.5-0.2-0.7c0.3-0.2,0.6-0.3,0.8-0.6c0-0.4,0.1-0.7-0.1-1.1c-0.1-0.1-0.1-0.2,0-0.3
	c0.2-0.2,0.1-0.5,0.1-0.8c0-0.2-0.1-0.4,0-0.6c0.1-0.5,0.3-1.2,0.3-1.8c0.3-1.1,0.2-2.2,0.8-3.1c0.1-0.2,0.1-0.4,0.1-0.5
	c0.2-0.5,0.5-0.7,1-0.4c0.3,0.2,0.6,0.3,0.9,0.6c0.1,0.1,0.2,0.2,0.3,0.2c0.5,0.1,0.9,0.3,1.1,0.8c0,0.2,0.3,0.2,0.4,0
	c0.1,0,0.1-0.2,0.1-0.3L63.4,16l-0.5-0.5c-0.2-0.2-0.4-0.3-0.7-0.3c-0.8-0.1-1.3-0.6-1.9-1l0.3-0.5c0.2-0.1,0.5-0.3,0.6-0.1
	c0.3,0.2,0.6,0.3,0.6,0.7c0.1,0.5,0.3,0.6,0.7,0.6c0.6,0,1,0.2,1.3,0.6c0.3,0.1,0.5,0.4,0.8,0.6c0,0.2-0.1,0.4,0,0.6
	c0.3,0.1,0.5,0.3,0.9,0.3c0.1-0.1,0.2-0.1,0.3,0c0.2,0.1,0.3,0.2,0.5,0.3c-0.1,0.2-0.3,0.2-0.4,0.2c-0.3,0-0.4,0.1-0.7,0.2
	c-0.4,0.3-0.4,0.8,0,1.1c0.2,0.2,0.3,0.2,0.5,0.3c0.2,0.1,0.3,0.2,0.5,0.3c-0.2,0.4-0.5,0.8-0.7,1.2c-0.1,0-0.3,0-0.4-0.2
	c0.1-0.1,0.3-0.3,0.5-0.6c0-0.1,0.1-0.3,0-0.5c-0.6,0.4-0.6,0.4-1.3,0.2c-0.2-0.1-0.3,0-0.4,0c-0.2,0.5,0,0.9,0.5,1.2
	c0,0.3-0.2,0.4-0.4,0.3c-0.2-0.1-0.2,0-0.4,0.1c-0.4,0.3-0.5,0.7-0.3,1.2c0.5,0.3,0.8,0.4,1.3,0.5c0.3,0.1,0.5,0.4,0.3,0.7
	c-0.2,0.5-0.5,1.1-0.5,1.7v0.1c-0.3,0.1-0.5,0.1-0.7,0.2c0-0.1,0-0.2-0.1-0.3c-0.7-0.3-1.5-0.4-2.3-0.4c-0.1-0.1-0.1-0.3-0.2-0.4
	c-0.1-0.1-0.2-0.2-0.4-0.3c-0.1,0-0.2,0-0.3,0.1c-0.1,0-0.1,0.2,0,0.2c0.2,0.2,0.4,0.3,0.6,0.5c0.4-0.1,0.7,0.3,1,0.4
	c0.7,0.2,0.7,0.2,0.6,1c0.1,0.1,0.2,0.3,0.4,0.5c-0.3,0.6-0.6,1.3-0.9,1.8c-0.1,0.2-0.2,0.3-0.4,0.2C61.9,28.6,62,28.4,61.9,28.1
	L61.9,28.1z M60.3,19.1c-0.2,0-0.2-0.1-0.3,0c-0.3,0.1-0.6,0.3-0.5,0.5c-0.1,0.4,0.1,0.6,0.5,0.6c0.6-0.1,1.2,0,1.8,0.3
	c0.1,0,0.3,0,0.4,0c0.2,0,0.3-0.2,0.2-0.3L62.3,20c-0.4-0.5-0.7-0.9-0.9-1.5c-0.1,0.2-0.2,0.2-0.3,0.3
	C60.9,19.1,60.6,19.4,60.3,19.1z M61.3,23.6c0.4,0,0.8-0.2,1.1-0.1c0.2,0.1,0.3-0.1,0.6-0.5c-0.2-0.4-0.5-0.7-0.8-0.9
	c-0.2-0.2-0.4-0.2-0.6,0.1c-0.2,0.2-0.3,0.4-0.3,0.5c-0.2,0.1-0.4,0-0.6,0.1C60.6,23.3,61,23.4,61.3,23.6z M60.9,16.6
	c-0.1-0.1-0.3-0.1-0.4,0c-0.1,0-0.2,0.2-0.1,0.3c0.1,0.3,0.2,0.5,0.3,0.7c0.2,0.2,0.5,0.2,0.7-0.1c0-0.2,0.1-0.2,0-0.3L60.9,16.6z
	 M60.2,28.6c0.1-0.1,0.1-0.3,0-0.4c-0.3-0.3-0.3-0.3-0.9-0.6c-0.2,0-0.4,0.2-0.3,0.5C59.3,28.2,59.7,28.4,60.2,28.6z M60,25.6
	c0.1,0,0.2,0,0.3-0.1c0.1,0,0.1-0.1,0.1-0.1c0-0.1,0-0.1-0.1-0.2s-0.2-0.1-0.2-0.1c-0.4,0.2-0.6-0.1-0.8-0.3h-0.1
	c-0.2,0.3-0.2,0.5-0.1,0.5C59.4,25.5,59.6,25.7,60,25.6z M57.4,32.2c-0.1,0.3-0.1,0.5,0.2,0.5c0.1,0,0.3,0,0.6,0
	c-0.1-0.2-0.1-0.3-0.2-0.4C57.8,32.1,57.6,32.1,57.4,32.2z M60.4,26.6c0.1-0.1-0.1-0.4-0.2-0.4c-0.1-0.1-0.4,0.1-0.4,0.2
	c0,0.2,0.1,0.2,0.2,0.4C60.1,26.7,60.3,26.7,60.4,26.6z M57.2,33.2c0.1-0.2,0-0.3-0.2-0.4l-0.2,0.1c0,0.1,0.1,0.3,0.2,0.5L57.2,33.2
	z M64.1,18.8c0,0,0-0.1-0.1-0.2c-0.2-0.1-0.3,0-0.4,0.2c0,0,0,0.2,0.1,0.2S63.9,18.9,64.1,18.8z M56.4,33.4c0,0-0.1,0-0.2,0.1
	c0,0.1,0,0.2,0.1,0.3c0,0,0.1-0.1,0.2-0.1C56.5,33.6,56.4,33.5,56.4,33.4z M56.2,32.4c-0.1,0.1,0,0.2,0.1,0.2c0.1,0.1,0.2,0.1,0.4,0
	l-0.2-0.2C56.4,32.3,56.3,32.4,56.2,32.4z M59.7,32.5L59.7,32.5C59.6,32.4,59.5,32.5,59.7,32.5C59.7,32.3,59.7,32.3,59.7,32.5z
	 M56.9,32.1C56.8,32.1,56.8,32.1,56.9,32.1C56.8,32.1,56.9,32.1,56.9,32.1C56.8,32,56.7,32,56.9,32.1z M61.6,21.2l0.1-0.1
	C61.6,21,61.6,21,61.5,21C61.5,21,61.5,21.1,61.6,21.2z M41.6,74.7c0.1,0.1,0.1,0.2,0.2,0.4c0.1,0.1,0.1,0.3,0.2,0.4
	c0.3-0.3,0.1-0.5,0.2-0.7c0.3-0.1,0.4-0.2,0.7-0.3c-0.2-0.4-0.4-0.5-0.7-0.7c-0.4-0.1-0.6-0.2-0.7-0.5c-0.1-0.1-0.2-0.2-0.3-0.2
	c-0.2-0.1-0.3-0.2-0.3-0.3c0-0.3-0.3-0.3-0.5-0.4c-0.3,0.4-0.5,0.8-0.3,1.3c-0.1-0.2-0.3-0.3-0.4-0.5c0-0.1,0-0.4,0-0.5L39,72.3
	c-0.4,0.1,0,0.5-0.2,0.8c-0.5-0.3-0.5-0.3-0.7-0.5c-0.3-0.5-0.6-1.1-0.6-1.7c0.3-0.1,0.6-0.1,0.9-0.1c0.2,0,0.4,0.1,0.6,0
	c0.3-0.1,0.4-0.3,0.3-0.5c-0.3-0.4-0.5-0.8-1-1.1c0.1-0.5,0.2-0.7,0.6-0.9c0.2,0,0.5-0.1,0.7-0.2c0.1-0.1,0.3-0.2,0.4-0.2
	c-0.1-0.3-0.2-0.5-0.3-0.7c0-0.1,0-0.4,0-0.5c0.1-0.4,0.7-0.8,1.1-0.8c0.3,0,0.6,0.1,0.8,0c0.6-0.2,1-0.7,0.8-1.4
	c0-0.1-0.1-0.2-0.1-0.3c0-0.2,0.1-0.4,0.3-0.5c0.3-0.1,0.6-0.3,1-0.3c0.2-0.1,0.5,0.1,0.6-0.1c0.1-0.3-0.3-0.4-0.4-0.6l-0.1-0.1
	c-0.2,0-0.4,0.2-0.6,0c0.1-0.4,0.3-0.9,0.6-1.4c0.2-0.3,0.3-0.7,0.4-1c0,0,0.1-0.2,0.2-0.3c0.3-0.2,0.6-0.3,0.9-0.6
	c0.1-0.1,0.4-0.1,0.6,0c0.4,0.2,0.8,0.3,1.1,0.7c0.2,0.2,0.4,0.3,0.5,0.3c0.7,0.3,1.2,0.7,1.8,1c0,0.1,0.1,0.2,0.1,0.2
	c0.2,0.1,0.3,0.4,0.2,0.7c-0.1,0.5-0.3,0.9-0.5,1.3c-0.1,0.2-0.1,0.4-0.3,0.5c-0.4,0.4-0.6,0.9-0.7,1.4c-0.1,0.5-0.4,0.9-0.7,1.3
	c-0.2,0.1-0.3,0.2-0.4,0.2c-0.2,0-0.5,0-0.7-0.1c-0.1,0-0.3-0.1-0.5,0c-0.3,0.1-0.5,0.1-0.7,0.2c-0.1,0.2-0.3,0.4-0.3,0.5
	c-0.1,0.2-0.1,0.4,0,0.6c0.2,0.3,0.3,0.8,0.7,1.1c0.1,0,0.1,0.1,0.2,0.2c-0.3,0.6-0.5,1.1-0.8,1.7c-0.1,0.2-0.2,0.5-0.6,0.5
	c-0.3,0-0.4,0.2-0.3,0.4c0.1,0.4,0,0.7-0.2,1c-0.2,0.2-0.3,0.4-0.3,0.5c-0.2,0.1-0.4,0.1-0.7,0.1c0.1,0.5,0.3,0.9,0.1,1.4
	s-0.2,0.9-0.6,1.2c-0.1-0.1-0.2-0.3-0.3-0.5c-0.3,0.1-0.7,0.3-1,0.4c0.1,0.6,0.4,1,0.7,1.4c-0.2,0.3-0.5,0.4-0.7,0.3
	c0.1-0.2,0-0.5-0.2-0.7c-0.3-0.3-0.3-0.7-0.2-1c0.2-0.4,0-1-0.2-1.4c-0.2-0.2-0.4-0.4-0.4-0.7c0.3-0.2,0.7-0.3,0.7,0.1
	C40.7,74.5,40.9,74.7,41.6,74.7z M46.6,61.3c-0.2-0.6-0.7-0.9-1.2-1.2c-0.1,0-0.2,0-0.3,0.1c-0.1,0.2-0.2,0.3-0.3,0.5
	c-0.1,0.1-0.1,0.3,0,0.5C45.3,61.3,45.9,61.4,46.6,61.3z M41.3,72c0.4-0.1,0.6-0.3,0.6-0.7l-0.2-0.2c-0.1,0-0.2,0-0.3,0.1
	c-0.2,0.3-0.3,0.5-0.3,0.9C41.2,72.1,41.3,72.2,41.3,72z M43.7,61.9c-0.1,0-0.2,0.1-0.2,0.1c0,0.1,0,0.3,0,0.4c0.2,0,0.2,0,0.3-0.1
	C43.8,62.2,43.8,62.1,43.7,61.9z M42.9,71.2c0-0.1,0-0.1-0.3,0l0.1,0.1C42.8,71.3,42.8,71.3,42.9,71.2C42.9,71.2,42.9,71,42.9,71.2z
	 M44.3,70.4c0.1-0.1,0.1,0,0.2-0.1l-0.1-0.2l0,0C44.4,70.1,44.3,70.2,44.3,70.4z M42,73.6L42,73.6L42,73.6
	C42.1,73.7,42.1,73.7,42,73.6z M51,48.3c0-1-0.4-2-0.6-3c-0.1-0.6-0.3-1.3-0.5-2c-0.1-0.3,0-0.8,0.2-1.1c0.3-0.3,0.5-0.6,0.8-0.9
	c0.1-0.1,0.3-0.2,0.6,0c0,0,0,0.1,0.1,0.2c0.5,0.3,1.1,0.5,1.8,0.3c0-0.1,0.3-0.1,0.4-0.1c0.7-0.1,1.4-0.2,2.1-0.1
	c0.5,0,1,0,1.4-0.1c0.1-0.1,0.3-0.1,0.4,0c0.4,0.3,0.7,0.6,0.7,1.1s0,1,0.2,1.5c0.1,0.4,0.2,0.8,0,1.1c-0.2,0.2-0.2,0.6,0,0.9
	s0.3,0.7,0.1,1.1c-0.1,0.2,0,0.4,0,0.6s0,0.4-0.3,0.6c-0.3,0.2-0.4,0.2-0.7,0.4s-0.5,0.3-0.8,0.5s-0.5,0.2-0.7,0.3
	c-0.7,0.1-1.3,0.2-1.9,0.4c-0.1,0-0.3,0-0.4,0c-0.8-0.1-1.8,0.1-2.5,0.7c-0.6-0.4-0.6-0.4-0.6-0.8C50.7,49.3,50.6,48.6,51,48.3z
	 M50.5,76.1c-0.1,0-0.1,0.2-0.4-0.1h0.1c-0.2,0.4,0.2,0.6,0.3,0.9c-0.4,0.3-0.8,0.1-1.2,0.1c0,0-0.1,0.2-0.2,0.3
	c-0.1,0.2-0.2,0.2-0.4,0l-0.1-0.1c-0.2,0.2-0.5-0.2-0.7-0.1c-0.8,0.1-1.5-0.2-2.3-0.3c-0.1-0.3,0-0.5,0.2-0.8
	c0.3-0.4,0.5-0.9,0.8-1.4c0.1,0,0.1-0.2,0.1-0.3c-0.1-1.2,0.6-2.2,1-3.2c0.1-0.2,0.2-0.2,0.4-0.3c0.2,0.1,0.3,0,0.4,0
	c0.4,0.1,0.5-0.1,0.7-0.4s0.2-0.7,0.1-1c-0.2-0.5-0.1-1,0.1-1.4c0.1-0.4,0.3-0.8,0.5-1.1c0.1-0.2,0.3-0.7,0.4-1
	c0.1-0.3,0.2-0.6,0.3-0.9c0.2-0.6,0.5-1.1,0.8-1.6c0.5,0.5,0.9,0.6,1.5,0.8c0.2,0,0.4,0.1,0.5,0.1c0.4,0,0.8,0.2,1.1,0.5
	s0.7,0.4,1,0.5c0.1,0.1,0.2,0.3,0.3,0.5c0,0.2,0.2,0.4,0,0.5c-0.3,0.4-0.3,0.9-0.3,1.3c-0.2,0.6-0.3,1-0.8,1.4
	c-0.2,0.2-0.5,0.3-0.8,0.6c0.3,0.3,0.1,0.6,0.1,0.9s-0.2,0.5-0.5,0.6c-0.2,0.2-0.5,0.3-0.8,0.4c-0.4,0.2-0.6,0.5-0.3,0.8
	s0.5,0.7,0.8,1.1c0.1,0.2,0.3,0.6,0.3,0.9c0,0.4,0,0.8-0.3,1.3c-0.4,0.1-0.7,0.3-1.1,0.3l-0.4,0.8c-0.2-0.1-0.5-0.3-0.7-0.4
	c-0.2,0-0.5,0-0.6,0C50.5,76.2,50.6,76.2,50.5,76.1C50.5,76.1,50.4,76.1,50.5,76.1z M52,75.2c0.3,0.2,0.6,0.1,0.9,0v-0.6
	c-0.2-0.1-0.3-0.1-0.4,0c0,0-0.1,0-0.2,0.1l-0.1-0.1c0-0.3,0-0.4-0.1-0.6c-0.2-0.2-0.4-0.4-0.7-0.5c-0.3-0.2-0.6-0.1-0.6,0.2
	c0,0.1,0,0.3,0,0.4c0,0.2-0.1,0.4-0.2,0.5s-0.1,0.3,0,0.4s0.2,0.1,0.4,0l0.4-0.3C51.6,74.9,51.9,75,52,75.2L52,75.2z M52.7,68.7
	c-0.1-0.1-0.2-0.1-0.4,0s-0.3,0.2-0.2,0.4c0.2,0.2,0.3,0.4,0.5,0.3c0.1-0.1,0.1-0.2,0.2-0.3C52.9,68.9,52.8,68.8,52.7,68.7z
	 M48.5,75.2c0.1,0.1,0.3,0.1,0.4,0c0.2-0.1,0.1-0.3-0.1-0.4c-0.2-0.2-0.4-0.1-0.4,0C48.3,75,48.3,75.2,48.5,75.2z M49.9,75.4
	c-0.2-0.2-0.5-0.1-0.4,0c0,0.2,0.1,0.2,0.2,0.4c0.1,0,0.2,0,0.3-0.1C50.1,75.6,50,75.4,49.9,75.4z M54.5,66.2
	c-0.1,0.1-0.1,0.3,0,0.4l0.1,0.1c0,0,0,0.2,0.2,0.4c0-0.3,0-0.5,0-0.6C54.8,66.3,54.6,66.1,54.5,66.2z M49.6,74.5
	c0-0.1-0.1-0.3-0.1-0.3c-0.1,0-0.2,0-0.4,0.1c0.2,0.1,0.2,0.2,0.3,0.3C49.5,74.6,49.7,74.6,49.6,74.5z M51.3,72.2
	c0,0.1-0.1,0.1-0.2,0.2c0,0.1,0,0.2,0.1,0.4l0.3-0.3C51.6,72.5,51.5,72.2,51.3,72.2z M48.3,76.8c0,0,0-0.1-0.1-0.2
	c-0.1,0-0.2,0-0.3,0.1s0,0.1-0.1,0.2c0,0.1,0.1,0.2,0.1,0.2C48,77.2,48,77.2,48.3,76.8z M46.9,76.9l0.2-0.1
	C47.1,76.8,47,76.8,46.9,76.9L46.9,76.9C46.9,76.9,47,77,46.9,76.9z M49.5,76.3C49.5,76.3,49.4,76.2,49.5,76.3z M48.8,76.1
	L48.8,76.1C48.8,76,48.8,76.1,48.8,76.1L48.8,76.1C48.8,76.1,48.9,76.1,48.8,76.1z M38.8,43.1c0.2,0,0.5-0.1,0.8-0.1
	c0.5-0.1,0.9-0.3,1.3-0.5c0.5-0.2,0.9-0.3,1.4-0.5c0.2-0.1,0.5-0.2,0.7-0.4c0.2-0.3,0.5-0.3,0.8-0.3c0.1,0,0.3,0.1,0.4,0.2
	c0.2,0.5,0.6,1,0.3,1.6c-0.1,0.2-0.1,0.4,0,0.6c0.1,0.5,0.3,0.8,0.6,1c0.2,0.2,0.4,0.3,0.4,0.7c0,0.1,0,0.3,0,0.4
	c0.2,0.5,0.2,1,0,1.3c-0.3,0.5-0.1,0.9-0.1,1.4c0,0.1,0.1,0.3,0.1,0.4c0.1,0.5,0,0.8-0.6,0.9c-0.4,0.1-1,0.2-1.4,0.3
	c-0.4,0.2-0.7,0.3-1.1,0.3c-0.6,0.1-1.2,0.3-1.8,0.4c-0.4,0.1-0.8,0.3-1.1,0.3s-0.5,0.1-0.9,0.1c-0.1,0-0.3-0.1-0.5,0
	c-0.1-0.7-0.4-1.3-0.6-2c-0.4-1.6-0.6-3.3-1.3-4.8c0-0.1-0.1-0.2-0.1-0.3c0-0.2,0-0.4,0-0.5c0.4-0.4,0.8-0.4,1.1-0.3
	C37.8,43.4,38.3,43.4,38.8,43.1z M40.7,48.3C40.8,48.4,40.8,48.4,40.7,48.3z M28.1,34c0,0.4,0,0.8,0.3,1.2c0.1,0.1,0.1,0.1,0.1,0.2
	c-0.1,0.1-0.3,0.2-0.5,0.3c-0.2,0.2,0,0.8,0.3,1c0.2,0.1,0.4,0.3,0.5,0.3s0.3,0.2,0.4,0.2c0.1,0.3,0.2,0.6,0.3,0.8
	c-0.2,0.2-0.5,0.1-0.7,0.4c0.3,0.2,0.7-0.1,0.9,0.3c-0.3,0.1-0.8,0.1-0.9,0.6c-0.1,0.4-0.2,0.8,0.1,1.1c0.2,0,0.5-0.2,0.7-0.2
	s0.6,0.1,0.8,0c0.5,0,1-0.2,1.6-0.3c0.1,0,0.2-0.1,0.3-0.1c1.1-0.1,2.1-0.5,3.1-0.8c0.3-0.1,0.7-0.2,1-0.3c0.3-0.7,0.1-1.3-0.1-1.9
	c-0.3-0.5-0.4-1-0.6-1.5c-0.1-0.2,0-0.4-0.1-0.6c0-0.8-0.3-1.6-0.4-2.4c-0.1-0.5-0.3-0.5-0.7-0.5c-1-0.1-2,0.1-3.1,0.2
	c-0.5,0.3-1.2,0.3-1.5,0.9c0,0.2-0.2,0.3-0.3,0.3c-0.4-0.1-0.8,0.2-1.1,0.5c0,0,0.2,0,0,0c0.2,0.1,0.1,0.2,0.1,0.3h-0.1
	c-0.2,0-0.2-0.2,0-0.3l0,0C28.4,33.7,28.2,33.8,28.1,34z M33,63.2c0,0,0-0.1-0.3-0.3C32.6,63,32.6,63,32.6,63
	c0.1,0.1,0.1,0.1,0.1,0.1c0,0.1,0.1,0.2,0.1,0.2c-0.2,0-0.5,0.1-0.7,0.2c0,0.1,0,0.2,0.1,0.4c0.1,0.1,0.1,0.3,0.1,0.4
	c0.5,0.3,0.5,0.3,1.1,0.2c0.1,0,0.3,0.1,0,0.1c-0.1,0.2-0.2,0.4-0.4,0.7c-0.2-0.2-0.5-0.2-0.8-0.2c-0.5,0.3-0.2,1-0.5,1.4
	c-0.3,0.1-0.5,0.1-0.7,0.2c-0.1-0.4-0.1-0.6-0.1-0.9c-0.4,0.1-0.7-0.1-1-0.2c-0.2-0.1-0.4-0.1-0.6,0.1s-0.2,0.2-0.4-0.2l0.4-0.3
	c0.1-0.1,0.1-0.2,0.2-0.4c0.4,0.2,0.7,0.5,1.2,0.3c-0.2-0.6-0.2-0.6,0-1.3c0-0.3,0-0.6,0.1-0.8c-0.2-0.1-0.4-0.3-0.5-0.3
	c-0.2,0-0.5,0-0.6,0c-0.2,0.2-0.1,0.5-0.4,0.5c-0.2-0.1-0.2-0.4-0.2-0.7l0.4-0.3c-0.3-0.1-0.7-0.2-0.9-0.3l-0.2-0.2
	c0-0.1,0-0.2,0.1-0.3c0.2-0.1,0.4-0.1,0.6-0.2c0.5-0.2,0.9-0.6,1.3-0.8c0.1-0.1,0.3-0.2,0.4-0.1c0.5,0.3,0.7,0.1,1.1-0.1
	c0.2,0,0.4-0.1,0.6-0.2c0.4-0.1,0.5-0.2,0.3-0.7c-0.1-0.5-0.2-0.8-0.3-1.2c0,0-0.3-0.2-0.3-0.3c-0.1-0.3-0.2-0.5-0.2-0.9
	c0-0.3,0.3-0.5,0.5-0.7c0.2,0.2,0.3,0.2,0.5,0.3c0.3-0.4,1-0.5,1.4-0.7c-0.1-0.3-0.3-0.4-0.5-0.3c-0.3,0.1-0.5,0.3-0.9,0.1
	c0-0.1,0-0.2,0.1-0.3c0.5-0.8,1-1.5,1.5-2.2c0,0,0.1,0,0.2-0.1c0.1,0.1,0.2,0.1,0.3,0.2c0.4,0.3,0.9,0.6,1.3,0.9
	c0.2,0.1,0.2,0.1,0.4,0c0.2-0.2,0.1-0.2,0-0.4v-0.1c0.2-0.1,0.3-0.1,0.5,0c0.5,0.3,0.9,0.7,1.5,1c0.2,0.1,0.3,0.3,0.3,0.4
	c0,0.4,0.1,0.7,0.1,1.1c0,0.4,0,0.9-0.4,1.2c-0.1,0-0.1,0.2-0.1,0.3s-0.1,0.2-0.1,0.3c-0.2,0.5-0.3,0.7-0.5,1
	c-0.2,0.2-0.6,0.4-0.8,0.6c-0.4,0-0.8,0-1.3,0.6c0,0.1,0,0.3,0,0.4c-0.2-0.1-0.3-0.2-0.4-0.2c-0.3,0.1-0.6,0.3-0.9,0.1
	c0,0-0.2,0.1-0.4,0.2c-0.4,0.3-0.4,0.7,0.1,1.1c0.1,0,0.1,0,0.2,0.2c-0.1,0.3,0.2,0.7-0.2,1c-0.2-0.1-0.3-0.2-0.5-0.3
	c0,0.1,0,0.3,0,0.4C33.6,63.1,33.3,63.2,33,63.2L33,63.2L33,63.2z M33.3,62.2l0.3-0.3c-0.2-0.1-0.5,0-1,0.4c0.1,0.3,0.2,0.3,0.4,0.2
	C33.1,62.5,33.2,62.4,33.3,62.2z M31.3,63.7c0,0.1,0.1,0.1,0.2,0.2c0.1-0.1,0.3-0.2,0.2-0.3c-0.1-0.2-0.1-0.4-0.2-0.6
	C31.2,63.3,31.2,63.5,31.3,63.7z M32.1,62.8c0.2-0.1,0.3-0.1,0.2-0.2l-0.1-0.1C32.1,62.5,32.1,62.7,32.1,62.8
	C32.1,62.9,32.1,62.9,32.1,62.8z M30.5,60.8L30.5,60.8L30.5,60.8C30.6,60.8,30.5,60.7,30.5,60.8z M31.4,62c0.2-0.1,0.1-0.2,0.2-0.1
	L31.4,62L31.4,62C31.4,61.9,31.5,62,31.4,62z M37.3,54.4L37.3,54.4l0.2-0.1c0,0.1,0,0,0,0S37.4,54.4,37.3,54.4z M36.4,58.5l0.1-0.2
	c0.1,0,0,0,0,0S36.4,58.3,36.4,58.5z M31.4,64.7C31.4,64.5,31.4,64.6,31.4,64.7C31.4,64.7,31.4,64.6,31.4,64.7z M34.9,56.1
	L34.9,56.1C34.9,55.9,34.9,55.9,34.9,56.1C34.9,56.2,34.9,56.1,34.9,56.1z M136.6,119.4c-0.1,0.2-0.1,0.1-0.3-0.3l-0.2-0.7
	c-0.1-0.1-0.1-0.2-0.1-0.2c0.2-0.3,0.1-0.6,0.1-0.9c0-0.1,0.1-0.2,0.2-0.4c0.8,0.3,1.1-0.4,1.7-0.5c0.2-0.2,0.2-0.5,0.1-0.8
	c-0.5-0.2-0.7-0.5-0.7-0.6c0.1,0,0.2,0,0.3-0.1c0.1-0.3,0.2-0.7,0.4-1c-0.2-0.3-0.4-0.4-0.7-0.6c0.2-1.1,0.2-1.1,0.7-1.4
	c0.3,0.3,0.6,0.4,1,0.4c0.4-0.1,0.8,0,1.1-0.3c0-0.2,0.1-0.4,0.2-0.6l-0.4-0.5c-0.2,0.1-0.3,0.1-0.4,0.2c0-0.2-0.1-0.3-0.1-0.4
	c-0.2,0.1-0.4,0-0.6,0.1c-0.1,0-0.2-0.1-0.1-0.3c0.3-0.1,0.5-0.3,0.8-0.3c0.5,0.1,0.8-0.1,1.2-0.3c0-0.2,0.2-0.5,0.4-0.7l0.1-0.1
	l-0.1-0.1c-0.1,0.1,0,0.1-0.1,0.2c-0.2-0.3-0.4,0-0.6-0.1c-0.3-0.5-0.6-1-0.8-1.6c0.2-0.1,0.5-0.1,0.6-0.1c0.2,0.1,0.5,0.1,0.7,0.2
	c0.5,0.2,1.1,0.2,1.5-0.4c0.1-0.2,0.4-0.4,0.6-0.5c0.4,0,0.4-0.4,0.8-0.6c0,0.2,0.1,0.3,0.1,0.4c-0.1,0.5,0.1,0.9,0.6,1
	c0,0.1,0,0.1,0.1,0.2c0.1,0.2,0,0.4-0.3,0.5c-0.1,0.1-0.2,0.2-0.3,0.3c-0.3,0.2-0.6,0.5-0.6,0.9s-0.2,0.6-0.6,0.8
	c-0.1,0-0.2,0.2-0.3,0.3c0,0.3,0.4,0.6,0.2,1c-0.4,0-0.8-0.3-1.1,0.1c-0.4,0.3-0.5,0.7-0.4,1.1c1.3,0.8,1.6,1,1.8,1.4
	c0,0-0.1,0-0.2,0.1c-0.6,0.1-0.8,0.5-1.1,0.9c-0.2,0.3-0.3,0.8-0.3,1.3c0,0.3,0,0.5-0.2,0.6c-0.3,0.4-0.5,0.9-0.7,1.5
	c0.5,0.3,0.8,0.5,1.1,0.7c0.2,0.1,0.4,0.3,0.7,0.5c0.2,0.2,0.2,0.3,0.2,0.6c-0.1,0.2-0.1,0.5-0.2,0.7l-0.1-0.1l0.1,0.1
	c-0.2,0.8-0.4,0.8-1,0.5c0,0.1-0.1,0-0.1,0c-0.2-0.3-0.6-0.3-0.9-0.4c-0.2-0.1-0.3-0.2-0.4-0.2c0-0.2-0.1-0.3-0.1-0.4
	c-0.1,0-0.1,0-0.2,0.1c-0.2,0.3-0.4,0.2-0.5-0.1c0-0.1,0-0.3,0-0.4c-0.2,0.1-0.3,0.2-0.4,0.3c-0.1,0-0.1,0-0.1,0
	c-0.3-0.2-0.4-0.3-0.6-0.4s-0.4,0-0.6-0.1C137.1,119.8,136.9,119.7,136.6,119.4C136.5,119.5,136.6,119.4,136.6,119.4
	S136.5,119.5,136.6,119.4z M141,107.9c-0.1-0.1-0.3,0-0.3,0.1s0,0.2,0.1,0.4c0.1,0,0.3-0.1,0.3-0.1C141,108.2,141,108.1,141,107.9z
	 M140.2,119.3l-0.2,0.1c0.1,0.3,0.2,0.3,0.5,0.3C140.5,119.4,140.5,119.2,140.2,119.3z M138.7,120.1l0.1-0.1c0-0.1,0-0.1-0.1-0.2
	c-0.1,0-0.1,0-0.2,0.1C138.6,120,138.6,120,138.7,120.1z M137.2,119.1C137.2,119.1,137.3,119,137.2,119.1c0-0.1,0-0.1-0.1-0.1v0.1
	C137.1,119.2,137.2,119.1,137.2,119.1L137.2,119.1z M138.8,118.7C138.9,118.7,138.9,118.7,138.8,118.7
	C138.8,118.6,138.8,118.6,138.8,118.7C138.8,118.6,138.9,118.7,138.8,118.7C138.8,118.7,138.9,118.7,138.8,118.7z M141.1,119.8
	L141.1,119.8C140.9,119.8,141,119.9,141.1,119.8L141.1,119.8L141.1,119.8z M118,107.8C118,107.9,118,107.8,118,107.8
	c0.1,0,0.2,0,0.1,0.6C117.9,108.3,118,108.1,118,107.8c0.3-0.1,0.6-0.4,0.7-0.7c0-0.1,0.1-0.2,0.2-0.3c0.3-0.2,0.6-0.3,0.8-0.5
	l0.1-0.1c-0.1-0.1-0.1-0.2-0.2-0.4c0.2-0.2,0.3-0.2,0.5-0.3c0-0.1,0-0.2-0.1-0.3l-0.1-0.2c0.1-0.2,0.3-0.3,0.4-0.5
	c0.1-0.3,0.4-0.4,0.8-0.4c0.1,0,0.2,0.1,0.3,0.1c0,0.2,0.1,0.4,0.2,0.6l0.3-0.3c0.3-0.3,0.7-0.5,1.1-0.3c0.3,0.1,0.6-0.1,0.8-0.4
	l-0.1-0.2c-0.2-0.3-0.3-0.3,0-0.6c0.2-0.1,0.4-0.2,0.4-0.3c0.1-0.3,0.4-0.5,0.6-0.7c0.2-0.3,0.6-0.3,0.9-0.6c0.2,0,0.3-0.2,0.2-0.4
	c-0.3,0.2-0.6,0.1-0.7-0.3c0.2-0.2,0.3-0.3,0.6-0.4c0.2,0.3,0.4,0.5,0.7,0.8c0.3,0.3,0.5,0.5,0.8,0.6c0.3-0.2,0.6-0.4,0.9-0.4
	c0,0.1,0,0.1,0,0.1c-0.1,0.2-0.3,0.4-0.6,0.5c-0.5,0.1-0.9,0.4-1.4,0c-0.2-0.2-0.5-0.1-0.8,0c0,0.3,0.4,0.1,0.5,0.3
	c-0.2-0.1-0.4,0.1-0.4,0.2c-0.1,0.1,0,0.2,0.1,0.3c0.3,0.2,0.4,0.3,0.5,0.6c0.3-0.2,0.6-0.3,0.9-0.1c-0.2,0.2-0.5,0.2-0.6,0.2
	c-0.7,0-1.3,0.3-1.9,0.3c-0.1,0-0.2,0-0.4,0.1c0,0.4,0,0.8,0.3,1.2c0.2,0.2,0.1,0.4,0,0.6c-0.3-0.1-0.5-0.2-0.8-0.2s-0.5,0-0.8,0
	c-0.1,0-0.2,0.1-0.2,0.2s0.1,0.2,0.2,0.2c0.2-0.1,0.5,0,0.7-0.1c0.2,0.1,0.2,0.5,0.3,0.7c0.1,0.5,0,1.2,0.2,1.9
	c0,0.2-0.1,0.4-0.1,0.5c-0.1,0.2-0.2,0.5-0.4,0.6c-0.2,0.4-0.4,0.8-0.6,1.2c0,0.3-0.1,0.5-0.3,0.7c-0.1,0-0.1,0.2-0.3,0.1
	c-0.2-0.9-0.5-1.5-0.6-2.4c0.2,0,0.3-0.2,0.5-0.3c0.1-0.1,0.3-0.2,0.2-0.3s-0.2-0.2-0.3-0.2c-0.2,0-0.4,0.1-0.6,0
	c-0.1-0.1-0.1-0.3-0.2-0.4c-0.1-0.2-0.1-0.3-0.2-0.5c-0.2-0.2-0.4-0.4-0.5-0.3s-0.1,0.4-0.1,0.5c0.1,0.4,0.2,0.9,0.3,1.3
	c0,0.4,0.1,0.7,0.4,1c0.2,0.2,0.1,0.4-0.1,0.5c-0.5,0.1-0.5,0.4-0.5,0.7c0,0.2,0,0.4,0.1,0.6c0.1,0.3,0.1,0.5,0.1,0.8
	c-0.1-0.2-0.3-0.3-0.6,0c0.2,0.1,0.3,0.3,0.5,0.5l0.2-0.2c0-0.1,0-0.3,0-0.4c0.1,0.3,0.3,0.7,0.2,1c-0.1,0-0.4-0.1-0.5,0
	c-0.5,0.4-0.9,0.2-1.3,0c-0.9-0.4-1.7-0.7-2.5-1.1c-0.3-0.2-0.5-0.3-0.8-0.3c-0.6,0-0.8-0.4-1-0.9c0.3-0.2,0.6-0.5,0.8-0.9
	c0.1-0.2,0.3-0.4,0.2-0.7c0.1-0.1,0.1-0.2,0.2-0.3c0.2-0.3,0.3-0.4,0.4-0.6C117,108.2,117.5,108,118,107.8L118,107.8z M123,103.9
	C122.9,104,122.9,104,123,103.9c-0.1,0.1,0,0.1-0.1,0.2C123,104.1,123,104.1,123,103.9z M116.7,111.7c0.1,0.1,0.1,0.2,0.2,0.1
	l0.1-0.1c0-0.2,0-0.4-0.1-0.6c0,0,0.2,0.1,0.4,0c0.3-0.2,0.4-0.3,0.3-0.5c-0.2-0.2-0.4,0-0.6,0.1c-0.1,0-0.2,0.2-0.2,0.3
	c-0.1,0.1-0.2,0.2-0.3,0.3C116.4,111.4,116.3,111.5,116.7,111.7z M119.7,111c0.2,0.1,0.5-0.1,0.5-0.5c-0.1-0.3-0.2-0.4-0.6-0.4
	c-0.4,0.2-0.8,0.3-1.2,0.3c-0.2,0-0.2,0.1-0.2,0.4c0.2,0.1,0.4,0.2,0.6,0.1C119.1,110.9,119.3,110.9,119.7,111z M117.9,111
	c-0.1,0-0.3-0.1-0.4,0.1c0,0.1,0,0.2,0.1,0.3c0.2,0.1,0.4,0,0.4-0.1C118,111.2,118.1,111,117.9,111z M124.8,103
	c0.1,0.1,0.2,0,0.2-0.1l-0.2-0.2c0,0-0.2,0.1-0.3,0.1C124.6,102.8,124.7,102.9,124.8,103z M118.8,112.5L118.8,112.5
	c-0.2-0.1-0.2-0.1-0.3,0c-0.1,0,0,0.1,0,0.1C118.5,112.7,118.7,112.6,118.8,112.5z M115.5,111.2L115.5,111.2
	C115.4,111,115.4,111.1,115.5,111.2C115.4,111.2,115.4,111.2,115.5,111.2z M28.2,19.4c-0.7,0.1-1.1-0.4-1.6-0.8c0,0,0,0,0-0.1
	c0.1-0.1,0.1-0.2,0.2-0.1c0.6,0.2,0.8-0.3,1.2-0.5c0.1,0,0.2-0.2,0.1-0.3c0-0.2-0.1-0.3-0.2-0.4c-0.5-0.1-0.8,0.1-1.1,0.4l-0.4-0.2
	c-0.1-0.5-0.3-0.8-0.5-1.2s-0.2-0.8-0.3-1.2c-0.1-0.2-0.1-0.4,0.1-0.5c0.2-0.2,0.4-0.5,0.4-0.9c-0.1,0-0.2,0-0.3,0.1
	c-0.3,0.2-0.4,0.2-0.6,0c-0.1-0.2-0.1-0.4-0.2-0.6c-0.1-0.6-0.3-1.1-0.5-1.7c-0.3-0.8-0.5-1.7-0.8-2.5c0-0.1,0-0.3,0-0.4
	c0-0.1,0-0.2,0.1-0.3C24,8,24,7.6,24.4,7.4c0.1,0,0.2-0.1,0.2-0.2c0.2-0.4,0.4-0.9,0.9-1.1c0.1-0.5,0.7-0.7,0.6-1.3
	c-0.1-0.1,0-0.1,0.1-0.2c0.5-0.3,0.8-0.7,1.1-1.2c0.5-0.3,1.1-0.6,1.8-0.5c0.8,0.1,1.6,0.5,2.4,0.7c0.1,0.6,0.2,1,0,1.6
	c-0.1-0.1-0.2,0.1-0.3,0c0,0-0.2-0.2-0.3-0.2s-0.2,0-0.3,0.1c0,0,0,0.1,0.1,0.2c0.1,0,0.3,0.2,0.4,0.2c0.3,0.2,0.5,0.5,0.5,0.9
	c-0.6,0.3-1.1-0.2-1.6,0c0.2,0.2,0.4,0.3,0.5,0.5c0.1,0,0.1,0.1,0.1,0.1c0,0.1-0.1,0.1-0.2,0.2c-0.3,0.1-0.4,0.1-0.6,0
	c-0.6-0.2-1.1-0.3-1.4-0.8c-0.1-0.2-0.3-0.1-0.4,0.1c0,0.1,0,0.3,0,0.4c0.4,0.1,0.9,0.3,1.4,0.8c-0.5-0.2-0.7-0.2-1.1-0.2
	c-0.3,0-0.6,0-0.9,0c-0.1,0-0.1,0-0.2,0.1c-0.3,0.2-0.3,0.6-0.3,1C27,9,27.2,9.1,27.5,9.3c0.7,0.4,1.4,0.8,2.1,1.2
	c0.6,0.2,1.1,0.5,1.6,0.8c0.3,0.2,0.5,0.2,0.5,0.6c0.1,0.1,0,0.2,0,0.3l-0.2-0.1c-0.1-0.4-0.3-0.5-0.7-0.5c-0.3,0-0.5-0.1-0.8-0.1
	l-0.2,0.2c-0.5-0.2-0.8-0.8-1.4-0.8C28.3,11,28.2,11,28,11.1c-0.2,0-0.3,0.2-0.2,0.4c0,0.2,0.1,0.3,0.2,0.4c0.2,0.2,0.5,0.4,0.6,0.7
	c0.2,0.3,0.5,0.4,0.5,0.8c-0.1,0.1,0,0.1,0.1,0.2c0.2,0.1,0.3,0.2,0.5,0.3c0,0,0,0.1,0.1,0.2c-0.2,0.1-0.3,0.3-0.5,0.4L29,14.1
	c-0.3,0.1-0.5,0.2-0.7,0.3c-0.1,0.3,0.1,0.6-0.1,0.8l-0.7-0.8c-0.1-0.1-0.2-0.1-0.3-0.2c0,0.1,0,0.1,0,0.1c0,0.1,0,0.2,0.1,0.3
	c-0.1,0.2-0.1,0.3-0.3,0.5c-0.1-0.1-0.2-0.3-0.3-0.3c-0.1-0.1-0.2-0.1-0.3,0s-0.1,0.2,0,0.3c0.2,0.1,0.4,0.3,0.5,0.5
	c0.1,0.3,0.2,0.5,0.3,0.8c0.2-0.1,0.4-0.2,0.5-0.2s0.4,0.2,0.4,0.3c-0.2,0.5,0,0.7,0.3,1c0.1,0.2,0.1,0.4,0.2,0.6
	c0,0.1-0.1,0.2-0.1,0.2c-0.2,0.3-0.3,0.6,0,0.9c0.1,0.1,0.1,0.2,0.2,0.4C28.6,19.6,28.5,19.4,28.2,19.4z M25.2,8.1
	c0.1,0.2,0.3,0.1,0.5,0s0.1-0.2-0.1-0.4l-0.1-0.2l-0.3-0.4c-0.1,0.1-0.1,0.3,0,0.3s0.2,0,0.3,0.1c0.1-0.1,0.1-0.1,0,0
	C25.3,7.7,25.3,7.8,25.2,8.1z M25.8,9.5c-0.1,0.1-0.3,0.3-0.1,0.2c0,0.3-0.1,0.5-0.2,0.7c-0.1,0-0.3,0-0.4,0L25,10.3
	c-0.1-0.1-0.1-0.4-0.4-0.3c-0.2,0.1-0.1,0.4-0.1,0.5c0,0.2,0,0.4,0,0.5c0.3,0,0.5,0.1,0.8,0.1c-0.2,0.4,0.2,0.7,0.5,0.9
	c0.3-0.2,0.4-0.4,0.7-0.4l0.2-0.2c0.4-0.5,0.4-0.6,0.2-1.2c0,0,0.2,0,0.3,0c0.2-0.1,0.2-0.4,0-0.5s-0.3-0.3-0.4-0.5
	c-0.2,0.1-0.4,0-0.6,0.1l-0.1-0.1c0-0.1-0.1-0.2-0.3-0.1C25.6,9.3,25.7,9.4,25.8,9.5L25.8,9.5z M24.6,8.2L24.6,8.2l-0.1,0.1
	c0.1,0,0.1,0.1,0.2,0.2c0.2,0.2,0.4,0.5,0.8,0.3c0,0,0.3,0,0.2-0.1c-0.1-0.1,0-0.1-0.1-0.2l-0.2-0.2C25.1,8,25,8.1,24.7,8.5
	C24.7,8.5,24.7,8.4,24.6,8.2z M26,12.3c-0.1,0-0.2,0-0.4,0.1c-0.2,0.1-0.3,0.3-0.2,0.6c0.2,0,0.4,0.1,0.5,0.1
	c0.1,0.1,0.3,0.2,0.5,0.3c0.1-0.1,0-0.2-0.1-0.2s-0.3,0-0.4,0c0.1-0.5,0.6-0.4,1-0.6C26.5,12.2,26.5,12.2,26,12.3z M27.2,6.8
	c0.2-0.1,0-0.3-0.1-0.3c-0.3-0.2-0.6-0.2-1.1-0.2c0.4,0.3,0.6,0.4,0.9,0.6C27.1,6.9,27.2,6.9,27.2,6.8z M28.7,6.2
	c0.1,0,0.2,0,0.3-0.1c0.1-0.2,0-0.3,0-0.4c-0.1,0-0.2,0-0.3,0.1C28.6,5.9,28.6,6.1,28.7,6.2z M27.3,11.2c0,0-0.1,0-0.2,0.1
	c0.1,0,0.1,0.1,0.2,0.2c0,0,0.1,0,0.2-0.1L27.3,11.2z M27.5,6.1C27.6,6.1,27.5,6,27.5,6.1c-0.1-0.2-0.2-0.1-0.2,0H27.5z M24.2,9.5
	C24.2,9.6,24.2,9.5,24.2,9.5L24.2,9.5C24.1,9.5,24.2,9.6,24.2,9.5z M28,5.8L28,5.8C27.9,5.8,27.9,5.9,28,5.8L28,5.8
	C28,5.8,27.9,5.8,28,5.8z M61.1,82c0,0-0.1-0.2-0.4-0.1c-0.2,0-0.2,0.2-0.2,0.3c-0.2-0.2-0.3-0.3-0.6,0c0,0.3,0.1,0.5,0,0.3
	c0.1,0.3,0.3,0.6,0.1,0.9c-0.1,0.1,0,0.2,0.1,0.3c0,0.1,0.3,0,0.1,0.3c-0.2-0.1-0.4,0-0.6,0.2c-0.2,0.2-0.3,0.3-0.5,0.6
	c-0.2,0.1-0.3,0.3-0.5,0.4c-0.1,0.1-0.2,0.1-0.4,0.2c-0.3,0.2-0.6,0.3-1,0.3c-0.3,0-0.6,0-0.7-0.2c-0.2-0.3-0.7-0.6-0.8-1
	c-0.2-0.5,0.1-0.9,0.3-1.3c0.2-0.5,0.6-0.7,1.1-0.4c0.2,0.2,0.4,0.3,0.5,0.3c0.2,0,0.3-0.1,0.4-0.2c0,0,0-0.1-0.1-0.2
	c-0.3-0.1-0.4-0.5-0.5-0.8c0-0.1,0-0.2-0.1-0.3v-0.1l0.3-0.3c0,0,0.1,0,0-0.1c-0.1-0.4,0-0.5,0.3-0.6c0,0.1,0,0.1,0.1,0
	c0.5-0.2,0.5-0.2,0.3-0.6c-0.1-0.1-0.3-0.3-0.1-0.4c0.1-0.1,0.2-0.1,0.4-0.2c0.2,0,0.2-0.1,0.4-0.2c-0.2-0.3-0.3-0.6-0.6-0.9
	l0.3-0.6c0.2-0.3,0.3-0.5,0.3-0.8c0.2-0.5,0.5-0.8,1.1-0.9c0.2,0.1,0.3,0.1,0.4,0l0.3-0.3c0.4-0.5,0.6-1.4,0.1-1.9
	c-0.1-0.2-0.2-0.5-0.4-0.7c0.1-0.2,0.2-0.4,0.4-0.5c0.5-0.2,0.8-0.8,1.1-1.2c0-0.1,0.2-0.3,0.2-0.4c0.3,0.1,0.5,0.3,0.7,0.1
	c0.3-0.1,0.4-0.3,0.4-0.6c0-0.2,0.1-0.2,0.2-0.3c0.3,0.2,0.4,0.3,0.6,0.4c0.3,0.2,0.7,0,0.7-0.4c0-0.1,0-0.4,0-0.5
	c0.5,0.1,1,0.1,1.2,0.7c0.1,0.1,0.2,0.1,0.3,0.2c0,0.1,0.2,0.1,0.3,0.1c0.3,0.2,0.3,0.5,0.1,0.6c-0.2,0.3-0.4,0.4-0.5,0.7
	c-0.1,0.2-0.2,0.5-0.3,0.8c0,0-0.2,0.1-0.3,0.1c-0.5,0.1-1,0.3-1.4,0.4s-0.8,0.1-1.1,0.5c-0.2,0.3-0.3,0.5,0,0.8
	c0.2,0.3,0.5,0.3,0.8,0.3c0.2,0.3,0.3,0.4,0.4,0.7c-0.3,0.2-0.6,0.3-0.8,0.5c-0.1,0.3,0.1,0.4,0.2,0.6c0.2,0.2,0.4,0.2,0.5,0.4
	c0,0.1,0,0.4-0.2,0.3c-0.2,0.1-0.5,0-0.7,0.1c-0.3,0-0.6-0.1-0.8,0c-0.3,0.2-0.1,0.6-0.3,0.8c-0.2,0.1-0.4,0.1-0.5-0.1
	c-0.3-0.1-0.5-0.4-0.8-0.6c-0.1-0.1-0.2-0.1-0.4,0C60.3,77.8,60,78,59.6,78c0,0-0.1,0-0.2,0.1c-0.1,0.1-0.2,0.3-0.1,0.5
	c0,0.2,0.2,0.2,0.3,0.2c0.4,0.1,0.9,0,1.3,0c0.2,0,0.3,0.1,0.3,0.2c-0.5,0.1-0.8,0.3-1,0.6c0.1,0.3,0.3,0.4,0.6,0.4
	c0.4,0,0.8-0.1,1.2-0.3c0.5-0.4,1-0.2,1.6-0.2c0.2-0.1,0.3,0.1,0.4,0.3c0,0.2,0,0.3,0.1,0.4c0,0.1,0.1,0.2,0.1,0.2
	c0.1,0.2,0.5,0,0.6,0.3c-0.2,0.5-0.2,0.5-0.4,0.6c-0.7,0.4-1.4,0.4-2.1,0.3c-0.1,0.3-0.4,0.5-0.6,0.8c-0.4,0.1-0.7-0.1-0.9-0.3
	C60.9,82.1,61.1,82.1,61.1,82L61.1,82z M59.9,82.1c-0.1-0.4-0.2-0.8-0.1-1.1c-0.1-0.3-0.3-0.3-0.4,0c-0.2,0.3-0.3,0.4-0.6,0.5
	c-0.1,0.1-0.2,0.2-0.2,0.3c0,0.5,0,1,0.1,1.4c0,0.2,0.1,0.3,0.3,0.4c0.1,0,0.4-0.1,0.5-0.3c0.1-0.2,0.2-0.5,0.4-0.9
	C59.9,82.4,59.9,82.2,59.9,82.1L59.9,82.1z M57.3,84.9c0.5,0.1,0.7,0.4,1.2,0.5l0.2-0.2c0.4-0.3,0.4-0.4,0.1-0.8l-0.2-0.2
	C58.4,84,58.2,84,58,84.1c-0.3,0.3-0.7,0.2-1.1,0C56.7,84.7,56.8,84.9,57.3,84.9z M63.4,71.7c-0.4,0.1-0.6,0.1-1,0.1
	c-0.1,0.5-0.3,0.9,0.1,1.2c0.8,0,1-0.4,1.3-0.8C63.8,71.9,63.6,71.8,63.4,71.7z M65.1,72.2c0.3-0.1,0.5-0.2,0.8-0.3
	c0.1-0.2,0.1-0.4,0-0.6c-0.2-0.2-0.3-0.4-0.5-0.3c-0.1-0.1-0.3,0-0.4,0.2s-0.2,0.3-0.3,0.5c0,0.1,0,0.1,0.1,0.2
	C64.8,71.9,64.8,72,65.1,72.2z M62.1,80.2c0,0-0.2-0.2-0.3-0.2c-0.5,0.1-0.6,0.4-0.5,1c0.2,0,0.4-0.1,0.6-0.2
	C62,80.6,62,80.4,62.1,80.2z M49.3,25.7c0.1,0.3,0.3,0.6,0.5,0.8c0,0.4-0.1,0.9-0.3,1.2c-0.1,0.3-0.2,0.5-0.2,0.6
	c0,0.6-0.3,1.1-0.6,1.6c-0.3,0.3-0.4,0.7-0.4,1.1s-0.1,0.7-0.4,1c-0.2,0-0.2,0.1-0.3,0c-0.7-0.5-1.3-0.7-2.1-1
	c-0.5-0.2-1.1-0.6-1.6-0.9c-0.1,0.1-0.1,0-0.2-0.1c-0.2-0.1-0.3-0.3-0.2-0.5c0.1-0.7,0.3-1.3,0.5-1.9c0.2-0.3,0.2-0.5,0.5-0.8
	c0.1-0.1,0.3-0.3,0.2-0.4c-0.3-0.5,0-0.9,0.1-1.4l0.1-0.1c0.2,0.1,0.4,0,0.6,0.1c0.2-0.5,0.6-0.8,1.1-0.8c0,0.1,0.1,0,0.1,0
	c0.4-0.1,0.6-0.5,0.4-0.9c-0.2-0.3-0.2-0.5-0.4-0.7c-0.2-0.3-0.3-0.6-0.6-0.9c0-0.1-0.2-0.3,0-0.4c0.2,0.1,0.6,0.3,0.8,0.1
	c0.4-0.3,0.8-0.2,1.2-0.3c0.5-0.1,0.9,0,1.3,0c0.4,0.1,0.8,0.2,1,0.6c0.1,0.3,0.5,0.4,0.9,0.4c0.3,0,0.4-0.3,0.6-0.4l0.1,0.1
	c-0.4,0.6-0.9,1.3-1.3,1.9c-0.2,0.3-0.5,0.5-0.9,0.5c-0.3,0-0.6,0.1-0.9,0.1c-0.5-0.4-0.6-0.4-0.7-0.3c-0.2,0.2-0.1,0.5-0.2,0.7
	s-0.1,0.5-0.1,0.8c-0.1,0.1-0.1,0.2,0,0.3c0.5,0.1,0.7-0.3,0.9-0.4c0.4,0.1,0.4,0.3,0.5,0.5c-0.3,0.2-0.3,0.2-0.1,0.6
	C49.2,26.3,49.3,26.1,49.3,25.7z M47.8,28.4c-0.3,0.1-0.2,0.5-0.1,0.8c0.1,0.1,0.2,0.1,0.4,0c0.2-0.2,0.4-0.5,0.6-0.8
	c-0.1-0.3-0.3-0.4-0.5-0.3C48,28.3,47.9,28.2,47.8,28.4z M46.5,28.5c0,0.3,0.3,0.3,0.4,0.3s0.3-0.2,0.3-0.3c0-0.2,0-0.4-0.3-0.5
	C46.8,28.2,46.6,28.4,46.5,28.5z M45,26C44.9,26,45,26.1,45,26c0,0.1,0.2,0.1,0.3,0.1c0-0.2-0.1-0.3-0.1-0.3
	C45.1,25.8,45,25.8,45,26z M47.4,31.3C47.4,31.3,47.4,31.2,47.4,31.3C47.3,31.2,47.3,31.2,47.4,31.3L47.4,31.3z M45.7,28.6
	L45.7,28.6C45.7,28.7,45.7,28.6,45.7,28.6z M56.4,54.5c0.2-0.1,0.4,0,0.6-0.1c0.4-0.3,0.9-0.2,1.4-0.2s0.9,0.2,1.2,0.6
	c0.5,0.5,0.9,0.9,1.4,1.3c0.1,0,0.1,0.1,0.2,0.2c0,0.4,0.5,0.8,0.2,1.3c0.1,0.3-0.4,0.5-0.4,0.8c0.3,0.4,0.8,0.7,0.8,1.2l0.5,0.3
	c-0.3,0.4-0.7,0.7-1.1,0.8c-0.2,0-0.3,0.1-0.4,0.2c-0.2,0.4-0.6,0.4-1,0.4c-0.3,0-0.5,0-0.8,0.1c-0.5,0.3-1,0.7-1.6,0.6
	c0,0-0.1,0-0.2,0.1c-0.2,0.4-0.5,0.3-0.9,0.3c-0.3,0-0.6-0.1-0.8-0.5l-0.3-0.4c-0.1-0.1-0.2-0.3-0.2-0.4c0-0.3-0.1-0.6,0.1-0.9
	c0.1,0,0.1-0.2,0.1-0.3c0.1-0.6,0.1-1.2,0.1-1.8c-0.1-0.1-0.1-0.2-0.1-0.2c-0.5-0.2-0.3-0.6-0.4-0.9c-0.2-0.2-0.2-0.6,0-0.9
	c0.1-0.1,0.4-0.3,0.3-0.5c-0.1-0.3-0.3-0.3-0.4-0.5c-0.1-0.1-0.1-0.1-0.1-0.2c0.2-0.1,0.3-0.2,0.4-0.2C55.5,54.6,56,54.7,56.4,54.5z
	 M57.8,59.1c0.1-0.2,0.1-0.5-0.1-0.6c0-0.1-0.2-0.2-0.3-0.1c-0.2,0-0.4,0.3-0.4,0.6s0.1,0.6,0.4,0.6C57.7,59.5,57.8,59.2,57.8,59.1z
	 M57,55.8c-0.1,0-0.2,0-0.3,0.1c-0.2,0.1-0.1,0.5,0.2,0.7c0.1,0.1,0.3,0.2,0.5,0.3c0.1-0.3,0.2-0.5,0.2-0.6
	C57.6,55.9,57.4,55.7,57,55.8z M60.2,58.5l-0.1-0.2c-0.1,0-0.3,0.3-0.3,0.4c0,0.1,0.1,0.2,0.1,0.2C60.2,59.1,60.4,58.8,60.2,58.5z
	 M55.8,59.1c0.1-0.1,0.3-0.2,0.3-0.3L56,58.7c-0.2-0.1-0.2,0.1-0.4,0.2c0.1-0.1,0.1-0.1,0,0C55.6,59,55.6,59,55.8,59.1z M59.4,58.3
	c0.1-0.1,0.1-0.1,0.1-0.2L59.4,58l-0.1,0.1C59.4,58.2,59.3,58.3,59.4,58.3C59.4,58.4,59.5,58.3,59.4,58.3z M58.7,58.2
	C58.5,58.2,58.5,58.2,58.7,58.2C58.6,58.3,58.6,58.3,58.7,58.2L58.7,58.2C58.7,58.2,58.6,58.1,58.7,58.2z M58.2,60.2L58.2,60.2
	C58.2,60.4,58.2,60.3,58.2,60.2L58.2,60.2z M136.2,72C136.2,71.9,136.1,72,136.2,72c-0.1,0-0.1,0-0.1,0.2c-0.1,0.3,0,0.4,0.2,0.5
	c0.2,0,0.3,0.1,0.3,0.2c-0.3,0.2-0.3,0.2-0.6,0.2c-0.4,0-0.8,0.1-1.2,0.4c-0.1,0.1-0.1,0.1-0.2,0.1c-0.1-0.3-0.6-0.5-0.9-0.6
	c-0.6-0.2-0.9-0.5-1.4-0.8c-0.1-0.1-0.2-0.3-0.2-0.4c-0.2-0.9-0.2-1.8-0.1-2.7c0-0.3,0.1-0.5,0.2-0.7c0.2-0.7,0.5-1.4,0.8-1.9
	c0.1-0.2,0.2-0.4,0.1-0.6c0-0.1,0-0.2,0.2-0.3c0.2-0.1,0.1-0.2,0.1-0.3c0-0.1,0-0.2-0.1-0.3l0.4-0.3c0-0.2,0-0.5,0-0.6v-0.3
	c0.1-0.3,0.4-0.5,0.7-0.3c0.5,0.3,1.1,0.4,1.7,0.6c0.4,0.1,0.8,0.3,1.2,0.3c0.3,0,0.6,0.2,0.8,0.3c0.4,0.1,0.6,0.4,0.7,0.8
	c0,0.3,0,0.5-0.2,0.6l-0.1-0.1c-0.2-0.2-0.2-0.4-0.5-0.3c-0.2,0.2-0.1,0.4-0.2,0.6c0,0.1,0,0.1,0,0.1c0.1,0.4-0.1,0.9-0.2,1.3
	c-0.1,0.4-0.1,0.9-0.5,1.2c-0.1,0-0.1,0.2-0.1,0.3c0,0.1,0,0.2-0.1,0.3c-0.4,0.2-0.4,0.5-0.3,0.8c0,0.2,0.1,0.5-0.1,0.7
	c-0.2,0.2-0.1,0.4,0,0.6C136.6,71.8,136.6,72,136.2,72L136.2,72L136.2,72z M134,69.3C133.9,69.2,133.9,69.3,134,69.3l0.2-0.2
	c0.1,0,0-0.1,0-0.1c-0.1,0.1-0.1,0.1-0.1,0.1C134,69.2,134.1,69.2,134,69.3C133.9,69.3,133.9,69.3,134,69.3z M135.3,66.8l-0.2,0.1
	c-0.1,0.2-0.1,0.3,0,0.4c0.1,0.2,0.4,0.3,0.7,0.4c-0.2-0.3-0.3-0.5-0.4-0.7C135.4,66.8,135.3,66.8,135.3,66.8z M134,70.3
	c-0.1,0.1-0.2,0.2-0.2,0.3c0,0.2,0.1,0.3,0.3,0.4c0.2,0,0.3-0.2,0.2-0.4C134.3,70.5,134.2,70.4,134,70.3z M133.9,67.3
	c0.1,0,0.1-0.2,0.1-0.3h-0.1c-0.2,0.1-0.3,0.3-0.3,0.4c0.1,0,0.1,0.1,0.2,0.2C133.9,67.5,134,67.6,133.9,67.3z M133.1,68.1
	c0-0.1,0-0.2-0.1-0.3c0,0-0.1,0.1-0.2,0.1c0,0.1,0,0.2,0.1,0.3C133,68.3,133,68.3,133.1,68.1z M135.1,68.6l-0.1,0.1
	c-0.1,0,0,0.1,0,0.1s0,0.1,0.1,0C135.1,68.8,135.1,68.8,135.1,68.6z M138.2,65C138.3,65,138.3,65,138.2,65L138.2,65
	C138.2,65.1,138.3,65,138.2,65z M16.7,13.9c0.1,0.3,0.1,0.5,0.2,0.7c-0.1,0.1-0.3,0.2-0.5,0.3c0.3,0.2,0.6,0.1,0.9-0.2
	c0.3,0.2,0.5,0.3,0.8,0.5c0.4,0.1,0.7,0,1.1-0.3c-0.4,0-0.7-0.2-1.1-0.2c-0.2,0.1-0.3,0.1-0.3-0.2c0.5,0,0.9,0,1-0.6
	c-0.3-0.3-0.4-0.6-0.6-1.3c0-0.1,0-0.3,0-0.4c0.3,0.2,0.5,0.3,0.5,0.4c0.1,0.5,0.5,0.9,0.7,1.3c0.2,0.5,0.5,0.6,1,0.6
	c0.2,0,0.5,0,0.6,0.3s0.3,0.2,0.5,0.3c0.1,0.3,0.1,0.6,0.2,0.9c0.4,0.1,0.3,0.6,0.5,1c-0.2,0.2-0.5,0.2-0.4,0.5
	c0.5,0.2,0.7,0.3,1,0.5c-0.6-0.1-0.6,0-0.6,0.5c-0.1,0.2,0,0.3,0,0.4c-0.1,0.2-0.1,0.3-0.3,0.4c-0.2-0.1-0.4-0.2-0.7-0.4
	c-0.2-0.1-0.3-0.4-0.7-0.4c-0.1,0.1-0.1,0.2-0.1,0.2c0,0.5,0.2,0.9,0.8,0.9c0.3,0.9,0.6,1,1.5,1.3c0.4,0.1,0.8,0.2,1.1,0.5
	c0.2,0.2,0.5,0.2,0.6,0.2s0.3,0.1,0.4,0.2c0.2,0.3,0.5,0.6,0.6,1c-0.1,0.3,0,0.5,0.1,0.8c-0.2,0.1-0.4,0.1-0.5-0.1
	c-0.5-0.6-1.1-0.8-1.6-1.3h-0.1c-0.4,0.2-0.3,0.4-0.2,0.7c0.2,0.3,0.3,0.6,0.5,0.8h0.1c0,0,0.2-0.1,0.4-0.2c0.2,0.6,1,0.4,1.2,1.1
	c0,0,0.1,0.1,0-0.1c0.4,0.1,0.5,0.3,0.7,0.5c0.5,0.5,0.6,1.1,0.9,1.6c0.1,0.1,0.1,0.2,0,0.3c0,0-0.1,0.2-0.2,0.1
	c-0.4-0.1-0.8-0.4-1.3-0.7l-0.1-0.2c0-0.1,0.1-0.2,0.1-0.3c-0.6-0.3-0.8-0.4-1.3,0c-0.1-0.1-0.2,0.1-0.4,0.2c-0.1,0.1-0.2,0.1-0.3,0
	c0-0.1-0.1-0.2-0.1-0.3l0.2-0.1c0.4,0,0.6-0.3,0.8-0.5c-0.4-0.7-0.8-1.3-1.7-1.2c-0.4,0-0.7-0.4-0.8-0.8c0.3,0.1,0.5,0.5,0.8,0.1
	c-0.1-0.2-0.5-0.2-0.4-0.5c0.2-0.3,0.6-0.1,0.6-0.5c-0.2-0.3-0.7-0.1-1-0.3c-0.1-0.4-0.2-0.7-0.3-1c-0.4-0.1-0.7-0.2-1-0.4
	c-0.5-0.2-0.8-0.3-1.3-0.3S18.4,20,18,19.8c-0.2,0-0.1-0.3-0.2-0.4c0.4,0.1,0.6-0.1,0.7-0.4c-0.2-0.3-0.3-0.6-0.5-0.8
	c0.4,0,0.3-0.4,0.5-0.5c0.8,0.6,1.3,0.6,1.9-0.3l-0.5-0.5c-0.2-0.2-0.5-0.2-0.6-0.2c0.2-0.6,0.1-0.8-0.5-0.8c0,0.5,0.2,0.7,0.5,0.8
	c-0.2,0.2-0.4,0.3-0.6,0.4l-1.3-0.6c0-0.2-0.1-0.4-0.2-0.6c0,0,0.2,0.1,0.1,0.1s-0.2,0-0.3,0.1c-0.3,0.4-0.4,0.6-0.6,0.9
	c-0.4-0.1-0.8-0.2-1.2-0.2c-0.1-0.3-0.1-0.5-0.2-0.7c0.6,0,0.9-0.4,1.5-0.5c0.1-0.2,0.1-0.3,0-0.4c-0.2-0.2-0.5-0.4-0.7-0.6
	c-0.1-0.1-0.2,0-0.3,0c-0.1,0.2-0.1,0.4,0,0.6c-0.2,0.1-0.5,0.1-0.6,0.1c-0.1-0.3-0.2-0.5-0.4-0.7c-0.2-0.3-0.2-0.5-0.4-0.7
	c-0.2-0.3-0.4-0.5-0.5-0.8c-0.2-0.3-0.1-0.5-0.2-0.7c0.2,0.2,0.3,0.4,0.5,0.6c0.4,0.4,0.5,0.4,0.9-0.1c0.3-0.4,0.5-0.4,0.9-0.1
	c0.1,0.2,0.2,0.2,0.3,0.4c0.2-0.1,0.4,0,0.6-0.1c0.2,0.3,0.5,0.6,0.6,1C17.2,14.2,17,14.3,16.7,13.9z M19.9,16.2
	c0.1,0.2,0,0.5,0.4,0.5c0.1-0.4,0.2-0.8-0.3-1.1c-0.1,0-0.1-0.2-0.1-0.2c0-0.2,0-0.1-0.1-0.2l-0.1,0.1c0,0,0,0.1,0.1,0.2
	c0.1,0.1,0.1,0.1,0.2,0.1C19.9,15.8,19.7,16,19.9,16.2z M18.7,19.5c0.2,0.1,0.9,0.5,1,0.4l0.2-0.1c-0.1-0.3-0.4-0.3-0.4-0.7
	c0-0.4-0.2-0.4-0.6-0.3c0-0.1,0-0.1-0.1,0c-0.1,0,0-0.1,0-0.1l-0.1,0.1c0,0.1,0.2,0.2,0.3,0.4C18.9,19.3,18.7,19.4,18.7,19.5z
	 M21.1,16.1L21,15.9c0,0-0.1,0-0.2,0.1c-0.3,0.1-0.3,0.1-0.1,0.5C20.9,16.5,21,16.4,21.1,16.1z M17.9,16.6c0.1-0.1,0.1-0.1,0.2-0.1
	C18,16.4,18,16.3,18,16.3c-0.1-0.1-0.2-0.3-0.3-0.2C17.6,16.3,17.7,16.4,17.9,16.6z M16.1,16.1c-0.2,0.1-0.3,0.1-0.5,0.2
	C15.8,16.4,16,16.4,16.1,16.1z M21.2,17.8l-0.1-0.1c-0.1-0.1-0.2-0.2-0.3-0.2c0,0.1,0.1,0.2,0.1,0.2C21,17.8,21.1,17.7,21.2,17.8z
	 M63.3,39.7c-0.1,0-0.3,0-0.3-0.1c-0.2,0.1,0,0.2,0.1,0.3V40l0.1,0.1c0-0.1,0-0.1,0-0.1c0.1,0,0-0.1,0-0.1s0.2-0.1,0.4-0.2
	c0.2,0.3,0.2,0.5,0.3,0.7c0.5,0,0.7-0.4,0.8-0.6c0.1-0.4-0.3-0.4-0.1-0.6c0.4,0.2,0.4,0.2,1,0.1c0.4-0.1,0.5-0.3,0.7-0.6
	c0.1-0.2,0-0.4,0.3-0.5c0,0.4-0.1,0.7-0.1,1c-0.3,0.1-0.6,0.2-0.8,0.4c-0.6,0.3-0.6,0.3-0.7,1.1c-0.1,0.1-0.1,0.1,0,0
	c-0.6,0.6-1.1,1.1-1.7,1.6c-0.2-0.3-0.4-0.5-0.7-0.6l-0.2-0.2c-0.1-0.1-0.1-0.3-0.2-0.5c0.5-0.6,0.3-1.2,0-1.7
	c-0.1,0.1-0.2,0.1-0.2,0.1c-0.4,0.2-0.8,0.4-1.2,0.2h-0.1c0,0.1-0.1,0.1-0.2,0.2c0,0,0,0.1,0.1,0.2c0.1,0.3,0.4,0.2,0.4,0.5
	c-0.3-0.1-0.5-0.2-1-0.7c0-0.2,0-0.5,0-0.6s-0.1-0.3,0-0.4c0.1-0.3,0.2-0.7,0.6-0.7c0.5-0.1,0.5-0.4,0.5-0.7s0-0.4,0.1-0.6
	c0.3-0.3,0.6-0.6,0.8-0.9c0.2-0.3,0.4-0.5,0.5-0.7c0.2-0.3,0.4-0.3,0.7-0.3c0.6,0,1-0.2,1.4-0.4c0.2-0.5,0.3-1,0.1-1.4
	c0-0.1-0.1-0.1-0.1-0.3s0.1-0.4,0.1-0.5c0.5,0.1,0.8,0.1,1.1-0.4c-0.1-0.1,0.2-0.1,0.3-0.1c0.1,0,0.3-0.2,0.3-0.3
	c0-0.3,0.1-0.6,0.1-0.9c-0.1-0.1-0.1-0.2-0.2-0.4c-0.2,0.1-0.3,0.1-0.4,0.2s-0.2,0.2-0.3,0.3c-0.1,0,0,0.3-0.3,0.1
	c0.3-0.4,0.4-0.7,0.6-0.9c0.3-0.3,0.6-0.3,1-0.5c0.1-0.2,0.2-0.4,0.3-0.6c0.1,0,0.2-0.2,0.3-0.1c0.4,0.1,0.6,0.6,0.6,1
	c0,0.2-0.2,0.5-0.2,0.8s0,0.6,0,0.9c-0.1,0.6-0.2,1.3-0.2,1.9c0,0.2-0.2,0.5-0.4,0.7c0,0-0.2,0.1-0.4,0.2c-0.3,0.1-0.4,0.2-0.5,0.4
	c-0.1,0.4-0.4,0.7-0.7,1.1c-0.1,0-0.3-0.1-0.6-0.1c0.1,0.2,0.1,0.4,0.2,0.5s0.3,0.2,0.3,0.3c0,0.6,0.4,1,0.6,1.6
	c-0.3,0.1-0.6,0.3-0.8,0.5c0,0.1-0.2,0-0.3-0.1c-0.2-0.1-0.3-0.3-0.2-0.5c0.1-0.1,0.1-0.2,0-0.3l-0.1-0.2c-0.1,0-0.2,0.1-0.2,0.2
	c-0.2-0.2-0.6-0.1-0.9-0.3c-0.5-0.2-0.9,0-1.3,0.2c-0.2,0.2-0.3,0.4-0.2,0.7c0.1,0.2,0.2,0.4,0.3,0.7c0,0.1,0,0.1,0.1,0.2
	c0.1,0,0.4,0,0.5,0c0.3,0.2,0.5,0.4,0.5,0.8C63.5,39.8,63.4,39.7,63.3,39.7L63.3,39.7z M65.7,33.2c0.2,0.1,0.4,0.2,0.6,0.1
	c0.3,0,0.4-0.3,0.3-0.5l-0.5-0.5c-0.1,0.1-0.3,0.1-0.4,0.2C65.3,32.7,65.4,33.1,65.7,33.2z M67,31c0,0,0.3,0,0.2-0.1L67,30.7
	c0,0-0.1,0.1-0.2,0.1C66.9,31.1,66.9,31.1,67,31z M63,41L63,41L63,41L63,41C63,40.9,63.1,41,63,41z M32.5,50.6
	c0.3,0.1,0.7,0.2,0.7,0.6c-0.1,0.1-0.2,0.2-0.3,0.4c-0.2,0.6-0.7,0.7-1.1,0.8c-0.2,0-0.4,0-0.5,0c-0.2,0-0.3,0.1-0.4,0.2
	c-0.1,0-0.1,0.2,0.1,0.2s0.5,0,0.6,0c0.1,0.5-0.2,0.5-0.5,0.6C31,53.6,31,53.8,30.8,54c-0.3,0.2-0.6,0.4-0.8,0.6
	c-0.1,0.2-0.4,0.2-0.5,0.2s-0.3,0-0.4,0c-0.3,0-0.5,0.1-0.6,0.4c-0.1,0.2,0,0.4-0.1,0.6c-0.1,0-0.4,0-0.5,0
	c-0.1,0.1-0.3,0.1-0.4,0.2c0.1,0.4,0.1,0.8,0.1,1.2c-0.2,0.1-0.2,0.2-0.4,0.3c0-0.3-0.1-0.5-0.3-0.4c-0.6,0.2-1.3,0.2-1.8,0.7
	c-0.2-0.1-0.5-0.3-0.5-0.3c-0.4-0.5,0.1-1-0.3-1.3c0.3-0.2,0.6-0.3,0.8-0.5c0.2,0,0.4,0,0.5,0.3c-0.2-0.1-0.3,0-0.4,0
	c-0.3,0.1-0.5,0.2-0.4,0.3c0.1,0.2,0.3,0.2,0.4,0.2s0.3-0.1,0.4-0.1c0.1-0.1,0.3-0.1,0.4-0.2l0.8,0.4c0-0.1,0.1-0.3,0-0.4l-0.3-0.4
	c-0.4-0.4-0.4-0.5-0.1-0.9c0.2-0.3,0-0.4-0.1-0.6c0.3-0.2,0.6-0.3,0.8-0.5c0.3,0.1,0.5,0.2,0.7,0.3c0,0,0.1,0,0.2-0.1
	s0.2-0.1,0.1-0.2c-0.1-0.1-0.2-0.3-0.2-0.4c0-0.2,0.1-0.4,0.1-0.5c-0.3-0.2-0.7,0.2-1,0.1c0-0.2,0.2-0.1,0.4-0.2
	c0.3-0.1,0.4-0.3,0.3-0.6c-0.4-0.3-0.8-0.5-1.1-0.7c-0.4-0.2-0.4-0.4-0.3-1c0.2,0.1,0.3,0.2,0.5,0.3c0.1,0.1,0.4-0.1,0.4-0.2
	c0-0.1,0.1-0.3,0-0.5c0-0.2-0.1-0.3-0.2-0.4c0.1-0.5,0.5-0.5,0.8-0.4s0.6,0,0.8-0.3c0.2-0.3,0.5-0.2,0.7-0.3
	c0.5,0.1,0.9-0.1,1.4-0.3c0,0.1,0.1,0.3,0.3,0.4c0.5,0.2,0.6,0.6,0.6,1c0,0.1,0,0.1,0.1,0.2c0.1,0.1,0.2-0.1,0.4-0.2
	C32,50,32,50.2,32.5,50.6z M24.5,57.2c-0.1-0.1-0.2,0.1-0.1,0.3c0,0,0.2,0,0.3,0.2c0.3-0.2,0.4-0.3,0.3-0.5
	C25,57.1,24.8,57,24.5,57.2z M28.5,51.7c0-0.1,0-0.3,0-0.4c-0.2,0.1-0.4,0.2-0.5,0.2C28,51.8,28.2,51.7,28.5,51.7z M29.4,52.9
	l0.2-0.1c-0.1-0.3-0.3-0.4-0.5-0.3C29.1,52.8,29.2,52.9,29.4,52.9z M29.4,52.2l0.2-0.1L29.4,52.2L29.4,52.2L29.4,52.2z M31.3,50.4
	C31.2,50.3,31.2,50.3,31.3,50.4C31.1,50.4,31.1,50.4,31.3,50.4C31.1,50.4,31.2,50.5,31.3,50.4L31.3,50.4z M128.7,113.1
	c0,0-0.1,0-0.2,0.1c0,0,0,0.1,0.1,0.2c0,0.1,0.1,0.2,0.1,0.2c0.5,0.2,0.9,0.5,1.4,0.8c0.6,0.4,1.3,0.8,2,1.1
	c0.4,0.2,0.4,0.3,0.1,0.8c-0.1,0.1-0.2,0.2-0.2,0.3c0,0.5-0.3,0.7-0.5,1c-0.6-0.2-1.1-0.4-1.7-0.6c-0.6-0.3-1.2-0.5-1.8-0.7
	c-0.7-0.2-1.2-0.7-1.9-1c-0.2,0-0.2-0.2-0.3-0.3c0-0.2-0.1-0.2,0-0.3c0.2-0.4,0.2-0.8,0.8-0.9l0.2-0.1c0.2-0.3,0.3-0.4,0.6-0.5
	c0.4-0.2,0.6-0.6,0.4-1c-0.2-0.4,0.2-0.6-0.1-0.9c-0.1,0,0-0.2,0.1-0.3c0.3-0.1,0.3-0.2,0.3-0.5c-0.1-0.4,0.5-0.6,0.8-0.4
	c0.2,0.1,0.3,0.2,0.6,0.1c0.2,0,0.6,0.1,0.8-0.1c0-0.1,0.1-0.3,0-0.5c0.1-0.1,0.1-0.2,0.2-0.1c0.3,0.1,0.7,0.2,1.1,0.2
	c0.1,0,0.2,0,0.3,0.1c0.6,0.4,1.4,0.6,2.1,0.9c0,0,0,0.1,0.1,0.2c-0.1,0.5-0.5,0.8-0.7,1.2c-0.3,0.1-0.4-0.1-0.3-0.3
	c0-0.1,0-0.3-0.1-0.3c-0.4-0.1-0.7-0.2-1.1-0.2c-0.3,0-0.4,0.3-0.3,0.5c0,0.2,0.3,0.2,0.2,0.4c-0.1,0-0.3,0-0.4-0.2
	c-0.2,0.1-0.5,0.2-0.8,0.3c0,0.2,0.2,0.3,0.3,0.5c-0.3,0-0.6,0.2-1,0.2c0-0.2,0.1-0.4,0.2-0.6c0-0.1-0.1-0.2-0.1-0.3
	c-0.3,0.2-0.4,0.4-0.7,0.4c-0.2,0.1-0.5,0.2-0.8,0.3c0.1,0.3,0.3,0.4,0.4,0.6C128.6,113.3,128.3,113.3,128.7,113.1z M128.1,115.2
	H128H128.1L128.1,115.2L128.1,115.2z M52.6,14.7c-0.2,0.1-0.3-0.1-0.2-0.1c-0.4-0.3-0.4-0.3-0.6-0.7c-0.5-0.1-0.7,0.3-1.2,0.3
	c0,0.2,0.1,0.4,0.2,0.4c0.5,0.1,0.9,0.3,1.3,0.6c0.4,0.3,0.7,0.1,1-0.2c0.2,0.1,0.4,0.2,0.6,0.3c-0.1,0.1-0.2,0.3-0.2,0.3
	c0.1,0.3,0.1,0.5,0.2,0.7c0.2,0.1,0.4,0.3,0.5,0.5c-0.1,0.7-0.3,1.4-0.6,1.9c-0.4-0.4,0.3-0.7,0.1-1.1c-0.3-0.2-0.7-0.3-1-0.5
	c-0.4-0.2-0.8-0.2-0.9-0.8c0.2,0.1,0.5,0.1,0.6,0.1l0.2-0.1l-0.1-0.2c-0.2-0.2-0.3-0.2-0.5-0.3c-0.4-0.2-0.9-0.4-1.3-0.6
	c-0.1-0.1-0.1-0.3-0.2-0.4c-0.3,0-0.5,0-0.8,0c-0.2-0.4-0.2-0.6,0.1-0.9c-0.3-0.2-0.5-0.4-0.5-0.8c-0.1-0.3-0.2-0.4-0.4-0.5
	c-0.1-0.1-0.2-0.1-0.3-0.2c0.1-0.3,0.2-0.4,0.3-0.6c0.1-0.2,0.1-0.3,0.1-0.6c0.1-0.3,0.8-0.2,0.9-0.8c0.3-0.5-0.5-0.6-0.4-1.1
	C49.8,9.2,50,9,50.3,8.9c0.7,0.2,1.5,0.3,2.1,0.7c-0.1,0.3-0.1,0.6,0.1,1c-0.1,0.1-0.2,0.1-0.4,0.2c0.1,0.2,0.2,0.4,0.4,0.3
	c0.2-0.1,0.4-0.2,0.6,0.1s0.7,0,0.7-0.4c-0.1-0.3-0.1-0.4,0-0.6c0.1,0,0.2,0,0.3,0.1c0.5,0.4,0.9,0.6,1.4,1c0,0.1,0,0.2,0.1,0.3
	c0,0.4,0.1,0.8-0.2,1.1c-0.2,0.3-0.3,0.5-0.3,0.8c0,0.1-0.2,0.3-0.2,0.4c-0.3,0-0.6,0-0.9,0c-0.1,0.3,0.4,0.6,0,0.9
	c-0.1-0.1-0.4-0.1-0.7-0.1c-0.1-0.1-0.4-0.1-0.4,0.2C52.8,14.8,52.7,14.7,52.6,14.7L52.6,14.7z M53.5,13.6c-0.1,0-0.1,0-0.2,0
	c-0.2,0-0.2-0.2-0.3-0.2c-0.1-0.1-0.2,0.1-0.3,0c-0.3-0.2-0.6,0-1,0.2c0.4,0.1,0.4,0.3,0.4,0.6c0,0,0,0.1,0.1,0.2l0.2-0.1
	c0.2-0.4,0.5-0.4,0.9-0.6L53.5,13.6L53.5,13.6z M51.7,12c-0.3,0.4-0.6,0.4-1.1,0.1c-0.4-0.2-0.8-0.4-1.3-0.5
	C49,11.5,48.9,11.8,49,12c0.2,0.4,0.4,0.6,0.8,0.8c0.2,0.1,0.5,0.2,0.8,0.4c0.2-0.1,0.4-0.1,0.7-0.1c0.4,0.1,0.8-0.1,0.9-0.6
	c0-0.1-0.1-0.3-0.2-0.5C51.9,11.9,51.8,12,51.7,12z M53.2,12.1c-0.1-0.1-0.4,0.1-0.4,0.2c0,0.2,0.1,0.4,0.2,0.4c0.1,0,0.2,0,0.4-0.1
	C53.2,12.5,53.3,12.3,53.2,12.1z M54.4,12.8l-0.1-0.2c-0.2-0.1-0.3-0.3-0.6,0C54,12.7,54.1,12.7,54.4,12.8
	C54.3,12.8,54.4,12.7,54.4,12.8z M54.7,11.5c-0.1,0-0.1,0-0.2,0.1c0,0,0,0.1,0.1,0.2l0.2-0.1L54.7,11.5z M54.8,13.4
	C54.8,13.4,54.9,13.3,54.8,13.4z M39.3,6.6c0-0.1,0.1-0.2,0.2-0.4c0.3,0,0.6,0,0.8,0.1s0.4,0.3,0.6,0.4c0.3,0,0.6-0.1,0.8,0
	c0.4,0.2,0.8,0.2,1.1-0.1c0.3-0.2,0.4,0,0.4,0.3c0,0.1-0.1,0-0.1,0h0.1c0.4-0.2,0.6-0.1,0.9,0.1c0.1,0.2,0.3,0.3,0.1,0.6
	c-0.2-0.1-0.5-0.1-0.8-0.1c0,0.3,0,0.6,0,0.9c-0.1,0.1-0.2,0-0.3,0c-0.1,0.1-0.1,0.2,0,0.3c0,0.2,0.1,0.2,0.2,0.1
	c0.2-0.2,0.3,0.1,0.5,0c0.2-0.2,0-0.6,0.3-0.7c0.1,0.1,0.1,0.1,0.1,0.1v0.1C44,9,44.1,9.7,43.9,10.4c-0.4-0.9-0.9-1.2-1.6-0.8
	c0.2,0.1,0.4,0.3,0.5,0.5c-0.2,0.3-0.4,0.2-0.7,0.2c-0.3-0.1-0.6-0.1-0.8,0.1c-0.1,0.1-0.1,0.2-0.5,0.4c0,0.3-0.1,0.5-0.1,0.8
	c0.2,0.2,0.4,0.3,0.6,0.2c0.2-0.2,0.1-0.4,0.3-0.5c0.1-0.1,0.3,0,0.4,0.2c0.1,0.1,0,0.1,0.1,0.2c-0.2,0.2-0.5,0.4-0.7,0.6
	c-0.2-0.1-0.3-0.2-0.4-0.2c0-0.1-0.2-0.1-0.3-0.1c-0.1,0.4,0.5,0.4,0.4,0.7c-0.2,0-0.4,0.1-0.6,0c-0.2-0.1-0.6-0.2-0.9,0.1
	c-0.2,0.2-0.6,0.1-0.8,0c-0.5-0.1-0.9-0.3-1.5-0.5c-0.2-0.1-0.4-0.1-0.5-0.3c0-0.1-0.1-0.2-0.1-0.3s0.1-0.2,0.2-0.2
	c0.3,0.1,0.5,0.2,0.6,0.2c0.2,0,0.3,0,0.5-0.3c-0.4-0.2-0.9-0.5-1.2-0.7c-0.1-0.2-0.1-0.3-0.1-0.7c0.5,0.4,0.9,0.4,1.5,0.5
	c0.2,0,0.5,0,0.7,0.4c-0.1,0.1,0,0.1,0.1,0v-0.1c-0.2-0.3-0.2-0.6-0.5-0.8c-0.4-0.3-0.8-0.6-1.1-1l-0.1-0.1c0.3,0.1,0.5,0,0.6-0.2
	c-0.1-0.2-0.5,0-0.7-0.2V8.4c0.2,0,0.2-0.1,0.1-0.2C37.1,8,37.1,8,37,8c-0.1,0.1-0.1,0.3-0.2,0.1c0.4-0.6,0.7-0.7,1.3-0.7
	c0,0,0.1,0.1,0,0.2c-0.1,0.2-0.3,0.1-0.5,0.2c0,0.1,0,0.3,0,0.4c0.3,0,0.5,0.1,0.7,0.2c0.2-0.2,0.5-0.4,0.5-0.7
	C38.9,7.8,39,8,39.1,8.2c0.2,0.5,0.2,0.6,0.7,0.2c0.1-0.1,0.1-0.2,0.2-0.3c-0.1-0.1-0.3-0.2-0.5-0.3c0-0.3,0.1-0.7-0.2-0.9
	c-0.1-0.1-0.2-0.1-0.4-0.2c0,0.4,0,0.5,0,0.8c-0.3-0.3-0.4-0.7-0.4-1.1C38.8,6.4,39.1,6.7,39.3,6.6z M38.1,8.9c0,0.2,0,0.2,0,0.3
	c0.5,0.1,0.9,0.2,1.3,0.2c0.2-0.2,0.1-0.3-0.1-0.4c-0.3-0.1-0.7-0.2-1.1-0.2C38.2,8.9,38.2,8.9,38.1,8.9z M39.2,11.5
	c0,0.2-0.1,0.2,0,0.3s0.2,0.2,0.3,0.2c0.2-0.1,0.4-0.1,0.8-0.3c0-0.3-0.2-0.4-0.3-0.4C39.7,11.3,39.4,11.3,39.2,11.5z M41.6,8.7
	c0.2,0,0.4-0.2,0.4-0.3c0-0.2-0.1-0.3-0.2-0.4c-0.1-0.1-0.2,0-0.8,0c0.1,0.3,0.2,0.3,0.3,0.5C41.3,8.6,41.5,8.7,41.6,8.7z M41.2,9.2
	c-0.1,0.1-0.1,0.2-0.1,0.2c0.2,0.1,0.4,0.2,0.8,0.4C41.8,9.4,41.6,9.2,41.2,9.2L41.2,9.2z M40.1,7.6C40.2,7.6,40.1,7.6,40.1,7.6
	L40.1,7.6z M39.9,10L39.9,10C39.9,9.9,39.9,9.9,39.9,10L39.9,10z M41,7.6C40.9,7.6,41,7.7,41,7.6L41,7.6C40.9,7.6,40.9,7.6,41,7.6z
	 M40.4,8.6C40.4,8.4,40.4,8.4,40.4,8.6C40.4,8.4,40.5,8.5,40.4,8.6C40.4,8.6,40.5,8.5,40.4,8.6z M39.2,12.2
	C39.1,12.1,39.1,12.1,39.2,12.2C39.2,12.2,39.2,12.1,39.2,12.2z M131.1,88.7c0.2,0,0.3-0.1,0.7-1.2c-0.3,0.1-0.5,0-0.6,0
	c0.6-0.3,1.4-0.6,2.1-1c0.2,0.3,0.4,0.5,0.5,0.8c0.1,0.4,0.4,0.4,0.7,0.4c0.1,0,0.3-0.1,0.4-0.1c0.2,0,0.3,0.1,0.5,0v-0.1l-0.1-0.1
	c-0.1,0.1-0.1,0-0.2,0.1c-0.5,0-0.7-0.3-1-0.6c-0.4-0.5-0.1-0.8,0.4-1c0.1,0,0.2-0.1,0.3-0.1c0.1,0.1,0.2,0.2,0.3,0.2
	c-0.2,0.2-0.2,0.4-0.4,0.5c0.4,0.6,1.2,0.8,1.9,1.1c0.2,0.6,0.1,1.1-0.1,1.4c-0.3-0.2-0.6-0.4-0.9-0.6c0.3,0.4,0.1,0.6-0.1,0.9
	c-0.1,0.1-0.1,0.2,0,0.3c0.1,0.1,0.2,0.2,0.3,0.2c0.3,0,0.5-0.1,0.7-0.3c0.1-0.1,0.2-0.1,0.3,0.1c-0.5,0.2-0.3,0.5-0.3,0.9
	c0.2,0.1,0.4,0.3,0.6,0.4c0,0.6,0.2,1.1-0.3,1.5c-0.3-0.3-0.6-0.6-1.1-0.7c-0.2-0.1-0.5-0.2-0.6-0.4c-0.4-0.4-0.8-0.7-1.4-0.8
	c-0.2-0.1-0.4-0.3-0.7-0.2c0,0.5-0.2,1-0.6,1.2c-0.3,0-0.5-0.1-0.7-0.3c-0.1-0.1-0.3-0.1-0.4-0.3l-0.5-0.5c-0.2-0.2-0.3-0.5-0.4-0.8
	c-0.1-0.2-0.4-0.6-0.3-0.9c0.1-0.1,0.2-0.1,0.4-0.2s0.4-0.1,0.6-0.2C131,88.4,130.9,88.6,131.1,88.7L131.1,88.7z M132.9,89.4
	c0.1,0,0.2-0.2,0.2-0.3c0.1-0.1,0-0.2-0.1-0.3c-0.2-0.1-0.5-0.1-0.8-0.1c-0.2,0-0.3,0.2-0.2,0.3c0.1,0.2,0.2,0.3,0.3,0.4
	C132.6,89.4,132.8,89.4,132.9,89.4L132.9,89.4z M134.5,88.8c-0.1-0.1-0.2-0.1-0.2-0.1c0,0.1-0.1,0.1-0.2,0.2c0,0,0,0.1,0.1,0.2
	c0.1,0,0.2,0,0.3-0.1C134.5,89,134.5,88.9,134.5,88.8z M132.2,88.1L132.2,88.1l0.3,0.1v-0.1C132.3,88.1,132.2,88.2,132.2,88.1z
	 M131.1,89.5l0.1,0.1c0,0.1,0.1,0,0.1,0c0.1,0,0-0.1,0-0.1S131.2,89.5,131.1,89.5z M136.3,91.5C136.4,91.4,136.4,91.4,136.3,91.5z
	 M69.1,79.1c0.4-0.2,0.7-0.4,1-0.8c0.1,0,0.2-0.1,0.3-0.1c0.3,0.3,0.5,0.4,0.7,0.6c0,0.7,0,0.8,0.6,0.7c0.1-0.1-0.1-0.4,0.1-0.6
	c0.2,0,0.2-0.1,0.3,0c0.4,0.2,0.6,0.5,0.9,0.8c0,0.1,0,0.3,0,0.4s-0.1,0.2-0.1,0.3c0.1,0.1,0.2,0.2,0.3,0.3c0.1,0.1,0.2,0.3,0.2,0.4
	c0,0.9-0.3,1.6-1,2.2c-0.4,0.4-0.9,0.4-1.2,0L70.9,83c-0.1,0.1-0.3,0.2-0.3,0.3c-0.1,0.2-0.2,0.5-0.4,0.8c0.2,0.3,0.6,0.7,0.3,1.2
	c-0.7-0.1-0.8,0-1.1,0.5c-0.2,0.3-0.5,0.7-0.7,1c-0.2,0.2-0.3-0.1-0.5,0.2c0.1,0.2,0.3,0.3,0.4,0.5c-0.3,0.2-0.7-0.1-1.1,0.1
	l-0.1-0.1c-0.1,0,0-0.1,0-0.1c0.3-0.1,0.3-0.2,0.3-0.5c-0.1-0.3-0.1-0.5-0.1-0.9c0.1-0.2,0.3-0.3,0.4-0.5c0.2-0.6,0.6-0.7-0.2-1.3
	c-0.1-0.1,0-0.1-0.1-0.2c0-0.1,0.1-0.4,0.3-0.6c0.1,0,0.2-0.1,0.2-0.1c0.4,0.2,0.9,0.3,1.4,0.4c0-0.4,0.3-0.5,0.7-0.7
	c0.4,0.2,0.7,0.3,1.2,0.4c0.3-0.3,0.8-0.5,1.1-0.8c0.2-0.1,0.3-0.3,0.3-0.6c0-0.3-0.1-0.4-0.4-0.6c-0.5-0.1-0.8,0.1-1.2,0.3
	c-0.5,0.3-0.9,0.2-1.3-0.1c-0.1,0.1-0.1,0-0.2-0.1c-0.2-0.1-0.2-0.1-0.4,0.1c-0.2,0.2-0.5,0.1-0.7-0.1c0.5-0.3,0.9-0.6,1.1-1
	c0.2,0,0.4,0,0.6-0.1v-0.6c-0.7-0.4-1.3,0.2-1.9,0.1C68.5,79.5,68.7,79.3,69.1,79.1L69.1,79.1z M70,84.6c-0.1-0.2-0.2-0.3-0.3-0.3
	c-0.2,0-0.6,0.2-0.7,0.4c-0.1,0.1,0,0.3,0,0.4c0.3,0.1,0.6,0.1,0.8-0.1C69.8,85,69.9,84.8,70,84.6z M68,86l0.1,0.2
	c0.1,0,0.2,0,0.4-0.1c-0.1,0-0.1-0.2-0.2-0.2C68.3,86,68.1,86,68,86z M40.1,27.3c-0.4-0.3-0.8-0.5-1-1l-0.2-0.1
	c-0.5,0-0.6-0.4-0.9-0.7c-0.1-0.2-0.1-0.4-0.2-0.6c-0.1-0.3-0.1-0.5-0.2-0.7c-0.2-0.2-0.3-0.3-0.4-0.6c0.3,0.2,0.4,0.2,0.5,0.3
	c0.2,0.1,0.4,0.2,0.7,0.4c0.3,0,0.6,0.2,0.7,0.5c0,0,0.2,0.2,0.3,0.2c0.4,0,0.5,0.3,0.8,0.5s0.7,0.4,1,0.5c0.2,0.1,0.3,0.1,0.6,0.1
	c0.1,0.6,0.1,1.2,0.1,1.8c0,0.5-0.2,0.9-0.5,1.3c-0.2,0-0.2,0-0.3,0c-1.3-0.2-2.4-0.6-3.7-0.8c-0.4-0.1-0.7-0.2-1-0.4l-0.1-0.2
	c0-0.5-0.1-1.1-0.1-1.6c0.1-0.3,0.1-0.4,0.2-0.6c0.1-0.2,0.1-0.3,0.4-0.3c0.3,0,0.5,0.2,0.6,0.4c0.1,0.1,0,0.1,0.1,0.2
	c0.1,0.4,0.2,0.5,0.5,0.4c0.2-0.1,0.5,0,0.7,0.2c0.5,0.5,1,0.8,1.5,1.2c0.1,0.1,0.2,0.1,0.5,0.3c0-0.2,0-0.3-0.1-0.4
	C40.5,27.4,40.4,27.3,40.1,27.3z M40.3,26.8c0,0-0.1,0-0.2,0.1c0.1,0.1,0,0.1,0.1,0.2c0.1-0.1,0.2-0.1,0.2-0.1
	C40.4,26.9,40.3,26.8,40.3,26.8z M40.3,16.5c0.1,0.2,0.1,0.3,0.2,0.5c-0.3,0-0.5-0.2-0.7,0.1c0.2,0.3,0.4,0.4,0.7,0.6
	c0.1,0.1,0.2,0.1,0.3,0.2s0.2,0.1,0.1,0.2c0,0-0.1,0-0.2,0.1c-0.4,0-0.6-0.1-0.8-0.3c-0.3-0.3-0.5-0.5-0.8-0.8
	c-0.4-0.3-1-0.8-1.2-1.4c-0.1-0.2-0.3-0.4-0.5-0.5c-0.1-0.1-0.3-0.1-0.4-0.3c-0.2-0.1-0.2-0.3-0.3-0.5c0-0.3,0-0.5,0.2-0.7
	c0.1,0,0.1,0,0.2,0.1c0.2,0.5,0.6,0.8,1,1.1c0.1,0.2,0.2,0.2,0.3,0.4c0.4,0.5,0.7,0.9,1.1,1.2c0.1,0,0.2-0.1,0.2-0.2l-0.1-0.2
	c-0.2-0.2-0.5-0.5-0.6-0.8c-0.1-0.4-0.3-0.7-0.5-0.9c-0.5-0.5-1-1.1-1.7-1.3c-0.2-0.4-0.2-0.8,0-1.1c0.2,0.1,0.4,0.3,0.5,0.3
	c0.7,0.2,1.3,0.7,1.9,0.8c0.1-0.1,0.2,0.1,0.2,0.1c0,0.3,0.3,0.2,0.5,0.3c0,0.1,0.1,0.2,0.1,0.2c0.1,0.5,0.4,0.7,0.9,0.4
	c0.2,0,0.3-0.1,0.5,0s0.3,0.3,0.4,0.5c0.1,0.3,0.3,0.6,0.6,0.8c0.1,0.1,0.2,0.2,0.4,0.3c0.1,0,0.2,0.1,0.1,0.3c-0.4,0.1-0.6,0-1,0.1
	s-0.4,0.2-0.2,0.6c-0.4,0-0.6,0-0.8,0.1C40.7,16.8,40.4,16.7,40.3,16.5z M39.6,15.7L39.6,15.7C39.5,15.7,39.5,15.7,39.6,15.7
	C39.5,15.7,39.5,15.7,39.6,15.7L39.6,15.7z M29.5,20.3c0.2,0.2,0.4,0.3,0.7,0.5c0.1,0.1,0.3,0.1,0.4,0.3c0.1,0.1,0,0.1,0.1,0.2
	c-0.1,0.1-0.1,0.2-0.2,0.3c0.1,0.5,0.4,0.9,0.7,1.3c0,0,0.1,0.2,0.2,0.4c0.2,0.5,0.1,1,0,1.5c0,0.1-0.1,0.2-0.2,0.3
	c-0.3,0.3-0.7,0.6-1.1,0.9c-0.1,0.2,0,0.2,0,0.4c0,0.2-0.1,0.4-0.1,0.5c-0.2,0.4-0.4,0.4-0.8,0.1c0.1-0.5,0.1-0.5,0.5-0.7
	c0.1-0.2,0.2-0.4,0-0.6c-0.1,0.1-0.2,0.2-0.5,0.3c0.2-0.3,0.2-0.6,0.3-0.8c-0.1-0.3-0.3-0.2-0.5-0.3c-0.3-0.1-0.4-0.2-0.6-0.3
	c-0.2-0.1-0.3-0.3-0.2-0.5c0-0.1,0.2-0.3,0.2-0.4c0-0.2-0.2-0.3-0.2-0.4c-0.1-0.3-0.2-0.5,0-0.6h0.3c0.1,0,0.2-0.1,0.2-0.2
	s0-0.2-0.1-0.3c-0.2,0-0.4-0.1-0.5-0.1c-0.2-0.6-0.2-0.6,0.1-1.1c0.1-0.3,0.3-0.5,0.7-0.7c0,0,0-0.2-0.1-0.2
	C29.1,20.1,29.4,20.3,29.5,20.3z M31.3,23.8c0.2-0.2,0.1-0.4,0-0.4c-0.2-0.1-0.3,0-0.4,0c0,0.2,0,0.2,0.1,0.4
	C31.2,23.8,31.2,23.7,31.3,23.8z M29,21.4L29,21.4L29,21.4L29,21.4L29,21.4z M40.1,19c0.3,0.3,0.7,0.4,0.9,0.8
	c0.1,0.1,0.3,0.1,0.4,0.3c0.1,0.1,0.2,0.1,0.3,0.2c0.1,0.2,0.2,0.3,0.2,0.4c0.1,0.2-0.1,0.3-0.2,0.3c-0.3,0.1-0.4,0.1-0.6,0
	c-0.3,0-0.6-0.1-0.9,0c0,0.2,0.1,0.4,0,0.6c0,0.1-0.2,0.3-0.3,0.5c0.2,0.2,0.4,0.3,0.5,0.5c-0.6,0-0.9-0.5-1.6-0.3
	c0.3,0.4,0.7,0.8,1,1c0.1,0.1,0,0.1,0.1,0.2c-0.2,0-0.2,0.1-0.4,0.2l-0.2-0.2c-0.1-0.1-0.2-0.3-0.4-0.2c-0.5,0-0.9-0.2-1.2-0.4
	c-0.1-0.3-0.1-0.5-0.2-0.7l0.9-0.8c0.3-0.2,0.3-0.5,0-0.9c0-0.1-0.3-0.3-0.3-0.4c0-0.2-0.1-0.3-0.3-0.4c-0.1,0.1,0-0.1,0-0.1
	c0.1-0.1,0.1-0.1,0.2-0.1c0.1,0,0.3,0,0.3-0.1l-0.2-0.2c-0.1-0.1-0.2-0.1-0.3-0.2c-0.2-0.1-0.4-0.3-0.7-0.5v-0.1
	c0.4-0.3,0.4-0.3,0.6-0.2c0.2-0.1,0.4,0,0.6,0.1c0.1,0.1,0.3,0,0.4,0c-0.2-0.5-0.6-0.8-0.8-1.3c0.4,0.4,1,0.8,1.5,1.3
	C39.7,18.6,40,18.8,40.1,19z M39.5,19.4c-0.2-0.2-0.2-0.4-0.5-0.3c0,0.8,0.2,1,0.8,1.1C40,19.9,39.8,19.7,39.5,19.4z M143.8,69.1
	c0,0.1,0,0.3,0.2,0.4c0.1-0.1,0.3-0.2,0.3-0.3c0.1-0.3,0.1-0.8,0.2-1.1c0-0.2-0.2-0.3-0.4-0.2c-0.1,0.2-0.3,0.3-0.5,0.5
	C143.7,68.7,143.7,68.9,143.8,69.1L143.8,69.1z M144.3,69.7c0-0.1-0.1,0-0.3,0c0.1,0.1,0,0.1,0.1,0.2s0.2,0.1,0.4,0L144.3,69.7
	L144.3,69.7z M70.3,72.3c0.3,0.2,0.6,0.1,0.8,0c0.5-0.1,0.5-0.1,0.7,0.3c0.3,0.4,0.6,0.6,0.9,0.8c0.1,0,0.3,0.2,0.4,0.2
	c-0.2,0.2-0.1,0.4,0,0.6l-0.2,0.2c-0.1-0.1-0.2-0.1-0.3-0.2c-0.1,0.1-0.3,0.2-0.5,0.3c-0.1,0.1-0.3,0.2-0.5,0.3
	c-0.1,0.1-0.2,0.3-0.1,0.5c0.2,0.2,0.4,0.5,0.7,0.6c0.3,0.1,0.5,0.2,0.5,0.5c0,0.4,0.2,0.5,0.4,0.7c-0.6,0.9-0.8,1-1.8,0.9
	c-0.3-0.2-0.6-0.2-0.8,0c-0.1,0-0.3,0-0.4-0.2c0-0.1,0-0.2-0.1-0.3c0-0.4-0.3-0.6-0.6-0.8c-0.1-0.1-0.2-0.1-0.3-0.2
	c-0.4-0.2-0.6-0.5-0.5-1c0.1-0.4,0.1-0.7,0.2-1c0.1-0.5,0.3-0.9,0.9-1c0.3-0.1,0.5-0.3,0.5-0.7C70.2,72.6,70.3,72.4,70.3,72.3
	L70.3,72.3z M70.2,76.2c0,0.1,0,0.1,0.1,0.2c0.2,0.1,0.1,0.3,0.2,0.5s0.5,0.3,0.7,0.2c0.3-0.2,0.6-0.3,0.6-0.7c-0.5-0.6-1-1.6-2-1.9
	c-0.2,0.2-0.5,0.5-0.7,0.7c0.2,0.2,0.3,0.6,0.6,0.9C70,76.2,70.1,76.2,70.2,76.2z M71.6,73.9c0.2,0,0.3-0.2,0.2-0.4l-0.1-0.2
	c0,0-0.1,0-0.2,0.1s0,0.1-0.1,0.2s-0.1,0.2,0,0.3C71.5,74,71.5,74.1,71.6,73.9z M68.5,24.7c-0.3,0.3-0.5,0.7-0.7,1.1
	c-0.1,0.2,0,0.4,0.1,0.6c0,0.2,0.2,0.3,0.3,0.5c-0.1,0.2-0.2,0.4-0.3,0.6c0,0.2,0.1,0.3,0.3,0.2c0.1-0.1,0.2-0.2,0.2-0.3
	c0.2-0.5,0.6-0.6,1-0.6c0.4,0.1,0.6-0.1,0.7-0.4c-0.1-0.1,0-0.1,0.1-0.2c0.3-0.3,0.3-0.6,0.4-0.9c0-0.3,0.2-0.4,0.4-0.5
	c0.3-0.1,0.4-0.1,0.4,0.3c0,0.2,0,0.4,0,0.5c0.1,0.3,0,0.6-0.3,0.9c-0.3,0.2-0.7,0.5-1,0.8c-0.1,0.2-0.4,0.3-0.3,0.5
	c0.3,0,0.5-0.1,0.7-0.2c0.1-0.2,0.3-0.4,0.5-0.5c0.3-0.1,0.4-0.2,0.7-0.3c0.2-0.3,0.3-0.7,0.2-1.1s0-0.8,0-1.1c0-0.3,0-0.6-0.1-0.9
	c0-0.2-0.2-0.2-0.3-0.1c-0.2,0.2-0.3,0.4-0.5,0.7L70.7,24c0,0-0.1-0.2-0.2-0.4c-0.2-0.3-0.5-0.4-0.8-0.3
	C69.4,23.8,69,24.3,68.5,24.7z M4.7,51.3c-0.1-0.1-0.2-0.3-0.3-0.2c-0.2,0-0.2,0.2-0.2,0.3s0,0.2,0.1,0.3c-0.6-0.1-0.4-0.6-0.6-1
	c-0.1,0.1-0.2,0.1-0.3,0.2c-0.1-0.3,0-0.4,0.2-0.6c0.6,0.2,1.3,0.1,2,0.2l0,0c0,0-0.1,0,0,0.1c-0.3,0.2-0.5,0.2-0.7,0.4
	c0.3,0.4,0.8,0.3,1.1,0.5c0-0.2,0.1-0.2,0-0.3c0-0.1-0.1-0.2-0.2-0.5s0.2-0.3,0.3-0.3c0.1,0.1,0.1,0,0.2,0.1
	c0.2,0.7,0.3,0.8,0.7,1.1c0.1-0.3,0-0.5,0.3-0.6s0.5-0.1,0.7-0.2c0.2,0.2,0.4,0.3,0.5,0.5c0.2-0.1,0.2-0.2,0.3-0.4
	c0-0.4,0.2-0.5,0.5-0.3s0.7,0.3,1.1,0.1c0,0.2,0.1,0.3,0.1,0.4c0.3-0.3,0.7,0,0.8-0.3c0.1,0.1,0.2,0,0.2,0.1s0.1,0.2,0.1,0.3
	c0,0.4-0.3,0.8,0,1.2c0.1,0,0,0.1,0,0.1c-0.1,0.3-0.1,0.4-0.2,0.6c-0.2,0-0.5,0.1-0.7,0.2c-0.1-0.2-0.3-0.3,0.1-0.3
	c0.2,0,0.3-0.1,0.2-0.3c0-0.2-0.1-0.2,0-0.3c0.2-0.3,0-0.4-0.2-0.6c-0.4,0.2-0.7-0.1-1.1-0.1l-0.2,0.6c-0.5,0-0.9,0.4-1.4,0
	c-0.2-0.1-0.3,0-0.4,0.2c-0.1,0.1,0,0.2,0,0.3c-0.4,0-0.7-0.3-0.7-0.7c0,0.2,0.2,0.3,0.2,0.4s0.1,0,0.1,0v-0.1c0,0-0.2-0.2-0.3-0.2
	c-0.1,0.2-0.3,0.1-0.5,0.2c-0.5,0.2-0.9,0-1.2-0.4c-0.2-0.2-0.4-0.3-0.7-0.3c-0.1,0-0.3,0.2-0.4,0c0.1,0,0.2,0,0.3-0.1
	C4.6,51.5,4.7,51.3,4.7,51.3z M9.5,51.5C9.6,51.6,9.5,51.5,9.5,51.5z M73.2,65.6c-0.2-0.1-0.4-0.3-0.6-0.4c0-0.4,0.3-0.8,0.5-1.1
	c0.3-0.3,0.7-0.7,0.9-1c0.3,0.2,0.7,0.2,1.1,0.1c0.4-0.1,0.5-0.3,0.4-0.5c-0.1-0.3-0.1-0.6-0.1-0.9c0-0.1-0.1-0.3-0.2-0.5
	c0-0.2-0.1-0.4-0.2-0.6c-0.3,0-0.5,0-0.7,0.2c0.1,0.2,0.1,0.3,0.2,0.4c0.1,0.3,0,0.6-0.4,0.6c-0.3,0.1-0.5,0-0.6,0
	c-0.1,0.1,0,0.1,0.1,0.2s0.2,0.1,0.3,0.2c0.1,0,0.1,0.1,0.2,0.2c-0.2,0.3-0.6,0-0.7,0.3c0,0.2-0.2,0.5-0.3,0.7c0,0-0.1,0-0.2,0.1
	l-0.3-0.3c-0.1-0.4-0.3-0.8-0.6-1.2c-0.1-0.2-0.2-0.4-0.1-0.6c0.1-0.2,0.2-0.4,0.3-0.6c0-0.2,0.1-0.4,0.1-0.5l-0.1-0.1h-0.1
	c0,0.1-0.1,0.1-0.2,0.2c-0.1,0.2-0.3,0.4-0.5,0.7c-0.3,0.3-0.2,0.8-0.2,1.2c0.2,0.7,0.2,1.3,0.5,2c0.1,0.2,0,0.5,0.1,0.7
	c0.1,0.3,0.1,0.5,0.2,0.7c0.3,0.6,0.6,0.7,1.3,0.5c0.1-0.1,0.1-0.1,0.2-0.1C73.3,66.2,73.2,66.1,73.2,65.6z M8.7,32.8
	c-0.2,0.2-0.3,0.4-0.3,0.5c0,0.2,0.2,0.4,0.3,0.4S9,33.5,9,33.4c0-0.2,0.1-0.4,0-0.6c0.5-0.1,1,0.2,1.4,0c0.2-0.1,0.2-0.4,0.5-0.4
	s0.9,0.3,1,0.6c0.2,0.4,0.2,0.8-0.2,1c-0.1,0.1-0.1,0.2-0.2,0.3c0.1,0.2,0.2,0.2,0.3,0.4c-0.3,0.3-0.6,0.1-0.8,0
	c-0.6-0.4-1.2-0.6-1.9-0.4l0.2-0.2L9.2,34c0,0.2-0.1,0.2-0.2,0.3c-0.7,0.1-1.3,0-2-0.2c-0.3,0-0.5-0.1-0.8-0.1
	c-0.4,0-0.7-0.5-0.5-0.9c0.1-0.2,0.2-0.3,0.3-0.5c0-0.1,0.1-0.2,0.2-0.4L6,32c-0.1,0-0.2-0.1-0.2-0.2c0.6-0.2,1,0.2,1.5,0.5
	c0,0.2,0,0.5,0,0.6c0.1,0.2,0.3,0.3,0.4,0.3c0.2,0,0.5-0.2,0.5-0.5c0-0.2-0.2-0.5,0-0.6C8.4,32.3,8.5,32.6,8.7,32.8z M9.9,33.6
	L9.9,33.6C9.7,33.7,9.8,33.8,9.9,33.6L9.9,33.6C9.9,33.7,9.8,33.6,9.9,33.6z M135.5,75.7c0,0-0.1-0.1-0.2-0.1
	c-0.1-0.1-0.1,0-0.2,0.1c0,0.3,0.1,0.5,0.2,0.7c-0.1,0.3-0.1,0.4-0.2,0.6c-0.6-0.1-1.1-0.2-1.5,0c0-0.2-0.1-0.5-0.4-0.7
	c-0.2-0.1-0.5,0-0.4,0.2c-0.1,0.2,0,0.3,0,0.4c0,0.2,0.2,0.4,0.1,0.6c-0.3-0.3-0.4-0.7-0.9-0.7c0-0.5,0-1.1,0-1.6
	c0-0.3,0.2-0.4,0.4-0.6c0.4-0.2,1-0.3,1.4-0.8c0-0.1,0.3-0.1,0.4-0.1c0.2,0.6,0.2,0.7,0.8,0.6c0.4-0.1,0.8,0.2,1.1,0.4
	c0,0.2,0,0.5,0,0.6c-0.3,0.2-0.6,0.5-0.6,0.9c0.1,0.3-0.2,0.3-0.3,0.3c0.1-0.2,0.2-0.3,0.3-0.5C135.6,75.9,135.5,75.7,135.5,75.7z
	 M133.5,75.1l0.1-0.1v-0.1c-0.1-0.1-0.1-0.2-0.2-0.1c-0.3,0.1-0.6,0.1-0.8,0.4l0,0C133,75.3,133.3,75.2,133.5,75.1z M43.8,85.2
	c0.4-0.1,0.6-0.4,0.7-0.5c0,0-0.1-0.1-0.1-0.2c-0.1-0.2-0.2-0.4-0.5-0.4s-0.5,0-0.7,0.3C43,84.8,43,85,43,85.4
	c0-0.1-0.1-0.2-0.1-0.3c0-0.3,0-0.6,0-0.9c0.1-0.1,0.4-0.2,0.3-0.4c-0.2-0.3,0.1-0.5,0.1-0.8c0.5-0.2,0.9-0.2,1.4,0.1
	c0.4,0.2,0.7,0.3,1,0.5c0.2,0.4,0.3,0.8-0.1,1.1v0.1c0.5,0.4,1,0.8,1.6,0.8c0.3,0.3,0.4,0.4,0.7,0.6c0.2,0.2,0.4,0.4,0.2,0.7
	c0.1,0.2,0,0.4,0.1,0.6c-0.2,0.1-0.5,0.2-0.8,0.1c0-0.2,0-0.4-0.1-0.6c-0.2,0.1-0.3,0.1-0.4,0.2c-0.4-0.2-0.4-0.3-0.6,0.1
	c0-0.5,0.1-1-0.4-1.4c0-0.1,0-0.3,0-0.4c-0.1-0.2-0.2-0.4-0.5-0.4c-0.3-0.1-0.5-0.2-0.7-0.4c0,0,0-0.1-0.1,0
	c0.1,0.3,0.1,0.5,0.2,0.7c-0.1,0.1-0.2,0.1-0.4,0.2s-0.3,0.3-0.5,0.4c-0.1-0.1-0.1-0.2-0.2-0.4c-0.1,0-0.2,0-0.3,0.1
	c-0.2,0-0.3,0.1-0.3,0s0-0.3,0-0.4c0.1-0.1,0-0.1,0.1-0.2C43.3,85.2,43.6,85.3,43.8,85.2L43.8,85.2z M45.4,84.3
	C45.5,84.3,45.4,84.2,45.4,84.3L45.4,84.3L45.4,84.3C45.4,84.3,45.5,84.3,45.4,84.3z M20.1,39.5c-0.2-0.1-0.4-0.2-0.7-0.2L19.1,39
	c0-0.1-0.2-0.1-0.1-0.3c0,0.1,0.2,0.1,0.3,0.1c0.1,0.1,0.3,0,0.4,0c0.6-0.2,1.2-0.2,1.8,0c0.4-0.4,0.8-0.6,1.3-0.5
	c0.1,0,0.2-0.1,0.3-0.1c0.2-0.1,0.4-0.1,0.7-0.1c0.2,0,0.2,0.1,0.3,0.2c0.1,0.3,0.2,0.6,0.2,0.9c-0.4,0.1-0.8-0.2-1.2,0.1
	C23,39.5,23,39.8,23,40.1c-0.5,0.3-0.9,0.6-1.3,0.8c-0.2,0.2-0.5,0.3-0.9,0.3c-0.3-0.1-0.8-0.1-1.2,0.1c-0.2,0.1-0.3,0.1-0.5-0.1
	c0.1-0.2,0.2-0.4,0.3-0.4c0.3-0.1,0.6,0,0.9,0c0.1,0,0.3,0.2,0.4,0.2c0.2,0,0.2-0.3,0.2-0.4s0.1-0.3,0.3-0.4
	C21,40,20.8,40,20.6,40.1C20.5,39.6,20.3,39.4,20.1,39.5z M21.5,40c0.1,0.1,0.1,0,0.2,0.1c0.1,0,0-0.1,0-0.1
	C21.6,39.9,21.6,39.9,21.5,40C21.5,40,21.5,40.1,21.5,40z M49,19.3c-0.2,0-0.4-0.1-0.6,0c0,0.2-0.1,0.2,0,0.3
	c0.1,0.3,0.2,0.4,0.4,0.5s0.4,0.2,0.6,0.3c0.2,0,0.4,0.2,0.8,0.2c0.4-0.1,1-0.1,1.3-0.5c0-0.1,0-0.4,0-0.5c0.3-0.3,0.8-0.3,1-0.7
	c-0.3-0.1-0.5-0.2-0.6-0.2c-0.7,0-1.3-0.2-1.9-0.5c-0.5-0.3-1.1-0.4-1.7-0.6c-0.2,0-0.3,0-0.3,0s-0.1,0-0.2,0.1l0.1,0.2
	c0.2,0.2,0.5,0.5,0.7,0.7c0.1,0.1,0.4,0.1,0.6,0.2L49,19.3z M38.8,79.1c0.2,0.2,0.2,0.5,0,1.1c0.1,0.2,0.3,0.3,0.6,0.2
	c0.1-0.1,0.1,0,0.2-0.1c0.4,0.5,0.4,0.8-0.1,1.6c-0.5,0.1-1,0.1-1.4,0.2c-0.1,0.1-0.2,0.3-0.3,0.5c-0.2-0.1-0.5-0.1-0.6-0.1
	c0,0.4-0.1,0.5-0.4,0.6c-0.1,0.1-0.2-0.1-0.2-0.1v-0.1c0.3-0.3,0.3-0.6,0.1-0.8c0-0.1,0-0.2-0.1-0.3c0-0.2-0.2-0.2-0.3-0.1
	s-0.1,0.3-0.4,0.2c0.1-0.1,0.1-0.2,0.2-0.3l0.3-0.3c0.5-0.2,0.8-0.6,0.7-1.2v-0.4c0-0.2,0.3-0.4,0.4-0.2c0.2,0.1,0.3,0.1,0.4,0.3
	c0,0,0.2,0.1,0.4,0c0,0,0.2-0.2,0.2-0.3c0-0.1,0-0.3,0-0.6C38.6,79,38.7,79,38.8,79.1L38.8,79.1z M38.3,81.4c0.2,0.1,0.2,0,0.4-0.1
	c0.1-0.1,0-0.1,0.1-0.2c0.1-0.2-0.1-0.4-0.2-0.6c-0.1-0.1-0.3-0.2-0.4-0.2C38,80.6,37.9,80.8,38,81C37.9,81.2,38,81.3,38.3,81.4z
	 M38.8,80.3L38.8,80.3L38.8,80.3L38.8,80.3L38.8,80.3z M13.8,20.8c0.3,0.1,0.7,0.2,1.1,0.1c0.4-0.2,0.5,0,0.6,0.4
	c-0.1,0.2,0,0.3,0,0.4c0.1,0.3,0.2,0.4,0.5,0.6c0.7,0.4,0.7,0.4,0.6,1.2c0,0.1,0,0.1,0,0.1C16.5,24,16.3,24.1,16,24
	c-0.2,0-0.4-0.1-0.5-0.1c-0.2,0-0.4-0.1-0.5-0.3c0-0.2-0.1-0.3-0.2-0.4c-0.3-0.5-0.8-0.8-1.3-1.1c-0.5-0.2-0.6-0.5-0.5-1
	C13.1,20.8,13.2,20.7,13.8,20.8z M14.9,22.9c0.1,0.1,0.2,0.1,0.3,0s0.2-0.2,0.2-0.3c0-0.2-0.1-0.4-0.3-0.5c-0.1,0-0.3,0-0.6,0
	C14.6,22.6,14.7,23,14.9,22.9z M46.7,80.9c0.4,0.2,0.6,0,0.9-0.2c0.1-0.1,0-0.3,0.1-0.5c0.4,0.1,0.8,0,1.1,0.4
	c0.1,0.1,0.2,0.2,0.4,0.3c0.4,0.3,0.5,0.7,0.7,1.1c0,0.1,0.1,0.3,0,0.4c-0.1,0.2-0.4,0.6-0.6,0.9c-0.1,0.2-0.3,0.2-0.4,0.2
	c-0.4-0.2-0.7-0.3-0.9-0.7c0.1-0.1,0-0.1,0.1-0.2s0.1-0.1,0.1-0.2l-0.8-1c-0.1,0.1-0.2,0.1-0.4,0.2c-0.2-0.1-0.5-0.2-0.8-0.3
	C46.3,80.9,46.6,80.9,46.7,80.9L46.7,80.9z M48.9,82.1c0.1-0.1,0.1-0.2,0-0.4c-0.1-0.2-0.3-0.1-0.4,0.1c-0.1,0.1-0.1,0.2,0,0.3
	C48.8,82.3,48.9,82.2,48.9,82.1z M9.1,39.7c-0.2,0.1-0.4,0.2-0.5,0c-0.2-0.3-0.3-0.6-0.5-0.8s-0.3-0.4-0.4-0.6
	c0,0.1-0.1,0.1-0.2,0.2c-0.2,0.2-0.4,0.2-0.8,0c0.3,0.2,0.4,0.3,0.6,0.4c0,0.2-0.1,0.2-0.2,0.3s-0.1,0.2,0,0.3s0.2,0.1,0.3,0.2
	c0.1,0.1,0.1,0.1,0.1-0.2C8,39.4,8,39.4,8.3,39.9C8.7,40,9,40.1,9.4,40.1c0.4,0.1,0.7,0.4,0.9,0.6c0.9-0.6,1-1,0.4-2.3
	c-0.7,0.1-1.4,0.3-2.3-0.1c0.2,0.4,0.4,0.4,0.5,0.6C9,39,9.1,39,9.3,39c-0.1,0.1-0.1,0.1-0.1,0.1l-0.3-0.2
	C8.9,39.2,8.9,39.4,9.1,39.7z M10.7,43.7c-0.1-0.1-0.2-0.3-0.3-0.9l0.3-0.6c0.2,0.1,0.3,0.2,0.4,0.2c0.3-0.3,0.4-0.5,0.1-0.7
	c-0.2-0.1-0.4-0.2-0.6-0.1c-0.2,0.2-0.4,0.1-0.6,0c-0.4-0.2-0.7-0.3-1.1-0.1c-0.1,0.1-0.3,0-0.4,0c-0.3,0.1-0.5,0.1-0.9,0.1
	c-0.2,0.1-0.4,0.4-0.2,0.6c0.3,0.3,0.4,0.8,0.8,1.1c0.2,0.2,0.3,0.4,0.5,0.3c0.4-0.2,0.6-0.6,0.6-1c0.4,0,0.6,0.2,0.7,0.5
	C10,43.5,10.2,43.6,10.7,43.7L10.7,43.7z M143.2,74.2c-0.1-0.2,0-0.4-0.1-0.6c-0.2,0-0.3,0.1-0.4,0.1c-0.2-0.1-0.3-0.2-0.3-0.3
	c0-0.1,0.1-0.2,0.2-0.2c0.1,0,0.3,0,0.3-0.1c0.1-0.4,0.3-0.6,0.6-0.7c0.1-0.1,0-0.2,0-0.3c0-0.3-0.2-0.6-0.5-0.6
	c-0.4-0.1-0.8,0.3-0.9,0.6c0,0,0,0.2,0,0.3c0,0.4,0,0.9-0.3,1.3c-0.2,0.3-0.2,0.6,0.1,0.8c0.4,0.1,0.6,0.6,0.9,0.9
	c0.3,0.4,0.6,0.6,1.1,0.4c0.1,0,0.3,0.1,0.5,0c-0.3-0.4-0.7-0.4-1-0.6c-0.2-0.2-0.5-0.4-0.6-0.8L143.2,74.2z M140.2,79.7
	c0.2,0.1,0.4,0.3,0.6,0.5c0.3,0,0.5,0.1,0.7,0.3c0.3,0.3,0.4,0.2,0.9-0.1c0.1-0.3-0.4-0.1-0.5-0.3s-0.4-0.3-0.5-0.5
	c0.3-0.2,0.4-0.3,0.7-0.4c0.2,0,0.1,0.5,0.5,0.3c0-0.5-0.6-0.6-0.9-0.8l0.5-0.5c0.1-0.1,0.2-0.3,0.3-0.4c0.2-0.3,0.5-0.7,0.7-1
	c-0.2,0-0.2-0.1-0.3,0c-0.3,0.2-0.5,0.2-0.9,0.2s-0.6,0.1-0.9,0.2c-0.1,0.1-0.2,0.2-0.3,0.3c0.1,0.4,0.8,0.4,0.4,0.9
	c-0.1,0-0.2-0.1-0.3-0.1c-0.2-0.2-0.4-0.1-0.4,0.2C140.5,79.2,140.4,79.4,140.2,79.7L140.2,79.7z M58.6,89.8
	c-0.1-0.2-0.2-0.2-0.6-0.2c-0.3,0.2-0.5,0.3-0.7,0.4c-0.4,0.2-0.7,0.1-1-0.2c-0.1-0.1-0.2-0.2-0.4-0.3c0.3,0.5,0.5,0.7,0.8,0.8
	c0.3,0,0.6,0.1,1,0.1s0.7,0.1,1,0.1c0.2,0.1,0.5,0.1,0.8,0.1s0.5,0,0.6,0.2c0.1,0.1,0.4,0.3,0.6,0.4s0.5-0.1,0.5-0.2
	c0.1-0.4,0.4-0.6,0.6-0.9c0.1-0.1,0-0.1,0.1-0.2c-0.2-0.3-0.5-0.4-0.8-0.3c-0.1,0-0.3,0-0.4,0.1c-0.3,0.2-0.5,0.1-0.8-0.1
	c-0.4-0.3-0.6-0.3-1.1,0.1C58.8,89.7,58.7,89.7,58.6,89.8L58.6,89.8z M20.5,33.8c-0.4,0.1-0.6-0.1-0.9-0.4c-0.1-0.1-0.2-0.2-0.4-0.3
	c-0.3-0.2-0.4,0.1-0.6,0.2c-0.3-0.1-0.5-0.4-0.9-0.4c-0.1,0.1-0.1,0.2,0,0.3c0.3,0.1,0.5,0.2,0.5,0.5c0.1,0.1,0.3,0.2,0.4,0.2
	c0-0.2,0.1-0.2,0.2-0.1c0.3,0.3,0.6,0.4,1,0.4c0.2-0.1,0.4,0.1,0.5,0.3c-0.1,0.1,0,0.1-0.1,0.2c0,0.1-0.1,0.1-0.2,0.2
	c0.1,0.2,0.1,0.3,0.2,0.5c0.2,0.3,0.4,0.4,0.6,0.3c0.5-0.1,0.8-0.3,1.3-0.7L22,34.8c-0.5-0.4-0.7-0.8-1.2-1.2
	C20.6,33.7,20.6,33.8,20.5,33.8z M37.2,76.3c0.1-0.2,0.1-0.4-0.2-0.4c-0.2-0.1-0.4-0.2-0.6-0.3c0,0,0-0.1-0.1-0.2
	c0.3-0.2,0.5-0.1,0.7-0.2v-0.1c-0.4-0.3-0.8-0.6-1.2-0.9l-0.2,0.7c-0.2,0.1-0.4,0-0.6,0.1c0,0.1,0,0.2-0.1,0.3
	c-0.1,0.1-0.2,0.2-0.3,0c-0.1,0.2-0.3,0.3-0.3,0.4c-0.2,0.4-0.2,0.8-0.4,1.2c0.2,0.3,0.4,0.3,0.8,0.3c0.2-0.2,0-0.6,0.3-0.7
	c0.1,0,0.1-0.2,0.1-0.3c0-0.3,0-0.5,0-0.8c0.1-0.2,0.2-0.2,0.4-0.1s0.3,0.2,0.5,0.3c0.2,0.1,0.3,0.1,0.4,0.3c0,0.2,0.1,0.3,0.3,0.4
	c0,0.1,0,0.3,0,0.4C36.8,76.6,37,76.5,37.2,76.3z M19.2,26.1c-0.1,0.2-0.2,0.4,0,0.7c-0.1,0.2-0.2,0.3-0.3,0.3
	c-0.1,0-0.2-0.1-0.3-0.2c-0.1-0.1,0-0.1-0.1-0.2c-0.1-0.3-0.4-0.3-0.7-0.2c-0.1,0-0.2,0.2-0.1,0.3c0.1,0.1,0.2,0.2,0.3,0.3
	c0.1,0.1,0.4,0.3,0.6,0.4c0.4,0.2,0.7,0.4,0.9,0.8c0.2,0.4,0.7,0.7,1.1,1c0.2,0,0.3-0.2,0.5-0.5c0.1-0.2,0.2-0.4,0.3-0.6
	c0.2-0.1,0.3-0.1,0.7-0.1c-0.1-0.2-0.2-0.5-0.3-0.4c-0.4,0-0.6-0.3-0.9-0.3c-0.1-0.1-0.3,0-0.4,0c0.2,0.1,0.2,0.2,0.3,0.3
	c0.3,0.1,0.3,0.3,0,0.6c-0.1,0.1,0,0.1-0.1,0.2c0,0.1-0.2,0.1-0.3,0.1c-0.2-0.1-0.3-0.2-0.3-0.3c0,0,0-0.1,0.1-0.2
	c0.1-0.3,0-0.5-0.1-0.7C19.7,27.1,19.5,26.6,19.2,26.1L19.2,26.1z M69.8,30.2c0.7,0.1,0.8,0.7,0.5,1.2c0,0.2-0.1,0.2-0.2,0.3
	c0,0,0,0,0.1,0.1c0.1-0.1,0.3-0.2,0.4-0.2c0.2,0,0.4,0,0.5,0l0.1-0.1c0.1-0.5,0.1-1.1,0.1-1.6c0-0.2-0.2-0.5-0.4-0.7
	c-0.4-0.4-0.8-0.8-1.4-0.7c-0.3,0.9-0.3,1.2,0.1,1.8C69.8,30.3,69.8,30.3,69.8,30.2z M62.6,84.3c0.3-0.3,0.5-0.6,0.8-0.9
	c0.2-0.2,0.3-0.4,0.2-0.6c0-0.2-0.1-0.6-0.5-0.6c-0.3,0.4-0.6,0.9-1.2,0.9c-0.1,0.3-0.2,0.6-0.1,0.8c0.2,0.5,0.1,0.9-0.2,1.3
	c0.2-0.2,0.5-0.2,0.6-0.2c0.3,0,0.1,0.1,0.1,0.1c0,0.5,0.3,0.8,0.9,0.8v-0.4c-0.1-0.3-0.1-0.5-0.2-0.7
	C62.7,84.8,62.7,84.7,62.6,84.3z M71.3,47.4c0.1,0,0.2,0,0.3,0.2c0.1,0.5,0.3,0.8,0.6,1c0.4,0.3,0.4,0.5-0.1,0.9
	c-0.2,0-0.4-0.1-0.5-0.1v0.2c-0.1,0-0.1,0-0.2,0.1c-0.3,0.3-0.5,0.3-0.8,0s-0.4-0.7-0.7-1c-0.1-0.2-0.2-0.3-0.2-0.4
	c0.4-0.1,0.6-0.1,0.9-0.1c0-0.3-0.1-0.5-0.1-0.6C70.7,47.6,70.9,47.5,71.3,47.4z M71.7,49c0,0.1,0.1,0.2,0.1,0.2s0.1,0,0.2-0.1
	l-0.1-0.2C71.8,49,71.8,49,71.7,49z M70.5,22.2c0.2,0.1,0.4,0.1,0.5,0c0.4-0.1,0.7-0.3,1.1-0.5c0.2-0.2,0.4-0.3,0.3-0.5
	c-0.1-0.3-0.1-0.5-0.3-0.7s-0.4-0.2-0.5-0.4c-0.2,0-0.5-0.2-0.6,0s-0.4,0.3-0.5,0.5c-0.2,0.2-0.3,0.5-0.6,0.9
	C69.7,21.9,70.1,22.3,70.5,22.2z M1.9,44.1c-0.2-0.2-0.4-0.5-0.5-1c0.2-0.3,0.5-0.2,0.7-0.3c0.3,0,0.6-0.1,0.9-0.1
	c-0.1-0.3-0.3-0.5-0.4-0.7c-0.2,0.1-0.4,0.3-0.7,0.4c-0.2,0-0.4-0.1-0.5-0.1s-0.3,0.2-0.3,0.3c0.1,0.1,0,0.1,0.1,0.2
	c0.1,0.3,0,0.5-0.2,0.7c0.6,0.5,0.7,1.1,1.1,1.7c0.2,0,0.5-0.1,0.8-0.1s0.6,0,0.8-0.3C3.1,44.4,2.6,44,1.9,44.1L1.9,44.1z M70,66.1
	c0.5-0.1,0.6,0.4,0.8,0.5c0.1-0.1,0.1-0.1,0.2-0.3s0-0.3,0-0.4c-0.2-0.5-0.3-0.9-0.4-1.5c-0.1-0.7-0.6-1.1-1.1-1.4
	c-0.4,0.4-0.6,0.6-0.4,1c0.1,0.3,0.1,0.5,0.2,0.7c0.1,0.1,0.1,0,0.2,0.1c0.7,0.2,0.8,0.3,0.6,1C70.2,65.8,70.1,65.9,70,66.1L70,66.1
	z M8.2,31.1c-0.2,0-0.2,0.1-0.3,0c-0.5-0.3-1.1-0.5-1.3-1.2c-0.2,0-0.4,0.1-0.6,0c-0.3-0.2-0.5-0.1-0.8,0C5.2,30,4.9,30,4.8,30
	c-0.4,0-0.6,0.1-0.9,0.2c0.1,0.4,0.4,0.4,0.5,0.4c0.5,0,0.9,0.1,1.3,0.1c0.5,0,0.9,0.2,1.3,0.5c0.2,0.3,0.4,0.4,0.8,0.4
	c0.2,0.1,0.3,0.3,0.4,0.5C8.2,31.7,8.1,31.5,8.2,31.1z M79.7,32.9c0.3-0.2,0.5-0.2,0.7-0.3c0.1-0.1,0.1-0.2,0.1-0.2l-0.1-0.2
	c-0.3,0-0.5-0.1-0.7-0.3c-0.1-0.1-0.4-0.1-0.5-0.1c-0.5,0.1-0.8,0.3-1,0.7c0,0.1-0.1,0.3-0.3,0.4c-0.2,0.2-0.2,0.4,0,0.6
	c0,0,0,0.1,0.1,0.2c0.1,0.1,0.2,0.1,0.3,0.2C78.9,33.6,79.3,33.2,79.7,32.9z M61.6,86.2c0.2,0.3,0.1,0.6,0.1,1
	c-0.6,0.1-1.2,0.4-1.6-0.3c-0.1-0.1-0.3-0.2-0.4-0.2c-0.3-0.1-0.5-0.1-0.5-0.5c0.7-0.1,1.1-0.5,1.7-0.4v-0.6c0.2,0,0.4,0.1,0.6,0
	C61.3,85.6,61.2,86,61.6,86.2z M60.9,86.4L60.9,86.4c-0.2-0.1-0.2-0.1-0.3,0c-0.1,0.2,0,0.3,0.2,0.4c0,0.1,0,0,0,0
	C60.9,86.7,60.9,86.6,60.9,86.4z M12.3,22.5c0.2,0,0.2-0.1,0.1-0.2c-0.2-0.3-0.3-0.6-0.5-1c-0.1-0.3-0.3-0.5-0.6-0.7
	c-0.4-0.2-0.9-0.3-1.4-0.6c-0.2,0-0.4-0.1-0.6,0.2C10.4,21,11.4,21.9,12.3,22.5z M28.7,72.7c0.2,0,0.4,0,0.6-0.1
	c0.4-0.3,0.3-0.6,0.1-1c-0.2-0.1-0.5-0.1-0.7-0.2c-0.2,0.6-0.4,0.8-1,0.6c-0.1-0.1-0.1,0-0.2-0.1c-0.5,0.3-0.6,0.6-0.4,1
	c0.5,0,1,0.5,1.5,0.3C28.6,73.1,28.6,72.9,28.7,72.7z M12.9,38.3c-0.4,0-0.7,0.3-1-0.1c0.1,0.2,0,0.4,0.1,0.6c0.1,0.2,0,0.4,0.1,0.6
	C12,39.7,12,39.8,11.8,40s-0.2,0.4-0.1,0.6c0.2,0,0.3,0.1,0.5,0.1s0.4,0.1,0.5,0.1c0-0.4-0.2-0.9,0-1.2c0.1-0.3,0.4-0.6,0.9-0.8
	C13.3,38.5,13.1,38.4,12.9,38.3z M143.2,104.7C143.2,104.7,143.1,104.7,143.2,104.7c-0.1-0.3-0.3-0.3-0.4-0.3c0-0.2,0.1-0.3,0.2-0.3
	c0.4,0.1,0.9,0.2,1.4,0.3c0.2,0,0.3,0.2,0.3,0.3c0,0.2-0.1,0.2,0,0.3l0.1,0.1c0.1,0.1,0.3,0.1,0.3,0.2s-0.2,0.1-0.3,0.1
	s-0.3,0.1-0.5,0.2c-0.1,0.1-0.2,0.2-0.3,0.3l-1.2-0.5c-0.1-0.3-0.1-0.5,0.2-0.6C143.2,104.8,143.2,104.8,143.2,104.7z M12.3,24.9
	c0.3,0.3,0.5,0.5,0.8,0.8c0.2,0.2,0.1,0.5,0.2,0.7c0.1,0.2,0.1,0.5,0.1,0.6c0,0,0,0,0,0.2l-0.1-0.1c-0.2-0.4-0.2-0.4-0.6-0.4
	c-0.2,0-0.3,0-0.5-0.1s-0.4-0.2-0.7-0.4l-0.3-0.3c0.2,0.1,0.2,0,0.3,0.1c0.1,0,0.3-0.2,0.3-0.3c0.1-0.4,0.1-0.8,0.2-1.1
	C12,24.8,12.3,24.8,12.3,24.9z M12.5,26C12.5,26,12.4,25.9,12.5,26z M11.8,41.4c-0.1,0.1,0,0.2,0.1,0.3c0.3,0.3,0.7,0.4,1.2,0.4
	c0.3,0,0.5,0.1,0.8,0.1c0.4-0.2,0.4-0.5,0.3-0.8c-0.1-0.4-0.2-0.8-0.4-1.2c-0.1-0.1-0.2-0.1-0.3-0.2c0,0.2-0.2,0.5-0.3,0.7
	C13.1,41,13,41.2,13,41.5C12.7,41.4,12.3,41.2,11.8,41.4z M7,42.7c-0.2-0.2-0.4-0.1-0.6,0c-0.2-0.1-0.4-0.2-0.5-0.5
	c-0.2-0.3-0.3-0.4-0.7-0.3C4.9,42,4.7,42,4.5,42.1c0,0.1-0.1,0.4,0,0.5s0.3,0.3,0.4,0.3C5.1,43,5.3,43,5.4,43
	c0.4,0.1,0.8,0.2,1.1,0.4c0.2,0.2,0.4,0.2,0.8,0.2C7.4,43.1,7.2,43,7,42.7z M18.4,61.3c-0.1,0.2-0.3,0.4-0.5,0.3
	c-0.3-0.1-0.6,0.1-1,0.1c-0.1-0.3,0.2-0.3,0.3-0.5c0.2-0.1,0.2-0.4,0.3-0.6c0.2,0,0.4,0.1,0.6,0c0.4,0,0.8,0,1.1-0.3
	c0,0,0.1,0,0.2,0.1c0,0.4,0,0.8,0.2,1c-0.3-0.1-0.4-0.1-0.6-0.2C18.6,61.1,18.6,61.1,18.4,61.3z M17.6,61.2l0.1,0.1
	c0.1,0,0.1,0,0.2-0.1L17.8,61C17.7,61,17.6,61,17.6,61.2z M17.1,40.4c0.3,0.7,0.5,0.8,1.1,0.7c-0.1-0.2-0.3-0.1-0.4-0.3
	c0-0.1-0.1-0.2-0.1-0.3c-0.1-0.2,0.1-0.2,0.2-0.2l0.1-0.1L17.8,40c0.1-0.1,0.1-0.2,0.2-0.3c0.3-0.6,0.4-0.6,1-0.1
	c-0.1,0.2-0.2,0.3-0.3,0.5c-0.1,0,0,0.1,0,0.1h0.1c0.3-0.1,0.4-0.4,0.3-0.7L19,39.3L18.7,39c-0.3,0-0.5-0.1-0.8-0.1
	s-0.4-0.4-0.7-0.5C17.4,39.1,17.2,39.7,17.1,40.4z M30.9,67.5c-0.2,0.2-0.4,0.2-0.6,0.4c-0.1,0.2,0,0.4-0.1,0.6c0,0,0,0,0.1,0.2
	c0.2,0.3,0.4,0.5,0.7,0.8c0.1,0.1-0.1,0.2-0.1,0.5c0.1-0.4,0.3-0.5,0.2-0.7c-0.1-0.5-0.1-0.7,0.3-0.7s0.4-0.3,0.4-0.6
	C31.6,67.8,31.2,67.6,30.9,67.5z M8.1,55.1c-0.3,0-0.2-0.2-0.3-0.4l0.5-0.5C8.1,54,7.8,54,7.5,54.1c0,0.1-0.2-0.1-0.3-0.1
	c-0.2,0.1-0.3,0.3-0.3,0.6c0.3,0.4,0.6,0.7,1,1c0.3,0.3,0.6,0.3,1,0.1c0.1-0.1,0.2-0.1,0.4-0.2c0.1-0.1,0.1-0.2,0.2-0.3
	C9.1,55.1,8.7,55.2,8.1,55.1z M50,86.5c0.5-0.4,0-0.6,0.1-1c0-0.1,0.1-0.2,0.2-0.3c0.1,0,0.1-0.2,0.1-0.3c-0.1-0.2-0.2-0.3-0.3-0.3
	c-0.4,0-0.7,0.3-0.8,0.6c0,0.2-0.1,0.2-0.3,0.3c-0.1,0-0.2,0-0.3,0.1s-0.1,0.2,0,0.4c0.1,0.1,0.2,0.2,0.3,0.2
	C49.3,86.3,49.7,86.4,50,86.5L50,86.5z M71.9,45.3c-0.2,0-0.6,0.1-0.8,0c0,0.2,0,0.5,0.1,0.8c0.2,0.1,0.5,0.1,0.8,0.1
	c0.4-0.1,0.7,0,0.9,0.4c0.1,0.2,0.4,0.3,0.7,0.5c0,0,0.1-0.1,0.2-0.3c-0.5,0.1-0.7,0.1-0.8-0.3l-0.2-0.2c-0.3-0.1-0.6-0.4-0.6-0.8
	C72.2,45.4,72,45.3,71.9,45.3L71.9,45.3z M44.6,80.1c0.4,0.4,0.9,0.3,1.3,0.5l0.7-0.6c-0.1-0.3-0.2-0.4-0.4-0.5
	c-0.5,0-0.8-0.1-1.3-0.2C44.7,79.6,44.6,79.8,44.6,80.1z M22.6,58.4c-0.2,0.1-0.5,0.1-0.6,0.1c-0.2-0.1-0.3-0.2-0.5-0.3
	c0.3-0.3,0.7-0.5,1.1-0.8c0.3,0,0.7-0.1,1-0.2c0.1,0.2,0.3,0.3,0.3,0.4c0,0.1,0.2,0.2,0.3,0.4c-0.3,0-0.3,0-0.4,0
	c-0.3,0-0.5-0.1-0.8-0.1c0,0.2,0,0.2,0,0.3C22.7,58.2,22.5,58.2,22.6,58.4z M70.1,66.7l-0.5-0.5c0-0.3,0.1-0.6-0.2-1
	c-0.1-0.1-0.2-0.1-0.3,0c-0.4,0-0.5,0.1-0.5,0.5c0,0.5,0.1,1,0.1,1.5c0.3,0.1,0.6,0.1,0.8-0.1c0,0-0.2,0-0.2-0.1c0,0,0-0.1-0.1-0.2
	l0.2-0.1c0.1,0,0.1,0.1,0.2,0.2s0,0.1-0.1,0.2C69.6,67.1,69.7,67,70.1,66.7z M32.1,77.8c0,0.2,0.1,0.4,0.2,0.6
	c0.1,0.2,0,0.4-0.1,0.6c0.1,0.1,0.3,0.2,0.3,0.5c0,0.2,0.1,0.5,0.4,0.5c0.2-0.5,0.3-0.9,0.5-1.5c-0.1-0.5-0.8-0.6-1.2-1.2
	C32.2,77.6,32.1,77.7,32.1,77.8z M16.4,26.8c0.1,0.3,0.1,0.4,0.2,0.5c0.5,0.5,0.9,1.1,1.4,1.6c0.2,0.2,0.5,0.4,0.9,0.3
	c0-0.1,0-0.2-0.1-0.3c-0.5-0.4-0.8-0.8-1.2-1.1c-0.2-0.1-0.5-0.2-0.6-0.4C16.8,27.3,16.8,27.1,16.4,26.8z M21.7,14.1
	c-0.1-0.5-0.3-0.8-0.5-1.2c-0.1-0.4-0.3-0.8-0.4-1.2c-0.1-0.1-0.1-0.3-0.2-0.4c-0.1-0.1-0.1-0.2-0.2-0.1c-0.1,0.1-0.2,0.1-0.1,0.2
	c0,0,0,0.1,0.1,0.2c0.2,0.2,0.3,0.4,0.1,0.7c-0.2,0.4-0.1,0.7,0.2,0.9c0.2,0.1,0.4,0.1,0.5,0.3C21.3,13.5,21.3,13.8,21.7,14.1z
	 M73.8,74.7c-0.4,0.1-0.5,0.3-0.5,0.7c0.1,0.3,0.2,0.6,0.2,1c0.3,0,0.4-0.1,0.4-0.2v-0.4c0.3-0.3,0.8-0.4,0.5-1.1
	C74.2,74.7,74,74.6,73.8,74.7z M6,55.7c0,0.1,0,0.2-0.2,0.3c0.1,0,0.1,0.1,0.2,0.2c0.4,0.4,0.7,0.8,0.8,1.2c0,0,0,0.1,0.1,0.2
	c0.1,0.1,0.2,0,0.3,0c0.2,0,0.2-0.2,0.2-0.3s0-0.2-0.1-0.3c-0.2-0.2,0.1-0.5-0.2-0.7c-0.2-0.1-0.4-0.3-0.5-0.5s-0.3-0.2-0.4-0.2
	C6.2,55.6,6.1,55.6,6,55.7L6,55.7z M63.2,70.1c-0.2-0.6-0.6-0.7-1.1-0.7c-0.2,0.4-0.3,0.7-0.4,1.2c0.3,0.2,0.6,0,0.9,0
	C62.9,70.7,62.8,70.1,63.2,70.1z M21.2,60c-0.2-0.1-0.3-0.2-0.6-0.4c-0.2,0.3-0.6,0.5-0.6,0.9c0,0-0.2,0-0.3,0.1v0.1l0.1,0.1
	c0.1,0,0.3,0,0.4,0c0.3,0.1,0.3,0.1,0.5,0.3C20.8,60.8,21,60.4,21.2,60z M36.6,76.8c0.2,0.1,0.4,0.2,0.3,0.5
	c-0.1,0.3,0.1,0.8-0.1,1.1c0.1,0.3,0.1,0.5,0.2,0.7c0.4-0.2,0.5-0.2,0.5-0.5s0.1-0.6,0-0.9s-0.3-0.5-0.5-0.9
	C37,76.8,36.7,76.8,36.6,76.8L36.6,76.8z M13.2,18.8c-0.1,0.1-0.1,0-0.2,0.1c-0.2,0-0.2,0-0.3-0.2c-0.1,0,0-0.1,0.1-0.3
	c-0.2,0.2-0.4,0.3-0.3,0.5c0.1,0.4,0.4,0.8,0.9,0.9c0.1,0,0.2,0.1,0.5,0.3C13.7,19.5,13.4,19.2,13.2,18.8z M17.9,34.3
	c0,0.2-0.1,0.4-0.2,0.6c0.3,0.3,0.6,0.5,1,0.5c0.2-0.1,0.4-0.2,0.3-0.4c0.1-0.1,0-0.3-0.2-0.4c-0.2-0.1-0.3-0.3-0.1-0.6
	C18.5,34.2,18.2,34.3,17.9,34.3z M47.5,83.8c0-0.3-0.1-0.5-0.3-0.7s-0.4-0.1-0.4,0c-0.1,0.4-0.2,0.6-0.4,0.9
	c-0.1,0.2,0.1,0.4,0.2,0.4c0.2,0.1,0.5,0.1,0.8,0.1C47.5,84.3,47.5,84,47.5,83.8z M56.2,88c0.1-0.3,0.1-0.5,0.1-0.9L56,86.7
	c-0.3-0.1-0.5-0.1-0.5,0.2c0,0.3,0,0.6-0.1,0.9s0.1,0.4,0.2,0.6c0.2-0.2-0.4-0.4,0-0.6C55.6,87.9,55.8,87.9,56.2,88z M22.4,70
	c0.3,0.4,0.5,0.6,0.8,0.9c0.4,0,0.8,0,1-0.4c-0.1-0.3-0.5-0.4-0.7-0.5c-0.1,0.1-0.2,0.1-0.2,0.1C23,70.3,22.7,70.2,22.4,70z
	 M29.4,69.2c-0.1,0.2-0.2,0.4-0.3,0.5c0.1,0.3,0.6,0.3,0.3,0.7c-0.2,0.2-0.7-0.2-0.7,0.4c0.2,0.2,0.4,0.4,0.8,0.4
	C30,70.1,30,69.9,29.4,69.2z M36,72.7c-0.5,0.2-0.6,0.6-0.8,0.9c-0.1,0,0.1,0.3,0.2,0.2c0.4-0.1,0.8,0.1,1.2,0.4
	C36.6,73.4,36,73.1,36,72.7z M128.8,99.1c-0.1,0.5-0.4,0.8-0.8,1.1c0.2,0.1,0.3,0.2,0.5,0.3l0.4-0.3c0.3-0.4,0.5-0.8,0.8-1.2
	C129.4,99,129.2,99.1,128.8,99.1L128.8,99.1z M66.2,74.9c0-0.3-0.1-0.6-0.3-0.7c-0.1,0-0.3-0.1-0.5,0c-0.2,0.2-0.4,0.3-0.7,0.4
	c-0.1,0.1,0,0.2,0,0.3c0,0.1,0,0.1,0.1,0.2C65.3,75,65.7,74.9,66.2,74.9z M14.9,42c0.1,0,0.1,0.2,0.2,0.2c0.1,0,0.2,0,0.3-0.1
	c0.2-0.2,0.3-0.4,0.2-0.7c0.1-0.2,0-0.3,0-0.4c-0.1-0.4-0.2-0.3-0.7-0.3C15,41.2,14.9,41.6,14.9,42z M51,83.8
	c0.1-0.4,0.2-0.7,0.2-1.1c0-0.2-0.2-0.4-0.5-0.5c-0.1,0.3-0.2,0.5-0.4,0.8C50.5,83.2,50.7,83.4,51,83.8z M17.6,17.7
	c-0.1,0-0.3,0.1-0.5,0.2c-0.3,0-0.4,0-0.6-0.1c-0.1,0.2,0.1,0.5,0.5,1c0.2-0.3,0.3-0.4,0.5-0.7c0.2,0,0.4,0.1,0.5,0.1
	C18,18,17.9,17.8,17.6,17.7z M9.9,31.6c0.3,0.1,0.4,0,0.5,0s0.3,0,0.4,0c0.1-0.2,0.1-0.3,0-0.4L10,30.3c-0.2,0.2-0.2,0.3-0.2,0.3
	c0.1,0.2,0.1,0.5,0.1,0.6C9.9,31.4,9.8,31.6,9.9,31.6z M22.9,29.6c-0.3-0.1-0.6,0.1-0.8,0.4c-0.1,0-0.4,0-0.5,0
	c-0.1-0.1-0.2,0.1-0.1,0.3c0.2,0.2,0.4,0.2,0.6,0.1C22.4,30.2,22.7,29.9,22.9,29.6z M74,66.1c0.2-0.2,0.4-0.5,0.6-0.8
	c-0.1-0.3-0.2-0.4-0.6-0.4c-0.2,0.4-0.3,0.9-0.5,1.3C73.6,66.2,73.8,66.3,74,66.1z M22,44.2c0,0.2,0.1,0.2,0.2,0.4
	c0.2-0.1,0.5-0.3,0.9-0.3c0.1-0.2,0.1-0.3,0-0.4c-0.1-0.3-0.3-0.4-0.5-0.3C22.3,43.8,22.2,44,22,44.2z M75.6,25c0,0.3,0,0.5,0.1,0.7
	s0.4,0.4,0.6,0.2c0.2-0.2,0.3-0.4,0.2-0.6s-0.2-0.4-0.5-0.4C75.9,24.9,75.8,24.9,75.6,25z M72.6,24.5c0.1,0.3,0.4,0.3,0.8,0.1
	c-0.1-0.2-0.2-0.5-0.4-0.9C72.5,24.1,72.4,24.3,72.6,24.5z M12,42.5c-0.1,0.2-0.1,0.5-0.1,0.8c0.3,0.2,0.3,0.1,0.5,0
	c0.1-0.1,0.4-0.3,0.4-0.6C12.4,42.6,12.4,42.6,12,42.5z M52.9,77c0.1-0.2,0.1-0.2-0.1-0.3s-0.3-0.1-0.4,0c0,0.2-0.1,0.4-0.2,0.6
	c-0.1,0.2,0,0.3,0.2,0.4s0.3,0,0.4-0.2C52.8,77.3,52.9,77.1,52.9,77z M16.6,33.4c0.3-0.3,0.2-0.5-0.2-0.7c-0.2-0.2-0.5,0-0.4,0.2
	c0,0.1,0.1,0.3,0.1,0.7C16.3,33.5,16.5,33.4,16.6,33.4z M15.4,40.3c-0.1-0.3-0.3-0.5-0.4-0.7c-0.2-0.3-0.3-0.4-0.4-0.7
	c0,0.1-0.1,0.2-0.1,0.2c0,0.4,0.3,0.7,0.3,1.1C14.8,40.3,14.9,40.3,15.4,40.3z M13,51.8c0-0.3,0.1-0.5,0.3-0.8c0,0,0-0.1-0.1-0.2
	c-0.1,0.1-0.1,0-0.2,0.1c-0.2,0-0.4,0.3-0.4,0.6s-0.1,0.5-0.1,0.8C12.8,52.3,12.9,52,13,51.8z M26.4,70.6c0.2,0.2,0.3,0.1,0.4,0
	s0.1-0.2,0-0.4s-0.4-0.3-0.7-0.4c-0.1,0.3,0,0.5,0.1,0.7C26.4,70.5,26.5,70.6,26.4,70.6z M16.2,34.3c0,0,0,0.2,0,0.3s0,0.1,0.1,0.2
	c0.1,0.2,0.2,0.3,0.4,0.2c0.1,0,0.3-0.1,0.2-0.3c0-0.3,0-0.5,0-0.8C16.5,34,16.6,34.4,16.2,34.3z M5.2,32c-0.3-0.1-0.6-0.2-0.9,0.1
	c0,0.5,0.2,0.6,0.5,0.8C5.1,32.7,5.1,32.4,5.2,32z M137.9,69.7c-0.2,0.1,0,0.2,0.1,0.4c0.2,0.1,0.4,0,0.4-0.1
	c0.1-0.2,0.2-0.4,0.2-0.7c-0.1-0.1-0.1-0.3-0.2-0.4C138.1,69.2,138,69.3,137.9,69.7z M26.1,43.6c0.1-0.1,0.1-0.3,0-0.4
	c-0.1-0.1-0.3,0-0.3,0.1c-0.1,0.1-0.2,0.2-0.2,0.3c-0.2-0.1-0.5-0.1-0.8-0.1C25.5,44.1,25.7,44.1,26.1,43.6z M126.3,97.1
	c0,0.3,0,0.3,0.2,0.4s0.4,0.1,0.5,0.1l0.7,0.1c0-0.2,0-0.2-0.1-0.3C127.2,97.1,126.7,97.1,126.3,97.1L126.3,97.1z M73.5,40.2
	c0.3,0.2,0.5,0.1,0.6-0.1c0.1-0.2-0.1-0.4-0.3-0.5c-0.1-0.1-0.3,0-0.3,0.1C73.4,39.9,73.5,40.1,73.5,40.2z M68.7,62.6
	c-0.2,0-0.3,0-0.6,0c0,0.3-0.1,0.5,0,0.9C68.5,63.3,68.6,63,68.7,62.6z M37.1,5.2c0.5,0.6,1,0.5,1.5,0.5C38.1,5.3,37.7,5.1,37.1,5.2
	z M31.7,15c-0.3-0.4-0.7-0.5-1.2-0.5C30.8,14.8,31,15.1,31.7,15z M77.3,35.5c0-0.1,0-0.3,0-0.4c-0.1-0.2-0.3-0.3-0.5-0.1
	c-0.1,0.2-0.3,0.3-0.5,0.5C76.7,35.6,76.9,35.7,77.3,35.5z M19.2,62.2c-0.3,0.1-0.5,0.3-0.8,0.4c0.2,0.4,0.5,0.3,0.6,0.3
	c0.2-0.1,0.4-0.2,0.6-0.4C19.6,62.4,19.4,62.3,19.2,62.2z M9.5,55.2l0.2,0.2c0.4-0.2,0.8-0.2,1.2-0.3L11,55c0-0.2-0.3-0.3-0.4-0.2
	C10.3,55.1,9.7,54.9,9.5,55.2C9.5,55.3,9.5,55.3,9.5,55.2z M24.5,26.7c-0.1-0.2-0.2-0.3-0.4-0.2c-0.1,0.1-0.1,0.3,0,0.5
	c0.2,0.1,0.3,0.2,0.6,0.4C24.8,27.1,24.7,26.8,24.5,26.7z M74.6,50.9c0.6,0.2,0.7-0.1,0.9-0.5c-0.3-0.1-0.4-0.1-0.6-0.2
	C74.7,50.5,74.6,50.7,74.6,50.9z M14.6,23.6c-0.2-0.3-0.6-0.5-0.9-0.8c0,0.4,0,0.6,0.3,0.8C14.2,23.8,14.3,23.9,14.6,23.6z
	 M9.6,53.1c0.3,0.1,0.7,0.2,1-0.3c-0.3-0.2-0.5-0.1-0.6,0.1C9.9,53.1,9.7,53.2,9.6,53.1z M64.7,78.5c-0.1,0.3-0.1,0.6,0,0.9
	c0.1,0,0.2,0,0.3-0.1c0.3-0.1,0.3-0.2,0.2-0.3C65.2,78.8,65,78.6,64.7,78.5z M22.5,58.8c-0.3,0-0.5-0.1-0.8-0.1
	c-0.2,0.2-0.1,0.3,0.1,0.4l0.7-0.1C22.5,59,22.5,59,22.5,58.8z M13.4,33.9c0.1-0.1,0-0.2-0.1-0.3s-0.2-0.1-0.3,0
	c-0.1,0-0.1,0.2-0.1,0.3c0.1,0.1,0.1,0.2,0.2,0.4C13.3,34.1,13.4,34,13.4,33.9z M75.7,55c0-0.3-0.2-0.4-0.2-0.7
	c-0.2-0.2-0.4-0.3-0.6-0.2C75.2,54.4,75.4,54.7,75.7,55z M30.2,13.6c0-0.2,0-0.2,0-0.3c0.1-0.2-0.1-0.4-0.3-0.2
	c-0.1,0.1-0.2,0.2-0.3,0.3C29.8,13.6,30,13.7,30.2,13.6z M6.2,39.5c0-0.2,0-0.5,0-0.6c0.1-0.1-0.1-0.2-0.1-0.2l-0.2,0.1
	c0,0.2,0,0.5,0,0.6C6,39.4,6,39.5,6.2,39.5C6.2,39.6,6.3,39.6,6.2,39.5z M69.3,62.6c0.4-0.2,0.7,0.1,1-0.2c-0.1-0.3-0.2-0.4-0.6-0.3
	C69.5,62.2,69.4,62.2,69.3,62.6z M25.2,70.7c0,0.1,0.1,0.2,0.3,0.3c0.2-0.2,0.4-0.3,0.7-0.4C25.9,70.3,25.6,70.5,25.2,70.7z
	 M18.3,63.8c-0.5-0.1-0.8-0.4-1.1,0.1C17.4,64,17.7,63.9,18.3,63.8z M17.1,63.1c0-0.2,0.1-0.2,0.2-0.3c0-0.1,0-0.1,0-0.1
	c-0.2,0.2-0.5-0.2-0.8-0.1C16.7,62.9,17,63,17.1,63.1z M22.9,45.1c0,0.1,0.1,0.2,0.1,0.2c0.1,0.1,0.8-0.2,1-0.3
	C23.5,44.9,23.2,45,22.9,45.1z M53.6,55.6c0.1,0.2,0,0.4,0.1,0.6c0.1,0.2,0.2,0.4,0.3,0.3c0.1-0.1,0-0.3,0-0.4
	C53.9,55.9,53.9,55.6,53.6,55.6z M45.9,86.6c0,0-0.1-0.2-0.2-0.1c-0.1,0.1-0.1,0.3,0,0.4c0.2,0.1,0.3,0.1,0.5,0
	C46.2,86.8,46.2,86.6,45.9,86.6z M136.2,86.3c-0.1-0.2-0.4-0.2-0.7-0.1c0.2,0.3,0.4,0.3,0.5,0.5C136,86.6,136.1,86.4,136.2,86.3z
	 M69.2,61c-0.2-0.3-0.4-0.6-0.8-0.5C68.7,60.8,69,60.9,69.2,61z M21.7,45.6c0.4,0.1,0.6,0.2,0.9,0.4C22.1,45.4,22.1,45.4,21.7,45.6z
	 M144,76.6c0.1,0.3,0.1,0.5,0.4,0.5c0.2,0.1,0.2-0.1,0-0.6C144.3,76.6,144.2,76.6,144,76.6z M134.2,105.1c-0.1,0-0.3-0.1-0.6,0
	c-0.1,0.1-0.1,0.1,0,0.3c0.1,0.1,0.1,0,0.2,0.1L134.2,105.1z M7,53.8c-0.2-0.1-0.3,0-0.4,0c-0.1,0.1-0.2,0.1-0.4,0
	c0.3,0.3,0.6,0.4,1,0.4C7,54,7,54,7,53.8z M80.4,36.2c0.1-0.2,0.1-0.3,0-0.4c-0.1-0.1-0.1-0.2-0.2-0.1c-0.1-0.1-0.1,0-0.2,0.1
	c-0.1,0.2-0.1,0.3,0.1,0.4C80.2,36.3,80.4,36.2,80.4,36.2z M58.3,87.7c0.2,0,0.3-0.2,0.2-0.3c-0.1-0.1-0.2-0.3-0.3-0.2
	c-0.2,0-0.4,0.2-0.4,0.2s0,0.1,0.1,0.2C58,87.6,58.1,87.7,58.3,87.7z M136.3,86.8c0.1,0.1,0.2,0.3,0,0.4l0.5-0.4
	c-0.1-0.1-0.1-0.2-0.2-0.4c-0.3,0.1-0.5,0.1-0.7,0.2C136,86.8,136.2,86.8,136.3,86.8z M131.9,106.8c0.3-0.3,0.4-0.5,0.3-0.7
	L131.9,106.8z M28.7,15.5c0.1,0.1,0.2,0.3,0.5,0.3c0,0,0-0.1-0.1-0.2c-0.4-0.1-0.7-0.3-1-0.4C28.3,15.3,28.4,15.4,28.7,15.5z
	 M60.8,88.4c-0.2-0.1-0.5-0.1-0.7-0.2L60,88.3c0,0.1,0.1,0.2,0.1,0.2C60.3,88.4,60.5,88.4,60.8,88.4L60.8,88.4z M10.4,23.7
	c0.3,0.2,0.4,0.3,0.6,0.4c0-0.1,0.1-0.2,0.1-0.2C11,23.6,10.7,23.6,10.4,23.7z M33.1,50.4c0.2,0.1,0.5,0,0.6-0.2c0.1,0,0-0.1,0-0.1
	c-0.2-0.2-0.5-0.1-0.6,0.1C33.1,50.3,33.1,50.4,33.1,50.4z M64,38.4c0.2-0.1,0.4,0,0.6-0.1c0-0.2,0-0.3,0-0.6
	C64.4,37.9,64.1,38.1,64,38.4z M28.7,68c-0.3,0.1-0.5,0-0.7,0.3C28.5,68.5,28.7,68.5,28.7,68z M143.6,78c-0.3-0.2-0.4-0.2-0.8,0
	c0.2,0.1,0.6,0.2,0.8,0.3C143.7,78.2,143.7,78.1,143.6,78z M70.4,71.8c0,0-0.1-0.2-0.2-0.1c-0.1-0.1-0.2,0.1-0.2,0.1
	c0,0.2,0.1,0.4,0.3,0.5C70.3,72.1,70.3,72,70.4,71.8z M37.3,16.6c-0.1-0.4-0.2-0.5-0.4-0.6C36.8,16.4,37,16.4,37.3,16.6z M7,29.8
	c0.2,0.3,0.4,0.3,0.5,0.5C7.4,29.9,7.1,29.7,7,29.8z M9.8,22.9c-0.1-0.3-0.3-0.5-0.5-0.3c0-0.1,0,0,0,0C9.5,22.9,9.4,22.8,9.8,22.9z
	 M35.3,78.6c-0.1-0.3-0.2-0.5-0.3-0.7C34.8,78.1,35,78.3,35.3,78.6z M75.7,39.4c0-0.1,0-0.2-0.1-0.3s-0.3,0-0.3,0.1
	c0,0,0,0.1,0.1,0.2C75.6,39.2,75.7,39.3,75.7,39.4z M29.6,16.3c0,0.3,0.3,0.4,0.5,0.6C30,16.6,30,16.3,29.6,16.3z M58.3,87.9
	c-0.1,0.1-0.1,0.2-0.1,0.2c0.1,0.2,0.3,0.1,0.5,0C58.6,88,58.5,87.8,58.3,87.9z M142.6,82.5c0.1,0,0.1,0,0.2,0v-0.1
	c0-0.1,0-0.1-0.1-0.2s-0.1-0.2-0.2-0.1v0.1C142.5,82.3,142.5,82.4,142.6,82.5L142.6,82.5z M5.7,54.6C5.7,54.8,5.7,54.9,5.7,54.6
	C5.8,54.8,5.8,55,6,54.9v-0.1C6,54.7,5.9,54.5,5.7,54.6C5.6,54.7,5.6,54.7,5.7,54.6z M39.8,78.9c0,0,0-0.1-0.1-0.2s-0.3,0-0.3,0.1
	c0,0,0.1,0.1,0.1,0.2C39.6,79,39.7,79,39.8,78.9z M20.5,14.3c0.1,0,0.3-0.1,0.3-0.1c0-0.1-0.1-0.3-0.1-0.3s-0.1,0-0.2,0.1
	C20.5,14.1,20.6,14.2,20.5,14.3z M144.8,75.9l0.3-0.2l-0.1-0.1C144.9,75.6,144.8,75.7,144.8,75.9L144.8,75.9
	C144.8,75.9,144.9,75.9,144.8,75.9z M143.2,79.6c0,0,0.1,0,0.2-0.1v-0.1c-0.2,0-0.2,0-0.3,0c0,0,0,0.1-0.2,0.2
	C143.1,79.7,143.1,79.7,143.2,79.6z M127.4,99c0.1,0.1,0.2,0.1,0.4,0l-0.1-0.2c-0.2-0.3-0.2-0.3-0.5,0
	C127.2,98.7,127.4,98.7,127.4,99z M137.8,71.1c0.1,0.1,0.1,0.3,0.3,0.2v-0.1C138.1,71,137.9,71,137.8,71.1c0-0.2,0-0.2-0.1-0.1
	C137.7,71.2,137.7,71.2,137.8,71.1z M132.6,78.4c0-0.1,0-0.2-0.1-0.4C132.3,78.2,132.3,78.3,132.6,78.4z M74.3,59.7L74.3,59.7
	c0.2,0,0.2-0.3,0-0.4c0.1-0.1,0.1-0.1,0,0C74.2,59.4,74.2,59.5,74.3,59.7z M75.6,52.9C75.6,52.9,75.6,53,75.6,52.9l0.2-0.1
	c0-0.1-0.2-0.3-0.3-0.3c0,0-0.1,0-0.2,0.1C75.4,52.6,75.5,52.9,75.6,52.9z M25.5,60.4c-0.1-0.1-0.2,0-0.1-0.2
	c-0.2,0.1-0.3,0.3-0.2,0.4c0.1,0.1,0.1,0.1,0.1,0.1C25.4,60.7,25.5,60.5,25.5,60.4C25.5,60.4,25.4,60.3,25.5,60.4z M18.1,19.1
	c-0.1-0.1-0.2-0.1-0.4,0c0.1,0.1,0.1,0.2,0.2,0.4C17.9,19.4,18,19.3,18.1,19.1z M76,37.9c-0.1,0.3,0.1,0.4,0.3,0.5
	C76.2,38.2,76.2,38.1,76,37.9z M71.1,44.1c-0.1,0.2,0.1,0.3,0.3,0.2C71.4,44.2,71.2,44,71.1,44.1z M24.4,72.9c0.1-0.3,0-0.4-0.2-0.5
	c-0.1-0.1-0.2,0-0.2,0.1l0,0C24.1,72.5,24.2,72.6,24.4,72.9z M47.2,87.5c0.1,0,0.2-0.1,0-0.3c-0.2,0.1-0.4,0-0.6,0.1
	C46.7,87.5,47,87.5,47.2,87.5z M20.3,33.2C20.3,33.1,20.2,33.2,20.3,33.2c-0.2,0-0.1,0.1-0.1,0.1c0.2,0.1,0.4,0.3,0.5,0.3
	C20.5,33.5,20.5,33.3,20.3,33.2z M19.8,10c-0.1,0.2-0.1,0.4,0.2,0.6c0-0.2,0-0.3-0.1-0.4L19.8,10z M34.8,52.3c0.1,0,0.1,0,0.2-0.1
	c0,0,0-0.2-0.1-0.2l-0.2,0.1C34.7,52.1,34.7,52.2,34.8,52.3z M136.6,87.6c0.2,0,0.3,0,0.5,0.1c-0.3-0.3-0.5-0.3-0.8-0.3
	C136.4,87.4,136.5,87.5,136.6,87.6z M12.6,32.9c0.2,0,0.3,0,0.3,0s0-0.1-0.1-0.2C12.8,32.7,12.7,32.8,12.6,32.9
	C12.6,32.9,12.7,33,12.6,32.9z M54.2,15.9c0.1-0.1,0-0.1,0.1-0.2c-0.1,0-0.2-0.1-0.3-0.1v0.1L54.2,15.9z M16.5,26.1
	c0.3,0.1,0.4,0.1,0.6,0.2C16.9,26,16.8,26,16.5,26.1z M10.6,54.3c-0.4-0.2-0.5-0.1-0.6,0.1C10.2,54.4,10.3,54.3,10.6,54.3z
	 M9.6,43.7l0.2-0.1l-0.1-0.2c0,0-0.1,0-0.2,0.1C9.5,43.5,9.5,43.5,9.6,43.7z M24.4,73.8c0.1-0.2,0-0.2,0-0.3c-0.1,0-0.2,0.1-0.2,0.1
	C24.2,73.7,24.3,73.8,24.4,73.8C24.4,73.8,24.5,73.8,24.4,73.8z M5.9,28.7L5.9,28.7l-0.2,0.1c-0.1-0.1,0,0,0,0L5.9,28.7z M62.2,57.5
	L62,57.3l-0.1,0.1c0,0.1,0,0.2,0.1,0.3L62.2,57.5z M144.6,73.8L144.6,73.8L144.6,73.8L144.6,73.8L144.6,73.8z M132.9,105.7
	c0.1-0.2,0.1-0.2,0.1-0.3c-0.1,0-0.1,0-0.2,0.1C132.8,105.5,132.8,105.6,132.9,105.7C133,105.6,133,105.5,132.9,105.7z M14.7,33.4
	c-0.1-0.2-0.1-0.3-0.2-0.4c0,0-0.2,0-0.2,0.1c0-0.1,0-0.1,0,0C14.3,33.2,14.4,33.3,14.7,33.4z M135.3,105.1L135.3,105.1l-0.1-0.1
	v0.1H135.3z M11.1,41.2c0-0.1,0-0.2-0.1-0.3c-0.1,0-0.2,0.1-0.2,0.1s0,0.1,0.1,0.2C10.9,41.2,11,41.1,11.1,41.2z M32.6,49.8
	c-0.2,0-0.5,0-0.6,0C32.2,49.9,32.4,50.1,32.6,49.8z M22.3,71.6l0.1-0.1c0-0.1,0-0.2-0.1-0.3c-0.1,0-0.1,0-0.2,0.1
	C22.2,71.4,22.3,71.5,22.3,71.6z M26.5,58.6l0.1-0.3C26.4,58.4,26.4,58.6,26.5,58.6z M9.5,30.1l-0.2-0.2L9.2,30c0,0.1,0,0.2,0.1,0.3
	L9.5,30.1z M14.4,50.1h0.2V50C14.5,50,14.4,50.1,14.4,50.1S14.4,50.2,14.4,50.1z M70.4,47.1L70.4,47.1v-0.3c-0.1,0-0.1,0-0.2,0.1
	C70.3,47,70.3,47.1,70.4,47.1z M29.9,63.4c0,0.1,0.1,0.2,0.1,0.2l0.2-0.1l-0.1-0.2C30.1,63.2,30,63.3,29.9,63.4z M146.3,72.8
	c0.1,0,0.1,0,0.1,0.1v-0.1C146.4,72.7,146.3,72.8,146.3,72.8L146.3,72.8z M131.6,107.2C131.5,107.1,131.4,107,131.6,107.2
	c-0.1-0.1-0.1-0.1-0.2,0c-0.1,0,0,0.1,0,0.1S131.5,107.2,131.6,107.2L131.6,107.2z M24.4,73.8c0.2,0,0.2,0.3,0.3,0.2
	C24.7,73.8,24.5,73.9,24.4,73.8C24.5,73.8,24.4,73.8,24.4,73.8z M25.5,69.4c0.1,0,0.2-0.1,0.2-0.1s-0.1-0.1-0.2-0.1
	C25.4,69.3,25.5,69.4,25.5,69.4z M14.1,48.7C14,48.7,14.1,48.8,14.1,48.7c0.1,0,0.2-0.1,0.2-0.2c0,0.1,0,0.1,0,0
	C14.3,48.5,14.2,48.6,14.1,48.7z M137.2,90.3c0-0.1-0.1,0-0.1,0c-0.1,0,0,0.1,0,0.1L137.2,90.3z M44.1,36.1L44.1,36.1
	c-0.2,0-0.2,0-0.2,0.1l0,0L44.1,36.1z M125.3,106.2c0-0.1,0.1,0,0,0.2c0.1,0,0.1,0,0.2-0.1L125.3,106.2
	C125.4,106.1,125.4,106.1,125.3,106.2L125.3,106.2z M25.8,42.7c-0.1-0.1-0.1-0.2-0.1-0.2c0-0.1-0.1,0-0.1,0c-0.1,0,0,0.1,0,0.1
	S25.7,42.7,25.8,42.7z M77.4,33.9c0-0.1,0-0.1-0.1-0.2c-0.1,0-0.2,0.1-0.2,0.1c-0.1,0.1,0,0.2,0,0.3C77.4,34,77.4,34,77.4,33.9z
	 M138.3,67.9l0.1,0.1c0.1-0.1,0.1-0.1,0.1-0.2c0.1,0.1,0,0,0,0S138.5,67.9,138.3,67.9z M17.3,14.7c0.2-0.4,0-0.5-0.1-0.6
	C17.2,14.3,17.4,14.4,17.3,14.7z M24.3,42.8L24.3,42.8L24.3,42.8L24.3,42.8L24.3,42.8z M38.5,5.6c-0.1,0.3,0,0.5-0.1,0.7
	C38.5,6.1,38.5,5.9,38.5,5.6C38.4,5.7,38.6,5.7,38.5,5.6z M52.6,20.4L52.6,20.4c0.1,0,0.1-0.2,0-0.2c0.2,0,0,0,0,0V20.4z M11.8,24.2
	l-0.1,0.1c0,0.1,0.2,0.1,0.3,0.1C11.8,24.4,11.7,24.4,11.8,24.2z M76.8,37.5L76.8,37.5L76.8,37.5L76.8,37.5
	C76.7,37.5,76.7,37.5,76.8,37.5z M19.9,48.1L19.8,48l-0.3,0.1C19.7,48.1,19.8,48.1,19.9,48.1z M24.4,58.7L24.4,58.7L24.4,58.7
	L24.4,58.7L24.4,58.7z M29.6,46.5c-0.2,0.2-0.1,0.3,0,0.4C29.7,46.8,29.7,46.7,29.6,46.5z M38.1,75.2L38.1,75.2L38.1,75.2L38.1,75.2
	z M20.3,40c0.1,0,0.2,0.1,0.3,0.1C20.5,40.1,20.4,40,20.3,40z M137.6,114.1c-0.1,0-0.2,0-0.2,0.1c-0.1-0.1-0.1-0.1,0,0L137.6,114.1z
	 M31.2,13.7l0.1-0.1c0.1,0,0-0.1,0-0.1C31.3,13.6,31.3,13.6,31.2,13.7z M74.4,52.1L74.4,52.1L74.4,52.1
	C74.6,52.1,74.5,52.1,74.4,52.1z M9.2,54.4L9.2,54.4C9.3,54.4,9.3,54.3,9.2,54.4L9.2,54.4z M126.5,99.8L126.5,99.8
	C126.6,99.8,126.6,99.7,126.5,99.8L126.5,99.8z M42.3,12C42.2,12,42.3,12.1,42.3,12c0,0.2,0.1,0.1,0.1,0.1L42.3,12
	C42.4,12,42.3,12.1,42.3,12z M127,100.4C127,100.3,126.9,100.4,127,100.4L127,100.4C127,100.4,127.1,100.4,127,100.4z M137.1,77.5
	C137.2,77.5,137.1,77.4,137.1,77.5l-0.1-0.1c-0.1,0,0,0.1,0,0.1S137,77.6,137.1,77.5z M62.4,87.1L62.4,87.1L62.4,87.1L62.4,87.1
	C62.4,87.1,62.5,87.2,62.4,87.1z M18.3,38.5L18.3,38.5L18.3,38.5C18.2,38.5,18.3,38.5,18.3,38.5z M145,73.1L145,73.1
	c0.1,0.1,0.1,0,0.1,0C145.1,73,145,73.1,145,73.1S145,73.2,145,73.1z M141.4,81.1C141.3,81.2,141.3,81.2,141.4,81.1
	C141.4,81.2,141.4,81.2,141.4,81.1C141.4,81.1,141.3,81,141.4,81.1z M63.3,85c0.1-0.1,0.1,0,0.2-0.1l-0.1-0.1h-0.1
	c-0.2,0-0.2,0-0.3,0C63,84.9,63,84.9,63.3,85z M37.4,73.9C37.5,73.8,37.5,73.8,37.4,73.9C37.4,73.8,37.3,73.8,37.4,73.9
	C37.4,73.9,37.5,73.8,37.4,73.9z M126.3,113.2C126.3,113.4,126.3,113.3,126.3,113.2C126.3,113.3,126.3,113.2,126.3,113.2
	C126.2,113.3,126.3,113.4,126.3,113.2z M48.5,13.9C48.6,13.9,48.6,13.8,48.5,13.9C48.6,13.9,48.6,13.9,48.5,13.9z M137.4,89.3
	C137.4,89.1,137.4,89.2,137.4,89.3C137.4,89.2,137.4,89.2,137.4,89.3C137.4,89.2,137.4,89.2,137.4,89.3z M47,36.5
	C47.1,36.4,47.1,36.4,47,36.5C47,36.5,47.1,36.4,47,36.5z M77.3,49.3C77.3,49.2,77.2,49.2,77.3,49.3C77.3,49.3,77.4,49.2,77.3,49.3z
	 M14,51.6C14,51.8,14,51.6,14,51.6C14,51.7,14,51.7,14,51.6z M29.3,68.5L29.3,68.5C29.2,68.6,29.2,68.6,29.3,68.5L29.3,68.5z
	 M37.3,17.3L37.3,17.3L37.3,17.3z M22.8,72.6L22.8,72.6L22.8,72.6C22.8,72.6,22.8,72.5,22.8,72.6z M30.7,13.8
	C30.8,13.9,30.8,13.9,30.7,13.8z M72.6,48.7L72.6,48.7L72.6,48.7C72.6,48.7,72.7,48.7,72.6,48.7z M28.6,73.2
	c0.1,0.2,0.1,0.2,0.1,0.2C28.7,73.4,28.7,73.3,28.6,73.2L28.6,73.2L28.6,73.2z M12.3,37.8C12.1,37.8,12.1,37.8,12.3,37.8
	C12.1,37.8,12.2,37.9,12.3,37.8C12.2,37.9,12.2,37.9,12.3,37.8C12.3,37.8,12.2,37.7,12.3,37.8z M50,81L50,81L50,81
	C50.1,81.1,50.2,81,50,81z M41.6,12.6C41.7,12.6,41.7,12.6,41.6,12.6z M38.1,78.3C38.1,78.1,38,78.2,38.1,78.3
	C38,78.2,38,78.2,38.1,78.3C38.1,78.3,38.2,78.2,38.1,78.3z M135.4,78.9L135.4,78.9L135.4,78.9z M37,60.3L37,60.3
	C37.1,60.4,37.2,60.2,37,60.3C37,60.4,37,60.4,37,60.3z M135.1,77.5C135.1,77.5,135.2,77.4,135.1,77.5
	C135.1,77.4,135.1,77.4,135.1,77.5z M28.9,20.2c0-0.3,0.1-0.5-0.1-0.6C28.8,19.7,29,19.8,28.9,20.2z M34,75.1
	c0.1,0.1,0.2,0.1,0.3,0.2C34.2,75.3,34.1,75.2,34,75.1z M63.1,68.9C63.2,68.8,63.2,68.8,63.1,68.9C63.2,69,63.2,69,63.1,68.9z
	 M18.9,26C18.9,26.1,18.9,26.1,18.9,26c0.2,0.2,0.3,0.1,0.4,0.1C19.1,26.1,19,26.1,18.9,26z M80.1,37.1
	C80.2,37.1,80.2,37.1,80.1,37.1C80.2,37.2,80.2,37.1,80.1,37.1z M38,6.4C38,6.3,38,6.3,38,6.4C38,6.3,37.9,6.4,38,6.4
	C38,6.4,38,6.3,38,6.4z M54.5,14.9C54.5,14.9,54.6,14.9,54.5,14.9z M145.2,106L145.2,106L145.2,106L145.2,106z M129.6,113.4
	L129.6,113.4L129.6,113.4z M128.9,113.4C128.8,113.4,128.9,113.4,128.9,113.4z M143.5,78.5l0.1-0.1c0.1,0,0-0.1,0-0.1
	C143.7,78.4,143.7,78.4,143.5,78.5z M145.5,71.5C145.6,71.5,145.6,71.5,145.5,71.5C145.5,71.6,145.5,71.6,145.5,71.5z M145.5,71.1
	L145.5,71.1C145.6,71.1,145.6,71,145.5,71.1z M127.9,98.9C127.9,99,127.8,98.9,127.9,98.9C127.9,99,127.9,99,127.9,98.9z
	 M128.1,98.1C128.2,98.1,128.1,98.1,128.1,98.1z M127.2,98.8C127,98.9,127.2,98.8,127.2,98.8L127.2,98.8z M30.2,16.9
	C30.2,17,30.1,16.9,30.2,16.9C30.1,16.9,30.1,16.8,30.2,16.9z M124.5,100.2L124.5,100.2L124.5,100.2z M19.5,48.1L19.5,48.1
	C19.6,48.1,19.5,48.1,19.5,48.1z M37.5,6.8L37.5,6.8L37.5,6.8L37.5,6.8z M17.7,63.2L17.7,63.2L17.7,63.2z M22.9,58.1L22.9,58.1
	C23,58.2,23,58.2,22.9,58.1L22.9,58.1z M29.6,46.9C29.6,47,29.6,47,29.6,46.9L29.6,46.9L29.6,46.9z M3.9,41.9L3.9,41.9L3.9,41.9z
	 M8.2,31.2L8.2,31.2L8.2,31.2z M42,25L42,25L42,25z M24.6,70.4C24.5,70.4,24.5,70.4,24.6,70.4C24.5,70.4,24.5,70.4,24.6,70.4
	C24.6,70.4,24.6,70.3,24.6,70.4z M49.7,87.7L49.7,87.7L49.7,87.7L49.7,87.7z M24.4,73.8L24.4,73.8C24.5,73.9,24.5,73.9,24.4,73.8z
	 M26,10.6c0.3,0,0.4-0.2,0.3-0.3c-0.2-0.2,0-0.5,0-0.8c0-0.1-0.1-0.2-0.1-0.3c-0.1,0.1-0.3,0.1-0.4,0.2C25.8,9.9,25.9,10.1,26,10.6z
	 M25.1,11.1c0.1,0.1,0.3,0.1,0.4,0.3c0.1-0.3-0.1-0.6-0.1-0.9C25.3,10.7,25.2,11,25.1,11.1z"/>
</svg>
