<svg xmlns="http://www.w3.org/2000/svg" viewBox="297.213 108.807 153.608 180.256">
<g>
		<path d="M359.295,208.389c-0.519,0.477-1.038,0.953-1.604,1.472c0.691,0.668,1.412,1.364,2.101,2.029
			c-0.108,0.239-0.129,0.37-0.206,0.441c-0.499,0.461-1.124,0.834-1.487,1.382c-0.36,0.545-0.392,1.296-0.691,1.896
			c-0.553,1.11-2.035,1.317-2.902,0.415c-0.204-0.212-0.239-0.607-0.302-0.928c-0.063-0.323-0.064-0.658-0.093-0.987
			c0.301,0.034,0.603,0.096,0.904,0.095c0.549-0.002,0.881,0.183,0.857,0.794c-0.005,0.133,0.072,0.269,0.128,0.464
			c0.697-0.234,1.007-0.672,1.154-1.327c-0.937-0.169-1.871-0.159-2.621-0.766c0.805-1.037,1.913-1.126,3.075-1.222
			c0.057,0.274,0.108,0.517,0.161,0.771c1.182-0.569,1.267-1.07,0.268-1.754c-1.501-1.028-3.078-1.925-4.82-2.504
			c-0.232,0.831-0.008,1.719,0.483,2.038c0.455,0.296,0.902,0.605,1.383,0.93c-0.588,0.769-0.995,1.462-0.695,2.344
			c0.004,0.013-0.181,0.09-0.277,0.137c-0.235,0.117-0.481,0.217-0.703,0.354c-0.548,0.34-0.925,0.177-1.221-0.357
			c-0.272-0.491-0.57-0.966-0.885-1.496c-1.271-0.156-1.325-0.117-1.498,1.144c-0.088,0.64-0.583,0.919-1.287,0.608
			c-0.649-0.287-1.28-0.454-1.977-0.295c-0.226,1.083-0.197,1.151,0.659,1.559c0.021,0.373-0.687,0.432-0.41,0.956
			c0.029,0.054-0.352,0.416-0.59,0.497c-0.362,0.124-0.766,0.128-1.211,0.192c-0.122-0.187-0.285-0.438-0.46-0.707
			c-0.301,0.2-0.58,0.386-1.018,0.678c-0.25-0.831-0.45-1.497-0.605-2.012c0.562-0.645,0.99-1.136,1.519-1.743
			c-0.28-0.01-0.459-0.068-0.587-0.011c-0.38,0.169-0.721,0.454-1.113,0.565c-0.732,0.207-0.98,0.734-1.155,1.388
			c-0.277,1.031-0.562,1.274-1.528,0.957c-0.876-0.288-1.27,0.116-1.678,0.726c-0.909,1.359-1.775,1.635-3.322,1.08
			c-0.938-0.336-1.14-0.697-0.878-1.623c0.071-0.25,0.199-0.484,0.335-0.807c-1.021-1.129-2.325-1.238-3.692-1.241
			c0.158,0.599,0.411,1.106,0.4,1.608c-0.023,1.145-0.568,2.196-2.165,2.001c-0.771-0.094-1.519-0.326-1.873-0.925
			c-0.305-0.516-0.69-0.61-1.212-0.72c0.129-0.951,1.065-1.153,1.487-1.835c-0.34-0.305-0.96-0.24-1.054-0.963
			c-0.067-0.511-0.741-0.565-1.263-0.456c-0.447,0.093-0.891,0.291-1.335,0.287c-0.633-0.005-1.289-0.078-1.885-0.274
			c-0.253-0.083-0.38-0.551-0.61-0.917c-0.559-0.093-1.305-0.156-2.017-0.346c-1.936-0.518-2.904-2.344-2.35-4.423
			c0.176-0.659,0.478-1.284,0.762-2.028c-0.135-0.091-0.332-0.224-0.567-0.381c0.201-0.5,0.14-0.942-0.49-1.246
			c-0.215,0.118-0.474,0.261-0.733,0.402c-1.06,0.577-2.038,0.153-2.914-0.377c-0.592-0.358-0.716-1.078-0.477-1.751
			c0.229-0.644,0.533-1.261,0.869-2.041c-0.48-0.16-0.984-0.398-1.513-0.49c-1.325-0.232-2.309-0.941-3.086-2.002
			c-0.267-0.365-0.577-0.697-0.967-1.164c0.121-0.76,0.155-1.694,0.439-2.544c0.278-0.834,0.81-1.583,1.25-2.405
			c-0.286-0.01-0.578-0.021-0.883-0.032c-0.324,0.616-0.675,1.186-0.933,1.795c-0.351,0.827-0.702,0.946-1.463,0.448
			c-0.507-0.332-0.871-0.677-0.807-1.375c0.04-0.44-0.203-0.903-0.185-1.35c0.06-1.543,1.123-2.196,2.628-1.656
			c0.337,0.121,0.669,0.255,1.09,0.199c-0.218-0.171-0.436-0.342-0.69-0.541c0.699-0.479,1.355-0.927,2.078-1.423
			c-0.105-0.302-0.245-0.708-0.468-1.35c0.598,0.288,0.981,0.473,1.326,0.639c0.467-0.29,0.913-0.569,1.267-0.789
			c0.28-0.954,0.436-1.909,0.835-2.747c0.546-1.148,1.894-1.614,3.133-1.259c0.217,0.062,0.427,0.15,0.669,0.236
			c0.556-0.988-0.841-1.371-0.642-2.245c0.388-0.439,0.867-0.101,1.304-0.149c0.384-0.042,0.725-0.487,1.007-0.697
			c0.846-0.039,1.62,0.814,2.372,0.06c-0.557-0.462-1.066-0.829-1.507-1.265c-0.414-0.41-0.507-0.936-0.238-1.48
			c0.151-0.307,0.332-0.599,0.562-1.009c0.596,0.327,1.16,0.689,1.765,0.955c0.851,0.375,1.712,0.834,2.609,0.96
			c0.603,0.085,1.279-0.346,2.034-0.581c0.86,0.415,0.86,0.415,1.611-0.48c-0.327-0.58-0.667-1.181-0.843-1.493
			c-0.413,0.253-0.923,0.512-1.372,0.851c-1.319,0.996-1.668,0.736-2.807,0.145c-0.967-0.501-1.776-1.195-2.161-2.274
			c-0.063-0.175-0.178-0.331-0.318-0.583c-1.518,0.98-2.793,0.426-4.087-0.514c-0.674-0.489-1.085-1.037-1.242-1.824
			c-0.067-0.336-0.088-0.705-0.248-0.993c-0.17-0.305-0.439-0.6-0.737-0.781c-0.785-0.477-1.485-0.989-2.066-1.748
			c-0.576-0.753-1.378-1.329-1.417-2.419c-0.865,0.824-0.888,0.924-0.194,1.788c0.363,0.452,0.566,0.889,0.194,1.599
			c-0.598-0.45-1.167-0.85-1.702-1.291c-0.289-0.238-0.578-0.511-0.762-0.829c-0.174-0.302-0.362-0.727-0.278-1.022
			c0.237-0.833,0.587-1.638,0.939-2.434c0.259-0.584,0.591-1.135,0.94-1.792c1.312-0.454,1.533-0.33,1.857,1.209
			c0.4-0.035,0.807-0.07,1.198-0.104c-0.242-1.073-0.509-2.09-0.684-3.122c-0.059-0.346,0.054-0.759,0.198-1.095
			c0.598-1.402,1.532-2.539,2.882-3.351c-0.075-0.178-0.133-0.31-0.187-0.443c-0.43-1.067-0.259-1.826,0.777-2.282
			c0.769-0.338,1.349-0.736,1.572-1.49c0.165-0.03,0.243-0.067,0.31-0.052c0.332,0.073,0.575,0.615,0.997,0.202
			c0.212-0.208,0.068-1.161-0.243-1.48c-0.318-0.326-0.741-0.564-1.002-0.925c-0.418-0.58-0.778-1.212-1.083-1.859
			c-0.107-0.229-0.086-0.7,0.068-0.823c0.196-0.158,0.587-0.105,0.891-0.088c0.175,0.009,0.344,0.126,0.544,0.205
			c-0.004-0.174-0.008-0.317-0.013-0.51c0.393,0.134,0.77,0.263,1.229,0.42c-0.03-0.606-0.444-1.304,0.317-1.542
			c0.507-0.158,1.092-0.064,1.705-0.086c0.167-0.325,0.357-0.693,0.563-1.093c0.17,0.074,0.344,0.15,0.656,0.286
			c-0.362-0.946-0.379-1.86-1.305-2.405c-0.355-0.209-0.482-0.805-0.716-1.23c0.328-0.32,0.617-0.515,0.789-0.785
			c1.032-1.618,1.375-1.809,3.132-1.633c0.046-0.096,0.106-0.193,0.137-0.298c0.031-0.106,0.033-0.221,0.061-0.433
			c-0.741,0.04-1.448,0.078-2.16,0.117c0.047-0.41,0.089-0.774,0.129-1.123c-0.35-0.134-0.643-0.246-1.049-0.401
			c0.292-0.318,0.504-0.55,0.715-0.779c-0.088-0.158-0.174-0.314-0.262-0.473c0.796-0.313,1.477-0.181,2.166,0.287
			c0.561,0.381,1.213,0.626,1.821,0.939c0.895,0.46,1.003,1.343,0.234,2.005c-0.288,0.247-0.609,0.455-0.938,0.697
			c0.753,1.027,1.843,1.655,2.867,2.359c0.104,0.071,0.271,0.078,0.406,0.071c0.807-0.042,0.812-0.038,0.53,0.791
			c0.498-0.137,0.498-0.137,1.457-1.946c-0.601-1.138-0.968-2.361-0.906-3.696c0.032-0.683,0.128-1.311,0.831-1.624
			c0.682-0.303,1.257-0.283,1.856,0.326c0.624,0.635,1.166,0.459,1.64-0.29c0.153-0.242,0.381-0.458,0.621-0.616
			c0.381-0.251,0.8-0.443,1.204-0.658c0.674-0.36,1.408-0.662,1.417-1.603c0.803,0.102,1.434-0.073,1.992-0.501
			c0.091-0.07,0.184-0.138,0.28-0.201c1.589-1.028,1.987-1.144,3.317,0.458c0.423-0.108,0.897-0.212,1.362-0.35
			c0.769-0.228,1.519-0.468,2.344-0.196c0.261,0.086,0.6-0.001,0.888-0.07c0.897-0.211,1.028-0.159,1.541,0.654
			c0.083,0.132,0.25,0.211,0.376,0.316c-0.512,0.934,0.087,1.739,0.293,2.826c0.242-0.692,0.41-1.172,0.51-1.456
			c-0.337-0.571-0.574-0.97-0.81-1.37c0.038-0.286,0.076-0.572,0.137-1.024c0.27,0.246,0.402,0.327,0.48,0.444
			c0.467,0.7,1.015,1.086,1.956,1.085c1.322-0.002,1.659,0.743,0.977,1.885c-0.425,0.713-0.887,1.406-1.377,2.076
			c-0.1,0.136-0.412,0.099-0.6,0.194c-0.129,0.065-0.214,0.22-0.235,0.506c0.528-0.1,1.056-0.2,1.569-0.297
			c0.225,0.718,0.427,1.364,0.688,2.199c0.688-0.711,1.264-1.306,2.047-2.115c0.62-0.189,1.601-0.07,2.533-0.337
			c0.428-0.122,0.959,0.117,1.533,0.206c-0.683-1.831-1.398-3.609-2.007-5.422c-0.447-1.332-0.791-2.703-1.103-4.074
			c-0.082-0.362,0.033-0.84,0.215-1.179c0.491-0.913,0.525-0.895-0.055-1.674c-0.067-0.09-0.137-0.176-0.199-0.255
			c0.353-1.146,1.402-1.93,2.572-1.789c0.664,0.08,1.327,0.326,1.944,0.601c0.899,0.4,1.772,0.867,2.624,1.361
			c0.308,0.179,0.592,0.478,0.771,0.789c0.99,1.728,1.668,3.567,2.009,5.542c0.135,0.781-0.028,1.419-0.42,2.054
			c-0.276,0.446-0.611,0.853-0.212,1.445c0.125,0.186-0.085,0.581-0.103,0.883c-0.014,0.239,0.031,0.482,0.061,0.86
			c0.426-0.241,0.712-0.404,0.974-0.552c-0.058-0.638-1.062-0.818-0.684-1.511c0.634,0.023,1.195,0.015,1.746,0.078
			c0.18,0.021,0.381,0.202,0.486,0.365c0.039,0.061-0.137,0.344-0.273,0.417c-0.589,0.315-0.99,0.766-1.37,1.322
			c-0.244,0.357-0.844,0.471-1.423,0.765c-0.101,0.303,0.375,0.333,0.579,0.367c2.098,0.356,3.947,1.381,5.902,2.12
			c0.504,0.191,1.059,0.245,1.799,0.407c-0.179-0.369-0.221-0.512-0.305-0.623c-1.432-1.879-1.581-3.987-1.077-6.194
			c0.217-0.952,1.023-1.541,2.037-1.718c0.783-0.137,1.551-0.366,2.315-0.59c0.194-0.057,0.378-0.227,0.512-0.389
			c0.193-0.234,0.362-0.497,0.496-0.769c0.514-1.041,1.245-1.533,2.475-1.275c0.997,0.209,2.045,0.169,3.049,0.352
			c0.723,0.132,1.307,0.562,1.548,1.457c-1.379,0.036-2.693,0.07-4.199,0.109c1.281,1.144,2.831,1.786,3.482,3.538
			c0.36-0.402,0.661-0.639,0.832-0.947c0.775-1.395,1.81-2.595,2.793-3.834c0.065-0.083,0.095-0.2,0.121-0.306
			c0.324-1.359,0.645-2.719,0.989-4.174c-0.855-0.237-1.392-1.241-2.456-1.062c0.226-0.575,0.409-1.111,0.643-1.624
			c0.467-1.019,1.096-1.924,2.005-2.605c0.718-0.538,1.52-0.748,2.36-0.366c0.859,0.39,1.375,1.055,1.392,2.054
			c0.006,0.372,0.103,0.743,0.169,1.19c0.427-0.03,0.798-0.06,1.169-0.081c0.765-0.043,1.17,0.267,1.276,0.985
			c0.033,0.222-0.004,0.461,0.06,0.67c0.057,0.188,0.21,0.346,0.335,0.542c1.141,0.204,2.347,0.363,3.523,0.645
			c1.235,0.296,2.43,0.639,3.518,1.436c1.125,0.824,2.182,1.627,2.847,2.883c0.152,0.287,0.479,0.484,0.736,0.712
			c0.374,0.332,0.72,0.637,0.69,1.237c-0.015,0.303,0.251,0.618,0.383,0.931c0.456,1.081,1.04,2.13,1.332,3.254
			c0.481,1.855,1.327,3.67,0.855,5.759c0.851-0.187,0.76-1.104,1.404-1.421c-0.172,1.036-0.335,2.014-0.507,3.049
			c1.061,0.018,1.435,1.221,2.331,1.822c0.137-0.266,0.246-0.457,0.334-0.656c0.478-1.074,0.873-2.193,1.447-3.212
			c0.556-0.989,2.514-1.553,3.604-1.202c0.597,0.193,1.005,0.529,1.046,1.203c0.032,0.529,0.116,1.056,0.115,1.584
			c-0.001,0.524-0.079,1.047-0.13,1.644c0.577-0.045,1.126-0.106,1.677-0.128c2.395-0.096,4.1,2.018,3.499,4.325
			c-0.057,0.219-0.086,0.446-0.128,0.67c-0.668,0.691-1.291,1.435-2.018,2.058c-0.607,0.521-1.058,1.048-0.986,1.927
			c0.251,0.09,0.506,0.265,0.738,0.238c0.185-0.022,0.514-0.364,0.483-0.437c-0.237-0.549,0.169-0.74,0.501-0.781
			c0.278-0.034,0.731,0.121,0.858,0.337c0.289,0.491,0.426,1.073,0.665,1.732c0.193-0.004,0.528-0.01,1.003-0.02
			c-0.225-0.291-0.338-0.436-0.451-0.581c-0.886-1.141-1.289-2.385-0.85-3.826c0.063-0.207,0.025-0.445,0.033-0.669
			c0.203-0.303,0.418-0.598,0.605-0.91c1.342-2.233,3.32-3.614,5.867-3.981c1.969-0.284,3.729,0.431,5.28,1.711
			c1.819,1.5,2.658,3.461,2.567,5.729c-0.068,1.693-0.411,3.358-1.42,4.866c-0.862,1.288-1.81,2.495-2.759,3.709
			c-0.083,0.106-0.113,0.255-0.22,0.508c0.339,0.029,0.577,0.055,0.815,0.069c2.878,0.17,3.106,0.903,2.721,3.588
			c-0.046,0.321-0.251,0.643-0.451,0.913c-0.591,0.796-1.184,1.596-1.841,2.338c-0.505,0.571-1.169,0.911-1.78,0.852
			c-0.365,0.482-0.658,0.869-0.996,1.314c0.301,0.21,0.612,0.469,0.96,0.659c0.386,0.211,0.615,0.456,0.767,0.909
			c0.145,0.433,0.579,0.769,0.983,1.268c-0.365,0.423-0.784,0.847-1.128,1.325c-0.342,0.476-1.187,0.439-1.253,1.313
			c2.138,0.173,3.766,1.256,5.142,2.741c-0.747,2.228-2.213,3.029-4.934,2.719c-0.051-0.185-0.08-0.407-0.17-0.602
			c-0.32-0.694-0.658-1.336-1.601-1.349c-0.477-0.007-0.95-0.214-1.432-0.333c-0.168,0.415-0.346,0.859-0.554,1.374
			c1.46,0.529,2.286,1.791,3.134,2.946c1.391-0.732,2.741-1.442,4.233-2.227c0.096,0.493,0.156,0.8,0.222,1.137
			c0.095,0.017,0.206,0.069,0.304,0.05c0.7-0.141,1.088,0.063,1.272,0.715c0.091,0.322,0.145,0.655,0.211,0.963
			c-0.622,0.474-0.85-0.419-1.372-0.328c-0.215,0.6-0.427,1.196-0.693,1.941c0.433,0.187,0.889,0.432,1.375,0.583
			c1.338,0.416,2.464,1.188,3.567,2.014c0.895,0.671,1.343,1.608,1.324,2.67c-0.02,1.127-0.248,2.25-0.411,3.576
			c-0.048-0.048,0.07,0.094,0.21,0.209c0.972,0.802,1.026,1.711,0.249,2.827c-1.101,1.582-2.422,2.95-4.08,3.969
			c-0.355,0.218-0.68,0.484-1.044,0.747c0.185,0.298,0.535,0.621,0.474,0.814c-0.116,0.366-0.422,0.712-0.731,0.965
			c-0.401,0.329-0.883,0.56-1.534,0.957c0.787,0.266,1.37,0.467,1.955,0.66c1.535,0.505,2.132,2.791,1.033,3.971
			c-0.36,0.387-0.728,0.766-1.093,1.149c0.479,0.55,1.025,1.128,1.512,1.751c0.474,0.606,0.634,1.273,0.276,2.031
			c-0.369,0.783-0.6,0.995-1.479,0.966c-0.505-0.017-0.949,0.1-1.431,0.244c-0.517,0.154-1.128,0.075-1.683-0.003
			c-0.444-0.062-0.866-0.275-1.231-0.399c-0.527,0.378-1.013,0.712-1.48,1.069c-0.176,0.134-0.306,0.326-0.465,0.483
			c-0.373,0.372-0.713,0.792-1.134,1.099c-0.839,0.613-1.467,0.581-2.296-0.03c-0.275-0.203-0.531-0.432-0.901-0.735
			c-0.349,0.68-0.911,1.169-1.66,1.153c-0.789-0.017-0.984-0.87-1.497-1.333c-1.04-0.037-2.101-0.075-3.312-0.118
			c0.354,0.8,0.645,1.524,0.993,2.22c0.177,0.354,0.466,0.727-0.005,0.967c-0.218,0.111-0.685-0.014-0.896-0.197
			c-0.394-0.34-0.138-0.673,0.202-0.928c0.028-0.021,0.037-0.066,0.046-0.083c-0.361-0.316-0.72-0.63-1.073-0.938
			c-0.529-0.019-1.105-0.04-1.72-0.062c0.119,0.582-0.251,1.091-0.748,1.469c-0.467,0.355-0.905,0.84-1.612,0.73
			c-0.195-0.031-0.441,0.022-0.613,0.123c-2,1.176-3.392,0.564-3.904-1.731c-0.007-0.031-0.043-0.054-0.086-0.106
			c-0.851,0.014-1.724-0.001-2.591,0.062c-0.23,0.017-0.443,0.274-0.668,0.423c-1.23-0.778-1.23-0.778-2.946,0.461
			c-0.297-0.139-0.632-0.297-1.074-0.504c0.353-0.509,0.658-0.95,1.099-1.587c-1.229,0.441-2.254,0.82-3.287,1.176
			c-0.972,0.335-1.934,0.748-2.936,0.936c-0.835,0.156-1.735,0.133-2.581,0.012c-1.226-0.176-2.114-0.895-2.4-2.148
			c-0.21-0.918-0.306-1.861-0.455-2.812c-3.523-0.084-6.426,1.166-8.786,3.813c-1.27,1.424-2.129,3.05-2.875,4.765
			c-0.546,1.254-0.576,2.607-0.548,3.925c0.054,2.625,0.302,5.247,0.354,7.872c0.037,1.9-0.128,3.803-0.176,5.706
			c-0.061,2.359-0.165,4.712,0.112,7.077c0.208,1.772,0.15,3.577,0.172,5.368c0.042,3.443,0.448,6.836,1.287,10.178
			c0.157,0.624,0.208,1.274,0.322,1.91c0.454,2.534,0.866,5.077,1.386,7.597c0.429,2.078,0.991,4.129,1.525,6.321
			c0.577-0.601,0.973-1.113,1.466-1.499c0.465-0.364,1.033-0.596,1.732-0.984c0.095,1.055,0.173,1.93,0.252,2.804
			c1.097-3.233,1.62-6.634,3.35-9.606c0.074,0.024,0.148,0.049,0.222,0.073c-1.004,3.422-2.009,6.845-3.013,10.267
			c0.066,0.038,0.132,0.076,0.197,0.115c0.228-0.16,0.456-0.321,0.684-0.482c0.063,0.024,0.145,0.031,0.185,0.075
			c0.126,0.142,0.28,0.281,0.341,0.451c0.076,0.21,0.067,0.451,0.099,0.678c0.101,0.723,0.205,1.445,0.309,2.181
			c-1.105,0.187-1.062-0.661-1.346-1.182c-0.178,0.278-0.366,0.543-0.523,0.824c-0.142,0.253-0.25,0.525-0.378,0.799
			c-0.633-0.607-0.456-1.495-0.588-2.284c-0.188-1.128-0.307-2.267-0.468-3.399c-0.014-0.1-0.117-0.187-0.196-0.306
			c-1.278,0.455-1.746,1.513-2.065,2.682c-0.05,0.182-0.018,0.387-0.072,0.568c-0.224,0.753-0.854,0.956-1.471,0.477
			c-0.178-0.139-0.331-0.311-0.546-0.517c-0.855,0.601-1.765,1.126-2.624-0.001c-0.798,0.622-1.177,0.621-1.757-0.081
			c-0.406-0.491-0.731-1.048-1.131-1.633c-0.076,0.76-0.144,1.437-0.209,2.081c-0.891,0.266-1.324-0.072-1.675-0.735
			c-0.557-1.055-0.992-2.139-1.198-3.32c-0.109-0.627-0.305-1.239-0.479-1.923c-0.531,0.29-0.438,0.719-0.486,1.056
			c-0.204,1.434-0.376,2.872-0.553,4.31c-0.074,0.6-0.085,1.206-0.826,1.455c-0.207,0.07-0.339,0.366-0.569,0.631
			c-0.109-0.672-0.199-1.23-0.289-1.789c-0.072-0.034-0.144-0.068-0.217-0.102c-0.227,0.842-0.821,1.076-1.535,1.046
			c-0.05,0.317-0.091,0.579-0.135,0.859c-0.116,0.035-0.218,0.089-0.322,0.094c-0.258,0.014-0.521-0.018-0.776,0.01
			c-0.669,0.076-1.042-0.227-1.331-0.823c-0.722-1.488-1.504-2.948-2.343-4.386c0.257,2.065,1.395,3.932,1.212,6.286
			c-0.699-2.217-1.369-4.233-1.966-6.271c-0.612-2.085-1.135-4.195-1.737-6.282c-0.134-0.463-0.136-0.803,0.354-1.159
			c1.524,3.826,2.999,7.638,5.259,11.104c0.306-0.172,0.533-0.299,0.785-0.441c-0.073-1.517-0.112-3.035-0.226-4.547
			c-0.119-1.585,0.069-3.133,0.465-4.654c0.488-1.877,0.99-3.744,1.701-5.566c0.471-1.208,0.643-2.594,0.664-3.904
			c0.043-2.643,0.361-5.238,0.847-7.827c0.203-1.081,0.334-2.179,0.444-3.275c0.287-2.849,0.266-5.697,0.152-8.563
			c-0.062-1.573-0.414-3.179,0.001-4.778c0.118-0.453-0.053-0.978-0.069-1.47c-0.087-2.731-0.146-5.463-0.255-8.192
			c-0.094-2.353-0.254-4.702-0.366-7.055c-0.058-1.207,0.074-2.442-0.14-3.618c-0.595-3.281-2.552-6.374-6.357-7.088
			c-0.411-0.077-0.817-0.205-1.231-0.243c-0.875-0.079-1.772-0.021-2.626-0.192c-0.809-0.162-1.574-0.543-2.407-0.846
			c-0.193,0.694-0.382,1.371-0.571,2.048C359.368,208.293,359.33,208.34,359.295,208.389z M385.023,154.754
			c-0.092,0.521-0.092,0.521,0.297,0.727c-0.091-0.22-0.196-0.474-0.302-0.729c-0.285-0.307-0.569-0.613-0.887-0.956
			C384.101,154.618,384.318,154.831,385.023,154.754z M360.489,171.137c-0.799,0.017-0.934,0.33-0.544,1.362
			c0.317-0.261,0.617-0.507,0.936-0.769c-0.173-0.256-0.295-0.438-0.424-0.627c0.582-0.401,0.412-0.802,0.033-1.295
			C359.874,170.329,360.144,170.734,360.489,171.137z M394.023,181.837c-0.033-0.1-0.066-0.201-0.122-0.372
			c-0.423,0.335-0.807,0.639-1.237,0.98c0.747,0.236,0.968-0.408,1.394-0.647c-0.13,0.225-0.235,0.469-0.395,0.669
			c-0.31,0.386-0.187,0.663,0.15,0.95c0.313-0.196,0.592-0.372,0.895-0.562C394.604,182.388,394.629,181.911,394.023,181.837z
			 M362.675,199.913c-0.247-0.285-0.627-0.394-0.692-0.911c-0.075-0.594-0.447-1.125-1.317-0.996
			c-0.143,0.417-0.297,0.864-0.496,1.443c1.438-0.108,1.679,1.377,2.681,1.585c-0.478,0.629-0.925,1.229-1.383,1.819
			c-0.308,0.396-0.728,0.382-1.011-0.039c-0.088-0.13-0.111-0.304-0.158-0.441c-0.638,0.117-0.566,1.152-1.438,0.83
			c-0.145-0.349-0.31-0.743-0.516-1.238c-0.424,0.544-0.879,0.888-1.08,1.55c0.337,0.012,0.577,0.02,0.816,0.029
			c0.203,0.008,0.427-0.039,0.605,0.032c0.949,0.382,1.883,0.8,2.827,1.192c1.407,0.585,2.864,0.765,4.351,0.409
			c0.758-0.181,1.492-0.131,2.233,0.018c0.741,0.148,1.241-0.061,1.572-0.724c0.406-0.814,0.386-1.581-0.197-2.344
			c-0.914-1.194-1.499-2.557-1.901-4.002c-0.068-0.244-0.174-0.477-0.274-0.746c-1.228,0.333-2.091-0.333-2.909-0.962
			c-0.567,0.695-1.081,1.325-1.606,1.969c0.721,0.897,0.819,0.669-0.113,1.525L362.675,199.913z M377.058,206.398
			c0.821,0.479,2.13,0.24,2.234,1.682c0.164-0.535,0.327-1.071,0.491-1.606c0.198-0.646,0.356-1.307,0.604-1.933
			c0.234-0.591,0.562-1.145,0.787-1.594c-0.268-0.92-1.056-1.006-1.571-1.428c-0.524-0.43-0.957-0.961-1.732-0.957
			c-0.681,0.003-0.76-1.188-1.699-0.787c0.582-0.633,0.849-1.246,0.581-1.996c-0.959,0.174-1.875,0.411-2.805,0.49
			c-1.004,0.085-1.786-0.527-2.513-1.113c-0.508,0.161-0.958,0.304-1.471,0.468c0.86,1.386,1.673,2.698,2.545,4.103
			c0.673,0.038,1.001,0.575,1.218,1.295c0.172,0.569,0.469,1.1,0.749,1.738c1.06-0.45,1.789,0.09,2.519,0.615
			C377.016,205.707,377.034,206.01,377.058,206.398z M381.747,201.913c0.227-0.302,0.385-0.499,0.529-0.705
			c0.87-1.247,1.746-2.491,2.601-3.749c0.277-0.408,0.55-0.833,0.734-1.287c0.38-0.935,0.508-1.846-0.548-2.489
			c-0.191-0.117-0.354-0.292-0.502-0.464c-1.357-1.57-2.198-3.294-1.607-5.444c0.046-0.166,0.018-0.353,0.025-0.565
			c-1.346-0.008-2.027,1.199-3.199,1.375c0.77,1.378,0.77,1.378,1.556,1.745c-0.342,0.199-0.632,0.368-0.954,0.555
			c0.485,0.393,1.285,0.092,1.452,1.044c-0.354,0.214-0.754,0.446-1.144,0.695c-0.186,0.118-0.375,0.244-0.525,0.402
			c-0.734,0.778-1.062,0.748-1.593-0.178c-0.088-0.153-0.143-0.325-0.282-0.647c-0.347,0.428-0.607,0.749-0.849,1.047
			c1.272,0.395,2.407,0.776,3.558,1.098c0.931,0.26,1.059,1.002,1.298,1.885c-1.116-0.536-1.288,0.515-1.792,0.904
			c-0.531,0.41-1.082,1.021-0.46,1.847c1.102-0.07,1.446-1.012,2.017-1.678c0.029,0.064,0.078,0.127,0.083,0.193
			c0.006,0.072-0.066,0.169-0.039,0.219c0.484,0.9,0.072,1.631-0.379,2.397C381.44,200.602,381.33,201.174,381.747,201.913z
			 M390.432,207.688c-1.458-0.707-1.929,0.492-2.566,1.161c-0.361-0.078-0.72-0.279-0.9-0.173c-0.928,0.543-1.905,0.259-2.889,0.344
			c-0.06-0.41-0.121-0.76-0.159-1.112c-0.025-0.236-0.111-0.556,0.004-0.692c0.105-0.124,0.487-0.14,0.67-0.049
			c0.443,0.222,0.69,0.036,1.039-0.325c-0.893-0.527-0.283-1.946-1.513-2.233c-0.799,2.64-1.454,4.802-3.078,6.425
			c0.075,0.602,0.152,1.213,0.239,1.906c0.395-0.263,0.669-0.465,0.961-0.638c2.178-1.284,4.391-2.503,6.999-2.611
			c1.963-0.082,3.799-0.647,5.765-1.321c-0.18-0.735-0.466-1.421-0.487-2.115c-0.022-0.731-0.293-1.202-0.68-1.493
			c-1.182,0.598-2.246,1.137-3.466,1.755C390.381,206.712,390.402,207.111,390.432,207.688z M427.164,146.813
			c0.176,0.072,0.292,0.17,0.376,0.148c1.394-0.384,2.759-0.032,4.085,0.278c1.024,0.24,1.978,0.778,3.002,1.2
			c0.003,0.043,0.057,0.187,0.008,0.264c-0.711,1.11-1.353,2.277-2.18,3.295c-0.823,1.014-0.875,1.796,0.119,2.768
			c1.563-1.667,2.553-4.142,2.643-6.39c0.073-1.822-1.194-3.713-3.057-4.215C430.29,143.656,427.984,144.883,427.164,146.813z
			 M344.306,137.25c-1.218,0.272-2.41,0.541-3.411,1.298c-0.361,0.273-0.786,0.568-0.7,1.102c0.105,0.656,0.285,1.301,0.434,1.959
			c1.197-0.272,2.222-0.609,3.27-0.715c1.089-0.109,1.933-0.596,2.861-1.285C345.44,139.31,345.205,138.039,344.306,137.25z
			 M401.039,139.461c0.474-0.566,0.913-1.08,1.34-1.603c0.585-0.717,1.194-1.38,2.306-1.135c-0.317-1.542-0.89-2.882-1.728-4.29
			c-1.587,1.777-2.151,3.93-3.186,5.846C400.232,138.708,400.614,139.064,401.039,139.461z M367.971,143.409
			c-0.164-1.016-0.642-1.8-1.647-2.247c-0.72,0.587-1.115,1.257-1.03,2.215c0.157-0.065,0.299-0.162,0.334-0.133
			c0.429,0.368,0.407,0.677-0.06,1.152c-0.428,0.436-0.899,0.489-1.161,0.06c-0.375-0.616-0.715-1.262-0.665-2.031
			c0.022-0.336-0.003-0.675-0.007-1.046c-0.618-0.076-1.169-0.145-1.728-0.214c-0.168,0.298-0.315,0.558-0.479,0.848
			c0.25,0.125,0.455,0.221,0.655,0.328c0.888,0.477,1.003,0.721,0.447,1.494c-0.503,0.701-0.452,1.411-0.37,2.154
			c0.879,0.197,1.211,0.143,2.159-0.42C365.599,144.869,366.764,144.145,367.971,143.409z M325.133,144.138
			c0.759-0.526,1.46-0.965,2.106-1.475c0.554-0.437,0.536-0.782-0.101-1.118c-1.039-0.548-2.121-1.017-3.193-1.502
			c-0.207-0.094-0.45-0.107-0.87-0.201c0.449,0.566,0.765,0.964,1.152,1.452c-0.431,0.217-0.786,0.395-1.189,0.598
			c-0.071,0.968,0.313,1.828,1.115,2.289c0.437,0.251,0.587,0.562,0.875,1.162C325.077,144.781,325.104,144.465,325.133,144.138z
			 M400.779,188.659c1.213-0.918,2.318-1.754,3.617-2.736c-2.133-0.578-3.976-0.938-5.985-0.009
			C399.192,186.82,399.899,187.639,400.779,188.659z M331.496,179.168c0.557,1.261,1.053,2.385,1.596,3.614
			c0.187-0.231,0.365-0.405,0.49-0.612c0.394-0.654,0.759-1.326,1.154-1.98c0.185-0.306,0.566-0.576,0.583-0.879
			c0.019-0.333-0.257-0.695-0.443-1.023c-0.155-0.274-0.366-0.517-0.589-0.824c-0.369,0.423-0.685,0.784-1.032,1.181
			c-0.264-0.197-0.525-0.392-0.833-0.621C332.053,178.482,331.723,178.889,331.496,179.168z M419.317,212.719
			c1.355,0.797,2.656,1.126,3.844,0.806c0.625-1.354,1.149-2.49,1.672-3.624C423.269,210.161,420.806,211.4,419.317,212.719z
			 M332.073,146.058c1.7-0.79,3.6-0.974,4.936-2.506c-0.452-0.314-0.885-0.857-1.36-0.896c-1.028-0.084-2.12-0.124-2.956,0.474
			c-0.122,0.602-0.165,1.136-0.345,1.618c-0.25,0.671-0.963,0.335-1.441,0.542C331.289,145.542,331.664,145.789,332.073,146.058z
			 M399.81,209.293c0.335,0.101,0.537,0.185,0.748,0.221c1.232,0.207,2.422-0.096,3.615-0.327c0.133-0.026,0.289-0.126,0.363-0.238
			c0.371-0.562,0.718-1.139,1.077-1.718c-0.349-0.297-0.664-0.564-1.028-0.874c-0.668,0.208-1.438,0.288-2.013,0.664
			C401.635,207.634,400.824,208.442,399.81,209.293z M380.518,135.299c-0.255-1.723-1.214-2.602-2.608-2.434
			c-0.149,0.771-0.327,1.547-0.442,2.333c-0.119,0.811-0.177,1.631-0.281,2.627c0.691-0.225,1.175-0.383,1.613-0.525
			c0.043-0.438,0.047-0.745,0.109-1.04c0.061-0.287,0.181-0.562,0.27-0.827C379.639,135.387,380.042,135.346,380.518,135.299z
			 M364.019,138.066c-0.577,1.986-0.654,1.796,0.238,2.181c0.366-0.394,0.661-0.933,1.106-1.128c0.44-0.193,1.092-0.182,1.539,0.005
			c0.421,0.176,0.697,0.7,1.119,1.16c0.052-0.498,0.096-0.92,0.136-1.308c0.182-0.052,0.329-0.094,0.551-0.158
			c-2.098-1.342-5.07-2.206-6.145-1.784C363.076,137.397,363.56,137.74,364.019,138.066z M333.48,137.607
			c0.339-1.402,0.501-2.985,2.359-3.355c0.245-1.12,0.908-1.784,2.185-1.849c-0.237-0.298-0.368-0.461-0.602-0.754
			c-0.96,0.913-1.883,1.749-2.754,2.637c-0.497,0.506-1.047,0.807-1.776,0.768c-0.128,0.504-0.242,0.955-0.362,1.427
			c-1.223-0.561-1.227-0.561-1.144-1.692c0.034-0.461,0.041-0.897-0.506-1.114c-0.715,0.93-0.268,1.789,0.086,2.61
			C331.591,137.738,331.87,137.863,333.48,137.607z M386.977,202.682c0.686-0.236,1.098-0.377,1.714-0.589
			c-0.343,0.89-0.618,1.605-0.896,2.326c0.993,0.223,2.151-0.402,3.377-1.804c-0.873-1.012-1.892-1.776-3.352-2.107
			C387.564,201.169,387.325,201.786,386.977,202.682z M340.481,146.809c-0.929,0.349-1.819,0.278-2.712,0.056
			c-0.497-0.123-0.985-0.132-1.489,0.45c0.306,0.792,0.641,1.661,1.017,2.634c0.78-0.97,1.65-1.493,2.851-1.228
			C340.265,148.049,340.366,147.469,340.481,146.809z M378.287,177.566c0.655-0.025,1.421-0.054,2.171-0.082
			c-0.222-0.831-0.447-1.589-0.621-2.358c-0.098-0.43-0.176-0.884-0.142-1.319c0.029-0.38-0.018-0.587-0.212-0.606
			c-0.778,0.914-1.474,1.732-2.075,2.438C377.694,176.267,377.98,176.893,378.287,177.566z M400.47,129.101
			c-0.991-1.06-2.139-1.656-3.708-1.631c-0.425,0.604-0.894,1.27-1.388,1.971C397.246,129.881,398.496,129.794,400.47,129.101z
			 M417.095,146.886c1.682-0.583,3.365-1.018,3.885-2.987C418.862,143.041,417.06,144.381,417.095,146.886z M321.233,145.982
			c0.958,0.471,1.661,0.816,2.356,1.158c-0.02,0.546-0.04,1.125-0.061,1.713c0.965-0.305,1.995-0.632,3.073-0.972
			c-0.12-0.301-0.243-0.609-0.363-0.911c-1.502,0.232-1.502,0.232-2.096-1.495c-0.399-0.104-0.828-0.215-1.299-0.337
			c-0.109,0.3-0.194,0.531-0.252,0.692C322.175,145.875,321.818,145.916,321.233,145.982z M331.775,177.269
			c-1.293-1.174-2.462-2.247-3.649-3.301c-0.152-0.135-0.395-0.167-0.595-0.247c0.413,0.985,0.551,2.073,1.738,2.48
			c-0.817,0.686,0.213,1.28,0.041,2.023c0.34,0.12,0.684,0.242,0.879,0.311C330.751,178.085,331.197,177.73,331.775,177.269z
			 M404.32,198.794c-0.51,0.427-0.731,1.103-0.67,1.913c0.08,1.066,0.499,1.376,1.554,1.12c0.181-0.044,0.397-0.015,0.547-0.103
			c0.43-0.254,0.858-0.524,1.236-0.848c0.125-0.107,0.095-0.396,0.107-0.459C406.128,199.852,405.267,199.348,404.32,198.794z
			 M383.196,185.561c0.309-0.161,0.787-0.25,0.934-0.519c0.387-0.711,1.139-1.25,1.129-2.112c-0.418-0.489-0.797-0.932-1.136-1.328
			c-0.368,0.246-0.73,0.482-1.085,0.729c-0.118,0.082-0.252,0.17-0.322,0.289C382.22,183.456,382.428,184.794,383.196,185.561z
			 M328.833,194.35c-0.055-1.175-0.107-2.29-0.161-3.459c-0.324-0.012-0.696-0.025-1.083-0.039
			c-0.261,0.302-0.481,0.692-0.815,0.905c-0.311,0.199-0.742,0.212-1.121,0.307C326.131,193.484,327.259,194.049,328.833,194.35z
			 M366.899,184.529c-2.185,1.212-1.581,0.92-3.363,0.488c-0.284,0.503-0.575,1.021-0.871,1.547
			c0.264,0.347,0.513,0.675,0.711,0.935C365.169,187.083,366.73,185.719,366.899,184.529z M340.543,137.582
			c-0.319-0.302-0.561-0.622-0.88-0.804c-0.22-0.125-0.656-0.18-0.803-0.05c-0.214,0.19-0.299,0.568-0.351,0.88
			c-0.026,0.153,0.16,0.335,0.229,0.512c0.335,0.867,0.137,1.632-0.47,2.308c-0.147,0.164-0.314,0.31-0.537,0.529
			c0.599,0.478,1.144,0.913,1.689,1.349c0.076-0.032,0.152-0.063,0.229-0.095C339.399,140.551,338.891,138.836,340.543,137.582z
			 M318.26,159.077c-0.059-0.853,0.539-1.949-0.804-2.727c-0.393,0.507-0.883,0.986-1.178,1.564
			c-0.281,0.551-0.368,1.205-0.52,1.818c-0.045,0.183-0.02,0.383-0.026,0.563C316.564,159.894,317.33,159.525,318.26,159.077z
			 M393.096,189.402c-0.433-0.244-0.802-0.597-1.207-0.645c-0.619-0.075-1.193-0.062-1.568-0.688
			c-0.073-0.121-0.418-0.152-0.614-0.111c-0.344,0.072-0.67,0.233-1.028,0.365c0.838,1.025,2.741,2.163,3.979,2.394
			C392.795,190.303,392.936,189.881,393.096,189.402z M391.427,200.781c0.134-0.51,0.217-0.857-0.247-1.186
			c-0.272-0.193-0.46-0.597-0.548-0.941c-0.184-0.723-0.51-1.234-1.449-1.305c-0.23,0.753-0.468,1.531-0.72,2.353
			C389.434,200.056,390.388,200.403,391.427,200.781z M364.136,130.575c0.224-0.51,0.674-1.058,0.655-1.59
			c-0.041-1.17-0.211-2.363-0.978-3.387c-0.267,1.262-0.424,2.524-0.601,3.783C363.123,130.014,363.372,130.392,364.136,130.575z
			 M397.785,216.155c0.553-0.083,0.857-0.095,1.14-0.177c1.75-0.511,3.495-1.04,5.244-1.557c0.304-0.09,0.624-0.159,0.546-0.577
			c-0.069-0.364-0.673-0.631-1.018-0.438c-0.228,0.128-0.392,0.372-0.621,0.498c-0.527,0.289-1.053,0.664-1.624,0.773
			c-0.956,0.183-1.946,0.185-3.017,0.271C398.28,215.236,398.087,215.594,397.785,216.155z M324.565,210.332
			c0.058-0.092,0.117-0.184,0.176-0.277c-0.871-0.325-0.978-0.947-0.856-1.686c0.141-0.86-0.343-1.365-1.014-1.792
			c-0.191,0.624-0.373,1.161-0.519,1.708c-0.206,0.771,0.098,1.736,0.734,1.966C323.53,210.411,324.068,210.314,324.565,210.332z
			 M399.227,162.822c-0.223-1.295-0.408-2.366-0.598-3.47c-0.249,0.056-0.534,0.037-0.602,0.149
			c-0.423,0.697-0.811,1.417-1.164,2.152c-0.035,0.074,0.24,0.426,0.381,0.433c0.535,0.027,0.867,0.392,1.282,0.624
			C398.713,162.814,398.972,162.786,399.227,162.822z M366.034,150.529c-0.533,0.013-1.095-0.028-1.639,0.054
			c-0.792,0.12-1.009,0.64-0.723,1.546c0.193,0.612,0.707,0.835,1.36,0.59C365.893,152.398,366.24,151.694,366.034,150.529z
			 M439.666,185.909c-0.901,1.558-0.662,3.034,0.628,4.147C441.059,188.214,440.873,186.861,439.666,185.909z M320.381,206.699
			c-1.124,0.67-1.744,2.226-1.403,3.374c0.285,0.958,0.609,1.24,1.378,1.222c-0.583-0.699-0.491-1.488-0.173-2.243
			C320.504,208.295,320.7,207.559,320.381,206.699z M325.355,173.959c-0.751-0.658-1.556,0.091-2.348-0.207
			c-0.39-0.459-0.821-0.966-1.251-1.472c-0.136,0.217-0.136,0.358-0.089,0.48c0.135,0.353,0.264,0.711,0.438,1.045
			c0.959,1.834,1.846,1.926,3.218,0.343C325.343,174.124,325.336,174.077,325.355,173.959z M346.635,130.06
			c-0.635-0.34-1.223-0.309-1.804-0.06c-0.761,0.326-1.524,0.651-2.262,1.026c-0.165,0.084-0.227,0.37-0.474,0.805
			c0.953-0.287,1.656-0.423,2.285-0.715c0.413-0.192,0.763-0.224,1.178-0.125C346.572,131.232,346.586,131.215,346.635,130.06z
			 M331.775,173.007c-0.532-0.019-1.051-0.038-1.588-0.057c0.351,1.066,1.194,1.873,3.301,3.154
			C333.201,174.83,332.434,173.951,331.775,173.007z M378.073,181.559c-0.481,0.691-0.777,1.252-1.198,1.694
			c-0.853,0.896-0.878,0.867,0.001,1.689c0.237,0.221,0.457,0.461,0.698,0.706c0.243-0.254,0.419-0.439,0.654-0.684
			c-0.692-0.51-0.607-1.115-0.243-1.776c0.218-0.395,0.367-0.829,0.537-1.25c0.038-0.095,0.037-0.206,0.062-0.361
			C378.338,181.569,378.122,181.561,378.073,181.559z M356.871,125.059c-0.318,1.491,0.742,4.965,1.946,6.477
			C358.34,129.292,357.814,127.182,356.871,125.059z M423.632,208.962c0.888-0.186,1.55-0.514,2.049-1.227
			c-0.659-0.617-1.271-1.19-1.94-1.818C423.702,207.015,423.669,207.947,423.632,208.962z M342.641,136.71
			c0.687-0.324,1.417-0.459,1.777-0.898c0.332-0.406,0.711-1.111,0.108-1.837c-0.779,0.631-1.533,1.242-2.285,1.851
			C342.388,136.151,342.479,136.352,342.641,136.71z M320.384,188.376c-0.04-0.112-0.079-0.224-0.119-0.336
			c-0.392,0.12-0.777,0.301-1.176,0.343c-0.474,0.05-0.961-0.018-1.503-0.038c-0.295,0.544-0.717,1.079-0.546,1.872
			C318.392,189.942,319.288,188.984,320.384,188.376z M370.052,140.219c0.435,0.533,0.733,0.945,1.079,1.312
			c0.694,0.735,0.705,0.725,1.338,0.336c0.042-0.801-1.031-1.375-0.514-2.387C371.374,139.705,370.794,139.93,370.052,140.219z
			 M343.428,206.971c-0.686,0.931-0.686,0.931,0.452,2.143c0.52-0.234,1.076-0.484,1.671-0.753
			C345.026,207.461,344.171,207.395,343.428,206.971z M433.037,177.763c1.235,0.197,2.074-0.323,2.946-1.058
			c-0.268-0.349-0.468-0.609-0.66-0.859C434.329,176.305,433.476,176.681,433.037,177.763z M435.85,212.445
			c-0.195-0.507-0.34-0.885-0.467-1.213c-0.894-0.367-1.692-0.524-2.476,0.261C433.777,212.165,434.612,212.612,435.85,212.445z
			 M357.235,207.796c1.263-0.591,1.492-1.021,1.233-2.249c-0.358,0.012-0.723,0.023-1.047,0.034
			c-0.276,0.577-0.532,1.111-0.794,1.658C356.814,207.411,357.004,207.585,357.235,207.796z M435.533,207.324
			c0.472-0.19,0.901-0.333,1.302-0.533c0.654-0.326,0.727-0.618,0.419-1.407c-0.241-0.619-0.325-0.649-1.192-0.434
			c0.344,0.902,0.359,0.922-0.431,1.501C435.318,206.681,435.257,206.883,435.533,207.324z M412.708,199.196
			c-1.202,0.386-2.472,0.676-2.933,2.266c0.651-0.148,1.247-0.108,1.539-0.387C411.871,200.545,412.253,199.832,412.708,199.196z
			 M406.605,208.06c0.034,0.064,0.069,0.127,0.103,0.191c0.108,0.024,0.279,0.103,0.315,0.063c0.603-0.68,1.399-0.44,2.138-0.476
			c0.058-0.003,0.113-0.077,0.192-0.134c-0.008-0.281-0.017-0.579-0.026-0.868c-0.989-0.488-1.745,0.028-2.493,0.549
			c-0.078,0.055-0.109,0.178-0.167,0.278c0.132,0.029,0.233,0.05,0.599,0.13C406.944,207.923,406.774,207.992,406.605,208.06z
			 M421.94,158.51c-0.726-0.683-1.276,0.302-1.905,0.013c-0.144,0.52-0.264,0.958-0.396,1.435
			C420.857,160.12,421.559,159.615,421.94,158.51z M329.018,151.837c0.127,1.004,0.226,1.787,0.332,2.624
			c0.685-0.519,1.249-0.947,1.938-1.469C330.49,152.586,329.86,152.265,329.018,151.837z M419.684,205.987
			c-0.018,0.508-0.034,0.946-0.049,1.357c0.77-0.146,1.428-0.296,2.093-0.389c0.554-0.078,0.572-0.375,0.479-0.716
			C421.358,206.155,420.587,206.078,419.684,205.987z M356.507,162.941c-0.311-1.039-0.557-1.859-0.803-2.678
			c-0.067,0.88-1.198,1.287-0.942,2.339C355.275,162.701,355.803,162.804,356.507,162.941z M411.304,171.928
			c-0.136-0.264-0.196-0.572-0.335-0.612c-0.317-0.093-0.754-0.189-0.993-0.042c-0.401,0.247-0.721,0.659-1.003,1.053
			c-0.105,0.147-0.008,0.439,0.001,0.788C409.834,172.676,410.534,172.32,411.304,171.928z M361.412,123.569
			c-0.685-0.024-1.209-0.043-1.83-0.065c0.349,0.893,0.655,1.678,0.961,2.463c0.071-0.014,0.142-0.029,0.214-0.043
			C360.955,125.21,361.154,124.497,361.412,123.569z M321.654,194.477c-1.16,0.932-1.568,2.541-0.913,3.229
			c0.145-0.268,0.319-0.553,0.458-0.854c0.184-0.398,0.403-0.795,0.488-1.216C321.761,195.267,321.671,194.865,321.654,194.477z
			 M355.851,204.689c-0.383,0.787-0.734,1.51-1.097,2.257c1.075,0.03,1.619-0.391,2.043-1.561
			C356.505,205.17,356.205,204.949,355.851,204.689z M415.342,144.007c1.567-0.957,1.554-2.332,1.494-3.966
			C415.96,141.337,415.709,142.617,415.342,144.007z M370.799,173.798c1.042-0.409,1.545-1.235,1.358-2.048
			c-0.113-0.49-0.5-0.571-0.993-0.544C371.045,172.055,370.932,172.858,370.799,173.798z M332.514,209.924
			c-0.573-0.493-0.92-1.437-1.953-0.935c-0.093,0.412-0.182,0.811-0.273,1.215C331.13,210.768,331.766,210.035,332.514,209.924z
			 M388.789,136.175c0.022-1.364-0.237-2.008-1.367-3.44c-0.02,0.567-0.191,1.06-0.017,1.333
			C387.824,134.725,387.88,135.636,388.789,136.175z M329.116,148.504c0.221-1.083-0.302-1.856-0.676-2.786
			C327.686,147.312,327.855,147.975,329.116,148.504z M366.225,186.865c-0.811,0.545-1.444,0.97-2.135,1.434
			c0.704,0.558,1.376,0.259,2.073,0.309C366.182,188.059,366.199,187.578,366.225,186.865z M376.953,188.503
			c-1.668,1.358-1.668,1.358-1.602,1.722c0.724-0.159,1.444-0.317,2.266-0.498C377.372,189.276,377.184,188.929,376.953,188.503z
			 M414.657,179.964c-1.574-0.119-1.574-0.119-1.846,0.641c0.565,0.251,1.134,0.503,1.794,0.797
			C414.625,180.859,414.639,180.456,414.657,179.964z M323.687,184.904c-1.59,0.701-1.616,0.741-1.293,1.979
			c0.356-0.062,0.719-0.126,0.965-0.169C323.473,186.084,323.571,185.545,323.687,184.904z M359.208,160.393
			c1.283-0.106,0.781-1.376,1.458-1.885c-0.385-0.076-0.771-0.152-1.223-0.242C359.36,159.02,359.288,159.673,359.208,160.393z
			 M395.035,148.413c0.295,0.414,0.533,0.748,0.78,1.095c0.659-0.016,1.288-0.031,1.916-0.047c0.007-0.085,0.014-0.169,0.021-0.254
			C396.825,149.125,396.258,147.898,395.035,148.413z M428.872,183.207c-0.171-0.554-0.349-1.105-0.511-1.662
			c-0.18-0.617-0.567-0.677-1.18-0.456C427.691,181.849,427.733,182.807,428.872,183.207z M369.923,196.633
			c1.176-0.429,1.34-0.933,0.654-2.002C369.48,195.709,369.461,195.769,369.923,196.633z M373.08,195.567
			c0.729-0.075,1.288-0.132,1.887-0.194c-0.317-0.599-0.573-1.08-0.907-1.712C373.718,194.327,373.439,194.87,373.08,195.567z
			 M326.724,183.595c-1.276-0.539-1.462-0.517-1.784,0.056c-0.218,0.388-0.091,0.734,0.25,0.841c0.354,0.111,0.772,0.016,1.245,0.01
			c-0.147-0.303-0.226-0.465-0.313-0.646C326.276,183.789,326.431,183.722,326.724,183.595z M367.307,147.461
			c0.262-0.882,0.451-1.52,0.64-2.158c-0.051-0.027-0.101-0.054-0.152-0.081c-0.509,0.478-1.017,0.956-1.646,1.546
			C366.597,147.036,366.915,147.227,367.307,147.461z M336.996,140.191c0.994-0.553,1.067-0.941,0.361-1.911
			C336.529,138.729,336.454,139.123,336.996,140.191z M428.1,213.372c-0.051,0.076-0.102,0.152-0.154,0.228
			c0.048,0.288,0.038,0.602,0.156,0.857c0.199,0.429,0.713,0.565,1.043,0.25c0.358-0.343,0.833-0.66,0.806-1.352
			C429.322,213.654,428.745,214.178,428.1,213.372z M381.925,158.283c-0.237-0.823-0.855-0.378-1.283-0.494
			c-0.343,0.765-0.343,0.765,0.102,1.663C381.11,159.091,381.48,158.724,381.925,158.283z M369.153,174.228
			c0.161-0.975,0.02-1.673-0.434-2.28c-0.141,0.703-0.294,1.442-0.433,2.184c-0.017,0.09,0.043,0.195,0.069,0.301
			C368.643,174.358,368.9,174.293,369.153,174.228z M422.138,199.883c-0.831,1.213-0.767,2.081,0.132,3.041
			C422.221,201.8,422.18,200.841,422.138,199.883z M371.942,145.341c-0.86-0.635-1.013,0.205-1.403,0.431
			c-0.408,0.236-0.433,0.577-0.139,0.898C371.514,146.878,371.421,145.858,371.942,145.341z M398.205,189.159
			c0.033-0.054,0.065-0.108,0.097-0.162c-0.464-0.472-0.927-0.944-1.472-1.499c-0.196,0.306-0.404,0.631-0.713,1.115
			C396.927,188.825,397.566,188.992,398.205,189.159z M376.275,174.758c0.511-0.492,0.893-0.86,1.393-1.341
			c-0.501-0.209-0.829-0.346-1.155-0.482c-0.347,0.376-0.641,0.694-0.988,1.07c0.309,0.011,0.515,0.018,0.737,0.026
			C376.265,174.224,376.268,174.38,376.275,174.758z M331.367,139.243c-0.183,0.516-0.691,0.871-0.161,1.286
			c0.682,0.534,1.029-0.247,1.678-0.452C332.338,139.777,331.922,139.548,331.367,139.243z M367.866,153.548
			c0.06-0.054,0.12-0.107,0.18-0.161c-0.215-0.567-0.43-1.133-0.689-1.814c-0.315,0.469-0.557,0.83-0.84,1.252
			C367.012,153.09,367.439,153.319,367.866,153.548z M332.344,204.319c1.187,0.764,2.16,0.146,3.139,0
			C334.501,204.315,333.513,203.874,332.344,204.319z M359.418,189.56c1.095,0.006,1.499-0.489,1.785-1.3
			c-0.294-0.108-0.546-0.201-0.791-0.291C360.085,188.491,359.811,188.93,359.418,189.56z M432.443,174.809
			c-0.963-0.098-1.637,0.254-2.335,0.715C431.224,176.064,431.224,176.064,432.443,174.809z M384.843,134.039
			c-0.899,1.211-0.918,1.848-0.087,2.44C384.785,135.678,384.811,134.941,384.843,134.039z M373.826,167.034
			c0.231,0.321,0.458,0.639,0.686,0.956c0.592-0.365,0.978-0.665,1.047-1.277C374.937,166.828,374.386,166.93,373.826,167.034z
			 M367.222,196.423c0.24-0.841-0.186-1.269-0.689-1.69C365.827,195.602,365.989,196.031,367.222,196.423z M426.188,167.763
			c-0.636,0.351-1.14,0.628-1.687,0.93C425.684,169.577,425.984,169.422,426.188,167.763z M334.914,202.516
			c-0.349-0.609-0.349-0.609-0.688-0.56c-0.96,0.138-1.362,0.339-1.48,0.814C333.473,202.684,334.17,202.603,334.914,202.516z
			 M398.161,189.977c-0.763-0.13-1.358-0.232-2.075-0.354c0.351,0.496,0.625,0.884,0.912,1.29
			C397.364,190.618,397.687,190.358,398.161,189.977z M324.271,201.624c0.283-0.292,0.486-0.58,0.096-0.946
			c-0.53-0.499-0.932-0.605-1.361-0.3C323.429,200.795,323.847,201.206,324.271,201.624z M408.636,143.513
			c0.498-0.375,0.79-0.544,1.01-0.78c0.127-0.137,0.232-0.417,0.175-0.568c-0.061-0.165-0.343-0.375-0.49-0.349
			c-0.208,0.037-0.473,0.238-0.546,0.432C408.672,142.547,408.698,142.901,408.636,143.513z M321.301,200.95
			c0.053,0.278,0.114,0.522,0.144,0.769c0.029,0.236,0.025,0.477,0.036,0.726c0.39,0.023,0.793,0.069,0.84-0.49
			C322.363,201.452,322.08,201.161,321.301,200.95z M365.841,183.426c-0.602-0.257-1.162-0.496-1.719-0.733
			c-0.247,0.684,0.177,0.945,0.713,1.149C365.376,184.047,365.65,183.764,365.841,183.426z M426.845,198.655
			c0.017,0.063,0.034,0.126,0.051,0.189c0.529,0.076,1.057,0.153,1.729,0.25c-0.099-0.455-0.175-0.803-0.275-1.258
			C427.735,198.171,427.29,198.413,426.845,198.655z M377.359,140.792c0.486-0.473,1.182-0.849,0.85-1.66
			C376.763,139.119,377.592,140.226,377.359,140.792z M350.779,178.56c0.529,0.434,1.032,0.846,1.683,1.38
			c0.048-0.428,0.084-0.753,0.137-1.229C351.875,179.049,351.455,178.002,350.779,178.56z M389.327,193.776
			c-0.307,0.458-0.525,0.785-0.778,1.163c0.631,0.131,1.092,0.226,1.633,0.338C389.909,194.797,389.681,194.398,389.327,193.776z
			 M327.311,202.812c-1.186,0.403-1.498,1.13-0.775,1.798C326.792,204.016,327.034,203.454,327.311,202.812z M339.423,173.012
			c0.283-0.274,0.458-0.444,0.644-0.624c-0.487-0.637-0.92-0.914-1.583-0.96C338.504,172.13,339.114,172.308,339.423,173.012z
			 M323.382,189.104c-0.669-0.112-1.135,0.016-1.358,0.52c-0.106,0.239-0.007,0.569-0.001,0.857c0.077,0.016,0.153,0.032,0.23,0.048
			C322.612,190.076,322.971,189.622,323.382,189.104z M398.697,196.684c-0.333-0.612-0.581-1.069-0.921-1.693
			c-0.141,0.692-0.235,1.153-0.336,1.648C397.882,196.655,398.217,196.667,398.697,196.684z M380.269,201.274
			c0.005-1.733,0.005-1.733-0.83-1.652C379.234,200.331,379.639,200.747,380.269,201.274z M328.031,180.242
			c-0.066-0.032-0.133-0.065-0.2-0.097c-0.373,0.323-0.746,0.646-1.28,1.109c0.506,0.147,0.857,0.249,1.272,0.37
			C327.904,181.085,327.968,180.664,328.031,180.242z M418.112,208.31c-0.351,0.422-1.221,0.373-0.944,1.267
			C418.304,209.487,418.504,209.24,418.112,208.31z M361.516,196.048c0.159,0.488,0.276,0.846,0.45,1.382
			c0.451-0.413,0.755-0.691,1.232-1.128C362.52,196.2,362.099,196.136,361.516,196.048z M398.908,205.592
			c0.009,0.992,0.635,0.789,1.125,0.801c0.044,0.001,0.091-0.087,0.188-0.187c-0.139-0.249-0.293-0.527-0.45-0.808
			C399.452,205.47,399.207,205.525,398.908,205.592z M421.961,207.773c-0.926-0.098-0.966-0.074-1.388,0.81
			C421.372,208.912,421.401,208.895,421.961,207.773z M368.149,185.803c-0.104,0.746-0.207,1.493-0.34,2.452
			C368.83,187.405,368.484,186.604,368.149,185.803z M384.029,170.48c-1.089-0.15-1.811,0.298-2.271,1.324
			C382.642,171.529,383.155,170.951,384.029,170.48z M329.254,215.528c-0.188,0.412-0.35,0.621-0.37,0.843
			c-0.041,0.444,0.311,0.62,0.661,0.592c0.153-0.013,0.43-0.396,0.387-0.521C329.836,216.161,329.575,215.937,329.254,215.528z
			 M395.535,200.304c-0.199-0.609-0.373-1.098-0.749-1.602C394.377,200.029,394.405,200.089,395.535,200.304z M317.522,194.994
			c0.245-0.672,0.489-1.343,0.819-2.249C317.267,193.714,317.251,193.754,317.522,194.994z M387.273,207.989
			c-0.977-0.576-0.977-0.576-1.763,0.636C386.186,208.382,386.729,208.185,387.273,207.989z M396.887,212.972
			c-0.522,0.964-0.521,1.621-0.049,2.459c0.443-0.176,0.451-0.508,0.223-0.825c-0.281-0.391-0.296-0.749-0.085-1.166
			C397.023,213.349,396.932,213.187,396.887,212.972z M354.444,144.388c0.513-0.37,0.867-0.625,1.308-0.943
			C354.85,143.078,354.35,143.404,354.444,144.388z M390.302,193.619c-0.078,0.081-0.155,0.163-0.233,0.244
			c0.335,0.344,0.669,0.688,0.993,1.02c0.284-0.205,0.462-0.335,0.733-0.531C391.204,194.061,390.753,193.84,390.302,193.619z
			 M335.841,193.692c1.254-0.683,1.254-0.683,0.83-1.786C336.372,192.549,336.107,193.12,335.841,193.692z M326.328,150.852
			c-0.412,0.127-0.768,0.165-0.78,0.252c-0.072,0.507-0.063,1.025-0.081,1.54c0.064,0.002,0.129,0.005,0.193,0.007
			C325.855,152.124,326.051,151.598,326.328,150.852z M425.837,212.835c0.875-0.143,1.08-0.784,1.538-1.304
			C426.465,211.589,426.465,211.589,425.837,212.835z M395.521,153.263c0.874,0.456,1.319,0.414,1.312-0.138
			c-0.089-0.074-0.194-0.179-0.315-0.258c-0.147-0.096-0.309-0.169-0.489-0.265C395.834,152.854,395.681,153.054,395.521,153.263z
			 M358.657,201.741c0.203-0.034,0.376-0.013,0.48-0.089c0.42-0.305-0.316-0.87,0.242-1.163c-0.196-0.119-0.393-0.238-0.663-0.403
			C358.693,200.723,358.676,201.202,358.657,201.741z M426.399,213.707c-1.076,0.046-1.142,0.107-1.055,0.962
			C426.063,214.749,426.149,214.157,426.399,213.707z M410.871,161.036c0.069-0.064,0.139-0.128,0.209-0.191
			c-0.187-0.375-0.375-0.749-0.615-1.228c-0.208,0.471-0.364,0.823-0.538,1.215C410.31,160.914,410.59,160.975,410.871,161.036z
			 M420.681,177.384c0.664,0.332,1.146,0.572,1.677,0.837c0.081-0.26,0.141-0.454,0.209-0.673
			C421.984,177.322,421.492,177.081,420.681,177.384z M414.206,157.897c-0.21,0.475-1.018,0.639-0.524,1.382
			C414.612,158.699,414.612,158.699,414.206,157.897z M404.475,142.668c0.062-0.337,0.12-0.654,0.218-1.183
			c-0.527,0.439-0.89,0.741-1.371,1.141C403.806,142.645,404.104,142.655,404.475,142.668z M332.335,148.12
			c-0.111-0.874-0.34-1.118-1.243-1.344C331.147,147.598,332.089,147.533,332.335,148.12z M371.462,176.239
			c-0.242,0.396-0.812,0.553-0.613,1.323c0.462-0.317,0.835-0.574,1.31-0.9C371.837,176.467,371.681,176.372,371.462,176.239z
			 M369.987,150.134c0.158,0.197,0.27,0.336,0.387,0.482c0.855-0.889,0.855-0.889,0.719-1.459
			C370.734,149.474,370.399,149.771,369.987,150.134z M370.06,189.411c0.294,0.536,0.587,1.072,0.957,1.746
			C371.314,190.114,370.817,189.675,370.06,189.411z M339.187,182.043c-0.347,0.502-0.566,0.82-0.834,1.209
			c0.475,0.017,0.794,0.028,1.172,0.042C339.421,182.908,339.335,182.591,339.187,182.043z M370.706,205.709
			c0.437,0.159,0.721,0.262,1.234,0.449c-0.268-0.552-0.423-0.872-0.637-1.313C371.084,205.162,370.947,205.36,370.706,205.709z
			 M373.132,147.997c-0.023,0.74,0.441,0.944,0.827,1.303C374.119,148.586,373.908,148.198,373.132,147.997z M337.16,189.879
			c0.482-0.274,0.771-0.439,1.266-0.721c-0.518-0.236-0.792-0.36-1.14-0.519C337.247,189.022,337.218,189.309,337.16,189.879z
			 M400.689,189.52c-0.347,0.133-0.647,0.249-0.947,0.365c0.018,0.062,0.036,0.125,0.054,0.187c0.35,0.078,0.7,0.156,1.232,0.274
			C400.877,189.98,400.8,189.79,400.689,189.52z M406.314,195.526c-0.094-0.008-0.188-0.017-0.283-0.026
			c-0.137,0.3-0.275,0.6-0.504,1.101c0.497-0.136,0.733-0.201,1.023-0.281C406.458,196.01,406.386,195.768,406.314,195.526z
			 M316.264,200.323c-0.541,0.525-0.254,0.887,0.211,1.246C316.918,201.03,316.817,200.632,316.264,200.323z M398.964,181.345
			c0.035,0.048,0.071,0.097,0.106,0.145c0.283-0.08,0.567-0.159,0.895-0.252c-0.113-0.293-0.187-0.488-0.299-0.781
			C399.392,180.803,399.178,181.074,398.964,181.345z M366.414,159.938c0.344,0.357,0.546,0.565,0.804,0.833
			C367.373,159.885,367.373,159.885,366.414,159.938z M342.693,143.787c-0.362-0.918-0.362-0.918-0.997-0.379
			C342.049,143.542,342.371,143.665,342.693,143.787z M357.541,195.799c0.007,0.063,0.013,0.126,0.02,0.189
			c0.624-0.063,1.249-0.127,1.873-0.19c-0.012-0.099-0.025-0.197-0.037-0.296C358.779,195.601,358.16,195.7,357.541,195.799z
			 M315.319,191.441c-0.086-0.088-0.171-0.176-0.257-0.264c-0.339,0.332-0.678,0.664-1.018,0.996c0.063,0.07,0.127,0.14,0.19,0.21
			C314.596,192.069,314.958,191.755,315.319,191.441z M340.906,170.713c0.081-0.069,0.161-0.139,0.242-0.208
			c-0.332-0.259-0.179-0.973-1.191-0.807C340.344,170.112,340.625,170.413,340.906,170.713z M396.211,213.241
			c-0.423,0.766-0.423,0.766-0.108,1.468C396.442,214.279,396.347,213.86,396.211,213.241z M398.789,143.588
			c-0.011-0.082-0.022-0.163-0.033-0.245c-0.231-0.064-0.463-0.128-0.755-0.209c-0.01,0.29-0.018,0.515-0.032,0.886
			C398.323,143.834,398.556,143.711,398.789,143.588z M379.523,139.418c0.194-0.5,0.316-0.813,0.482-1.241
			C379.057,138.553,379.057,138.553,379.523,139.418z M415.707,152.394c0.014,0.486,0.022,0.74,0.033,1.088
			c0.353-0.188,0.63-0.335,1.095-0.581C416.388,152.701,416.117,152.578,415.707,152.394z M327.655,199.488
			c0.212,0.369,0.352,0.611,0.543,0.944c0.21-0.277,0.355-0.467,0.59-0.776C328.36,199.592,328.082,199.551,327.655,199.488z
			 M401.6,167.308c0.417,0.371,0.625,0.557,0.885,0.789c0.114-0.293,0.202-0.517,0.326-0.835
			C402.432,167.276,402.15,167.286,401.6,167.308z M436.859,210.176c-0.311-0.242-0.622-0.484-1.035-0.806
			C435.681,210.38,436.617,209.906,436.859,210.176z M387.55,121.165c0.154,0.602,0.174,1.014,0.77,0.862
			c0.102-0.026,0.169-0.185,0.266-0.297C388.263,121.554,388.014,121.418,387.55,121.165z M321.329,168.822
			c-0.214-0.332-0.428-0.665-0.642-0.997C320.433,168.478,320.893,168.641,321.329,168.822z M389.969,196.233
			c-0.061,0.058-0.122,0.115-0.183,0.173c0.244,0.569,0.244,0.569,1.108,0.957C390.482,196.86,390.226,196.546,389.969,196.233z
			 M416.711,169.701c0.27-0.9,0.27-0.9-0.329-1.154C416.49,168.928,416.579,169.241,416.711,169.701z M322.118,149.732
			c-1.031,0.263-1.031,0.263-0.995,0.816C321.409,150.313,321.662,150.106,322.118,149.732z M383.056,173.084
			c0.718-0.055,0.718-0.055,0.624-1.008C383.453,172.443,383.268,172.741,383.056,173.084z M423.331,194.997
			c0.247-0.309,0.495-0.617,0.794-0.991C423.298,193.915,423.475,194.603,423.331,194.997z M441.049,194.883
			c-0.061-0.049-0.122-0.098-0.184-0.147c-0.331,0.28-0.805,0.445-0.722,1.068C440.446,195.497,440.747,195.189,441.049,194.883z
			 M323.9,194.36c0.074,0.06,0.148,0.119,0.221,0.179c0.249-0.305,0.497-0.61,0.746-0.915c-0.074-0.06-0.148-0.12-0.223-0.18
			C324.396,193.749,324.148,194.055,323.9,194.36z M378.491,197.05c-0.086-0.035-0.173-0.069-0.259-0.104
			c-0.362,0.355-0.191,0.821-0.13,1.345C378.246,197.827,378.368,197.438,378.491,197.05z M403.685,165.433
			c-0.591,0.094-0.94,0.15-1.289,0.205C402.796,165.826,403.214,166.252,403.685,165.433z M309.658,162.849
			c0.934-0.391,0.934-0.391,0.573-0.79C310.037,162.326,309.847,162.588,309.658,162.849z M415.723,212.106
			c0.554,0.035,0.928-0.086,0.721-0.817C416.155,211.617,415.939,211.861,415.723,212.106z M313.01,198.614
			c0.368-0.166,0.561-0.253,0.844-0.38c-0.283-0.23-0.496-0.405-0.807-0.658C313.034,197.959,313.025,198.202,313.01,198.614z
			 M383.079,132.015c0.21,0.555,0.343,0.904,0.475,1.254C384.141,132.643,383.608,132.447,383.079,132.015z M428.764,158.098
			c0.726-0.41,0.626-0.824,0.37-1.281C429.03,157.176,428.927,157.535,428.764,158.098z M329.756,206.263
			c0.146,0.37,0.248,0.627,0.416,1.053C330.437,206.586,330.437,206.586,329.756,206.263z M437.644,211.275
			c-0.198,0.327-0.337,0.557-0.552,0.911c0.354-0.046,0.555-0.072,0.827-0.107C437.823,211.8,437.753,211.595,437.644,211.275z
			 M322.956,194.967c-0.734,0.449-0.317,0.792-0.041,1.135C322.927,195.76,322.94,195.417,322.956,194.967z M424.757,191.333
			c-0.135,0.022-0.27,0.044-0.406,0.065c0.04,0.241,0.072,0.485,0.134,0.72c0.005,0.021,0.295-0.007,0.295-0.015
			C424.784,191.847,424.769,191.59,424.757,191.333z M360.076,150.438c-0.461,0.147-0.74,0.236-1.193,0.381
			C359.427,151.03,359.734,151.082,360.076,150.438z M407.486,184.9c0.283-0.423,0.457-0.682,0.698-1.042
			c-0.335,0.043-0.529,0.068-0.751,0.096C407.451,184.257,407.463,184.474,407.486,184.9z M369.195,147.18
			c-0.156-0.343-0.283-0.62-0.511-1.12C368.566,147.087,368.566,147.087,369.195,147.18z M411.297,178.443
			c-0.091-0.392-0.15-0.648-0.216-0.934c-0.276,0.138-0.49,0.244-0.83,0.414C410.742,178.167,410.941,178.266,411.297,178.443z
			 M404.817,206.118c-0.454-0.588-0.74-0.239-1.254-0.045C404.082,206.091,404.386,206.102,404.817,206.118z M407.296,188.426
			c0.001-0.098,0.002-0.195,0.003-0.293c-0.235,0.026-0.47,0.053-0.705,0.079c0.004,0.063,0.008,0.126,0.012,0.189
			C406.836,188.41,407.066,188.418,407.296,188.426z M424.605,203.469c-0.05,0.053-0.101,0.106-0.151,0.158
			c0.176,0.212,0.346,0.43,0.54,0.623c0.016,0.015,0.204-0.144,0.368-0.262C425.061,203.781,424.833,203.625,424.605,203.469z
			 M360.874,187.07c0.412,0.13,0.678,0.215,1.131,0.358C361.684,186.943,361.543,186.557,360.874,187.07z M429.238,186.705
			c0.082-0.018,0.164-0.036,0.246-0.054c-0.051-0.264-0.102-0.528-0.153-0.792c-0.254,0.137-0.351,0.273-0.328,0.384
			C429.036,186.406,429.156,186.552,429.238,186.705z M428.492,190.031c-0.027,0.089-0.054,0.178-0.081,0.268
			c0.15,0.077,0.293,0.186,0.451,0.219c0.12,0.025,0.26-0.047,0.391-0.076c0.01-0.066,0.02-0.132,0.03-0.199
			C429.02,190.172,428.756,190.102,428.492,190.031z M409.656,212.57c0.021,0.122,0.042,0.245,0.063,0.367
			c0.212-0.029,0.425-0.058,0.637-0.086c-0.027-0.141-0.055-0.281-0.082-0.422C410.068,212.476,409.862,212.523,409.656,212.57z
			 M386.017,152.893c-0.053,0.073-0.105,0.146-0.157,0.219c0.169,0.138,0.337,0.277,0.506,0.415
			c0.058-0.114,0.182-0.313,0.162-0.329C386.372,153.077,386.19,152.991,386.017,152.893z M393.313,152.52
			c0.538-0.045,0.743-0.249,0.404-0.906C393.534,152.023,393.423,152.272,393.313,152.52z M330.467,192.709
			c-0.053,0.027-0.105,0.055-0.158,0.082c0.129,0.251,0.258,0.502,0.387,0.752c0.052-0.027,0.103-0.053,0.155-0.08
			C330.724,193.212,330.595,192.961,330.467,192.709z M435.427,184.027c-0.455-0.378-0.744-0.579-1.09-0.039
			C434.686,184,434.966,184.01,435.427,184.027z M334.228,195.684c-0.06,0.021-0.12,0.041-0.18,0.062
			c0.067,0.28,0.134,0.56,0.201,0.84c0.189-0.198,0.239-0.383,0.209-0.554C334.435,195.906,334.308,195.799,334.228,195.684z
			 M359.899,192.014c-0.109-0.134-0.206-0.27-0.217-0.263c-0.138,0.084-0.265,0.189-0.394,0.288c0.065,0.08,0.156,0.237,0.19,0.225
			C359.615,192.218,359.733,192.119,359.899,192.014z M334.1,141.29c-0.29-0.409-0.489-0.685-0.801-0.081
			C333.55,141.235,333.773,141.258,334.1,141.29z M362.701,153.849c0.047-0.007,0.094-0.014,0.14-0.021
			c-0.035-0.31-0.069-0.62-0.104-0.929c-0.074,0.011-0.148,0.023-0.222,0.034C362.578,153.237,362.639,153.543,362.701,153.849z
			 M432.563,206.766c-0.054-0.083-0.108-0.166-0.162-0.249c-0.173,0.144-0.346,0.288-0.519,0.431
			c0.035,0.046,0.07,0.093,0.105,0.139C432.179,206.98,432.371,206.873,432.563,206.766z M391.986,204.873
			c-0.048-0.089-0.096-0.178-0.143-0.267c-0.245,0.147-0.49,0.295-0.735,0.443c0.034,0.064,0.068,0.128,0.101,0.191
			C391.468,205.117,391.727,204.995,391.986,204.873z M361.584,176.131c0.067,0.039,0.134,0.077,0.202,0.116
			c0.137-0.239,0.275-0.478,0.412-0.717c-0.068-0.039-0.136-0.079-0.204-0.118C361.857,175.652,361.721,175.891,361.584,176.131z
			 M389.577,122.554c-0.174-0.14-0.341-0.315-0.373-0.293c-0.135,0.092-0.229,0.243-0.338,0.373c0.12,0.073,0.238,0.197,0.36,0.201
			C389.32,122.837,389.418,122.688,389.577,122.554z M401.259,154.148c-0.008-0.084-0.016-0.169-0.025-0.253
			c-0.234,0.062-0.467,0.124-0.701,0.187c0.022,0.078,0.043,0.157,0.065,0.235C400.819,154.261,401.039,154.205,401.259,154.148z
			 M430.667,182.27c-0.289-0.354-0.455-0.557-0.622-0.761C430.04,181.831,429.854,182.246,430.667,182.27z M430.355,199.765
			c0.035,0.044,0.069,0.088,0.104,0.132c0.115-0.047,0.266-0.065,0.336-0.15c0.078-0.094,0.083-0.249,0.119-0.378
			c-0.054-0.027-0.109-0.054-0.163-0.081C430.62,199.447,430.488,199.606,430.355,199.765z M408.72,180.616
			c0.532,0.101,0.532,0.101,1.03-0.44C409.249,180.39,408.985,180.503,408.72,180.616z M363.99,181.24
			c-0.09,0.027-0.18,0.054-0.271,0.082c0.084,0.224,0.168,0.449,0.252,0.673c0.066-0.02,0.132-0.04,0.198-0.06
			C364.109,181.703,364.05,181.471,363.99,181.24z M330.863,143.412c-0.066,0.021-0.132,0.041-0.198,0.062
			c0.069,0.198,0.138,0.396,0.206,0.594c0.056-0.018,0.112-0.036,0.169-0.053C330.981,143.814,330.922,143.613,330.863,143.412z
			 M318.672,169.24c0.008-0.051,0.017-0.101,0.025-0.152c-0.197-0.061-0.394-0.121-0.591-0.182c-0.02,0.078-0.041,0.156-0.061,0.233
			C318.254,169.173,318.463,169.206,318.672,169.24z M329.676,181.501c-0.562-0.203-0.562-0.203-0.621,0.358
			C329.243,181.751,329.398,181.661,329.676,181.501z M322.898,171.843c0.074-0.032,0.147-0.063,0.221-0.095
			c-0.084-0.172-0.169-0.343-0.253-0.515c-0.057,0.026-0.115,0.053-0.172,0.079C322.762,171.489,322.83,171.666,322.898,171.843z
			 M323.068,205.438c0.485-0.032,0.485-0.032,0.42-0.506C323.326,205.127,323.201,205.277,323.068,205.438z M410.453,214.655
			c-0.023,0.04-0.047,0.08-0.07,0.12c0.135,0.091,0.271,0.182,0.406,0.273c0.032-0.053,0.064-0.107,0.096-0.16
			C410.741,214.81,410.597,214.733,410.453,214.655z M390.82,152.189c0.023,0.059,0.046,0.118,0.068,0.178
			c0.168-0.061,0.336-0.122,0.504-0.184c-0.024-0.063-0.048-0.126-0.072-0.189C391.153,152.058,390.987,152.124,390.82,152.189z
			 M435.462,189.563c0.012,0.055,0.024,0.11,0.036,0.166c0.174-0.033,0.347-0.066,0.521-0.099c-0.029-0.063-0.066-0.182-0.084-0.179
			C435.776,189.475,435.62,189.523,435.462,189.563z M340.371,129.751c0.05,0.059,0.1,0.118,0.15,0.178
			c0.15-0.128,0.301-0.255,0.451-0.383c-0.048-0.058-0.097-0.115-0.146-0.173C340.675,129.499,340.523,129.626,340.371,129.751z
			 M435.186,186.647c-0.05-0.065-0.1-0.13-0.15-0.196c-0.13,0.16-0.26,0.319-0.389,0.479c0.05,0.04,0.1,0.081,0.151,0.122
			C434.926,186.917,435.056,186.782,435.186,186.647z"/>
		<path d="M363.962,280.251c-0.809,0.061-1.439,0.716-1.988-0.12c-0.212,0.134-0.398,0.251-0.62,0.391
			c-0.307-0.375-0.619-0.701-0.234-1.266c0.233,0.16,0.432,0.296,0.647,0.444c0.284-0.163,0.57-0.327,0.911-0.522
			c-0.721-1.806-1.441-3.605-2.158-5.405c-0.155-0.388-0.31-0.777-0.445-1.172c-0.304-0.888-0.299-0.89,0.468-1.953
			c1.759,3.342,4.184,6.203,5.59,9.73c-0.273,0.154-0.492,0.277-0.755,0.425c-0.68-1.073-1.326-2.095-1.973-3.116
			c-0.056,0.018-0.113,0.037-0.169,0.056C363.466,278.53,363.693,279.317,363.962,280.251z"/>
		<path d="M311.314,178.477c0.763,0.027,1.424,0.051,2.091,0.075c0.052-0.354,0.091-0.612,0.129-0.874
			c0.197,0.055,0.398,0.185,0.543,0.139c1.884-0.598,1.883-0.605,3.099,1.118c-0.735,0.427-1.064,1.157-1.466,1.88
			c-0.48,0.861-1.115,0.98-1.807,0.479c-0.394-0.284-0.856-0.482-1.304-0.68C311.744,180.234,311.302,179.61,311.314,178.477z"/>
		<path d="M313.368,151.464c-0.828,0.706-1.492,0.533-2.116,0.05c-0.345-0.268-0.635-0.427-1.129-0.342
			c-0.274,0.047-0.746-0.303-0.922-0.598c-0.359-0.599-0.583-1.28-0.848-1.933c-0.038-0.094,0.002-0.22,0.007-0.356
			c0.582-0.284,1.152-0.562,1.791-0.874c0.21,0.509,0.406,0.985,0.613,1.489c0.363-0.021,0.695-0.039,1.174-0.067
			C312.047,149.892,312.666,150.686,313.368,151.464z M312.196,151.114c-0.127-0.217-0.254-0.434-0.428-0.73
			C311.349,150.973,311.833,151.039,312.196,151.114z"/>
		<path d="M359.295,208.389c0.034-0.05,0.073-0.096,0.115-0.14c1.126-0.445,2.637,0.002,3.067,0.978
			c0.165,0.374,0.114,0.843,0.18,1.434c0.808,0.745,0.904,1.006,0.504,1.807c-0.227-0.206-0.441-0.399-0.671-0.608
			c-0.74,0.697-1.356,0.222-2.046-0.276c0.258-0.214,0.498-0.413,0.789-0.655c-0.064-0.256-0.134-0.535-0.204-0.816
			c-0.927,0.268-1.534-0.094-1.668-0.939C359.32,208.915,359.316,208.651,359.295,208.389z"/>
		<path d="M315.922,173.568c-0.936,0.362-1.677,0.813-2.512,0.821c-0.53,0.005-0.989-0.436-1.072-1.023
			c-0.13-0.911-0.167-1.826,0.658-2.51c0.467,0.097,0.82,0.125,1.019,0.796c0.174,0.585,0.936,0.996,1.438,1.483
			C315.531,173.211,315.612,173.283,315.922,173.568z"/>
		<path d="M313.091,145.922c0.3-0.164,0.588-0.321,0.969-0.53c0.124,0.305,0.261,0.525,0.297,0.76
			c0.039,0.258-0.038,0.532-0.023,0.796c0.042,0.716,0.365,0.92,1.024,0.648c0.313-0.129,0.614-0.377,0.908,0.01
			c0.292,0.384,0.118,0.715-0.148,1.019c-0.169,0.193-0.353,0.371-0.517,0.542c-0.529-0.279-0.976-0.574-1.465-0.758
			c-0.842-0.318-1.151-0.909-1.073-1.765C313.083,146.418,313.081,146.191,313.091,145.922z"/>
		<path d="M385.447,124.731c-0.059,0.534-0.108,0.969-0.161,1.443c-0.432,0.54-1.022,0.526-1.607,0.254
			c-0.444-0.206-0.88-0.47-1.242-0.795c-0.194-0.174-0.347-0.558-0.291-0.792c0.039-0.162,0.464-0.308,0.725-0.324
			C383.717,124.468,384.591,124.214,385.447,124.731z"/>
		<path d="M416.694,133.44c-0.293,0.632-0.554,1.194-0.815,1.756c0.046,0.036,0.092,0.072,0.138,0.108
			c0.453-0.316,0.906-0.631,1.377-0.96c-0.069,0.852-0.494,1.453-1.106,1.6c-0.443,0.106-1.511-0.313-1.712-0.672
			c-0.271-0.483-0.107-1.569,0.287-1.909C415.233,133.044,416.067,133.054,416.694,133.44z"/>
		<path d="M440.053,201.998c-0.472,0.325-0.865,0.595-1.285,0.884c-0.678-0.502-1.188-1.001-1.065-2.075
			c0.529,0.43,0.952,0.774,1.389,1.129c0.782-0.093,0.576-0.976,0.919-1.231c0.725-0.008,1.321-0.015,2.003-0.023
			c-0.311,0.48-0.571,0.937-0.887,1.352C440.79,202.478,440.685,202.457,440.053,201.998z"/>
		<path d="M434.66,168.948c-0.277-0.268-0.537-0.52-0.815-0.788c0.896-0.472,1.745-0.919,2.608-1.373
			c0.022-0.618,0.041-1.158,0.06-1.676c0.742,0.027,1.362,0.049,2.126,0.076c-0.143,0.249-0.239,0.568-0.45,0.755
			c-0.509,0.452-1.058,0.865-1.619,1.252C435.868,167.679,435.077,168.055,434.66,168.948z"/>
		<path d="M439.377,158.185c-0.325-0.154-0.5-0.226-0.665-0.317c-0.986-0.544-1.053-0.858-0.361-1.762
			c0.228-0.298,0.48-0.576,0.757-0.906c0.432,0.181,0.841,0.352,1.227,0.513C440.654,156.851,439.237,157.128,439.377,158.185z"/>
		<path d="M353.1,124.059c-0.929,0.248-1.636,0.054-2.146-0.714c-0.253-0.38-0.202-0.746,0.123-1.017
			c0.395-0.33,0.844-0.595,1.346-0.941C352.705,122.303,353.534,123.02,353.1,124.059z"/>
		<path d="M339.392,126.367c0.673-0.296,1.244-0.868,1.983-0.385c0.282,0.184,0.547,0.513,0.635,0.828
			c0.048,0.17-0.258,0.492-0.468,0.669c-0.346,0.289-0.692,0.178-1.009-0.119C340.182,127.031,339.809,126.727,339.392,126.367z"/>
		<path d="M425.372,139.801c0.248,0.861,0.248,0.861-0.623,1.499c-0.812-0.535-1.123-0.987-1.179-1.812
			C424.188,139.595,424.784,139.698,425.372,139.801z"/>
		<path d="M412.392,132.169c0.256,0.545,0.655,1.01,0.1,1.382c-0.369,0.247-0.966,0.443-1.345,0.316
			c-0.57-0.191-0.538-0.797-0.326-1.453C411.416,132.951,411.904,132.628,412.392,132.169z"/>
		<path d="M395.312,117.836c0.579-0.166,1.04-0.328,1.514-0.424c0.465-0.095,0.706,0.162,0.753,0.68
			c0.024,0.269,0.098,0.534,0.165,0.88C396.779,119.077,396.087,118.57,395.312,117.836z"/>
		<path d="M366.068,130.369c0.685-0.055,1.347-0.035,1.901,0.595c-0.072,0.356-0.151,0.754-0.232,1.154
			C366.685,131.873,366.493,131.665,366.068,130.369z"/>
		<path d="M306.058,166.107c0.663,0.689,0.663,0.689,1.49,0.638c-0.097,0.538-0.17,1.055-0.814,1.217
			c-0.471,0.118-0.678-0.191-0.905-0.515C305.482,166.952,305.546,166.538,306.058,166.107z"/>
		<path d="M354.534,134.972c-1.349,0.522-1.349,0.522-1.753-0.366c0.452-0.325,0.903-0.648,1.414-1.015
			C354.647,133.976,354.688,134.448,354.534,134.972z"/>
		<path d="M343.117,128.259c-0.407-0.976-0.179-1.264,1.415-1.824C344.696,127.541,343.935,127.914,343.117,128.259z"/>
		<path d="M411.005,130.494c0.561-0.312,1.013-0.22,1.396,0.23c0.268,0.315,0.178,0.723-0.193,0.946
			c-0.341,0.205-0.562,0.026-0.724-0.266C411.327,131.125,411.184,130.837,411.005,130.494z"/>
		<path d="M384.153,120.299c-1.185-0.3-1.327-0.498-1.085-1.524C383.612,119.171,384.278,119.412,384.153,120.299z"/>
		<path d="M326.816,132.613c-0.713,0.237-1.258,0.204-1.785-0.193C326.018,131.647,326.132,131.655,326.816,132.613z"/>
		<path d="M357.445,119.004c-0.327,0.464-0.654,0.928-1.049,1.489c-0.167-0.271-0.291-0.471-0.44-0.713
			c0.473-0.337,0.896-0.639,1.32-0.941C357.332,118.895,357.389,118.95,357.445,119.004z"/>
		<path d="M352.321,215.942c-0.756,0.085-0.929-0.019-1.178-0.975C352.009,214.717,351.799,216.18,352.321,215.942z"/>
		<path d="M392.728,277.026c-0.017,0.465-0.033,0.929-0.05,1.394C392.362,277.929,392.336,277.459,392.728,277.026z"/>
		<path d="M438.861,159.414c-0.024,0.28-0.047,0.561-0.084,0.993c-0.022-0.432-0.036-0.714-0.051-0.997
			C438.772,159.411,438.817,159.413,438.861,159.414z"/>
		<path d="M362.668,199.913c0.615-0.004,1.238-0.197,1.632,0.598c0.473,0.955,0.431,1.581-0.46,2.568
			c-0.648-0.146-0.506-0.669-0.426-1.069c0.172-0.866-0.196-1.503-0.738-2.097C362.675,199.913,362.668,199.913,362.668,199.913z"/>
		<path d="M375.341,199.672c-1.086,0.476-1.147,0.459-1.142-0.309C374.857,199.368,374.857,199.368,375.341,199.672z"/>
		<path d="M391.97,207.992c-0.748-0.417-0.482-0.883-0.284-1.477C392.278,206.955,392.217,207.409,391.97,207.992z"/>
	</g>
</svg>