<svg xmlns="http://www.w3.org/2000/svg" viewBox="73.055 111.058 86.543 177.044">
<g id="jzBIKE_1_">
		<g>
			<g>
				<path d="M140.241,210.986c-0.454,0.266-0.908,0.532-1.481,0.868c-0.15-0.463-0.283-0.874-0.452-1.396
					c-1.146,1.057-1.51,2.534-2.334,3.744c1.015-0.177,1.015-0.177,2.011-1.769c0.446,0.668,0.274,1.447,0.614,2.192
					c1.542-1.064,2.869-2.465,4.463-3.532c-0.622,1.444-1.84,2.38-2.935,3.419c-1.125,1.067-2.566,1.563-3.999,2.168
					c0.952,0.858,1.55,0.702,2.655-0.64c0.158,0.622,0.124,1.302,0.787,1.664c0.834-0.393,1.706-0.793,2.566-1.218
					c0.156-0.077,0.276-0.249,0.387-0.396c0.489-0.643,0.973-1.291,1.451-1.943c0.341-0.464,0.645-0.958,1.015-1.398
					c0.293-0.349,0.637-0.668,0.999-0.946c0.774-0.594,1.752-0.917,2.212-1.929c0.065,0.045,0.13,0.09,0.194,0.135
					c0.007,0.165,0.065,0.349,0.013,0.494c-1.122,3.089-2.871,5.725-5.602,7.659c-0.387,0.274-0.705,0.649-1.19,1.104
					c0.501,0.36,0.867,0.623,1.379,0.991c-0.014,0.249-0.029,0.705-0.065,1.16c-0.076,0.982-0.252,1.153-1.205,0.983
					c-1.014-0.181-1.884,0.344-2.849,0.378c0.306,0.546,0.538,0.958,0.837,1.49c0.243-0.171,0.546-0.437,0.892-0.616
					c0.496-0.256,0.899-0.962,1.613-0.414c0.08,0.061,0.404-0.158,0.594-0.279c0.522-0.333,1.02-0.708,1.555-1.017
					c0.356-0.205,0.76-0.325,1.107-0.468c0.439,0.455,0.123,0.722-0.13,0.93c-0.778,0.639-1.58,1.248-2.377,1.863
					c-0.466,0.359-0.939,0.709-1.409,1.063c0.047,0.068,0.093,0.135,0.14,0.203c1.045-0.682,2.09-1.364,3.285-2.143
					c0.08,0.415,0.152,0.786,0.224,1.158l0.045-0.04c-0.812,0.461-1.53,0.969-1.742,1.993c-0.061,0.295-0.453,0.595-0.76,0.766
					c-0.533,0.297-1.118,0.496-1.614,0.707c-0.069,0.515-0.004,1.026-0.22,1.357c-0.199,0.305-0.7,0.415-1.067,0.614
					c-0.773,0.419-1.545,0.839-2.347,1.275c0.137,0.389,0.355,0.553,0.677,0.326c1.333-0.938,3.085-1.216,4.085-2.694
					c0.172-0.254,0.534-0.381,0.825-0.579c0.143,0.094,0.279,0.16,0.388,0.258c1.077,0.969,1.084,1.19,0.096,2.279
					c-0.147,0.162-0.283,0.335-0.334,0.649c1.071-0.598,2.142-1.196,3.344-1.867c0.361,1.89-1.225,3.083-1.636,4.708
					c0.301-0.102,0.555-0.188,0.945-0.32c-0.127,1.811-1.13,2.863-2.549,3.698c0.291,0.585,1.444,0.855,0.655,1.803
					c-0.744,0.102-0.744,0.102-1.092,0.947c0.483-0.438,0.778-0.705,1.073-0.972c0.621-0.118,1.148-0.385,1.484-0.96
					c0.055-0.095,0.109-0.228,0.194-0.264c0.834-0.345,1.235-1.011,1.364-1.911c0.423-0.018,0.784-0.034,1.314-0.057
					c-0.319,1.1-0.84,1.936-1.228,2.905c0.244-0.174,0.488-0.348,0.697-0.497c1.165,0.245,0.433,1.117,0.581,1.745
					c0.571,0.15,0.779,0.478,0.621,1.146c-0.22,0.929-0.234,1.901-0.442,2.834c-0.144,0.646-0.465,1.257-0.896,1.842
					c0.106,0.36,0.212,0.72,0.323,1.094c0.207-0.032,0.396-0.062,0.645-0.1c-0.065,0.85-0.689,1.157-1.199,1.542
					c-0.6,0.454-1.214,0.889-1.859,1.359c-0.02-0.096-0.062-0.289-0.105-0.493c-0.475-0.28-0.915-0.238-1.259,0.237
					c-0.183,0.253-0.288,0.552,0.07,0.764c0.512,0.302,0.468,0.724,0.179,1.15c-0.493,0.73-1.015,1.442-1.531,2.157
					c-0.144,0.199-0.313,0.381-0.345,0.7c0.252-0.188,0.504-0.376,0.837-0.624c-0.017,0.597-0.26,0.99-0.67,1.3
					c-0.636,0.481-1.274,0.895-1.638,1.711c-0.265,0.595-1.022,0.875-1.7,0.662c-0.807-0.254-1.299,0.05-1.754,0.689
					c-0.238,0.334-0.552,0.643-0.892,0.871c-0.608,0.408-1.246,0.779-1.902,1.1c-0.335,0.164-0.803,0.352-1.096,0.241
					c-0.803-0.306-1.496,0.084-2.224,0.238c-0.378,0.08-0.72,0.251-1.074-0.059c-0.112-0.098-0.346-0.102-0.517-0.08
					c-1.361,0.175-2.719,0.367-4.2,0.57c1.392,0.938,3.165,1.226,4.347,2.77c-1.144-0.498-2.134-0.903-3.1-1.359
					c-0.492-0.232-0.954-0.312-1.521-0.278c-0.702,0.043-1.422-0.132-2.116-0.287c-0.461-0.103-0.891-0.336-1.477-0.566
					c0.029,0.466,0.047,0.747,0.068,1.087c-0.37-0.01-0.733-0.02-1.179-0.033c0.118,0.36,0.229,0.697,0.358,1.089
					c-0.268-0.066-0.471-0.117-0.805-0.2c0.024,3.342-0.483,6.611-0.208,9.9c0.907-1.575,1.353-3.284,1.616-5.032
					c0.266-1.765,0.437-3.542,0.738-5.313c0.486,1.009,0.38,2.102,0.447,3.16c0.082,1.292,0.117,2.589,0.125,3.885
					c0.011,1.682-0.034,3.366-0.036,5.048c-0.001,0.509-0.291,1.069,0.181,1.516c0.038,0.036,0.043,0.149,0.017,0.206
					c-0.326,0.719-0.661,1.435-1.003,2.173c-0.635-0.267-0.629-0.706-0.56-1.113c0.152-0.894,0.4-1.775,0.524-2.672
					c0.126-0.91,0.189-1.833,0.205-2.749c0.011-0.645-0.102-1.289-0.297-1.991c-0.086,0.248-0.178,0.495-0.256,0.746
					c-0.558,1.795-1.107,3.593-1.675,5.385c-0.092,0.291-0.227,0.585-0.406,0.831c-0.425,0.584-1.174,0.634-1.667,0.136
					c-0.153-0.155-0.282-0.333-0.513-0.609c-0.317,0.742-0.634,1.429-1.513,0.89c-0.178,0.493-0.335,0.93-0.558,1.549
					c-0.555-0.427-0.957-0.737-1.356-1.044c-0.127,0.261-0.3,0.563-0.629,0.204c-0.355-0.387-0.661-0.818-1.034-1.289
					c-0.505,1.141-0.782,1.21-1.507,0.489c-0.286-0.285-0.523-0.621-0.937-1.12c-0.119,0.536-0.217,0.874-0.266,1.219
					c-0.074,0.524-0.007,1.069-0.719,1.3c-0.225,0.073-0.344,0.498-0.604,0.906c-0.195-0.344-0.455-0.59-0.407-0.754
					c0.196-0.669-0.209-1.066-0.498-1.549c-0.386-0.646-0.7-1.336-1.049-2.006c-0.116-0.223-0.243-0.441-0.45-0.638
					c0.267,1.099,0.532,2.178,0.049,3.31c-0.894-2.519-1.992-4.951-2.342-7.687c0.595-0.041,0.809,0.369,1.037,0.731
					c0.946,1.501,1.876,3.011,2.822,4.511c0.259,0.41,0.553,0.798,1.046,1.164c0.021-0.217,0.104-0.454,0.05-0.649
					c-0.127-0.46,0.107-1.743,0.47-1.931c0.182-0.094,0.558-0.059,0.696,0.074c0.32,0.31,0.549,0.714,0.813,1.081
					c0.168,0.235,0.333,0.472,0.586,0.832c0.129-0.605,0.225-1.055,0.341-1.604c0.384,0.222,0.661,0.382,1.034,0.598
					c0.04-0.732,0.047-1.376,0.116-2.014c0.102-0.944-0.444-1.791-0.194-2.791c0.22-0.879,0.131-1.828,0.181-2.746
					c0.052-0.958,0.157-1.918,0.148-2.874c-0.008-0.903-0.135-1.802-0.207-2.681c-0.568,0.05-0.982,0.126-1.39,0.109
					c-0.246-0.011-0.481-0.239-0.724-0.237c-0.286,0.001-0.612,0.268-0.855,0.201c-0.475-0.13-1.06-0.299-1.316-0.658
					c-0.406-0.571-0.789-0.354-1.198-0.16c-0.368,0.174-0.695,0.439-1.115,0.608c0.417-0.414,0.519-0.921,0.611-1.474
					c-1.132,0.132-2.264,0.264-3.396,0.397c-0.017-0.063-0.033-0.126-0.05-0.189c0.412-0.346,0.824-0.692,1.236-1.037
					c-0.027-0.052-0.054-0.105-0.081-0.157c-0.366,0.051-0.737,0.076-1.097,0.158c-1.959,0.45-3.813,0.171-5.519-0.772
					c-0.6-0.332-1.221-0.241-1.765-0.193c-2.331,0.202-3.867-1.003-5.306-2.649c-1.262,0.481-2.175-0.391-3.151-0.963
					c-0.669-0.393-1.236-0.961-1.828-1.473c-0.127-0.11-0.168-0.32-0.235-0.456c0.341-0.541,0.68-0.513,1.075-0.186
					c0.326,0.27,0.682,0.504,1.025,0.753c0.058-0.051,0.115-0.103,0.173-0.154c-0.141-0.327-0.296-0.649-0.421-0.983
					c-0.185-0.496-0.501-1-0.49-1.502c0.023-0.998-0.279-1.861-0.681-2.718c-0.319-0.681-0.466-1.359,0.105-1.977
					c-0.387-0.66-1.014-0.653-1.629-0.684c-1.39-0.071-1.679-0.361-1.883-1.899c0.656-0.488,1.299,0.272,1.98-0.008
					c-0.039-0.587-0.078-1.182-0.119-1.806c0.176-0.057,0.373-0.121,0.561-0.183c0.012-0.626-0.627-1.147-0.084-1.814
					c0.581,0.009,1.233-0.253,1.943,0.529c0.281,0.257-0.998,1.288,0.229,1.596c0.962-1.176,0.436-2.231,0.03-3.275
					c-0.07-0.18-0.288-0.32-0.468-0.43c-0.827-0.507-0.846-0.568-0.322-1.501c1.781,0.197,2.033,0.478,1.479,1.753
					c0.54,0.053,1.014,0.431,1.627,0.139c-0.093-0.784-0.352-1.354-0.975-1.874c-0.705-0.588-1.236-1.403-1.77-2.172
					c-0.544-0.783-1.129-1.477-2.054-1.822c-0.893-0.332-1.051-1.125-1.089-1.95c-0.022-0.492,0.045-0.99,0.072-1.492
					c0.235-0.096,0.449-0.268,0.576-0.22c0.7,0.263,1.48,0.456,2.037,0.911c0.58,0.474,1.163,1.084,1.116,2.001
					c-0.027,0.523,0.431,0.729,0.794,0.812c0.52,0.118,1.084,0.056,1.719,0.074c-0.511-0.702-1.022-1.403-1.396-1.918
					c0.449-0.408,0.796-0.721,1.142-1.036c-0.059-0.082-0.118-0.165-0.177-0.247c0.327,0.141,0.655,0.283,0.982,0.424
					c-0.251-0.942-1.298-1.197-1.518-2.013c0.229-0.529,0.445-1.026,0.675-1.557c-1.065-0.631-1.501-1.549-1.661-2.663
					c-0.057-0.396-0.293-0.764-0.459-1.14c-0.24-0.542-0.49-1.078-0.736-1.617c0.07-0.07,0.139-0.139,0.209-0.209
					c0.603,0.336,1.205,0.671,2.015,1.122c-0.558-1.348-1.528-2.299-1.219-3.808c1.039,0.16,2.061,0.109,3.117-0.125
					c-0.018-0.094-0.003-0.225-0.059-0.277c-1.275-1.19-2.074-2.683-2.641-4.315c-0.168-0.484-0.407-0.852-0.849-1.144
					c-0.92-0.607-1.347-1.599-1.793-2.564l0,0.002c0.543-0.195,0.609,0.332,0.832,0.576c0.38,0.415,0.683,0.899,1.043,1.333
					c0.157,0.189,0.376,0.325,0.667,0.423c-0.327-1.249-1.754-2.044-1.418-3.443c0.399-0.246,0.708-0.427,1.008-0.622
					c0.62-0.402,1.152-0.134,1.345,0.74c0.162-0.13,0.294-0.255,0.444-0.351c0.165-0.105,0.347-0.183,0.38-0.2
					c-0.187-0.914-0.347-1.606-0.452-2.307c-0.017-0.115,0.208-0.273,0.353-0.45c0.893,0.899,2.223,1.281,2.39,2.792
					c-0.379,0.045-0.809,0.095-1.253,0.147c-0.146,0.429-0.294,0.863-0.461,1.352c0.625,0.498,1.227,0.978,1.775,1.414
					c0.351-0.87,0.753-1.618,0.938-2.411c0.133-0.569-0.023-1.199-0.054-1.89c-0.314-0.107-0.639-0.185-0.931-0.326
					c-0.33-0.16-0.749-0.304-0.921-0.585c-0.496-0.811-1.265-0.96-2.106-1.107c-0.621-0.109-1.243-0.317-1.804-0.598
					c-0.748-0.374-0.95-1.114-0.989-1.817c0.448-0.378,0.835-0.705,1.266-1.069c-1.069-1.925-2.209-3.731-1.99-6.106
					c1.248,0.551,1.78,1.807,2.899,2.461c-0.031-0.388-0.059-0.742-0.096-1.216c0.45,0.106,0.976,0.606,1.077-0.304
					c0.4,0.206,0.725,0.372,1.046,0.537c0.327-0.468,0.258-0.855-0.009-1.275c-0.381-0.598-0.489-1.268-0.241-2.095
					c1.075-0.246,2.127-0.074,3.02,0.563c0.555,0.396,0.562,1.13,0.383,1.776c-0.301,1.088,0.185,1.984,0.55,2.914
					c0.015,0.039,0.138,0.034,0.293,0.068c-0.031-1.207-0.956-2.284-0.406-3.524c0.624-0.279,0.825,0.25,1.115,0.554
					c1.339,1.405,1.533,1.539,3.088,1.956c-0.618-0.576-1.299-1.072-1.797-1.712c-0.501-0.645-0.82-1.433-1.27-2.252
					c-1.623-0.252-2.577-1.378-3.019-3c-0.234-0.859-0.637-1.564-1.22-2.25c-0.513-0.603-0.83-1.445-1.013-2.238
					c-0.108-0.471,0.211-1.053,0.361-1.678c0.36,0.251,0.624,0.436,0.981,0.685c0.13-0.227,0.319-0.424,0.358-0.645
					c0.251-1.438,0.247-1.446,1.679-1.624c0.068-0.177,0.092-0.446,0.239-0.576c0.213-0.189,0.517-0.372,0.778-0.373
					c0.172,0,0.372,0.304,0.492,0.512c0.142,0.247,0.21,0.538,0.382,1.006c0.285-0.503,0.245-1.22,0.882-0.853
					c0.082-0.413,0.14-0.786,0.232-1.151c0.261-1.043-0.03-1.766-1.035-2.049c-1.334-0.375-2.061-1.309-2.656-2.452
					c-0.464-0.892-0.991-1.751-1.504-2.648c0.708-0.331,0.65,0.418,1.068,0.563c-0.02-0.276-0.036-0.517-0.059-0.841
					c0.435,0.149,0.811,0.278,1.371,0.471c-0.231-1.056-0.41-1.877-0.597-2.733c0.691,0.088,1.243,0.148,1.791,0.232
					c0.518,0.079,0.612,0.469,0.655,0.921c0.092,0.969,0.373,1.852,1.211,2.437c0.048,0.033,0.137,0.008,0.18,0.009
					c0.04-0.742,0.081-1.491,0.123-2.264c-3.351-2.364-4.042-6.793-3.5-9.643c0.435,0.114,0.707,0.298,0.699,0.836
					c-0.013,0.796,0.07,1.591,0.288,2.395c0.046-0.848,0.092-1.697,0.138-2.545c0.07-0.026,0.141-0.052,0.211-0.077
					c0.263,0.621,0.681,0.987,1.346,1.061c0.17,0.019,0.321,0.294,0.45,0.474c0.323,0.451,0.629,0.916,0.997,1.456
					c0.204-0.42,0.366-0.753,0.572-1.178c-1.511-1.284-1.974-3.127-2.274-5.067c0.382,0.443,0.812,0.853,1.131,1.338
					c0.326,0.497,0.642,0.397,1.003,0.147c0.235-1.447-0.594-2.851,0.043-4.377c0.668,0.346,0.813,0.947,1.068,1.466
					c0.257,0.521,0.523,1.038,0.866,1.717c0.23-0.376,0.354-0.579,0.47-0.767c-1.859-1.948-2.423-3.827-1.632-5.449
					c0.653,0.522,1.063,1.168,1.181,2c0.131,0.923,0.44,1.766,1.171,2.647c-0.087-0.701-0.068-1.225,0.65-1.371
					c-0.217-0.829-0.419-1.603-0.653-2.498c0.542,0.322,0.949,0.564,1.476,0.877c-0.046-0.283-0.031-0.39-0.073-0.419
					c-0.807-0.573-1.209-1.267-0.926-2.341c0.15-0.568,0.075-1.201,0.031-1.798c-0.018-0.239-0.177-0.509-0.354-0.679
					c-0.564-0.542-0.588-1.185-0.375-2.157c0.329,0.796,0.57,1.38,0.822,1.989c0.273-1.137,0.553-2.187,0.768-3.249
					c0.08-0.396,0.786-0.233,0.62-0.868c-0.077-0.294,0.264-0.709,0.485-1.236c-0.157-0.462-0.157-0.462,0.183-1.063
					c0.249,0.203,0.486,0.396,0.745,0.607c0.083-0.118,0.21-0.218,0.198-0.292c-0.101-0.641-0.224-1.249,0.244-1.864
					c0.131-0.172-0.026-0.639-0.16-0.915c-0.244-0.501-0.57-0.96-0.904-1.504c-0.226,0.176-0.473,0.368-0.724,0.564
					c-0.231-0.733-0.13-1.281,0.579-1.616c0.685-0.324,0.937-0.934,1.41-1.398c-0.314-0.375-0.6-0.715-0.926-1.104
					c0.812-1.086,1.647-2.145,2.411-3.252c0.292-0.424,0.422-0.957,0.636-1.464c-1.377-0.912-2.035-2.173-2.227-3.692
					c0.076-0.043,0.151-0.087,0.227-0.13c0.285,0.553,0.533,1.132,0.867,1.653c0.339,0.527,0.763,0.997,1.183,1.535
					c0.179-0.436,0.316-0.768,0.491-1.193c0.863,0.527,1.597,1.205,2.637,0.785c-0.055-1.282-0.055-1.282,0.804-1.625
					c-0.134-0.542-0.233-1.096-0.412-1.62c-0.166-0.487-0.13-0.873,0.257-1.258c0.134-0.133,0.141-0.393,0.207-0.594
					c0.213-0.646,0.354-1.328,0.664-1.924c0.236-0.454,0.685-0.768,1.297-0.579c0.198,0.061,0.444-0.022,0.673-0.039
					c0.009-0.172,0.017-0.313,0.025-0.455l-0.023,0.024c0.481,0.128,0.84,0.074,1.144-0.443c0.278-0.473,0.722-0.85,1.188-1.376
					c-0.334-0.302-0.637-0.577-0.973-0.882c0.351-0.319,0.692-0.628,1.084-0.984c-0.403-0.339-0.701-0.59-1.099-0.924
					c1.056-0.378,1.457,0.37,2.189,0.798c-0.313,0.227-0.508,0.368-0.806,0.584c-0.066,0.614,0.765,0.433,0.987,0.738
					c0.392,0.394-0.102,1.238,0.783,1.223c0.147-0.307,0.287-0.599,0.421-0.878c0.737,0.078,1.181,0.398,1.294,1.092
					c0.072,0.441,0.069,0.844-0.488,0.985c-0.553,0.14-0.518,0.506-0.312,0.875c0.072,0.13,0.286,0.195,0.45,0.251
					c0.631,0.216,1.158,0.292,1.273,0.25c0.342,0.271,0.66,0.494,0.94,0.758c0.108,0.102,0.217,0.319,0.179,0.442
					c-0.25,0.811-0.177,1.615,0.101,2.549c-0.464-0.162-0.727-0.254-0.998-0.348c-0.352,0.555,0.16,0.579,0.326,0.86
					c0.594-0.384,1.131-0.73,1.725-1.114c0.409,1.634-1.168,1.682-1.969,2.336c0.437,0.578,0.892,0.687,1.51,0.351
					c0.066,0.34,0.121,0.619,0.175,0.897c0.075-0.003,0.206,0.016,0.217-0.011c0.352-0.86,1.349-0.772,1.925-1.349
					c0.374-0.374,0.845,0.004,1.298,1.068c-0.54-0.124-0.977-0.225-1.486-0.342c-0.119,0.283-0.23,0.547-0.313,0.744
					c-0.647,0.244-1.243,0.47-2.034,0.769c0.654,0.156,1.136,0.308,1.631,0.372c0.235,0.03,0.52-0.062,0.739-0.182
					c0.326-0.178,0.602-0.447,0.918-0.646c0.289-0.183,0.604-0.325,0.988-0.527c0.147,0.875-0.397,1.354-0.932,1.801
					c-0.522,0.436-1.093,0.812-1.785,1.319c1.173,0.203,2.038-0.092,2.859-0.688c-0.157,0.819-0.157,0.819-2.417,1.7
					c0.637-0.027,1.273-0.054,2.002-0.085c-0.065,0.459,0.711,0.637,0.533,1.216c-0.145,0.474-0.433,0.907-0.687,1.417
					c0.829,0.103,1.318-0.433,1.866-0.896c0.027,1.042-0.152,1.154-2.658,1.696c0.48,0.9,1.471,0.578,2.156,0.935
					c0.309,1.135,0.07,1.503-1.185,1.729c-1,0.18-2.006,0.325-3.222,0.52c2.187,0.326,2.472,0.307,3.555-0.179
					c-0.255,0.995-1.211,1.11-4.101,0.975c0.014,0.463,0.028,0.916,0.041,1.335c2.078,0.892,2.499,0.938,3.37,0.377
					c0.28,0.141,0.567,0.404,0.865,0.408c0.529,0.007,1.075-0.099,1.593-0.242c0.311-0.086,0.582-0.333,0.854-0.611
					c-0.555,0.208-0.937-0.749-1.57-0.116c-0.045-0.232-0.091-0.469-0.159-0.82c0.69-0.055,1.403-0.272,2.016-0.121
					c0.824,0.204,1.544,0.413,2.247-0.361c-0.219,2.234-2.085,3.083-3.639,4.416c1.155-0.052,1.736-0.79,2.593-1.358
					c0.009,0.307,0.091,0.562,0.006,0.741c-0.179,0.379-0.445,0.718-0.675,1.074c-0.209,0.11-0.418,0.219-0.626,0.329
					c-0.684,0.247-1.369,0.494-2.202,0.795c0.877,0.249,1.654,0.469,2.472,0.702c-0.337,0.509-0.852,0.501-1.363,0.372
					c-0.715-0.18-1.323,0.002-2.074,0.543c0.707,0.02,1.222,0.034,1.66,0.046c0.48,0.495-0.095,0.709-0.209,1.227
					c0.614-0.247,1.121-0.45,1.667-0.67c0.047,0.083,0.115,0.201,0.187,0.326c0.917-0.753,1.945-1.082,3.14-0.892
					c0.112,0.496,0.48,1.107-0.566,0.955c-0.058-0.008-0.157,0.056-0.194,0.113c-0.375,0.582-0.742,1.17-1.256,1.987
					c1.439-0.383,2.137-1.368,3.011-2.256c0.019,0.257,0.026,0.356,0.04,0.549c0.437-0.356,0.835-0.68,1.322-1.076
					c-0.335-0.2-0.604-0.36-0.923-0.551c0.186-0.188,0.362-0.366,0.603-0.61c0.458,0.244,1.018,0.356,0.653,1.202
					c-0.176,0.408-0.077,0.929-0.111,1.559c0.306-0.438,0.529-0.755,0.751-1.073c0.061,0.018,0.121,0.036,0.181,0.054
					c-0.106,0.528-0.213,1.055-0.319,1.583c0.04,0.027,0.08,0.054,0.12,0.081c0.307-0.482,0.614-0.965,0.956-1.502
					c0.242,0.569,0.004,1.046-0.184,1.518c-0.194,0.486-0.413,0.962-0.477,1.512c0.384-0.466,0.769-0.932,1.182-1.433
					c0.74,0.508-0.324,1.299,0.221,1.652c-0.636,0.763-1.24,1.487-1.844,2.212c0.019,0.033,0.038,0.066,0.058,0.1
					c0.261-0.154,0.523-0.308,1.006-0.592c-0.91,1.602-2.377,1.794-3.649,2.305c0.256,0.341,0.478,0.637,0.714,0.952
					c-0.144,0.296-0.274,0.564-0.449,0.924c0.293,0.038,0.523,0.068,0.82,0.106c-0.232,0.225-0.44,0.426-0.634,0.614
					c-0.388-0.202-0.73-0.38-1.072-0.558c-0.053,0.053-0.107,0.106-0.16,0.159c0.095,0.285,0.189,0.569,0.291,0.875
					c0.778-0.218,1.55-0.246,2.417,0.067c-0.194,0.237-0.33,0.402-0.543,0.662c0.312-0.012,0.568-0.022,0.842-0.033
					c-0.28,1.001-1.247,1.925-2.876,2.724c1.271,0.299,2.549-0.105,3.883,0.473c-1.328,0.734-2.513,0.575-3.878,0.631
					c1.054,0.559,2.011,0.508,2.946,0.436c0.899-0.069,1.792-0.251,2.806-0.401c-0.163,0.295-0.247,0.447-0.374,0.677
					c1.109-0.144,2.166-0.281,3.358-0.435c-0.29,0.754-1.269,0.597-1.283,1.357c-0.572,0.106-1.143,0.213-1.715,0.32
					c0.008,0.07,0.015,0.14,0.022,0.21c1.049-0.063,2.098-0.126,3.275-0.196c-0.145,0.21-0.186,0.34-0.256,0.36
					c-0.852,0.236-1.425,0.77-1.938,1.502c-0.635,0.904-1.129,0.888-2.105,0.216c-0.181-0.125-0.413-0.188-0.63-0.249
					c-1.417-0.399-2.836-0.792-4.256-1.18c-0.052-0.014-0.122,0.034-0.217,0.063c1.768,1.086,3.637,1.875,5.637,2.444
					c-0.609-0.062-1.218-0.124-1.898-0.193c0.38,0.451,0.698,0.829,1.016,1.207c-0.036,0.037-0.072,0.074-0.108,0.11
					c0.546,0.186,1.082,0.491,1.642,0.525c0.528,0.032,1.082-0.22,1.757-0.378c-0.202,0.381-0.395,0.744-0.688,1.297
					c1.053-0.506,1.952-0.938,2.882-1.385c0.189,0.26,0.06,0.498-0.172,0.729c-1.126,1.12-2.226,2.274-3.906,2.518
					c-0.48,0.07-0.475,0.42-0.377,0.851c0.527-0.191,1.038-0.376,1.556-0.564c0.283,0.579-0.168,0.799-0.445,1.079
					c-0.785,0.794-1.593,1.566-2.361,2.377c-0.273,0.288-0.453,0.664-0.675,1c0.089,0.078,0.177,0.156,0.266,0.235
					c0.111-0.185,0.222-0.37,0.376-0.628c0.194,0.312,0.344,0.553,0.477,0.767c-0.73,1.532-2.09,2.204-3.468,2.797
					c-0.73,0.314-1.283-0.137-1.681-0.887c-0.58,0.434-1.087,0.812-1.821,1.361c1.843,0.277,3.412,0.716,5.036,0.121
					c0.417-0.153,0.778-0.469,1.08-0.658c0.402-0.002,0.778,0.093,1.078-0.022c1.001-0.383,1.975-0.842,3.057-1.314
					c-0.014,0.264-0.023,0.428-0.034,0.629c0.288-0.047,0.534-0.086,0.864-0.14c-0.114,0.359-0.201,0.635-0.289,0.912
					c-1.115,0.533-1.115,0.533-1.559,1.058c1.032-0.334,1.092-0.376,1.538-1.08c0.267,0.323,0.534,0.646,0.855,1.033
					c0.542-0.314,1.236-0.715,2.002-1.159c0.119,0.248,0.238,0.496,0.373,0.778c-0.196,0.286-0.471,0.543-0.564,0.851
					c-0.236,0.779-0.737,0.858-1.432,0.805c-0.322-0.024-0.664,0.295-1.014,0.375c-0.363,0.083-0.759,0.014-1.117,0.108
					c-0.354,0.093-0.678,0.309-0.969,0.643c0.767-0.113,1.535-0.227,2.302-0.34c0.044,0.075,0.087,0.15,0.13,0.225
					c-0.185,0.189-0.345,0.42-0.562,0.56c-0.389,0.251-0.809,0.454-1.222,0.664c-0.74,0.375-0.747,0.403-0.393,1.156
					c0.067,0.143,0.055,0.325,0.097,0.611c0.922-0.434,1.783-0.84,2.645-1.246c0.049,0.031,0.098,0.062,0.146,0.092
					c-0.152,0.214-0.258,0.502-0.463,0.629c-0.918,0.569-1.854,1.109-2.802,1.624c-0.559,0.303-1.171,0.516-1.575,1.387
					c1.394-0.52,2.593-0.967,3.792-1.415c0.033,0.061,0.066,0.121,0.099,0.182c-0.861,0.569-1.722,1.137-2.713,1.792
					c0.96-0.156,1.786-0.29,2.64-0.429c0.142,0.811-0.672,0.974-0.819,1.607c0.265,0.037,0.532,0.074,0.823,0.115
					c-0.059,0.647-0.29,1.066-0.906,1.358c-0.618,0.294-1.135,0.803-1.727,1.168c-1.23,0.76-2.484,1.48-3.72,2.231
					c-0.426,0.259-0.828,0.561-1.46,0.995c0.416,0.333,0.759,0.608,1.139,0.912c-0.243,0.378-0.462,0.72-0.682,1.062
					c1.359-0.691,2.692-1.398,3.784-2.556c-0.455-0.198-0.839-0.364-1.381-0.6c2.369-0.952,4.728-1.472,6.675-2.994
					c0.492,0.518,0.283,0.92-0.123,1.203c-0.82,0.572-1.673,1.099-2.526,1.619c-0.324,0.198-0.689,0.327-1.038,0.488
					c-0.032,0.588-0.062,1.153-0.099,1.823c0.666-0.261,1.261-0.495,1.9-0.746c0.169,0.355,0.328,0.691,0.556,1.169
					c-0.647,0.59-1.309,1.201-1.979,1.802c-0.431,0.387-0.863,0.776-1.316,1.137c-0.662,0.527-1.326,1.054-2.023,1.53
					c-0.308,0.211-0.625,0.335-0.41,0.778c1.986-0.723,3.831-0.923,6.106-4.083c0.624,1.469-0.239,2.498-0.991,3.631
					c0.093,0.177,0.213,0.406,0.335,0.635c0.283,0.533,0.2,0.982-0.225,1.461c-0.583,0.658-1.089,1.384-1.628,2.081L140.241,210.986
					z M107.022,206.027c0.325-0.071,0.651-0.143,1.011-0.222c-0.662-0.532-0.662-0.532-0.989,0.249
					c-0.098-0.029-0.195-0.058-0.293-0.087c-0.021,0.383-0.042,0.766-0.062,1.149c0.06,0,0.121,0.001,0.181,0.001
					C106.92,206.754,106.971,206.391,107.022,206.027z M129.184,154.656c-0.354,0.121-0.707,0.243-1.21,0.415
					c0.371,0.226,0.632,0.386,1.075,0.656c0.061-0.475,0.1-0.776,0.138-1.076c0.161,0.231,0.322,0.462,0.508,0.728
					c0.296-0.241,0.511-0.416,0.939-0.764C129.957,154.634,129.57,154.645,129.184,154.656z M104.854,168.77
					c-0.545,0.028-1.073-0.352-1.727-0.081c0.985,0.591,0.985,0.591,1.705,0.06c0.268-0.182,0.539-0.362,0.477-0.778
					C104.785,168.092,104.832,168.437,104.854,168.77z M124.925,200.678c0.001-0.931,0.001-0.931-1.011-0.82
					c0.424,0.327,0.73,0.563,1.036,0.8c0.248,0.325,0.495,0.65,0.743,0.974c0.094-0.033,0.188-0.066,0.282-0.1
					c-0.008-0.293,0.095-0.673-0.048-0.861C125.672,200.336,125.267,200.444,124.925,200.678z M102.47,195.853
					c-0.472-0.878-1.078-0.29-1.76-0.203c0.395,0.317,0.674,0.542,0.972,0.781c0.275-0.207,0.544-0.409,0.813-0.611
					c0.029,0.465,0.058,0.931,0.096,1.529c0.485-0.308,0.853-0.543,1.371-0.872C103.351,196.22,102.912,196.035,102.47,195.853z
					 M131.764,223.854c0.579-0.143,1.186,0.368,1.75-0.213c-0.584,0.072-1.167,0.145-1.751,0.217
					c-0.417-0.765-0.417-0.765-1.806-0.159c0.493,0.254,0.939,0.484,1.407,0.725C131.423,224.145,131.595,223.927,131.764,223.854z
					 M140.938,252.969c-0.735,0.467-1.469,0.934-2.344,1.491c1.266,0.338,2.156-0.117,3.018-0.689
					c0.031-0.021,0.01-0.122,0.014-0.196c-0.258-0.058-0.511-0.115-0.777-0.175c0.025-0.171,0.046-0.316,0.068-0.459
					c1.008,0.136,1.063,0.103,1.355-0.983C141.739,252.362,141.338,252.666,140.938,252.969z M131.129,221.944
					c-0.587,0.591-0.587,0.591,0.085,0.82c-0.031-0.284-0.06-0.553-0.089-0.822c-0.314-0.768-0.673-1.471-1.553-1.767
					c-0.217-0.073-0.322-0.457-0.478-0.696c-0.529-0.014-1.057-0.029-1.759-0.048c0.855,0.843,0.855,0.843,1.756,0.042
					C128.714,220.853,129.718,222.071,131.129,221.944z M129.008,194.615c-0.197-0.196-0.219-0.229-0.249-0.247
					c-1.67-0.965-2.917-2.206-3.016-4.322c-0.025-0.534-0.291-1.094-0.944-1.343c-0.241,0.716-0.866,0.602-1.672,0.683
					c0.81,0.432,1.385,0.739,1.899,1.014c-0.442,0.487-0.85,0.937-1.332,1.467c0.342,0.332,0.547,0.713,0.827,0.772
					c1.06,0.222,1.841,0.86,2.63,1.511c0.202,0.167,0.413,0.373,0.654,0.43C128.129,194.658,128.485,194.608,129.008,194.615z
					 M95.75,206.845c-0.728-0.02-1.447-0.04-2.397-0.066c0.689,0.813,1.106,1.732,1.796,2.014c0.899,0.367,0.927,1.353,1.611,1.764
					c0.12-0.087,0.238-0.152,0.232-0.172C96.585,209.204,96.168,208.026,95.75,206.845z M108.667,230.549
					c1.361-0.879,2.08-1.894,2.383-3.283C109.46,227.742,108.727,228.755,108.667,230.549z M97.729,216.675
					c-0.941-0.064-1.75-0.118-2.174-0.822c-0.655,0.523-1.006,1.271-1.575,1.926c0.276,0.279,0.553,0.561,1.012,1.026
					c-0.053-0.89-0.369-1.543,0.242-2.215c0.542,0.435,1.071,0.861,1.509,1.213C97.028,217.477,97.312,217.152,97.729,216.675z
					 M108.079,136.899c-0.548-0.547-1.412-0.539-1.654-1.369c0.031,0.995-0.823,1.834-0.386,3.035
					C106.771,137.967,107.382,137.467,108.079,136.899z M122.605,176.853c0.077-0.079,0.155-0.159,0.232-0.238
					c-0.513-1.146-1.026-2.291-1.558-3.48c-0.076,0.403-0.147,0.714-0.189,1.029c-0.033,0.246-0.114,0.534-0.027,0.736
					c0.253,0.589,0.55,1.165,0.896,1.702C122.06,176.761,122.383,176.773,122.605,176.853z M137.657,176.269
					c-0.691-0.539-1.35-1.014-1.963-1.544c-0.565-0.489-0.658-0.501-1.271,0.155C136.468,176.651,136.503,176.666,137.657,176.269z
					 M106.501,239.979c-0.01,1.061,0.138,1.286,0.852,1.211c0.634-0.066,1.263-0.23,1.882-0.4c0.157-0.043,0.267-0.276,0.498-0.532
					C108.579,240.159,107.591,240.073,106.501,239.979z M112.435,231.295c0.445-0.983,0.891-1.811,1.017-2.978
					c-0.667,1.281-1.254,0.075-2.039,0.204c0.225,0.478,0.435,0.851,0.581,1.249C112.156,230.211,112.259,230.673,112.435,231.295z
					 M91.967,225.746c0.201-0.501,0.365-0.91,0.559-1.394c-0.592-0.107-1.171-0.212-1.81-0.328c-0.144,0.573-1.211,0.99-0.26,1.781
					c0.326-0.273,0.65-0.545,0.995-0.835C91.576,225.161,91.752,225.424,91.967,225.746z M110.309,172.521
					c-0.065-0.075-0.13-0.151-0.195-0.226c-0.596,0.553-1.163,1.145-1.798,1.649c-0.641,0.508-1.351,0.928-2.03,1.387
					C108.345,175.386,109.214,173.798,110.309,172.521z M126.062,237.846c1.034-0.063,1.034-0.063,1.44-0.64
					c-1.019-0.394-2.191-0.016-2.908,0.939C125.618,238.944,125.805,238.906,126.062,237.846z M104.697,183.808
					c-0.071-0.103-0.141-0.206-0.212-0.31c-1.064,1.305-2.481,1.262-3.901,1.299c0.125,0.659,0.587,0.667,1.047,0.674
					c1.166,0.018,2.016-0.751,2.96-1.28C104.671,184.147,104.663,183.939,104.697,183.808z M99.35,253.877
					c-0.069-0.291-0.155-0.654-0.246-1.04c-0.725,0.469-1.317,0.852-1.937,1.254c0.007,0.054-0.009,0.185,0.043,0.274
					c0.141,0.241,0.276,0.606,0.48,0.652c0.196,0.044,0.487-0.236,0.718-0.4C98.7,254.409,98.974,254.175,99.35,253.877z
					 M98.385,192.543c-0.425-0.078-0.842-0.154-1.472-0.269c0.226,0.523,0.37,0.857,0.547,1.269c0.456-0.468,0.784-0.796,1.26-0.353
					c0.499,0.465,0.91,0.205,1.361-0.215c-0.301-0.227-0.538-0.407-0.776-0.585c-0.225-0.169-0.451-0.336-0.701-0.522
					C98.518,192.132,98.462,192.305,98.385,192.543z M147.066,245.81c-0.692,0.251-1.379,0.5-1.993,0.723
					c0.266,0.437,0.506,0.833,0.743,1.223C147.043,246.796,147.298,246.398,147.066,245.81z M139.107,244.774
					c-0.577-0.105-1.28-0.223-1.979-0.362c-0.603-0.12-1.001,0.107-1.422,0.886c0.21,0.133,0.424,0.269,0.684,0.433
					C137.145,244.741,138.287,245.088,139.107,244.774z M96.641,187.673c-0.282,1.573,0.724,2.355,1.121,3.576
					c0.523-1.056-0.223-1.703-0.232-2.474C97.526,188.466,97.064,188.174,96.641,187.673z M90.583,212.998
					c-0.856-0.537-0.284-1.91-1.682-2.107c0.221,0.915,0.42,1.74,0.628,2.6C89.867,213.333,90.125,213.212,90.583,212.998z
					 M138.333,225.548c0.269,0.344,0.409,0.719,0.645,0.788c0.548,0.159,1.101,0.045,1.765-0.738
					c-1.012,0.307-0.865-0.419-1.132-0.753C139.234,225.051,138.901,225.235,138.333,225.548z M105.759,222.294
					c0.074,0.067,0.149,0.135,0.223,0.202c0.807-0.464,1.288-1.241,1.746-2.128c-0.233-0.145-0.412-0.257-0.66-0.412
					C106.609,220.776,106.184,221.535,105.759,222.294z M128.493,237.447c0.017,0.06,0.039,0.294,0.145,0.477
					c0.381,0.656,0.797,0.648,1.156-0.029c0.244-0.46,0.434-0.949,0.695-1.529C129.76,236.76,129.166,237.083,128.493,237.447z
					 M126.175,168.655c1.291,1.691,1.965,2.118,3.16,1.915C128.153,170.054,127.542,168.96,126.175,168.655z M111.717,226.51
					c0.098,0.056,0.196,0.111,0.294,0.166c0.541-1.042,1.243-1.995,1.635-3.202c-0.259-0.076-0.446-0.13-0.586-0.171
					C112.587,224.433,112.152,225.471,111.717,226.51z M110.156,195.496c-0.972-0.391-1.188,0.45-1.759,0.763
					c0.19,0.363,0.341,0.651,0.496,0.948C109.686,196.858,109.873,196.182,110.156,195.496z M95.292,215.008
					c-0.53-0.219-0.974-0.403-1.532-0.634c-0.085,0.396-0.237,0.679-0.164,0.87c0.1,0.258,0.331,0.538,0.58,0.644
					C94.761,216.139,94.954,215.639,95.292,215.008z M103.729,197.854c0.727,0.184,1.075-0.093,1.457-0.444
					c0.285-0.261,0.526-0.476,0.284-0.842c-0.2-0.302-0.809-0.218-1.067,0.148C104.189,197.02,104.02,197.357,103.729,197.854z
					 M107.612,181.396c-0.192-0.156-0.298-0.295-0.348-0.276c-0.596,0.228-1.186,0.473-1.772,0.728
					c-0.439,0.191-0.446,0.55-0.314,1.066C105.99,182.409,106.768,181.923,107.612,181.396z M102.742,222.56
					c-0.391,0.242-0.755,0.468-1.293,0.801c0.828,0.236,1.411,0.402,1.996,0.569C103.725,223.219,103.725,223.219,102.742,222.56z
					 M111.682,231.147c-0.867,0.525-1.506,0.911-2.144,1.297c0.824,0.825,0.991,0.811,1.549-0.154
					C111.254,232,111.397,231.696,111.682,231.147z M104.63,152.203c0.438,1.565,0.736,1.693,1.931,0.686
					C105.696,153.049,105.641,151.593,104.63,152.203z M98.32,163.185c-0.358,0.206-0.546,0.314-0.781,0.449
					c0.375,0.679,0.725,1.314,1.174,2.128C99.259,164.64,98.342,164.104,98.32,163.185z M119.651,220.403
					c-0.271,0.815,0.435,0.952,0.531,1.372c0.114,0.503,0.261,0.997,0.401,1.525c0.414-0.383-0.116-1.188,0.864-1.185
					C120.832,221.53,120.327,221.048,119.651,220.403z M101.994,214.616c-0.219,0.313-0.433,0.619-0.689,0.984
					c0.325,0.432,0.573,0.906,1.176,1.18C102.507,215.958,102.623,215.227,101.994,214.616z M107.964,139.515
					c0.758,0.071,1.345-0.008,1.761-0.628c0.224-0.333,0.232-0.638-0.196-0.934C109.16,138.564,108.305,138.669,107.964,139.515z
					 M102.393,152.664c0.227,0.47,0.448,0.943,0.682,1.409c0.213,0.424,0.183,1.026,0.892,1.249
					C103.952,154.054,103.242,153.311,102.393,152.664z M124.704,172.389c0.763,0.727,1.413,1.346,2.062,1.965
					c0.057-0.05,0.114-0.099,0.171-0.149c-0.24-0.36-0.549-0.691-0.705-1.087C125.965,172.439,125.503,172.239,124.704,172.389z
					 M109.061,219.29c0.852-0.477,0.985-1.318,1.36-2.074c-0.362,0.074-0.838,0.156-0.95,0.399
					C109.234,218.129,109.186,218.727,109.061,219.29z M130.079,160.813c0.836-0.17,1.673-0.33,2.505-0.519
					c0.158-0.036,0.291-0.192,0.436-0.293C132.01,160.199,130.879,159.618,130.079,160.813z M107.294,176.561
					c0.026,0.06,0.053,0.12,0.079,0.18c0.734-0.29,1.467-0.58,2.281-0.902c-0.229-0.283-0.375-0.463-0.541-0.669
					C108.486,175.65,107.89,176.106,107.294,176.561z M125.801,231.489c-0.158-0.322-0.293-0.599-0.499-1.019
					c0.539,0.112,0.921,0.191,1.378,0.286c-0.372-0.598-0.821-0.718-2.412-0.655C125.072,230.394,124.865,231.436,125.801,231.489z
					 M123.821,196.368c0.069-0.058,0.137-0.116,0.206-0.174c-0.098-0.294-0.196-0.587-0.267-0.802
					c-0.788-0.198-1.462-0.368-2.395-0.602C122.337,195.415,123.079,195.892,123.821,196.368z M113.851,237.171
					c-0.487-0.133-0.838-0.229-1.253-0.343c-0.147,0.239-0.364,0.591-0.598,0.972c0.283,0.151,0.508,0.27,0.751,0.399
					C113.131,237.844,113.47,237.527,113.851,237.171z M125.235,171.318c-0.163-1.011-0.714-1.618-1.797-1.639
					C124.037,170.225,124.636,170.771,125.235,171.318z M138.003,170.003c1.305,0.682,1.529,0.646,2.113-0.191
					C139.412,169.876,138.707,169.94,138.003,170.003z M126.398,258.196c0.859,0.579,1.811,0.868,2.933,0.934
					C128.508,258.139,127.374,258.411,126.398,258.196z M120.824,150.167c0.34-0.201,0.609-0.361,0.95-0.562
					c-0.569-0.402-1.045-0.739-1.52-1.075c-0.049,0.027-0.098,0.055-0.147,0.082C120.349,149.137,120.591,149.661,120.824,150.167z
					 M94.179,177.595c-0.027,0.047-0.053,0.095-0.08,0.142c0.587,0.314,1.174,0.629,1.824,0.977
					c0.151-0.638,0.017-0.963-0.591-0.997C94.946,177.694,94.563,177.636,94.179,177.595z M89.526,203.446
					c0.509,0.235,0.906,0.418,1.34,0.618c0.095-0.38,0.168-0.671,0.236-0.942C90.498,202.526,90.101,202.969,89.526,203.446z
					 M102.564,229.789c0.376,0.528,0.699,0.981,1.029,1.444c0.085-0.086,0.136-0.115,0.135-0.139
					c-0.017-0.369-0.075-0.738-0.055-1.106c0.03-0.551-0.191-0.675-0.664-0.454C102.837,229.615,102.678,229.723,102.564,229.789z
					 M126.967,182.321c0.742,1.055,0.916,1.098,2.604,0.756C128.715,182.829,127.974,182.613,126.967,182.321z M126.708,157.56
					c-0.039,0.076-0.078,0.151-0.118,0.227c0.217,0.136,0.425,0.289,0.652,0.404c0.24,0.122,0.492,0.27,0.752,0.293
					c0.238,0.021,0.493-0.111,0.74-0.176c-0.009-0.085-0.019-0.171-0.028-0.256C128.04,157.888,127.374,157.724,126.708,157.56z
					 M115.362,132.669c-0.06-0.066-0.12-0.132-0.18-0.198c-0.427,0.292-0.854,0.585-1.338,0.916c0.214,0.283,0.383,0.506,0.582,0.77
					C114.762,133.621,115.062,133.145,115.362,132.669z M97.641,225.887c-0.11,0.058-0.22,0.116-0.331,0.174
					c0.276,0.542,0.528,1.099,0.847,1.613c0.077,0.124,0.379,0.105,0.708,0.182C98.403,227.112,98.022,226.5,97.641,225.887z
					 M125.123,240.718c0.044-0.042,0.088-0.085,0.132-0.127c-0.113-0.295-0.227-0.589-0.367-0.952
					c0.469-0.016,0.85-0.029,1.381-0.047c-0.826-0.876-1.294-0.014-1.993,0.084C124.617,240.096,124.87,240.407,125.123,240.718z
					 M101.651,199.456c-0.026,0.486-0.044,0.806-0.073,1.355c0.524-0.533,0.897-0.912,1.271-1.292
					c-0.044-0.084-0.089-0.168-0.133-0.252C102.375,199.327,102.036,199.387,101.651,199.456z M104.389,226.076
					c0.689-0.317,1.28,0.276,1.848-0.464c-0.599-0.16-1.116-0.298-1.691-0.452C104.512,225.356,104.476,225.566,104.389,226.076z
					 M107.269,159.831c-0.468,0.283-0.861,0.608-0.795,1.238C107.405,160.978,107.625,160.619,107.269,159.831z M107.807,202.591
					c-1.365-0.283-1.079,0.818-1.539,1.205c0.061,0.061,0.123,0.121,0.184,0.182C106.858,203.563,107.263,203.147,107.807,202.591z
					 M131.555,210.986c0.46,0.908,0.46,0.908,1.238,0.938C132.521,211.067,132.422,210.992,131.555,210.986z M132.793,230.041
					c0.302,0.444,0.592,0.89,1.099,0.629c0.48-0.247,0.261-0.637-0.111-0.954C133.494,229.811,133.183,229.913,132.793,230.041z
					 M130.326,189.932c-0.597,0.111-1.194,0.222-2.009,0.373C129.232,190.866,129.792,190.486,130.326,189.932z M112.232,142.321
					c-0.142-0.021-0.283-0.042-0.425-0.064c-0.123,0.674-0.246,1.348-0.369,2.022c0.035,0.006,0.07,0.012,0.105,0.018
					C111.773,143.639,112.003,142.98,112.232,142.321z M138.29,252.445c-0.262,0.33-0.452,0.57-0.753,0.949
					c0.582-0.044,0.967-0.074,1.652-0.126C138.792,252.904,138.59,252.72,138.29,252.445z M109.046,224.207
					c-0.799-0.315-0.799-0.315-1.071,0.346C108.398,224.73,108.851,225.173,109.046,224.207z M131.041,176.163
					c-0.047,0.072-0.095,0.144-0.142,0.216c0.632,0.813,0.632,0.813,1.529,0.904C131.914,176.868,131.477,176.516,131.041,176.163z
					 M114.496,218.592c-0.088-0.013-0.177-0.026-0.265-0.039c-0.172,0.507-0.344,1.014-0.566,1.671
					C114.628,219.81,114.636,219.228,114.496,218.592z M103.575,220.648c0.498,0.859,0.606,0.859,1.444,0.04
					C104.529,220.674,104.114,220.663,103.575,220.648z M134.182,236.814c-0.588-0.259-0.959-0.421-1.408-0.619
					c-0.014,0.266-0.097,0.619-0.025,0.653C133.124,237.022,133.539,237.111,134.182,236.814z M131.656,188.396
					c0.046-0.074,0.092-0.148,0.138-0.222c-0.613-0.058-1.035-0.91-2.009-0.285C130.531,188.092,131.094,188.244,131.656,188.396z
					 M107.363,190.661c-0.641,0.044-1.107,0.075-1.687,0.115C106.492,191.304,106.727,191.292,107.363,190.661z M106.775,166.073
					c-1.267,0.671-1.267,0.671-1.059,1.48C106.053,167.082,106.37,166.64,106.775,166.073z M102.199,234.262
					c0.003-0.552,0.006-0.894,0.009-1.512c-0.394,0.476-0.593,0.717-0.819,0.99C101.64,233.901,101.822,234.018,102.199,234.262z
					 M121.765,143.133c-0.06,0.07-0.121,0.14-0.181,0.209c0.224,0.194,0.432,0.418,0.685,0.562c0.069,0.04,0.352-0.13,0.401-0.255
					c0.046-0.116-0.052-0.396-0.152-0.433C122.289,143.134,122.019,143.155,121.765,143.133z M104.061,149.597
					c0.24,0.633,0.402,1.062,0.618,1.633C105.054,150.399,104.896,149.956,104.061,149.597z M96.877,172.234
					c0.411,0.531,0.644,0.831,0.978,1.261c0.029-0.54,0.047-0.866,0.067-1.232C97.64,172.255,97.395,172.248,96.877,172.234z
					 M105.231,158.74c-0.013,0.097-0.027,0.194-0.04,0.29c0.491,0.436,0.98,0.247,1.719-0.166
					C106.187,158.811,105.709,158.775,105.231,158.74z M131.497,196.338c-0.643-0.034-1.147,0.048-1.028,1.013
					C130.909,196.918,131.203,196.628,131.497,196.338z M104.807,156.985c0.186-0.506,0.186-0.506-0.418-1.011
					C103.935,156.603,104.6,156.627,104.807,156.985z M125.77,185.042c-0.176-0.888-0.264-0.928-1.005-0.561
					C125.079,184.657,125.357,184.812,125.77,185.042z M131.085,258.684c0.41-0.091,0.82-0.182,1.437-0.32
					C131.815,257.852,131.435,258.177,131.085,258.684z M93.315,187.566c-0.097-0.832-0.097-0.832-0.843-0.953
					C92.811,186.996,93.063,187.281,93.315,187.566z M120.051,177.279c-0.071,1.104-0.071,1.104,0.812,1.256
					C120.615,178.151,120.398,177.815,120.051,177.279z M134.169,177.666c0.002,0.027,0.004,0.055,0.006,0.082
					c0.63,0.017,1.26,0.035,1.891,0.052c-0.001-0.064-0.002-0.128-0.003-0.192C135.432,177.627,134.801,177.646,134.169,177.666z
					 M102.306,174.715c-0.282,0.074-0.546,0.144-1.005,0.264c0.493,0.28,0.819,0.465,1.312,0.745
					C102.477,175.277,102.401,175.024,102.306,174.715z M112.113,246.3c0.533-0.152,0.875-0.25,1.217-0.348
					c-0.01-0.061-0.019-0.123-0.029-0.184c-0.299-0.087-0.597-0.173-0.933-0.27C112.288,245.747,112.233,245.92,112.113,246.3z
					 M98.275,245.359c-0.381,0.029-0.701,0.054-1.144,0.088C97.909,246.193,97.914,246.192,98.275,245.359z M129.137,180.596
					c0.112,0.786,0.691,0.721,1.257,0.688C129.975,181.055,129.556,180.825,129.137,180.596z M96.498,230.767
					c0.055,0.901,0.055,0.901,0.802,0.959C97.051,231.428,96.841,231.177,96.498,230.767z M99.38,216.035
					c-0.375-0.122-0.772-0.252-1.256-0.411c0.015,0.286,0.024,0.461,0.034,0.638C98.603,216.18,98.995,216.107,99.38,216.035z
					 M97.383,170.445c-0.062,0.052-0.124,0.104-0.186,0.157c0.211,0.39,0.254,0.941,1.184,0.946
					C97.951,171.072,97.667,170.759,97.383,170.445z M102.279,257.294c0.027-0.097,0.054-0.195,0.081-0.292
					c-0.312-0.436-0.798-0.193-1.266-0.038C101.49,257.074,101.885,257.184,102.279,257.294z M92.887,219.724
					c-0.287,0.408-0.451,0.867-0.164,1.273c0.094-0.01,0.187-0.02,0.281-0.029C92.965,220.553,92.926,220.138,92.887,219.724z
					 M109.153,220.57c-0.053-0.084-0.105-0.169-0.158-0.253c-0.52,0.056-0.588,0.555-0.661,1.057
					C108.607,221.106,108.88,220.838,109.153,220.57z M110.25,135.087c-0.371,0.212-0.743,0.424-1.218,0.695
					C109.811,136.083,109.99,135.51,110.25,135.087z M99.357,170.66c0.158-0.295,0.247-0.461,0.356-0.665
					c-0.416-0.012-0.725-0.02-1.236-0.034C98.839,170.249,99.052,170.419,99.357,170.66z M139.894,256.671
					c0.677-0.157,0.677-0.157,0.817-0.714C140.207,255.928,139.982,256.197,139.894,256.671z M137.244,256.114
					c0.436-0.187,0.721-0.308,1.006-0.43C137.849,255.484,137.414,255.135,137.244,256.114z M103.541,160.326
					c0.187-0.183,0.363-0.356,0.603-0.592c-0.405,0.019-0.718,0.034-1.242,0.058C103.211,160.05,103.368,160.181,103.541,160.326z
					 M108.624,158.802c0.469-0.589,0.469-0.589,0.379-1.129C108.895,158.013,108.283,158.128,108.624,158.802z M105.42,206.926
					c-0.897-0.225-0.897-0.225-1.47,0.61C104.468,207.321,104.836,207.169,105.42,206.926z M104.632,228.064
					c-0.057-0.676-0.057-0.676-0.629-0.842C104.252,227.556,104.442,227.81,104.632,228.064z M106.267,259.762
					c-0.034-0.042-0.068-0.083-0.102-0.125c-0.262,0.22-0.524,0.44-0.786,0.659c0.035,0.043,0.07,0.086,0.105,0.129
					C105.745,260.204,106.006,259.983,106.267,259.762z M96.955,193.728c-0.048,0.07-0.095,0.14-0.143,0.21
					c0.337,0.227,0.673,0.453,1.01,0.68c0.039-0.057,0.078-0.115,0.117-0.172C97.611,194.206,97.283,193.967,96.955,193.728z
					 M129.89,192.517c0.612,0.454,0.954,0.419,1.409-0.293C130.742,192.34,130.413,192.409,129.89,192.517z M123.462,206.839
					c-0.187-0.326-0.311-0.541-0.501-0.871C122.765,206.511,122.706,206.831,123.462,206.839z M101.873,163.755
					c-0.047-0.075-0.094-0.15-0.141-0.225c-0.288,0.029-0.662-0.051-0.536,0.519c0.013,0.058,0.068,0.105,0.122,0.184
					C101.507,164.069,101.69,163.912,101.873,163.755z M133.029,174.382c-0.108,0.072-0.216,0.145-0.324,0.218
					c0.192,0.263,0.383,0.526,0.575,0.789c0.082-0.057,0.164-0.114,0.246-0.171C133.361,174.939,133.195,174.661,133.029,174.382z
					 M136.999,168.72c0.371,0.036,0.741,0.072,1.112,0.107C137.805,168.383,137.413,168.465,136.999,168.72z M105.19,172.446
					c-0.533-0.348-0.533-0.348-0.789,0.271C104.688,172.618,104.909,172.542,105.19,172.446z M103.831,243.512
					c0.196-0.366,0.273-0.511,0.366-0.684c-0.254-0.104-0.44-0.18-0.79-0.323C103.567,242.883,103.655,243.093,103.831,243.512z
					 M122.609,190.868c0.233,0.366,0.474,0.666,0.951,0.109C123.156,190.93,122.882,190.899,122.609,190.868z M99.33,252.489
					c0.092-0.073,0.184-0.147,0.276-0.22c-0.161-0.209-0.319-0.422-0.495-0.619c-0.011-0.012-0.168,0.107-0.323,0.209
					C98.987,252.09,99.159,252.289,99.33,252.489z M130.362,158.341c0.847-0.014,0.847-0.014,1.165-0.641
					C131.18,157.89,130.893,158.048,130.362,158.341z M111.599,235.516c-0.438,0.183-0.661,0.276-0.927,0.386
					C111.117,236.381,111.358,236.29,111.599,235.516z M121.094,204.743c0.209,0.276,0.335,0.442,0.497,0.656
					c0.144-0.209,0.245-0.355,0.407-0.589C121.671,204.786,121.455,204.77,121.094,204.743z M128.911,200.264
					c-0.321-0.182-0.542-0.307-0.94-0.533C128.109,200.39,128.255,200.637,128.911,200.264z M128.973,212.687
					c-0.036,0.096-0.072,0.192-0.108,0.287c0.303,0.091,0.606,0.182,0.909,0.273c0.025-0.067,0.051-0.134,0.076-0.201
					C129.557,212.926,129.265,212.806,128.973,212.687z M131.114,217.851c0.074-0.056,0.148-0.112,0.222-0.168
					c-0.14-0.217-0.271-0.442-0.43-0.645c-0.024-0.031-0.171,0.034-0.289,0.062C130.801,217.378,130.958,217.615,131.114,217.851z
					 M89.532,200.064c0.106-0.148,0.182-0.243,0.176-0.248c-0.2-0.18-0.407-0.352-0.613-0.524c-0.06,0.065-0.119,0.131-0.179,0.196
					C89.118,199.676,89.32,199.865,89.532,200.064z M121.599,234.206c0.015-0.046,0.031-0.092,0.046-0.138
					c-0.217-0.085-0.434-0.169-0.651-0.254c-0.025,0.082-0.049,0.164-0.074,0.245C121.146,234.108,121.372,234.157,121.599,234.206z
					 M131.858,162.882c0.023,0.076,0.047,0.152,0.07,0.228c0.279-0.089,0.558-0.177,0.837-0.266
					c-0.027-0.088-0.055-0.177-0.082-0.265C132.408,162.68,132.133,162.781,131.858,162.882z M107.932,204.716
					c0.021,0.093,0.042,0.187,0.063,0.28c0.253-0.077,0.506-0.154,0.758-0.231c-0.013-0.057-0.026-0.113-0.039-0.17
					C108.454,204.635,108.193,204.676,107.932,204.716z M95.117,179.37c0.056-0.064,0.111-0.128,0.167-0.192
					c-0.183-0.152-0.366-0.303-0.549-0.455c-0.039,0.045-0.078,0.09-0.117,0.134C94.785,179.028,94.951,179.199,95.117,179.37z
					 M121.856,212.293c0.059-0.057,0.118-0.114,0.177-0.171c-0.146-0.216-0.291-0.432-0.437-0.648
					c-0.058,0.043-0.116,0.087-0.174,0.13C121.566,211.833,121.711,212.063,121.856,212.293z M133.147,246.967
					c-0.032,0.094-0.063,0.188-0.095,0.281c0.339-0.014,0.679-0.027,1.018-0.041c0.003-0.045,0.006-0.09,0.01-0.135
					C133.769,247.038,133.458,247.002,133.147,246.967z M108.75,188.698c0.546,0.227,0.755,0.041,0.951-0.161
					c0.031-0.032,0.006-0.12,0.007-0.227C109.443,188.417,109.203,188.515,108.75,188.698z M102.248,169.855
					c-0.029-0.091-0.058-0.182-0.087-0.274c-0.184,0.077-0.367,0.153-0.551,0.229c0.045,0.095,0.118,0.276,0.131,0.272
					C101.915,170.022,102.08,169.935,102.248,169.855z M103.071,201.955c-0.056,0.576,0.048,0.863,0.696,0.898
					C103.505,202.515,103.336,202.297,103.071,201.955z M123.886,154.024c-0.056,0.095-0.113,0.189-0.17,0.284
					c0.218,0.135,0.435,0.271,0.653,0.406c0.052-0.076,0.104-0.152,0.157-0.228C124.313,154.331,124.1,154.177,123.886,154.024z
					 M108.457,190.379c-0.822-0.038-0.822-0.038-0.756,0.506C107.89,190.758,108.061,190.644,108.457,190.379z M99.624,255.734
					c0.019,0.713,0.239,0.808,0.736,0.679C100.123,256.195,99.949,256.035,99.624,255.734z M129.357,214.894
					c-0.01,0.035-0.021,0.07-0.031,0.105c0.189,0.075,0.379,0.15,0.568,0.224c0.023-0.072,0.045-0.144,0.068-0.215
					C129.76,214.971,129.559,214.933,129.357,214.894z M132.405,170.547c0.036-0.081,0.072-0.163,0.108-0.244
					c-0.215-0.079-0.431-0.158-0.646-0.237c-0.018,0.039-0.035,0.078-0.053,0.117C132.012,170.304,132.209,170.425,132.405,170.547z
					 M105.679,173.858c0.031,0.079,0.061,0.159,0.092,0.238c0.203-0.092,0.406-0.183,0.609-0.274
					c-0.026-0.068-0.052-0.136-0.079-0.204C106.094,173.698,105.887,173.778,105.679,173.858z M97.823,255.71
					c0.009,0.063,0.018,0.126,0.026,0.19c0.196-0.031,0.393-0.057,0.586-0.101c0.014-0.003,0.004-0.128,0.005-0.197
					C98.235,255.639,98.029,255.674,97.823,255.71z M120.217,245.965c-0.007,0.059-0.015,0.118-0.022,0.176
					c0.189-0.004,0.378-0.008,0.567-0.013c0.001-0.038,0.001-0.077,0.001-0.115C120.581,245.997,120.399,245.981,120.217,245.965z
					 M111.208,194.874c0.065,0.052,0.13,0.105,0.194,0.157c0.108-0.222,0.216-0.445,0.323-0.667
					c-0.061-0.029-0.122-0.059-0.183-0.088C111.431,194.475,111.32,194.674,111.208,194.874z M128.054,153.229
					c-0.495-0.466-0.495-0.466-0.787-0.022C127.529,153.215,127.759,153.221,128.054,153.229z M104.113,200.464
					c-0.166,0.231-0.309,0.344-0.307,0.451c0.002,0.098,0.16,0.188,0.25,0.282c0.072-0.071,0.199-0.14,0.203-0.213
					C104.266,200.859,104.195,200.733,104.113,200.464z M100.79,188.585c-0.083,0.026-0.165,0.052-0.248,0.078
					c0.075,0.225,0.15,0.449,0.225,0.674c0.065-0.02,0.13-0.041,0.195-0.061C100.905,189.046,100.847,188.816,100.79,188.585z
					 M136.644,232.296c-0.227-0.103-0.453-0.206-0.836-0.381C135.986,232.528,136.275,232.496,136.644,232.296z M108.096,232.841
					c0.208-0.166,0.393-0.314,0.613-0.489C108.21,232.194,107.989,232.298,108.096,232.841z M103.384,157.824
					c-0.077,0.062-0.153,0.124-0.23,0.186c0.105,0.148,0.211,0.297,0.317,0.445c0.08-0.07,0.237-0.186,0.228-0.203
					C103.61,158.1,103.493,157.965,103.384,157.824z M130.941,183.564c0.019-0.089,0.038-0.178,0.057-0.266
					c-0.218-0.065-0.437-0.13-0.655-0.194c-0.025,0.071-0.051,0.142-0.076,0.213C130.491,183.399,130.716,183.482,130.941,183.564z
					 M102.516,182.566c0.001,0.044,0.003,0.089,0.004,0.133c0.241-0.008,0.482-0.016,0.724-0.024
					c-0.002-0.054-0.003-0.109-0.005-0.163C102.998,182.53,102.757,182.548,102.516,182.566z M128.715,180.456
					c-0.015-0.056-0.031-0.112-0.046-0.169c-0.213,0.059-0.426,0.118-0.639,0.177c0.018,0.065,0.036,0.13,0.053,0.196
					C128.294,180.592,128.504,180.524,128.715,180.456z"/>
				<path d="M126.304,278.071c-0.302-0.583-0.551-1.063-0.825-1.592c-0.261,0.156-0.513,0.306-0.738,0.441
					c-0.486-0.076-0.637-0.448-0.614-1.286c0.705-0.291,1.358-0.561,2.087-0.861c0.151,0.412,0.301,0.818,0.46,1.251
					c0.33-0.012,0.665-0.024,0.964-0.035c0.408,0.34,0.794,0.661,1.232,1.025c-0.199,0.109-0.357,0.263-0.522,0.276
					C127.635,277.349,126.948,277.464,126.304,278.071z"/>
				<path d="M145.209,224.549c0.835-0.524,1.671-1.048,2.635-1.653c0.123,0.783,0.242,1.406,0.313,2.036
					c0.042,0.372-0.131,0.808-0.529,0.714c-0.769-0.181-1.302,0.27-1.915,0.541c-0.167,0.074-0.347,0.116-0.549,0.182
					c-0.422-0.669-0.053-1.263,0.091-1.861C145.254,224.508,145.209,224.549,145.209,224.549z"/>
				<path d="M81.256,239.231c1.007-0.014,1.445,0.49,1.65,1.329c0.192,0.792,0.614,1.524,0.593,2.441
					c-0.821,0.116-1.386-0.139-1.704-0.841C81.388,241.264,81.055,240.344,81.256,239.231z"/>
				<path d="M144.914,221.223c-0.505-1.446,0.059-2.102,1.933-2.375c0.455,1.118,0.267,1.589-0.792,1.97
					C145.699,220.946,145.342,221.071,144.914,221.223z"/>
				<path d="M130.047,148.495c0.209-0.11,0.418-0.219,0.626-0.329c0.317-0.128,0.632-0.259,0.95-0.383
					c1.003-0.39,1.424-0.186,1.831,0.881C132.25,149.506,131.123,149.341,130.047,148.495z"/>
				<path d="M149.042,231.324c0.456,0.988,0.31,1.373-0.567,1.707c-0.383,0.146-0.741,0.371-1.129,0.496
					c-0.212,0.068-0.464,0-0.715-0.007C146.95,232.067,147.423,231.644,149.042,231.324z"/>
				<path d="M140.197,211.027c0.477-0.312,0.958-0.617,1.429-0.937c0.373-0.254,0.734-0.527,1.19-0.7
					c-0.549,1.572-1.978,2.412-2.963,3.748c-0.396-0.632-0.496-1.097,0.058-1.58c0.157-0.137,0.223-0.378,0.33-0.571
					C140.241,210.986,140.197,211.027,140.197,211.027z"/>
				<path d="M88.985,229.877c-1.34,0.979-2.128,0.779-3.025-0.675c0.238-0.105,0.513-0.339,0.681-0.281
					C87.409,229.182,88.147,229.526,88.985,229.877z"/>
				<path d="M145.108,254.249c-0.284-0.197-0.577-0.4-0.914-0.633c0.238-0.239,0.535-0.438,0.682-0.715
					c0.13-0.245,0.091-0.576,0.129-0.881c0.368-0.077,0.699-0.184,1.031-0.2c0.147-0.007,0.338,0.139,0.431,0.271
					c0.056,0.081-0.011,0.376-0.067,0.392c-0.845,0.228-0.821,1.011-1.087,1.609C145.286,254.15,145.197,254.182,145.108,254.249z"
					/>
				<path d="M133.018,276.73c-1.012,1.559-2.275,1.933-3.73,1.117c0.245-0.159,0.505-0.44,0.633-0.392
					c0.948,0.36,1.704-0.16,2.502-0.522C132.581,276.862,132.752,276.82,133.018,276.73z"/>
				<path d="M85.627,235.988c-1.183-0.16-1.955-0.499-2.293-1.498c0.414-0.502,0.774-0.419,1.133-0.018
					c0.222,0.248,0.428,0.564,0.888,0.167C85.44,235.061,85.518,235.447,85.627,235.988z"/>
				<path d="M85.693,210.37c0.128-0.767-0.601-0.884-0.974-1.243c-0.38-0.365-0.826-0.639-0.776-1.456
					c0.849,0.447,1.61,0.848,2.366,1.246c-0.244,0.577-0.43,1.016-0.615,1.455C85.693,210.372,85.693,210.37,85.693,210.37z"/>
				<path d="M150.719,237.798c0.5,0.306,0.879,0.643,0.601,1.2c-0.291,0.583-0.232,1.5-1.342,1.566
					C150.088,239.592,150.166,238.683,150.719,237.798z"/>
				<path d="M87.067,224.962c-0.026,0.485-0.047,0.86-0.067,1.239c-1.385-0.238-1.67-0.558-1.654-1.975
					C85.955,224.486,86.514,224.725,87.067,224.962z"/>
				<path d="M138.192,163.618c-0.056,0.238-0.112,0.477-0.128,0.547c0.299,0.373,0.718,0.656,0.724,0.957
					c0.009,0.469,0.34,1.084-0.323,1.462c-0.903-0.251-0.621-0.954-0.515-1.627c-0.207-0.078-0.399-0.151-0.627-0.237
					c0.248-0.386,0.492-0.765,0.735-1.144C138.103,163.591,138.148,163.605,138.192,163.618z"/>
				<path d="M97.173,151.772c0.818,0.95-0.006,1.868,0.252,2.873C96.254,153.757,96.223,153.204,97.173,151.772z"/>
				<path d="M96.139,159.033c0.742,0.472,0.937,1.282,1.352,1.974C96.261,161.208,95.647,160.301,96.139,159.033z"/>
				<path d="M102.368,145.878c-0.307-0.63-0.558-1.144-0.86-1.763C103.304,144.587,103.428,144.809,102.368,145.878z"/>
				<path d="M108.96,129.434c0.592-0.308,0.986-0.513,1.445-0.752c0.168,0.229,0.309,0.421,0.454,0.62
					C109.978,129.825,109.844,129.843,108.96,129.434z"/>
				<path d="M137.772,160.537c-0.862,0.55-1.5,0.733-2.309,0.365C136.18,160.589,136.802,160.33,137.772,160.537z"/>
				<path d="M84.902,249.614c0.548,0.206,1.021,0.448,1.18,1.069C84.954,250.941,84.757,250.77,84.902,249.614z"/>
				<path d="M145.933,209.245c-0.707,0.845-1.209,0.059-1.789,0.251C144.678,208.553,145.221,209.1,145.933,209.245z"/>
				<path d="M85.168,220.31c0.786-0.375,1.031-0.192,1.49,1.005C86.02,221.171,85.677,220.74,85.168,220.31z"/>
				<path d="M140.039,160.323c-0.489,0.152-0.9,0.28-1.47,0.458c0.317-0.444,0.487-0.735,0.708-0.98
					C139.604,159.44,139.818,159.558,140.039,160.323z"/>
				<path d="M135.811,162.148c0.582-0.317,1.01-0.551,1.467-0.8C137.299,162.252,137.25,162.282,135.811,162.148z"/>
				<path d="M102.855,279.509c0.544-0.141,0.995-0.257,1.517-0.392C103.993,280.028,103.79,280.08,102.855,279.509z"/>
				<path d="M114.168,124.023c-0.893-0.155-0.925-0.975-1.163-1.636c0.38,0.553,0.76,1.106,1.14,1.659L114.168,124.023z"/>
				<path d="M128.57,135.856c-0.381-0.25-0.582-0.382-0.913-0.6c0.361-0.181,0.597-0.3,0.972-0.488
					C128.607,135.163,128.594,135.42,128.57,135.856z"/>
			</g>
		</g>
	</g>
</svg>