<?xml version="1.0" encoding="utf-8"?>
<svg version="1.1" xmlns="http://www.w3.org/2000/svg" xmlns:xlink="http://www.w3.org/1999/xlink" xml:space="preserve" viewBox="24 350 209 39">
<g>
		<g>
			<g>
				<path d="M124.839,374.776c5.444-6.473,15.358-7.69,23.299-7.535c8.39,0.164,16.582,2.161,24.788,3.7
					c7.361,1.381,14.788,2.368,22.253,2.967c7.229,0.58,14.754,0.958,21.774-1.226c4.755-1.479,10.201-4.257,11.283-9.606
					c0.724-3.58-1.287-7.804-5.321-8.111c-2.698-0.206-5.395,1.961-3.691,4.697c2.076,3.334,5.775,1.014,7.012-1.675
					c0.175-0.38,0.167-0.814-0.145-1.126c-2.078-2.075-4.861-1.732-6.502,0.65c-0.285,0.413-0.075,1.033,0.333,1.271
					c1.481,0.864,2.353,0.854,3.898,0.144c0.576-0.264,0.551-1.055,0.188-1.46c-1.064-1.187-2.081-1.352-3.406-0.384
					c-0.454,0.332-0.671,1.023-0.188,1.459c1.169,1.055,1.968,1.294,3.186,0.288c0.245-0.203,0.326-0.611,0.239-0.904
					c-0.059-0.201-0.119-0.403-0.178-0.604c-0.381,0.381-0.762,0.762-1.143,1.143c1.12,0.341,0.981,0.324,2.152,0.281
					c1.192-0.044,1.198-1.903,0-1.859c-0.552-0.071-1.105-0.143-1.658-0.214c-0.674-0.205-1.341,0.473-1.143,1.143
					c-0.047-0.196-0.093-0.392-0.14-0.588c-0.063,0.486-0.125,0.973-0.188,1.46c0.385,0.031,0.769,0.062,1.154,0.094
					c0.063-0.487,0.125-0.973,0.188-1.46c-0.674-0.048-1.348-0.096-2.022-0.144c0.111,0.424,0.222,0.848,0.333,1.271
					c1.347-0.136,2.693-0.272,4.04-0.408c0.358,1.745,0.716,3.49,1.074,5.235c-0.446,1.871-2.351,3.822-3.894,4.889
					c-2.217,1.533-4.881,2.49-7.474,3.153c-4.839,1.238-9.891,1.299-14.852,1.061c-10.08-0.484-20.09-1.932-29.984-3.876
					c-13.925-2.736-35.839-7.811-46.578,4.957C122.76,374.372,124.068,375.693,124.839,374.776L124.839,374.776z"/>
			</g>
			<g>
				<path d="M172.979,370.645c4.445,0.172,9.678-0.084,11.961-4.59c1.014-2,2.281-8.178-1.795-7.894
					c-3.167,0.221-2.03,5.051,0.811,4.245c2.437-0.691,0.772-4.262-1.538-2.831c-1.015,0.628-0.083,2.237,0.938,1.605
					c1.255-0.777,0.419,2.842,0.314,3.14c-0.526,1.488-1.44,2.643-2.823,3.41c-2.384,1.322-5.239,1.159-7.868,1.057
					C171.783,368.74,171.785,370.598,172.979,370.645L172.979,370.645z"/>
			</g>
			<g>
				<path d="M196.614,374.074c2.52,0.248,5.224,0.519,7.432,1.872c0.981,0.601,1.88,1.402,2.468,2.401
					c0.705,1.198,1.199,5.761-1.659,4.08c-1.033-0.608-1.97,0.998-0.938,1.605c2.541,1.495,3.681-2.888,0.928-3.271
					c-3.096-0.431-2.573,4.712,0.858,4.155c3.651-0.593,3.994-4.85,2.415-7.506c-2.388-4.017-7.253-4.776-11.505-5.194
					C195.425,372.099,195.433,373.958,196.614,374.074L196.614,374.074z"/>
			</g>
			<g>
				<path d="M152.705,367.52c1.885,0.486,3.705,1.32,5.006,2.819c0.686,0.79,1.223,1.703,1.521,2.711
					c0.125,0.424,0.351,1.079,0.256,1.522c0.097,0.272-0.006,0.435-0.308,0.49c-0.408,0.387-0.662,0.19-0.762-0.591
					c-1.029-0.615-1.965,0.991-0.938,1.605c2.371,1.417,3.252-2.507,0.888-2.928c-2.57-0.458-2.571,3.122-0.402,3.81
					c3.329,1.056,3.749-2.343,2.973-4.69c-1.154-3.494-4.305-5.655-7.741-6.54C152.04,365.429,151.545,367.221,152.705,367.52
					L152.705,367.52z"/>
			</g>
			<g>
				<path d="M199.549,372.897c2.392,0,2.396-3.717,0-3.717C197.158,369.18,197.154,372.897,199.549,372.897L199.549,372.897z"/>
			</g>
			<g>
				<path d="M176.695,375.069c2.392,0,2.396-3.717,0-3.717C174.303,371.352,174.299,375.069,176.695,375.069L176.695,375.069z"/>
			</g>
			<g>
				<path d="M148.647,365.625c2.392,0,2.396-3.717,0-3.717C146.255,361.909,146.251,365.625,148.647,365.625L148.647,365.625z"/>
			</g>
			<g>
				<path d="M216.59,375.978c2.392,0,2.396-3.717,0-3.717C214.198,372.26,214.194,375.978,216.59,375.978L216.59,375.978z"/>
			</g>
		</g>
		<g>
			<g>
				<path d="M133.297,373.462c-10.74-12.769-32.648-7.694-46.578-4.957c-9.637,1.894-19.368,3.286-29.181,3.83
					c-4.96,0.275-10.019,0.292-14.889-0.821c-2.628-0.601-5.363-1.506-7.632-2.977c-1.587-1.028-2.577-2.013-3.546-3.647
					c-1.217-1.229-1.357-2.64-0.419-4.231c-0.256-3.16,1.269-3.897,4.577-2.21c0.111-0.424,0.222-0.848,0.333-1.271
					c-0.674,0.048-1.348,0.096-2.022,0.144c0.063,0.486,0.125,0.973,0.188,1.46c0.385-0.031,0.769-0.062,1.154-0.094
					c-0.063-0.487-0.125-0.973-0.188-1.46c-0.047,0.196-0.093,0.392-0.14,0.588c0.198-0.67-0.469-1.348-1.143-1.143
					c-0.553,0.071-1.105,0.143-1.658,0.214c-1.196-0.044-1.194,1.815,0,1.859c1.17,0.043,1.031,0.06,2.152-0.281
					c-0.381-0.381-0.762-0.762-1.143-1.143c-0.059,0.201-0.119,0.403-0.178,0.604c-0.086,0.293-0.006,0.701,0.239,0.904
					c1.214,1.003,2.03,0.756,3.186-0.288c0.483-0.436,0.266-1.128-0.188-1.459c-1.325-0.968-2.341-0.803-3.406,0.384
					c-0.363,0.405-0.388,1.195,0.188,1.46c1.545,0.71,2.417,0.719,3.898-0.144c0.41-0.239,0.619-0.857,0.333-1.271
					c-1.645-2.388-4.429-2.721-6.502-0.65c-0.315,0.315-0.32,0.746-0.145,1.126c1.157,2.516,4.432,4.883,6.751,2.073
					c2.193-2.658-0.451-5.259-3.306-5.111c-3.744,0.194-5.966,4.013-5.582,7.434c0.643,5.73,6.523,8.777,11.42,10.301
					c6.747,2.099,13.964,1.822,20.921,1.291c7.469-0.571,14.909-1.519,22.275-2.879c8.212-1.516,16.389-3.539,24.771-3.825
					c8.174-0.279,18.523,0.819,24.146,7.505C132.754,375.693,134.063,374.372,133.297,373.462L133.297,373.462z"/>
			</g>
			<g>
				<path d="M83.843,368.786c-2.629,0.102-5.483,0.266-7.868-1.057c-1.383-0.767-2.296-1.922-2.823-3.41
					c-0.105-0.298-0.941-3.917,0.314-3.14c1.02,0.631,1.954-0.976,0.938-1.605c-2.227-1.379-3.978,1.974-1.661,2.815
					c2.823,1.024,4.212-3.986,0.935-4.229c-3.914-0.29-2.878,5.563-1.958,7.564c2.188,4.764,7.528,5.097,12.123,4.919
					C85.035,370.598,85.041,368.74,83.843,368.786L83.843,368.786z"/>
			</g>
			<g>
				<path d="M60.208,372.215c-4.151,0.408-8.864,1.118-11.338,4.916c-1.732,2.659-1.563,7.166,2.249,7.785
					c3.023,0.491,4.249-4.018,1.157-4.138c-3.005-0.116-2.101,4.861,0.63,3.254c1.03-0.606,0.096-2.213-0.938-1.605
					c-0.597-0.006-1.194-0.011-1.791-0.017c-0.197-0.579-0.393-1.158-0.59-1.737c-0.034-0.652,0.255-1.479,0.555-2.048
					c0.592-1.123,1.563-2.024,2.635-2.68c2.209-1.351,4.912-1.625,7.431-1.872C61.388,373.958,61.4,372.098,60.208,372.215
					L60.208,372.215z"/>
			</g>
			<g>
				<path d="M103.624,365.728c-3.436,0.885-6.586,3.046-7.741,6.54c-0.775,2.345-0.36,5.747,2.973,4.69
					c2.164-0.687,2.171-4.268-0.402-3.81c-2.351,0.418-1.495,4.352,0.888,2.928c1.026-0.613,0.092-2.22-0.938-1.605
					c-0.322,0.192-0.526,1.349-1.08,0.401c-0.17-0.291,0.109-1.251,0.181-1.534c0.284-1.111,0.848-2.14,1.606-2.998
					c1.318-1.492,3.11-2.331,5.006-2.819C105.275,367.222,104.784,365.429,103.624,365.728L103.624,365.728z"/>
			</g>
			<g>
				<path d="M57.273,372.897c2.392,0,2.396-3.717,0-3.717C54.881,369.18,54.877,372.897,57.273,372.897L57.273,372.897z"/>
			</g>
			<g>
				<path d="M80.127,375.069c2.392,0,2.396-3.717,0-3.717C77.735,371.352,77.731,375.069,80.127,375.069L80.127,375.069z"/>
			</g>
			<g>
				<path d="M108.176,365.625c2.392,0,2.396-3.717,0-3.717C105.784,361.909,105.78,365.625,108.176,365.625L108.176,365.625z"/>
			</g>
			<g>
				<path d="M39.547,375.978c2.392,0,2.396-3.717,0-3.717C37.155,372.26,37.151,375.978,39.547,375.978L39.547,375.978z"/>
			</g>
		</g>
	</g>
</svg>
