<?xml version="1.0" encoding="utf-8"?>
<svg version="1.1" xmlns="http://www.w3.org/2000/svg" xmlns:xlink="http://www.w3.org/1999/xlink" xml:space="preserve" viewBox="22 299 213 41">
<g>
		<g>
			<g>
				<path d="M125.595,333.935c14.806-9.069,33.432-13.419,50.586-15.046c16.894-1.602,34.085,0.602,49.072,8.913
					c1.047,0.581,1.985-1.024,0.938-1.605c-15.257-8.46-32.799-10.798-50.01-9.166c-17.529,1.662-36.381,6.024-51.524,15.299
					C123.639,332.954,124.571,334.562,125.595,333.935L125.595,333.935z"/>
			</g>
			<g>
				<path d="M142.265,325.18c-0.373-3.397,2.855-7.171,5.365-9.07c0.942-0.713,0.017-2.327-0.938-1.605
					c-3.011,2.279-6.735,6.581-6.285,10.675C140.536,326.356,142.396,326.369,142.265,325.18L142.265,325.18z"/>
			</g>
			<g>
				<path d="M158.788,321.433c2.055,0.568,4.002,1.37,5.823,2.488c0.92,0.565,1.793,1.196,2.62,1.892
					c0.538,0.453,1.804,1.3,2.062,1.953c0.142-0.35,0.285-0.7,0.427-1.049c-0.027,0.014-0.053,0.028-0.079,0.041
					c0.375,0.049,0.751,0.097,1.126,0.145c-0.016-0.018-0.032-0.036-0.049-0.054c-0.798-0.894-2.109,0.424-1.314,1.314
					c0.016,0.018,0.032,0.036,0.049,0.055c0.283,0.317,0.773,0.328,1.126,0.145c0.026-0.014,0.053-0.027,0.08-0.041
					c0.331-0.172,0.571-0.686,0.427-1.049c-0.715-1.808-3.095-3.326-4.66-4.392c-2.182-1.486-4.605-2.536-7.143-3.238
					C158.128,319.321,157.635,321.114,158.788,321.433L158.788,321.433z"/>
			</g>
			<g>
				<path d="M171.383,318.755c3.016-3.574,6.814-6.167,11.264-7.615c1.133-0.368,0.648-2.164-0.494-1.792
					c-4.745,1.544-8.863,4.277-12.084,8.093C169.302,318.349,170.61,319.67,171.383,318.755L171.383,318.755z"/>
			</g>
			<g>
				<path d="M187.893,318.801c4.748,0.999,7.759,5.24,10.811,8.672c0.797,0.896,2.107-0.423,1.314-1.314
					c-3.286-3.695-6.521-8.075-11.632-9.15C187.22,316.763,186.721,318.555,187.893,318.801L187.893,318.801z"/>
			</g>
			<g>
				<path d="M202.478,319.178c4.267-2.076,8.872-2.752,13.554-1.968c1.17,0.196,1.673-1.595,0.494-1.792
					c-5.212-0.873-10.233-0.158-14.986,2.155C200.464,318.096,201.406,319.7,202.478,319.178L202.478,319.178z"/>
			</g>
			<g>
				<path d="M213.429,322.527c1.06,1.208,2.415,1.782,3.288,3.214c0.96,1.577,1.489,3.319,1.738,5.139
					c0.161,1.18,1.952,0.677,1.792-0.494c-0.27-1.974-0.893-3.872-1.925-5.582c-0.373-0.618-0.801-1.247-1.314-1.759
					c-0.696-0.694-1.613-1.09-2.264-1.831C213.953,320.312,212.643,321.631,213.429,322.527L213.429,322.527z"/>
			</g>
			<g>
				<path d="M136.715,328.382c4.3,0.476,8.39,1.684,12.266,3.603c1.068,0.529,2.011-1.074,0.938-1.605
					c-4.18-2.069-8.569-3.344-13.204-3.857C135.528,326.392,135.537,328.251,136.715,328.382L136.715,328.382z"/>
			</g>
			<path d="M146.401,315.878c-0.036-1.251-0.072-2.501-0.107-3.752c-0.025-0.875,0.036-1.918,0.785-2.372
				c0.69-0.419,1.615-0.07,2.196,0.49c0.582,0.56,0.959,1.301,1.516,1.885c0.468,0.491,1.051,0.859,1.533,1.337
				c0.482,0.478,0.871,1.125,0.79,1.799c-0.07,0.584-0.495,1.085-1.016,1.357c-0.521,0.272-1.127,0.341-1.714,0.317
				c-1.426-0.057-2.824-0.65-3.857-1.635"/>
			<path d="M148.153,330.665c0.379,0.753,0.64,1.565,0.771,2.397c0.091,0.578,0.12,1.168,0.278,1.732
				c0.158,0.564,0.468,1.116,0.978,1.404c0.673,0.381,1.62,0.167,2.064-0.467c0.484-0.692,0.358-1.675,0.83-2.376
				c0.139-0.206,0.325-0.378,0.458-0.588c0.404-0.639,0.222-1.535-0.298-2.085c-0.519-0.549-1.301-0.788-2.057-0.803
				c-0.756-0.015-1.5,0.169-2.233,0.352"/>
			<path d="M168.917,326.559c-0.012,1.548-0.008,3.096,0.01,4.644c0.004,0.334,0.025,0.707,0.267,0.937
				c0.138,0.131,0.327,0.193,0.514,0.227c0.619,0.115,1.282-0.034,1.792-0.404c0.611-0.444,0.978-1.161,1.583-1.614
				c0.392-0.294,0.873-0.466,1.225-0.807c0.641-0.621,0.655-1.773,0.028-2.409c-0.303-0.307-0.713-0.488-1.13-0.597
				c-0.539-0.14-1.101-0.17-1.657-0.2c-0.681-0.036-1.362-0.072-2.043-0.108"/>
			<path d="M180.922,310.76c0.146-1.47,0.292-2.94,0.438-4.409c0.042-0.423,0.087-0.856,0.27-1.24
				c0.417-0.872,1.591-1.283,2.461-0.862c0.632,0.306,1.037,0.946,1.298,1.598c0.262,0.652,0.415,1.347,0.725,1.977
				c0.361,0.733,0.923,1.355,1.271,2.095s0.434,1.704-0.116,2.308c-0.564,0.62-1.548,0.609-2.356,0.385
				c-1.348-0.373-2.561-1.212-3.386-2.342"/>
			<path d="M198.971,326.386c-0.289,1.823-0.444,3.667-0.462,5.513c-0.002,0.209,0,0.426,0.096,0.612
				c0.089,0.172,0.25,0.297,0.421,0.39c0.758,0.416,1.787,0.258,2.385-0.366c0.289-0.302,0.475-0.686,0.694-1.042
				c0.354-0.577,0.805-1.095,1.327-1.525c0.357-0.293,0.755-0.556,1.001-0.947c0.529-0.843,0.101-2.058-0.749-2.578
				c-1.243-0.761-2.85-0.222-4.295-0.411"/>
			<path d="M215.267,316.105c0.352-0.755,0.477-1.593,0.692-2.398c0.215-0.805,0.551-1.624,1.203-2.143
				c0.652-0.519,1.692-0.624,2.286-0.039c0.321,0.316,0.462,0.769,0.555,1.209c0.144,0.681,0.199,1.381,0.165,2.076
				c-0.025,0.511-0.099,1.021-0.066,1.531c0.067,1.048,0.555,2.201-0.026,3.075c-0.422,0.636-1.319,0.844-2.043,0.604
				c-0.724-0.241-1.28-0.85-1.623-1.531c-0.344-0.682-0.503-1.439-0.659-2.186"/>
			<path d="M218.715,330.673c-0.206,0.91-0.566,1.785-1.061,2.576c-0.176,0.281-0.37,0.555-0.484,0.866
				c-0.157,0.429-0.149,0.898-0.139,1.355c0.002,0.114,0.006,0.232,0.055,0.334c0.095,0.197,0.329,0.281,0.543,0.324
				c0.535,0.109,1.096,0.085,1.619-0.07c0.882-0.26,1.627-0.87,2.505-1.142c0.365-0.113,0.753-0.168,1.086-0.354
				c0.728-0.406,1.006-1.389,0.756-2.184c-0.25-0.796-0.93-1.4-1.689-1.746c-0.759-0.345-1.599-0.465-2.427-0.562"/>
			<path d="M224.611,326.614c0.412,1.01,0.823,2.02,1.235,3.03c0.228,0.559,0.483,1.152,0.988,1.481
				c0.489,0.319,1.113,0.325,1.697,0.298c0.345-0.016,0.704-0.043,1.003-0.215c0.674-0.388,0.769-1.306,0.786-2.084
				c0.019-0.879,0.038-1.759,0.057-2.638c0.018-0.806-0.055-1.778-0.765-2.161c-0.425-0.229-0.948-0.156-1.409-0.014
				c-1.164,0.359-2.197,1.131-2.869,2.147"/>
		</g>
		<g>
			<g>
				<path d="M132.131,332.33c-15.144-9.276-33.993-13.637-51.524-15.299c-17.211-1.632-34.753,0.706-50.01,9.166
					c-1.046,0.58-0.11,2.186,0.938,1.605c14.986-8.31,32.179-10.514,49.072-8.913c17.155,1.627,35.781,5.977,50.586,15.046
					C132.215,334.562,133.15,332.955,132.131,332.33L132.131,332.33z"/>
			</g>
			<g>
				<path d="M116.381,325.18c0.45-4.094-3.273-8.395-6.285-10.675c-0.954-0.722-1.881,0.891-0.938,1.605
					c2.509,1.9,5.738,5.673,5.365,9.07C114.392,326.367,116.251,326.358,116.381,325.18L116.381,325.18z"/>
			</g>
			<g>
				<path d="M97.506,319.641c-2.54,0.702-4.957,1.757-7.143,3.238c-1.556,1.054-3.948,2.592-4.66,4.392
					c-0.143,0.361,0.092,0.875,0.427,1.049c0.027,0.014,0.053,0.027,0.08,0.041c0.351,0.182,0.845,0.17,1.126-0.145
					c0.016-0.018,0.032-0.036,0.049-0.055c0.794-0.89-0.516-2.209-1.314-1.314c-0.016,0.018-0.032,0.036-0.049,0.054
					c0.375-0.048,0.751-0.097,1.126-0.145c-0.027-0.014-0.053-0.027-0.08-0.041c0.142,0.35,0.285,0.7,0.427,1.049
					c0.229-0.58,1.329-1.317,1.798-1.728c0.899-0.787,1.866-1.492,2.884-2.117c1.82-1.117,3.768-1.92,5.823-2.488
					C99.151,321.114,98.662,319.321,97.506,319.641L97.506,319.641z"/>
			</g>
			<g>
				<path d="M86.719,317.44c-3.22-3.816-7.339-6.549-12.084-8.093c-1.14-0.371-1.628,1.423-0.494,1.792
					c4.451,1.448,8.248,4.042,11.264,7.615C86.177,319.67,87.486,318.35,86.719,317.44L86.719,317.44z"/>
			</g>
			<g>
				<path d="M68.401,317.009c-5.11,1.075-8.346,5.456-11.632,9.15c-0.792,0.891,0.517,2.21,1.314,1.314
					c3.054-3.434,6.058-7.672,10.811-8.672C70.065,318.555,69.57,316.763,68.401,317.009L68.401,317.009z"/>
			</g>
			<g>
				<path d="M55.248,317.573c-4.753-2.313-9.773-3.028-14.986-2.155c-1.177,0.197-0.678,1.988,0.494,1.792
					c4.683-0.785,9.285-0.11,13.554,1.968C55.381,319.699,56.324,318.097,55.248,317.573L55.248,317.573z"/>
			</g>
			<g>
				<path d="M42.045,321.213c-0.601,0.684-1.425,1.067-2.093,1.676c-0.594,0.542-1.07,1.23-1.485,1.914
					c-1.035,1.706-1.656,3.612-1.925,5.582c-0.16,1.17,1.631,1.676,1.792,0.494c0.249-1.821,0.776-3.56,1.737-5.139
					c0.869-1.427,2.23-2.009,3.288-3.214C44.145,321.632,42.835,320.312,42.045,321.213L42.045,321.213z"/>
			</g>
			<g>
				<path d="M120.073,326.523c-4.636,0.513-9.025,1.788-13.204,3.857c-1.072,0.531-0.131,2.134,0.938,1.605
					c3.876-1.919,7.968-3.128,12.266-3.603C121.249,328.252,121.262,326.392,120.073,326.523L120.073,326.523z"/>
			</g>
			<path d="M110.387,315.878c0.036-1.251,0.071-2.501,0.107-3.752c0.025-0.875-0.036-1.918-0.785-2.372
				c-0.69-0.419-1.614-0.07-2.196,0.49c-0.582,0.56-0.959,1.301-1.517,1.885c-0.468,0.491-1.051,0.859-1.533,1.337
				s-0.871,1.125-0.79,1.799c0.07,0.584,0.495,1.085,1.016,1.357c0.521,0.272,1.127,0.341,1.714,0.317
				c1.426-0.057,2.824-0.65,3.857-1.635"/>
			<path d="M108.635,330.665c-0.379,0.753-0.64,1.565-0.771,2.397c-0.091,0.578-0.12,1.168-0.278,1.732
				c-0.158,0.564-0.468,1.116-0.978,1.404c-0.673,0.381-1.62,0.167-2.064-0.467c-0.484-0.692-0.358-1.675-0.83-2.376
				c-0.139-0.206-0.325-0.378-0.458-0.588c-0.405-0.639-0.222-1.535,0.298-2.085c0.519-0.549,1.301-0.788,2.057-0.803
				c0.756-0.015,1.5,0.169,2.233,0.352"/>
			<path d="M87.871,326.559c0.011,1.548,0.008,3.096-0.01,4.644c-0.004,0.334-0.024,0.707-0.267,0.937
				c-0.138,0.131-0.327,0.193-0.513,0.227c-0.619,0.115-1.283-0.034-1.792-0.404c-0.611-0.444-0.978-1.161-1.583-1.614
				c-0.392-0.294-0.873-0.466-1.225-0.807c-0.642-0.621-0.655-1.773-0.028-2.409c0.303-0.307,0.713-0.488,1.13-0.597
				c0.539-0.14,1.101-0.17,1.657-0.2c0.681-0.036,1.362-0.072,2.043-0.108"/>
			<path d="M75.865,310.76c-0.146-1.47-0.292-2.94-0.438-4.409c-0.042-0.423-0.087-0.856-0.27-1.24
				c-0.417-0.872-1.591-1.283-2.461-0.862c-0.632,0.306-1.037,0.946-1.298,1.598c-0.261,0.652-0.415,1.347-0.725,1.977
				c-0.361,0.733-0.923,1.355-1.271,2.095c-0.348,0.74-0.434,1.704,0.116,2.308c0.564,0.62,1.548,0.609,2.356,0.385
				c1.348-0.373,2.561-1.212,3.386-2.342"/>
			<path d="M57.817,326.386c0.289,1.823,0.444,3.667,0.462,5.513c0.002,0.209,0,0.426-0.096,0.612
				c-0.089,0.172-0.25,0.297-0.421,0.39c-0.758,0.416-1.787,0.258-2.385-0.366c-0.289-0.302-0.475-0.686-0.694-1.042
				c-0.354-0.577-0.805-1.095-1.327-1.525c-0.356-0.293-0.755-0.556-1.001-0.947c-0.529-0.843-0.101-2.058,0.749-2.578
				c1.243-0.761,2.85-0.222,4.295-0.411"/>
			<path d="M41.521,316.105c-0.352-0.755-0.477-1.593-0.692-2.398s-0.551-1.624-1.203-2.143c-0.652-0.519-1.692-0.624-2.286-0.039
				c-0.32,0.316-0.462,0.769-0.555,1.209c-0.144,0.681-0.199,1.381-0.165,2.076c0.025,0.511,0.099,1.021,0.066,1.531
				c-0.067,1.048-0.555,2.201,0.026,3.075c0.422,0.636,1.319,0.844,2.043,0.604c0.724-0.241,1.28-0.85,1.623-1.531
				c0.344-0.682,0.503-1.439,0.659-2.186"/>
			<path d="M38.073,330.673c0.206,0.91,0.566,1.785,1.061,2.576c0.176,0.281,0.37,0.555,0.484,0.866
				c0.157,0.429,0.149,0.898,0.139,1.355c-0.002,0.114-0.006,0.232-0.055,0.334c-0.095,0.197-0.329,0.281-0.543,0.324
				c-0.535,0.109-1.096,0.085-1.619-0.07c-0.882-0.26-1.627-0.87-2.505-1.142c-0.365-0.113-0.753-0.168-1.087-0.354
				c-0.728-0.406-1.006-1.389-0.756-2.184c0.25-0.796,0.93-1.4,1.689-1.746c0.759-0.345,1.599-0.465,2.427-0.562"/>
			<path d="M32.177,326.614c-0.412,1.01-0.823,2.02-1.235,3.03c-0.228,0.559-0.483,1.152-0.988,1.481
				c-0.489,0.319-1.113,0.325-1.697,0.298c-0.345-0.016-0.704-0.043-1.003-0.215c-0.674-0.388-0.769-1.306-0.786-2.084
				c-0.019-0.879-0.038-1.759-0.058-2.638c-0.018-0.806,0.055-1.778,0.765-2.161c0.425-0.229,0.948-0.156,1.409-0.014
				c1.164,0.359,2.196,1.131,2.869,2.147"/>
		</g>
	</g>
</svg>
