<?xml version="1.0" encoding="utf-8"?>
<svg version="1.1" xmlns="http://www.w3.org/2000/svg" xmlns:xlink="http://www.w3.org/1999/xlink" xml:space="preserve" viewBox="182 18 136 140">
<g>
		<g>
			<g>
				<g>
					<path d="M285.951,47.79c-0.043-0.62-0.255-2.273,0.518-2.544c0.573-0.202,1.97,0.918,1.609,1.459
						c-0.228,0.341-0.636,0.326-1.039,0.403c-0.891,0.172-1.809,0.337-2.719,0.355c-1.558,0.03-2.289-0.893-2.58-2.307
						c-0.098-0.479-0.669-1.972-0.482-2.399c0.103-0.236-0.154,0.035,0.308-0.094c0.309-0.086,0.832,0.045,1.165,0.03
						c0.785-0.037,5.728-1.048,4.672,0.767c-0.66,1.133,1.096,2.157,1.755,1.026c0.835-1.433,1.027-3.111-0.713-3.887
						c-2.061-0.918-4.455,0.122-6.588,0.052c-1.523-0.05-2.865,0.189-2.679,2.046c0.191,1.907,0.522,5.016,2.287,6.145
						c1.768,1.13,4.198,0.595,6.114,0.226c1.714-0.331,3.148-1.114,2.573-3.114c-0.485-1.687-2.441-3.011-4.189-2.676
						c-2.034,0.389-2.161,2.832-2.045,4.513C284.008,49.087,286.041,49.097,285.951,47.79L285.951,47.79z"/>
				</g>
				<g>
					<path d="M285.908,41.303c0.325-1.479,1.07-2.887,2.499-3.59c2.925-1.439,4.507,0.744,5.364,2.816
						c0.636,1.537,0.491,2.698-0.001,4.256c-0.244,0.633-0.494,1.263-0.749,1.891c-0.388,2.453-2.024,2.997-4.909,1.633
						c-0.493-1.192-2.46-0.669-1.96,0.54c1.054,2.549,3.857,4.048,6.404,2.338c1.361-0.913,1.846-2.529,2.425-3.972
						c0.737-1.836,1.559-3.641,1.248-5.664c-0.433-2.819-2.776-6.373-5.921-6.394c-3.209-0.022-5.71,2.646-6.361,5.604
						C283.667,42.037,285.627,42.582,285.908,41.303L285.908,41.303z"/>
				</g>
				<g>
					<path d="M289.05,50.604c-2.12,3.239-6.33,2.44-9.245,0.909c-1.084-0.57-2.416-1.357-2.97-2.505
						c-1.372-2.841,1.317-3.924,3.249-4.23c1.288-0.204,0.741-2.163-0.54-1.96c-5.125,0.811-6.762,5.921-2.632,9.244
						c3.966,3.192,10.743,4.381,13.893-0.432C291.523,50.532,289.764,49.513,289.05,50.604L289.05,50.604z"/>
				</g>
				<g>
					<path d="M277.081,44.744c-1.316-1.978-0.006-5.171,1.538-6.722c1.539-1.545,5.87-2.591,7.444-0.553
						c0.788,1.021,2.555,0.009,1.755-1.026c-2.284-2.957-7.198-2.499-10.036-0.472c-2.659,1.899-4.348,6.954-2.457,9.798
						C276.047,46.854,277.808,45.838,277.081,44.744L277.081,44.744z"/>
				</g>
				<g>
					<path d="M280.351,53.795c1.732,6.367,9.248,4.923,13.254,1.75c3.453-2.735,8.498-9.254,2.609-12.444
						c-1.151-0.623-2.178,1.131-1.026,1.755c4.17,2.259-0.013,6.703-2.172,8.547c-2.722,2.325-9.174,5.475-10.704-0.148
						C281.968,51.994,280.006,52.529,280.351,53.795L280.351,53.795z"/>
				</g>
				<g>
					<path d="M283.769,35.564c5.865-7.82,20.386,1.711,12.866,9.332c-0.92,0.932,0.517,2.37,1.437,1.437
						c3.832-3.884,3.24-9.872-0.953-13.275c-4.543-3.687-11.59-3.208-15.106,1.48C281.229,35.585,282.993,36.599,283.769,35.564
						L283.769,35.564z"/>
				</g>
				<g>
					<path d="M274.781,40.99c-4.571,1.646-5.864,6.606-3.99,10.849c2.091,4.735,7.051,7.577,12.129,6.258
						c1.265-0.329,0.729-2.29-0.54-1.96c-3.671,0.954-7.12-0.778-9.094-3.94c-1.944-3.113-2.005-7.791,2.036-9.246
						C276.543,42.511,276.016,40.546,274.781,40.99L274.781,40.99z"/>
				</g>
				<g>
					<path d="M272.61,43.679c-2.683-3.619-1.058-8.125,2.631-10.188c3.224-1.803,7.032-1.949,10.507-0.879
						c1.253,0.386,1.789-1.576,0.54-1.96c-4.704-1.448-9.974-0.795-13.91,2.298c-3.566,2.804-4.29,8.025-1.525,11.755
						C271.625,45.744,273.39,44.732,272.61,43.679L272.61,43.679z"/>
				</g>
			</g>
			<g>
				<g>
					<path d="M295.328,52.023c6.669,10.44,9.959,22.218,9.658,34.602c-0.032,1.308,2.001,1.308,2.033,0
						c0.309-12.717-3.088-24.907-9.936-35.628C296.381,49.898,294.621,50.916,295.328,52.023L295.328,52.023z"/>
				</g>
				<g>
					<path d="M304.211,86.04c-0.614,1.73-6.886,11.875-2.216,11.905c2.27,0.015,3.731-2.485,4.505-4.28
						c1.072-2.484,2.001-5.331,1.174-8.005c-0.385-1.246-2.348-0.714-1.96,0.54c0.594,1.92-0.029,3.83-0.685,5.654
						c-0.337,0.938-0.712,1.891-1.299,2.708c-0.226,0.267-0.453,0.534-0.679,0.801c-0.738,0.696-0.922,0.615-0.554-0.243
						c0.138-1.494,1.173-3.04,1.826-4.356c0.681-1.374,1.335-2.737,1.849-4.184C306.609,85.346,304.646,84.814,304.211,86.04
						L304.211,86.04z"/>
				</g>
				<g>
					<path d="M305.504,76.79c2.753,1.495,4.958,3.818,6.128,6.747c0.136,0.348,0.258,0.701,0.365,1.06
						c-0.26-0.449-0.565-0.865-0.915-1.248c-0.319-0.479-0.595-0.987-0.884-1.484c-0.94-1.623-1.875-3.25-2.813-4.874
						c-0.654-1.133-2.411-0.11-1.755,1.026c1.349,2.338,2.547,5.446,4.496,7.355c0.879,0.862,3.248,1.896,3.937,0.252
						c0.674-1.609-1.283-4.572-2.162-5.826c-1.403-2-3.228-3.6-5.371-4.764C305.38,74.411,304.353,76.165,305.504,76.79
						L305.504,76.79z"/>
				</g>
				<g>
					<path d="M302.553,68.326c-0.288,3.216-3.04,5.422-4.127,8.344c-0.515,1.384-1.08,4.02,0.808,4.689
						c4.641,1.645,5.733-8.119,5.861-10.594c0.067-1.307-1.966-1.304-2.033,0c-0.096,1.856-0.364,3.695-0.941,5.467
						c-0.144,0.443-0.479,2.097-0.996,2.287c-2.069,0.763-0.407-2.036-0.171-2.466c1.437-2.622,3.354-4.629,3.632-7.728
						C304.703,67.023,302.669,67.031,302.553,68.326L302.553,68.326z"/>
				</g>
				<g>
					<path d="M300.516,59.733c1.991,0.599,4.052,1.193,5.759,2.428c0.793,0.574,3.967,3.247,3.1,4.303
						c-0.34,0.415-2.903-1.562-3.158-1.785c-0.536-0.47-1.02-1.003-1.518-1.512c-1.258-1.285-2.623-2.494-3.396-4.146
						c-0.554-1.184-2.306-0.153-1.755,1.026c1.152,2.465,3.715,4.885,5.809,6.562c1.315,1.053,4.512,3.075,5.975,1.189
						c1.475-1.902-0.935-4.49-2.173-5.787c-2.211-2.317-5.106-3.336-8.103-4.238C299.802,57.395,299.265,59.356,300.516,59.733
						L300.516,59.733z"/>
				</g>
				<g>
					<path d="M297.118,55.677c-0.506,1.825-1.13,3.596-1.967,5.299c-0.742,1.51-1.785,2.899-2.42,4.457
						c-0.602,1.476-0.422,3.157,1.377,3.532c1.96,0.408,3.849-1.285,4.717-2.863c1.357-2.467,1.17-5.589,1.095-8.296
						c-0.036-1.305-2.069-1.311-2.033,0c0.05,1.786,0.177,3.687-0.208,5.448c-0.216,0.989-0.578,2.07-1.31,2.806
						c-2.143,2.155-1.497-0.127-1.108-1.101c0.617-1.542,1.686-2.951,2.349-4.496c0.593-1.382,1.065-2.797,1.467-4.245
						C299.428,54.955,297.468,54.416,297.118,55.677L297.118,55.677z"/>
				</g>
			</g>
			<g>
				<g>
					<path d="M271.945,33.7c-12.075-4.021-24.726-4.324-36.985-0.915c-1.258,0.35-0.724,2.312,0.54,1.96
						c11.932-3.318,24.156-2.997,35.904,0.915C272.649,36.074,273.182,34.112,271.945,33.7L271.945,33.7z"/>
				</g>
				<g>
					<path d="M235.221,33.598c-2.569,1.7-4.631,4.127-7.333,5.619c-2.018,1.114-0.55-0.397,0.148-1.245
						c0.62-0.753,1.42-1.343,2.218-1.89c1.639-1.126,3.421-2.271,5.48-2.139c1.306,0.083,1.301-1.95,0-2.033
						c-2.81-0.18-5.4,1.505-7.544,3.165c-1.539,1.191-3.751,3.443-2.895,5.643c1.502,3.86,9.428-4.357,10.951-5.365
						C237.333,34.634,236.316,32.873,235.221,33.598L235.221,33.598z"/>
				</g>
				<g>
					<path d="M246.332,30.414c-1.709-1.837-3.758-3.248-6.123-4.109c-1.358-0.495-4.995-1.743-6.171-0.41
						c-0.99,1.122,0.256,2.767,1.198,3.422c2.271,1.577,5.82,1.965,8.444,2.71c1.261,0.358,1.799-1.603,0.54-1.96
						c-1.523-0.432-3.045-0.864-4.568-1.296c-0.717-0.203-1.476-0.373-2.178-0.625c-0.342-0.123-2.531-0.722-0.9-0.627
						c3.183,0.185,6.206,2.062,8.32,4.333C245.788,32.811,247.223,31.371,246.332,30.414L246.332,30.414z"/>
				</g>
				<g>
					<path d="M253.299,30.67c-2.991,1.02-4.442,3.485-6.682,5.506c-0.272,0.245-1.953,1.803-2.407,1.537
						c-1.206-0.706,1.733-2.527,1.98-2.683c1.604-1.018,3.348-1.744,5.161-2.297c1.248-0.381,0.716-2.344-0.54-1.96
						c-2.563,0.782-5.184,1.896-7.249,3.641c-1.235,1.043-2.697,3.136-1.478,4.743c1.154,1.52,3.504,0.326,4.704-0.502
						c2.564-1.771,3.991-4.979,7.053-6.024C255.07,32.211,254.542,30.247,253.299,30.67L253.299,30.67z"/>
				</g>
				<g>
					<path d="M264.41,31.496c-1.596-2.667-3.292-5.214-6.051-6.796c-1.546-0.886-4.561-2.538-6.101-0.801
						c-1.451,1.635,0.622,3.917,1.816,5.006c2.185,1.991,5.616,4.03,8.52,4.625c1.277,0.262,1.823-1.697,0.54-1.96
						c-1.961-0.401-3.68-1.582-5.383-2.592c-0.778-0.462-1.558-0.902-2.24-1.509c-0.447-0.4-0.845-0.845-1.195-1.334
						c-0.561-0.49-0.517-0.71,0.131-0.662c1.328-0.548,4.082,1.682,4.979,2.547c1.335,1.287,2.283,2.927,3.228,4.505
						C263.326,33.643,265.084,32.622,264.41,31.496L264.41,31.496z"/>
				</g>
				<g>
					<path d="M266.397,33.052c-1.404,0.797-2.75,1.671-4.022,2.666c-1.288,1.007-2.415,2.514-3.761,3.405
						c-1.092,0.723-1.986,0.783-1.264-0.735c0.511-1.075,1.558-1.769,2.589-2.273c1.628-0.796,3.487-1.142,5.242-1.532
						c1.276-0.284,0.736-2.244-0.54-1.96c-2.65,0.589-5.704,1.168-7.762,3.092c-1.342,1.255-2.55,3.594-1.559,5.405
						c1.036,1.89,2.982,0.973,4.231-0.104c2.589-2.235,4.857-4.497,7.871-6.208C268.56,34.162,267.537,32.405,266.397,33.052
						L266.397,33.052z"/>
				</g>
			</g>
		</g>
		<g>
			<g>
				<g>
					<path d="M215.615,128.231c0.043,0.62,0.255,2.273-0.518,2.544c-0.573,0.202-1.97-0.918-1.609-1.458
						c0.229-0.341,0.636-0.326,1.039-0.403c0.891-0.172,1.809-0.337,2.719-0.355c1.558-0.03,2.289,0.893,2.58,2.307
						c0.098,0.479,0.669,1.972,0.482,2.399c-0.103,0.236,0.154-0.035-0.308,0.094c-0.309,0.086-0.832-0.045-1.165-0.03
						c-0.785,0.037-5.728,1.048-4.672-0.767c0.66-1.133-1.096-2.157-1.755-1.026c-0.834,1.433-1.027,3.111,0.713,3.887
						c2.061,0.918,4.455-0.122,6.588-0.052c1.523,0.05,2.865-0.189,2.679-2.046c-0.191-1.907-0.521-5.016-2.287-6.145
						c-1.768-1.13-4.198-0.596-6.114-0.226c-1.714,0.331-3.148,1.114-2.573,3.114c0.485,1.687,2.441,3.01,4.189,2.676
						c2.034-0.389,2.161-2.832,2.045-4.513C217.558,126.933,215.525,126.924,215.615,128.231L215.615,128.231z"/>
				</g>
				<g>
					<path d="M215.658,134.718c-0.325,1.479-1.07,2.887-2.499,3.59c-2.925,1.439-4.507-0.744-5.364-2.816
						c-0.636-1.537-0.491-2.698,0.001-4.256c0.244-0.633,0.494-1.263,0.749-1.891c0.388-2.453,2.024-2.997,4.909-1.633
						c0.493,1.192,2.46,0.669,1.96-0.54c-1.054-2.549-3.857-4.048-6.404-2.338c-1.361,0.913-1.846,2.528-2.425,3.972
						c-0.737,1.836-1.559,3.641-1.248,5.664c0.433,2.819,2.776,6.373,5.921,6.394c3.209,0.022,5.71-2.646,6.361-5.604
						C217.898,133.983,215.939,133.439,215.658,134.718L215.658,134.718z"/>
				</g>
				<g>
					<path d="M212.516,125.417c2.12-3.239,6.33-2.44,9.245-0.909c1.084,0.57,2.416,1.357,2.97,2.505
						c1.372,2.841-1.317,3.924-3.249,4.23c-1.288,0.204-0.741,2.163,0.54,1.96c5.125-0.811,6.762-5.921,2.632-9.244
						c-3.966-3.192-10.743-4.381-13.893,0.432C210.042,125.488,211.802,126.508,212.516,125.417L212.516,125.417z"/>
				</g>
				<g>
					<path d="M224.485,131.277c1.315,1.978,0.006,5.171-1.538,6.721c-1.539,1.545-5.87,2.591-7.444,0.553
						c-0.788-1.021-2.555-0.01-1.755,1.026c2.284,2.957,7.198,2.499,10.036,0.472c2.659-1.899,4.348-6.954,2.456-9.798
						C225.519,129.167,223.758,130.183,224.485,131.277L224.485,131.277z"/>
				</g>
				<g>
					<path d="M221.215,122.226c-1.732-6.367-9.248-4.923-13.254-1.75c-3.453,2.735-8.498,9.254-2.609,12.444
						c1.15,0.623,2.178-1.131,1.026-1.755c-4.17-2.259,0.013-6.703,2.172-8.547c2.722-2.325,9.174-5.475,10.704,0.148
						C219.598,124.027,221.56,123.492,221.215,122.226L221.215,122.226z"/>
				</g>
				<g>
					<path d="M217.797,140.456c-5.865,7.82-20.386-1.711-12.866-9.332c0.92-0.932-0.517-2.37-1.437-1.437
						c-3.832,3.884-3.24,9.872,0.953,13.275c4.543,3.687,11.59,3.208,15.106-1.48C220.337,140.436,218.573,139.421,217.797,140.456
						L217.797,140.456z"/>
				</g>
				<g>
					<path d="M226.785,135.03c4.571-1.646,5.864-6.606,3.99-10.848c-2.091-4.735-7.051-7.577-12.129-6.258
						c-1.265,0.329-0.729,2.29,0.54,1.96c3.671-0.954,7.12,0.778,9.094,3.94c1.944,3.114,2.005,7.791-2.036,9.246
						C225.023,133.51,225.55,135.475,226.785,135.03L226.785,135.03z"/>
				</g>
				<g>
					<path d="M228.956,132.342c2.683,3.619,1.058,8.125-2.631,10.188c-3.224,1.803-7.032,1.949-10.507,0.879
						c-1.253-0.386-1.789,1.576-0.54,1.96c4.704,1.448,9.974,0.795,13.909-2.298c3.566-2.804,4.29-8.025,1.525-11.755
						C229.941,130.276,228.176,131.289,228.956,132.342L228.956,132.342z"/>
				</g>
			</g>
			<g>
				<g>
					<path d="M206.238,123.998c-6.669-10.44-9.959-22.218-9.658-34.602c0.032-1.309-2.001-1.308-2.033,0
						c-0.309,12.717,3.088,24.907,9.936,35.628C205.185,126.123,206.945,125.105,206.238,123.998L206.238,123.998z"/>
				</g>
				<g>
					<path d="M197.355,89.98c0.614-1.73,6.886-11.875,2.216-11.905c-2.27-0.015-3.731,2.485-4.505,4.279
						c-1.072,2.484-2.001,5.332-1.174,8.005c0.385,1.246,2.348,0.714,1.96-0.54c-0.594-1.92,0.029-3.83,0.685-5.654
						c0.338-0.938,0.712-1.891,1.299-2.708c0.226-0.267,0.453-0.534,0.679-0.801c0.738-0.696,0.922-0.615,0.554,0.243
						c-0.138,1.494-1.173,3.04-1.826,4.356c-0.681,1.374-1.335,2.738-1.849,4.184C194.957,90.675,196.92,91.206,197.355,89.98
						L197.355,89.98z"/>
				</g>
				<g>
					<path d="M196.062,99.23c-2.753-1.495-4.958-3.818-6.128-6.747c-0.136-0.348-0.258-0.701-0.365-1.06
						c0.26,0.449,0.565,0.865,0.915,1.248c0.319,0.479,0.595,0.987,0.883,1.484c0.94,1.624,1.875,3.25,2.813,4.874
						c0.654,1.133,2.411,0.11,1.755-1.026c-1.349-2.338-2.547-5.446-4.496-7.355c-0.879-0.862-3.248-1.896-3.937-0.252
						c-0.674,1.609,1.283,4.572,2.162,5.826c1.403,2,3.228,3.6,5.37,4.764C196.186,101.61,197.213,99.856,196.062,99.23
						L196.062,99.23z"/>
				</g>
				<g>
					<path d="M199.013,107.695c0.288-3.216,3.04-5.422,4.127-8.344c0.515-1.385,1.08-4.02-0.808-4.689
						c-4.641-1.645-5.733,8.119-5.861,10.594c-0.067,1.307,1.966,1.304,2.033,0c0.096-1.856,0.364-3.695,0.941-5.468
						c0.144-0.443,0.479-2.097,0.996-2.287c2.069-0.763,0.407,2.036,0.171,2.466c-1.437,2.622-3.354,4.629-3.632,7.728
						C196.863,108.997,198.897,108.99,199.013,107.695L199.013,107.695z"/>
				</g>
				<g>
					<path d="M201.049,116.288c-1.991-0.599-4.052-1.194-5.759-2.428c-0.793-0.574-3.967-3.247-3.1-4.303
						c0.34-0.415,2.903,1.562,3.158,1.785c0.536,0.47,1.02,1.003,1.518,1.512c1.258,1.285,2.623,2.495,3.396,4.146
						c0.554,1.184,2.307,0.153,1.755-1.026c-1.152-2.465-3.715-4.885-5.809-6.563c-1.315-1.053-4.512-3.075-5.975-1.189
						c-1.475,1.902,0.935,4.49,2.173,5.787c2.211,2.317,5.106,3.336,8.103,4.238C201.764,118.626,202.301,116.665,201.049,116.288
						L201.049,116.288z"/>
				</g>
				<g>
					<path d="M204.448,120.344c0.506-1.825,1.13-3.596,1.967-5.299c0.742-1.51,1.785-2.899,2.42-4.457
						c0.602-1.476,0.422-3.157-1.377-3.532c-1.96-0.408-3.849,1.285-4.717,2.863c-1.357,2.467-1.17,5.589-1.095,8.296
						c0.036,1.305,2.069,1.311,2.033,0c-0.05-1.787-0.177-3.687,0.207-5.448c0.216-0.989,0.578-2.07,1.31-2.806
						c2.143-2.155,1.497,0.127,1.108,1.101c-0.617,1.541-1.686,2.951-2.349,4.496c-0.593,1.382-1.065,2.797-1.467,4.245
						C202.137,121.066,204.098,121.605,204.448,120.344L204.448,120.344z"/>
				</g>
			</g>
			<g>
				<g>
					<path d="M229.621,142.321c12.075,4.021,24.726,4.324,36.985,0.915c1.259-0.35,0.724-2.312-0.54-1.96
						c-11.932,3.318-24.157,2.997-35.904-0.915C228.917,139.947,228.384,141.909,229.621,142.321L229.621,142.321z"/>
				</g>
				<g>
					<path d="M266.345,142.423c2.569-1.7,4.631-4.127,7.333-5.619c2.018-1.114,0.55,0.397-0.148,1.245
						c-0.62,0.753-1.42,1.342-2.218,1.891c-1.639,1.126-3.421,2.271-5.48,2.139c-1.306-0.083-1.301,1.95,0,2.033
						c2.81,0.18,5.4-1.505,7.544-3.164c1.539-1.191,3.751-3.443,2.895-5.643c-1.502-3.86-9.428,4.357-10.951,5.365
						C264.233,141.386,265.25,143.147,266.345,142.423L266.345,142.423z"/>
				</g>
				<g>
					<path d="M255.233,145.607c1.709,1.837,3.758,3.248,6.123,4.109c1.358,0.495,4.995,1.743,6.171,0.41
						c0.99-1.122-0.256-2.767-1.198-3.422c-2.271-1.577-5.82-1.965-8.444-2.71c-1.261-0.358-1.799,1.603-0.54,1.96
						c1.523,0.432,3.046,0.864,4.568,1.296c0.717,0.203,1.476,0.373,2.178,0.625c0.342,0.123,2.531,0.722,0.9,0.627
						c-3.183-0.185-6.206-2.062-8.32-4.333C255.778,143.21,254.343,144.65,255.233,145.607L255.233,145.607z"/>
				</g>
				<g>
					<path d="M248.267,145.35c2.991-1.02,4.442-3.486,6.682-5.507c0.272-0.245,1.953-1.803,2.407-1.537
						c1.206,0.706-1.733,2.527-1.98,2.683c-1.604,1.018-3.348,1.744-5.161,2.297c-1.248,0.381-0.716,2.343,0.54,1.96
						c2.563-0.782,5.184-1.896,7.249-3.641c1.235-1.043,2.697-3.136,1.478-4.743c-1.154-1.52-3.504-0.326-4.704,0.502
						c-2.564,1.771-3.991,4.979-7.053,6.024C246.496,143.81,247.024,145.774,248.267,145.35L248.267,145.35z"/>
				</g>
				<g>
					<path d="M237.156,144.525c1.596,2.667,3.292,5.214,6.051,6.796c1.546,0.886,4.561,2.538,6.102,0.801
						c1.451-1.635-0.622-3.917-1.816-5.006c-2.185-1.991-5.616-4.03-8.52-4.624c-1.277-0.262-1.823,1.697-0.54,1.96
						c1.961,0.402,3.68,1.583,5.383,2.592c0.778,0.462,1.558,0.902,2.24,1.509c0.447,0.4,0.845,0.845,1.195,1.335
						c0.56,0.49,0.517,0.71-0.132,0.662c-1.328,0.548-4.083-1.682-4.979-2.547c-1.335-1.287-2.283-2.927-3.228-4.505
						C238.24,142.378,236.482,143.399,237.156,144.525L237.156,144.525z"/>
				</g>
				<g>
					<path d="M235.169,142.969c1.404-0.797,2.75-1.671,4.022-2.666c1.288-1.007,2.415-2.514,3.761-3.405
						c1.092-0.723,1.985-0.783,1.264,0.735c-0.511,1.075-1.558,1.769-2.589,2.273c-1.628,0.796-3.487,1.142-5.242,1.532
						c-1.276,0.284-0.736,2.244,0.54,1.96c2.65-0.589,5.704-1.168,7.762-3.092c1.342-1.255,2.551-3.594,1.559-5.405
						c-1.036-1.89-2.982-0.973-4.231,0.105c-2.589,2.235-4.858,4.497-7.871,6.208C233.006,141.859,234.029,143.616,235.169,142.969
						L235.169,142.969z"/>
				</g>
			</g>
		</g>
		<g>
			<path d="M278.41,138.829c-0.407-0.732-0.163-1.667,0.59-2.073l0,0c0.732-0.406,1.667-0.142,2.074,0.59l0,0
				c0.405,0.731,0.141,1.666-0.59,2.073l0,0c-0.224,0.142-0.488,0.204-0.733,0.204l0,0
				C279.204,139.622,278.696,139.337,278.41,138.829z M286.928,133.342c-0.53-0.671-0.427-1.627,0.222-2.155l0,0
				c0.651-0.529,1.606-0.448,2.136,0.202l0,0c0.548,0.651,0.447,1.627-0.204,2.155l0,0l0,0l0,0
				c-0.284,0.224-0.629,0.346-0.975,0.346l0,0C287.681,133.891,287.232,133.707,286.928,133.342z M294.368,126.41
				c-0.631-0.549-0.713-1.505-0.163-2.135l0,0c0.548-0.65,1.503-0.732,2.154-0.162l0,0c0.631,0.528,0.711,1.504,0.163,2.134l0,0l0,0
				l0,0c-0.306,0.366-0.732,0.529-1.159,0.529l0,0C295.018,126.776,294.652,126.674,294.368,126.41z M300.486,118.32
				c-0.732-0.448-0.977-1.362-0.55-2.094l0,0c0.427-0.732,1.362-0.976,2.094-0.549l0,0c0.733,0.428,0.977,1.363,0.55,2.094l0,0
				c-0.286,0.487-0.794,0.752-1.322,0.752l0,0C300.995,118.523,300.731,118.462,300.486,118.32z M305.08,109.254
				c-0.792-0.285-1.199-1.159-0.915-1.951l0,0c0.306-0.793,1.179-1.2,1.973-0.915l0,0c0.792,0.305,1.177,1.179,0.893,1.972l0,0
				c-0.224,0.609-0.814,0.996-1.423,0.996l0,0C305.425,109.355,305.243,109.314,305.08,109.254z M307.986,99.537
				c-0.832-0.163-1.382-0.935-1.239-1.768l0,0c0.163-0.834,0.955-1.383,1.769-1.241l0,0c0.832,0.143,1.382,0.935,1.239,1.769l0,0
				c-0.121,0.732-0.772,1.261-1.505,1.261l0,0C308.171,99.558,308.089,99.537,307.986,99.537z M195.212,77.035
				c-0.834-0.183-1.342-0.997-1.179-1.809l0,0l0,0l0,0c0.183-0.833,0.997-1.341,1.83-1.179l0,0c0.812,0.184,1.34,0.996,1.157,1.83
				l0,0c-0.163,0.711-0.792,1.199-1.483,1.199l0,0C195.414,77.076,195.313,77.055,195.212,77.035z M197.997,67.278
				c-0.772-0.326-1.139-1.22-0.814-1.992l0,0c0.306-0.793,1.199-1.159,1.993-0.834l0,0c0.772,0.326,1.137,1.22,0.812,1.992l0,0
				c-0.244,0.59-0.812,0.935-1.401,0.935l0,0C198.382,67.38,198.18,67.359,197.997,67.278z M202.469,58.151
				c-0.713-0.448-0.915-1.383-0.449-2.093l0,0c0.449-0.712,1.384-0.915,2.094-0.468l0,0c0.711,0.468,0.915,1.403,0.466,2.113l0,0
				c-0.304,0.448-0.792,0.692-1.28,0.692l0,0C203.017,58.395,202.733,58.314,202.469,58.151z M208.486,49.979
				c-0.631-0.59-0.651-1.544-0.081-2.155l0,0l0,0l0,0c0.568-0.63,1.524-0.65,2.154-0.081l0,0c0.609,0.57,0.651,1.525,0.081,2.155
				l0,0c-0.306,0.326-0.711,0.488-1.118,0.488l0,0C209.135,50.386,208.77,50.243,208.486,49.979z M215.823,42.966
				c-0.508-0.67-0.365-1.626,0.306-2.134l0,0c0.671-0.508,1.626-0.366,2.134,0.285l0,0c0.508,0.691,0.365,1.647-0.306,2.155l0,0
				c-0.264,0.202-0.589,0.305-0.913,0.305l0,0C216.575,43.576,216.129,43.353,215.823,42.966z"/>
		</g>
	</g>
</svg>
