<?xml version="1.0" encoding="utf-8"?>
<svg version="1.1" xmlns="http://www.w3.org/2000/svg" xmlns:xlink="http://www.w3.org/1999/xlink" xml:space="preserve" viewBox="347 171 135 73">
<g>
		<g>
			<g>
				<g>
					<path d="M411.659,185.349c-10.852,3.122-20.755-2.912-31.325-4.292c-6.271-0.819-15.531,0.602-14.883,8.867
						c0.093,1.185,1.952,1.195,1.859,0c-0.974-12.429,19.263-5.618,25.309-3.919c6.475,1.82,12.929,3.037,19.534,1.137
						C413.3,186.811,412.812,185.018,411.659,185.349L411.659,185.349z"/>
				</g>
				<g>
					<path d="M399.191,185.491c-0.592-0.587-1.065-1.235-1.384-2.01c-0.191-0.465-0.729-1.837-0.307-2.285
						c0.819-0.871-0.493-2.188-1.314-1.314c-1.808,1.922,0.191,5.437,1.691,6.924C398.728,187.648,400.043,186.335,399.191,185.491
						L399.191,185.491z"/>
				</g>
				<g>
					<path d="M386.392,182.227c-1.375-1.243-1.975-3.017-1.544-4.833c0.276-1.163-1.515-1.659-1.792-0.494
						c-0.578,2.433,0.157,4.956,2.022,6.642C385.963,184.342,387.282,183.031,386.392,182.227L386.392,182.227z"/>
				</g>
				<g>
					<path d="M390.77,183.832c-2.588,0.714-5.388,2.07-5.168,5.216c0.083,1.186,1.942,1.196,1.859,0
						c-0.157-2.248,2.022-2.932,3.804-3.424C392.416,185.306,391.927,183.512,390.77,183.832L390.77,183.832z"/>
				</g>
				<g>
					<path d="M375.607,180.776c-1.718-0.092-3.39-2.093-3.069-3.783c0.222-1.169-1.569-1.67-1.792-0.494
						c-0.555,2.923,1.866,5.976,4.861,6.136C376.802,182.698,376.799,180.84,375.607,180.776L375.607,180.776z"/>
				</g>
				<g>
					<path d="M374.856,180.903c-2.154,1.457-3.556,3.644-3.013,6.317c0.238,1.171,2.03,0.676,1.792-0.494
						c-0.366-1.8,0.744-3.261,2.159-4.218C376.78,181.841,375.851,180.23,374.856,180.903L374.856,180.903z"/>
				</g>
				<g>
					<path d="M391.375,183.912c1.196,0,1.198-1.859,0-1.859C390.179,182.053,390.177,183.912,391.375,183.912L391.375,183.912z"/>
				</g>
				<g>
					<path d="M378.533,181.154c1.196,0,1.198-1.859,0-1.859C377.338,179.295,377.336,181.154,378.533,181.154L378.533,181.154z"/>
				</g>
				<g>
					<path d="M389.017,185.943c0,0.01,0,0.02,0,0.03c0,1.196,1.858,1.198,1.858,0c0-0.01,0-0.02,0-0.03
						C390.876,184.747,389.017,184.745,389.017,185.943L389.017,185.943z"/>
				</g>
				<g>
					<path d="M366.315,185.276c1.196,0,1.198-1.859,0-1.859C365.119,183.417,365.117,185.276,366.315,185.276L366.315,185.276z"/>
				</g>
			</g>
			<g>
				<g>
					<path d="M363.815,238.55c1.9-6.602,0.684-13.059-1.137-19.534c-1.712-6.091-8.504-26.283,3.919-25.309
						c1.193,0.093,1.186-1.766,0-1.859c-8.26-0.647-9.675,8.613-8.867,14.883c1.363,10.578,7.418,20.462,4.292,31.325
						C361.692,239.207,363.484,239.699,363.815,238.55L363.815,238.55z"/>
				</g>
				<g>
					<path d="M363.479,224.274c-1.487-1.5-5.001-3.499-6.924-1.691c-0.873,0.821,0.443,2.134,1.314,1.314
						c0.456-0.429,1.837,0.123,2.285,0.307c0.775,0.318,1.422,0.791,2.01,1.384C363.008,226.439,364.322,225.125,363.479,224.274
						L363.479,224.274z"/>
				</g>
				<g>
					<path d="M360.215,211.475c-1.686-1.865-4.208-2.6-6.642-2.022c-1.163,0.276-0.671,2.069,0.494,1.792
						c1.816-0.431,3.59,0.169,4.833,1.544C359.705,213.678,361.016,212.361,360.215,211.475L360.215,211.475z"/>
				</g>
				<g>
					<path d="M362.297,217.661c0.492-1.782,1.175-3.961,3.424-3.804c1.194,0.083,1.188-1.776,0-1.858
						c-3.145-0.219-4.501,2.581-5.216,5.169C360.186,218.322,361.979,218.814,362.297,217.661L362.297,217.661z"/>
				</g>
				<g>
					<path d="M359.308,202.004c-0.16-2.996-3.212-5.416-6.136-4.861c-1.174,0.223-0.677,2.014,0.494,1.792
						c1.69-0.321,3.691,1.351,3.783,3.069C357.513,203.194,359.372,203.201,359.308,202.004L359.308,202.004z"/>
				</g>
				<g>
					<path d="M359.181,202.191c0.958-1.417,2.416-2.525,4.218-2.159c1.168,0.237,1.667-1.554,0.494-1.792
						c-2.673-0.543-4.86,0.859-6.317,3.013C356.904,202.247,358.514,203.178,359.181,202.191L359.181,202.191z"/>
				</g>
				<g>
					<path d="M359.656,218.701c1.196,0,1.198-1.858,0-1.858C358.46,216.843,358.458,218.701,359.656,218.701L359.656,218.701z"/>
				</g>
				<g>
					<path d="M356.898,205.86c1.196,0,1.198-1.858,0-1.858C355.702,204.001,355.7,205.86,356.898,205.86L356.898,205.86z"/>
				</g>
				<g>
					<path d="M362.616,217.273c0.01,0,0.02,0,0.03,0c1.196,0,1.198-1.859,0-1.859c-0.01,0-0.02,0-0.03,0
						C361.421,215.414,361.419,217.273,362.616,217.273L362.616,217.273z"/>
				</g>
				<g>
					<path d="M361.02,193.641c1.196,0,1.198-1.859,0-1.859C359.824,191.782,359.822,193.641,361.02,193.641L361.02,193.641z"/>
				</g>
			</g>
		</g>
		<g>
			<g>
				<g>
					<path d="M418.562,187.142c6.602,1.9,13.059,0.684,19.534-1.137c6.091-1.712,26.283-8.504,25.31,3.919
						c-0.093,1.193,1.766,1.187,1.858,0c0.647-8.26-8.613-9.675-14.883-8.867c-10.578,1.363-20.462,7.418-31.325,4.292
						C417.905,185.018,417.413,186.811,418.562,187.142L418.562,187.142z"/>
				</g>
				<g>
					<path d="M432.838,186.805c1.5-1.487,3.499-5.002,1.691-6.924c-0.821-0.873-2.134,0.443-1.314,1.314
						c0.429,0.456-0.123,1.837-0.307,2.285c-0.318,0.775-0.791,1.422-1.384,2.01C430.673,186.334,431.987,187.648,432.838,186.805
						L432.838,186.805z"/>
				</g>
				<g>
					<path d="M445.637,183.542c1.865-1.686,2.6-4.209,2.022-6.642c-0.276-1.163-2.069-0.671-1.792,0.494
						c0.431,1.816-0.169,3.59-1.544,4.833C443.434,183.031,444.751,184.342,445.637,183.542L445.637,183.542z"/>
				</g>
				<g>
					<path d="M439.451,185.624c1.782,0.492,3.961,1.175,3.804,3.424c-0.083,1.194,1.776,1.188,1.859,0
						c0.219-3.145-2.581-4.501-5.169-5.216C438.79,183.513,438.298,185.305,439.451,185.624L439.451,185.624z"/>
				</g>
				<g>
					<path d="M455.108,182.635c2.996-0.16,5.416-3.212,4.861-6.136c-0.223-1.174-2.014-0.677-1.792,0.494
						c0.321,1.69-1.351,3.691-3.069,3.783C453.918,180.839,453.911,182.698,455.108,182.635L455.108,182.635z"/>
				</g>
				<g>
					<path d="M454.921,182.508c1.417,0.958,2.525,2.416,2.159,4.218c-0.237,1.168,1.554,1.667,1.792,0.494
						c0.543-2.673-0.859-4.86-3.013-6.317C454.865,180.231,453.934,181.84,454.921,182.508L454.921,182.508z"/>
				</g>
				<g>
					<path d="M439.34,183.912c1.196,0,1.198-1.859,0-1.859C438.144,182.053,438.142,183.912,439.34,183.912L439.34,183.912z"/>
				</g>
				<g>
					<path d="M452.182,181.154c1.196,0,1.198-1.859,0-1.859C450.986,179.295,450.984,181.154,452.182,181.154L452.182,181.154z"/>
				</g>
				<g>
					<path d="M439.839,185.943c0,0.01,0,0.02,0,0.03c0,1.196,1.859,1.198,1.859,0c0-0.01,0-0.02,0-0.03
						C441.698,184.747,439.839,184.745,439.839,185.943L439.839,185.943z"/>
				</g>
				<g>
					<path d="M464.4,185.276c1.196,0,1.198-1.859,0-1.859C463.204,183.417,463.203,185.276,464.4,185.276L464.4,185.276z"/>
				</g>
			</g>
			<g>
				<g>
					<path d="M468.692,238.056c-3.122-10.852,2.912-20.755,4.292-31.325c0.819-6.271-0.602-15.531-8.867-14.883
						c-1.185,0.093-1.195,1.952,0,1.859c12.43-0.974,5.618,19.263,3.919,25.309c-1.82,6.475-3.037,12.929-1.137,19.534
						C467.23,239.697,469.024,239.209,468.692,238.056L468.692,238.056z"/>
				</g>
				<g>
					<path d="M468.551,225.588c0.587-0.592,1.234-1.066,2.01-1.384c0.465-0.191,1.836-0.729,2.285-0.307
						c0.871,0.819,2.188-0.493,1.314-1.314c-1.922-1.808-5.437,0.191-6.924,1.691C466.394,225.125,467.707,226.439,468.551,225.588
						L468.551,225.588z"/>
				</g>
				<g>
					<path d="M471.814,212.789c1.243-1.375,3.017-1.976,4.833-1.544c1.163,0.276,1.659-1.515,0.494-1.792
						c-2.433-0.578-4.956,0.157-6.642,2.022C469.7,212.36,471.01,213.679,471.814,212.789L471.814,212.789z"/>
				</g>
				<g>
					<path d="M470.21,217.167c-0.715-2.588-2.07-5.388-5.216-5.169c-1.186,0.083-1.196,1.942,0,1.858
						c2.248-0.157,2.932,2.022,3.424,3.804C468.736,218.813,470.529,218.324,470.21,217.167L470.21,217.167z"/>
				</g>
				<g>
					<path d="M473.266,202.004c0.092-1.718,2.093-3.39,3.783-3.069c1.169,0.222,1.67-1.569,0.494-1.792
						c-2.923-0.555-5.976,1.866-6.136,4.861C471.343,203.199,473.202,203.196,473.266,202.004L473.266,202.004z"/>
				</g>
				<g>
					<path d="M473.139,201.253c-1.457-2.154-3.644-3.556-6.317-3.013c-1.171,0.238-0.676,2.03,0.494,1.792
						c1.8-0.366,3.261,0.744,4.218,2.159C472.2,203.177,473.811,202.248,473.139,201.253L473.139,201.253z"/>
				</g>
				<g>
					<path d="M471.059,218.701c1.196,0,1.198-1.858,0-1.858C469.863,216.843,469.861,218.701,471.059,218.701L471.059,218.701z"/>
				</g>
				<g>
					<path d="M473.817,205.86c1.196,0,1.198-1.858,0-1.858C472.622,204.001,472.62,205.86,473.817,205.86L473.817,205.86z"/>
				</g>
				<g>
					<path d="M468.099,215.414c-0.01,0-0.02,0-0.03,0c-1.196,0-1.198,1.859,0,1.859c0.01,0,0.02,0,0.03,0
						C469.294,217.273,469.296,215.414,468.099,215.414L468.099,215.414z"/>
				</g>
				<g>
					<path d="M469.695,193.641c1.196,0,1.198-1.859,0-1.859C468.499,191.782,468.497,193.641,469.695,193.641L469.695,193.641z"/>
				</g>
			</g>
		</g>
	</g>
</svg>
