<?xml version="1.0" encoding="utf-8"?>
<svg version="1.1" xmlns="http://www.w3.org/2000/svg" xmlns:xlink="http://www.w3.org/1999/xlink" xml:space="preserve" viewBox="217 171 127 73">
<g>
		<g>
			<g>
				<g>
					<path d="M274.039,183.762c1.134,4.163,0.047,6.013-3.262,5.549c-0.729-0.02-1.455-0.07-2.179-0.151
						c-2.023-0.186-4.026-0.519-6.009-0.959c-3.817-0.847-7.402-2.157-10.963-3.76c-4.147-1.867-8.334-4.138-13.038-3.647
						c-3.089,0.322-7.423,2.209-7.894,5.776c-0.363,2.744,2.296,5.664,5.145,4.829c5.849-1.714-2.989-8.533-3.658-3.172
						c-0.215,1.727,1.711,3.391,3.288,2.321c1.62-1.101,0.61-3.289-1.195-3.07c-1.152,0.14-1.227,1.894,0,1.859
						c0.208-0.006,0.415-0.012,0.623-0.018c1.193-0.035,1.198-1.893,0-1.859c-0.208,0.006-0.415,0.012-0.623,0.018
						c0,0.62,0,1.239,0,1.859c-1.259-3.171-0.77-5.114,1.467-5.831c0.662-0.387,1.373-0.637,2.133-0.75
						c1.675-0.354,3.481-0.156,5.123,0.215c3.219,0.726,6.108,2.413,9.107,3.724c4.516,1.976,9.248,3.369,14.135,4.049
						c3.683,0.512,8.516,1.224,10.922-2.367c1.327-1.981,1.538-5.058-0.291-6.843c-4.735-4.62-6.737,4.629-2.607,3.438
						c3.512-1.013-0.937-6.02-2.015-1.703C271.957,184.429,273.749,184.924,274.039,183.762L274.039,183.762z"/>
				</g>
				<g>
					<path d="M263.225,187.573c-0.982-1.056-2.645-2.637-2.68-4.174c-0.227,0.299-0.455,0.597-0.682,0.896
						c0.693-0.165,1.957,2.808,2.244,3.303c0.648,1.12,1.456,2.111,2.622,2.712c1.062,0.546,2.003-1.057,0.938-1.605
						c-1.662-0.855-2.194-2.693-3.139-4.176c-0.704-1.105-1.706-2.372-3.159-2.026c-0.388,0.092-0.691,0.5-0.682,0.896
						c0.048,2.147,1.838,3.997,3.224,5.488C262.727,189.765,264.038,188.449,263.225,187.573L263.225,187.573z"/>
				</g>
				<g>
					<path d="M251.91,185.838c-1.817-0.305-3.599-0.028-5.146,1.019c-1.056,0.715-2.666,2.253-2.088,3.695
						c0.669,1.667,2.306,0.757,3.272-0.005c0.979-0.772,1.97-1.555,3.126-2.045c1.294-0.549,2.599-0.357,3.951-0.562
						c1.179-0.179,0.678-1.97-0.494-1.792c-1.221,0.186-2.341-0.01-3.537,0.383c-1.091,0.358-2.079,0.978-2.999,1.651
						c-0.379,0.277-0.779,0.552-1.128,0.867c-0.24,0.1-0.329,0.282-0.268,0.546c0.219-0.339,0.487-0.63,0.804-0.874
						c1.12-0.967,2.56-1.336,4.015-1.091C252.585,187.826,253.088,186.036,251.91,185.838L251.91,185.838z"/>
				</g>
			</g>
			<g>
				<g>
					<path d="M227.991,233.465c-4.245,1.06,0.612,5.545,1.703,2.015c1.242-4.021-8.004-2.243-3.438,2.607
						c1.75,1.859,4.889,1.61,6.842,0.291c3.576-2.415,2.888-7.237,2.367-10.922c-0.653-4.62-1.911-9.113-3.739-13.405
						c-1.279-3.003-3.038-5.91-3.852-9.084c-0.488-1.904-0.787-3.915-0.396-5.875c0.099-0.39,0.198-0.781,0.297-1.171
						c0.666-2.846,2.761-3.655,6.284-2.43c-0.619,0-1.239,0-1.858,0c-0.006,0.208-0.012,0.415-0.018,0.623
						c-0.035,1.196,1.824,1.195,1.858,0c0.006-0.208,0.012-0.415,0.018-0.623c0.036-1.225-1.719-1.154-1.858,0
						c-0.217,1.789,1.968,2.85,3.07,1.195c1.02-1.532-0.497-3.416-2.197-3.304c-5.534,0.364,1.285,9.696,3.049,3.675
						c0.836-2.855-2.102-5.486-4.829-5.145c-3.344,0.418-5.237,4.404-5.692,7.29c-0.772,4.897,1.604,9.328,3.563,13.642
						c1.496,3.295,2.749,6.664,3.588,10.19c0.469,1.97,0.833,3.98,1.055,5.994c0.117,0.986,0.193,1.975,0.227,2.968
						c0.464,3.309-1.386,4.397-5.549,3.262C229.645,234.967,229.153,233.174,227.991,233.465L227.991,233.465z"/>
				</g>
				<g>
					<path d="M233.61,223.129c-1.492-1.387-3.337-3.176-5.488-3.224c-0.395-0.009-0.803,0.294-0.896,0.682
						c-0.347,1.454,0.921,2.455,2.025,3.159c1.483,0.945,3.321,1.477,4.176,3.139c0.547,1.064,2.152,0.125,1.605-0.938
						c-0.601-1.167-1.592-1.971-2.712-2.622c-0.49-0.285-3.468-1.551-3.303-2.244c-0.299,0.227-0.597,0.455-0.896,0.682
						c1.539,0.035,3.117,1.697,4.174,2.68C233.171,225.256,234.488,223.945,233.61,223.129L233.61,223.129z"/>
				</g>
				<g>
					<path d="M232.353,212.634c-0.218-1.301,0.052-2.635,0.832-3.714c0.019-0.026,1.53-1.752,0.772-1.067
						c-0.394,0.356-0.74,0.934-1.051,1.36c-0.623,0.852-1.179,1.741-1.548,2.734c-0.486,1.306-0.28,2.453-0.485,3.802
						c-0.178,1.17,1.613,1.675,1.792,0.494c0.179-1.178-0.002-2.396,0.382-3.537c0.446-1.322,1.373-2.459,2.224-3.539
						c0.765-0.97,1.676-2.602,0.005-3.273c-1.44-0.578-2.979,1.034-3.695,2.088c-1.05,1.545-1.324,3.331-1.019,5.146
						C230.758,214.305,232.549,213.805,232.353,212.634L232.353,212.634z"/>
				</g>
			</g>
		</g>
		<g>
			<g>
				<g>
					<path d="M290.013,183.268c-1.06-4.245-5.545,0.613-2.015,1.703c4.021,1.243,2.243-8.003-2.607-3.438
						c-1.859,1.75-1.61,4.889-0.291,6.843c2.415,3.576,7.237,2.888,10.922,2.367c4.62-0.653,9.114-1.911,13.405-3.739
						c3.003-1.279,5.91-3.038,9.084-3.853c1.904-0.488,3.915-0.787,5.875-0.396c0.39,0.099,0.781,0.198,1.171,0.297
						c2.845,0.666,3.655,2.761,2.43,6.285c0-0.62,0-1.239,0-1.859c-0.208-0.006-0.415-0.012-0.623-0.018
						c-1.196-0.035-1.195,1.824,0,1.859c0.208,0.006,0.415,0.012,0.623,0.018c1.225,0.036,1.154-1.719,0-1.859
						c-1.789-0.217-2.85,1.968-1.195,3.07c1.532,1.02,3.416-0.497,3.304-2.197c-0.364-5.534-9.696,1.285-3.675,3.049
						c2.855,0.836,5.486-2.102,5.145-4.829c-0.418-3.344-4.404-5.237-7.29-5.692c-4.898-0.772-9.329,1.604-13.642,3.563
						c-3.295,1.496-6.664,2.749-10.19,3.588c-1.97,0.469-3.98,0.833-5.994,1.055c-0.986,0.117-1.975,0.193-2.967,0.227
						c-3.309,0.464-4.397-1.386-3.262-5.549C288.51,184.922,290.303,184.431,290.013,183.268L290.013,183.268z"/>
				</g>
				<g>
					<path d="M300.349,188.887c1.387-1.492,3.176-3.337,3.224-5.488c0.009-0.395-0.294-0.803-0.682-0.896
						c-1.453-0.347-2.455,0.921-3.159,2.026c-0.945,1.483-1.477,3.321-3.139,4.176c-1.064,0.547-0.125,2.152,0.938,1.605
						c1.167-0.601,1.971-1.592,2.622-2.712c0.285-0.49,1.551-3.468,2.244-3.303c-0.227-0.299-0.455-0.597-0.682-0.896
						c-0.035,1.539-1.697,3.117-2.68,4.174C298.221,188.448,299.532,189.766,300.349,188.887L300.349,188.887z"/>
				</g>
				<g>
					<path d="M310.844,187.63c1.301-0.218,2.635,0.052,3.714,0.832c0.026,0.019,1.753,1.53,1.068,0.772
						c-0.356-0.394-0.935-0.74-1.36-1.051c-0.852-0.623-1.741-1.179-2.734-1.549c-1.306-0.486-2.453-0.28-3.802-0.485
						c-1.17-0.178-1.674,1.613-0.494,1.792c1.178,0.179,2.397-0.002,3.537,0.383c1.323,0.446,2.46,1.373,3.539,2.224
						c0.97,0.765,2.602,1.676,3.272,0.005c0.578-1.44-1.034-2.979-2.088-3.695c-1.545-1.05-3.331-1.324-5.146-1.019
						C309.173,186.035,309.672,187.827,310.844,187.63L310.844,187.63z"/>
				</g>
			</g>
			<g>
				<g>
					<path d="M333.774,235.257c-4.163,1.134-6.013,0.047-5.549-3.262c0.02-0.729,0.07-1.455,0.151-2.179
						c0.186-2.023,0.519-4.026,0.959-6.009c0.847-3.817,2.157-7.402,3.76-10.963c1.867-4.147,4.138-8.334,3.647-13.038
						c-0.322-3.089-2.21-7.423-5.776-7.894c-2.744-0.363-5.664,2.296-4.829,5.145c1.714,5.85,8.533-2.989,3.172-3.658
						c-1.727-0.216-3.391,1.711-2.321,3.288c1.101,1.62,3.289,0.61,3.07-1.195c-0.14-1.152-1.894-1.227-1.858,0
						c0.006,0.208,0.012,0.415,0.018,0.623c0.035,1.193,1.893,1.198,1.858,0c-0.006-0.208-0.012-0.415-0.018-0.623
						c-0.619,0-1.239,0-1.858,0c3.171-1.259,5.114-0.77,5.831,1.467c0.387,0.662,0.637,1.373,0.75,2.133
						c0.354,1.675,0.156,3.481-0.215,5.123c-0.726,3.219-2.413,6.108-3.724,9.107c-1.975,4.516-3.369,9.248-4.049,14.135
						c-0.513,3.683-1.224,8.516,2.367,10.922c1.981,1.327,5.058,1.538,6.843-0.291c4.62-4.735-4.629-6.737-3.438-2.607
						c1.013,3.512,6.021-0.937,1.703-2.015C333.108,233.175,332.613,234.967,333.774,235.257L333.774,235.257z"/>
				</g>
				<g>
					<path d="M329.963,224.443c1.056-0.982,2.637-2.645,4.174-2.68c-0.299-0.227-0.597-0.455-0.896-0.682
						c0.165,0.693-2.808,1.957-3.303,2.244c-1.12,0.648-2.111,1.455-2.711,2.622c-0.546,1.062,1.057,2.003,1.605,0.938
						c0.855-1.661,2.693-2.194,4.176-3.139c1.105-0.704,2.372-1.706,2.026-3.159c-0.092-0.388-0.5-0.691-0.896-0.682
						c-2.147,0.048-3.997,1.838-5.488,3.224C327.771,223.945,329.088,225.257,329.963,224.443L329.963,224.443z"/>
				</g>
				<g>
					<path d="M331.699,213.128c0.305-1.817,0.028-3.599-1.019-5.146c-0.715-1.056-2.253-2.666-3.695-2.088
						c-1.667,0.669-0.757,2.307,0.004,3.273c0.772,0.979,1.555,1.97,2.045,3.126c0.549,1.294,0.357,2.599,0.562,3.951
						c0.179,1.179,1.97,0.678,1.792-0.494c-0.185-1.221,0.011-2.341-0.382-3.537c-0.359-1.091-0.978-2.079-1.651-2.999
						c-0.277-0.379-0.552-0.778-0.867-1.128c-0.1-0.239-0.282-0.329-0.546-0.268c0.339,0.219,0.63,0.487,0.874,0.804
						c0.966,1.12,1.336,2.56,1.091,4.015C329.71,213.803,331.501,214.307,331.699,213.128L331.699,213.128z"/>
				</g>
			</g>
		</g>
		<g>
			<path d="M334.981,189.759c0.218-1.236,0.773-2.417,1.794-3.191c0.29-0.22-0.34,0.436-0.434,0.551
				c-0.188,0.228-0.393,0.442-0.606,0.647c-0.494,0.475-1.03,0.84-1.685,1.053c0.35,0.455,0.7,0.91,1.049,1.365
				c0.578-1.001,1.238-1.924,2.009-2.786c0.795-0.889-0.515-2.208-1.314-1.314c-0.874,0.977-1.644,2.027-2.3,3.162
				c-0.391,0.676,0.262,1.621,1.049,1.365c1.296-0.421,2.343-1.247,3.206-2.289c0.736-0.888,1.408-2.357,0.346-3.301
				c-1.056-0.938-2.39-0.127-3.174,0.728c-0.906,0.986-1.501,2.2-1.733,3.517C332.983,190.435,334.774,190.937,334.981,189.759
				L334.981,189.759z"/>
		</g>
		<g>
			<path d="M229.559,189.265c-0.231-1.314-0.826-2.535-1.733-3.517c-0.788-0.854-2.118-1.667-3.175-0.728
				c-1.062,0.944-0.39,2.415,0.346,3.301c0.865,1.042,1.909,1.868,3.206,2.289c0.787,0.255,1.442-0.687,1.049-1.365
				c-0.656-1.135-1.426-2.185-2.3-3.162c-0.799-0.893-2.11,0.425-1.314,1.314c0.771,0.862,1.431,1.785,2.009,2.786
				c0.35-0.455,0.7-0.91,1.049-1.365c-0.604-0.196-1.11-0.522-1.578-0.95c-0.217-0.199-0.425-0.414-0.617-0.638
				c-0.156-0.168-0.295-0.35-0.418-0.544c-0.279-0.231-0.316-0.27-0.112-0.119c1.019,0.774,1.576,1.957,1.794,3.191
				C227.974,190.935,229.766,190.437,229.559,189.265L229.559,189.265z"/>
		</g>
		<g>
			<path d="M281.627,181.474c-0.315-0.658-0.562-1.342-0.716-2.056c-0.097-0.45-0.102-0.903-0.18-1.353
				c-0.035-0.202-0.417-1.37-0.193-0.652c0.46,1.477,0.126,2.79-0.299,4.238c-0.338,1.15,1.455,1.641,1.792,0.494
				c0.405-1.377,0.788-2.8,0.564-4.245c-0.168-1.085-0.714-2.629-2.061-2.542c-3.093,0.199-1.222,5.57-0.512,7.054
				C280.538,183.49,282.141,182.548,281.627,181.474L281.627,181.474z"/>
		</g>
	</g>
</svg>
