<?xml version="1.0" encoding="utf-8"?>
<svg version="1.1" xmlns="http://www.w3.org/2000/svg" xmlns:xlink="http://www.w3.org/1999/xlink" xml:space="preserve" viewBox="310 243 49 240">
<g>
		<g>
			<g>
				<path d="M341.826,478.385c3.845-9.392,1.838-19.147-2.044-28.189c-4.784-11.143-13.176-25.453-6.133-37.611
					c0.714-1.233-1.195-2.346-1.908-1.115c-4.531,7.822-2.965,20.047,0.48,28.015c5.368,12.415,13.159,24.426,7.473,38.313
					C339.157,479.113,341.293,479.685,341.826,478.385L341.826,478.385z"/>
			</g>
			<g>
				<path d="M336.499,443.172c0.192-5.103,2.308-9.615,6.051-13.074c1.047-0.967-0.519-2.526-1.562-1.562
					c-4.158,3.842-6.486,8.986-6.698,14.636C334.236,444.594,336.445,444.592,336.499,443.172L336.499,443.172z"/>
			</g>
			<g>
				<path d="M342.93,460.214c-2.394-4.915-7.122-8.049-12.537-8.54c-1.416-0.128-1.407,2.082,0,2.209
					c4.66,0.423,8.594,3.265,10.63,7.445C341.644,462.607,343.55,461.488,342.93,460.214L342.93,460.214z"/>
			</g>
			<g>
				<path d="M331.756,430.948c-1.604-4.858-6.105-7.139-10.686-8.599c-1.358-0.433-1.939,1.699-0.587,2.13
					c3.777,1.204,7.803,2.998,9.142,7.056C330.069,432.88,332.204,432.304,331.756,430.948L331.756,430.948z"/>
			</g>
			<g>
				<path d="M344.271,429.208c0.185-0.76,0.536-1.341,0.985-1.984c0.188-0.268,0.374-0.55,0.591-0.794
					c0.305-0.344,0.44-0.275,0.085-0.257c-0.636-1.108-1.272-2.216-1.908-3.324c-0.874,1.572-1.869,3.026-3.235,4.21
					c-0.902,0.782-0.801,2.323,0,3.125c0.895,0.895,2.22,0.784,3.125,0c1.623-1.407,2.887-3.237,3.926-5.105
					c0.778-1.399-0.184-3.41-1.908-3.324c-2.982,0.148-5.271,3.606-5.922,6.28C339.337,430.796,343.597,431.974,344.271,429.208
					L344.271,429.208z"/>
			</g>
			<g>
				<path d="M323.361,421.699c-1.658-1.659-4.76-3.15-7.147-2.273c-1.031,0.379-1.484,1.081-1.622,2.13
					c-0.209,1.59,1.448,2.549,2.703,3.007c1.357,0.495,2.762,0.883,4.14,1.319c2.718,0.859,3.881-3.405,1.175-4.261
					c-0.817-0.258-1.633-0.516-2.45-0.775c-0.369-0.117-0.849-0.381-1.225-0.387c-0.215-0.003-0.609-0.362-0.248,0.149
					c0.101,0.372,0.201,0.743,0.302,1.115c0.007-0.056,0.015-0.111,0.022-0.167c-0.541,0.71-1.081,1.42-1.622,2.131
					c0.714-0.262,2.15,0.439,2.848,1.137C322.249,426.838,325.374,423.714,323.361,421.699L323.361,421.699z"/>
			</g>
			<g>
				<path d="M331.406,450.587c-1.573-0.781-3.272-1.218-5.039-1.079c-1.59,0.125-3.539,0.535-4.471,1.947
					c-0.447,0.676-0.35,1.547,0,2.23c1.159,2.262,5.318,1.673,7.415,1.41c1.184-0.148,2.209-0.909,2.209-2.209
					c0-1.079-1.017-2.359-2.209-2.209c-1.446,0.181-3.4,0.472-4.803-0.009c0.44,0.338,0.88,0.677,1.32,1.015
					c-0.039-0.076-0.078-0.152-0.117-0.229c0,0.743,0,1.487,0,2.23c0.029-0.043,0.057-0.087,0.086-0.13
					c-0.264,0.264-0.528,0.528-0.793,0.793c1.207-0.726,2.962-0.546,4.171,0.054C331.714,455.663,333.956,451.853,331.406,450.587
					L331.406,450.587z"/>
			</g>
			<g>
				<path d="M334.669,411.825c0.013-1.839,0.668-3.719,2.097-4.942c-0.325,0.189-0.65,0.379-0.975,0.568
					c0.103-0.031,0.206-0.061,0.309-0.091c-0.568-0.074-1.135-0.148-1.702-0.223c0.094,0.043,0.189,0.087,0.283,0.13
					c-0.264-0.264-0.528-0.528-0.793-0.793c-0.123-0.198-0.212,0.43-0.319,0.668c-0.159,0.354-0.377,0.691-0.578,1.022
					c-0.426,0.7-0.892,1.366-1.413,1.998c-0.758,0.92-0.901,2.224,0,3.125c0.782,0.782,2.362,0.925,3.125,0
					c1.293-1.568,2.682-3.348,3.282-5.322c0.581-1.91,0.219-4.581-2.178-4.905c-1.949-0.264-3.402,1.831-4.202,3.339
					c-0.894,1.686-1.34,3.52-1.354,5.426C330.23,414.669,334.649,414.672,334.669,411.825L334.669,411.825z"/>
			</g>
		</g>
		<g>
			<g>
				<path d="M329.442,425.997c-5.678-13.867,2.1-25.912,7.473-38.313c3.452-7.967,5.009-20.197,0.48-28.015
					c-0.712-1.23-2.622-0.119-1.908,1.115c7.049,12.168-1.345,26.459-6.133,37.611c-3.883,9.045-5.89,18.796-2.044,28.189
					C327.843,427.883,329.981,427.314,329.442,425.997L329.442,425.997z"/>
			</g>
			<g>
				<path d="M334.848,391.371c-0.212-5.65-2.54-10.794-6.698-14.636c-1.043-0.964-2.609,0.595-1.562,1.562
					c3.743,3.459,5.859,7.97,6.051,13.074C332.692,392.789,334.901,392.796,334.848,391.371L334.848,391.371z"/>
			</g>
			<g>
				<path d="M328.115,409.528c2.036-4.181,5.968-7.023,10.629-7.445c1.405-0.127,1.418-2.338,0-2.209
					c-5.416,0.491-10.143,3.625-12.537,8.54C325.587,409.686,327.492,410.808,328.115,409.528L328.115,409.528z"/>
			</g>
			<g>
				<path d="M339.511,379.735c1.34-4.058,5.368-5.853,9.142-7.056c1.35-0.43,0.773-2.564-0.587-2.13
					c-4.582,1.461-9.081,3.74-10.686,8.599C336.934,380.501,339.067,381.081,339.511,379.735L339.511,379.735z"/>
			</g>
			<g>
				<path d="M329.127,376.233c-0.363-1.488-1.172-2.728-2.088-3.93c-1.005-1.319-2.104-2.264-3.835-2.35
					c-1.724-0.086-2.686,1.926-1.908,3.324c1.038,1.867,2.303,3.698,3.926,5.105c0.901,0.781,2.238,0.886,3.124,0
					c0.799-0.799,0.905-2.34,0-3.125c-1.366-1.185-2.361-2.639-3.235-4.211c-0.636,1.108-1.272,2.216-1.908,3.325
					c-0.402-0.02-0.136-0.041,0.051,0.225c0.197,0.279,0.427,0.545,0.625,0.827c0.447,0.639,0.8,1.224,0.985,1.984
					C325.539,380.169,329.801,379,329.127,376.233L329.127,376.233z"/>
			</g>
			<g>
				<path d="M348.9,373.023c0.7-0.7,2.126-1.402,2.848-1.137c-0.541-0.71-1.081-1.42-1.622-2.13
					c0.007,0.056,0.015,0.111,0.022,0.167c0.1-0.372,0.201-0.743,0.302-1.115c0.336-0.475,0.005-0.177-0.248-0.149
					c-0.373,0.041-0.867,0.274-1.225,0.387c-0.816,0.258-1.633,0.516-2.45,0.775c-2.702,0.854-1.548,5.122,1.175,4.261
					c1.377-0.435,2.786-0.818,4.14-1.319c1.257-0.465,2.913-1.41,2.703-3.007c-0.139-1.058-0.605-1.757-1.622-2.13
					c-2.387-0.876-5.491,0.615-7.147,2.273C343.763,371.912,346.887,375.038,348.9,373.023L348.9,373.023z"/>
			</g>
			<g>
				<path d="M339.961,402.602c1.208-0.6,2.964-0.781,4.172-0.054c-0.264-0.264-0.528-0.528-0.793-0.793
					c0.029,0.043,0.057,0.087,0.086,0.13c0-0.743,0-1.487,0-2.23c-0.039,0.076-0.078,0.152-0.117,0.229
					c0.44-0.338,0.88-0.677,1.32-1.015c-1.4,0.479-3.36,0.189-4.803,0.009c-1.186-0.148-2.209,1.122-2.209,2.209
					c0,1.317,1.02,2.061,2.209,2.209c2.09,0.262,6.255,0.853,7.415-1.41c0.35-0.684,0.447-1.554,0-2.23
					c-0.938-1.42-2.874-1.814-4.471-1.947c-1.766-0.147-3.468,0.298-5.039,1.079C335.184,400.051,337.42,403.863,339.961,402.602
					L339.961,402.602z"/>
			</g>
			<g>
				<path d="M338.887,360.024c-0.014-1.897-0.455-3.749-1.354-5.426c-0.808-1.507-2.247-3.604-4.202-3.339
					c-2.379,0.322-2.777,2.997-2.178,4.905c0.62,1.975,1.984,3.748,3.282,5.322c0.76,0.921,2.338,0.787,3.125,0
					c0.911-0.911,0.761-2.201,0-3.125c-0.521-0.632-0.987-1.298-1.413-1.998c-0.201-0.33-0.418-0.67-0.578-1.022
					c-0.107-0.235-0.155-0.932-0.319-0.668c-0.264,0.264-0.528,0.528-0.793,0.793c0.094-0.043,0.189-0.087,0.283-0.13
					c-0.568,0.074-1.135,0.148-1.703,0.223c0.103,0.031,0.206,0.061,0.309,0.092c-0.325-0.189-0.65-0.379-0.975-0.568
					c1.429,1.222,2.084,3.103,2.097,4.942C334.488,362.866,338.907,362.873,338.887,360.024L338.887,360.024z"/>
			</g>
		</g>
		<g>
			<g>
				<path d="M341.516,375.088c3.845-9.392,1.839-19.147-2.044-28.189c-4.784-11.143-13.176-25.453-6.133-37.611
					c0.714-1.233-1.194-2.346-1.908-1.115c-4.531,7.822-2.965,20.047,0.48,28.015c5.368,12.415,13.159,24.426,7.473,38.313
					C338.847,375.815,340.984,376.388,341.516,375.088L341.516,375.088z"/>
			</g>
			<g>
				<path d="M336.189,339.875c0.192-5.103,2.308-9.615,6.051-13.074c1.047-0.967-0.519-2.526-1.562-1.562
					c-4.158,3.842-6.486,8.986-6.698,14.636C333.926,341.297,336.136,341.295,336.189,339.875L336.189,339.875z"/>
			</g>
			<g>
				<path d="M342.62,356.917c-2.394-4.915-7.122-8.049-12.537-8.54c-1.416-0.128-1.407,2.082,0,2.209
					c4.66,0.422,8.593,3.265,10.629,7.445C341.335,359.31,343.241,358.191,342.62,356.917L342.62,356.917z"/>
			</g>
			<g>
				<path d="M331.447,327.651c-1.604-4.858-6.105-7.139-10.686-8.599c-1.358-0.433-1.939,1.7-0.587,2.131
					c3.777,1.204,7.803,2.998,9.143,7.056C329.76,329.582,331.894,329.007,331.447,327.651L331.447,327.651z"/>
			</g>
			<g>
				<path d="M343.961,325.911c0.185-0.76,0.536-1.341,0.985-1.984c0.188-0.268,0.374-0.55,0.591-0.794
					c0.305-0.344,0.44-0.275,0.085-0.257c-0.636-1.108-1.272-2.216-1.908-3.325c-0.874,1.572-1.869,3.026-3.235,4.21
					c-0.902,0.782-0.802,2.323,0,3.125c0.895,0.895,2.22,0.784,3.125,0c1.623-1.407,2.887-3.237,3.926-5.105
					c0.778-1.399-0.184-3.41-1.908-3.325c-2.982,0.148-5.271,3.606-5.922,6.28C339.027,327.499,343.287,328.677,343.961,325.911
					L343.961,325.911z"/>
			</g>
			<g>
				<path d="M323.051,318.402c-1.658-1.659-4.76-3.15-7.147-2.273c-1.031,0.378-1.484,1.081-1.622,2.13
					c-0.209,1.59,1.448,2.549,2.703,3.007c1.357,0.495,2.762,0.883,4.14,1.319c2.718,0.859,3.881-3.405,1.175-4.261
					c-0.816-0.258-1.633-0.516-2.45-0.775c-0.369-0.117-0.849-0.381-1.225-0.387c-0.215-0.004-0.609-0.362-0.248,0.149
					c0.101,0.372,0.201,0.743,0.302,1.115c0.007-0.056,0.015-0.111,0.022-0.167c-0.541,0.71-1.081,1.42-1.622,2.13
					c0.714-0.262,2.15,0.439,2.848,1.137C321.939,323.541,325.065,320.417,323.051,318.402L323.051,318.402z"/>
			</g>
			<g>
				<path d="M331.096,347.289c-1.573-0.781-3.272-1.218-5.039-1.079c-1.59,0.125-3.538,0.535-4.471,1.947
					c-0.447,0.676-0.35,1.547,0,2.23c1.159,2.262,5.318,1.673,7.415,1.41c1.184-0.148,2.209-0.909,2.209-2.209
					c0-1.079-1.017-2.359-2.209-2.209c-1.446,0.181-3.4,0.472-4.803-0.009c0.44,0.338,0.88,0.677,1.32,1.015
					c-0.039-0.076-0.078-0.152-0.117-0.228c0,0.743,0,1.487,0,2.23c0.029-0.043,0.057-0.087,0.086-0.13
					c-0.264,0.264-0.528,0.528-0.793,0.793c1.207-0.726,2.962-0.546,4.172,0.054C331.405,352.366,333.646,348.556,331.096,347.289
					L331.096,347.289z"/>
			</g>
			<g>
				<path d="M334.36,308.527c0.013-1.839,0.668-3.719,2.097-4.942c-0.325,0.189-0.65,0.379-0.975,0.568
					c0.103-0.03,0.206-0.061,0.309-0.091c-0.567-0.074-1.135-0.148-1.702-0.223c0.094,0.043,0.189,0.087,0.283,0.13
					c-0.264-0.264-0.528-0.528-0.793-0.793c-0.123-0.198-0.212,0.43-0.319,0.667c-0.159,0.354-0.377,0.691-0.578,1.022
					c-0.426,0.7-0.892,1.366-1.413,1.998c-0.758,0.92-0.901,2.224,0,3.124c0.782,0.782,2.362,0.925,3.125,0
					c1.293-1.568,2.682-3.347,3.282-5.322c0.581-1.91,0.219-4.581-2.178-4.905c-1.949-0.264-3.402,1.831-4.202,3.339
					c-0.894,1.686-1.34,3.52-1.354,5.426C329.92,311.372,334.339,311.375,334.36,308.527L334.36,308.527z"/>
			</g>
		</g>
		<g>
			<g>
				<path d="M329.132,322.7c-5.678-13.867,2.1-25.912,7.473-38.313c3.452-7.967,5.009-20.197,0.48-28.015
					c-0.712-1.23-2.622-0.119-1.908,1.115c7.049,12.168-1.345,26.459-6.133,37.611c-3.883,9.045-5.89,18.796-2.044,28.189
					C327.533,324.585,329.671,324.017,329.132,322.7L329.132,322.7z"/>
			</g>
			<g>
				<path d="M334.538,288.074c-0.212-5.65-2.54-10.794-6.698-14.636c-1.043-0.964-2.609,0.595-1.562,1.562
					c3.743,3.459,5.859,7.97,6.051,13.074C332.382,289.492,334.592,289.499,334.538,288.074L334.538,288.074z"/>
			</g>
			<g>
				<path d="M327.805,306.231c2.036-4.181,5.968-7.023,10.63-7.445c1.404-0.127,1.418-2.338,0-2.209
					c-5.416,0.491-10.143,3.625-12.537,8.54C325.278,306.389,327.182,307.51,327.805,306.231L327.805,306.231z"/>
			</g>
			<g>
				<path d="M339.202,276.438c1.34-4.058,5.368-5.853,9.143-7.056c1.35-0.43,0.773-2.564-0.587-2.13
					c-4.582,1.461-9.081,3.74-10.686,8.599C336.624,277.204,338.757,277.784,339.202,276.438L339.202,276.438z"/>
			</g>
			<g>
				<path d="M328.818,272.936c-0.363-1.488-1.172-2.728-2.088-3.93c-1.005-1.319-2.104-2.264-3.835-2.35
					c-1.724-0.086-2.686,1.926-1.908,3.324c1.038,1.867,2.303,3.698,3.926,5.105c0.901,0.781,2.239,0.886,3.125,0
					c0.798-0.799,0.905-2.34,0-3.125c-1.366-1.185-2.361-2.639-3.235-4.21c-0.636,1.108-1.272,2.216-1.908,3.325
					c-0.402-0.02-0.136-0.041,0.051,0.225c0.197,0.279,0.427,0.545,0.625,0.827c0.447,0.639,0.8,1.224,0.985,1.984
					C325.229,276.872,329.492,275.703,328.818,272.936L328.818,272.936z"/>
			</g>
			<g>
				<path d="M348.591,269.726c0.7-0.7,2.126-1.402,2.848-1.137c-0.541-0.71-1.081-1.42-1.622-2.13
					c0.007,0.056,0.015,0.111,0.022,0.167c0.101-0.372,0.201-0.743,0.302-1.115c0.336-0.475,0.005-0.177-0.248-0.149
					c-0.372,0.041-0.867,0.274-1.225,0.387c-0.816,0.258-1.633,0.516-2.45,0.775c-2.702,0.854-1.548,5.122,1.175,4.261
					c1.377-0.435,2.786-0.818,4.14-1.319c1.257-0.465,2.913-1.41,2.703-3.007c-0.139-1.058-0.605-1.757-1.622-2.13
					c-2.387-0.876-5.491,0.615-7.147,2.273C343.454,268.615,346.578,271.741,348.591,269.726L348.591,269.726z"/>
			</g>
			<g>
				<path d="M339.652,299.304c1.208-0.6,2.964-0.781,4.171-0.054c-0.264-0.264-0.528-0.528-0.793-0.793
					c0.029,0.043,0.057,0.087,0.086,0.13c0-0.743,0-1.487,0-2.23c-0.039,0.076-0.078,0.152-0.117,0.229
					c0.44-0.338,0.88-0.677,1.32-1.015c-1.4,0.479-3.36,0.189-4.803,0.008c-1.186-0.148-2.209,1.122-2.209,2.209
					c0,1.317,1.02,2.06,2.209,2.209c2.09,0.262,6.255,0.853,7.415-1.41c0.35-0.684,0.447-1.554,0-2.23
					c-0.938-1.42-2.874-1.814-4.471-1.947c-1.767-0.147-3.468,0.298-5.039,1.079C334.875,296.754,337.111,300.566,339.652,299.304
					L339.652,299.304z"/>
			</g>
			<g>
				<path d="M338.577,256.727c-0.014-1.897-0.455-3.749-1.354-5.426c-0.808-1.507-2.247-3.604-4.202-3.339
					c-2.379,0.322-2.777,2.997-2.178,4.905c0.62,1.976,1.984,3.748,3.282,5.322c0.76,0.921,2.338,0.787,3.125,0
					c0.912-0.911,0.761-2.201,0-3.125c-0.521-0.632-0.987-1.298-1.413-1.998c-0.201-0.33-0.418-0.67-0.578-1.022
					c-0.107-0.235-0.155-0.932-0.319-0.668c-0.264,0.264-0.528,0.528-0.793,0.793c0.094-0.043,0.189-0.087,0.283-0.13
					c-0.568,0.074-1.135,0.149-1.702,0.223c0.103,0.031,0.206,0.061,0.309,0.092c-0.325-0.189-0.65-0.379-0.975-0.568
					c1.429,1.222,2.084,3.103,2.097,4.942C334.179,259.569,338.598,259.576,338.577,256.727L338.577,256.727z"/>
			</g>
		</g>
	</g>
</svg>
