<?xml version="1.0" encoding="utf-8"?>
<svg version="1.1" xmlns="http://www.w3.org/2000/svg" xmlns:xlink="http://www.w3.org/1999/xlink" xml:space="preserve" viewBox="333 15 146 146">
<g>
		<g>
			<g>
				<path d="M376.904,38.468c18.881-8.347,40.317-8.44,59.327-0.452c1.204,0.506,1.73-1.46,0.54-1.96
					c-19.553-8.216-41.516-7.909-60.893,0.657C374.684,37.241,375.717,38.993,376.904,38.468L376.904,38.468z"/>
			</g>
			<g>
				<path d="M389.242,34.343c3.779-0.219,7.322,0.889,10.235,3.33c0.996,0.835,2.442-0.596,1.437-1.437
					c-3.314-2.777-7.344-4.176-11.672-3.925C387.941,32.385,387.933,34.418,389.242,34.343L389.242,34.343z"/>
			</g>
			<g>
				<path d="M396.702,32.282c2.719-1.74,5.357-3.538,7.278-6.181c0.77-1.059-0.993-2.075-1.755-1.026
					c-1.7,2.339-4.149,3.916-6.549,5.452C394.578,31.23,395.596,32.99,396.702,32.282L396.702,32.282z"/>
			</g>
			<g>
				<path d="M412.885,32.609c2.287,0.785,3.618,2.88,4.763,4.876c0.651,1.135,2.408,0.112,1.755-1.026
					c-1.435-2.503-3.147-4.839-5.978-5.811C412.186,30.223,411.653,32.186,412.885,32.609L412.885,32.609z"/>
			</g>
			<g>
				<path d="M423.974,33.794c3.553-0.842,7.057-0.774,10.579,0.189c1.264,0.345,1.803-1.615,0.54-1.96
					c-3.864-1.056-7.763-1.113-11.66-0.189C422.161,32.136,422.7,34.097,423.974,33.794L423.974,33.794z"/>
			</g>
			<g>
				<path d="M403.217,27.083c0.469-0.895,0.54-1.805,0.811-2.758c0.168-0.591,0.759-2.07,1.51-2.18
					c0.358-0.053-0.059,0.365-0.203,0.575c-0.267,0.389-0.595,0.732-0.947,1.045c-0.7,0.624-1.518,1.093-2.34,1.533
					c-1.154,0.618-0.128,2.373,1.026,1.755c1.442-0.772,2.844-1.698,3.822-3.036c0.783-1.071,1.474-2.749,0.181-3.735
					c-1.157-0.883-2.789,0.052-3.625,0.965c-0.483,0.527-0.864,1.153-1.135,1.813c-0.398,0.97-0.367,2.064-0.855,2.996
					C400.855,27.215,402.608,28.243,403.217,27.083L403.217,27.083z"/>
			</g>
			<g>
				<path d="M398.404,37.179c1.122,1.252,1.099,3.232,1.751,4.728c0.66,1.514,2.229,2.495,3.702,1.297
					c1.384-1.126,1.001-3.125,0.272-4.509c-0.84-1.595-2.328-2.703-4.035-3.215c-1.256-0.376-1.792,1.585-0.54,1.96
					c1.033,0.31,1.934,0.913,2.546,1.813c0.264,0.388,0.597,0.946,0.626,1.424c0.016,0.266-0.025,0.945-0.524,0.803
					c-0.159-0.045-0.31-0.69-0.352-0.814c-0.58-1.716-0.752-3.524-2.008-4.926C398.967,34.765,397.533,36.207,398.404,37.179
					L398.404,37.179z"/>
			</g>
			<g>
				<path d="M417.454,37.431c0.267,1.481-0.579,2.943-0.108,4.437c0.489,1.549,2.006,2.258,3.53,1.763
					c1.687-0.549,1.777-2.3,1.297-3.763c-0.497-1.515-1.53-2.746-2.888-3.565c-1.123-0.677-2.146,1.08-1.026,1.755
					c0.791,0.477,1.436,1.135,1.815,1.989c0.119,0.268,0.286,0.69,0.304,0.991c0.046,0.756-0.719,0.99-1.072,0.29
					c-0.295-0.586-0.013-1.523,0.076-2.136c0.115-0.786,0.173-1.515,0.032-2.301C419.183,35.605,417.223,36.15,417.454,37.431
					L417.454,37.431z"/>
			</g>
			<g>
				<path d="M434.667,33.774c0.791-0.34,3.922-1.305,4.545-0.33c0.241,0.378-0.064,0.658-0.389,0.725
					c-0.339,0.07-0.796-0.237-1.063-0.416c-0.667-0.447-1.21-1.097-1.828-1.609c-1-0.828-2.446,0.602-1.437,1.437
					c1.289,1.067,2.48,2.637,4.328,2.62c1.26-0.012,2.515-0.938,2.611-2.248c0.113-1.526-1.241-2.577-2.614-2.797
					c-1.695-0.272-3.631,0.197-5.179,0.863C432.443,32.534,433.477,34.286,434.667,33.774L434.667,33.774z"/>
			</g>
			<g>
				<path d="M433.931,37.462c1.376,1.292,2.049,3.077,3.198,4.543c0.816,1.041,2.584,2.126,3.785,0.982
					c1.007-0.959,0.548-2.898-0.015-3.965c-0.777-1.473-2.228-2.4-3.831-2.734c-1.276-0.266-1.822,1.693-0.54,1.96
					c1.034,0.215,1.996,0.687,2.535,1.642c0.177,0.313,0.379,0.8,0.376,1.171c-0.006,0.785-0.494-0.006-0.782-0.382
					c-1.164-1.524-1.865-3.317-3.288-4.653C434.416,35.13,432.975,36.564,433.931,37.462L433.931,37.462z"/>
			</g>
			<g>
				<path d="M413.455,31.359c2.171-1.944,4.836-2.949,7.747-2.963c1.308-0.007,1.31-2.039,0-2.033
					c-3.454,0.017-6.615,1.257-9.184,3.559C411.042,30.796,412.483,32.23,413.455,31.359L413.455,31.359z"/>
			</g>
			<g>
				<path d="M422.405,27.492c0.389-0.407,0.788-0.826,1.318-1.044c0.174-0.072,1.455-0.345,1.298,0.162
					c-0.082,0.265-0.966,0.257-1.167,0.247c-0.583-0.029-1.163-0.241-1.715-0.415c-1.251-0.394-1.786,1.567-0.54,1.96
					c1.237,0.39,2.552,0.716,3.818,0.257c1.016-0.368,1.955-1.271,1.731-2.441c-0.218-1.137-1.377-1.867-2.469-1.955
					c-1.495-0.12-2.727,0.762-3.711,1.791C420.064,27,421.499,28.44,422.405,27.492L422.405,27.492z"/>
			</g>
		</g>
		<g>
			<g>
				<path d="M350.316,73.384c7.365-19.121,22.418-34.468,41.402-42.187c1.196-0.486,0.673-2.453-0.54-1.96
					c-19.712,8.014-35.172,23.747-42.822,43.606C347.885,74.066,349.85,74.594,350.316,73.384L350.316,73.384z"/>
			</g>
			<g>
				<path d="M356.126,61.73c2.501-2.823,5.821-4.56,9.592-4.883c1.294-0.111,1.305-2.144,0-2.033
					c-4.296,0.368-8.162,2.241-11.029,5.478C353.824,61.269,355.257,62.712,356.126,61.73L356.126,61.73z"/>
			</g>
			<g>
				<path d="M359.941,55.01c0.696-3.177,1.263-6.291,0.776-9.542c-0.193-1.289-2.152-0.741-1.96,0.54
					c0.429,2.858-0.165,5.676-0.776,8.461C357.702,55.745,359.661,56.289,359.941,55.01L359.941,55.01z"/>
			</g>
			<g>
				<path d="M371.63,43.779c2.186-1.038,4.562-0.517,6.793,0.083c1.265,0.34,1.804-1.62,0.54-1.96
					c-2.823-0.76-5.631-1.174-8.359,0.122C369.423,42.585,370.453,44.338,371.63,43.779L371.63,43.779z"/>
			</g>
			<g>
				<path d="M380.291,36.795c1.885-3.106,4.464-5.586,7.631-7.364c1.141-0.64,0.117-2.397-1.026-1.755
					c-3.461,1.943-6.302,4.701-8.361,8.094C377.856,36.89,379.613,37.913,380.291,36.795L380.291,36.795z"/>
			</g>
			<g>
				<path d="M360.872,46.703c-0.47-1.508-1.814-2.612-1.921-4.243c-0.018-0.278-0.095-0.813,0.171-0.963
					c0.002-0.001,0.247,1.501,0.248,1.649c0.009,1.067-0.277,2.111-0.579,3.124c-0.375,1.256,1.587,1.793,1.96,0.54
					c0.558-1.869,0.966-3.945,0.331-5.853c-0.376-1.13-1.436-2.223-2.724-1.663c-1.284,0.558-1.543,2.342-1.398,3.561
					c0.083,0.698,0.278,1.39,0.594,2.02c0.412,0.822,1.079,1.479,1.357,2.37C359.3,48.488,361.263,47.957,360.872,46.703
					L360.872,46.703z"/>
			</g>
			<g>
				<path d="M364.611,57.257c1.977,0.14,3.4,1.946,5.316,2.347c1.5,0.314,2.848-0.658,2.812-2.231
					c-0.089-3.819-5.797-3.743-8.145-2.505c-1.158,0.611-0.131,2.366,1.026,1.755c0.977-0.515,2.052-0.728,3.148-0.496
					c0.392,0.083,1.085,0.213,1.363,0.543c0.559,0.25,0.52,0.531-0.12,0.843c-0.245-0.096-0.483-0.209-0.712-0.337
					c-1.553-0.807-2.885-1.823-4.687-1.951C363.306,55.132,363.311,57.165,364.611,57.257L364.611,57.257z"/>
			</g>
			<g>
				<path d="M378.248,43.959c1.164,0.802,1.6,2.339,2.84,3.091c1.357,0.823,2.996,0.513,3.832-0.86
					c0.935-1.537,0.069-2.889-1.343-3.7c-1.473-0.846-3.197-1.015-4.832-0.614c-1.27,0.312-0.732,2.273,0.54,1.96
					c0.992-0.244,2.023-0.195,2.958,0.246c0.198,0.093,0.839,0.399,0.93,0.605c0.343,0.78-0.624,0.854-1.058,0.608
					c-0.559-0.318-0.946-1.053-1.324-1.555c-0.447-0.594-0.901-1.113-1.516-1.536C378.195,41.459,377.177,43.22,378.248,43.959
					L378.248,43.959z"/>
			</g>
			<g>
				<path d="M387.841,29.22c0.334-0.846,0.857-1.604,1.436-2.299c0.331-0.397,1.006-1.296,1.635-1.16
					c1.044,0.227-0.37,1.131-0.776,1.228c-0.822,0.195-1.712,0.088-2.55,0.171c-1.29,0.128-1.303,2.162,0,2.033
					c1.673-0.166,3.612,0.116,4.913-1.208c0.949-0.966,1.126-2.653,0.082-3.622c-2.745-2.545-5.874,2.221-6.7,4.316
					C385.401,29.897,387.366,30.425,387.841,29.22L387.841,29.22z"/>
			</g>
			<g>
				<path d="M389.932,32.336c1.778-0.036,8.775,2.769,8.836-1.024c0.021-1.317-1.457-2.301-2.556-2.71
					c-1.674-0.622-3.43-0.235-4.904,0.692c-1.105,0.695-0.086,2.454,1.026,1.755c0.939-0.59,2.024-0.947,3.125-0.57
					c0.344,0.118,1.421,0.475,0.838,0.753c-0.417,0.199-1.06-0.033-1.477-0.12c-1.633-0.34-3.203-0.844-4.888-0.81
					C388.626,30.329,388.621,32.362,389.932,32.336L389.932,32.336z"/>
			</g>
			<g>
				<path d="M371.138,42.499c0.156-2.908,1.333-5.509,3.382-7.573c0.923-0.929-0.514-2.367-1.437-1.437
					c-2.429,2.447-3.793,5.57-3.978,9.01C369.035,43.806,371.068,43.802,371.138,42.499L371.138,42.499z"/>
			</g>
			<g>
				<path d="M374.732,33.436c-0.013-0.577-0.036-1.22,0.212-1.757c0.055-0.118,0.859-1.179,1.094-0.816
					c0.096,0.149-0.497,0.872-0.626,0.998c-0.454,0.448-1.063,0.737-1.622,1.028c-1.161,0.604-0.134,2.359,1.026,1.755
					c1.189-0.619,2.378-1.346,2.922-2.633c0.449-1.064,0.342-2.432-0.818-2.974c-1.033-0.482-2.304-0.085-3.079,0.7
					c-0.971,0.984-1.171,2.377-1.141,3.699C372.729,34.742,374.762,34.747,374.732,33.436L374.732,33.436z"/>
			</g>
		</g>
		<g>
			<g>
				<path d="M356.202,116.851c-8.346-18.881-8.44-40.317-0.452-59.327c0.506-1.204-1.46-1.73-1.96-0.54
					c-8.216,19.553-7.909,41.516,0.657,60.893C354.974,119.071,356.726,118.038,356.202,116.851L356.202,116.851z"/>
			</g>
			<g>
				<path d="M352.076,104.513c-0.219-3.779,0.889-7.322,3.33-10.235c0.835-0.996-0.596-2.442-1.437-1.437
					c-2.777,3.314-4.176,7.344-3.925,11.673C350.119,105.813,352.152,105.822,352.076,104.513L352.076,104.513z"/>
			</g>
			<g>
				<path d="M350.015,97.052c-1.74-2.719-3.538-5.357-6.181-7.278c-1.06-0.77-2.075,0.993-1.026,1.755
					c2.339,1.7,3.916,4.149,5.452,6.549C348.963,99.176,350.723,98.158,350.015,97.052L350.015,97.052z"/>
			</g>
			<g>
				<path d="M350.342,80.869c0.785-2.287,2.88-3.618,4.876-4.763c1.135-0.651,0.112-2.408-1.026-1.755
					c-2.503,1.435-4.839,3.147-5.81,5.978C347.956,81.569,349.919,82.101,350.342,80.869L350.342,80.869z"/>
			</g>
			<g>
				<path d="M351.528,69.781c-0.843-3.553-0.774-7.057,0.189-10.579c0.345-1.264-1.615-1.803-1.96-0.54
					c-1.056,3.864-1.113,7.763-0.189,11.66C349.869,71.593,351.83,71.055,351.528,69.781L351.528,69.781z"/>
			</g>
			<g>
				<path d="M344.817,90.537c-0.895-0.469-1.805-0.54-2.758-0.811c-0.592-0.168-2.07-0.76-2.18-1.51
					c-0.053-0.358,0.365,0.059,0.576,0.203c0.389,0.267,0.732,0.595,1.046,0.947c0.624,0.7,1.093,1.518,1.533,2.34
					c0.618,1.154,2.373,0.128,1.755-1.026c-0.772-1.442-1.698-2.844-3.036-3.822c-1.072-0.783-2.749-1.474-3.735-0.181
					c-0.883,1.157,0.052,2.789,0.965,3.625c0.527,0.483,1.153,0.864,1.813,1.135c0.97,0.398,2.064,0.367,2.996,0.855
					C344.948,92.9,345.977,91.146,344.817,90.537L344.817,90.537z"/>
			</g>
			<g>
				<path d="M354.913,95.35c1.252-1.122,3.232-1.099,4.728-1.751c1.514-0.66,2.495-2.229,1.297-3.702
					c-1.126-1.384-3.125-1.001-4.509-0.272c-1.595,0.84-2.703,2.328-3.215,4.035c-0.376,1.256,1.585,1.792,1.96,0.54
					c0.31-1.033,0.913-1.934,1.813-2.546c0.388-0.264,0.946-0.597,1.424-0.626c0.266-0.016,0.945,0.025,0.803,0.524
					c-0.045,0.159-0.69,0.31-0.814,0.352c-1.716,0.58-3.524,0.752-4.926,2.008C352.499,94.787,353.94,96.221,354.913,95.35
					L354.913,95.35z"/>
			</g>
			<g>
				<path d="M355.165,76.3c1.481-0.267,2.943,0.579,4.437,0.108c1.549-0.489,2.258-2.006,1.763-3.53
					c-0.549-1.687-2.3-1.777-3.763-1.297c-1.515,0.497-2.746,1.53-3.565,2.888c-0.677,1.123,1.08,2.146,1.755,1.026
					c0.477-0.791,1.135-1.436,1.988-1.815c0.268-0.119,0.69-0.286,0.991-0.304c0.756-0.045,0.99,0.719,0.289,1.072
					c-0.586,0.296-1.523,0.013-2.136-0.076c-0.786-0.115-1.515-0.173-2.301-0.032C353.339,74.572,353.884,76.531,355.165,76.3
					L355.165,76.3z"/>
			</g>
			<g>
				<path d="M351.508,59.087c-0.34-0.791-1.305-3.922-0.33-4.545c0.378-0.241,0.658,0.064,0.725,0.389
					c0.07,0.339-0.237,0.796-0.416,1.063c-0.447,0.667-1.097,1.21-1.609,1.827c-0.828,1,0.602,2.446,1.437,1.437
					c1.067-1.289,2.637-2.48,2.62-4.328c-0.012-1.26-0.938-2.515-2.248-2.611c-1.526-0.113-2.577,1.241-2.797,2.614
					c-0.272,1.695,0.197,3.631,0.862,5.179C350.268,61.312,352.019,60.278,351.508,59.087L351.508,59.087z"/>
			</g>
			<g>
				<path d="M355.195,59.823c1.292-1.376,3.077-2.049,4.543-3.198c1.041-0.816,2.126-2.584,0.982-3.785
					c-0.959-1.007-2.898-0.548-3.965,0.015c-1.473,0.777-2.4,2.228-2.734,3.831c-0.266,1.277,1.693,1.822,1.96,0.54
					c0.216-1.034,0.687-1.996,1.642-2.535c0.314-0.177,0.8-0.379,1.171-0.376c0.785,0.006-0.006,0.494-0.383,0.782
					c-1.524,1.164-3.317,1.865-4.654,3.288C352.863,59.339,354.297,60.779,355.195,59.823L355.195,59.823z"/>
			</g>
			<g>
				<path d="M349.092,80.299c-1.944-2.17-2.949-4.836-2.963-7.747c-0.007-1.308-2.039-1.31-2.033,0
					c0.017,3.454,1.257,6.615,3.559,9.184C348.53,82.713,349.963,81.271,349.092,80.299L349.092,80.299z"/>
			</g>
			<g>
				<path d="M345.225,71.349c-0.407-0.389-0.826-0.788-1.044-1.318c-0.072-0.174-0.345-1.455,0.162-1.298
					c0.265,0.082,0.257,0.966,0.247,1.167c-0.029,0.583-0.241,1.163-0.415,1.715c-0.394,1.251,1.567,1.786,1.96,0.54
					c0.39-1.238,0.716-2.552,0.257-3.818c-0.368-1.016-1.271-1.955-2.441-1.731c-1.137,0.218-1.867,1.377-1.955,2.469
					c-0.12,1.495,0.761,2.727,1.791,3.711C344.733,73.691,346.173,72.255,345.225,71.349L345.225,71.349z"/>
			</g>
		</g>
		<g>
			<g>
				<path d="M391.118,143.439c-19.121-7.365-34.469-22.418-42.187-41.402c-0.486-1.196-2.453-0.673-1.96,0.54
					c8.014,19.712,23.747,35.172,43.606,42.822C391.799,145.869,392.328,143.905,391.118,143.439L391.118,143.439z"/>
			</g>
			<g>
				<path d="M379.464,137.628c-2.823-2.501-4.56-5.821-4.883-9.592c-0.111-1.294-2.144-1.305-2.033,0
					c0.367,4.296,2.241,8.162,5.478,11.029C379.003,139.93,380.445,138.498,379.464,137.628L379.464,137.628z"/>
			</g>
			<g>
				<path d="M372.744,133.813c-3.177-0.696-6.291-1.263-9.542-0.776c-1.289,0.193-0.741,2.152,0.54,1.96
					c2.858-0.429,5.676,0.165,8.461,0.776C373.478,136.052,374.023,134.093,372.744,133.813L372.744,133.813z"/>
			</g>
			<g>
				<path d="M361.513,122.125c-1.038-2.186-0.517-4.562,0.083-6.793c0.34-1.265-1.62-1.804-1.96-0.54
					c-0.76,2.823-1.174,5.631,0.122,8.359C360.318,124.332,362.071,123.301,361.513,122.125L361.513,122.125z"/>
			</g>
			<g>
				<path d="M354.528,113.463c-3.106-1.885-5.586-4.464-7.364-7.631c-0.64-1.141-2.397-0.117-1.755,1.026
					c1.943,3.461,4.701,6.302,8.094,8.361C354.623,115.899,355.646,114.141,354.528,113.463L354.528,113.463z"/>
			</g>
			<g>
				<path d="M364.436,132.883c-1.508,0.47-2.612,1.814-4.243,1.921c-0.278,0.018-0.813,0.095-0.963-0.171
					c-0.001-0.002,1.501-0.247,1.649-0.248c1.067-0.009,2.111,0.277,3.124,0.579c1.256,0.375,1.793-1.587,0.54-1.96
					c-1.869-0.557-3.945-0.966-5.853-0.331c-1.129,0.376-2.223,1.436-1.663,2.724c0.558,1.284,2.342,1.543,3.561,1.398
					c0.698-0.083,1.39-0.278,2.02-0.594c0.822-0.412,1.479-1.079,2.369-1.357C366.221,134.454,365.69,132.491,364.436,132.883
					L364.436,132.883z"/>
			</g>
			<g>
				<path d="M374.99,129.143c0.141-1.976,1.946-3.4,2.347-5.316c0.314-1.5-0.658-2.848-2.231-2.812
					c-3.819,0.089-3.743,5.797-2.505,8.145c0.61,1.158,2.366,0.131,1.755-1.026c-0.515-0.976-0.728-2.052-0.496-3.148
					c0.083-0.392,0.213-1.085,0.543-1.363c0.25-0.56,0.531-0.519,0.843,0.12c-0.096,0.245-0.209,0.483-0.337,0.712
					c-0.807,1.552-1.823,2.885-1.951,4.687C372.865,130.449,374.898,130.443,374.99,129.143L374.99,129.143z"/>
			</g>
			<g>
				<path d="M361.692,115.506c0.802-1.163,2.339-1.6,3.091-2.84c0.823-1.357,0.513-2.996-0.86-3.832
					c-1.536-0.935-2.889-0.069-3.7,1.343c-0.846,1.473-1.015,3.197-0.614,4.832c0.312,1.27,2.272,0.732,1.96-0.54
					c-0.244-0.992-0.195-2.023,0.246-2.958c0.093-0.198,0.399-0.839,0.605-0.93c0.78-0.343,0.854,0.624,0.608,1.058
					c-0.318,0.559-1.053,0.946-1.555,1.324c-0.594,0.447-1.113,0.902-1.536,1.516C359.193,115.56,360.954,116.577,361.692,115.506
					L361.692,115.506z"/>
			</g>
			<g>
				<path d="M346.954,105.913c-0.846-0.334-1.604-0.857-2.299-1.436c-0.397-0.331-1.296-1.006-1.16-1.635
					c0.227-1.044,1.131,0.37,1.228,0.776c0.195,0.821,0.088,1.712,0.171,2.55c0.128,1.29,2.162,1.303,2.033,0
					c-0.166-1.673,0.116-3.612-1.208-4.913c-0.966-0.949-2.653-1.126-3.622-0.081c-2.544,2.745,2.221,5.873,4.316,6.7
					C347.631,108.353,348.159,106.388,346.954,105.913L346.954,105.913z"/>
			</g>
			<g>
				<path d="M350.069,103.822c-0.036-1.778,2.769-8.775-1.024-8.836c-1.317-0.021-2.301,1.457-2.71,2.556
					c-0.622,1.674-0.235,3.43,0.692,4.904c0.695,1.105,2.454,0.086,1.755-1.026c-0.59-0.939-0.947-2.024-0.57-3.125
					c0.118-0.344,0.475-1.42,0.753-0.838c0.199,0.417-0.033,1.06-0.12,1.477c-0.34,1.633-0.844,3.203-0.81,4.888
					C348.063,105.128,350.096,105.133,350.069,103.822L350.069,103.822z"/>
			</g>
			<g>
				<path d="M360.232,122.616c-2.908-0.156-5.509-1.333-7.573-3.382c-0.929-0.923-2.367,0.514-1.437,1.437
					c2.447,2.429,5.57,3.793,9.01,3.978C361.539,124.719,361.536,122.686,360.232,122.616L360.232,122.616z"/>
			</g>
			<g>
				<path d="M351.169,119.022c-0.577,0.013-1.219,0.036-1.757-0.212c-0.119-0.055-1.179-0.859-0.816-1.094
					c0.149-0.096,0.871,0.497,0.998,0.626c0.448,0.454,0.737,1.063,1.028,1.622c0.604,1.161,2.359,0.134,1.755-1.026
					c-0.619-1.189-1.346-2.378-2.633-2.922c-1.065-0.449-2.432-0.342-2.974,0.818c-0.483,1.033-0.085,2.304,0.7,3.079
					c0.984,0.971,2.377,1.171,3.699,1.141C352.475,121.026,352.48,118.993,351.169,119.022L351.169,119.022z"/>
			</g>
		</g>
		<g>
			<g>
				<path d="M434.584,137.553c-18.881,8.346-40.317,8.44-59.327,0.452c-1.204-0.506-1.73,1.46-0.54,1.96
					c19.553,8.216,41.516,7.909,60.893-0.657C436.804,138.78,435.771,137.028,434.584,137.553L434.584,137.553z"/>
			</g>
			<g>
				<path d="M422.246,141.678c-3.779,0.219-7.322-0.889-10.235-3.33c-0.996-0.835-2.442,0.596-1.437,1.437
					c3.314,2.777,7.344,4.176,11.673,3.925C423.546,143.636,423.555,141.602,422.246,141.678L422.246,141.678z"/>
			</g>
			<g>
				<path d="M414.785,143.739c-2.719,1.74-5.357,3.538-7.278,6.181c-0.77,1.06,0.993,2.075,1.755,1.026
					c1.7-2.339,4.149-3.916,6.549-5.452C416.91,144.791,415.892,143.031,414.785,143.739L414.785,143.739z"/>
			</g>
			<g>
				<path d="M398.602,143.412c-2.287-0.785-3.618-2.88-4.763-4.876c-0.651-1.135-2.408-0.112-1.755,1.026
					c1.435,2.503,3.147,4.839,5.978,5.811C399.302,145.798,399.835,143.835,398.602,143.412L398.602,143.412z"/>
			</g>
			<g>
				<path d="M387.514,142.226c-3.553,0.842-7.057,0.774-10.579-0.189c-1.264-0.345-1.803,1.615-0.54,1.96
					c3.864,1.056,7.763,1.113,11.66,0.189C389.327,143.885,388.788,141.924,387.514,142.226L387.514,142.226z"/>
			</g>
			<g>
				<path d="M408.271,148.938c-0.469,0.895-0.54,1.804-0.811,2.757c-0.168,0.592-0.759,2.07-1.51,2.18
					c-0.358,0.053,0.059-0.365,0.203-0.576c0.267-0.389,0.595-0.732,0.947-1.045c0.7-0.624,1.518-1.093,2.34-1.533
					c1.154-0.618,0.128-2.373-1.026-1.755c-1.442,0.772-2.844,1.698-3.822,3.036c-0.783,1.072-1.474,2.749-0.181,3.735
					c1.157,0.883,2.789-0.052,3.625-0.965c0.483-0.527,0.864-1.153,1.135-1.813c0.398-0.97,0.367-2.064,0.855-2.995
					C410.633,148.806,408.879,147.777,408.271,148.938L408.271,148.938z"/>
			</g>
			<g>
				<path d="M413.083,138.842c-1.122-1.252-1.099-3.232-1.751-4.728c-0.66-1.513-2.229-2.494-3.702-1.297
					c-1.384,1.126-1.001,3.125-0.272,4.509c0.84,1.595,2.328,2.703,4.035,3.215c1.256,0.376,1.792-1.585,0.54-1.96
					c-1.033-0.31-1.934-0.913-2.546-1.813c-0.264-0.388-0.597-0.946-0.626-1.424c-0.016-0.266,0.025-0.945,0.524-0.803
					c0.159,0.045,0.31,0.69,0.352,0.814c0.58,1.717,0.752,3.524,2.008,4.926C412.521,141.255,413.954,139.814,413.083,138.842
					L413.083,138.842z"/>
			</g>
			<g>
				<path d="M394.034,138.589c-0.267-1.481,0.579-2.943,0.108-4.437c-0.489-1.549-2.006-2.258-3.53-1.763
					c-1.687,0.549-1.777,2.3-1.298,3.763c0.497,1.515,1.53,2.746,2.888,3.565c1.123,0.677,2.146-1.08,1.026-1.755
					c-0.791-0.477-1.436-1.135-1.815-1.988c-0.119-0.268-0.286-0.69-0.304-0.991c-0.046-0.756,0.719-0.99,1.072-0.289
					c0.296,0.586,0.013,1.523-0.076,2.136c-0.115,0.786-0.173,1.515-0.031,2.301C392.305,140.415,394.265,139.871,394.034,138.589
					L394.034,138.589z"/>
			</g>
			<g>
				<path d="M376.821,142.247c-0.791,0.34-3.922,1.305-4.545,0.33c-0.241-0.378,0.064-0.658,0.389-0.725
					c0.339-0.07,0.796,0.237,1.063,0.416c0.667,0.447,1.21,1.097,1.827,1.609c1,0.828,2.446-0.602,1.437-1.437
					c-1.289-1.067-2.48-2.637-4.328-2.62c-1.26,0.012-2.515,0.938-2.611,2.248c-0.113,1.526,1.241,2.577,2.614,2.798
					c1.695,0.272,3.631-0.197,5.179-0.863C379.045,143.487,378.011,141.735,376.821,142.247L376.821,142.247z"/>
			</g>
			<g>
				<path d="M377.556,138.559c-1.376-1.292-2.049-3.077-3.197-4.543c-0.816-1.041-2.584-2.126-3.785-0.982
					c-1.007,0.959-0.548,2.898,0.015,3.965c0.777,1.473,2.228,2.4,3.831,2.734c1.276,0.266,1.822-1.693,0.54-1.96
					c-1.034-0.216-1.996-0.687-2.535-1.642c-0.177-0.313-0.379-0.8-0.376-1.171c0.006-0.785,0.495,0.006,0.782,0.383
					c1.164,1.524,1.865,3.317,3.288,4.653C377.072,140.891,378.512,139.457,377.556,138.559L377.556,138.559z"/>
			</g>
			<g>
				<path d="M398.032,144.662c-2.171,1.944-4.836,2.949-7.747,2.963c-1.308,0.007-1.31,2.039,0,2.033
					c3.454-0.017,6.614-1.257,9.184-3.559C400.446,145.225,399.004,143.791,398.032,144.662L398.032,144.662z"/>
			</g>
			<g>
				<path d="M389.083,148.529c-0.389,0.407-0.788,0.826-1.318,1.044c-0.174,0.072-1.455,0.345-1.298-0.162
					c0.082-0.265,0.966-0.257,1.167-0.247c0.583,0.029,1.163,0.241,1.715,0.415c1.25,0.394,1.785-1.567,0.54-1.96
					c-1.238-0.39-2.552-0.717-3.818-0.257c-1.016,0.368-1.955,1.271-1.731,2.441c0.218,1.137,1.377,1.867,2.469,1.955
					c1.495,0.12,2.727-0.761,3.711-1.791C391.424,149.021,389.989,147.581,389.083,148.529L389.083,148.529z"/>
			</g>
		</g>
		<g>
			<g>
				<path d="M461.172,102.636c-7.365,19.121-22.418,34.468-41.402,42.187c-1.196,0.486-0.673,2.453,0.54,1.96
					c19.712-8.014,35.172-23.747,42.822-43.606C463.603,101.955,461.638,101.426,461.172,102.636L461.172,102.636z"/>
			</g>
			<g>
				<path d="M455.361,114.29c-2.501,2.823-5.821,4.56-9.592,4.883c-1.294,0.111-1.305,2.144,0,2.033
					c4.296-0.368,8.162-2.241,11.029-5.478C457.664,114.752,456.231,113.309,455.361,114.29L455.361,114.29z"/>
			</g>
			<g>
				<path d="M451.546,121.011c-0.696,3.177-1.263,6.291-0.776,9.542c0.193,1.289,2.152,0.741,1.96-0.54
					c-0.429-2.858,0.166-5.676,0.776-8.461C453.786,120.276,451.827,119.731,451.546,121.011L451.546,121.011z"/>
			</g>
			<g>
				<path d="M439.858,132.242c-2.186,1.038-4.562,0.517-6.793-0.083c-1.265-0.34-1.804,1.62-0.54,1.96
					c2.823,0.76,5.631,1.174,8.359-0.122C442.065,133.436,441.035,131.683,439.858,132.242L439.858,132.242z"/>
			</g>
			<g>
				<path d="M431.196,139.226c-1.885,3.106-4.464,5.586-7.631,7.364c-1.141,0.64-0.117,2.397,1.026,1.755
					c3.461-1.943,6.302-4.702,8.361-8.094C433.632,139.131,431.875,138.108,431.196,139.226L431.196,139.226z"/>
			</g>
			<g>
				<path d="M450.616,129.318c0.47,1.508,1.814,2.612,1.921,4.243c0.018,0.278,0.095,0.813-0.171,0.963
					c-0.002,0.001-0.247-1.501-0.248-1.649c-0.009-1.067,0.277-2.11,0.579-3.124c0.375-1.256-1.587-1.793-1.96-0.54
					c-0.557,1.869-0.966,3.945-0.331,5.853c0.376,1.13,1.436,2.223,2.724,1.663c1.284-0.558,1.543-2.342,1.398-3.561
					c-0.083-0.698-0.278-1.39-0.594-2.02c-0.412-0.822-1.079-1.479-1.357-2.37C452.188,127.533,450.225,128.064,450.616,129.318
					L450.616,129.318z"/>
			</g>
			<g>
				<path d="M446.877,118.764c-1.976-0.141-3.4-1.946-5.316-2.347c-1.5-0.314-2.848,0.658-2.812,2.231
					c0.089,3.819,5.797,3.743,8.145,2.505c1.158-0.61,0.132-2.366-1.026-1.755c-0.977,0.515-2.052,0.728-3.148,0.496
					c-0.392-0.083-1.085-0.213-1.363-0.543c-0.56-0.25-0.52-0.531,0.12-0.843c0.245,0.096,0.483,0.209,0.712,0.337
					c1.552,0.807,2.885,1.823,4.687,1.951C448.182,120.889,448.176,118.856,446.877,118.764L446.877,118.764z"/>
			</g>
			<g>
				<path d="M433.24,132.062c-1.164-0.802-1.6-2.339-2.84-3.091c-1.357-0.823-2.996-0.513-3.832,0.86
					c-0.935,1.536-0.069,2.889,1.343,3.7c1.473,0.846,3.197,1.015,4.832,0.614c1.27-0.312,0.732-2.273-0.54-1.96
					c-0.992,0.244-2.023,0.195-2.958-0.246c-0.198-0.093-0.839-0.399-0.93-0.605c-0.343-0.78,0.624-0.854,1.058-0.608
					c0.559,0.318,0.946,1.053,1.324,1.555c0.447,0.594,0.901,1.113,1.516,1.536C433.293,134.561,434.311,132.801,433.24,132.062
					L433.24,132.062z"/>
			</g>
			<g>
				<path d="M423.646,146.801c-0.334,0.845-0.857,1.604-1.436,2.299c-0.331,0.397-1.006,1.297-1.636,1.16
					c-1.044-0.227,0.37-1.131,0.776-1.228c0.822-0.195,1.712-0.088,2.55-0.171c1.29-0.128,1.303-2.162,0-2.033
					c-1.673,0.166-3.612-0.116-4.913,1.208c-0.949,0.966-1.126,2.653-0.081,3.622c2.745,2.544,5.873-2.221,6.7-4.316
					C426.086,146.124,424.122,145.596,423.646,146.801L423.646,146.801z"/>
			</g>
			<g>
				<path d="M421.556,143.685c-1.778,0.036-8.775-2.769-8.836,1.024c-0.021,1.317,1.457,2.301,2.556,2.71
					c1.674,0.622,3.43,0.235,4.904-0.692c1.105-0.695,0.086-2.454-1.026-1.755c-0.939,0.59-2.024,0.947-3.125,0.57
					c-0.344-0.118-1.421-0.475-0.838-0.753c0.417-0.199,1.06,0.033,1.477,0.12c1.633,0.34,3.203,0.844,4.888,0.81
					C422.862,145.691,422.866,143.659,421.556,143.685L421.556,143.685z"/>
			</g>
			<g>
				<path d="M440.35,133.522c-0.156,2.908-1.333,5.509-3.382,7.573c-0.923,0.929,0.514,2.367,1.437,1.437
					c2.429-2.447,3.793-5.57,3.978-9.01C442.452,132.215,440.419,132.219,440.35,133.522L440.35,133.522z"/>
			</g>
			<g>
				<path d="M436.756,142.585c0.013,0.577,0.036,1.22-0.212,1.757c-0.055,0.119-0.859,1.179-1.094,0.816
					c-0.096-0.149,0.497-0.871,0.626-0.998c0.454-0.448,1.063-0.737,1.622-1.028c1.161-0.604,0.134-2.359-1.026-1.755
					c-1.189,0.619-2.378,1.346-2.921,2.633c-0.449,1.064-0.342,2.432,0.818,2.974c1.033,0.482,2.304,0.085,3.079-0.7
					c0.971-0.984,1.171-2.377,1.141-3.699C438.759,141.279,436.726,141.274,436.756,142.585L436.756,142.585z"/>
			</g>
		</g>
		<g>
			<g>
				<path d="M455.286,59.17c8.346,18.881,8.44,40.317,0.452,59.327c-0.506,1.204,1.46,1.73,1.96,0.54
					c8.216-19.553,7.909-41.516-0.657-60.893C456.513,56.95,454.761,57.983,455.286,59.17L455.286,59.17z"/>
			</g>
			<g>
				<path d="M459.412,71.508c0.219,3.779-0.889,7.322-3.33,10.235c-0.835,0.996,0.596,2.442,1.437,1.437
					c2.777-3.314,4.176-7.344,3.925-11.673C461.369,70.208,459.336,70.199,459.412,71.508L459.412,71.508z"/>
			</g>
			<g>
				<path d="M461.472,78.969c1.74,2.719,3.538,5.357,6.181,7.278c1.059,0.77,2.075-0.993,1.026-1.755
					c-2.339-1.7-3.916-4.149-5.452-6.549C462.525,76.844,460.764,77.863,461.472,78.969L461.472,78.969z"/>
			</g>
			<g>
				<path d="M461.146,95.152c-0.785,2.287-2.88,3.618-4.876,4.763c-1.135,0.651-0.112,2.408,1.026,1.755
					c2.503-1.435,4.839-3.147,5.811-5.978C463.531,94.452,461.569,93.92,461.146,95.152L461.146,95.152z"/>
			</g>
			<g>
				<path d="M459.96,106.24c0.842,3.553,0.774,7.057-0.189,10.579c-0.345,1.264,1.615,1.803,1.96,0.54
					c1.056-3.864,1.113-7.763,0.189-11.66C461.618,104.427,459.658,104.966,459.96,106.24L459.96,106.24z"/>
			</g>
			<g>
				<path d="M466.671,85.483c0.895,0.469,1.805,0.54,2.758,0.811c0.591,0.168,2.07,0.759,2.18,1.51
					c0.052,0.358-0.366-0.059-0.576-0.203c-0.389-0.267-0.732-0.595-1.046-0.947c-0.624-0.7-1.093-1.518-1.533-2.34
					c-0.618-1.154-2.373-0.128-1.755,1.026c0.772,1.442,1.698,2.844,3.036,3.822c1.071,0.783,2.749,1.474,3.735,0.181
					c0.883-1.157-0.052-2.789-0.965-3.625c-0.527-0.483-1.153-0.864-1.813-1.135c-0.97-0.398-2.064-0.367-2.995-0.855
					C466.539,83.121,465.511,84.875,466.671,85.483L466.671,85.483z"/>
			</g>
			<g>
				<path d="M456.575,80.671c-1.252,1.122-3.232,1.099-4.728,1.751c-1.513,0.66-2.495,2.229-1.297,3.702
					c1.126,1.384,3.125,1.001,4.509,0.272c1.595-0.84,2.703-2.327,3.215-4.035c0.376-1.256-1.585-1.792-1.96-0.54
					c-0.31,1.033-0.913,1.934-1.813,2.546c-0.388,0.264-0.946,0.597-1.424,0.626c-0.266,0.016-0.945-0.025-0.803-0.524
					c0.045-0.159,0.69-0.31,0.814-0.352c1.716-0.58,3.524-0.752,4.926-2.008C458.989,81.234,457.547,79.8,456.575,80.671
					L456.575,80.671z"/>
			</g>
			<g>
				<path d="M456.323,99.72c-1.481,0.267-2.943-0.579-4.437-0.108c-1.549,0.489-2.259,2.006-1.763,3.53
					c0.549,1.687,2.3,1.777,3.763,1.297c1.515-0.497,2.746-1.53,3.565-2.889c0.677-1.123-1.08-2.146-1.755-1.026
					c-0.477,0.791-1.135,1.436-1.989,1.815c-0.268,0.119-0.69,0.286-0.991,0.304c-0.756,0.046-0.99-0.719-0.29-1.072
					c0.586-0.296,1.523-0.013,2.136,0.076c0.786,0.115,1.515,0.173,2.301,0.031C458.149,101.449,457.604,99.49,456.323,99.72
					L456.323,99.72z"/>
			</g>
			<g>
				<path d="M459.98,116.933c0.34,0.791,1.305,3.922,0.33,4.545c-0.378,0.241-0.658-0.064-0.725-0.389
					c-0.07-0.339,0.237-0.796,0.416-1.063c0.447-0.667,1.097-1.21,1.609-1.828c0.828-1-0.602-2.446-1.437-1.437
					c-1.067,1.289-2.637,2.48-2.62,4.328c0.012,1.26,0.938,2.515,2.248,2.611c1.526,0.113,2.577-1.241,2.797-2.614
					c0.272-1.695-0.197-3.631-0.862-5.179C461.22,114.709,459.468,115.743,459.98,116.933L459.98,116.933z"/>
			</g>
			<g>
				<path d="M456.292,116.198c-1.292,1.376-3.077,2.049-4.543,3.198c-1.041,0.816-2.126,2.584-0.982,3.785
					c0.959,1.007,2.898,0.548,3.965-0.015c1.473-0.777,2.4-2.228,2.734-3.831c0.266-1.276-1.693-1.822-1.96-0.54
					c-0.215,1.034-0.687,1.996-1.642,2.535c-0.314,0.177-0.8,0.379-1.171,0.376c-0.785-0.006,0.006-0.494,0.383-0.782
					c1.524-1.164,3.317-1.865,4.654-3.288C458.625,116.682,457.19,115.242,456.292,116.198L456.292,116.198z"/>
			</g>
			<g>
				<path d="M462.395,95.722c1.944,2.171,2.949,4.836,2.963,7.747c0.007,1.308,2.039,1.31,2.033,0
					c-0.017-3.454-1.257-6.614-3.559-9.184C462.958,93.308,461.524,94.75,462.395,95.722L462.395,95.722z"/>
			</g>
			<g>
				<path d="M466.263,104.672c0.407,0.389,0.826,0.788,1.044,1.318c0.072,0.174,0.345,1.455-0.162,1.298
					c-0.265-0.082-0.257-0.966-0.247-1.167c0.029-0.583,0.241-1.163,0.415-1.715c0.394-1.25-1.567-1.785-1.96-0.54
					c-0.39,1.237-0.716,2.552-0.257,3.818c0.368,1.016,1.271,1.955,2.441,1.731c1.136-0.218,1.867-1.377,1.955-2.469
					c0.12-1.495-0.762-2.727-1.791-3.711C466.754,102.33,465.315,103.766,466.263,104.672L466.263,104.672z"/>
			</g>
		</g>
		<g>
			<g>
				<path d="M420.37,32.582c19.121,7.365,34.468,22.418,42.187,41.402c0.486,1.196,2.453,0.673,1.96-0.54
					c-8.014-19.712-23.747-35.172-43.606-42.822C419.689,30.152,419.16,32.116,420.37,32.582L420.37,32.582z"/>
			</g>
			<g>
				<path d="M432.024,38.393c2.823,2.501,4.56,5.821,4.883,9.592c0.111,1.294,2.144,1.305,2.033,0
					c-0.368-4.296-2.241-8.162-5.478-11.029C432.485,36.091,431.042,37.523,432.024,38.393L432.024,38.393z"/>
			</g>
			<g>
				<path d="M438.744,42.208c3.177,0.696,6.291,1.263,9.542,0.776c1.289-0.193,0.741-2.152-0.54-1.96
					c-2.858,0.429-5.676-0.165-8.461-0.776C438.009,39.968,437.465,41.928,438.744,42.208L438.744,42.208z"/>
			</g>
			<g>
				<path d="M449.975,53.896c1.038,2.186,0.517,4.562-0.083,6.793c-0.34,1.265,1.62,1.804,1.96,0.54
					c0.76-2.824,1.174-5.631-0.122-8.359C451.17,51.689,449.416,52.719,449.975,53.896L449.975,53.896z"/>
			</g>
			<g>
				<path d="M456.96,62.558c3.106,1.885,5.586,4.464,7.364,7.631c0.64,1.141,2.397,0.117,1.755-1.026
					c-1.943-3.461-4.702-6.302-8.094-8.361C456.864,60.122,455.842,61.879,456.96,62.558L456.96,62.558z"/>
			</g>
			<g>
				<path d="M447.051,43.138c1.508-0.47,2.612-1.814,4.243-1.921c0.278-0.018,0.813-0.095,0.963,0.171
					c0.001,0.002-1.501,0.247-1.649,0.248c-1.067,0.009-2.111-0.277-3.124-0.579c-1.256-0.375-1.793,1.587-0.54,1.96
					c1.869,0.557,3.945,0.966,5.853,0.331c1.13-0.376,2.223-1.436,1.663-2.724c-0.558-1.284-2.342-1.543-3.561-1.398
					c-0.698,0.083-1.39,0.278-2.02,0.594c-0.822,0.412-1.479,1.079-2.37,1.357C445.266,41.567,445.798,43.529,447.051,43.138
					L447.051,43.138z"/>
			</g>
			<g>
				<path d="M436.497,46.878c-0.141,1.976-1.946,3.4-2.347,5.316c-0.314,1.5,0.658,2.848,2.231,2.812
					c3.819-0.089,3.743-5.797,2.505-8.145c-0.611-1.158-2.366-0.132-1.755,1.026c0.515,0.976,0.728,2.052,0.496,3.148
					c-0.083,0.392-0.213,1.085-0.543,1.363c-0.25,0.56-0.531,0.52-0.843-0.12c0.096-0.245,0.209-0.483,0.337-0.712
					c0.807-1.553,1.823-2.885,1.951-4.687C438.623,45.572,436.59,45.578,436.497,46.878L436.497,46.878z"/>
			</g>
			<g>
				<path d="M449.795,60.515c-0.802,1.164-2.339,1.601-3.091,2.84c-0.823,1.357-0.513,2.996,0.86,3.832
					c1.536,0.935,2.889,0.069,3.7-1.343c0.846-1.473,1.015-3.197,0.614-4.832c-0.312-1.27-2.272-0.732-1.96,0.54
					c0.244,0.992,0.195,2.023-0.246,2.958c-0.093,0.198-0.399,0.839-0.605,0.93c-0.78,0.343-0.854-0.624-0.608-1.058
					c0.318-0.559,1.053-0.946,1.555-1.324c0.594-0.447,1.113-0.902,1.536-1.516C452.295,60.461,450.534,59.444,449.795,60.515
					L449.795,60.515z"/>
			</g>
			<g>
				<path d="M464.534,70.108c0.845,0.334,1.604,0.857,2.299,1.436c0.397,0.331,1.296,1.006,1.16,1.636
					c-0.227,1.044-1.131-0.37-1.228-0.776c-0.195-0.822-0.088-1.712-0.171-2.55c-0.128-1.29-2.162-1.303-2.033,0
					c0.166,1.673-0.116,3.612,1.207,4.913c0.966,0.949,2.653,1.126,3.622,0.081c2.544-2.745-2.221-5.873-4.316-6.7
					C463.857,67.668,463.329,69.633,464.534,70.108L464.534,70.108z"/>
			</g>
			<g>
				<path d="M461.419,72.199c0.036,1.778-2.769,8.775,1.024,8.836c1.317,0.021,2.301-1.457,2.71-2.556
					c0.622-1.674,0.235-3.43-0.692-4.904c-0.695-1.105-2.454-0.086-1.755,1.026c0.59,0.939,0.947,2.024,0.57,3.125
					c-0.118,0.344-0.475,1.421-0.753,0.838c-0.199-0.417,0.033-1.06,0.12-1.477c0.34-1.633,0.844-3.203,0.81-4.888
					C463.425,70.892,461.392,70.888,461.419,72.199L461.419,72.199z"/>
			</g>
			<g>
				<path d="M451.255,53.405c2.908,0.156,5.509,1.333,7.573,3.382c0.929,0.923,2.367-0.514,1.437-1.437
					c-2.447-2.429-5.571-3.793-9.01-3.977C449.948,51.302,449.952,53.335,451.255,53.405L451.255,53.405z"/>
			</g>
			<g>
				<path d="M460.318,56.998c0.577-0.013,1.219-0.036,1.757,0.212c0.119,0.055,1.179,0.859,0.816,1.094
					c-0.149,0.096-0.872-0.497-0.998-0.626c-0.448-0.454-0.737-1.063-1.028-1.622c-0.604-1.161-2.359-0.134-1.755,1.026
					c0.619,1.189,1.346,2.378,2.633,2.921c1.064,0.45,2.432,0.342,2.974-0.818c0.482-1.033,0.085-2.304-0.7-3.079
					c-0.984-0.971-2.377-1.171-3.699-1.141C459.012,54.995,459.008,57.028,460.318,56.998L460.318,56.998z"/>
			</g>
		</g>
	</g>
</svg>
