<?xml version="1.0" encoding="utf-8"?>
<svg version="1.1" xmlns="http://www.w3.org/2000/svg" xmlns:xlink="http://www.w3.org/1999/xlink" xml:space="preserve" viewBox="368 246 39 238">
<g>
		<g>
			<g>
				<path d="M386.01,477.995c-4.672-17.151-0.59-35.514,10.987-49.024c0.921-1.074-0.635-2.644-1.562-1.562
					c-12.092,14.111-16.443,33.231-11.556,51.173C384.253,479.953,386.385,479.371,386.01,477.995L386.01,477.995z"/>
			</g>
			<g>
				<path d="M385.037,460.765c-0.065-0.441,1.758-1.881,2.097-2.136c0.732-0.549,2.822-1.792,3.045-0.122
					c0.151,1.127-1.759,1.741-2.567,1.902c-1.074,0.214-2.201,0.112-3.271-0.056c-1.391-0.218-1.99,1.91-0.587,2.13
					c2.268,0.356,4.687,0.434,6.706-0.841c1.779-1.124,2.575-3.052,1.28-4.903c-1.335-1.911-3.631-1.416-5.327-0.294
					c-1.566,1.036-3.813,2.832-3.507,4.908C383.113,462.754,385.242,462.158,385.037,460.765L385.037,460.765z"/>
			</g>
			<g>
				<path d="M385.701,445.729c-1.559-0.826-2.744-2.212-3.101-3.972c-0.363-1.792,1.026-0.52,1.412,0.308
					c0.487,1.043,0.645,2.199,0.488,3.34c-0.192,1.39,1.937,1.992,2.13,0.587c0.288-2.087,0.01-4.304-1.305-6.029
					c-0.947-1.241-2.72-1.963-4.093-0.92c-1.429,1.086-0.935,3.179-0.336,4.6c0.729,1.731,2.033,3.116,3.69,3.994
					C385.842,448.302,386.96,446.396,385.701,445.729L385.701,445.729z"/>
			</g>
			<g>
				<path d="M395.84,429.464c0.194-2.341,0.557-5.846,2.686-7.348c2.396-1.69,0.932,2.021,0.319,2.787
					c-0.818,1.022-1.876,1.601-3.137,1.897c-1.384,0.325-0.798,2.456,0.587,2.131c2.234-0.524,4.163-1.958,5.166-4.049
					c0.754-1.57,1.15-4.34-0.694-5.376c-1.85-1.039-3.873,0.883-4.873,2.265c-1.624,2.244-2.041,4.999-2.265,7.693
					C393.513,430.881,395.723,430.874,395.84,429.464L395.84,429.464z"/>
			</g>
			<g>
				<path d="M390.995,438.993c0.438-0.258,4.831-2.645,4.895-1.237c0.036,0.807-2.006,0.715-2.483,0.634
					c-0.869-0.149-1.88-0.268-2.66-0.7c-1.245-0.689-2.361,1.218-1.115,1.908c1.421,0.786,3.782,1.349,5.402,1.039
					c1.396-0.267,3.165-1.288,3.107-2.911c-0.054-1.514-1.438-2.47-2.846-2.546c-1.955-0.105-3.792,0.951-5.415,1.905
					C388.655,437.806,389.766,439.716,390.995,438.993L390.995,438.993z"/>
			</g>
		</g>
		<g>
			<g>
				<path d="M391.236,436.492c4.887-17.941,0.537-37.063-11.556-51.173c-0.927-1.081-2.483,0.487-1.562,1.562
					c11.576,13.508,15.659,31.872,10.987,49.024C388.732,437.278,390.862,437.864,391.236,436.492L391.236,436.492z"/>
			</g>
			<g>
				<path d="M392.21,419.262c0.306-2.076-1.941-3.872-3.507-4.908c-1.696-1.122-3.992-1.616-5.327,0.294
					c-1.294,1.852-0.499,3.779,1.28,4.903c2.02,1.275,4.439,1.197,6.706,0.841c1.401-0.22,0.806-2.349-0.587-2.13
					c-1.069,0.168-2.199,0.272-3.271,0.056c-0.849-0.171-2.658-0.736-2.567-1.902c0.136-1.735,2.367-0.39,3.045,0.122
					c0.36,0.271,2.161,1.7,2.097,2.136C389.875,420.065,392.003,420.665,392.21,419.262L392.21,419.262z"/>
			</g>
			<g>
				<path d="M390.53,405.546c1.657-0.878,2.961-2.261,3.69-3.994c0.597-1.42,1.095-3.512-0.336-4.6
					c-1.371-1.042-3.147-0.321-4.093,0.92c-1.314,1.723-1.593,3.943-1.306,6.029c0.193,1.402,2.322,0.805,2.13-0.587
					c-0.141-1.026-0.033-2.087,0.352-3.052c0.165-0.414,0.45-1.071,0.839-1.356c0.876-0.641,0.829,0.172,0.71,0.76
					c-0.356,1.759-1.542,3.146-3.101,3.972C388.158,404.304,389.273,406.212,390.53,405.546L390.53,405.546z"/>
			</g>
			<g>
				<path d="M381.485,387.374c-0.224-2.695-0.64-5.447-2.265-7.693c-0.995-1.375-3.019-3.306-4.873-2.265
					c-1.843,1.035-1.451,3.796-0.694,5.376c1.002,2.09,2.933,3.525,5.166,4.049c1.383,0.324,1.973-1.805,0.587-2.13
					c-1.126-0.264-2.121-0.754-2.915-1.622c-0.722-0.789-2.371-4.803,0.097-3.062c2.126,1.5,2.493,5.018,2.686,7.348
					C379.393,388.781,381.603,388.793,381.485,387.374L381.485,387.374z"/>
			</g>
			<g>
				<path d="M385.236,394.995c-1.625-0.956-3.457-2.01-5.415-1.905c-1.407,0.076-2.791,1.033-2.846,2.545
					c-0.059,1.628,1.705,2.641,3.107,2.911c1.614,0.312,3.992-0.259,5.402-1.039c1.244-0.689,0.131-2.598-1.115-1.908
					c-0.789,0.437-1.78,0.549-2.66,0.7c-0.478,0.082-2.52,0.208-2.482-0.634c0.063-1.41,4.461,0.981,4.895,1.236
					C385.349,397.625,386.462,395.716,385.236,394.995L385.236,394.995z"/>
			</g>
		</g>
		<g>
			<g>
				<path d="M386.01,393.893c-4.672-17.151-0.59-35.514,10.987-49.024c0.921-1.074-0.635-2.644-1.562-1.562
					c-12.092,14.111-16.443,33.231-11.556,51.173C384.253,395.85,386.385,395.269,386.01,393.893L386.01,393.893z"/>
			</g>
			<g>
				<path d="M385.037,376.662c-0.065-0.441,1.758-1.881,2.097-2.136c0.732-0.549,2.822-1.792,3.045-0.122
					c0.151,1.127-1.759,1.741-2.567,1.902c-1.074,0.214-2.201,0.112-3.271-0.056c-1.391-0.218-1.99,1.91-0.587,2.131
					c2.268,0.356,4.687,0.434,6.706-0.841c1.779-1.124,2.575-3.052,1.28-4.903c-1.335-1.911-3.631-1.416-5.327-0.294
					c-1.566,1.036-3.813,2.832-3.507,4.908C383.113,378.651,385.242,378.055,385.037,376.662L385.037,376.662z"/>
			</g>
			<g>
				<path d="M385.701,361.627c-1.559-0.826-2.744-2.212-3.101-3.972c-0.363-1.792,1.026-0.52,1.412,0.308
					c0.487,1.043,0.645,2.199,0.488,3.34c-0.192,1.39,1.937,1.992,2.13,0.587c0.288-2.087,0.01-4.304-1.305-6.029
					c-0.947-1.241-2.72-1.963-4.093-0.92c-1.429,1.086-0.935,3.179-0.336,4.6c0.729,1.731,2.033,3.116,3.69,3.994
					C385.842,364.2,386.96,362.293,385.701,361.627L385.701,361.627z"/>
			</g>
			<g>
				<path d="M395.84,345.362c0.194-2.341,0.557-5.846,2.686-7.348c2.396-1.69,0.932,2.021,0.319,2.787
					c-0.818,1.022-1.876,1.601-3.137,1.897c-1.384,0.325-0.798,2.456,0.587,2.13c2.234-0.524,4.163-1.958,5.166-4.049
					c0.754-1.57,1.15-4.34-0.694-5.375c-1.85-1.039-3.873,0.883-4.873,2.265c-1.624,2.244-2.041,4.999-2.265,7.693
					C393.513,346.779,395.723,346.771,395.84,345.362L395.84,345.362z"/>
			</g>
			<g>
				<path d="M390.995,354.891c0.438-0.258,4.831-2.645,4.895-1.236c0.036,0.807-2.006,0.715-2.483,0.634
					c-0.869-0.149-1.88-0.268-2.66-0.7c-1.245-0.689-2.361,1.218-1.115,1.908c1.421,0.786,3.782,1.349,5.402,1.039
					c1.396-0.267,3.165-1.289,3.107-2.911c-0.054-1.514-1.438-2.47-2.846-2.546c-1.955-0.105-3.792,0.951-5.415,1.905
					C388.655,353.703,389.766,355.614,390.995,354.891L390.995,354.891z"/>
			</g>
		</g>
		<g>
			<g>
				<path d="M391.236,352.389c4.887-17.941,0.537-37.063-11.556-51.173c-0.927-1.081-2.483,0.488-1.562,1.562
					c11.576,13.508,15.659,31.871,10.987,49.024C388.732,353.176,390.862,353.762,391.236,352.389L391.236,352.389z"/>
			</g>
			<g>
				<path d="M392.21,335.159c0.306-2.076-1.941-3.872-3.507-4.908c-1.696-1.122-3.992-1.616-5.327,0.294
					c-1.294,1.852-0.499,3.78,1.28,4.903c2.02,1.275,4.439,1.197,6.706,0.841c1.401-0.22,0.806-2.349-0.587-2.13
					c-1.069,0.168-2.199,0.272-3.271,0.056c-0.849-0.171-2.658-0.737-2.567-1.902c0.136-1.735,2.367-0.39,3.045,0.122
					c0.36,0.272,2.161,1.7,2.097,2.136C389.875,335.963,392.003,336.563,392.21,335.159L392.21,335.159z"/>
			</g>
			<g>
				<path d="M390.53,321.444c1.657-0.878,2.961-2.261,3.69-3.994c0.597-1.42,1.095-3.512-0.336-4.6
					c-1.371-1.042-3.147-0.32-4.093,0.92c-1.314,1.723-1.593,3.943-1.306,6.029c0.193,1.402,2.322,0.805,2.13-0.587
					c-0.141-1.026-0.033-2.087,0.352-3.052c0.165-0.414,0.45-1.071,0.839-1.356c0.876-0.641,0.829,0.172,0.71,0.76
					c-0.356,1.759-1.542,3.146-3.101,3.972C388.158,320.202,389.273,322.11,390.53,321.444L390.53,321.444z"/>
			</g>
			<g>
				<path d="M381.485,303.271c-0.224-2.695-0.64-5.447-2.265-7.693c-0.995-1.375-3.019-3.306-4.873-2.265
					c-1.843,1.035-1.451,3.796-0.694,5.376c1.002,2.09,2.933,3.525,5.166,4.049c1.383,0.325,1.973-1.805,0.587-2.13
					c-1.126-0.264-2.121-0.754-2.915-1.622c-0.722-0.789-2.371-4.803,0.097-3.062c2.126,1.5,2.493,5.018,2.686,7.348
					C379.393,304.678,381.603,304.691,381.485,303.271L381.485,303.271z"/>
			</g>
			<g>
				<path d="M385.236,310.892c-1.625-0.956-3.457-2.01-5.415-1.905c-1.407,0.076-2.791,1.033-2.846,2.545
					c-0.059,1.627,1.705,2.641,3.107,2.911c1.614,0.312,3.992-0.258,5.402-1.039c1.244-0.689,0.131-2.598-1.115-1.908
					c-0.789,0.437-1.78,0.549-2.66,0.7c-0.478,0.082-2.52,0.208-2.482-0.634c0.063-1.41,4.461,0.981,4.895,1.236
					C385.349,313.522,386.462,311.613,385.236,310.892L385.236,310.892z"/>
			</g>
		</g>
		<g>
			<g>
				<path d="M386.01,309.79c-4.672-17.151-0.59-35.514,10.987-49.024c0.921-1.074-0.635-2.644-1.562-1.562
					c-12.092,14.111-16.443,33.231-11.556,51.173C384.253,311.748,386.385,311.166,386.01,309.79L386.01,309.79z"/>
			</g>
			<g>
				<path d="M385.037,292.56c-0.065-0.441,1.758-1.881,2.097-2.136c0.732-0.549,2.822-1.792,3.045-0.122
					c0.151,1.127-1.759,1.741-2.567,1.902c-1.074,0.214-2.201,0.112-3.271-0.056c-1.391-0.218-1.99,1.91-0.587,2.13
					c2.268,0.356,4.687,0.434,6.706-0.841c1.779-1.124,2.575-3.052,1.28-4.903c-1.335-1.911-3.631-1.416-5.327-0.294
					c-1.566,1.036-3.813,2.832-3.507,4.908C383.113,294.549,385.242,293.953,385.037,292.56L385.037,292.56z"/>
			</g>
			<g>
				<path d="M385.701,277.524c-1.559-0.826-2.744-2.212-3.101-3.972c-0.363-1.792,1.026-0.52,1.412,0.308
					c0.487,1.043,0.645,2.199,0.488,3.34c-0.192,1.39,1.937,1.992,2.13,0.587c0.288-2.087,0.01-4.304-1.305-6.029
					c-0.947-1.241-2.72-1.963-4.093-0.92c-1.429,1.086-0.935,3.179-0.336,4.6c0.729,1.731,2.033,3.116,3.69,3.994
					C385.842,280.097,386.96,278.191,385.701,277.524L385.701,277.524z"/>
			</g>
			<g>
				<path d="M395.84,261.259c0.194-2.341,0.557-5.846,2.686-7.348c2.396-1.69,0.932,2.021,0.319,2.787
					c-0.818,1.022-1.876,1.601-3.137,1.897c-1.384,0.325-0.798,2.455,0.587,2.13c2.234-0.524,4.163-1.958,5.166-4.049
					c0.754-1.57,1.15-4.34-0.694-5.376c-1.85-1.039-3.873,0.883-4.873,2.265c-1.624,2.244-2.041,4.999-2.265,7.693
					C393.513,262.677,395.723,262.669,395.84,261.259L395.84,261.259z"/>
			</g>
			<g>
				<path d="M390.995,270.788c0.438-0.258,4.831-2.645,4.895-1.237c0.036,0.807-2.006,0.715-2.483,0.634
					c-0.869-0.149-1.88-0.268-2.66-0.7c-1.245-0.689-2.361,1.218-1.115,1.908c1.421,0.786,3.782,1.349,5.402,1.039
					c1.396-0.267,3.165-1.289,3.107-2.911c-0.054-1.514-1.438-2.47-2.846-2.545c-1.955-0.105-3.792,0.951-5.415,1.905
					C388.655,269.601,389.766,271.511,390.995,270.788L390.995,270.788z"/>
			</g>
		</g>
	</g>
</svg>
