<?xml version="1.0" encoding="utf-8"?>
<svg version="1.1" xmlns="http://www.w3.org/2000/svg" xmlns:xlink="http://www.w3.org/1999/xlink" xml:space="preserve" viewBox="39 203 179 31">
<g>
		<g>
			<g>
				<path d="M44.202,225.913c-0.255,0-0.508-0.103-0.692-0.309c-0.342-0.383-0.31-0.971,0.073-1.312
					c7.072-6.34,17.239-7.647,25.306-8.077c10.601-0.566,21.302-0.04,31.8,1.561c0.972,0.147,1.947,0.305,2.921,0.463
					c5.518,0.889,11.225,1.813,16.718,0.978c5.886-0.897,12.556-4.624,14.189-10.93c0.128-0.497,0.636-0.795,1.133-0.668
					c0.496,0.129,0.795,0.637,0.666,1.133c-1.845,7.126-9.219,11.313-15.708,12.302c-5.782,0.878-11.636-0.065-17.295-0.98
					c-0.969-0.156-1.937-0.314-2.904-0.461c-10.372-1.581-20.945-2.104-31.421-1.543c-7.764,0.414-17.525,1.653-24.166,7.605
					C44.645,225.835,44.424,225.913,44.202,225.913z"/>
			</g>
			<g>
				<path d="M70.183,216.164c-0.595-0.805-0.889-1.714-1.147-2.674c-0.239-0.89-0.672-2.226-0.523-3.139
					c-0.142,0.185-0.285,0.37-0.427,0.555c0.065-0.03,0.129-0.06,0.194-0.089c-0.239,0.031-0.477,0.063-0.716,0.094
					c0.072,0.026,0.143,0.052,0.215,0.078c-0.185-0.142-0.37-0.285-0.555-0.427c0.491,0.666,0.612,1.904,0.776,2.69
					c0.225,1.078,0.369,2.161,0.457,3.259c0.095,1.184,1.955,1.194,1.859,0c-0.146-1.811-0.428-3.607-0.911-5.36
					c-0.256-0.929-0.652-2.4-1.951-1.986c-1.292,0.412-0.723,2.306-0.554,3.267c0.281,1.598,0.702,3.346,1.68,4.669
					C69.281,218.053,70.895,217.127,70.183,216.164L70.183,216.164z"/>
			</g>
			<g>
				<path d="M73.321,216.84c0.545-2.493,2.136-4.658,4.047-6.315c1.059-0.918-0.686,0.874-0.864,1.065
					c-0.34,0.366-0.694,0.721-1.058,1.063c-1.041,0.977-2.174,1.823-3.38,2.584c0.375,0.486,0.751,0.973,1.126,1.46
					c1.519-1.789,3.037-3.579,4.556-5.368c0.77-0.907-0.539-2.228-1.314-1.314c-1.519,1.789-3.037,3.579-4.556,5.368
					c-0.645,0.76,0.178,2.058,1.126,1.459c1.494-0.943,9.342-6.472,5.717-8.513c-1.565-0.881-3.339,1.475-4.184,2.434
					c-1.433,1.627-2.542,3.449-3.008,5.583C71.273,217.512,73.065,218.01,73.321,216.84L73.321,216.84z"/>
			</g>
			<g>
				<path d="M71.372,217.761c0.727,1.763,3.655,9.945,6.796,8.123c2.89-1.677-3.267-8.095-4.528-9.308
					c-0.619-0.595-1.91-0.007-1.553,0.904c0.919,2.345,2.456,4.356,3.86,6.427c0.667,0.985,2.278,0.056,1.605-0.938
					c-1.298-1.914-2.822-3.814-3.672-5.983c-0.518,0.301-1.035,0.603-1.553,0.904c1.001,0.963,1.929,1.984,2.74,3.115
					c0.555,0.774,2.239,2.779,1.848,3.783c0.216-0.216,0.433-0.433,0.649-0.649c-1.531,0.594-4.031-5.982-4.399-6.872
					C72.715,216.176,70.916,216.654,71.372,217.761L71.372,217.761z"/>
			</g>
			<g>
				<path d="M91.334,216.639c-0.34-0.903-0.63-1.817-0.838-2.76c-0.114-0.516-0.211-1.038-0.276-1.563
					c-0.019-0.152-0.029-1.484-0.12-1.57c-0.149,0.067-0.298,0.135-0.447,0.203c0.079,0.257,0.131,0.519,0.158,0.786
					c0.077,0.471,0.118,0.948,0.15,1.424c0.074,1.069,0.066,2.136,0.009,3.206c-0.064,1.195,1.795,1.192,1.859,0
					c0.083-1.562,0.597-8.089-2.446-7.609c-1.447,0.228-1.171,1.985-1.076,3.038c0.164,1.836,0.588,3.616,1.236,5.34
					C89.959,218.242,91.756,217.762,91.334,216.639L91.334,216.639z"/>
			</g>
			<g>
				<path d="M95.711,217.474c0.479-1.297,0.964-2.595,1.582-3.834c0.632-1.269,1.579-2.208,2.287-3.396
					c-1.332,2.236-3.303,4.327-5.069,6.238c0.486,0.375,0.973,0.751,1.459,1.126c1.046-2.001,1.957-4.231,3.565-5.853
					c0.843-0.85-0.47-2.165-1.314-1.314c-1.736,1.751-2.728,4.071-3.856,6.229c-0.47,0.9,0.714,1.934,1.459,1.126
					c1.643-1.779,3.198-3.644,4.605-5.617c0.781-1.095,1.718-2.96,0.052-3.826c-1.537-0.799-2.837,1.204-3.558,2.238
					c-1.351,1.939-2.192,4.185-3.006,6.387C93.504,218.104,95.299,218.588,95.711,217.474L95.711,217.474z"/>
			</g>
			<g>
				<path d="M92.928,217.938c-0.062,2.505,0.269,5.001,1.113,7.368c0.466,1.306,1.126,3.669,2.987,3.066
					c3.835-1.242-0.601-8.889-1.626-10.805c-0.386-0.722-1.482-0.521-1.699,0.222c-0.355,1.222,0.153,2.381,0.482,3.567
					c0.468,1.684,0.935,3.367,1.403,5.051c0.32,1.151,2.113,0.662,1.792-0.494c-0.343-1.235-0.686-2.469-1.029-3.704
					c-0.291-1.046-1.165-2.864-0.856-3.926c-0.566,0.074-1.132,0.148-1.698,0.222c0.321,0.6,3.632,7.683,2.743,7.796
					c-0.406,0.051-1.211-3.11-1.344-3.703c-0.346-1.544-0.449-3.083-0.41-4.66C94.816,216.742,92.958,216.743,92.928,217.938
					L92.928,217.938z"/>
			</g>
			<g>
				<path d="M112.848,220.539c-1.539,0.925-2.842,2.208-3.691,3.802c-0.556,1.043-1.532,2.917-0.319,3.848
					c1.267,0.973,2.498-0.325,3.215-1.315c1.063-1.468,2.392-3.459,2.158-5.346c-0.11-0.891-1.193-1.295-1.732-0.469
					c-0.988,1.513-2.557,2.797-3.178,4.507c-0.409,1.126,1.386,1.611,1.792,0.494c0.304-0.836,1.06-1.454,1.606-2.137
					c0.495-0.619,0.952-1.263,1.385-1.926c-0.577-0.156-1.155-0.313-1.732-0.469c0.143,1.158-0.487,2.109-1.05,3.071
					c-0.267,0.456-0.537,0.915-0.855,1.338c-0.167,0.23-0.351,0.445-0.551,0.646c0.188,0.292,0.292,0.303,0.313,0.036
					c0.249-0.225,0.382-1.017,0.552-1.339c0.217-0.409,0.469-0.796,0.754-1.161c0.63-0.807,1.395-1.448,2.27-1.974
					C114.81,221.529,113.876,219.921,112.848,220.539L112.848,220.539z"/>
			</g>
			<g>
				<path d="M113.668,221.74c1.072,2.17,1.966,5.002,3.69,6.754c1.215,1.235,3.341,1.476,3.943-0.48
					c0.621-2.017-1.026-3.917-2.252-5.307c-0.93-1.055-3.178-3.659-4.703-2.286c-0.225,0.203-0.35,0.614-0.239,0.904
					c0.424,1.111,1.299,2.127,1.951,3.118c0.814,1.239,1.629,2.477,2.443,3.716c0.387,0.589,1.577,0.633,1.698-0.222
					c0.009-0.061,0.017-0.122,0.026-0.183c0.165-1.17-1.625-1.675-1.792-0.494c-0.009,0.061-0.017,0.122-0.026,0.183
					c0.566-0.074,1.132-0.148,1.699-0.222c-0.706-1.074-1.411-2.147-2.117-3.221c-0.63-0.958-1.683-2.106-2.089-3.17
					c-0.08,0.301-0.159,0.603-0.239,0.904c-0.394,0.204-0.344,0.362,0.15,0.473c0.335,0.22,0.645,0.471,0.93,0.752
					c0.355,0.33,0.675,0.697,0.995,1.061c0.449,0.508,0.924,1.025,1.274,1.608c0.2,0.301,0.355,0.625,0.464,0.971
					c0.289,0.565,0.17,0.764-0.355,0.597c-0.999,0.083-1.672-1.998-2.046-2.755c-0.6-1.214-1.2-2.427-1.799-3.641
					C114.743,219.729,113.14,220.67,113.668,221.74L113.668,221.74z"/>
			</g>
			<g>
				<path d="M115.815,220.234c-0.132-1.704-0.105-3.396,0.214-5.081c0.123-0.647,0.867-4.311,1.512-4.308
					c0.328-0.363,0.38-0.178,0.156,0.556c-0.053,0.401-0.107,0.802-0.16,1.203c-0.126,0.718-0.305,1.434-0.524,2.13
					c-0.496,1.572-1.249,2.991-2.16,4.355c0.566,0.239,1.132,0.477,1.699,0.716c0.48-2.954,1.218-5.819,2.225-8.637
					c0.403-1.128-1.392-1.614-1.792-0.494c-1.007,2.818-1.745,5.683-2.225,8.637c-0.166,1.021,1.088,1.631,1.699,0.716
					c1.548-2.319,2.592-4.882,2.984-7.651c0.188-1.333,0.542-3.384-1.144-3.851c-1.926-0.534-2.735,1.799-3.245,3.191
					c-1.001,2.732-1.319,5.629-1.096,8.52C114.048,221.419,115.907,221.429,115.815,220.234L115.815,220.234z"/>
			</g>
		</g>
		<g>
			<g>
				<path d="M212.585,225.913c-0.221,0-0.443-0.078-0.621-0.238c-6.639-5.951-16.401-7.191-24.164-7.605
					c-10.471-0.559-21.048-0.038-31.421,1.543c-0.966,0.147-1.934,0.305-2.904,0.461c-5.658,0.915-11.51,1.864-17.295,0.98
					c-6.489-0.989-13.864-5.176-15.709-12.302c-0.129-0.495,0.17-1.004,0.666-1.133c0.497-0.125,1.005,0.171,1.132,0.668
					c1.633,6.305,8.304,10.033,14.189,10.93c5.497,0.831,11.202-0.087,16.719-0.978c0.975-0.158,1.949-0.316,2.921-0.463
					c10.497-1.603,21.192-2.129,31.8-1.561c8.067,0.43,18.234,1.737,25.306,8.077c0.382,0.341,0.414,0.929,0.071,1.312
					C213.094,225.809,212.84,225.913,212.585,225.913z"/>
			</g>
			<g>
				<path d="M188.21,217.102c0.978-1.324,1.399-3.072,1.68-4.669c0.168-0.956,0.737-2.855-0.554-3.267
					c-1.298-0.414-1.694,1.054-1.951,1.986c-0.483,1.753-0.766,3.549-0.911,5.36c-0.096,1.192,1.763,1.186,1.859,0
					c0.088-1.097,0.232-2.181,0.457-3.259c0.162-0.777,0.299-2.043,0.776-2.69c-0.185,0.142-0.37,0.285-0.555,0.427
					c0.072-0.026,0.143-0.052,0.215-0.078c-0.239-0.031-0.477-0.063-0.716-0.094c0.065,0.03,0.13,0.059,0.194,0.089
					c-0.142-0.185-0.285-0.37-0.427-0.555c0.149,0.916-0.288,2.262-0.523,3.139c-0.257,0.958-0.552,1.868-1.147,2.674
					C185.894,217.126,187.506,218.054,188.21,217.102L188.21,217.102z"/>
			</g>
			<g>
				<path d="M185.26,216.346c-0.449-2.053-1.491-3.816-2.849-5.402c-0.847-0.99-2.738-3.518-4.343-2.615
					c-3.626,2.042,4.232,7.576,5.717,8.513c0.94,0.593,1.777-0.692,1.126-1.459c-1.519-1.789-3.037-3.579-4.556-5.368
					c-0.775-0.913-2.084,0.407-1.314,1.314c1.519,1.789,3.037,3.579,4.556,5.368c0.375-0.486,0.751-0.973,1.126-1.46
					c-1.206-0.761-2.341-1.606-3.38-2.584c-0.364-0.343-0.717-0.697-1.058-1.063c-0.178-0.19-1.923-1.982-0.864-1.065
					c1.911,1.657,3.502,3.822,4.047,6.315C183.723,218.008,185.515,217.514,185.26,216.346L185.26,216.346z"/>
			</g>
			<g>
				<path d="M183.624,217.266c-0.387,0.938-2.87,7.465-4.398,6.872c0.216,0.216,0.433,0.433,0.649,0.649
					c-0.392-1.003,1.293-3.009,1.848-3.783c0.811-1.13,1.739-2.152,2.74-3.115c-0.518-0.301-1.035-0.603-1.553-0.904
					c-0.85,2.169-2.374,4.068-3.672,5.983c-0.673,0.993,0.937,1.924,1.605,0.938c1.404-2.071,2.941-4.082,3.86-6.427
					c0.357-0.91-0.934-1.499-1.553-0.904c-1.267,1.219-7.416,7.632-4.528,9.308c3.141,1.822,6.07-6.363,6.796-8.123
					C185.872,216.656,184.074,216.174,183.624,217.266L183.624,217.266z"/>
			</g>
			<g>
				<path d="M167.246,217.133c0.648-1.725,1.067-3.503,1.236-5.34c0.096-1.048,0.366-2.81-1.076-3.038
					c-3.042-0.48-2.528,6.054-2.446,7.609c0.063,1.19,1.922,1.197,1.859,0c-0.052-0.981-0.064-1.958-0.007-2.939
					c0.026-0.445,0.06-0.89,0.114-1.332c0.01-0.085,0.512-1.618-0.237-1.348c-0.073,0.026-0.302,2.696-0.339,2.877
					c-0.214,1.032-0.525,2.031-0.895,3.016C165.033,217.76,166.829,218.244,167.246,217.133L167.246,217.133z"/>
			</g>
			<g>
				<path d="M162.87,216.98c-0.783-2.118-1.587-4.278-2.851-6.165c-0.722-1.078-2.106-3.296-3.713-2.461
					c-1.515,0.787-0.866,2.521-0.118,3.587c1.448,2.062,3.067,4.006,4.775,5.855c0.739,0.8,1.934-0.218,1.46-1.126
					c-1.128-2.158-2.12-4.478-3.856-6.229c-0.843-0.851-2.158,0.464-1.314,1.314c1.607,1.622,2.52,3.853,3.565,5.853
					c0.486-0.375,0.973-0.751,1.46-1.126c-1.769-1.915-3.734-3.999-5.069-6.238c0.705,1.183,1.653,2.127,2.287,3.396
					c0.619,1.238,1.102,2.537,1.582,3.834C161.489,218.587,163.286,218.106,162.87,216.98L162.87,216.98z"/>
			</g>
			<g>
				<path d="M162.002,217.938c0.036,1.462-0.045,2.9-0.338,4.338c-0.143,0.701-0.969,4.081-1.416,4.025
					c-0.887-0.112,2.446-7.241,2.743-7.796c-0.566-0.074-1.132-0.148-1.698-0.222c0.314,1.08-0.568,2.886-0.856,3.926
					c-0.343,1.235-0.686,2.469-1.029,3.704c-0.32,1.154,1.472,1.647,1.792,0.494c0.468-1.684,0.935-3.367,1.403-5.051
					c0.329-1.186,0.838-2.345,0.482-3.567c-0.216-0.742-1.312-0.944-1.698-0.222c-0.999,1.866-5.478,9.644-1.626,10.805
					c1.765,0.532,2.386-1.469,2.871-2.758c0.925-2.458,1.294-5.059,1.229-7.676C163.831,216.745,161.972,216.74,162.002,217.938
					L162.002,217.938z"/>
			</g>
			<g>
				<path d="M143.003,222.144c0.799,0.48,1.511,1.055,2.112,1.771c0.352,0.419,0.655,0.88,0.912,1.363
					c0.171,0.322,0.303,1.114,0.553,1.339c0.021,0.268,0.125,0.256,0.313-0.036c-0.2-0.201-0.384-0.416-0.551-0.646
					c-0.278-0.37-0.518-0.769-0.754-1.166c-0.595-1.004-1.301-2.027-1.151-3.242c-0.577,0.156-1.154,0.313-1.732,0.469
					c0.433,0.663,0.892,1.307,1.385,1.926c0.539,0.677,1.305,1.31,1.606,2.137c0.405,1.115,2.202,0.634,1.792-0.494
					c-0.622-1.711-2.191-2.994-3.179-4.507c-0.538-0.824-1.621-0.423-1.732,0.469c-0.234,1.888,1.094,3.883,2.158,5.346
					c0.719,0.988,1.943,2.29,3.215,1.315c1.208-0.927,0.24-2.804-0.319-3.848c-0.852-1.592-2.15-2.876-3.691-3.802
					C142.913,219.921,141.978,221.528,143.003,222.144L143.003,222.144z"/>
			</g>
			<g>
				<path d="M141.515,220.802c-0.56,1.133-1.12,2.265-1.679,3.398c-0.385,0.779-1.132,3.083-2.166,2.997
					c-0.526,0.167-0.644-0.032-0.355-0.597c0.109-0.346,0.264-0.67,0.464-0.971c0.31-0.517,0.723-0.971,1.116-1.425
					c0.369-0.426,0.739-0.859,1.153-1.243c0.285-0.281,0.595-0.532,0.93-0.752c0.493-0.112,0.543-0.269,0.15-0.473
					c-0.08-0.301-0.159-0.603-0.239-0.904c-0.41,1.075-1.46,2.213-2.089,3.17c-0.706,1.074-1.411,2.147-2.117,3.221
					c0.566,0.074,1.132,0.148,1.699,0.222c-0.009-0.061-0.017-0.122-0.026-0.183c-0.167-1.179-1.958-0.678-1.792,0.494
					c0.009,0.061,0.017,0.122,0.026,0.183c0.121,0.856,1.308,0.816,1.698,0.222c0.814-1.239,1.629-2.477,2.443-3.716
					c0.652-0.992,1.527-2.008,1.951-3.118c0.111-0.29-0.014-0.701-0.239-0.904c-1.525-1.373-3.773,1.231-4.703,2.286
					c-1.226,1.39-2.873,3.29-2.252,5.307c0.602,1.955,2.728,1.714,3.943,0.48c1.724-1.752,2.618-4.584,3.69-6.754
					C143.648,220.671,142.046,219.728,141.515,220.802L141.515,220.802z"/>
			</g>
			<g>
				<path d="M142.832,220.234c0.223-2.89-0.094-5.789-1.096-8.52c-0.509-1.388-1.325-3.713-3.245-3.191
					c-1.692,0.46-1.334,2.514-1.144,3.851c0.394,2.77,1.435,5.33,2.984,7.651c0.607,0.909,1.866,0.313,1.699-0.716
					c-0.48-2.954-1.218-5.819-2.225-8.637c-0.4-1.118-2.196-0.636-1.792,0.494c1.007,2.818,1.745,5.683,2.225,8.637
					c0.566-0.239,1.132-0.477,1.698-0.716c-0.91-1.363-1.656-2.79-2.16-4.355c-0.187-0.58-0.334-1.174-0.452-1.771
					c-0.112-0.515-0.189-1.035-0.232-1.561c-0.224-0.734-0.172-0.919,0.156-0.556c0.651-0.003,1.396,3.7,1.512,4.308
					c0.321,1.685,0.345,3.377,0.214,5.081C140.882,221.427,142.741,221.421,142.832,220.234L142.832,220.234z"/>
			</g>
		</g>
	</g>
</svg>
