<?xml version="1.0" encoding="utf-8"?>
<svg version="1.1" xmlns="http://www.w3.org/2000/svg" xmlns:xlink="http://www.w3.org/1999/xlink" xml:space="preserve" viewBox="40 232 176 38">
<g>
		<g>
			<g>
				<path d="M108.812,264.987c25.61-16.819,64.046-24.766,91.989-9.088c1.044,0.586,1.982-1.019,0.938-1.605
					c-28.525-16.005-67.678-8.109-93.865,9.088C106.878,264.036,107.808,265.646,108.812,264.987L108.812,264.987z"/>
			</g>
			<g>
				<path d="M131.369,253.156c0.784-2.055,1.787-4.002,3.057-5.8c0.484-0.685,3.51-4.92,4.485-4.46
					c1.044,0.493-2.976,4.983-3.636,5.606c-1.801,1.701-3.852,3.029-6.062,4.128c-1.071,0.532-0.131,2.136,0.938,1.605
					c3.321-1.651,6.372-3.906,8.655-6.856c0.941-1.216,3.672-5.067,1.703-6.609c-1.88-1.473-4.968,2.295-5.907,3.375
					c-2.197,2.529-3.833,5.393-5.025,8.516C129.15,253.781,130.946,254.264,131.369,253.156L131.369,253.156z"/>
			</g>
			<g>
				<path d="M130.815,254.531c1.874-0.351,3.713-0.38,5.584,0.027c0.646,0.14,4.906,1.34,4.633,2.202
					c-0.076,0.238-10.227-1.859-10.717-2.744c-0.579-1.047-2.185-0.11-1.605,0.938c0.552,0.997,1.288,1.216,2.366,1.504
					c2.043,0.545,4.115,1.006,6.17,1.502c1.414,0.341,5.231,1.649,6.033-0.392c0.744-1.894-2.434-3.386-3.672-3.917
					c-2.979-1.279-6.12-1.503-9.286-0.911C129.147,252.959,129.644,254.751,130.815,254.531L130.815,254.531z"/>
			</g>
			<g>
				<path d="M151.258,248.061c1.119-1.587,2.381-3.042,3.826-4.338c0.419-0.376,3.992-3.593,4.749-3.303
					c1.439,0.551-3.135,3.171-3.592,3.433c-1.665,0.955-3.375,1.822-5.113,2.635c-1.082,0.507-0.14,2.109,0.938,1.605
					c1.658-0.776,13.969-6.245,10.053-9.39c-1.908-1.532-4.948,1.047-6.408,2.128c-2.372,1.755-4.361,3.885-6.057,6.292
					C148.963,248.103,150.574,249.032,151.258,248.061L151.258,248.061z"/>
			</g>
			<g>
				<path d="M153.902,248.293c1.446-0.09,12.371-0.568,11.687,2.241c-0.129,0.532-3.336,0.289-3.733,0.246
					c-1.008-0.109-1.966-0.321-2.926-0.646c-2.223-0.754-4.255-1.996-6.262-3.188c-1.031-0.612-1.967,0.994-0.938,1.605
					c3.072,1.824,6.258,3.682,9.876,4.097c1.553,0.178,5.465,0.379,6.161-1.683c0.664-1.969-1.954-3.154-3.313-3.67
					c-3.354-1.273-7.039-1.079-10.551-0.861C152.714,246.508,152.706,248.367,153.902,248.293L153.902,248.293z"/>
			</g>
			<g>
				<path d="M171.55,247.039c1.8-1.029,3.631-1.993,5.52-2.849c1.39-0.63,5.108-2.826,6.675-2.402
					c2.113,0.57-1.737,1.788-1.868,1.835c-0.965,0.349-1.966,0.605-2.97,0.812c-2.296,0.474-4.644,0.595-6.98,0.683
					c-1.192,0.045-1.198,1.904,0,1.859c3.857-0.146,7.792-0.441,11.398-1.931c1.468-0.606,4.222-1.71,3.628-3.817
					c-1.32-4.678-14.101,2.924-16.342,4.206C169.574,246.028,170.509,247.634,171.55,247.039L171.55,247.039z"/>
			</g>
			<g>
				<path d="M174.207,247.839c1.976,0.378,3.866,0.99,5.618,1.992c0.784,0.448,1.729,1.008,2.372,1.625
					c1.088,1.044,1.419,1.742-0.317,0.705c-2.776-1.659-6.647-3.246-8.577-5.892c-0.698-0.957-2.311-0.031-1.605,0.938
					c1.858,2.549,4.571,3.613,7.186,5.207c1.363,0.831,4.37,3.489,6.189,2.151c1.746-1.284-0.532-3.555-1.563-4.423
					c-2.533-2.133-5.572-3.476-8.811-4.095C173.532,245.823,173.032,247.614,174.207,247.839L174.207,247.839z"/>
			</g>
			<g>
				<path d="M192.134,250.651c1.853-0.815,3.717-1.631,5.67-2.181c0.826-0.233,1.656-0.406,2.509-0.512
					c0.483-0.088,0.969-0.128,1.46-0.121c1.097,0.385,1.303,0.694,0.62,0.929c-0.53,1.031-4.115,1.165-5.066,1.179
					c-1.751,0.026-3.464-0.309-5.149-0.75c-1.158-0.303-1.652,1.489-0.494,1.792c2.667,0.699,5.45,1.084,8.19,0.584
					c1.622-0.296,5.137-1.165,5.131-3.332c-0.014-5.339-11.868-0.046-13.808,0.807C190.103,249.526,191.048,251.128,192.134,250.651
					L192.134,250.651z"/>
			</g>
			<g>
				<path d="M190.403,252.439c1.358,2.571,2.522,5.492,4.243,7.84c0.956,1.303,2.726,2.572,4.355,1.581
					c4.067-2.472-4.392-9.667-6.121-11.083c-0.918-0.752-2.24,0.556-1.314,1.314c1.183,0.969,2.312,1.993,3.358,3.11
					c0.596,0.636,1.171,1.295,1.71,1.981c0.512,0.653,2.028,2.151,0.903,2.661c-1.328,0.602-2.439-2.492-2.968-3.494
					c-0.854-1.616-1.707-3.232-2.561-4.848C191.449,250.443,189.845,251.381,190.403,252.439L190.403,252.439z"/>
			</g>
			<g>
				<path d="M201.191,255.826c1.492,0.089,2.968,0.316,4.379,0.827c0.835,0.303,1.644,0.703,2.374,1.212
					c0.319,0.222,2.331,1.78,1.211,1.932c-1.2,0.163-3.174-1.467-4.015-2.171c-1.107-0.927-2.073-2.003-3.009-3.098
					c-0.778-0.911-2.088,0.409-1.314,1.314c1.648,1.928,3.472,3.838,5.778,4.977c1.374,0.679,3.819,1.728,4.722-0.172
					c0.916-1.929-1.29-3.648-2.678-4.544c-2.222-1.433-4.842-1.981-7.447-2.136C199.996,253.896,200,255.755,201.191,255.826
					L201.191,255.826z"/>
			</g>
			<g>
				<path d="M144.74,248.26c0.01,0,0.021,0,0.031,0c2.392,0,2.396-3.717,0-3.717c-0.01,0-0.021,0-0.031,0
					C142.348,244.543,142.344,248.26,144.74,248.26L144.74,248.26z"/>
			</g>
			<g>
				<path d="M170.206,247.251c-0.01,0-0.021,0-0.031,0c-2.392,0-2.396,3.717,0,3.717c0.01,0,0.021,0,0.031,0
					C172.598,250.968,172.602,247.251,170.206,247.251L170.206,247.251z"/>
			</g>
			<g>
				<path d="M187.827,248.851c2.392,0,2.396-3.717,0-3.717C185.436,245.134,185.432,248.851,187.827,248.851L187.827,248.851z"/>
			</g>
			<g>
				<path d="M126.754,256.351c-0.04-0.04-0.081-0.081-0.122-0.121c-1.694-1.694-4.323,0.934-2.628,2.628
					c0.041,0.04,0.081,0.081,0.121,0.121C125.819,260.673,128.449,258.046,126.754,256.351L126.754,256.351z"/>
			</g>
		</g>
		<g>
			<g>
				<path d="M148.914,263.382c-26.186-17.197-65.339-25.093-93.865-9.088c-1.043,0.585-0.107,2.191,0.938,1.605
					c27.942-15.677,66.378-7.731,91.989,9.088C148.979,265.646,149.911,264.037,148.914,263.382L148.914,263.382z"/>
			</g>
			<g>
				<path d="M127.212,252.662c-1.147-3.005-2.701-5.764-4.777-8.23c-0.942-1.12-4.212-5.184-6.155-3.661
					c-1.941,1.521,0.712,5.305,1.631,6.515c2.277,2.997,5.38,5.286,8.728,6.95c1.068,0.531,2.01-1.072,0.938-1.605
					c-2.21-1.099-4.261-2.427-6.062-4.128c-0.661-0.624-4.681-5.114-3.636-5.606c0.975-0.46,4.001,3.775,4.485,4.46
					c1.27,1.798,2.273,3.745,3.057,5.8C125.842,254.263,127.639,253.783,127.212,252.662L127.212,252.662z"/>
			</g>
			<g>
				<path d="M126.467,252.739c-3.16-0.591-6.313-0.37-9.286,0.911c-1.244,0.536-4.406,2.009-3.672,3.917
					c0.784,2.039,4.668,0.721,6.033,0.392c1.899-0.458,3.805-0.897,5.696-1.387c1.234-0.319,2.196-0.455,2.84-1.619
					c0.58-1.047-1.025-1.986-1.605-0.938c-0.454,0.82-10.339,3.31-10.717,2.744c-0.343-0.513,3.802-2.009,4.234-2.114
					c1.992-0.483,3.974-0.491,5.983-0.115C127.142,254.75,127.643,252.959,126.467,252.739L126.467,252.739z"/>
			</g>
			<g>
				<path d="M107.134,247.123c-1.696-2.406-3.686-4.535-6.057-6.292c-1.489-1.103-4.478-3.656-6.408-2.128
					c-3.94,3.118,8.44,8.635,10.053,9.39c1.077,0.504,2.021-1.098,0.938-1.605c-1.738-0.814-3.447-1.681-5.113-2.635
					c-0.502-0.287-5.078-2.864-3.592-3.433c0.794-0.304,4.356,2.952,4.749,3.303c1.448,1.294,2.708,2.752,3.826,4.338
					C106.214,249.031,107.826,248.104,107.134,247.123L107.134,247.123z"/>
			</g>
			<g>
				<path d="M102.886,246.434c-3.365-0.209-6.871-0.398-10.112,0.711c-1.426,0.488-4.479,1.713-3.752,3.821
					c0.704,2.042,4.474,1.86,6.037,1.7c3.66-0.375,6.9-2.274,9.999-4.114c1.028-0.61,0.094-2.217-0.938-1.605
					c-1.756,1.042-3.509,2.089-5.411,2.845c-0.872,0.347-7.175,2.195-7.51,0.742c-0.22-0.955,2.553-1.757,2.957-1.867
					c0.977-0.265,1.986-0.407,2.996-0.479c1.909-0.135,3.828-0.015,5.734,0.104C104.08,248.367,104.076,246.508,102.886,246.434
					L102.886,246.434z"/>
			</g>
			<g>
				<path d="M86.176,245.434c-2.271-1.298-15.023-8.879-16.342-4.206c-0.597,2.117,2.134,3.203,3.628,3.817
					c3.611,1.484,7.539,1.785,11.398,1.931c1.196,0.045,1.194-1.813,0-1.859c-2.336-0.088-4.684-0.214-6.98-0.683
					c-1.002-0.205-2.006-0.467-2.97-0.812c-0.396-0.142-3.78-1.018-1.868-1.835c1.166-0.498,5.653,1.94,6.675,2.402
					c1.89,0.854,3.72,1.82,5.52,2.849C86.277,247.634,87.215,246.029,86.176,245.434L86.176,245.434z"/>
			</g>
			<g>
				<path d="M82.087,246.047c-3.24,0.619-6.275,1.962-8.811,4.095c-1.006,0.846-3.305,3.143-1.563,4.423
					c1.824,1.34,4.798-1.302,6.189-2.151c2.614-1.596,5.327-2.656,7.186-5.207c0.705-0.968-0.906-1.896-1.605-0.938
					c-1.92,2.634-5.816,4.242-8.577,5.892c-1.738,1.039-1.398,0.342-0.317-0.705c0.667-0.645,1.572-1.169,2.372-1.625
					c1.756-0.999,3.641-1.614,5.618-1.992C83.755,247.615,83.258,245.823,82.087,246.047L82.087,246.047z"/>
			</g>
			<g>
				<path d="M65.592,249.046c-1.921-0.844-13.864-6.138-13.808-0.807c0.022,2.064,3.175,2.923,4.758,3.255
					c2.86,0.6,5.767,0.226,8.564-0.506c1.156-0.303,0.666-2.096-0.494-1.792c-1.687,0.442-3.398,0.763-5.149,0.75
					c-0.934-0.007-4.548-0.17-5.066-1.179c-0.684-0.235-0.477-0.545,0.62-0.929c0.231,0.007,0.463,0.014,0.694,0.021
					c0.909-0.086,2.36,0.357,3.274,0.611c1.953,0.543,3.819,1.368,5.67,2.181C65.739,251.127,66.686,249.527,65.592,249.046
					L65.592,249.046z"/>
			</g>
			<g>
				<path d="M64.78,251.501c-0.797,1.508-1.593,3.017-2.39,4.525c-0.54,1.022-1.779,4.434-3.139,3.817
					c-1.125-0.51,0.391-2.008,0.903-2.661c0.471-0.601,0.972-1.178,1.488-1.74c1.109-1.209,2.31-2.313,3.579-3.351
					c0.926-0.758-0.396-2.066-1.314-1.314c-1.734,1.42-10.188,8.611-6.121,11.083c1.583,0.962,3.327-0.224,4.283-1.487
					c1.774-2.345,2.945-5.339,4.316-7.934C66.943,251.382,65.339,250.442,64.78,251.501L64.78,251.501z"/>
			</g>
			<g>
				<path d="M55.597,253.967c-2.507,0.149-5.029,0.659-7.203,1.979c-1.451,0.881-3.876,2.691-2.922,4.701
					c0.863,1.817,3.11,0.919,4.467,0.289c2.424-1.126,4.321-3.092,6.032-5.094c0.773-0.904-0.535-2.225-1.314-1.314
					c-0.873,1.022-1.772,2.031-2.79,2.912c-0.872,0.755-2.955,2.53-4.234,2.357c-1.12-0.152,0.892-1.71,1.211-1.932
					c0.607-0.423,1.261-0.756,1.944-1.037c1.536-0.631,3.157-0.904,4.809-1.002C56.786,255.755,56.794,253.896,55.597,253.967
					L55.597,253.967z"/>
			</g>
			<g>
				<path d="M112.048,244.543c-0.01,0-0.021,0-0.031,0c-2.392,0-2.396,3.717,0,3.717c0.01,0,0.021,0,0.031,0
					C114.44,248.26,114.444,244.543,112.048,244.543L112.048,244.543z"/>
			</g>
			<g>
				<path d="M86.582,250.968c0.01,0,0.021,0,0.031,0c2.392,0,2.396-3.717,0-3.717c-0.01,0-0.021,0-0.031,0
					C84.19,247.251,84.186,250.968,86.582,250.968L86.582,250.968z"/>
			</g>
			<g>
				<path d="M68.961,248.851c2.392,0,2.396-3.717,0-3.717C66.569,245.134,66.565,248.851,68.961,248.851L68.961,248.851z"/>
			</g>
			<g>
				<path d="M132.662,258.979c0.04-0.04,0.081-0.081,0.121-0.121c1.694-1.694-0.934-4.323-2.628-2.628
					c-0.04,0.04-0.081,0.081-0.122,0.121C128.34,258.045,130.968,260.674,132.662,258.979L132.662,258.979z"/>
			</g>
		</g>
	</g>
</svg>
