<?xml version="1.0" encoding="utf-8"?>
<svg version="1.1" xmlns="http://www.w3.org/2000/svg" xmlns:xlink="http://www.w3.org/1999/xlink" xml:space="preserve" viewBox="34 389 189 37">
<g>
		<g>
			<g>
				<path d="M213.368,402.989c-3.976,3.086-8.057,6.259-12.847,7.984c-4.447,1.601-9.307,2.008-13.997,2.172
					c-8.785,0.309-17.531-0.814-26.254-1.684c-7.779-0.776-15.987-1.77-23.777-0.548c-3.594,0.564-12.355,2.634-11.132,7.79
					c0.276,1.163,2.069,0.671,1.792-0.494c-1.008-4.247,10.079-5.591,12.575-5.785c3.899-0.304,7.87-0.104,11.767,0.142
					c8.201,0.518,16.344,1.711,24.545,2.228c7.301,0.46,14.957,0.586,22.112-1.184c6.331-1.566,11.461-5.373,16.53-9.307
					C215.626,403.571,214.302,402.264,213.368,402.989L213.368,402.989z"/>
			</g>
			<g>
				<path d="M213.543,404.861c2.202-1.115,3.904-3.095,4.484-5.525c0.423-1.772,0.317-4.411-1.845-4.984
					c-2.205-0.584-4.341,1.855-5.214,3.59c-1.256,2.493-0.988,5.292,0.371,7.674c0.592,1.039,2.199,0.104,1.605-0.938
					c-0.866-1.518-1.197-3.219-0.707-4.928c0.184-0.641,0.503-1.228,0.89-1.766c0.74-1.029,1.061-1.564,2.327-0.977
					c1.124,0.521,1.049,0.735,0.782,1.836c-0.154,0.636-0.41,1.253-0.74,1.817c-0.685,1.171-1.698,1.994-2.89,2.597
					C211.538,403.796,212.478,405.4,213.543,404.861L213.543,404.861z"/>
			</g>
			<g>
				<path d="M197.175,412.653c1.872-1.073,3.354-2.67,4.143-4.696c0.617-1.584,0.926-3.885-0.827-4.892
					c-1.618-0.929-3.227,0.459-3.967,1.843c-1.177,2.201-1.124,4.828-1.051,7.247c0.036,1.193,1.895,1.198,1.859,0
					c-0.035-1.177-0.081-2.368,0.046-3.542c0.07-0.647,0.495-3.6,1.405-3.67c0.397,0.268,0.794,0.535,1.191,0.803
					c-0.041,0.422-0.131,0.833-0.269,1.232c-0.188,0.575-0.468,1.128-0.797,1.633c-0.678,1.041-1.597,1.822-2.669,2.436
					C195.199,411.643,196.135,413.249,197.175,412.653L197.175,412.653z"/>
			</g>
			<g>
				<path d="M180.662,414.225c2.008-0.723,3.717-2.005,4.848-3.835c0.857-1.386,1.797-3.8,0.201-5.043
					c-1.628-1.269-3.746,0.062-4.817,1.391c-1.524,1.889-2.264,4.277-2.455,6.666c-0.096,1.192,1.764,1.186,1.859,0
					c0.108-1.343,0.428-2.657,1.027-3.869c0.319-0.645,0.697-1.305,1.182-1.84c0.248-0.288,0.535-0.533,0.861-0.734
					c0.584-0.467,0.933-0.382,1.047,0.256c0.592,1.013-0.583,2.484-1.271,3.244c-0.82,0.906-1.827,1.559-2.974,1.972
					C179.05,412.834,179.532,414.631,180.662,414.225L180.662,414.225z"/>
			</g>
			<g>
				<path d="M161.045,412.623c2.269-0.124,4.104-0.99,5.446-2.855c0.966-1.342,2.565-3.903,0.969-5.369
					c-1.548-1.421-4.057-0.033-5.19,1.257c-1.428,1.627-2.678,4.161-2.575,6.359c0.056,1.191,1.914,1.198,1.858,0
					c-0.066-1.409,0.585-2.73,1.272-3.928c0.464-0.809,1.871-2.864,3.028-2.397c1.018,0.411-0.568,2.614-0.967,3.14
					c-0.977,1.289-2.246,1.847-3.841,1.935C159.855,410.83,159.848,412.689,161.045,412.623L161.045,412.623z"/>
			</g>
			<g>
				<path d="M143.703,411.073c1.857-0.881,3.428-2.079,4.438-3.909c0.753-1.365,1.475-3.502-0.081-4.612
					c-1.489-1.063-3.232,0.007-4.107,1.306c-1.146,1.701-1.84,4.476-1.571,6.499c0.156,1.168,2.016,1.184,1.859,0
					c-0.153-1.145,0.127-2.47,0.443-3.582c0.153-0.538,0.337-1.081,0.619-1.567c0.388-0.667,1.699-1.88,1.726-0.148
					c0.013,0.857-1.078,2.134-1.64,2.705c-0.767,0.779-1.648,1.241-2.624,1.704C141.685,409.981,142.627,411.583,143.703,411.073
					L143.703,411.073z"/>
			</g>
			<g>
				<path d="M147.935,412.271c1.086,0.499,2.047,1.159,2.83,2.072c0.573,0.669,2.147,2.748,0.92,3.26
					c-1.271,0.531-2.804-0.983-3.153-2.041c-0.197-0.596-0.17-1.245-0.191-1.865c-0.008-0.224,0.129-1.589-0.282-1.382
					c1.068-0.539,0.128-2.143-0.938-1.605c-0.884,0.446-0.688,1.459-0.661,2.299c0.037,1.153-0.007,2.347,0.425,3.437
					c0.779,1.962,2.829,3.224,4.934,3.024c2.339-0.222,2.606-2.184,1.799-4.027c-0.931-2.127-2.642-3.811-4.745-4.777
					C147.794,410.17,146.848,411.772,147.935,412.271L147.935,412.271z"/>
			</g>
			<g>
				<path d="M169.813,414.732c0.097-0.018,0.195-0.037,0.292-0.055c-0.239-0.031-0.477-0.062-0.716-0.094
					c1.065,0.515,2.013,1.405,2.87,2.213c0.604,0.57,2.627,2.484,0.926,2.871c-2.735,0.623-2.888-4.143-3.048-5.682
					c-0.123-1.178-1.983-1.19-1.859,0c0.219,2.1,0.251,4.364,1.662,6.073c1.16,1.403,3.371,2.066,4.932,0.892
					c1.617-1.216,0.656-3.332-0.413-4.566c-0.754-0.87-1.66-1.627-2.566-2.334c-0.815-0.636-1.505-1.311-2.574-1.11
					C168.145,413.16,168.642,414.952,169.813,414.732L169.813,414.732z"/>
			</g>
			<g>
				<path d="M188.183,415.357c1.094,0.322,6.581,3.045,4.328,4.436c-1.373,0.848-2.658-0.687-3.254-1.774
					c-0.567-1.034-0.373-2.385-0.386-3.527c-0.013-1.195-1.871-1.198-1.859,0c0.011,1.025-0.084,2.124,0.126,3.134
					c0.21,1.014,0.821,1.883,1.486,2.657c1.399,1.629,3.222,2.048,5.121,0.968c1.774-1.009,1.492-2.892,0.319-4.286
					c-1.396-1.66-3.321-2.793-5.386-3.4C187.527,413.227,187.036,415.02,188.183,415.357L188.183,415.357z"/>
			</g>
			<g>
				<path d="M204.984,411.755c1.156-0.189,2.319-0.378,3.493-0.39c0.805-0.009,4.357,0.355,2.724,1.343
					c-1.976,1.195-4.893-0.938-6.37-2.094c-0.931-0.729-2.255,0.577-1.314,1.314c1.609,1.26,3.319,2.476,5.391,2.777
					c1.525,0.221,3.885,0.016,4.69-1.544c0.764-1.48-0.498-2.726-1.829-3.188c-2.346-0.814-4.896-0.399-7.279-0.01
					C203.312,410.156,203.812,411.947,204.984,411.755L204.984,411.755z"/>
			</g>
		</g>
		<g>
			<g>
				<path d="M42.104,404.304c5.061,3.928,10.205,7.752,16.53,9.307c7.162,1.761,14.805,1.645,22.112,1.184
					c8.201-0.517,16.344-1.713,24.545-2.228c3.905-0.245,7.86-0.434,11.767-0.142c2.249,0.168,13.587,1.522,12.575,5.785
					c-0.276,1.163,1.516,1.659,1.792,0.494c1.224-5.156-7.538-7.227-11.132-7.79c-7.795-1.222-15.991-0.228-23.777,0.548
					c-8.722,0.87-17.469,1.992-26.254,1.684c-4.69-0.165-9.55-0.571-13.997-2.172c-4.791-1.725-8.871-4.898-12.847-7.984
					C42.485,402.265,41.16,403.571,42.104,404.304L42.104,404.304z"/>
			</g>
			<g>
				<path d="M44.181,403.256c-1.196-0.606-2.19-1.44-2.89-2.597c-0.293-0.483-0.512-1.008-0.665-1.551
					c-0.354-1.259-0.504-1.541,0.707-2.102c1.144-0.53,1.32-0.278,2.055,0.596c0.519,0.616,0.932,1.375,1.162,2.148
					c0.513,1.726,0.163,3.403-0.707,4.928c-0.593,1.041,1.012,1.978,1.605,0.938c1.356-2.378,1.633-5.182,0.371-7.674
					c-0.874-1.726-3.004-4.175-5.215-3.59c-2.156,0.571-2.268,3.211-1.845,4.984c0.58,2.428,2.283,4.411,4.484,5.525
					C44.308,405.4,45.25,403.797,44.181,403.256L44.181,403.256z"/>
			</g>
			<g>
				<path d="M60.55,411.048c-1.069-0.613-1.993-1.394-2.669-2.436c-0.326-0.502-2.132-4.294,0.125-3.669
					c0.955,0.264,1.322,2.921,1.405,3.67c0.13,1.173,0.081,2.366,0.046,3.542c-0.036,1.196,1.823,1.195,1.858,0
					c0.073-2.42,0.126-5.046-1.051-7.247c-0.74-1.384-2.351-2.772-3.967-1.843c-1.754,1.007-1.443,3.309-0.827,4.892
					c0.789,2.027,2.27,3.622,4.143,4.696C60.651,413.249,61.588,411.643,60.55,411.048L60.55,411.048z"/>
			</g>
			<g>
				<path d="M76.619,412.432c-1.075-0.387-2.037-0.984-2.828-1.813c-0.73-0.765-2.035-2.345-1.417-3.403
					c0.114-0.637,0.463-0.723,1.047-0.256c0.325,0.201,0.612,0.445,0.861,0.734c0.432,0.477,0.768,1.05,1.065,1.618
					c0.669,1.279,1.029,2.656,1.144,4.091c0.095,1.184,1.954,1.194,1.858,0c-0.191-2.389-0.932-4.776-2.455-6.666
					c-1.072-1.329-3.19-2.66-4.817-1.391c-1.595,1.244-0.656,3.657,0.201,5.043c1.131,1.83,2.84,3.113,4.848,3.835
					C77.253,414.63,77.738,412.835,76.619,412.432L76.619,412.432z"/>
			</g>
			<g>
				<path d="M95.742,410.764c-1.591-0.087-2.87-0.644-3.841-1.935c-0.409-0.544-1.991-2.727-0.967-3.14
					c1.151-0.465,2.573,1.602,3.028,2.397c0.687,1.2,1.338,2.519,1.272,3.928c-0.056,1.196,1.803,1.193,1.858,0
					c0.1-2.132-1.08-4.574-2.426-6.188c-1.131-1.356-3.715-2.921-5.338-1.429c-1.545,1.419-0.08,3.862,0.845,5.19
					c1.364,1.959,3.199,2.904,5.57,3.034C96.937,412.689,96.933,410.83,95.742,410.764L95.742,410.764z"/>
			</g>
			<g>
				<path d="M114.022,409.468c-0.973-0.462-1.862-0.923-2.624-1.704c-0.59-0.605-1.653-1.815-1.64-2.705
					c0.027-1.747,1.334-0.503,1.726,0.148c0.291,0.482,0.468,1.029,0.619,1.567c0.313,1.115,0.596,2.435,0.443,3.582
					c-0.158,1.182,1.702,1.17,1.859,0c0.269-2.016-0.43-4.806-1.571-6.499c-0.875-1.299-2.62-2.368-4.107-1.306
					c-1.556,1.111-0.831,3.25-0.08,4.612c1.007,1.827,2.583,3.029,4.438,3.909C114.158,411.583,115.103,409.981,114.022,409.468
					L114.022,409.468z"/>
			</g>
			<g>
				<path d="M107.914,410.667c-2.065,0.949-3.754,2.59-4.698,4.667c-0.846,1.86-0.656,3.91,1.753,4.138
					c2.07,0.196,4.066-1.014,4.887-2.913c0.454-1.051,0.428-2.196,0.464-3.318c0.029-0.886,0.291-2.052-0.654-2.529
					c-1.065-0.538-2.007,1.065-0.938,1.605c-0.41-0.207-0.274,1.158-0.282,1.382c-0.021,0.62,0.005,1.268-0.191,1.865
					c-0.349,1.058-1.882,2.572-3.153,2.041c-1.227-0.512,0.347-2.592,0.92-3.26c0.783-0.913,1.743-1.573,2.83-2.072
					C109.937,411.772,108.994,410.17,107.914,410.667L107.914,410.667z"/>
			</g>
			<g>
				<path d="M87.468,412.94c-1.038-0.195-1.677,0.418-2.48,1.038c-0.888,0.686-1.766,1.42-2.52,2.254
					c-1.121,1.239-2.249,3.443-0.553,4.719c1.501,1.129,3.635,0.555,4.819-0.75c1.529-1.685,1.553-4.082,1.775-6.214
					c0.124-1.188-1.735-1.18-1.859,0c-0.161,1.539-0.313,6.305-3.048,5.682c-1.701-0.387,0.322-2.302,0.926-2.871
					c0.856-0.808,1.804-1.697,2.87-2.213c-0.239,0.031-0.477,0.062-0.716,0.094c0.097,0.018,0.195,0.037,0.292,0.055
					C88.143,414.952,88.644,413.161,87.468,412.94L87.468,412.94z"/>
			</g>
			<g>
				<path d="M68.11,413.565c-2,0.588-3.874,1.667-5.254,3.251c-1.227,1.408-1.695,3.365,0.187,4.435
					c1.817,1.033,3.593,0.714,4.991-0.816c0.679-0.743,1.327-1.637,1.572-2.623c0.263-1.061,0.158-2.236,0.169-3.32
					c0.013-1.196-1.846-1.197-1.859,0c-0.012,1.141,0.181,2.492-0.386,3.527c-0.596,1.087-1.881,2.622-3.254,1.774
					c-2.262-1.396,3.23-4.113,4.328-4.436C69.749,415.02,69.262,413.226,68.11,413.565L68.11,413.565z"/>
			</g>
			<g>
				<path d="M52.297,409.963c-2.381-0.389-4.938-0.809-7.279,0.01c-1.325,0.463-2.605,1.705-1.829,3.188
					c0.814,1.555,3.163,1.768,4.69,1.544c2.074-0.304,3.781-1.516,5.391-2.777c0.941-0.737-0.383-2.044-1.314-1.314
					c-1.413,1.106-4.487,3.373-6.37,2.094c-1.53-1.039,1.62-1.329,2.414-1.34c1.279-0.017,2.544,0.182,3.803,0.387
					C52.973,411.947,53.476,410.156,52.297,409.963L52.297,409.963z"/>
			</g>
		</g>
	</g>
</svg>
