<svg xmlns="http://www.w3.org/2000/svg" viewBox="404.957 166.768 49.778 78.996">
<path style="fill-rule:evenodd;clip-rule:evenodd;fill:#212121;stroke:#212121;stroke-width:1.0846;stroke-linecap:round;stroke-linejoin:round;stroke-miterlimit:10;" d="
		M422.108,209.411c0,0-2.471,7.697-2.357,12.193c0,0,6.308,14.993,11.915,16.16c0,0,2.172-1.622,0.155-5.311
		c0,0,1.427-3.122-0.04-5.075c0,0,1.173-3.024,0.058-5.25c0,0,1.89-3.437,0.551-5.064c0,0,0.75-2.866-0.695-4.23
		c0,0,4.746,0.459,8.514-2.887c0,0,5.088,6.82,5.198,3.784c0,0,0.348-2.208-0.537-2.522c0,0,1.392-1.946,0.595-2.847
		c0,0,0.371-1.24-0.503-1.891c0,0,1.054-0.481,0.292-2.329c0,0,1.481-1.052-0.226-1.974c0,0,0.285-2.515-1.73-0.849l-3.03,2.457
		c0,0-2.605-3.265-7.387-3.23c0,0,1.404-0.008,0.779-3.661c0,0,1.123-1.271,0.597-3.698c0,0,1.404-1.328,0.647-3.189
		c0,0,1.698-2.568,0.12-4.094c0,0,1.9-2.356,0.693-4.676c0,0,2.53-3.779,0.698-5.921c0,0-3.953-0.539-14.38,14.437
		c0,0-1.884,8.384,1.223,11.774c0,0-4.401-1.348-6.673,1.599c0,0-2.499-0.253-3.628,1.046c0,0,1.331,1.647,3.197,1.26
		C416.157,205.425,417.972,209.222,422.108,209.411z"/>
</svg>