<svg xmlns="http://www.w3.org/2000/svg" viewBox="254.533 146.173 112.884 55.871">
<path style="fill-rule:evenodd;clip-rule:evenodd;fill:#212121;stroke:#212121;stroke-width:1.0846;stroke-linecap:round;stroke-linejoin:round;stroke-miterlimit:10;" d="
		M263.908,165.508c0,0-1.375-5.915,19.751-5.933c0,0,4.159,2.402,10.1,2.452c0,0,2.49-1.123,5.76-2.647
		c9.692-4.518,20.738-5.207,30.9-1.88c13.277,4.347,28.998,9.937,24.832,10.777c-6.954,1.403-4.965,1.305-4.965,1.305
		s-2.8,4.249-13.547,0.273c0,0-3.127,2.786-10.202,1.332c0,0,11.813,5.964,19.065,3.531c0,0,5.534,3.247-1.739,5.52
		c0,0,2.685,2.729-2.181,3.653c0,0,3.108,2.515,0.683,2.75c0,0,3.229,5.213-2.705,4.37c0,0-3.381,3.033-7.827-2.952
		c0,0-4.891-5.567-10.505-7.774c0,0-27.711,9.251-42.696-12.497C278.633,167.789,273.411,161.687,263.908,165.508z"/>
</svg>