<svg xmlns="http://www.w3.org/2000/svg" viewBox="173.325 203.344 101.671 78.702">
<path style="fill-rule:evenodd;clip-rule:evenodd;fill:#212121;stroke:#212121;stroke-width:1.0846;stroke-linecap:round;stroke-linejoin:round;stroke-miterlimit:10;" d="
		M181.325,211.598c0,0,19.045-0.254,25.811,12.327c0,0,3.338,6.894,19.383-4.179c0,0,11.32-5.551,23.517,11.883
		c0,0,16.96,19.618,13.431,19.296c-3.529-0.322-10.362-4.13-10.362-4.13s-1.347,2.236-6.53-0.767c0,0-3.096,0.993-7.31-1.781
		c0,0-1.746,0.819-5.158-0.145c0,0-3.103,2.048-6.475-1.521c0,0-2.332,1.754-6.372-0.43c0,0,10.471,16.545,28.548,23.877
		c0,0,0.455,8.018-8.535,3.788c0,0-2.549,3.639-8.475-0.956c0,0-0.949,3.009-3.499,0.217c0,0-2.069,0.857-3.68-2.194
		c0,0-4.616,0.992-7.086-13.819c0,0-21.944-5.846-26.663-31.512C191.872,221.552,192.798,219.538,181.325,211.598z"/>
</svg>