<svg xmlns="http://www.w3.org/2000/svg" viewBox="393.262 319.744 72.288 51.280">
<path style="fill-rule:evenodd;clip-rule:evenodd;fill:#212121;stroke:#212121;stroke-width:1.0846;stroke-linecap:round;stroke-linejoin:round;stroke-miterlimit:10;" d="
		M401.262,338.397c0,0,7.688-5.05,14.337-0.908c0,0,3.578,2.191,8.603-2.674c0,0,5.771-4.941,9.409-5.598
		c0,0,5.587-1.473,16.341,3.265c0,0,5.128,1.919,7.598,2.508c0,0-3.174,4.618-10.207,3.455c0,0-1.926,3.512-6.51,2.233
		c0,0-1.367,2.266-4.878,1.562c0,0,0.229,0.8-1.004,0.932c0,0,1.182,2.466,5.254,3.745l12.037,0.974c0,0,0.98,3.746-4.007,4.099
		c0,0,0.472,2.448-3.49,1.849c0,0-0.077,2.103-3.25,2.06c0,0-2.493,1.904-4.97-0.679c0,0-1.864-3.414-3.416-3.405
		c0,0-7.933,0.712-9.172-0.151c0,0-1.28,1.092-2.778,0.43c0,0-1.097,2.102-2.437,1.785c0,0-0.506,2.797-3.13,3.343
		c0,0,0.923,2.135-0.696,2.975c0,0,0.103,2.827-2.149,2.805c0,0-7.32-11.204-5.589-17.734c0,0,0.453-1.47,2.684-0.951
		c0,0-1.689-3.649-3.061-4.35C406.781,339.966,404.612,338.016,401.262,338.397z"/>
</svg>