<svg xmlns="http://www.w3.org/2000/svg" viewBox="47.027 232.627 121.966 98.481">
<path style="fill-rule:evenodd;clip-rule:evenodd;fill:#212121;stroke:#212121;stroke-width:1.0846;stroke-linecap:round;stroke-linejoin:round;stroke-miterlimit:10;" d="
		M90.835,270.4c0,0-14.842,6.359-21.47,12.422c0,0-14.338,29.153-8.752,39.134c0,0,5.293,1.152,8.209-6.725
		c0,0,6.575-1.94,7.598-6.708c0,0,6.097-2.193,7.991-6.79c0,0,7.656-1.655,8.355-5.804c0,0,5.303-2.625,5.466-6.589
		c0,0,5.525,7.757,15.506,9.053c0,0-3.616,16.607,1.106,12.797c0,0,3.784-2.367,3.098-4.115c0,0,4.756-0.453,5.075-2.833
		c0,0,2.353-1.065,2.19-3.235c0,0,2.104,0.959,3.894-2.614c0,0,3.527,0.856,2.68-2.924c0,0,4.164-2.867-0.986-3.721l-7.673-1.349
		c0,0,1.508-8.205-4.806-15.368c0,0,1.851,2.107,6.54-3.623c0,0,3.386,0.027,6.355-3.944c0,0,3.843,0.377,5.655-3.203
		c0,0,6.096-0.806,6.331-5.182c0,0,6.038-0.221,7.956-5.082c0,0,9.011-1.136,9.84-6.705c0,0-4.368-6.665-40.604-2.764
		c0,0-15.107,8.144-16.147,17.27c0,0-3.733-8.402-11.153-7.965c0,0-2.891-4.098-6.328-4.098c0,0-0.74,4.163,2.286,6.469
		C89.048,256.205,85.702,263.917,90.835,270.4z"/>
</svg>