<svg xmlns="http://www.w3.org/2000/svg" viewBox="62.011 162.754 58.455 52.564">
<path style="fill-rule:evenodd;clip-rule:evenodd;fill:#212121;stroke:#212121;stroke-width:1.0846;stroke-linecap:round;stroke-linejoin:round;stroke-miterlimit:10;" d="
		M70.011,174.488c0,0,6.599-3.734,14.852,4.115c0,0,9.159,3.462,15.667,12.111c0,0,10.123,8.249,11.936,9.037
		c0,0-1.07,1.814-4.284,0.086c0,0-1.591,1.553-4.741-1.122c0,0-2.19,0.657-4.106-2.001c0,0-1.512,2.069-2.951-1.592
		c0,0,0.562-1.195-0.851-2.68l-0.886-0.408c0,0,0.673,1.739-0.066,1.707c0,0,2.318,3.185,0.869,3.547c0,0,2.104,1.839,1.182,2.987
		c0,0,2.038,2.044,1.381,3.611c0,0,1.802,3.432-1.102,2.481c0,0-9.476-2.9-12.706-11.85c-3.231-8.95-2.605-10.925-2.605-10.925
		s-4.896-4.153-6.681-6.63C74.919,176.964,72.192,174.605,70.011,174.488z"/>
</svg>