<svg xmlns="http://www.w3.org/2000/svg" viewBox="376.133 394.669 67.571 63.903">
<path style="fill-rule:evenodd;clip-rule:evenodd;fill:#212121;stroke:#212121;stroke-width:1.0846;stroke-linecap:round;stroke-linejoin:round;stroke-miterlimit:10;" d="
		M384.133,406.433c0,0,1.384-3.764,13.057,3.878c0,0,1.427,2.832,4.688,5.014c0,0,0.001,0,0.003,0
		c9.925,1.566,18.886,6.858,25.048,14.794c4.704,6.059,8.775,11.784,6.643,10.929c-4.348-1.743-3.215-1.078-3.215-1.078
		s-3.085,1.333-7.579-4.756c0,0-2.736,0.406-6.117-2.96c0,0,4.364,7.573,9.249,8.857c0,0,1.881,3.797-2.958,2.417
		c0,0,0.493,2.481-2.528,1.229c0,0,0.804,2.516-0.618,1.766c0,0-0.104,4.049-3.077,1.435c0,0-2.966,0.449-3.254-4.467
		c0,0-0.685-4.844-2.985-8.097c0,0-18.653-4.929-19.052-22.367C391.438,413.026,390.765,407.765,384.133,406.433z"/>
</svg>