<svg xmlns="http://www.w3.org/2000/svg" viewBox="196.042 317.900 146.195 128.132">
<path style="fill-rule:evenodd;clip-rule:evenodd;fill:#212121;stroke:#212121;stroke-width:1.0846;stroke-linecap:round;stroke-linejoin:round;stroke-miterlimit:10;" d="
		M204.042,337.348c0,0,20.237-11.448,45.548,12.623c0,0,28.088,10.617,48.045,37.141c0,0,31.045,25.295,36.602,27.714
		c0,0-3.281,5.563-13.137,0.264c0,0-4.876,4.76-14.539-3.44c0,0-6.868,3.254-12.743-4.899c0,0-1.931-3.242-5.242-8.967
		c-3.812-6.591-8.982-6.623-8.982-6.623s2.061,5.334-0.203,5.238c0,0,7.109,9.767,2.666,10.879c0,0,6.451,5.638,3.624,9.158
		c0,0,6.251,6.269,4.234,11.074c0,0,5.529,10.522-3.379,7.608c0,0-29.06-8.894-38.966-36.341
		c-9.906-27.447-7.989-33.501-7.989-33.501s-15.015-12.738-20.487-20.334C219.094,344.944,210.73,337.711,204.042,337.348z"/>
</svg>