<svg xmlns="http://www.w3.org/2000/svg" viewBox="57.184 111.303 42.054 32.514">
<path style="fill-rule:evenodd;clip-rule:evenodd;fill:#212121;stroke:#212121;stroke-width:1.0846;stroke-linecap:round;stroke-linejoin:round;stroke-miterlimit:10;" d="
		M65.184,124.495c0,0,3.528-2.391,6.635-0.518c0,0,1.672,0.991,3.968-1.297c0,0,2.641-2.329,4.322-2.657c0,0,2.577-0.72,7.592,1.401
		c0,0,2.388,0.856,3.537,1.112c0,0-1.439,2.161-4.706,1.669c0,0-0.867,1.64-3,1.08c0,0-0.618,1.059-2.25,0.756
		c0,0,0.113,0.369-0.457,0.438c0,0,0.563,1.134,2.458,1.699l5.584,0.371c0,0,0.479,1.729-1.829,1.927c0,0,0.235,1.13-1.605,0.881
		c0,0-0.021,0.974-1.492,0.975c0,0-1.142,0.898-2.307-0.281c0,0-0.886-1.569-1.606-1.554c0,0-3.67,0.384-4.251-0.009
		c0,0-0.584,0.515-1.284,0.219c0,0-0.493,0.981-1.115,0.842c0,0-0.217,1.299-1.428,1.571c0,0,0.442,0.981-0.302,1.382
		c0,0,0.067,1.309-0.977,1.315c0,0-3.468-5.142-2.709-8.179c0,0,0.2-0.684,1.237-0.458c0,0-0.808-1.68-1.448-1.995
		C67.751,125.184,66.734,124.295,65.184,124.495z"/>
</svg>