<svg xmlns="http://www.w3.org/2000/svg" viewBox="138.445 137.497 70.623 33.651">
<path style="fill-rule:evenodd;clip-rule:evenodd;fill:#212121;stroke:#212121;stroke-width:1.0846;stroke-linecap:round;stroke-linejoin:round;stroke-miterlimit:10;" d="
		M160.532,148.527c0,0,4.199-3.03,8.184,1.203c0,0,2.88,2.354,10.935,1.421c0,0,5.752-0.665,6.799,0.662
		c0,0,6.585,4.254,14.618,5.435c0,0-2.378,4.684-9.902,0.523c0,0-2.518,2.175-6.124,0.283c0,0-1.696,1.866-5.006-0.156
		c0,0,0.37,1.091,2.406,2.794c0,0-1.167,2.456-4.864,0.882c0,0-1.637,1.5-3.567-0.4c0,0-1.76,1.594-3.275,0.387
		c0,0-1.721,1.144-2.563-0.19l0.087-1.874c0,0-1.834-0.331-3.501-1.958c0,0-1.932,1.374-2.95,0.434c0,0-1.947,1.383-3.184,0.549
		c0,0-1.541,1.533-3.256,0.855c0,0-0.473,1.172-2.163-0.096c0,0-2.225,1.56-3.61,0.61c0,0-2.025,1.129-3.151-0.414
		c0,0,6.502-5.189,7.356-7.074c0,0-0.329-1.58,9.853-0.12c0,0,0.646-1.175-1.533-2.929
		C162.122,149.353,161.219,148.639,160.532,148.527z"/>
</svg>