<svg xmlns="http://www.w3.org/2000/svg" viewBox="30.377 356.756 173.190 107.054">
<path style="fill-rule:evenodd;clip-rule:evenodd;fill:#212121;stroke:#212121;stroke-width:1.0846;stroke-linecap:round;stroke-linejoin:round;stroke-miterlimit:10;" d="
		M38.377,372.353c0,0,25.198-7.597,40.066,9.175c0,0,8.034,8.92,25.781-0.335c0,0,19.854-8.863,30.37-7.703
		c0,0,16.523,0.503,42.17,22.252c0,0,12.501,9.439,18.803,13.064c0,0-12.467,10.084-30.814,1.172c0,0-8.14,8.069-19.676,0.832
		c0,0-5.594,5.105-14.656,0.315c0,0-0.018,2.381-3.506,1.739c0,0,1.23,7.728,11.359,14.547l21.84,8.45
		c7.214,2.791,4.06,13.649-3.519,12.098c-0.137-0.028-0.275-0.058-0.415-0.088c0,0-0.7,7.093-11.081,2.232
		c0,0-1.924,5.707-10.593,3.001c0,0-6.422,2.443-11.172-3.041c-1.133-1.309-1.88-2.904-2.338-4.573
		c-0.854-3.114-2.969-9.482-6.171-10.411c0,0-19.8-5.155-25.042-7.879c0,0-4.394,1.953-7.975-1.075c0,0-4.716,4.868-8.125,2.908
		c0,0-3.667,7.258-11.311,6.626c0,0,0.796,6.6-4.328,7.593c0,0-2.018,7.839-8.18,5.952c0,0-10.968-36.7-0.903-53.207
		c0,0,2.439-3.664,8.135-0.426c0,0-1.664-11.384-4.859-14.423C52.238,381.146,47.875,374.032,38.377,372.353z"/>
</svg>