<svg xmlns="http://www.w3.org/2000/svg" viewBox="289.854 272.421 111.861 53.564">
<path style="fill-rule:evenodd;clip-rule:evenodd;fill:#212121;stroke:#212121;stroke-width:1.0846;stroke-linecap:round;stroke-linejoin:round;stroke-miterlimit:10;" d="
		M317.402,289.345c0,0,5.943-7.472,15.13-1.945c0,0,6.287,2.744,20.12-2.93c0,0,9.881-4.049,12.401-2.214
		c0,0,13.811,4.268,28.662,2.358c0,0-1.886,9.502-17.317,5.866c0,0-3.385,5.117-10.73,3.557c0,0-2.081,4.157-8.966,2.22
		c0,0,1.202,1.753,5.665,3.758c0,0-0.847,4.943-8.195,3.991c0,0-2.159,3.481-6.532,1.07c0,0-2.329,3.707-5.622,2.318
		c0,0-2.485,2.889-4.645,0.941l-0.781-3.369c0,0-3.42,0.329-7.191-1.731c0,0-2.745,3.401-5.02,2.242c0,0-2.768,3.425-5.381,2.561
		c0,0-1.97,3.491-5.353,3.142c0,0-0.255,2.316-3.888,0.908c0,0-3.173,3.878-6.106,2.883c0,0-3.031,3.014-5.799,0.837
		c0,0,8.953-12.455,9.531-16.226c0,0-1.372-2.64,17.432-5.127c0,0,0.56-2.409-4.18-4.436
		C320.638,290.019,318.677,289.202,317.402,289.345z"/>
</svg>