<?xml version="1.0" encoding="utf-8"?>
<svg version="1.1" xmlns="http://www.w3.org/2000/svg" xmlns:xlink="http://www.w3.org/1999/xlink" viewBox="68 283 153 169" style="enable-background:new 0 0 500 500;" xml:space="preserve">
<g>
	<g>
		<path style="fill:#FFD5FC;" d="M173.136,412.892c-10.509,2.967-21.665,1.8-32.58,1.468c-10.915-0.332-22.489,0.395-31.559,6.475    c-10.432,6.994-15.833,19.952-26.578,26.454c0.035-0.986,1.257-1.404,2.236-1.53c6.223-0.796,12.528-0.235,18.801-0.128    c14.707,0.249,29.637-2.093,42.917-8.415c13.281-6.322,24.821-16.84,30.889-30.238" />
		<g>
			<path style="fill:#FFD5FC;" d="M173.136,412.849c-4.779,0.081-9.525,0.945-14.317,1.062c-5.179,0.127-10.356-0.195-15.529-0.408     c-8.616-0.354-17.498-0.425-25.815,2.188c-16.228,5.099-22.413,21.472-35.511,30.819c0.441,0.339,0.883,0.679,1.324,1.018     c0.738-1.758,8.366-1.165,9.808-1.14c2.513,0.044,5.024,0.183,7.536,0.263c5.07,0.161,10.133,0.11,15.19-0.33     c9.518-0.828,18.96-2.893,27.786-6.593c14.021-5.878,29.633-17.368,34.034-32.647c0.128-0.444-0.474-0.659-0.717-0.302     c-4.986,7.311-9.756,14.481-16.64,20.182c-7.773,6.437-16.892,10.984-26.566,13.789c-9.819,2.847-20.06,3.918-30.262,3.78     c-5.011-0.068-10.051-0.471-15.059-0.094c-2.357,0.178-5.539,0.049-6.757,2.396c-0.409,0.787,0.425,1.694,1.234,1.233     c6.48-3.693,10.941-9.62,15.588-15.304c5.817-7.115,12.016-12.991,21.118-15.534c9.202-2.571,18.849-1.99,28.279-1.633     c8.113,0.307,17.875,1.31,25.299-2.666C173.196,412.91,173.179,412.848,173.136,412.849L173.136,412.849z" />
		</g>
	</g>
	<g>
		<path style="fill:#FFD5FC;" d="M145.352,371.765c-3.607-2.83-8.534-3.466-13.078-2.864c-9.535,1.263-17.762,7.349-24.464,14.249    c-6.702,6.899-12.359,14.803-19.496,21.252c-4.567,4.127-9.708,7.618-15.228,10.343c12.895,1.569,26.034,1.11,38.788-1.354    c-3.121-3.76-7.205-7.033-8.586-11.72c-1.605-5.448,1.063-11.457,5.27-15.271c4.208-3.814,9.707-5.839,15.131-7.524    c5.424-1.685,11.006-3.155,15.842-6.133c0.499-0.307,1.011-0.655,1.264-1.184c0.852-1.779-1.673-3.208-3.609-3.585" />
		<g>
			<path style="fill:#FFD5FC;" d="M145.584,371.534c-9.391-9.361-25.8-0.342-33.764,6.499c-13.297,11.421-22.097,29.04-38.9,36.106     c-0.507,0.213-0.68,1.071,0,1.211c12.597,2.604,26.694,1.663,39.214-1.02c0.764-0.164,0.881-1.113,0.43-1.629     c-5.574-6.377-11.675-12.452-6.709-21.338c3.977-7.116,12.467-9.735,19.754-11.944c4.195-1.272,13.516-2.869,16.015-7.033     c1.789-2.981-1.696-4.905-4.141-5.484c-1.401-0.332-1.939,1.682-0.591,2.144c5.856,2.004-0.91,4.321-2.341,4.951     c-1.78,0.784-3.594,1.438-5.441,2.047c-3.371,1.113-6.803,2.046-10.126,3.302c-4.927,1.862-9.828,4.332-13.197,8.506     c-2.829,3.505-4.605,8.181-3.801,12.719c0.995,5.615,5.703,9.396,9.2,13.508c0.143-0.543,0.287-1.086,0.43-1.629     c-13.049,2.048-25.391,1.97-38.529,1.666c0.106,0.39,0.211,0.78,0.317,1.17c5.618-3.404,11.268-6.47,16.194-10.875     c5.612-5.017,10.21-11.019,15.214-16.613c10.176-11.374,24.502-22.972,40.375-15.751     C145.508,372.194,145.864,371.813,145.584,371.534L145.584,371.534z" />
		</g>
	</g>
	<g>
		<path style="fill:#FFC385;" d="M177.304,411.504c7.621-3.997,14.548-9.621,19.069-16.944c4.521-7.323,6.445-16.448,4.175-24.749    c-1.204-4.404-4.089-8.889-8.571-9.76c-4.726-0.918-9.084,2.422-13.019,5.197c-9.418,6.643-20.4,11.054-31.797,12.771    c-6.391,0.963-13.034,1.125-18.964,3.695c-3.447,1.493-6.744,4.059-7.701,7.691c-0.93,3.532,0.603,7.361,3.106,10.021    c2.502,2.66,5.851,4.346,9.194,5.818c14.867,6.545,31.685,9.876,47.484,6.097" />
		<g>
			<path style="fill:#FFC385;" d="M177.414,411.903c13.124-3.949,23.708-18.404,25.052-31.744     c1.237-12.287-6.321-26.993-20.038-18.729c-7.907,4.764-14.908,9.704-23.84,12.588c-8.434,2.723-17.202,2.772-25.731,4.862     c-5.726,1.403-12.506,4.51-13.674,10.962c-1.091,6.026,3.251,11.093,8.067,14.027c14.889,9.072,36.495,13.637,53.179,8.009     c0.555-0.187,0.51-1.167-0.148-1.092c-16.935,1.929-34.354-0.138-49.686-7.977c-4.716-2.412-10.528-6.894-8.909-13.076     c1.334-5.094,7.296-7.335,11.835-8.445c7.682-1.879,15.607-1.888,23.262-4.065c7.027-1.999,13.768-5.057,19.921-8.994     c3.488-2.231,6.927-5.529,10.986-6.714c6.285-1.835,10.201,3.312,11.754,8.6c2.494,8.491-0.027,18.086-4.905,25.238     c-4.676,6.855-11.338,10.656-17.528,15.858C176.689,411.482,177.035,412.018,177.414,411.903L177.414,411.903z" />
		</g>
	</g>
	<g>
		<path style="fill:#FFC385;" d="M197.931,394.819c3.598-2.185,5.584-6.21,7.312-10.049c2.627-5.834,5.125-11.845,5.814-18.206    c0.689-6.361-0.65-13.207-4.918-17.974c-4.894-5.467-12.939-7.328-20.183-6.158c-7.244,1.17-13.802,4.975-19.686,9.36    c-3.406,2.538-7.104,5.444-11.34,5.139c-3.477-0.25-6.495-2.742-8.213-5.776c-1.386-2.448-2.069-5.345-1.604-8.12    c1.112-6.629,7.918-10.458,13.906-13.51c7.447-3.795,14.906-7.945,20.586-14.076c4.454-4.807,7.629-10.638,10.624-16.467    c1.563-3.042,3.156-6.187,5.753-8.412c2.597-2.225,6.499-3.309,9.496-1.663c1.104,0.607,2.001,1.528,2.819,2.487    c5.168,6.063,7.698,14.027,8.442,21.958c0.745,7.931-0.171,15.917-1.195,23.818c-0.705,5.442-1.462,10.876-2.218,16.311    c-2.13,15.297-4.674,31.537-14.835,43.169" />
		<g>
			<path style="fill:#FFC385;" d="M198.206,395.29c7.097-3.851,10.419-14.319,12.549-21.617c2.368-8.112,2.6-17.627-2.728-24.683     c-4.911-6.505-13.504-8.887-21.342-7.896c-10.359,1.31-17.008,8.029-25.732,12.808c-4.037,2.212-8.301,2.201-11.504-1.279     c-3.077-3.344-4.061-8.509-1.866-12.56c2.362-4.356,7.288-6.87,11.521-9.049c8.859-4.562,17.565-9.382,23.845-17.336     c3.054-3.869,5.465-8.171,7.749-12.524c2.851-5.434,8.327-16.183,15.802-9.745c8.728,7.518,9.647,22.418,9.06,32.948     c-0.714,12.781-2.783,25.73-4.923,38.347c-2.068,12.198-5.641,23.365-12.981,33.458c-0.655,0.9,0.771,1.954,1.523,1.175     c7.388-7.638,10.799-18.169,12.918-28.369c2.422-11.655,3.805-23.633,5.21-35.449c1.365-11.484,1.969-23.559-2.759-34.408     c-2.916-6.692-8.342-15.228-16.773-11.331c-3.897,1.801-6.147,5.544-8.093,9.182c-3.01,5.626-5.805,11.381-9.986,16.268     c-8.183,9.566-20.061,12.605-29.612,20.12c-6.342,4.99-8.763,13.166-3.517,20.031c7.216,9.442,15.768,2.496,23.093-2.49     c11.592-7.89,32.643-13.017,38.996,4.297c2.551,6.953,1.242,14.414-1.141,21.207c-2.195,6.255-4.844,13.565-9.97,18.04     C197.066,394.853,197.679,395.576,198.206,395.29L198.206,395.29z" />
		</g>
	</g>
</g>
</svg>