<?xml version="1.0" encoding="utf-8"?>
<svg version="1.1" xmlns="http://www.w3.org/2000/svg" xmlns:xlink="http://www.w3.org/1999/xlink" viewBox="276 234 169 189" style="enable-background:new 0 0 500 500;" xml:space="preserve">
<g>
	<g>
		<path style="fill:#FFD5FC;" d="M356.071,341.417c-9.453,1.021-18.974,2.055-28.058,4.861    c-9.084,2.806-17.809,7.532-23.896,14.836c-6.087,7.303-9.207,17.429-6.711,26.603c0.736,2.705,1.986,5.352,4.071,7.227    c3.719,3.343,9.431,3.715,13.121,7.09c2.545,2.327,3.754,5.749,4.679,9.071c0.543,1.952,1.055,3.99,2.333,5.562    c1.279,1.572,3.586,2.52,5.383,1.584c1.523-0.793,2.179-2.6,2.589-4.268c2.622-10.652,0.606-21.832,0.917-32.798    c0.346-12.184,4.147-25.064,13.676-32.664c3.937-3.14,8.617-5.197,13.321-6.993" />
		<g>
			<path style="fill:#FFD5FC;" d="M356.071,340.763c-15.592,0.374-33.149,3.499-45.87,13.084     c-10.738,8.091-18.315,22.755-13.25,36.18c2.585,6.85,8.022,7.931,13.939,11.009c4.626,2.407,6.009,6.443,7.416,11.127     c0.775,2.579,1.665,5.268,4.091,6.738c12.325,7.468,9.468-25.991,9.324-30.383c-0.315-9.609,0.346-19.36,4.617-28.145     c4.464-9.181,12.5-14.136,21.449-18.348c0.594-0.279,0.175-1.249-0.445-1.056c-7.512,2.34-14.064,5.536-19.029,11.883     c-4.333,5.539-6.84,12.337-8.052,19.214c-1.501,8.511-0.708,17.057-0.519,25.634c0.116,5.268,0.155,10.857-1.324,15.96     c-0.409,3.439-2.603,3.816-6.582,1.131c-0.582-1.298-1.043-2.635-1.383-4.013c-0.493-1.524-0.893-3.056-1.552-4.524     c-1.349-3.006-3.252-5.331-6.113-6.989c-4.102-2.377-9.157-2.914-12.11-7.026c-5.859-8.158-2.717-20.456,2.49-28.027     c12.097-17.588,34.161-18.498,53.076-22.166C356.973,341.907,356.801,340.746,356.071,340.763L356.071,340.763z" />
		</g>
	</g>
	<g>
		<path style="fill:#FFD5FC;" d="M363.045,339.578c12.654-1.364,25.4,1.261,37.648,4.719c6.79,1.916,13.797,4.267,18.723,9.317    c2.105,2.158,3.742,4.73,5.151,7.395c1.288,2.434,2.418,5.043,2.507,7.796c0.159,4.912-2.987,9.307-6.445,12.799    c-3.458,3.493-7.45,6.622-9.787,10.945c-1.735,3.209-2.432,6.855-3.406,10.37c-0.974,3.515-2.339,7.092-5.036,9.548    c-2.697,2.456-7.05,3.423-10.04,1.334c-3.068-2.144-3.597-6.397-3.823-10.133c-1.026-16.975-1.565-34.198-6.495-50.474    c-1.565-5.166-3.939-10.634-8.745-13.091c-4.322-2.209-9.503-1.417-14.279-0.55" />
		<g>
			<path style="fill:#FFD5FC;" d="M363.045,339.927c16.04,0.49,33.206,1.964,47.917,9.104c6.975,3.385,13.522,10.364,14.746,18.306     c1.311,8.507-6.689,13.748-11.776,19.203c-4.22,4.525-5.803,9.459-7.406,15.317c-1.219,4.453-3.104,10.005-7.976,11.655     c-7.11,2.408-8.699-5.799-9.01-10.786c-0.944-15.169-1.423-30.474-5.148-45.287c-1.507-5.991-3.35-12.978-8.45-16.978     c-5.156-4.044-11.216-2.958-17.1-1.548c-0.711,0.171-0.58,1.392,0.177,1.306c4.254-0.484,9.769-1.139,13.689,0.894     c4.648,2.41,6.761,7.669,8.234,12.386c2.97,9.507,4.304,19.489,5.163,29.381c0.718,8.272,0.119,17.24,1.916,25.353     c1.049,4.738,4.414,8.43,9.609,7.636c6.091-0.931,9.087-6.525,10.699-11.888c1.18-3.924,1.859-7.948,3.931-11.547     c2.403-4.175,6.444-7.099,9.696-10.553c3.826-4.063,7.045-9.195,6.02-15.005c-1.083-6.133-5.546-12.594-10.434-16.329     c-7.256-5.544-17.136-7.645-25.857-9.587c-9.267-2.064-19.332-3.764-28.732-1.718     C362.558,339.328,362.662,339.915,363.045,339.927L363.045,339.927z" />
		</g>
	</g>
	<g>
		<path style="fill:#FFC385;" d="M369.473,332.92c8.975-14.526,17.555-29.296,25.729-44.288c4.743-8.7,9.373-17.512,15.267-25.478    c5.894-7.966,13.17-15.126,22.061-19.501c2.771-1.363,6.415-2.332,8.692-0.247c2.439,2.233,1.497,6.233,0.169,9.261    c-2.395,5.46-5.446,10.629-7.55,16.208c-2.104,5.579-3.223,11.776-1.579,17.507c1.563,5.448,5.489,10.052,6.638,15.601    c1.864,8.997-4.119,17.916-11.439,23.47c-7.177,5.445-16.227,8.867-25.179,7.856c-5.299-0.599-10.335-2.697-15.626-3.366    c-6.256-0.792-12.757,0.499-18.235,3.621" />
		<g>
			<path style="fill:#FFC385;" d="M370.066,333.266c10.432-14.481,18.758-30.957,27.28-46.609     c8.306-15.257,17.239-31.601,32.759-40.627c1.919-1.116,4.164-2.474,6.414-2.678c5.128-0.467,5.563,4.514,4.412,7.882     c-1.538,4.501-4.262,8.689-6.229,13.014c-2.91,6.398-5.228,13.579-3.819,20.669c1.504,7.569,7.75,13.504,7.285,21.543     c-0.54,9.339-8.563,17.013-16.22,21.298c-4.761,2.664-10.001,4.346-15.469,4.569c-5.248,0.214-10.121-1.502-15.148-2.69     c-8.137-1.923-16.117-1.272-23.156,3.502c-0.428,0.29-0.171,1.116,0.378,0.896c4.959-1.981,10.15-3.276,15.535-3.088     c5.549,0.193,10.706,2.314,16.134,3.216c8.494,1.411,17.044-0.897,24.293-5.38c6.407-3.962,12.157-9.714,14.643-16.962     c2.819-8.218-0.909-14.395-4.321-21.644c-5.613-11.927,0.788-23.002,5.903-33.766c1.945-4.093,5.561-11.591-0.091-14.539     c-5.409-2.821-13.267,3.345-17.15,6.34c-7.288,5.621-13.105,12.875-18.052,20.582c-6.402,9.975-11.679,20.66-17.491,30.981     c-6.193,10.996-13.249,21.614-19.076,32.798C368.465,333.369,369.555,333.975,370.066,333.266L370.066,333.266z" />
		</g>
	</g>
	<g>
		<path style="fill:#FFC385;" d="M360.599,328.497c-3.492-19.797-13.213-37.91-23.698-55.063    c-7.734-12.652-16.743-25.671-30.405-31.435c-4.2-1.772-8.845-2.786-13.338-2.016c-4.493,0.77-8.789,3.539-10.615,7.716    c-1.684,3.852-1.118,8.323,0.096,12.348c2.99,9.912,9.681,18.715,10.731,29.014c0.453,4.444-0.183,8.919-0.315,13.384    c-0.32,10.813,3.052,22.66,12.099,28.589c7.844,5.141,18.066,4.695,27.264,2.862c9.44-1.881,18.627-5.024,27.24-9.32" />
		<g>
			<path style="fill:#FFC385;" d="M360.796,328.497c0.399-9.763-4.589-20.307-8.555-29.031c-4.49-9.877-9.93-19.315-15.65-28.524     c-8.621-13.88-21.714-32.178-40.044-32.319c-7.292-0.056-14.666,4.14-15.975,11.76c-1.422,8.277,3.518,16.62,6.838,23.85     c2.46,5.358,4.632,10.774,4.924,16.734c0.281,5.737-0.824,11.43-0.301,17.176c0.7,7.691,3.348,15.658,8.992,21.158     c15.319,14.927,43.215,4.295,59.381-3.445c1.713-0.82,0.214-3.411-1.496-2.56c-8.519,4.243-17.512,7.423-26.856,9.28     c-8.616,1.713-18.56,2.4-26.267-2.626c-7.254-4.731-10.56-13.503-11.354-21.807c-0.774-8.097,1.256-16.169-0.833-24.167     c-2.08-7.963-6.78-14.905-9.38-22.672c-1.507-4.502-2.606-9.879-0.061-14.233c2.823-4.831,8.795-6.636,14.085-6.161     c17.614,1.581,29.402,19.436,37.755,33.05c5.269,8.587,10.304,17.354,14.504,26.52c2.176,4.749,4.101,9.606,5.72,14.572     c1.467,4.5,2.329,9.192,4.205,13.543C360.512,328.788,360.788,328.674,360.796,328.497L360.796,328.497z" />
		</g>
	</g>
</g>
</svg>