<svg xmlns="http://www.w3.org/2000/svg" viewBox="913.977 920.547 465.595 362.530">
<path style="fill:#C7DFE5;" d="M1292.879,1035.164c1.1-4.307,1.686-8.82,1.686-13.47c0-29.964-24.291-54.255-54.255-54.255
		c-7.796,0-15.207,1.648-21.907,4.609c-21.314-26.521-54.014-43.501-90.686-43.501c-57.227,0-104.799,41.338-114.485,95.783
		c-1.435-0.07-2.879-0.108-4.331-0.108c-48.007,0-86.924,38.917-86.924,86.924c0,46.509,36.526,84.486,82.456,86.811
		c7.022,43.72,44.915,77.12,90.614,77.12c32.965,0,61.865-17.381,78.051-43.476c11.539,8.27,25.68,13.14,40.96,13.14
		c30.762,0,56.911-19.733,66.49-47.23c3.131,0.365,6.315,0.559,9.545,0.559c45,0,81.479-36.479,81.479-81.479
		C1371.572,1072.524,1336.588,1036.633,1292.879,1035.164z"/>
</svg>