<svg xmlns="http://www.w3.org/2000/svg" viewBox="1551.663 920.765 439.214 362.094">
<path style="fill:#C7DFE5;" d="M1982.877,1084.883c0,39.133-25.703,72.266-61.15,83.43c-0.357,35.531-29.258,64.225-64.874,64.225
		c-9.988,0-19.449-2.257-27.895-6.292c-14.314,28.807-44.033,48.613-78.379,48.613c-27.603,0-52.215-12.791-68.241-32.757
		c-4.834,1.721-10.035,2.662-15.461,2.662c-25.101,0-45.5-20.07-46.055-45.039c-35.39-10.684-61.159-43.525-61.159-82.395
		c0-41.569,29.475-76.244,68.655-84.295c0.066-25.393,20.672-45.961,46.083-45.961c4.448,0,8.756,0.64,12.828,1.825
		c11.474-34.92,44.344-60.134,83.1-60.134c28.402,0,53.645,13.543,69.624,34.525c5.981-2.84,12.659-4.43,19.722-4.43
		c23.079,0,42.199,16.966,45.557,39.114C1948.916,1002.855,1982.877,1039.9,1982.877,1084.883z"/>
</svg>