<svg xmlns="http://www.w3.org/2000/svg" viewBox="189.904 1522.969 579.914 325.789">
<path style="fill:#C7DFE5;" d="M730.015,1675.215c-2.578,0-5.082,0.315-7.483,0.894c-7.142-12.468-18.873-21.962-32.9-26.175
		c-4.542-36.088-35.32-64.008-72.64-64.008c-8.371,0-16.406,1.423-23.898,4.01c-24.516-35.614-65.56-58.967-112.065-58.967
		c-53.651,0-100.037,31.079-122.156,76.212c-4.508-0.662-9.116-1.016-13.808-1.016c-35.042,0-65.595,19.13-81.849,47.502
		c-3.991-0.963-8.153-1.486-12.44-1.486c-29.201,0-52.872,23.672-52.872,52.872s23.672,52.872,52.872,52.872
		c6.095,0,11.944-1.044,17.392-2.942c17.086,24.051,45.148,39.758,76.897,39.758c6.969,0,13.754-0.779,20.292-2.213
		c1.595,22.267,20.152,39.84,42.825,39.84c12.942,0,24.538-5.732,32.412-14.787c16.562,14.423,38.19,23.177,61.877,23.177
		c30.446,0,57.505-14.445,74.744-36.84c9.814,7.664,22.154,12.244,35.57,12.244c31.084,0,56.433-24.515,57.789-55.265
		c0.903,0.043,1.811,0.069,2.724,0.069c19.097,0,35.977-9.448,46.254-23.915c3.277,1.141,6.795,1.77,10.461,1.77
		c17.564,0,31.803-14.239,31.803-31.803C761.818,1689.454,747.58,1675.215,730.015,1675.215z"/>
</svg>