<svg xmlns="http://www.w3.org/2000/svg" viewBox="247.065 346.001 465.596 348.141">
<path style="fill:#C7DFE5;" d="M608.92,437.986c-2.687,0-5.338,0.11-7.952,0.329c-17.276-49.104-64.058-84.314-119.085-84.314
		c-65.301,0-119.03,49.598-125.539,113.18c-6.106-1.444-12.486-2.212-19.031-2.212c-45.429,0-82.248,36.819-82.248,82.248
		c0,45.429,36.819,82.248,82.248,82.248c10.306,0,20.163-1.904,29.254-5.364c20.18,36.963,59.399,62.041,104.478,62.041
		c45.302,0,84.682-25.326,104.773-62.589c10.321,3.807,21.464,5.912,33.103,5.912c52.87,0,95.74-42.87,95.74-95.74
		C704.66,480.856,661.79,437.986,608.92,437.986z"/>
</svg>