<svg xmlns="http://www.w3.org/2000/svg" viewBox="906.951 1517.728 479.645 336.272">
<path style="fill:#C7DFE5;" d="M1343.104,1677.198c-2.929-40.574-36.75-72.588-78.07-72.588c-4.841,0-9.572,0.462-14.17,1.303
		c-11.658-46.083-53.395-80.185-103.101-80.185c-50.609,0-92.958,35.353-103.707,82.709c-0.877-0.028-1.757-0.046-2.641-0.046
		c-35.647,0-66.026,22.551-77.653,54.164c-0.952-0.059-1.908-0.099-2.875-0.099c-25.37,0-45.936,20.566-45.936,45.936
		c0,21.467,14.727,39.49,34.627,44.529c-0.014,0.468-0.036,0.935-0.036,1.407c0,25.37,20.566,45.936,45.936,45.936
		c9.779,0,18.837-3.065,26.286-8.274c12.532,31.635,43.4,54.01,79.495,54.01c25.938,0,49.174-11.556,64.85-29.797
		c9.753,6.998,21.701,11.131,34.621,11.131c21.865,0,40.962-11.808,51.295-29.388c8.422,9.706,20.839,15.853,34.698,15.853
		c25.37,0,45.936-20.566,45.936-45.936c25.37,0,45.936-20.566,45.936-45.936C1378.596,1700.152,1363.439,1681.929,1343.104,1677.198
		z"/>
</svg>