<svg xmlns="http://www.w3.org/2000/svg" viewBox="184.582 943.950 590.561 315.723">
<path style="fill:#C7DFE5;" d="M767.143,1118.211c0-13.742-11.14-24.883-24.883-24.883c-2.981,0-5.839,0.526-8.488,1.487
		c-2.429-11.196-12.389-19.583-24.312-19.583c-4.218,0-8.188,1.053-11.668,2.905c-7.723-21.284-26.628-37.202-49.616-40.656
		c-5.929-28.179-30.923-49.338-60.866-49.338c-9.485,0-18.469,2.132-26.513,5.928c-17.176-25.413-46.256-42.121-79.238-42.121
		c-35.815,0-67.009,19.713-83.376,48.868c-1.786-0.141-3.586-0.234-5.409-0.234c-30.091,0-55.592,19.593-64.483,46.712
		c-17.86,1.777-33.67,10.488-44.73,23.392c-4.43-1.448-9.155-2.242-14.069-2.242c-14.219,0-26.9,6.565-35.193,16.824
		c-3.463-1.363-7.231-2.121-11.179-2.121c-16.865,0-30.538,13.672-30.538,30.538s13.672,30.538,30.538,30.538
		c3.947,0,7.715-0.757,11.179-2.121c8.294,10.259,20.974,16.824,35.193,16.824c4.365,0,8.58-0.631,12.574-1.784
		c12.435,15.558,31.56,25.536,53.026,25.536c0.897,0,1.785-0.033,2.673-0.068c12.378,26.745,39.435,45.309,70.843,45.309
		c15.965,0,30.803-4.803,43.167-13.029c15.778,22.247,41.717,36.781,71.066,36.781c30.203,0,56.808-15.38,72.429-38.73
		c5.938,2.358,12.406,3.668,19.184,3.668c20.29,0,37.855-11.623,46.433-28.566c8.942,7.25,20.33,11.601,32.738,11.601
		c28.734,0,52.027-23.293,52.027-52.027c0-1.596-0.083-3.172-0.224-4.732C757.674,1141.328,767.143,1130.879,767.143,1118.211z"/>
</svg>