<svg xmlns="http://www.w3.org/2000/svg" viewBox="1537.412 364.652 467.715 327.249">
<path style="fill:#C7DFE5;" d="M1997.127,527.091c0-53.336-43.238-96.574-96.574-96.574c-3.166,0-6.294,0.163-9.381,0.461
		c-23.259-35.138-63.12-58.326-108.414-58.326c-64.327,0-117.703,46.754-128.083,108.128c-0.619-0.016-1.235-0.047-1.859-0.047
		c-24.851,0-46.636,13.084-58.874,32.731c-3.325-0.948-6.822-1.487-10.45-1.487c-21.031,0-38.08,17.049-38.08,38.08
		c0,21.031,17.049,38.08,38.08,38.08c3.628,0,7.125-0.539,10.45-1.487c10.919,17.53,29.441,29.822,50.96,32.268
		c6.37,36.904,38.514,64.983,77.237,64.983c26.835,0,50.512-13.49,64.646-34.05c13.821,11.402,31.538,18.251,50.854,18.251
		c31.57,0,58.858-18.3,71.859-44.865C1958.638,618.721,1997.127,577.409,1997.127,527.091z"/>
</svg>