<svg xmlns="http://www.w3.org/2000/svg" viewBox="1527.123 1537.810 488.296 294.606">
<path style="fill:#C7DFE5;" d="M2007.419,1686.183c0-29.422-23.851-53.273-53.273-53.273c-2.631,0-5.216,0.199-7.745,0.567
		c-6.439-22.181-26.895-38.4-51.153-38.4c-1.686,0-3.351,0.088-4.996,0.241c-17.967-29.674-50.553-49.508-87.774-49.508
		c-42.932,0-79.681,26.396-94.958,63.835c-0.148-0.001-0.293-0.011-0.441-0.011c-20.858,0-38.904,11.994-47.65,29.455
		c-0.491-0.013-0.98-0.037-1.474-0.037c-12.862,0-24.659,4.559-33.864,12.148c-4.843-1.835-10.091-2.849-15.577-2.849
		c-13.775,0-26.065,6.337-34.128,16.251c-3.079-1.094-6.392-1.694-9.846-1.694c-16.247,0-29.417,13.171-29.417,29.417
		c0,16.247,13.171,29.417,29.417,29.417c3.454,0,6.767-0.6,9.846-1.694c8.063,9.914,20.353,16.251,34.128,16.251
		c5.486,0,10.734-1.013,15.577-2.849c9.206,7.589,21.002,12.148,33.864,12.148c3.143,0,6.216-0.288,9.209-0.81
		c4.067,25.385,26.06,44.784,52.592,44.784c6.172,0,12.092-1.062,17.605-2.992c11.417,22.448,34.718,37.836,61.627,37.836
		c22.697,0,42.837-10.942,55.438-27.837c10.43,5.946,22.49,9.36,35.355,9.36c37.963,0,69-29.584,71.355-66.953
		C1987.252,1735.56,2007.419,1713.234,2007.419,1686.183z"/>
</svg>