<svg xmlns="http://www.w3.org/2000/svg" viewBox="920.443 348.656 452.663 342.832">
<path style="fill:#C7DFE5;" d="M1283.854,448.486c-4.641,0-9.183,0.41-13.611,1.157c-11.202-53.116-58.333-92.987-114.783-92.987
		c-54.048,0-99.551,36.552-113.158,86.283c-7.599-2.084-15.597-3.203-23.858-3.203c-49.706,0-90.001,40.295-90.001,90.001
		c0,47.814,37.288,86.913,84.37,89.82c7.939,36.549,40.455,63.931,79.382,63.931c30.139,0,56.426-16.423,70.452-40.796
		c12.29,16.335,31.836,26.901,53.852,26.901c34.237,0,62.487-25.551,66.773-58.62c0.195,0.001,0.387,0.015,0.583,0.015
		c44.874,0,81.251-36.377,81.251-81.251S1328.728,448.486,1283.854,448.486z"/>
</svg>