<svg xmlns="http://www.w3.org/2000/svg" viewBox="493.746 199.062 215.211 256.151">
<path style="fill:#09203F;" d="M691.485,431.937c0,0,3.667-0.611,4.583-1.528c0.917-0.917-14.971-17.415-24.443-36.664
		c-9.472-19.249-14.36-37.581-20.777-46.441c-6.416-8.861-18.026-15.277-18.026-15.277s14.054,2.444,17.416-1.528
		c3.361-3.972,2.139-15.888,2.139-15.888s14.666-20.165,17.11-24.748c2.444-4.583,0.306-6.722,0.306-6.722s7.638-11.61,8.86-14.971
		c1.222-3.361-1.528-3.361-1.528-3.361s5.805-4.277,6.416-8.86c0.611-4.583-1.528-5.194-1.528-5.194s4.888-7.638,5.194-9.777
		c0.305-2.139-2.139-2.75-2.139-2.75s7.944-12.221,6.111-13.444c-1.833-1.222-4.583-1.528-4.583-1.528s8.25-10.694,7.638-13.444
		c-0.611-2.75-40.025,30.248-57.441,58.357c-17.416,28.109-21.693,37.275-21.693,37.275s0.306-4.583-0.917-6.722
		c-1.222-2.139-3.361-2.139-3.361-2.139s2.139-11.61,1.528-13.138c-0.611-1.528-3.667-1.528-3.667-1.528s3.361-5.5,2.75-8.555
		c-0.611-3.055-3.666-2.139-3.666-2.139s3.361-18.943,2.444-21.388c-0.917-2.444-19.86,38.497-19.86,38.497
		s-19.555-13.138-38.803,10.083c0,0-44.914,4.889-47.358,6.416c-2.444,1.528,5.194,2.139,10.694,1.222
		c5.5-0.917,19.249-2.5,30.248-0.18c10.999,2.319,12.617,8.225,18.332,18.818c2.861,5.304,10.141,11.402,10.141,11.402
		s6.58,21.097,8.413,23.236c1.833,2.139,5.278,12.414,25.749,20.664c4.99,2.011,9.721,3.547,14.03,4.724
		c-0.381,0.525-0.678,1.098-0.82,1.748c-0.108,0.492-0.124,1-0.118,1.504c0.018,1.49,0.232,2.978,0.635,4.413
		c0.081,0.291,0.333,0.653,0.596,0.505c0.139-0.079,0.171-0.26,0.195-0.419c0.198-1.313,0.86-2.526,1.796-3.467
		c0.932,2.442,2.122,4.003,4.802,4.519c0.317,0.061,0.732,0.076,0.868-0.217c0.065-0.14,0.036-0.303,0.006-0.454
		c-0.092-0.462-0.206-0.963-0.57-1.263c-0.263-0.217-0.615-0.291-0.906-0.468c-0.553-0.337-0.821-1.018-0.832-1.665
		c-0.011-0.647,0.194-1.277,0.396-1.892c1.155-0.118,2.295-0.349,3.417-0.648c0.276,0.052,0.544,0.101,0.813,0.151
		c0.958,2.046,0.84,4.57-0.347,6.496c0.626,0.228,1.348-0.009,1.855-0.441c0.507-0.432,0.838-1.032,1.132-1.63
		c0.6-1.217,1.101-2.471,1.448-3.751c5.182,0.752,8.27,0.811,8.27,0.811s38.192,45.83,39.414,48.58
		c1.222,2.75-5.5-14.971-5.5-14.971s17.11,23.221,19.86,24.137C700.957,447.213,691.485,431.937,691.485,431.937z"/>
</svg>