<svg xmlns="http://www.w3.org/2000/svg" viewBox="52.581 200.421 183.125 268.120">
<path style="fill:#09203F;" d="M113.7,276.794c0,0-48.98-55.533-51.049-53.809c-2.07,1.725,0,10.348,0,10.348l5.174,6.898
		c0,0-3.018-1.371-3.018,1.016s5.133,15.517,5.133,15.517s-2.387-2.626-2.507-1.194c-0.119,1.432,5.013,14.324,5.013,14.324
		s-2.148-0.477-2.148,1.074c0,1.552,7.639,14.443,7.639,14.443s-2.507-1.91-2.387,0c0.119,1.91,7.878,12.056,7.878,12.056
		s-2.745,0.358-2.387,1.313c0.358,0.955,12.056,11.817,12.056,11.817s-2.626,0.836-2.387,1.79
		c0.239,0.955,14.443,9.549,14.443,9.549s-3.939-0.955-3.82,0.478c0.119,1.432,4.774,5.491,5.849,6.087
		c1.074,0.597,1.552,3.581,3.82,4.297c2.268,0.716,3.342,1.313,3.342,1.313s-5.729,1.552-5.252,3.103
		c0.478,1.552,5.968,2.029,5.968,2.029s-5.625,11.563-4.405,24.433c1.219,12.87,8.806,38.475,11.922,48.229
		c3.116,9.754,14.496,48.636,14.36,47.823c-0.136-0.813,2.98-5.826,2.303-12.87c-0.677-7.045-2.574-14.631-2.574-14.631l4.877,4.064
		c0,0-0.135-4.606,0-7.858c0.135-3.251-7.045-19.644-7.045-19.644s9.89,8.128,11.922,8.128c2.032,0,3.658-1.761,3.658-1.761
		l-7.722-12.464c0,0,10.703,4.606,12.193,4.064c1.49-0.542-0.813-11.38-5.419-16.934c-4.606-5.555-16.393-15.038-16.393-15.038
		l1.626-5.69c0,0,7.587-4.064,11.516-7.993c3.929-3.929,13.818-18.425,17.07-27.366c3.251-8.941,12.057-15.715,17.205-17.07
		c5.148-1.355,8.806-0.677,8.806-0.677l38.746,19.102l-39.152-24.521c0,0-3.793-6.638-6.909-9.212
		c-3.116-2.574-8.806-5.419-17.883-2.574c-9.077,2.845-15.851,8.128-15.851,8.128s-11.922-50.803-17.07-67.331
		c-5.148-16.528-10.432-31.159-11.651-31.159s0.406,13.412,0.406,13.412s-1.49-0.542-2.168,0s2.439,18.831,2.439,18.831
		s-3.116-8.671-4.335-7.993c-1.219,0.677-0.948,11.786-0.271,15.173c0.677,3.387,1.626,6.367,1.626,6.367s-2.709-3.793-3.387-2.98
		c-0.677,0.813-0.542,7.722,0.271,9.89c0.813,2.168,2.709,6.232,2.709,6.232s-2.709-2.439-3.116-1.761
		C112.957,266.271,113.7,276.794,113.7,276.794z"/>
</svg>