<svg xmlns="http://www.w3.org/2000/svg" viewBox="407.977 43.516 220.259 227.461">
<path style="fill:#09203F;" d="M417.695,56.607c0,0,27.808,16.906,33.676,26.307c5.868,9.401,5.835,29.882,3.414,40.95
		c-2.421,11.068-6.369,24.701-3.042,39.538c3.327,14.837,8.356,22.663,8.356,22.663s-2.601,5.434-1.469,8.33
		c1.132,2.896,2.047,3.599,2.047,3.599l0.039-3.73c0.562-1.237,2.438-1.603,2.438-1.603s-1.7,7.105-0.382,8.85
		c1.318,1.745,2.709,2.486,2.709,2.486s-1.589-5.834-0.254-6.61c1.335-0.776,3.32,0.581,3.32,0.581s1.096,3.989,0.366,5.159
		c-0.73,1.17,2.814-0.385,3.013-2.624c0.198-2.239,1.507,4.651-0.204,8.258s-5.303,21.06-5.221,31.583
		c0.082,10.523,3.368,14.067,3.368,14.067l4.618-3.757c0.787-2.388,2.738-6.464,2.738-6.464s-0.437,9.262,0.603,12.579
		c1.04,3.317,3.762,6.208,3.762,6.208s4.702-6.564,4.56-7.125c-0.142-0.561-1.614-7.15-1.614-7.15l2.678,3.499
		c0,0,2.966-10.699,3.828-17.284c0.863-6.585,1.923-25.156,1.92-25.952c-0.003-0.795,4.839-7.593,5.476-12.927
		c0.637-5.334,0.823-19.506,0.823-19.506s8.08-3.441,11.911-4.811s21.883-1.57,22.247-4.845c0.363-3.275,19.409-0.346,20.433-1.799
		c1.024-1.453,20.248-0.956,20.248-0.956c1.817-2.251,23.147-1.293,23.75-2.839c0.603-1.546,21.459-2.457,21.923-3.768
		c0.463-1.311-41.074-19.979-80.205-20.524c18.442-1.018,19.93-3.782,19.93-3.782s4.497-1.096,5.492-2.664
		c0.995-1.567,5.487-1.115,6.698-2.615c1.211-1.501,3.504-1.087,4.012-3.007c0.508-1.919-9.528-10.117-39.226-9.55
		c-29.697,0.567-50.188,13.123-50.846,12.097c-0.658-1.027-1.383-7.806-1.383-7.806s5.731-6.427,3.354-18.158
		s-10.016-15.962-19.752-18.268c-9.736-2.306-17.332-7.94-24.978-14.556C435.223,62.066,415.977,51.516,417.695,56.607z"/>
</svg>