<svg xmlns="http://www.w3.org/2000/svg" viewBox="285.563 191.808 196.439 262.191">
<path style="fill:#09203F;" d="M376.935,326.378c0,0-38.666-124.758-40.478-125.664c-1.813-0.906-3.927,6.344-3.927,6.344
		l1.208,2.719c0,0-3.323,3.323-3.323,5.135c0,1.812,1.208,3.927,1.208,3.927s-2.417,5.135-3.323,9.062c-0.906,3.927,0,6.948,0,6.948
		l2.115,2.115l-2.517,11.177c0,0-25.274-30.812-28.295-30.812s-3.323,6.041-3.323,6.041s0.302,7.552,0,8.76
		c-0.302,1.208,1.813,3.021,1.813,3.021s-1.585,5.014-1.07,8.491c0.515,3.477,2.447,5.538,2.447,5.538l1.159,9.53
		c0.644,3.22,2.447,5.666,2.447,5.666s0,4.507,0.901,6.825c0.902,2.318,2.962,5.28,2.962,5.28s0.129,7.083,1.674,10.56
		c1.545,3.477,3.348,4.894,3.348,4.894s7.598,20.476,8.371,22.408c0.773,1.932,0.773,8.242,1.932,9.916
		c1.159,1.674,1.545,5.666,1.545,5.666s-0.773,3.863,0.515,5.924c1.288,2.06,0.773,5.409,2.318,6.954s10.56,0,10.56,0l-3.219,9.143
		c0,0-11.719,12.105-16.87,23.18c-5.151,11.075-22.141,39.256-22.141,39.256l5.035-3.625c0,0-6.444,8.458-5.035,8.055
		c1.41-0.403,6.042-4.43,6.042-4.43s-3.222,5.035-2.014,6.646c1.208,1.611,6.444-2.618,6.444-2.618s-2.014,11.076-1.41,11.479
		c0.604,0.403,5.035,0.403,7.854-1.813c2.819-2.215,5.84-7.048,5.84-7.048s-1.812,8.66-1.208,11.479
		c0.604,2.819,4.431,7.048,4.431,7.048s5.437-1.813,6.847-4.632s4.833-17.923,4.833-17.923s-2.014,18.326,0,22.555
		c2.014,4.229,6.646,6.444,6.646,6.444s4.833-0.806,5.84-5.84c1.007-5.035,1.611-30.812,1.611-30.812s4.229,20.743,6.444,24.77
		c2.215,4.028,11.68,8.66,11.68,8.66s1.41-5.236,1.812-10.069c0.403-4.833-16.312-49.742-16.312-49.742s19.534-4.229,26.583-8.458
		c7.048-4.229,9.465-10.069,9.465-10.069s5.437-0.201,9.667-7.653c4.229-7.451,13.896-20.944,16.916-23.764
		c3.021-2.819,9.465-9.666,15.909-10.673c6.444-1.007,43.902,5.236,44.506,4.632c0.604-0.604-10.673-5.84-20.743-7.451
		c-10.069-1.611-23.965-4.632-23.965-4.632c-5.035-2.417-11.076-8.458-20.139-9.465c-9.062-1.007-13.291-0.806-18.125,4.229
		C385.595,314.697,376.935,326.378,376.935,326.378z"/>
</svg>