<svg xmlns="http://www.w3.org/2000/svg" viewBox="144.923 23.166 223.875 229.662">
<path style="fill:#09203F;" d="M317.777,75.633c0,0,40.852-28.922,41.937-27.476c1.084,1.446-37.599,32.899-37.599,32.899
		s-0.362,9.038-6.869,18.076c-6.507,9.038-9.038,14.461-9.038,28.199s-6.508,24.222-15.546,36.876
		c-9.038,12.653-48.083,19.161-48.083,19.161s-7.23,2.169-4.7,12.292c2.531,10.123,11.569,32.537,10.846,38.683
		c-0.723,6.146-2.892,10.123-2.892,10.123l-6.508-10.123c0,0-1.075,9.761-1.983,10.123c-0.909,0.362-4.885-7.23-4.885-7.23
		s-2.531,6.894-5.061,7.243c-2.531,0.349-7.953-10.497-7.953-10.497l-6.507,9.038c-2.169-2.169-4.7-11.93-4.7-11.93
		s-3.615,5.784-5.423,3.254c-1.808-2.531,0-12.292,0-12.292s-5.784,6.146-6.869,3.254c-1.085-2.892,7.23-40.491,7.23-40.491
		c5.784-11.569,26.03-28.922,26.03-28.922s-6.869,1.085-7.592-1.446c-0.723-2.531,1.085-3.977,1.085-3.977
		s-13.376-1.478-15.546-4.173c-2.169-2.696,1.446-3.419,1.446-3.419s-19.161-5.423-19.884-7.954
		c-0.723-2.531,3.977-3.977,3.977-3.977s-13.376-7.23-15.184-10.846c-1.808-3.615,1.808-3.977,1.808-3.977
		s-14.461-13.376-14.461-16.63c0-3.254,5.423-0.362,5.423-0.362s-13.738-14.099-13.015-15.907c0.723-1.808,5.423-0.361,5.423-0.361
		l-9.761-15.907c1.808-3.254,86.766,37.96,86.766,37.96l-1.808-8.677c1.446-1.808,3.977-0.361,3.977-0.361s-6.507-12.653-4.7-15.184
		c1.808-2.531,4.7,2.169,4.7,2.169s-5.784-13.015-4.338-14.823c1.446-1.808,4.338,0.723,4.338,0.723s-5.784-10.846-3.615-14.461
		c2.169-3.615,4.338-1.084,4.338-1.084s-1.808-17.715,0.723-19.884c2.531-2.169,37.598,57.121,37.598,57.121
		S289.216,59.003,317.777,75.633z"/>
</svg>