<svg xmlns="http://www.w3.org/2000/svg" viewBox="345.752 260.711 124.894 223.967">
<path d="M461.288,380.791c-2.273-1.068-4.645-1.998-6.621-3.584c-2.028-1.626-3.745-3.753-6.27-4.643
		c-1.58-0.557-3.256-0.724-4.911-0.908c-2.727-0.266-5.495-0.184-8.202,0.228c-1.576,0.259-3.104,0.73-4.613,1.246
		c-2.477,0.807-4.886,1.838-7.045,3.309c-2.338,1.597-4.574,3.431-6.289,5.702c-2.424,3.183-4.294,6.77-5.873,10.437
		c-0.612,1.444-1.198,2.899-1.832,4.334c-0.003,0.008-0.008,0.02-0.012,0.028c-1.665,1.321-3.28,2.704-4.815,4.179
		c-2.62,2.625-5.181,5.323-7.586,8.148c0.351-0.926,0.684-1.858,0.996-2.797c2.819-8.227,3.936-16.86,5.029-25.47
		c0.342-0.598,0.684-1.195,1.023-1.794c1.059-1.882,2.481-3.517,3.779-5.232c1.346-1.76,2.692-3.528,4.164-5.184
		c0.706-0.737,1.412-1.477,2.12-2.214c0.053,0.003,0.108,0.014,0.158-0.008c0.09-0.037,0.162-0.112,0.208-0.2
		c2.025,2.419,3.038,3.116,6.27,3.086c5.83-0.059,10.876-3.643,14.663-7.809c1.46-1.555,2.638-3.343,3.841-5.097
		c1.83-2.739,3.405-5.636,4.837-8.6c0.292-0.727,1.524-2.526,0.459-3.021c-0.56-0.117-1.134,0.162-1.691,0.245
		c-0.71,0.156-1.42,0.304-2.137,0.428c-3.757,0.634-7.602,0.425-11.362,1.045c-3.716,0.738-7.283,2.422-10.222,4.811
		c-3.363,2.648-5.393,6.791-5.532,11.06c-0.04,0.93-0.083,1.897,0.02,2.832c-0.906,0.953-1.805,1.912-2.703,2.869
		c-1.877,2.157-3.512,4.51-5.267,6.765c-0.836,1.018-1.584,2.097-2.272,3.215c0.228-1.771,0.462-3.54,0.718-5.301
		c0.826-5.833,1.888-11.655,1.802-17.57c0.003-0.493-0.019-0.984-0.029-1.476c0.376,0.016,0.593-0.331,0.703-0.655
		c0.325-0.702,0.67-1.397,0.994-2.1c0.909-2.066,1.931-4.075,3.075-6.022c1.967-3.48,4.202-6.8,6.404-10.137
		c0.123,0.06,0.265,0.085,0.415,0.054c3.922-1.301,8.166-1.038,12.107-2.305c4.731-1.458,9.406-3.825,12.764-7.531
		c1.5-1.885,2.65-4.025,3.689-6.191c0.914-1.843,1.604-3.773,2.046-5.784c0.423-1.826,0.86-3.749,0.576-5.626
		c-0.201-1.227-1.513-1.242-2.5-1.316c-1.961-0.209-3.931-0.308-5.897-0.445c-2.186-0.153-4.4-0.465-6.579-0.078
		c-3.552,0.579-7.183,1.782-9.853,4.283c-3.745,3.531-6.736,8.02-7.659,13.148c-0.925,4-1,8.108-1.35,12.179
		c-1.111,1.77-2.167,3.579-3.306,5.323c-2.043,3.447-3.907,7.01-5.466,10.703c-0.079,0.188-0.15,0.377-0.226,0.565
		c-0.343-6.509-1.688-12.937-3.083-19.294c-0.286-1.273-0.546-2.552-0.8-3.833c0.264-0.414,0.489-0.853,0.739-1.277
		c1.513-2.681,3.692-4.873,5.747-7.131c4.52-5.111,5.819-7.948,5.434-14.87c-0.009-1.533-0.037-3.065-0.039-4.596
		c0.009-0.347,0.04-0.691,0.078-1.035c0.029-0.275,0.146-0.613-0.054-0.846c-0.143-0.171-0.396-0.223-0.594-0.128
		c-0.086,0.058-0.168,0.105-0.258,0.156c-2.051,2.208-4.727,3.804-6.528,6.253c-1.313,1.813-2.485,3.759-3.064,5.938
		c-0.432,1.479-0.787,2.992-0.987,4.521c-0.213,1.547-0.142,3.114-0.247,4.669c-0.136,1.866-0.458,3.711-0.779,5.553
		c-0.546-2.741-1.127-5.474-1.939-8.151c-0.559-1.881-1.232-3.721-1.946-5.545c0.007-0.138,0.015-0.271,0.038-0.384
		c0.185-1.614,0.43-3.222,0.657-4.831c0.146-1.114,0.291-2.001,0.349-2.817c0.109-0.351,0.211-0.703,0.313-1.056
		c0.048,0.016,0.099,0.024,0.15,0.021c0.196-0.011,0.352-0.185,0.339-0.382c-0.013-0.024-0.01-0.046,0.008-0.063
		c0.069-0.09,0.149-0.172,0.231-0.251c0.572-0.553,1.217-1.018,1.836-1.516c3.203-2.581,7.028-4.44,9.66-7.68
		c2.344-3.055,2.522-7.409,0.826-10.808c-1.572-3.811-4.382-6.877-6.966-10.021c-0.498-0.669-0.977-1.352-1.467-2.029
		c-0.483-0.904-1.293-1.093-1.805-0.125c-1.094,2.3-1.65,4.835-2.864,7.089c-1.873,3.772-4.084,7.452-4.966,11.617
		c-0.376,1.497-0.559,3.062-0.307,4.594c0.193,1.192,0.547,2.362,1.062,3.453c0.842,1.691,2.082,3.177,2.744,4.957
		c0.469,1.222,0.022,2.582-0.089,3.839c-0.214,1.444-0.411,2.891-0.57,4.341c-0.726-1.783-1.47-3.56-2.172-5.351
		c-1.642-4.188-1.165-8.419-2.298-12.787c-0.611-2.294-1.374-4.55-2.204-6.773c-0.436-1.105-0.901-2.212-1.58-3.194
		c-0.679-0.926-1.271-1.983-2.239-2.639c-1.64-1.099-3.578-1.622-5.344-2.472c-2.187-1.039-4.149-2.525-6.438-3.354
		c-3.322-1.391-7.193-0.819-10.351-2.668c-1.461-0.78-2.884-1.71-4.453-2.245c-0.329-0.053-0.651,0.118-0.727,0.452
		c-0.091,0.739,0.482,1.372,0.753,2.027c0.736,1.429,1.542,2.829,2.114,4.336c0.588,1.493,0.924,3.068,1.424,4.59
		c0.517,1.534,1.333,2.94,2.169,4.319c0.899,1.538,2.03,2.932,3.46,4.006c1.248,0.992,2.526,1.96,3.896,2.779
		c1.327,0.792,2.777,1.35,4.162,2.034c2.598,1.277,4.887,3.12,7.628,4.117c1.456,0.615,2.949,1.139,4.449,1.633
		c0.879,0.29,1.827,0.431,2.627,0.92c0.037,0.131,0.078,0.261,0.115,0.392c0.014,0.113,0.046,0.22,0.093,0.316
		c0.275,0.958,0.549,1.917,0.842,2.87c1.515,4.759,3.556,9.338,4.941,14.14c0.415,1.356,0.76,2.729,1.071,4.109
		c-0.277-0.54-0.55-1.081-0.804-1.631c-0.495-0.999-0.995-1.998-1.635-2.914c-0.964-1.289-2.107-2.432-3.249-3.562
		c-0.479-0.465-0.987-0.892-1.507-1.304c0.018-0.299,0.034-0.597,0.042-0.897c0.143-2.664-0.482-5.388-1.858-7.681
		c-1.179-1.836-3.098-3.028-5.101-3.794c-5.188-2.044-11.216-3.009-16.463-0.656c-3.015,1.235-5.601,3.277-8.478,4.777
		c-1.025,0.566-2.177,0.796-3.302,1.072c-0.549,0.184-1.642,0.182-1.446,1.022c0.081,0.264,0.325,0.462,0.521,0.64
		c0.598,0.547,1.237,1.047,1.804,1.628c0.56,0.574,1.115,1.15,1.656,1.742c1.526,1.634,2.838,3.466,4.493,4.976
		c1.936,1.78,4.164,3.19,6.371,4.603c2.445,1.579,5.3,2.377,8.188,2.593c1.234,0.103,2.473-0.046,3.695-0.218
		c1.99-0.314,3.983-0.769,5.792-1.684c1.581-0.892,3.299-1.833,4.328-3.379c0.388-0.58,0.644-1.238,0.702-1.925
		c1.372,1.302,2.771,2.624,3.66,4.317c0.547,0.974,1.024,1.988,1.545,2.976c0.702,1.337,1.461,2.659,1.881,4.12
		c0.38,1.333,0.659,2.691,0.919,4.053c0.009,0.043,0.017,0.085,0.025,0.128c0.033,0.175,0.071,0.35,0.104,0.525
		c0.109,0.586,0.232,1.171,0.357,1.755c0.013,0.12,0.049,0.234,0.102,0.337c1.836,8.224,3.44,16.594,2.95,25.057
		c-0.016,0.408-0.049,0.814-0.076,1.22c-0.348-0.537-0.673-1.087-0.949-1.665c-1.163-2.571-2.473-5.078-3.489-7.714
		c-1.262-2.972-0.298-5.422-2.908-7.905c-0.024-0.169-0.132-0.327-0.321-0.364c-0.067-0.016-0.057,0.009-0.082-0.048
		c-0.203-0.634-0.182-1.324-0.201-1.985c0.052-2.96,0.614-6.188-1.106-8.818c-1.204-2.003-3.106-3.461-5.221-4.404
		c-1.239-0.58-2.546-1.057-3.911-1.214c-2.135-0.291-4.296-0.106-6.44-0.012c-1.887,0.116-3.781,0.188-5.669,0.055
		c-0.859,0.018-3.729-0.568-3.821,0.661c-0.009,0.43,0.318,0.761,0.565,1.08c0.549,0.707,1.129,1.392,1.653,2.118
		c0.955,1.334,1.604,2.847,2.393,4.279c0.725,1.263,1.576,2.448,2.273,3.728c0.535,0.931,1.108,1.842,1.845,2.627
		c1.938,2.106,5.183,3.286,8.002,3.434c1.978-0.003,3.924-0.542,5.828-1.031c0.505-0.163,0.967-0.422,1.416-0.703
		c0.773,0.467,1.519,0.973,2.164,1.613c2.029,1.792,1.296,4.258,2.136,6.554c0.776,2.33,1.808,4.564,2.911,6.755
		c0.551,1.175,1.055,2.384,1.83,3.434c0.282,0.32,0.475,0.83,0.926,0.926c0.029,0,0.05-0.008,0.076-0.01
		c-0.459,5.112-1.571,10.148-2.157,15.25c-1.524,9.928-2.256,20.111-5.724,29.612c-1.496,4.193-3.304,8.29-5.534,12.146
		c0.483-2.185,0.966-4.371,1.362-6.574c1.159-7.154,2.801-14.221,3.851-21.39c0.206-1.745,0.452-3.505,0.317-5.264
		c-0.152-2.671-0.21-5.343-0.358-8.015c-0.082-2.197,0.02-4.419-0.407-6.587c-0.409-1.893-1.023-3.746-1.812-5.515
		c-0.753-1.638-1.757-3.144-2.623-4.723c-0.823-1.528-1.633-3.069-2.868-4.314c-0.836-0.926-1.648-1.911-2.726-2.568
		c-1.127-0.668-2.354-1.142-3.584-1.584c-2.355-0.895-4.747-1.707-7.223-2.196c-3.045-0.68-6.199-0.387-9.276-0.817
		c-2.236-0.41-4.447-0.965-6.652-1.524c-0.371-0.068-0.747-0.273-1.13-0.186c-0.979,0.37-0.207,1.45,0.127,2.053
		c0.902,1.545,1.85,3.088,2.379,4.81c1.234,4.459,1.569,9.226,3.702,13.401c2.385,4.787,4.959,8.103,9.884,10.484
		c2.784,1.251,5.428,2.87,8.368,3.734c2.716,0.758,5.565,0.48,8.337,0.786c1.546,0.19,3.164,0.468,4.423,1.449
		c0.297,0.363,0.26,0.85,0.299,1.294c0.149,1.896-0.164,3.79-0.406,5.666c-0.259,1.775-0.547,3.547-0.938,5.299
		c-1.179,5.392-2.256,10.807-3.049,16.271c-0.426,2.749-0.952,5.483-1.404,8.228c-0.006,0.042-0.014,0.083-0.021,0.125
		c-0.084,0.13-0.162,0.263-0.247,0.393c-2.401,3.784-5.306,7.208-7.866,10.883c-3.702,5.19-7.007,10.657-10.741,15.825
		c-0.078,0.102-0.16,0.202-0.239,0.304c-0.008-0.144-0.021-0.287-0.027-0.431c-0.129-2.411,0.141-4.817,0.613-7.178
		c1.082-5.742,3.072-11.305,4.347-17.006c0.072-0.048,0.135-0.113,0.173-0.207c0.74-0.836,1.585-1.579,2.331-2.412
		c1.461-1.636,2.546-3.572,3.422-5.573c0.4-0.941,0.76-1.903,0.977-2.903c0.321-1.76,0.117-3.631-0.493-5.307
		c-1.496-3.698-4.264-6.693-7.117-9.407c-1.62-1.518-3.198-3.077-4.715-4.698c-0.536-0.555-1.06-1.124-1.613-1.662
		c-0.131-0.128-0.266-0.258-0.447-0.311c-1.347-0.345-1.012,1.511-0.939,2.315c0.092,1.037,0.213,2.073,0.279,3.113
		c0.172,2.525,0.037,5.056-0.069,7.582c-0.116,3.529-0.311,7.316,1.386,10.534c0.803,1.557,2.031,2.822,3.2,4.106
		c0.901,0.965,1.782,1.957,2.735,2.872c-0.401,1.669-0.874,3.323-1.331,4.972c-1.76,6.209-3.867,12.454-4.006,18.965
		c-0.019,1.144,0.023,2.289,0.149,3.425c0.026,0.175,0.036,0.385,0.069,0.583c-1.782,2.235-3.613,4.433-5.161,6.842
		c-2.212,3.298-4.062,6.823-5.758,10.41c-1.189,2.492-2.335,5.005-3.494,7.512c-0.202,0.5-0.531,0.968-0.669,1.485
		c-0.095,0.562,0.324,1.094,0.876,1.184c0.325,0.026,0.644-0.046,0.887-0.289c0.218-0.23,0.331-0.534,0.494-0.803
		c0.672-1.228,1.336-2.464,1.936-3.728c1.736-3.62,3.373-7.299,5.408-10.765c1.543-2.676,3.238-5.266,5.152-7.693
		c1.591-1.991,3.262-3.922,4.712-6.021c3.06-4.454,5.978-9.008,9.054-13.452c0.766-0.52,1.53-1.043,2.298-1.559
		c2.997-1.992,6.097-3.845,9.378-5.333c2.454-1.187,5.121-1.691,7.816-1.865c-0.587,2.529-0.557,4.645,0.867,6.912
		c0.619,1.012,1.348,1.958,2.146,2.836c0.705,0.832,1.642,1.476,2.717,1.708c2.451,0.475,4.968,0.652,7.461,0.716
		c1.809-0.043,3.578-0.485,5.368-0.718c2.34-0.277,4.552-1.107,6.813-1.725c1.485-0.405,2.991-0.747,4.507-1.012
		c0.646-0.196,2.212-0.064,1.997-1.098c-2.714-3.842-6.068-7.247-8.528-11.283c-0.745-1.213-1.636-2.333-2.72-3.261
		c-1.066-1.002-2.242-1.939-3.648-2.407c-1.682-0.551-3.494-0.653-5.253-0.592c-1.814,0.085-3.557,0.71-5.121,1.614
		c-2.737,1.642-5.228,4.034-6.484,7.009c-1.073,0.061-2.144,0.15-3.206,0.323c-4.861,0.893-9.143,3.631-13.24,6.263
		c-0.486,0.325-0.956,0.671-1.434,1.008c1.019-1.424,2.057-2.834,3.133-4.218c3.161-4.115,5.837-8.589,8.013-13.296
		c0.339-0.156,0.475-0.685,0.727-0.973c0.581-0.863,1.181-1.713,1.86-2.502c3.628-4.005,7.504-7.798,11.652-11.264
		c0.067,0.019,0.121,0.047,0.208,0.051c0.272-0.051,0.326-0.291,0.378-0.536c0.078-0.063,0.157-0.123,0.235-0.186
		c0.89,2.179,1.636,2.495,3.525,3.854c1.047,0.801,2.167,1.532,3.451,1.887c1.876,0.612,3.791,1.086,5.692,1.615
		c2.82,0.793,5.609,1.766,8.54,2.063c1.549,0.161,3.107,0.235,4.663,0.274c1.326,0.016,2.636-0.212,3.934-0.46
		c2.785-0.525,5.524-1.415,7.928-2.942c1.566-0.964,2.826-2.323,4.032-3.692c0.937-1.051,1.858-2.122,2.633-3.3
		c2.149-3.524,3.811-7.328,5.436-11.115c0.554-1.246,1.182-2.458,1.815-3.665C462.646,381.886,462.52,381.287,461.288,380.791z"/>
</svg>