<svg xmlns="http://www.w3.org/2000/svg" viewBox="41.854 17.475 143.233 257.110">
<path d="M176.14,137.56c-0.564-0.025-1.105,0.225-1.653,0.34c-1.448,0.384-2.879,0.832-4.28,1.364
		c-7.671,2.793-14.356,8.727-17.257,16.444c-0.926,2.593-0.929,5.369-1.171,8.077c-0.031,1.002-1.047,1.447-1.69,2.06
		c-2.321,1.88-4.299,4.14-6.119,6.497c-1.321,1.691-2.609,3.422-3.771,5.23c0.701-3.2,1.042-6.462,0.811-9.735
		c-0.108-1.47,1.077-2.551,1.611-3.824c0.366-0.616,0.321-1.213-0.005-1.645c0.15-0.105,0.262-0.257,0.285-0.443
		c0.331-1.059,0.839-2.055,1.325-3.05c2.35-4.077,3.576-8.137,3.201-12.878c-0.18-2.946-0.675-5.862-0.97-8.798
		c-0.497-4.656-1.097-9.457-3.599-13.523c-0.471-0.827-1.016-1.622-1.591-2.382c-0.612-0.963-1.491-1.483-2.373-0.498
		c-1.385,1.654-2.291,3.672-3.225,5.604c-1.327,2.856-2.393,5.844-3.099,8.914c-1.601,6.985-0.839,14.403,1.922,21
		c0.734,2.127,2.008,3.96,3.323,5.758c-1.025,1.024-0.415,3.073,0.744,3.865c0.314,0.225,0.668,0.538,1.081,0.406
		c0.173-0.053,0.135,0.069,0.13,0.091c-0.329,1.446-0.014,2.96-0.121,4.431c-0.027,1.711-0.247,3.422-0.495,5.112
		c-0.172,1.161-0.371,2.317-0.495,3.485c-0.014,0.25-0.077,0.511-0.016,0.759c0.002,0.005,0.006,0.008,0.008,0.013
		c-0.125,0.24-0.267,0.469-0.386,0.712c-1.116,2.457-2.077,4.979-2.967,7.527c-0.319-1.442-0.868-2.826-1.716-4.054
		c-1.086-1.8-2.874-2.943-4.275-4.458c-1.254-1.187-1.98,1.276-2.479,2.098c-1.226,2.662-1.146,5.781-0.504,8.589
		c0.732,3.028,2.643,5.923,5.622,7.099c0.156,0.068,0.319,0.12,0.481,0.175c-0.183,0.693-0.38,1.382-0.554,2.077
		c-1.148,5.091-2.178,10.217-2.97,15.377c-1.176-3.667-2.27-7.361-3.306-11.068c-1.876-6.382-3.554-12.82-4.979-19.316
		c0.111-0.045,0.219-0.102,0.332-0.149c3.14-1.165,5.702-6.076,6.654-9.145c0.603-1.842,1.036-3.753,1.02-5.702
		c-0.005-0.652,0.117-1.474-0.442-1.943c-1.149-0.769-3.62,0.848-4.349,1.81c-1.158,1.508-2.031,3.235-2.883,4.931
		c-0.709,1.368-0.864,2.919-1.027,4.428c-0.01,0.551-0.1,1.151-0.145,1.746c-0.33-1.647-0.668-3.293-0.959-4.948
		c-0.84-4.52-1.631-9.054-2.256-13.61c0.061,0,0.121,0.017,0.183-0.001c2.046-1.018,4.131-2.176,5.684-3.885
		c3.105-3.386,3.833-8.137,3.702-12.577c0.064-0.82-0.611-1.309-1.326-0.848c-1.716,0.871-3.399,1.842-4.855,3.111
		c-2.17,1.953-3.503,4.729-4.144,7.546c-0.001,0.003-0.002,0.007-0.002,0.011c-0.437-4.621-0.621-9.262-0.636-13.904
		c1.546-0.189,3.104-0.473,4.539-1.096c4.497-1.574,7.648-5.415,8.921-9.937c0.193-0.795,0.854-1.691,0.452-2.502
		c-0.201-0.303-0.525-0.381-0.869-0.344c-0.937,0.111-1.874,0.256-2.797,0.449c-4.45,0.749-7.629,3.292-9.71,7.257
		c-0.181,0.356-0.33,0.726-0.501,1.087c0.045-3.036,0.089-6.074,0.283-9.106c0.037-0.422,0.091-0.843,0.133-1.265
		c0.059,0.006,0.118,0.011,0.174,0.018c1.444,0.298,2.939,0.188,4.331-0.295c3.356-1.001,5.828-3.322,7.352-6.432
		c0.738-1.259,1.633-2.531,1.881-3.993c0.049-0.685-0.647-0.985-1.227-1.034c-0.765-0.147-1.542-0.209-2.321-0.194
		c-3.624,0.001-6.693,2.214-8.485,5.26c-0.394,0.531-0.743,1.088-1.077,1.653c0.06-0.397,0.126-0.793,0.19-1.19
		c0.055-0.083,0.111-0.166,0.165-0.249c2.139-3.017,3.703-6.369,5.387-9.646c2.444-4.249,5.392-8.243,8.827-11.743
		c0.173,0.185,0.474,0.27,0.725,0.204c0.601-0.161,1.206-0.345,1.775-0.599c0.628-0.258,1.39-0.833,1.128-1.599
		c0.759-0.316,1.523-0.624,2.288-0.921c3.141-1.263,6.331-2.41,9.398-3.845c3.042-1.466,5.363-4.035,7.484-6.598
		c1.751-2.212,2.88-4.827,4.136-7.336c0.811-1.668,1.488-3.398,2.008-5.179c0.309-1.15,1.193-3.342-0.524-3.726
		c-0.598-0.056-1.173,0.197-1.748,0.327c-1.8,0.493-3.584,1.04-5.373,1.579c-3.993,1.213-7.949,2.627-11.642,4.588
		c-1.746,0.868-3.008,2.392-4.188,3.901c-1.598,1.916-2.825,4.092-3.811,6.379c-0.88,2.204-2.633,6.053-2.427,8.821
		c-0.777,0.386-0.62,1.904-0.334,3.357c-3.246,2.954-5.88,6.524-8.262,10.196c-1.673,2.808-2.853,5.875-4.434,8.735
		c0.135-0.733,0.268-1.467,0.412-2.198c1.418-6.456,2.658-12.955,4.315-19.356c0.852-3.218,1.896-6.38,2.725-9.605
		c0.996-3.852,1.853-7.736,2.701-11.623c0.423-1.778,0.841-3.569,1.451-5.294c0.038-0.175,0.18-0.283,0.263-0.429
		c0.056-0.12,0.059-0.236,0.037-0.344c0.111-0.082,0.215-0.177,0.307-0.275c0.274-0.263,0.541-0.532,0.8-0.81
		c0.561-0.601,1.104-1.223,1.61-1.87c0.162-0.18,0.329-0.413,0.436-0.657c0.51-0.065,0.938-0.588,1.368-0.852
		c2.021-1.503,3.395-3.613,4.814-5.652c0.895-1.228,1.847-2.422,2.632-3.726c2.359-4.344,2.867-9.437,2.976-14.306
		c0.049-3.098,0.027-6.201-0.123-9.297c-0.201-1.34,0.2-4.178-1.235-4.82c-0.899-0.256-1.676,0.513-2.417,0.914
		c-4.326,2.846-7.66,6.916-11.256,10.588c-4.523,4.535-4.215,11.397-3.535,17.298c0.256,3.027,0.998,5.978,1.497,8.961
		c0.049,0.198,0.191,0.346,0.364,0.425c-0.124,0.382-0.153,0.792-0.174,1.192c-0.018,1.086-0.017,2.19,0.182,3.257
		c0.031,0.08,0.076,0.142,0.129,0.194c-0.05,0.136-0.098,0.273-0.149,0.401c-0.367,1.01-0.691,2.033-0.985,3.066
		c-1.196,4.187-2.206,8.427-3.367,12.622c-0.078,0.288-0.173,0.571-0.254,0.858c-0.293-3.423-0.832-6.843-2.027-10.062
		c0.294-0.342,0.281-0.855,0.419-1.272c0.123-0.745,0.4-1.551,0.377-2.322c0.099-0.24,0.212-0.474,0.298-0.718
		c0.567-1.648,0.923-3.358,1.306-5.056c1.644-7.248-0.599-15-4.924-20.916c-2.396-3.106-7.043-8.847-11.123-9.214
		c-1.357-0.088-1.503,0.753-1.665,1.847c-0.238,1.392-0.403,2.795-0.565,4.197c-0.402,3.822-0.711,7.748,0.087,11.537
		c1.057,4.682,3.315,9.024,5.859,13.061c1.427,2.093,3.244,3.91,5.24,5.461c-0.529,0.386-0.708,1.106-0.008,1.519
		c2.91,1.363,3.445,1.594,4.166,4.837c0.58,2.562,0.959,5.169,1.269,7.776c0.098,0.892,0.192,1.785,0.298,2.677
		c-0.558,1.804-1.12,3.606-1.619,5.427c-0.269,1.004-0.514,2.014-0.761,3.023c-0.084-1.099-0.248-2.19-0.597-3.241
		c-0.407-1.432-1.001-2.864-2.035-3.964c-2.006-1.998-4.524-3.419-7.057-4.643c-0.671-0.213-1.613-1.007-2.2-0.279
		c-0.237,0.328-0.168,0.72-0.111,1.094c0.147,0.96,0.302,1.921,0.464,2.878c0.537,3.274,2.346,6.486,5.282,8.157
		c1.196,0.652,2.549,0.893,3.824,1.333c0.422,0.156,0.857,0.313,1.258,0.507c0.037,0.167-0.008,0.375,0.051,0.542
		c0.07,0.209,0.26,0.341,0.467,0.373c-0.811,3.534-1.549,7.086-2.33,10.626c-1.255,5.456-2.25,10.974-2.854,16.542
		c-0.11,1.385-0.173,2.773-0.229,4.161c-0.245-0.641-0.483-1.284-0.746-1.917c-1.013-2.285-1.974-4.598-3.08-6.84
		c-1.575-2.888-2.913-5.899-4.52-8.769c-0.83-1.574-1.734-3.103-2.643-4.631c0.021-0.006,0.04-0.003,0.062-0.01
		c2.874-2.497,5.67-5.209,5.303-9.371c-0.029-1.4-0.432-2.751-0.797-4.093c-0.221-0.639-0.295-1.434-0.857-1.88
		c-0.776-0.5-1.638,0.801-2.221,1.233c-1.544,1.387-2.15,3.434-2.475,5.419c-0.38,2.429-0.624,5.079,0.266,7.421
		c-0.01,0.01-0.013,0.022-0.022,0.032c-0.181-0.306-0.364-0.611-0.544-0.918c-1.299-2.29-2.497-4.641-3.943-6.847
		c-1.494-2.527-3.619-4.706-4.788-7.41c-0.072-0.215-0.086-0.447,0.002-0.66c0.136-0.435,0.19-0.891,0.196-1.346
		c-0.025-1.143-0.26-2.829-1.532-3.202c-0.095-0.015-0.198-0.008-0.306,0.014c-0.849-2.361-1.437-4.858-2.186-7.27
		c-1.275-4.339-2.831-8.81-5.817-12.287c-1.657-1.784-3.328-3.607-5.317-5.028c-1.178-0.797-2.497-1.358-3.807-1.905
		c-2.692-1.086-5.249-2.483-7.996-3.434c-1.092-0.404-2.155-0.884-3.251-1.282c-0.299-0.109-0.624-0.256-0.949-0.196
		c-1.034,0.249-0.74,1.527-0.575,2.298c0.211,0.998,0.443,2,0.74,2.976c0.875,2.829,1.7,5.675,2.47,8.534
		c1.721,6.895,3.227,10.349,8.292,15.474c2.685,2.927,6.33,4.769,10.051,6.021c1.577,0.345,3.156,1.047,4.778,1.075
		c0.017,0.124,0.047,0.238,0.102,0.335c0.351,0.606,1.106,0.554,1.71,0.509c0.664-0.034,1.333-0.075,1.994-0.119
		c0.547,1.555,1.523,2.943,2.47,4.287c0.854,1.209,1.68,2.437,2.487,3.679c-0.935-0.39-1.922-0.687-2.338-0.86
		c-2.349-0.817-5.07-0.917-7.212,0.5c-0.732,0.478-1.523,0.884-2.24,1.374c-0.733,0.937,0.568,1.776,1.25,2.258
		c1.139,0.779,2.363,1.439,3.622,2.004c1.531,0.637,3.205,0.77,4.84,0.911c1.77,0.133,3.521-0.407,4.987-1.385
		c1.852,3.187,3.836,6.292,5.672,9.492c0.06,0.1,0.112,0.204,0.171,0.305c-0.278-0.138-0.538-0.249-0.725-0.317
		c-2.698-1.109-5.695-1.146-8.528-0.613c-1.96,0.365-3.878,1.137-5.458,2.362c-1.006,0.863-2.44,1.683-0.793,2.822
		c3.175,2.176,7.096,3.88,11.012,3.21c1.333-0.247,2.459-1.038,3.567-1.776c0.981-0.634,1.894-1.362,2.823-2.068
		c0.459,0.932,0.919,1.863,1.426,2.77c1.591,3.093,2.899,6.331,4.25,9.536c0.216,0.555,0.421,1.115,0.644,1.669
		c0.076,0.191,0.226,0.307,0.4,0.356c-0.028,1.075-0.059,2.15-0.079,3.224c-0.287,10.148,0.27,20.311,1.902,30.336
		c0.274,1.734,0.558,3.468,0.848,5.201c-0.788-1.48-1.572-2.963-2.33-4.459c-2.652-5.34-5.217-10.835-9.39-15.19
		c-0.02-0.022-0.043-0.041-0.064-0.062c0.205-0.107,0.356-0.317,0.459-0.527c0.347-0.579,0.714-1.146,1.029-1.743
		c1.195-2.075,1.406-4.52,1.368-6.869c-0.049-2.274-0.828-4.464-1.693-6.543c-0.464-0.952-1.311-4.169-2.634-2.226
		c-2.875,4.421-4.49,9.316-2.547,14.063c-0.015-0.014-0.03-0.028-0.045-0.042c-1.53-1.513-3.218-2.873-5.1-3.926
		c-2.325-1.348-4.49-3.1-7.158-3.723c-0.69-0.174-1.398-0.244-2.106-0.308c-0.001-0.09-0.002-0.18-0.022-0.268
		c-0.141-0.827-0.314-1.65-0.524-2.462c-0.232-0.776-0.519-2.27-1.634-1.913c-0.131,0.078-0.239,0.181-0.342,0.289
		c-1.219-2.554-2.232-5.197-3.324-7.806c-1.507-4.19-5.196-5.856-8.567-8.299c-3.366-2.463-7.156-4.528-11.447-4.411
		c-1.87-0.031-3.732,0.168-5.595,0.268c-0.931,0.031-1.864,0.034-2.796,0.032c-0.869-0.096-1.376,0.368-1.172,1.235
		c0.835,2.826,2.761,5.189,4.307,7.657c1.676,2.376,3.185,4.877,5.047,7.116c1.037,1.245,2.095,2.473,3.19,3.668
		c1.541,1.698,3.467,2.978,5.424,4.146c3.619,2.364,8.081,2.597,12.291,2.19c0.115,0.204,0.304,0.371,0.608,0.476
		c1.333,0.061,2.679-0.291,3.974-0.584c0.041-0.013,0.075-0.039,0.112-0.06c0.2,0.037,0.402,0.065,0.601,0.107
		c1.533,0.342,2.965,1.027,4.27,1.891c0.84,0.548,1.64,1.158,2.478,1.71c0.141,0.093,0.286,0.179,0.429,0.268
		c-0.172-0.02-0.322-0.039-0.435-0.057c-1.377-0.119-2.762-0.15-4.135,0.033c-3.135,0.536-6.31,2.195-7.901,5.043
		c-0.84,1.323,0.658,1.873,1.701,2.136c1.122,0.317,2.273,0.53,3.417,0.745c2.372,0.459,4.939,0.578,7.162-0.515
		c1.805-0.777,3.195-2.189,4.587-3.531c0.126-0.125,0.271-0.262,0.396-0.41c3.178,2.868,6.284,5.882,8.652,9.444
		c-0.783,0.072-1.563,0.168-2.338,0.298c-0.332,0.039-0.683,0.149-1.01,0.036c-0.909-0.424-1.751-1.001-2.732-1.268
		c-0.675-0.156-1.102,0.032-1.359,0.411c-1.044-0.006-2.088-0.048-3.132-0.052c-3.129,0-6.285-0.397-9.396,0.081
		c-5.224,0.838-8.933,5.005-11.884,9.082c-1.886,2.202-3.036,4.85-4.04,7.541c-0.872,2.176-1.844,4.322-2.47,6.588
		c-0.117,0.614-0.51,1.268-0.285,1.892c0.654,1.34,4.996,0.583,6.389,0.56c4.336-0.451,8.755-1.092,12.773-2.854
		c3.78-1.706,7.095-4.823,9.47-8.191c1.582-2.281,2.432-4.954,3.908-7.294c0.121-0.203,0.242-0.406,0.367-0.604
		c0.149-0.235,0.365-0.478,0.285-0.774c-0.009-0.034-0.032-0.059-0.047-0.089c0.691-0.069,1.161-0.966,1.565-1.48
		c0.381-0.646,0.988-1.296,1.033-2.065c-0.027-0.047-0.019-0.066,0.027-0.056c1.203-0.15,2.395-0.378,3.583-0.62
		c0.203,0.339,0.415,0.67,0.604,1.019c2.093,3.469,3.965,7.06,5.98,10.573c0.606,1.159,1.32,2.259,1.909,3.425
		c0.187,0.466,0.409,1.016,0.916,1.033c0.676,3.815,1.421,7.617,2.261,11.399c-0.397-0.561-0.843-1.084-1.398-1.514
		c-2.431-1.905-5.584-2.49-8.545-3.07c-1.587-0.236-3.196-0.27-4.789-0.08c-0.665,0.039-1.581,0.158-1.612,0.997
		c0.266,2.002,1.671,3.716,3.02,5.148c3.659,3.855,9.519,5.932,14.638,4.074c1.645,6.514,3.542,12.965,5.599,19.359
		c0.834,2.494,1.686,4.989,2.576,7.472c-0.02,0.113-0.043,0.225-0.061,0.339c-0.005,0.026-0.009,0.053-0.015,0.08
		c-0.442-0.355-0.901-0.688-1.402-0.96c-2.977-1.556-7.388-0.749-10.632-0.349c-1.08,0.18-2.112,0.584-3.107,1.031
		c-1.132,0.411-1.559,1.199-0.642,2.139c1.407,1.614,3.06,3.086,5.144,3.725c4.198,1.261,8.79,1.456,12.953-0.038
		c2.052,5.243,4.333,10.39,7.043,15.319c0.081,0.14,0.17,0.276,0.252,0.416c-0.082-0.038-0.164-0.078-0.244-0.115
		c-2.939-1.329-6.047-2.436-9.304-2.492c-2.397-0.076-4.832,0.078-7.119,0.848c-1.811,0.382-1.18,1.851-0.149,2.738
		c2.52,2.484,5.741,4.314,9.16,5.226c2.866,0.579,5.823-0.302,8.515-1.251c0.57-0.235,1.13-0.499,1.706-0.72
		c1.774,2.88,3.586,5.736,5.453,8.557c2.118,3.403,4.285,6.772,6.588,10.053c0.272,0.386,0.537,0.775,0.809,1.16
		c0.16,0.226,0.297,0.505,0.557,0.628c0.198,0.093,0.405,0.078,0.608,0.017c0.343-0.15,0.607-0.46,0.605-0.852
		c-0.004-0.367-0.291-0.643-0.459-0.949c-1.187-1.929-2.383-3.854-3.618-5.753c-2.695-4.39-5.633-8.656-8.381-13.025
		c0.043-0.006,0.072,0.016,0.119,0.003c5.14-5.325,4.96-11.972,4.065-18.861c-0.174-1.256-0.359-2.518-0.709-3.74
		c-0.225-0.812-1.127-0.827-1.549-0.167c-2.043,2.262-3.853,4.779-4.931,7.648c-0.906,2.171-1.296,4.529-1.085,6.875
		c0.035,0.57,0.125,1.132,0.236,1.691c-1.346-2.483-2.579-5.027-3.608-7.68c-1.884-4.449-3.561-8.98-5.093-13.561
		c0.699-3.602,1.352-7.212,2.182-10.79c0.498-2.519,1.082-5.021,1.713-7.512c1.185,0.337,2.318,0.849,3.523,1.12
		c2.497,0.418,4.986-0.488,7.229-1.507c1.719-0.748,3.258-1.886,4.405-3.374c0.839-1.039,1.648-2.106,2.404-3.205
		c0.536-0.737,1.409-2.2,0.122-2.654c-1.555-0.407-3.181-0.554-4.784-0.612c-3.645-0.232-7.571,0.221-10.427,2.712
		c-0.151,0.137-0.302,0.275-0.451,0.416c1.098-3.505,2.312-6.972,3.728-10.361c0.957-2.178,2.225-4.202,3.613-6.131
		c0.402,0.944,1.661,2.075,2.143,2.422c2.896,2.234,6.319,2.064,9.578,0.766c1.458-0.597,3.034-1.176,4.152-2.324
		c0.352-0.436,0.167-1.039-0.271-1.333c-0.83-0.707-1.792-1.235-2.785-1.677c-1.414-0.696-2.959-1.021-4.503-1.278
		c-1.922-0.425-3.952-0.371-5.757,0.479c-0.161,0.074-0.331,0.148-0.502,0.224c1.22-1.562,2.487-3.087,3.883-4.496
		c0.691-0.7,1.413-1.366,2.125-2.045c0.576-0.6,1.327-1.064,1.763-1.783c0.212,0.291,0.587,0.343,0.915,0.253
		c0.957-0.198,1.906-0.414,2.849-0.672c3.316-0.92,6.654-2.122,9.368-4.297c2.927-2.124,4.472-5.473,5.914-8.682
		c1.85-3.997,3.485-8.09,4.741-12.315C176.955,138.789,177.087,137.736,176.14,137.56z"/>
</svg>