<svg xmlns="http://www.w3.org/2000/svg" viewBox="189.466 50.976 139.009 174.492">
<path d="M204.999,187.384c1.037,0.826,2.223,1.431,3.398,2.032c1.621,0.771,3.24,1.595,4.989,2.032
		c3.673,0.974,7.497,0.062,10.944-1.311c1.766-0.604,3.428-1.548,5.278-1.871c0.595-0.138,1.24-0.055,1.822-0.212
		c0.147,0.24,0.307,0.472,0.436,0.723c0.641,1.271,0.646,2.72,0.947,4.087c0.092,0.382,0.142,0.859,0.322,1.223
		c-0.957,1.136-1.945,2.246-2.954,3.337c-2.799,2.952-5.434,6.051-8.181,9.048c-2.353,2.437-4.634,4.962-6.461,7.826
		c-0.488,0.692-1.095,1.566-0.426,2.35c0.689,0.82,1.899,0.433,2.291-0.458c0.491-0.728,1.019-1.43,1.538-2.139
		c1.465-2,3.201-3.771,4.926-5.545c3.666-3.992,7.259-8.052,10.874-12.09c0.866-1.017,1.681-2.074,2.481-3.143
		c0.067,0.11,0.154,0.208,0.28,0.264c0.219,0.104,0.472,0.059,0.668-0.069c2.626-0.026,4.399,2.525,5.409,4.668
		c1.658,3.455,2.554,7.331,4.93,10.404c2.371,2.953,5.78,4.939,9.282,6.266c6.753,2.492,12.338-3.472,17.476-6.918
		c2.974-1.89,6.157-3.434,9.436-4.72c0.398-0.14,0.821-0.374,0.912-0.823c0.217-0.928-0.944-1.316-1.596-1.589
		c-5.743-2.107-8.221-7.234-12.501-11.069c-4.802-3.898-11.285-5.904-17.037-2.846c-2.331,1.076-4.572,2.35-6.691,3.798
		c-1.54,1.122-3.213,2.24-4.39,3.744c-0.974-1.146-2.27-2.051-3.755-2.37c-0.428-0.088-0.957-0.154-1.435-0.08
		c1.315-1.819,2.587-3.67,3.891-5.494c1.552-2.112,3.064-4.252,4.563-6.402c0.44-0.026,0.69-0.467,1.002-0.737
		c0.851-0.867,1.731-1.702,2.633-2.518c3.708-3.211,7.441-6.495,11.77-8.852c1.447-0.77,2.939-1.486,4.472-2.071
		c1.975-0.623,4.39-0.489,5.751-2.322c3.695,2.214,7.778,3.84,12.101,4.226c2.499,0.238,5.033,0.441,7.536,0.152
		c4.098-0.6,8.093-2.113,11.263-4.827c3.243-2.712,6.086-5.971,8.31-9.567c2.719-4.768,4.396-10.039,6.085-15.239
		c0.854-2.877,2.092-5.67,2.678-8.615c0.209-2.037-1.48-2.51-2.92-1.458c-7.536,5.094-14.123,3.329-22.51,2.952
		c-4.149-0.161-8.194-0.146-11.803,2.201c-5.916,3.434-8.344,10.345-9.94,16.634c-0.834,3.275-0.716,6.675-1.195,9.999
		c-0.51,4.133-3.048,3.318-6.118,4.247c-1.014,0.343-2.003,0.765-2.975,1.211c-2.977,1.353-5.677,3.229-8.181,5.316
		c-1.372,1.15-2.713,2.337-4.021,3.559c1.811-2.677,3.536-5.415,4.856-8.373c3.114-6.98,5.067-14.468,7.381-21.733
		c2.083-6.538,5.212-14.993,9.944-19.991c3.511-3.776,8.098-6.186,12.459-8.824c4.856-2.73,8.063-7.654,9.821-12.837
		c0.828-2.629,0.865-5.427,0.766-8.16c-0.125-2.67-1.066-5.214-2.222-7.597c-3.181-5.89-6.83-11.518-9.637-17.608
		c-0.891-1.815-1.891-3.575-2.798-5.379c-0.774-1.534-0.92-3.478-1.821-4.85c-3.794,1.405-5.844,6.614-8.78,9.231
		c-6.148,5.481-13.104,10.545-17.129,17.907c-1.63,3.1-2.748,6.426-3.431,9.858c-0.616,2.658-1.018,5.371-0.798,8.105
		c0.229,7.533,6.982,12.253,11.676,17.305c0.804,0.853,1.653,1.696,2.229,2.728c2.459,4.676,0.91,10.48-0.93,14.962
		c-2.24,5.459-3.685,11.249-5.612,16.821c-1.771,5.122-3.522,10.325-6.593,14.841c-1.32,1.975-2.667,3.933-4.03,5.879
		c1.053-4.756,1.026-9.701,1.817-14.511c0.522-3.783,1.079-7.674,1.06-11.521c0.174-0.04,0.338-0.124,0.425-0.311
		c1.115-4.835,3.056-9.515,3.391-14.513c0.481-5.734-4.217-10.044-8.623-12.912c-1.347-0.991-2.68-2.007-4.129-2.852
		c-1.893-1.058-3.865-1.981-5.781-3.004c-1.987-0.965-3.944-2-5.762-3.264c-1.734-1.241-3.622-2.229-5.548-3.141
		c-2.114-1.105-4.112-2.456-6.007-3.903c-0.402-0.314-0.759-0.689-1.165-0.997c-1.019-0.59-1.572,0.259-1.417,1.201
		c0.069,2.709,0.143,5.417,0.225,8.125c0.163,5.435,0.047,10.946,1.317,16.267c0.87,3.055,2.084,6.035,3.793,8.72
		c3.098,4.488,7.537,8.202,12.793,9.829c5.631,1.677,9.272-0.75,15.089,1.885c-0.114,4.064-1.33,7.971-1.987,11.96
		c-0.522,3.092-0.607,6.223-0.809,9.347c-0.151,1.865-0.505,3.704-0.917,5.527c-0.115,0.568-0.232,1.136-0.348,1.704
		c-2.873,4.018-5.798,7.999-8.732,11.97c-0.351-1.817-0.673-3.673-1.735-5.232c-0.299-0.468-0.629-0.913-0.977-1.345
		c0.084-0.978-0.004-1.986-0.06-2.963c-0.243-2.703-1.295-5.474-3.541-7.13c-2.422-1.742-5.208-2.937-8.05-3.813
		c-3.505-1.149-6.723-2.975-9.999-4.638c-2.093-1.142-4.324-2.029-6.347-3.298c-0.738-0.454-1.445-0.954-2.103-1.52
		c-0.301-0.235-0.551-0.539-0.873-0.746c-0.568-0.309-1.188,0.164-1.331,0.727c-1.149,6.136-2.157,13.677,0.54,19.504
		C201.616,183.759,203.137,185.755,204.999,187.384z"/>
</svg>