<svg xmlns="http://www.w3.org/2000/svg" viewBox="29.136 224.845 158.629 251.754">
<path d="M81.868,321.958c-0.317-2.571-2.403-6.362-5.457-4.839c-2.676,1.533-5.387,5.372-6.883,8.609
		c-0.513-0.612-1.214-1.058-1.958-1.336c-2.551-1.047-4.305,1.297-4.742,3.563c-0.149,1.186-0.152,2.396-0.124,3.589
		c0.076,1.215,0.593,2.344,0.772,3.543c0.308,2.317,0.952,4.734,1.543,7.009c0.487,1.447,0.597,2.989,1.116,4.424
		c0.334,0.77,0.456,1.598,0.59,2.423c-0.139-0.479-0.276-0.958-0.431-1.433c-1.265-3.825-2.916-7.534-3.815-11.472
		c-0.443-2.06-0.785-4.141-1.215-6.204c-0.232-1.076-0.507-2.142-0.787-3.206c0.126-1.03,0.464-2.052,0.607-3.078
		c0.581-2.374,1.014-4.795,1.888-7.085c1.409-3.653,3.05-7.213,4.443-10.872c1.534-4.362,7.187-14.249,4.692-18.364
		c-1.358-2.52-4.127-1.458-5.969-0.14c-1.14,0.792-1.849,2.037-2.548,3.203c-0.768,1.319-1.575,2.621-2.266,3.983
		c-0.631,1.417-1.114,2.897-1.58,4.376c-1.481,4.362-1.677,8.969-1.608,13.535c-0.033,0.835-0.069,1.67-0.101,2.506
		c-0.328-2.663-0.536-5.343-0.684-8.022c-0.125-2.408-0.297-4.817-0.43-7.227c0.095-1.25,0.264-2.491,0.403-3.737
		c0.066-1.63,0.22-3.29,0.724-4.847c0.387-1.616,0.747-3.256,1.729-4.636c2.289-3.297,4.657-6.542,6.895-9.877
		c1.164-1.668,2.432-3.271,3.408-5.06c1.42-2.826,5.562-9.151,4.346-12.158c-0.518-0.979-1.921-0.97-2.809-0.549
		c-2.256,1.34-3.723,3.674-5.611,5.454c-2.138,2.056-3.577,4.655-4.773,7.342c-1.653,3.341-2.737,6.9-3.844,10.448
		c0.036-0.327,0.049-0.655,0.091-0.982c0.716-4.156,1.463-8.311,2.279-12.451c0.104-0.175,0.204-0.354,0.302-0.533
		c0.038-0.069,0.08-0.135,0.117-0.205c0.403-0.841,0.969-1.576,1.551-2.299c0.88-1.211,1.684-2.475,2.492-3.735
		c2.412-3.991,5.301-7.721,7.251-11.975c1.493-3.937,3.065-8.127,2.632-12.403c-0.507-2.9-3.577-4.395-6.085-2.745
		c-4.293,2.715-6.96,9.055-8.307,13.795c-0.832,3.209-0.989,6.524-1.072,9.829c-0.142-0.764-0.329-1.516-0.662-2.22
		c-1.007-2.164-2.487-4.172-4.46-5.534c-0.034-0.034-0.049-0.002,0.031-0.049c0.609-0.349,1.163-0.795,1.662-1.285
		c1.726-2.05,1.956-5.234,0.703-7.581c-1.268-2.256-5.196-3.333-7.596-2.686c-5.123,1.578-7.682,9.535-1.758,11.85
		c1.456,0.502,3.029,0.588,4.554,0.437c0.194-0.063,0.369,0.157,0.598,0.112c1.929,1.132,3.541,3.042,4.463,5.119
		c0.413,0.817,0.594,1.721,0.795,2.608c0.423,1.586,0.744,3.193,0.866,4.833c0.107,0.678,0.09,1.37,0.157,2.045
		c0.022,0.08,0.08,0.126,0.125,0.187c-0.682,2.983-1.257,5.992-1.84,8.996c-0.269,1.247-0.462,2.508-0.673,3.766
		c-0.095-2.383-0.215-4.766-0.175-7.153c-0.162-3.819,0.183-7.77-1.027-11.45c-0.704-2.127-2.354-3.972-4.398-4.894
		c-2.485-1.234-4.856,1.145-5.672,3.355c-1.351,3.755-1.487,7.903-0.898,11.824c0.207,2.209,0.73,4.358,1.547,6.42
		c0.938,2.394,2.046,4.719,3.555,6.809c1.084,1.817,2.192,3.619,3.292,5.425c0.691,1.332,1.748,2.49,2.144,3.958
		c-0.033,0.346,0.216,0.613,0.245,0.951c0.064,0.188,0.104,0.388,0.143,0.588c0.007,1.321,0.002,2.643,0.058,3.961
		c0.346,5.916,0.478,11.856,1.261,17.735c0.271,1.916,0.615,3.819,1.017,5.709c-0.571-1.549-1.296-3.039-1.636-4.671
		c-0.274-1.032-0.448-2.081-0.608-3.137c-0.213-1.352-0.628-2.661-0.837-4.014c-0.303-2.478-0.714-4.954-1.45-7.344
		c-0.557-1.813-1.025-3.682-2.049-5.304c-0.608-1.012-1.204-2.05-2.067-2.87c-3.372-3.063-9.141-2.182-10.055,2.716
		c-0.492,2.659,0.699,5.264,1.793,7.62c0.333,0.796,0.589,1.629,1.047,2.364c0.867,1.34,2.059,2.444,2.825,3.853
		c0.85,1.457,1.725,2.913,2.876,4.157c1.19,1.268,2.18,2.693,3.233,4.071c2.007,2.348,4.689,4.384,6.491,6.865
		c0.901,1.24,1.403,2.854,1.961,4.268c0.383,0.968,0.72,3.609,1.344,4.285c-0.864-0.935-1.929-1.678-2.769-2.635
		c-1.32-1.504-2.998-2.619-4.587-3.814c-0.492-0.324-1.029-0.55-1.572-0.773c-0.011-0.016-0.044-0.108-0.045-0.11
		c-0.034-0.064-0.03-0.033,0.009-0.11c0.196-0.38,0.383-0.776,0.47-1.197c0.367-2.766-2.557-4.554-4.738-5.539
		c-1.591-0.592-3.425-0.607-5.012,0.002c-1.36,0.545-2.156,1.887-2.747,3.155c-1.438,2.581-1.23,5.6,0.508,7.983
		c1.207,1.598,3.239,2.768,5.282,2.345c2.961-0.394,5.192-1.768,5.937-4.793c0.006-0.021,0.035-0.158,0.053-0.165
		c0.315,0.167,0.648,0.367,0.95,0.572c1.046,0.817,2.103,1.622,3.153,2.435c0.664,0.577,1.213,1.272,1.87,1.855
		c1.173,0.961,2.264,2.01,3.18,3.224c0.322,0.411,0.618,0.846,0.909,1.282c0.656,2.395,1.567,4.706,2.385,7.049
		c1.225,3.245,2.001,6.63,3.004,9.944c1.186,3.686,3.041,7.097,4.645,10.609c1.293,2.859,2.408,5.807,3.982,8.531
		c0.545,0.929,1.114,1.843,1.69,2.752c-2.223-1.558-4.375-3.209-6.439-4.968c-0.574-1.685-1.269-3.315-2.064-4.908
		c-0.991-2.576-1.96-5.161-2.915-7.75c-0.963-2.681-1.941-5.355-2.896-8.037c-0.711-2.253-1.689-4.378-2.822-6.445
		c-0.686-1.631-1.928-2.893-3.051-4.223c-0.337-0.418-0.661-0.841-1.091-1.17c-0.861-0.603-1.934-1.032-2.997-0.979
		c-1.175,0.155-2.353,1.035-2.634,2.219c-0.164,0.7-0.253,1.416-0.315,2.133c-0.001,0.01-0.002,0.022-0.003,0.032
		c-0.228-0.261-0.449-0.529-0.68-0.788c-1.373-1.592-2.868-3.12-4.738-4.125c-1.701-0.999-4.673-1.583-5.561,0.718
		c-0.662,1.711,0.123,3.509,0.684,5.135c1.187,3.212,2.591,6.381,4.488,9.24c0.797,1.162,1.485,2.41,2.494,3.408
		c1.243,1.221,2.523,2.4,3.817,3.566c3.955,3.377,8.273,6.332,12.584,9.236c4.34,2.852,8.556,5.844,12.936,8.597
		c1.102,0.665,2.139,1.425,3.181,2.176c0.79,1.213,1.578,2.427,2.338,3.659c2.145,3.556,4.665,6.856,7.311,10.054
		c3.855,4.962,8.632,9.072,13.048,13.514c1.207,1.109,2.446,2.178,3.703,3.226c-1.525-0.471-3.081-0.812-4.685-0.878
		c-1.862-1.284-3.396-2.981-5.114-4.443c-2.255-1.89-4.367-3.94-6.628-5.823c-3.633-3.177-7.305-6.311-10.985-9.432
		c-1.928-1.58-3.817-3.212-5.8-4.722c-1.706-1.238-3.53-2.406-5.637-2.791c-1.772-0.379-3.667-0.488-5.363,0.246
		c-0.905,0.356-2.012,0.658-2.472,1.597c-0.573,1.409,1.127,4.381,1.96,5.625c3.111,3.379,7.181,5.735,10.947,8.316
		c2.54,1.658,5.072,3.356,7.854,4.593c2.65,1.122,5.332,2.183,8.031,3.177c-1.921-0.39-4.052-0.928-5.934-0.099
		c-1.338,0.575-2.222,2-2.22,3.445c0.057,1.605,1.482,2.807,2.896,3.326c2.455,0.899,5.064,0.239,7.484-0.441
		c3.129-0.658,6.351-1.115,9.552-0.881c3.301-0.183,6.46,0.841,9.537,1.928c6.858,5.289,14.268,9.878,21.67,14.35
		c1.936,1.142,3.89,2.257,5.857,3.352c-0.348-0.046-0.694-0.102-1.043-0.138c-1.12-0.115-2.244-0.227-3.369-0.307
		c-0.006-0.047-0.003-0.09-0.016-0.142c-0.27-0.481-0.877-0.641-1.311-0.946c-1.3-0.766-2.62-1.502-3.973-2.168
		c-2.434-1.209-4.737-2.663-7.166-3.881c-3.951-1.878-7.467-4.616-11.659-5.983c-1.874-0.753-3.94-1.055-5.873-0.328
		c-3.923,1.465-1.302,4.482,0.918,6.107c0.483,0.313,0.999,0.64,1.538,0.891c-0.633-0.076-1.267-0.146-1.905-0.195
		c-2.68-0.11-5.863-0.572-8.111,1.204c-1.422,1.353-1.237,3.729,0.066,5.099c2.814,3.083,9.819,5.23,13.957,5.415
		c3.651,0.172,7.232-0.54,10.784-1.287c3.545-0.594,6.989-1.722,10.568-2.133c0.977-0.078,1.956-0.013,2.932,0.038
		c1.505,0.095,3.018,0.023,4.518,0.205c0.785,0.083,1.565,0.188,2.347,0.291c3.966,2.125,7.992,4.137,12.11,5.946
		c0.648,0.272,1.296,0.548,1.944,0.824c-0.348-0.038-0.697-0.065-1.044-0.105c-1.821-0.256-3.651-0.383-5.485-0.493
		c-1.404-0.071-2.855-0.19-4.23,0.153c-0.313-2.303-3.26-3.796-5.302-2.688c-1.691,0.931-3.649,2.628-3.362,4.757
		c0.71,2.742,4.523,3.101,6.565,1.655c0.898-0.641,1.302-1.839,2.345-2.293c1.714-0.084,3.465,0.186,5.191,0.212
		c3.004,0.122,5.994,0.438,8.997,0.558c0.199-0.007,0.479,0.024,0.781,0.053c1.518,0.581,3.049,1.122,4.62,1.546
		c2.042,0.459,4.098,0.857,6.156,1.248c-1.917,0.218-3.842,0.389-5.773,0.364c-3.921-0.01-7.841-0.012-11.763,0.002
		c-3.87-0.095-7.751-0.265-11.616,0.066c-5.975,0.312-11.941-0.479-17.919-0.363c-2.894-0.082-5.911,0.137-8.368,1.831
		c-1.295,0.837-2.819,1.848-3.039,3.503c-0.172,1.165,0.652,2.109,1.471,2.822c3.125,2.876,8.081,4.084,12.236,4.377
		c4.214,0.25,8.502,0.056,12.647-0.757c4.939-1.186,9.463-2.761,14.298-4.228c3.253-1.209,6.688-1.747,10.048-2.567
		c0.648-0.141,1.287-0.313,1.923-0.495c-0.42,0.212-0.841,0.423-1.273,0.611c-2.171,0.851-4.418,1.634-6.147,3.269
		c-2.156,1.783-3.901,3.981-5.61,6.181c-1.423,1.902-2.858,4.107-2.794,6.571c0.037,1.802,1.466,2.916,3.219,2.608
		c5.927-1.102,9.296-8.131,12.422-12.679c1.949-2.969,5.855-6.589,9.036-8.209c1.934-0.985,1.848-0.862,3.702-0.738
		c1.105,0.074,3.498,2.071,4.698,0.778c0.106-0.114,0.154-0.27,0.183-0.423c0.246-1.297-0.712-2.586-1.912-3.135
		c-1.186-0.542-2.817,0.012-3.857-0.547c-1.419-0.764-2.436-2.779-3.428-3.994c-1.673-2.303-3.538-4.448-5.306-6.673
		c-1.503-2.163-2.865-4.425-4.169-6.712c-2.07-3.467-3.894-7.069-5.927-10.555c-1.29-2.566-2.789-5.021-4.777-7.114
		c-1.451-1.666-4.64-4.39-6.922-4.292c-1.521,0.039-2.576,1.447-2.514,2.905c-0.016,0.945,0.261,1.863,0.429,2.786
		c0.359,1.829,0.745,3.677,1.616,5.342c0.924,1.722,1.867,3.455,3.066,5.005c1.292,1.6,2.744,3.063,4.08,4.625
		c1.702,1.909,3.397,3.826,5.234,5.608c1.854,1.725,3.776,3.38,5.643,5.092c2.456,2.213,4.882,4.464,7.432,6.569
		c0.168,0.124,0.334,0.254,0.502,0.38c-2.489-0.53-4.973-1.079-7.397-1.853c-4.951-1.842-9.78-3.972-14.524-6.284
		c-0.004-0.009-0.001-0.019-0.005-0.029c-0.197-0.329-0.54-0.556-0.793-0.845c-1.166-1.166-2.3-2.367-3.417-3.579
		c-0.581-0.648-1.189-1.267-1.804-1.881c-0.493-0.88-0.837-1.856-1.235-2.786c-1.734-4.811-3.505-9.631-6.198-14.007
		c-0.555-0.941-1.118-1.879-1.689-2.809c-1.416-2.16-3.287-3.979-4.909-5.981c-1.6-1.769-5.809-4.858-7.996-2.675
		c-1.179,1.754-0.476,3.996,0.048,5.863c1.635,7.403,7.402,12.952,13.224,17.396c1.645,1.273,3.284,2.551,4.865,3.903
		c1.946,1.693,3.52,4.193,5.795,5.369c-8.456-4.37-16.624-9.321-24.578-14.516c-0.77-0.507-1.53-1.033-2.294-1.552
		c1.245-1.228,1.894-3,2.445-4.628c0.66-1.883,0.734-4.02-0.211-5.821c-0.563-1.155-2.1-1.899-3.196-0.989
		c-1.504,1.349-1.706,3.566-1.957,5.458c-0.012,0.588-0.269,2.288-0.261,3.759c-0.217-0.155-0.432-0.312-0.647-0.469
		c0.03-0.179,0.001-0.368-0.158-0.496c0.132-0.552-0.001-1.146-0.082-1.701c-0.172-1.094-0.291-2.192-0.362-3.296
		c-0.107-2.596,0.052-5.221,0.647-7.754c0.655-2.719,1.68-5.349,2.613-7.975c1.602,1.496,4.047,1.761,6.048,0.951
		c3.218-1.156,4.459-4.927,4.049-8.082c-0.023-2.174-0.902-3.954-2.818-5.053c-1.605-1.061-3.629-1.746-5.544-1.233
		c-2.223,0.672-3.96,2.836-4.983,4.841c-0.34,0.774-0.553,1.612-0.562,2.459c-0.011,0.934,0.334,1.795,0.771,2.605
		c0.458,0.836,0.895,1.713,1.568,2.402c-1.832,3.92-3.451,8.091-3.617,12.459c-0.298-2.107-0.626-4.211-1.162-6.272
		c-0.905-4.41-2.057-8.808-4.133-12.828c-0.673-1.219-1.506-2.345-2.326-3.467c-1.098-1.537-2.228-3.082-3.761-4.216
		c-4.777-3.658-5.67,2-5.112,5.665c0.413,2.353,1.361,4.562,2.185,6.793c1.287,3.681,3.082,7.157,5.139,10.464
		c1.582,2.719,3.551,5.173,5.436,7.682c0.749,1.034,1.495,2.075,2.271,3.09c-1.851-1.47-3.666-2.984-5.383-4.604
		c-3.483-3.6-7.295-6.881-10.578-10.667c-2.621-3.19-5.286-6.353-7.605-9.77c-0.057-0.087-0.112-0.175-0.169-0.262
		c-0.345-1.6-0.912-3.178-1.171-4.798c0.489-0.422,0.173-1.165,0.431-1.706c0.353-1.212,0.81-2.385,1.181-3.592
		c0.27-0.891,0.466-1.806,0.865-2.654c0.813-1.828,1.927-3.514,2.339-5.502c0.513-1.947,1.188-3.874,1.37-5.889
		c0.117-1.575-0.051-3.149-0.232-4.713c-0.132-1.094-0.119-2.203-0.325-3.288c-0.246-1.25-0.851-2.393-1.496-3.48
		c-0.71-1.507-2.105-2.269-3.735-2.363c-2.242-0.032-3.974,1.942-4.836,3.841c-1.519,3.273-1.6,7.07-1.198,10.601
		c0.426,3.341,1.518,6.519,2.371,9.759c0.407,2.065,0.857,4.124,1.271,6.188c0.18,1.329,0.462,2.635,0.803,3.926
		c-1.313-2.065-2.624-4.131-3.983-6.167c-3.183-4.766-6.41-10.238-7.254-15.998c-0.825-5.628,3.804-12.496,5.626-17.794
		c1.338-3.889,2.844-7.719,4.184-11.607C81.357,327.307,82.268,324.654,81.868,321.958z"/>
</svg>