<svg xmlns="http://www.w3.org/2000/svg" viewBox="333.464 14.462 129.716 218.743">
<path d="M344.666,179.228c1.091,0.49,2.124,0.893,2.305,0.971c2.288,0.99,3.926,3.011,6.35,3.87
		c4.223,1.528,11.21-0.568,15.237-2.337c4.715-2.188,7.679-6.685,9.431-11.432c0.494,0.422,0.964,0.868,1.379,1.346
		c2.461,2.792,3.679,6.407,4.819,9.891c0.503,1.582,0.918,3.194,1.093,4.849c0.007,0.055,0.008,0.119,0.012,0.177
		c-3.576,8.095-8.064,15.77-14.516,21.935c-3.918,3.809-8.466,6.888-13.183,9.622c-2.565,1.423-5.192,2.742-7.834,4.019
		c-1.588,0.477-1.545,2.631,0.078,2.991c1.021,0.075,1.912-0.622,2.847-0.951c2.572-1.151,5.085-2.45,7.479-3.936
		c4.954-3.055,9.701-6.505,13.732-10.723c3.906-4.082,7.175-8.758,10.014-13.633c1.819-3.123,3.271-6.518,4.671-9.844
		c0.722-1.715,1.412-3.444,2.083-5.18c0.723-1.87,0.627-3.155,2.645-3.721c2.501-0.7,4.93-0.948,7.543-0.597
		c0.664,0.089,1.308,0.251,1.952,0.416c-0.389,0.979-0.156,2.632-0.129,3.407c0.205,3.301,1.646,6.651,4.526,8.452
		c8.167,4.962,18.137,3.888,27.26,5.039c2.874-0.131,0.73-4.056,0.199-5.553c-1.864-4.75-5.99-8.021-10.094-10.806
		c-4.203-2.577-9.177-6.189-14.297-5.926c-2.837,0.301-4.306,3.165-6.981,3.303c-1.808,0.093-3.67-0.577-5.547-0.438
		c-1.736,0.13-3.561,0.325-5.126,1.138c1.265-0.658,2.515-7.392,2.974-8.857c1.155-3.686,2.154-7.453,2.938-11.232
		c0.594-0.308,1.154-0.724,1.779-0.973c1.822-0.868,3.726-1.439,5.671-1.805c0.248,2.361,0.716,4.787,2.292,6.63
		c4.453,5.311,11.512,7.741,18.264,8.225c5.063,0.402,10.307-0.468,14.863-2.75c2.97-1.556,5.531-3.758,8.316-5.608
		c1.07-0.725,2.171-1.402,3.281-2.067c0.881-0.488,2.188-1.383,1.503-2.523c-0.238-0.384-0.695-0.583-1.077-0.791
		c-1.403-0.774-2.832-1.499-4.23-2.28c-3.478-1.976-7.074-3.737-10.516-5.772c-4.043-2.21-7.815-5.114-12.331-6.3
		c-5.661-1.425-11.609,0.673-15.982,4.329c-1.33,1.112-6.041,4.634-4.575,6.972c-1.264,0.284-2.509,0.65-3.717,1.119
		c-0.454,0.176-3.041,1.018-3.13,1.48c0.807-4.213,0.976-8.876,2.007-13.18c1.119-4.669,3.559-7.868,7.128-11.05
		c0.449-0.418,0.945-0.773,1.418-1.157c1.386,1.716,4.045,3.6,4.917,4.102c2.797,1.745,6.191,1.697,9.313,1.046
		c4.267-0.801,8.167-3.095,10.981-6.396c2.53-2.901,4.676-6.106,6.743-9.347c1.663-2.712,3.638-5.278,4.884-8.222
		c0.834-2.086-0.444-2.744-2.304-2.156c-2.536,0.491-5.096,0.891-7.654,1.241c-4.091,0.568-8.194,1.122-12.226,2.032
		c-6.791,1.46-14.892,4.864-14.868,12.975c-0.04,0.641-0.039,1.284-0.007,1.925c-2.933,2.239-5.521,4.917-7.76,7.878
		c0.532-6.23,0.12-10.854,2.803-16.652c1.508-3.258,2.925-6.573,4.961-9.548c0.537-0.809,1.09-1.607,1.659-2.395
		c0.882,1.682,2.584,2.878,4.53,2.735c6.457,0.092,11.422-4.541,15.519-9.002c4.819-4.823,7.924-10.97,11.278-16.829
		c1.278-2.304,2.513-4.63,3.777-6.942c0.661-0.907,0.66-2.282-0.727-2.267c-3.204,0.784-6.388,1.737-9.641,2.35
		c-4.026,0.64-7.932,1.806-11.467,3.875c-10.028,5.204-17.988,9.502-15.881,22.418c0.14,1.044,0.181,2.103,0.238,3.166
		c-1.182,1.743-2.275,3.545-3.246,5.415c-0.95,1.833-1.718,3.752-2.555,5.639c0.266-5.6,0.393-11.206,0.269-16.817
		c-0.053-2.555-0.142-5.13-0.056-7.685c0.067-1.988,1.22-3.217,2.287-4.808c1.382-1.945,2.865-3.816,4.327-5.701
		c1.685-2.183,3.411-4.336,5.181-6.451c0.211,0.333,0.585,0.491,0.932,0.66c0.785,0.367,1.651,0.532,2.504,0.651
		c3.402,0.342,7.246-0.391,9.765-2.835c2.333-2.69,4.281-5.709,5.986-8.83c1.655-3.052,3.104-6.211,4.533-9.374
		c0.556-1.287,2.06-3.921-0.175-4.347c-4.066,0.556-8.062,1.748-12.159,2.217c-2.838,0.404-5.764,0.962-8.109,2.724
		c-3.124,2.329-4.991,6.062-5.66,9.846c-0.467,2.434-0.626,4.93-0.454,7.405c0.087,0.407,0.099,1.121,0.184,1.801
		c-1.197,1.496-2.37,3.013-3.507,4.551c-1.856,2.645-4.092,5.134-5.587,8.003c0.074-3.748,0.218-7.494,0.449-11.237
		c0.184-3.418,0.54-6.827,0.596-10.252c-0.094-0.814-0.422-2.159,0.092-2.854c0.28-0.379,1.154-0.684,1.55-0.994
		c0.543-0.426,1.037-0.911,1.492-1.431c1.797-2.053,2.918-4.613,3.974-7.098c1.307-3.075,2.325-6.111,2.4-9.479
		c0.072-3.203-1.897-6.911-3.166-9.793c-1.12-2.571-2.121-5.205-3.46-7.67c-1.001-1.977-3.073-2.768-4.35-0.568
		c-3.928,5.403-8.132,11.348-8.214,18.289c0.002,5.396,1.674,10.924,5.158,15.104c0.684,0.815,1.442,1.58,2.247,2.281
		c0.034,0.032,0.071,0.061,0.105,0.092c-0.039,0.105-0.066,0.217-0.061,0.335c0.14,0.645,0.187,1.328,0.149,1.992
		c-0.249,5.35-1.055,10.657-1.425,16c-0.462-0.471-0.868-0.855-1.064-1.05c-1.171-1.105-2.442-2.09-3.732-3.051
		c-0.055-0.484-0.52-0.882-1.023-0.756c-0.029-0.021-0.058-0.043-0.088-0.065c0.18-1.257,0.085-2.571,0.047-3.842
		c-0.04-3.51-1.552-6.821-3.98-9.326c-2.163-1.864-5.182-2.502-7.947-2.892c-5.465-0.48-10.894,0.802-16.29,1.505
		c-1.084,0.163-2.186,0.168-3.277,0.22c-0.888,0.11-1.395,0.949-1.405,1.791c0.416,5.986,6.236,10.769,10.237,14.743
		c2.024,1.958,4.475,3.43,7.152,4.304c2.907,1.015,6.066,0.684,8.932-0.302c2.292-0.775,4.74-1.785,6.455-3.538
		c1.546,1.131,3.053,2.313,4.457,3.612c0.46,0.447,0.913,0.906,1.347,1.382c-0.507,7.613-0.38,15.244-0.428,22.869
		c-0.007,7.94-0.549,15.864-1.125,23.78c-0.013,0.177-0.026,0.355-0.038,0.533c-1.184-2.629-2.44-5.226-3.673-7.831
		c-1.933-4.354-3.368-7.286-4.687-9.547c0.108-0.018,0.222-0.049,0.348-0.104c0.35-0.257,0.381-0.816,0.068-1.114
		c-0.312-1.446-0.071-2.98,0.024-4.452c1.007-9.731-2.526-12.957-10.352-17.718c-2.225-1.379-4.495-2.716-6.951-3.644
		c-4.479-1.755-9.235-2.749-13.526-4.981c-0.873-0.392-1.727-0.828-2.61-1.191c-3.074-0.628-1.976,3.874-1.769,5.631
		c0.915,5.771,0.962,11.716,2.842,17.297c1.088,3.041,2.862,5.981,5.479,7.932c2.543,1.701,5.512,2.666,8.41,3.58
		c2.085,0.6,4.191,1.169,6.352,1.413c2.342,0.254,4.663-0.3,6.868-1.061c0.784-0.3,1.645-0.507,2.401-0.885
		c3.202,5.541,5.668,11.486,8.592,17.179c0.633,1.289,1.253,2.585,1.864,3.885c-0.325,4.371-0.693,8.739-1.246,13.086
		c-0.513,4.159-1.307,8.263-2.297,12.32c-0.827-1.13-1.682-2.133-1.944-2.473c-2.54-3.086-5.062-5.66-7.786-7.862
		c0.087-0.241,0.084-0.503-0.016-0.74c-0.146-0.607-0.283-1.218-0.468-1.815c-2.151-6.831-3.569-9.019-10.271-11.823
		c-3.622-1.746-7.488-2.85-11.335-3.965c-3.637-1.131-7.236-2.4-10.938-3.299c-0.993-0.244-1.985-0.482-2.982-0.701
		c-0.533-0.124-1.092-0.216-1.606,0.028c-1.238,0.608-0.824,2.151-0.393,3.163c0.893,2.332,1.701,4.697,2.676,6.999
		c3.159,7.975,8.909,14.235,17.415,16.399c5.439,1.48,10.596-0.819,15.238-3.498c0.017,0.013,0.035,0.022,0.051,0.035
		c3.036,2.302,5.753,4.994,8.334,7.786c1.202,1.295,2.423,2.59,3.449,4.029c-1.412,5.36-3.151,10.638-5.077,15.84
		c-0.806,2.23-1.667,4.453-2.569,6.663c0.74-1.815-2.527-8.017-3.538-9.602c-1.116-1.75-2.554-3.248-3.751-4.936
		c-1.145-1.615-1.687-3.295-2.994-4.815c-1.237-1.44-2.885-2.607-4.793-2.899c-2.332-0.313-4.797-0.273-7.025,0.544
		c-3.078,1.205-5.793,3.146-8.537,4.954c-3.344,2.176-6.452,4.684-9.523,7.223c-1.546,1.284-3.05,2.35-4.619,3.596
		C341.464,177.67,343.123,178.536,344.666,179.228z"/>
</svg>