<svg xmlns="http://www.w3.org/2000/svg" viewBox="127.604 253.993 213.200 211.829">
<path d="M146.324,359.757c3.145,0.581,6.298-0.21,9.294-1.142c2.509-0.787,4.637-2.514,7.191-3.143
		c5.513,4.268,12.969,4.586,19.166,7.507c3.323,1.479,6.195,3.744,9.33,5.559c3.907,2.003,7.859,3.972,11.932,5.616
		c1.939,0.664,3.92,1.179,5.906,1.675c-0.934,0.592-1.822,1.267-2.694,1.925c-2.157,1.803-3.98,4.15-6.62,5.276
		c-2.936,1.129-6.396,1.415-9.391,0.372c-1.861-0.903-3.108-2.685-4.847-3.78c-2.977-1.912-6.331-3.197-9.71-4.2
		c-3.533-1.068-8.161-1.976-10.809,1.311c-2.981,3.905-3.878,9.773-2.231,14.401c0.871,2.587,2.333,5.214,4.964,6.323
		c4.744,1.84,10.091,0.418,14.281-2.169c3.282-1.871,5.882-4.633,8.806-6.97c0.769-0.688,1.983-0.798,2.647-1.477
		c1.685-0.107,3.496-0.121,5.166-0.642c4.86-1.112,7.651-5.512,11.47-8.302c0.656-0.501,1.361-0.934,2.111-1.269
		c2.503,0.626,4.995,1.289,7.409,2.229c2.908,0.961,5.755,2.211,8.011,4.341c2.416,1.997,4.67,4.592,7.471,6.068
		c-2.592,1.644-4.487,4.773-7.97,3.855c-2.889-0.761-4.717-3.846-7.266-5.209c-2.649-1.417-6.741-3.007-9.703-1.63
		c-4.254,1.972-6.264,10.19-1.131,12.259c5.922,2.377,10.268-0.647,15.047-3.761c1.055,0.96,2.533,1.443,3.936,1.085
		c0.284-0.056,0.796-0.191,1.379-0.383c-1.314,1.93-2.609,3.884-4.282,5.457c-2.156,2.017-4.756,3.633-6.333,6.2
		c-1.781,3.036-2.784,8.075,0.158,10.691c3.182,2.113,6.714-1.395,7.635-4.379c0.687-2.225,1.461-4.422,2.139-6.649
		c1.737-5.704,2.59-10.999,7.253-15.083c-0.246,2.174,0.043,4.407,0.708,6.491c0.025,0.084,0.053,0.169,0.08,0.251
		c0.053,0.169,0.061,0.108-0.067,0.239c-1.846,1.435-3.419,3.233-4.134,5.5c-1.731,4.778-0.965,11.637,5.181,12.206
		c3.064-0.008,5.377-2.672,6.487-5.308c0.872-2.168,0.629-4.621-0.224-6.759c-1.005-2.568-2.781-4.909-4.913-6.548
		c-0.557-2.117-0.996-4.358-0.774-6.55c0.86,0.197,1.744,0.603,2.496,0.789c3.79,1.308,7.647,2.468,11.336,4.052
		c3.302,1.372,6.179,3.621,8.052,6.697c2.673,4.39,3.871,6.764,3.737,11.916c-0.122,4.714-0.674,9.395-0.733,14.115
		c-0.096,7.693,0.078,15.486,2.659,22.823c0.46,1.538,0.93,3.072,1.405,4.605c0.131,0.718,0.601,1.379,1.376,1.454
		c1.087,0.13,1.86-1.066,1.465-2.028c-0.25-1.1-0.524-2.196-0.817-3.284c-1.096-3.84-2.282-7.687-2.613-11.687
		c-0.566-6.841-0.053-13.349,3.586-19.273c2.293-3.733,4.193-8.833,9.098-5.675c4.461,2.871,1.973,7.247,0.878,11.242
		c-0.648,2.193-1.226,4.556-0.572,6.816c0.693,2.307,2.447,4.377,4.729,5.223c4.087,1.643,8.174-1.94,9.315-5.721
		c1.194-4.117-2.991-6.792-5.371-9.458c-1.248-1.256-2.125-2.892-2.971-4.549c3.079,1.597,6.571,2.533,9.821,3.663
		c2.813,0.978,5.903,1.668,8.328,3.488c3.527,2.647,2.408,3.953,3.025,7.726c0.275,2.919,2.32,5.556,4.94,6.8
		c5.98,2.13,12.352-5.011,8.856-10.597c-2.332-3.725-8.12-4.309-11.958-5.465c-6.309-1.9-12.759-3.936-18.841-6.078
		c-1.779-0.627-3.777-1.069-5.2-2.374c-0.288-0.238-0.174-0.673-0.506-0.899c-2.036-1.358-3.313-2.044-5.637-2.672
		c-0.179-0.048-0.365-0.1-0.507-0.221c-1.411-1.204,5.213-7.216,6.102-8.126c0.311-0.319,0.652-0.606,0.969-0.919
		c0.759,0.246,1.49-0.247,2.247-0.306c0.293,0.161,0.664,0.155,0.947-0.021c1.546,0.172,2.991,0.931,4.369,1.629
		c2.836,2.358,3.968,4.464,5.432,7.692c1.944,5.085,5.615,7.044,10.902,7.23c4.223,0.143,9.961,0.462,12.318-3.798
		c2.503-4.879-1.947-9.87-6.487-11.328c-2.894-1.128-6.047-1.059-9.081-0.677c-3.716,0.343-6.311,2.063-9.816,0.199
		c-1.269-0.675-6.287-4.859-7.753-3.536c1.837-1.659,3.71-3.281,5.602-4.875c1.591-1.341,3.266-2.573,4.91-3.847
		c1.397-1.083,3.225-3.355,4.881-3.92c3.636-1.238,7.799,1.136,11.522,0.902c4.22-0.265,7.814-1.482,11.119-4.104
		c2.288-1.815,3.74-4.481,4.265-7.336c2.597-15.22-12.333-14.517-20.498-6.312c-3.684,3.475-7.034,8.556-6.397,13.775
		c-0.047,0.041-0.11,0.046-0.151,0.098c-4.262,4.175-9.488,7.164-13.899,11.17c-2.79,2.389-5.587,4.79-8.076,7.494
		c-2.453,2.686-4.657,5.581-6.956,8.395c-0.103,0.128-0.199,0.262-0.301,0.391c0.671-2.368,0.71-4.842,0.664-7.293
		c0.01-2.638-0.035-5.275-0.179-7.911c-0.144-2.645-0.531-6.087,0.937-8.457c2.006-3.241,6.888-2.012,9.952-3.979
		c3.16-2.033,5.835-5.085,7.135-8.635c1.572-4.302-1.257-10.025-6.002-10.552c-2.783-0.15-5.265,1.73-7.312,3.421
		c-4.547,4.158-7.557,11.687-4.683,17.517c-0.544,0.396-0.745,1.217-1.08,1.785c-1.405,2.832-1.329,6.035-1.08,9.106
		c0.167,2.635,0.154,5.275,0.196,7.914c0.127,3.162-0.233,5.999-1.032,9.035c-0.701,2.663-2.353,4.431-3.346,6.954
		c-0.24,0.61-0.518,1.017-1.184,1.075c-1.137-2.465-0.074-7.228-0.087-10.044c-0.001-3.595-1.229-6.944-2.471-10.262
		c-0.884-2.638-1.782-5.274-2.625-7.924c-0.849-2.861-1.001-5.852-1.205-8.811c-0.288-3.974-0.849-7.931-1.695-11.824
		c-0.54-2.484-2.074-4.855-1.002-7.375c1.189-2.797,4.588-5.366,6.693-7.476c0.335-0.335,0.722-0.625,1.058-0.963
		c0.241-0.242,7.342-0.249,8.129-0.291c2.612-0.144,5.292-0.47,7.656-1.667c4.087-2.239,6.897-7.271,7.988-11.687
		c1.047-4.325-0.782-10.163-5.742-10.839c-6.288-0.642-11.648,4.016-15.454,8.513c-3.037,3.601-5.26,7.577-3.811,12.396
		c0.095,0.477,0.35,0.988,0.192,1.471c-1.88,1.779-3.847,3.512-5.481,5.54c-0.358,0.454-1.46,1.796-2.388,3.22
		c-0.261-1.235-0.502-2.474-0.689-3.724c-1.376-7.728-1.269-11.253,2.925-18.126c2.23-3.353,4.783-6.519,7.679-9.321
		c3.937-3.511,8.048-6.835,11.724-10.637c1.916-1.982,3.99-3.685,5.328-6.152c0.902-1.664,1.22-3.398,2.946-4.416
		c2.812-1.659,6.096-1.921,8.558,0.548c2.454,2.461,1.056,6.504,3.244,9.425c2.134,2.725,6.676,1.742,7.888-1.368
		c0.831-2.686-0.867-5.618-2.908-7.299c-1.538-1.322-3.481-1.989-5.275-2.859c2.815,0.022,5.552-1.37,7.816,0.041
		c2.367,1.475,3.825,3.192,6.692,3.989c4.124,1.147,7.709-0.987,6.894-5.561c-1.095-8.124-9.154-6.05-14.359-3.212
		c-4.544,2.907-4.818,2.661-10.104,2.357c-0.28-0.044-0.527,0.055-0.737,0.202c-0.716,0.082-1.439,0.231-2.104,0.271
		c-2.915,0.712-5.94,1.927-6.213-2.071c-0.149-2.184,1.172-5.202,2.477-6.828c1.284-1.6,3.043-2.79,4.226-4.473
		c0.746,0.56,2.04,0.197,2.919,0.234c1.278-0.143,2.683-0.069,3.852-0.65c-0.064,0.464,0.158,0.854,0.459,1.186
		c1.753,2.166,4.233,3.835,7.099,3.843c4.436,0.086,9.712-2.868,9.908-7.719c0.162-5.49-5.876-7.505-10.328-5.723
		c-1.853,0.69-3.423,1.963-4.902,3.237c-1.19,1.027-2.272,2.188-3.22,3.438c-0.087,0.101-0.076,0.095-0.213,0.12
		c-1.559,0.192-3.125,0.413-4.693,0.499c1.752-3.593,2.732-7.506,4.075-11.26c0.003-0.01,0.012-0.037,0.016-0.05
		c0.033-0.054,0.086-0.089,0.107-0.153c1.152,0.388,2.063-1.021,2.95-1.593c2.715-2.353,5.814-4.49,7.428-7.804
		c0.576-1.144,0.95-2.505,0.814-3.792c-0.542-4.48-6.722-7.102-10.404-4.615c-5.11,3.97-7.336,12.17-3.051,17.414
		c-1.487,3.325-2.588,6.813-4.021,10.159c-0.778,2.266-3.581,5.635-5.901,5.117c-2.088-0.466-3.962-3.271-4.862-4.983
		c-0.044-0.084-0.062-0.182-0.093-0.274c2.267-3.585,4.037-7.971,3.026-12.242c-0.543-2.537-2.446-4.964-5.179-5.179
		c-4.662-0.312-8.348,4.328-8.475,8.722c-0.232,5.491,3.876,8.966,8.733,10.458c0.378,0.116,1.782,3.117,2.306,3.632
		c0.813,0.799,3.136,1.423,3.64,2.144c1.072,1.536-1.096,4.983-1.44,7.017c-1.276,9.354-2.116,9.638-8.752,15.929
		c-3.511,3.552-7.569,6.492-11.111,10.003c-3.468,3.604-6.458,7.731-8.576,12.27c-0.357,0.765-1.098,4.337-2.232,4.178
		c-1.292-0.181-1.313-3.359-1.375-4.375c-0.209-3.423,0.545-6.866,1.418-10.154c0.358-1.347,1.628-2.076,2.503-3.068
		c4.767-5.347,8.208-12.928,6.827-20.181c-0.723-4.576-4.655-9.569-9.754-8.133c-4.394,1.463-7.155,5.885-8.741,10.015
		c-2.417,6.055,0.074,12.735,3.879,17.628c0.767,1.146,1.557,2.35,1.802,3.731c0.137,1.146-0.183,2.294-0.164,3.446
		c-0.052,2.193-0.044,4.391,0.187,6.572c-1.19-1.584-2.415-3.141-3.747-4.602c-3.672-4.096-8.636-6.641-12.852-10.091
		c-2.643-2.232-5.468-4.243-8.055-6.536c-1.474-1.588-2.503-3.584-3.263-5.601c-0.124-0.347-0.229-0.699-0.335-1.051
		c0.15-0.025,0.296-0.074,0.416-0.177c0.46-0.58,0.539-1.548,1.047-2.209c1.053-1.705,2.445-3.184,3.937-4.513
		c3.131-2.79,7.615-3.195,10.812-6.034c1.734-1.349,2.619-3.612,2.536-5.782c-0.559-4.131-4.888-5.55-7.74-2.421
		c-1.252,1.4-2.097,3.152-2.537,4.97c-0.479,1.67-0.469,3.572-1.403,5.065c-2.111,1.777-4.369,3.434-5.974,5.727
		c-0.431,0.621-1.253,1.81-1.73,2.944c-0.621-2.704-1.094-5.453-2.355-7.95c-1.441-2.729-5.688-4.715-3.447-8.303
		c2.872-4.598,6.389-10.92,2.738-16.017c-1.324-2.108-4.302-2.29-6.067-0.635c-1.967,1.622-2.739,4.282-3.166,6.702
		c-0.284,1.56,0.264,6.89,1.547,9.738c-0.414-0.919-4.057-1.669-5.024-2.461c-1.916-1.569-1.825-2.975-1.535-5.238
		c0.633-4.932-0.006-8.555-4.742-11.095c-1.922-1.065-4.365-1.43-6.322-0.258c-3.288,1.667-4.909,5.373-2.703,8.606
		c1.809,2.652,5.134,3.901,7.924,5.181c2.709,1.243,4.436,3.723,6.995,4.964c3.291,1.595,5.816,2.724,8.053,4.77
		c-1.564,0.087-3.122,0.319-4.666,0.579c-1.637,0.188-3.275,0.913-4.93,0.673c-2.87-0.969-5.197-3.058-7.574-4.862
		c-2.219-1.67-5.003-3.38-7.889-2.754c-4.645,1.372-6.923,7.891-3.159,11.36c1.385,1.092,3.127,1.669,4.845,1.994
		c4.236,0.801,7.494-0.67,11.191-2.45c3.072-1.48,7.839-1.889,11.438-2.249c0.875-0.115,1.769-0.216,2.657-0.232
		c0.386,0.499,0.766,1.042,1.144,1.641c2.21,3.388,2.364,7.559,3.543,11.334c0.569,1.941,1.401,3.825,2.484,5.541
		c-0.582,0.018-1.142,0.076-1.509,0.089c-4.167,0.151-7.125,4.956-11.238,4.619c-4.164-0.341-7.727-5.628-12.613-3.708
		c-4.923,2.477-4.266,8.906,1.405,9.49c1.923,0.198,3.713-0.306,5.586-1.066c2.549-1.035,4.667-1.38,7.294-1.983
		c4.185-0.96,6.728-5.087,11.432-5.331c0.356-0.058,0.812-0.031,1.21-0.098c1.053,1.07,2.24,2.004,3.404,2.951
		c2.867,2.164,5.542,4.586,8.528,6.592c2.908,1.985,5.945,3.842,8.458,6.337c2.455,2.538,4.064,5.711,6.119,8.551
		c0.783,1.082,2.515,2.343,3.029,3.498c0.607,1.363,0.33,3.511,0.447,5.014c0.509,6.5,2.496,12.733,3.784,19.092
		c0.02,0.089,0.033,0.178,0.053,0.267c-0.168-0.174-0.345-0.34-0.507-0.519c-3.251-3.841-7.923-6.138-12.757-7.304
		c-3.425-0.668-6.871-1.537-9.788-3.535c0.257-3.921,0.897-8.066,0.437-12.065c-0.433-3.466-1.299-6.989-3.098-10.013
		c-1.165-1.867-2.87-3.303-4.637-4.579c-3.1-2.608-7.743-3.471-10.725-0.215c-3.937,4.14-5.446,12.376-3.651,17.746
		c1.757,4.084,6.485,5.476,10.197,7.247c2.044,0.892,4.133,1.654,6.249,2.351c2.059,0.525,3.93,1.417,5.687,2.598
		c4.19,2.459,9.329,2.019,13.624,4.191c2.831,1.131,5.176,3.034,7.207,5.272c0.784,0.795,1.584,1.572,2.375,2.358
		c0.617,4.584,0.686,9.247,1.757,13.753c0.414,1.527,0.928,3.028,1.434,4.529c-0.536-0.672-1.103-1.319-1.737-1.903
		c-3.082-2.836-7.439-4.354-11.392-5.509c-1.542-0.451-3.242-0.466-4.74-0.992c-2.135-0.75-3.939-2.465-5.955-3.498
		c-3.403-1.743-5.657-4.485-8.698-6.841c-2.542-2.017-5.633-3.087-8.656-4.153c-4.833-1.704-17.117-1.965-18.948-7.895
		c-0.519-1.68-0.424-3.483-0.469-5.223c-0.087-0.408,0.224-0.674,0.251-1.066c-0.025-1.686,0.097-3.368,0.308-5.042
		c0.399-4.929,0.076-10.578-3.402-14.418c-4.488-4.617-12.546-6.474-18.01-2.524c-2.674,2.169-3.336,6.329-1.901,9.387
		c3.653,7.194,13.387,10.379,20.381,13.403c-0.113,1.997-0.104,4.477,0.718,6.443c-2.17-1.058-4.341-2.115-6.393-3.385
		c-2.831-1.834-5.526-3.899-8.595-5.329c-4.615-2.361-9.854-2.986-14.582-5.05c-1.434-0.625-2.843-1.308-4.226-2.029
		c-0.45-1.621-1.841-3.034-2.788-4.366c-2.09-2.559-4.563-4.871-7.536-6.369c-5.304-3.173-14.655-2.573-16.613,4.252
		C135.604,352.726,140.243,358.808,146.324,359.757z"/>
</svg>