<svg xmlns="http://www.w3.org/2000/svg" viewBox="170.633 202.578 159.956 150.347">
<path style="fill:#282924;" d="M318.737,332.34c-3.625-4.555-8.988-7.086-14.094-9.609c-7.223-3.496-14.777-6.703-22.219-9.789
		c-9.992-4.109-18.559-10.68-27.633-16.434c-5.645-5.137-11.106-10.512-16.199-16.219c6.91,2.59,14.297,3.434,21.387,5.367
		c9.922,2.867,18.535,8.969,26.961,14.832c5.406,3.793,10.086,8.941,16.406,11.211l-0.078-0.02c2.82,1.105,6.75-0.227,6.683-3.68
		c-0.406-5.125-4.25-9.316-8.055-12.445c-8.418-6.902-19.121-10.371-29.773-11.914c-9.785-1.524-19.66-1.965-29.39-3.887
		c-2.012-0.645-4.012-1.332-5.981-2.098c-0.223-0.09-0.465-0.207-0.711-0.289c-1.008-1.18-2-2.375-2.973-3.586
		c-3.609-4.484-6.601-9.41-9.766-14.215c-4.266-6.711-8.957-13.129-13.559-19.61c-0.664-1-1.348-1.984-2.055-2.957
		c6.246,2.601,12.687,4.703,18.969,7.215c7.387,3.066,14.531,6.738,21.332,10.957c6.551,3.922,12.793,8.441,19.293,12.481
		c5.344,3.285,10.984,6.555,17.34,7.211c11.559,0.395,8.945-8.727,2.84-14.453c-5.387-5.035-12.234-8.488-19.145-10.957
		c-11.176-4.02-23.117-4.519-34.727-6.48c-9.449-1.687-18.539-4.691-27.414-8.301c-0.113-0.063-0.242-0.129-0.379-0.191
		c-7.152-9.199-15.992-17.035-25.598-23.617c-0.406-0.285-0.977-0.227-1.281,0.18c-0.285,0.379-0.238,1.008,0.18,1.285
		c1.695,1.113,3.367,2.254,5,3.465c3.035,2.289,5.926,4.762,8.719,7.34c3.137,7.199,4.77,15.211,4.414,23.168
		c-0.305,9.777-0.82,19.57-0.766,29.367c0.176,10.5,0.059,21.188,3.328,31.289c1.773,5.129,4.387,14.063,10.715,14.684
		c9.453,0.266,3.566-30.855,2.527-37.008c-1.711-8.766-4.891-17.145-7.465-25.676c-3.316-9.949-4.727-20.496-8.992-30.117
		c-0.359-1.121-0.758-2.234-1.23-3.309c0.781,0.75,1.555,1.512,2.32,2.277c5.914,5.82,10.363,13.031,15.281,19.703
		c3.684,4.914,6.965,10.117,10.309,15.273c2.176,6.25,4.578,12.441,6.867,18.668c3.246,10.016,5.488,20.387,8.859,30.371
		c2.941,8.774,14.504,31.973,24.262,33.102c6.738-0.305,2.082-8.598,0.481-11.988c-4.195-8.191-9.297-16.047-14.063-23.938
		c-5.625-9.055-10.621-18.473-15.875-27.746c-2.441-4.117-4.742-8.344-6.711-12.699c1.543,2.262,3.133,4.492,4.816,6.656
		c7.938,9.902,17.32,18.492,26.39,27.32c12.039,11.484,22.898,24.648,37.777,32.625c4.996,2.73,10.254,5.523,16.07,5.73
		C316.663,341.387,322.589,336.778,318.737,332.34z"/>
</svg>