<svg xmlns="http://www.w3.org/2000/svg" viewBox="32.224 21.628 205.388 185.741">
<path style="fill:#282924;" d="M225.6,66.879c-1.117-0.168-2.379,0.75-2.23,1.949c0.102,0.449,0.266,0.914,0.492,1.348
		c-2.82,0.871-5.582,1.934-8.168,3.375c-0.164,0.105-0.555,0.328-1.055,0.625c-1.133-0.293-2.277-0.504-3.437-0.617
		c0.621-1.055,1.125-2.098,1.324-2.516c0.894-1.91,0.973-4.227,0.277-6.23c1.981-1.489,4.117-2.813,6.363-3.762
		c0.461,0.512,1.07,0.922,1.766,1.105c3.906,0.687,2.707-4.785-0.219-5.113c-2.731-0.039-2.93,2.043-1.875,3.586
		c-2.242,0.848-4.438,1.879-6.48,3.145c-0.703-1.363-1.813-2.488-3.305-3.102c-1.91-0.777-3.906-0.867-5.844-0.484
		c2.348-2.98,4.742-5.305,7.301-7.758c0.406,0.258,0.855,0.445,1.285,0.543c2.266,0.523,3.184-1.934,1.785-3.496
		c-1.074-1.371-3.84-1.887-4.426,0.188c-0.277,0.961,0.188,1.824,0.914,2.441c-3.008,2.391-6.027,4.793-8.414,7.84
		c-0.121,0.219-0.387,0.535-0.684,0.894c-0.5,0.192-0.992,0.414-1.477,0.656c0.332-0.895,0.586-1.789,0.75-2.195
		c1.012-3.031,0.324-6.035-1.391-8.266c1.18-1.414,2.234-2.93,3.156-4.531c0.043-0.109,0.25-0.402,0.481-0.746
		c0.352,0.137,0.734,0.269,1.113,0.301c3.731,0.195,3.195-4,0.004-4.609c-3.16-0.781-4.453,3.063-1.609,4.133
		c-1.109,1.668-2.418,3.211-3.832,4.656c-1.867-1.938-4.59-3.09-7.578-2.813c-0.465,0.043-0.918,0.117-1.36,0.219
		c1.145-2.222,2.188-5.32,2.352-6.066c0.047-0.25,0.106-0.496,0.168-0.746c0.153,0.02,0.313,0.028,0.477,0.024
		c5.219-0.285,2.984-5.508-1.207-4.719c-3.09,0.754-2.109,3.91,0.211,4.59c-0.273,0.801-0.625,1.582-0.996,2.328
		c-0.785,1.516-1.703,2.996-2.633,4.43c-0.148,0.262-0.465,0.601-0.711,0.961c-0.766,0.355-1.496,0.797-2.18,1.301
		c0.027-0.148,0.063-0.277,0.098-0.386c0.969-5.278-2.348-8.422-6.371-8.567c-0.059-2.242-0.371-4.777-0.699-6.445
		c0.879-0.344,1.645-0.965,2.059-1.816c0.738-1.977-2.051-2.906-3.562-2.414c-2.578,0.52-3.5,3.903-0.488,4.527
		c0.48,0.039,0.98-0.004,1.461-0.125c0.043,0.308,0.07,0.625,0.09,0.949c0.113,1.793,0.066,3.586-0.121,5.375
		c-1.566,0.18-3.184,0.809-4.652,1.926c-1.211,0.867-2.199,1.953-3.012,3.16c-0.039-0.594-0.094-1.141-0.066-1.48
		c-0.137-2.539-0.883-5.035-2.07-7.277c2.137-0.59,2.449-4.207-0.187-4.269c-1.133-0.047-2.293,0.469-2.977,1.375
		c-0.918,1.156-0.328,3.106,1.223,3.278c0.414,0.047,0.887,0.062,1.293-0.082c0.696,2.402,1.012,4.898,1.082,7.41
		c-3.27-3.875-8.246-7.121-11.215-3.414c-3.313,5.184-0.07,11.332-0.352,16.988c-0.168,9.242-5.578,17.508-5.695,26.797
		c-0.754,5.973,1.113,11.551,4.543,16.059c-11.324-3.332-16.988,7.371-2.969,8.93c3.07,0.18,6.133-0.312,9.109-1.05
		c-0.316,0.293-0.637,0.578-0.965,0.859c-11.426,9.883-24.258,17.726-37.758,24.34c5.305-6.785,9.844-14.191,12.82-22.293
		c2.031-5.719,4.25-12.52,1.031-18.207c-2.277-3.734-7.961-4.113-10.895-0.949c-3.027,3.008-4.028,7.512-4.586,11.609
		c-1.348,10.519,1.437,22.117-2.867,31.984c-12.16,5.664-24.785,10.422-37.356,14.844c-2.176,0.773-4.367,1.488-6.57,2.164
		c1.77-2.008,3.414-4.125,4.98-6.297c6.867-9.688,14.004-19.93,15.363-32.035c1.282-7.641,1.121-16.976-5.371-22.285
		c-6.375-4.68-14.918-0.371-17.476,6.48c-2.527,5.457-2.504,11.648-1.508,17.476c0.695,5.66,1.543,11.422,1.738,17.156
		c0.598,7.051-0.016,14.277-2.601,20.949c-6.004,1.719-12.051,3.277-18.02,5.105c-1.594,0.617-10.938,3.215-10.801,5.356
		c-0.113,0.184-0.164,0.41-0.117,0.629c0.559,2.098,2.898,2.898,4.859,3.047c6.102,0.102,11.883-2.484,17.633-4.238
		c3.902-1.402,7.832-2.742,11.746-4.129c0.902,0.141,1.801,0.32,2.691,0.582c10.203,2.984,17.945,11.043,25.254,18.41
		c6.414,6.492,12.363,15.316,22.117,16.527c6.316,1.075,12.566-4.554,11.598-11.016c-1.508-8.398-8.266-15.035-15.172-19.527
		c-11.148-6.336-24.277-9.278-37.086-8.457c0.66-0.258,1.317-0.523,1.973-0.789c1.297-0.532,2.602-1.059,3.902-1.582
		c3.781-0.695,7.629-1.098,11.449-1.535c12.926-1.406,26-0.641,38.875,0.984c-3.418,1.582-6.133,4.863-6.59,8.641
		c-0.277,1.902,0.559,4.242,2.727,4.438c2.305,0.16,4.258-1.449,5.676-3.102c0.293-0.379,1.238-1.473,1.91-2.523
		c0.848,2.758,2.191,5.387,4.039,7.727c6.598,7.961,16.738,11.313,24.918,17.219c2.785,2.098,5.152,4.504,7.324,7.262
		c1.617,1.711,2.633,4.445,5.141,4.957c6.691,0.391,6.547-10.09,4.219-14.32c-0.004-0.004-0.004-0.008-0.004-0.012
		c0.687,0.137,1.383,0.242,2.066,0.328c1.09,0.106,2.105,0.117,3.047,0.043c2.383,2.125,4.707,4.344,6.472,7.024
		c-0.937,1.129-1.207,2.84,0.289,3.523c1.5,0.43,3.141-1.051,3.43-2.473c0.25-1.082-0.699-2.27-1.836-2.117
		c-0.547,0.023-1.082,0.293-1.527,0.691c-0.488-0.852-0.937-1.731-1.504-2.535c-0.137-0.465-1.75-2.453-3.586-4.363
		c3.934-0.836,6.227-3.383,6.617-6.68c2.25,1.344,4.387,2.895,6.266,4.711c-1.02,1.156-0.734,3.258,0.875,3.707
		c2.621,0.652,4.465-4.453,1.527-5.102c-0.859-0.156-1.461,0.395-2,0.965c-1.352-1.527-2.777-2.992-4.422-4.211
		c-0.34-0.223-1.199-0.871-2.195-1.551c-0.113-2.371-1.121-5.023-3.105-7.652c-0.086-0.109-0.176-0.219-0.27-0.328
		c0.73-0.125,1.418-0.289,2.055-0.488c4.043,1.203,8.066,2.746,11.656,4.965c-0.32,1.242,0.059,2.762,1.305,3.18
		c2.679,0.504,3.812-4.152,1.098-4.848c-1.055-0.281-1.813,0.278-2.207,1.106c-2.308-1.617-7.25-4.281-7.625-4.324
		c-0.355-0.125-1.223-0.508-2.207-0.883c2.227-1.117,3.652-2.746,4.336-4.656c3.25,0.609,7.461,1.059,9.766,1.238
		c0.031,1.121,0.535,2.246,1.543,2.695c3.207,1.371,4.019-4.574,1.281-5.48c-1.691-0.477-2.656,0.797-2.809,2.258
		c-3.203-0.281-6.351-1.027-9.457-1.906c0.402-2.098,0.004-4.441-1.133-6.77c1.215,0.156,2.434,0.266,3.66,0.293
		c2.367,0.008,4.75-0.078,7.09-0.41c0.281,1.016,1.07,1.91,2.02,2.344c3.359,1.238,3.621-4.906,1.024-5.836
		c-1.551-0.891-3.23,0.832-3.133,2.402c-0.02,0.188-0.024,0.371-0.004,0.555c-3.773,0.34-7.633-0.133-11.418-0.734
		c-1.039-1.684-2.465-3.332-4.254-4.84c0.156-0.024,0.316-0.051,0.473-0.082c1.93-0.371,3.422-1,4.524-1.809
		c3.605,0.098,7.332-0.211,10.809-1.246c0.398,0.965,1.179,1.797,2.281,2.055c3.469,0.648,3.098-5.246,0.351-5.887
		c-2.387-0.391-3.219,1.422-2.844,3.149c-3.004,0.34-6.043,0.387-9.074,0.383c1.355-1.992,1.187-4.504-0.121-6.813
		c1.941-0.734,3.789-1.754,5.293-3.191c0.473,0.426,0.926,0.914,1.57,1.07c3.625,0.817,2.406-3.781,0.285-4.812
		c-2.726-1.578-4.261,1.738-2.332,3.375c-0.211,0.129-0.445,0.254-0.731,0.375c-1.547,0.801-3.199,1.453-4.906,1.949
		c-1.234-1.594-3.016-3.012-5.211-3.98c-0.406-0.234-0.828-0.437-1.262-0.613c2.559-2.863,4.235-6.875,2.512-10.348
		c-3.859-4.441-10.504,2.844-14.891,3.75c-5.805,1.937-12.02,2.836-18.098,3.492c-5.625,0.805-11.438,1.496-16.336,4.597
		c-5.414,2.926-9.004,7.793-10.672,13.277c-0.516-1.754-1.355-3.43-2.41-4.867c-5.027-5.945-12.332,1.184-3.152,8.75
		c-0.535-0.156-1.074-0.309-1.613-0.453c-6.824-1.871-13.903-2.438-20.949-2.68c-2.836-0.113-5.68-0.168-8.52-0.09
		c3.73-1.605,7.422-3.301,11.039-5.16c12.957-6.738,25.574-14.437,36.723-23.914c2.762-2.394,5.523-4.82,7.766-7.711
		c0,0.031,0,0.059,0.004,0.09c0.234,5.129,2.762,12.145,8.512,12.996c2.484,0.383,4.188-2,4.277-4.262
		c0.047-3.156-1.594-5.883-3.672-8.215c1.332,0.258,2.679,0.41,4.031,0.449c7.074,0.438,13.949-2.641,19.367-7.02
		c4.668-3.801,8.168-8.812,12.977-12.457c3.098-2.398,6.738-3.859,10.476-4.965c2.094-0.617,4.821-1.262,5.617-3.563
		c1.516-5.047-3.93-8.051-8.125-9.468c1.633-1.035,3.336-1.965,5.074-2.817c0.922-0.5,1.899-0.863,2.887-1.187
		c0.387,0.574,0.902,1.051,1.551,1.293C229.612,73.016,228.518,67.188,225.6,66.879z"/>
</svg>