<svg xmlns="http://www.w3.org/2000/svg" viewBox="321.253 309.019 136.847 126.321">
<path style="fill:#282924;" d="M447.491,345.559c2.609,2.422,1.098,6.008,0.242,8.879c-0.414,1.578-0.699,3.188-1.016,4.785
		c-1.316,18.391-23.602,22.766-39.133,22.199c6.926,2.516,13.035,7.137,17.383,13.109c3.488,4.547,4.652,10.172,5.422,15.727
		c0.391,2.859,1.785,5.649,1.414,8.57c-0.539,3.027-3.844,3.637-6.426,3.781c-5.305,0.867-10.43,2.945-15.898,2.469
		c-12.703-0.609-20.773-11.254-23.586-22.988c-0.293,1.508-0.652,3.004-1.094,4.48c-3.652,11.566-10.805,19.402-23.5,19.68
		c-3.914,0.207-7.605,1.09-11.492,0.891c-3.027-0.344-3.789-3.699-4.828-6.051c-3.254-6.734-4.328-14.492-2.152-21.727
		c1.922-7.457,6.918-14.086,13.461-18.16c-8.102-0.727-16.352-3.898-21.148-10.766c-2.824-3.969-5.887-10.59-1.691-14.625
		c2.809-2.406,7.078-2.098,10.23-3.848c3.547-1.75,6.676-4.582,10.762-4.988c7.109-0.559,13.75,2.512,19.375,6.793
		c-3.344-10.109-1.02-21.316,7.633-29.223c1.457-1.48,3.012-2.859,4.531-4.277c1.41-1.273,2.832-2.922,4.844-3.094
		c2.016-0.156,3.746,1.121,5.281,2.27c2.75,2.023,5.645,4.008,7.664,6.816c5.199,7.477,3.473,16.938-0.273,24.953
		c3.078-2.711,6.594-4.883,10.566-6.254c6.891-2.59,14.387-2.77,21.645-2.203C439.683,343.094,444.347,342.668,447.491,345.559z"/>
</svg>