<svg xmlns="http://www.w3.org/2000/svg" viewBox="248.357 33.131 220.912 292.138">
<path style="fill:#282924;" d="M460.296,178.594c-0.328-6.746-1.953-13.43-1.59-20.199c-0.262-2.109,2.527-9.473-0.27-9.949
		c-2.215,0.043-4.254,1.402-6.375,2.02c-4.668,1.734-9.191,3.832-13.625,6.094c-27.101,13.613-40.82,37.934-43.832,67.551
		c-1.067,9.266-2.117,18.704-4.387,27.82c0.18-7.195-0.25-14.418-1.117-21.574c-2.035-19.144-7.184-38.477-18.941-54.047
		c-0.723-0.945-1.453-1.883-2.199-2.808c2.594,0.543,5.23,0.847,7.863,0.918c9.648,0.125,25.461-4.926,30.523-13.609
		c2.254-3.938-1.098-7.953-1.156-11.961c8.797-5.723,7.676-13.027,1.629-20.551c-5.273-6.961-13.063-11.723-21.59-13.41
		c7.047-4.172,12.93-10.25,17.152-17.281c3.742-6.692,6.414-14.93,4.266-22.543c-1.234-4.59-5.949-4.699-9.871-4.535
		c2.363-4.965,0.148-8.375-5.203-8.887c-4.152-0.68-8.391-0.692-12.563-0.246c-6.316,0.551-12.387,2.719-17.918,5.769
		c-4.23,2.391-8.058,5.625-11.055,9.477c-1.75-7.27-5.203-14.129-9.793-20.016c-5.844-7.227-14.031-13.305-23.414-14.613
		c-5.297-0.883-7.238,2.625-8.383,7.144c-5.895-5.145-8.953-1.203-12.465,3.93c-3.445,5.336-6.41,11.082-7.93,17.281
		c-2.664,9.633-0.68,20.257,4.559,28.738c-8.691,1.598-16.602,6.457-22.555,12.93c-4.137,4.492-6.953,10.031-9.082,15.715
		c-2.457,7.105-1.359,11.809,6.813,12.805c-11.43,10.391,10.098,18.82,18.551,19.258c3.73,0.316,7.484-0.047,11.105-0.945
		c-1.836,4.566-2.578,9.734-2.238,14.547c0.977,9.086,9.953,31.903,20.719,18.43c1.875,4.359,5.305,8.773,10.484,8.805
		c15.523,0.129,24.109-16.547,25.926-30.07c0.156-1.047,0.32-2.168,0.465-3.297c3.078,2.016,6.434,3.629,9.933,4.805
		c0.969,1.309,1.898,2.656,2.817,3.992c2.324,3.383,4.664,6.762,6.359,10.516c9.562,19.051,12.168,39.641,10.258,60.719
		c-0.66,7.473-1.504,14.965-2.851,22.355c-0.188-0.941-0.383-1.879-0.59-2.816c-4.965-24.192-18.094-50.227-43.219-58.051
		c-16.172-5.23-24.617,2.238-39.313,3.187c-2.547-0.031-4.887-0.598-7.297-1.508c-0.91-0.301-1.977-0.855-2.887-0.297
		c-1.254,1.102-0.09,2.93,0.117,4.289c1.016,4.145,2.012,8.305,3.535,12.301c5.617,15.102,15.648,28.941,30.184,36.453
		c14.52,8.391,32.156,6.539,47.562,12.191c3.442,1.403,6.383,3.754,9.195,6.219c-0.09,0.321-0.18,0.645-0.27,0.965
		c-1.527,5.137-3.504,10.133-5.098,15.246c-0.926,3.395-3.004,7.512-0.598,10.719c9.809,8.699,15.531-28.254,16.793-34.125
		c0.914-3.906,1.582-7.848,2.043-11.812c12.797-11.996,29.688-19.281,43.477-30.176
		C448.929,219.481,461.269,199.723,460.296,178.594z"/>
</svg>