<svg xmlns="http://www.w3.org/2000/svg" viewBox="414.273 250.379 61.484 69.757">
<path style="fill:#282924;" d="M463.874,299.43c0.055-0.246,0.109-0.453,0.176-0.609c2.383-9.812,3.707-20.199,2.586-30.27
		c-0.41-2.57-2.437-6.707-5.602-5.168c-2.762,1.867-3.113,5.621-3.676,8.648c-0.242,1.418-0.402,2.84-0.496,4.262
		c-0.875-5.07-2.773-17.914-8.367-15.688c-2.621,2.379-2.379,7.813-1.156,13.543c-3.23-7.383-7.516-14.172-11.789-10.676
		c-2.402,3.707-0.332,8.39,1.11,12.094c0.758,1.793,1.644,3.504,2.636,5.152c-2.719-3.379-5.64-6.617-9.406-8.766
		c-5.145-2.567-6.043,2.57-3.848,6.184c2.508,5.371,7.066,9.398,11.539,13.133c-3.828-1.801-10.106-5.75-14.164-3.098
		c-1.144,0.898-1.082,2.582-0.309,3.699c7.113,7.898,20.574,12.355,30.969,13.242c0.687,0.055,1.371,0.066,2.059,0.055
		c1.258,2.543,2.777,5.207,5.496,6.211c2.203,0.758,4.672-0.774,5.051-3.063c0.621-2.524-0.531-5.027-1.785-7.168
		C464.569,300.797,464.253,300.047,463.874,299.43z"/>
</svg>