<svg xmlns="http://www.w3.org/2000/svg" viewBox="80.127 28.134 60.212 58.887">
<path style="fill:#282924;" d="M125.425,52.04c4.301,2.57,6.914,7.828,4.047,12.59c-1.559,3.027-5.063,4.781-8.422,4.289
		c-0.375-0.059-1.121-0.234-1.938-0.5c0.418,5.449-3.355,10.602-9.707,10.258c-6.195-0.23-9.391-5.262-9.055-10.594
		c-1.23,0.277-2.406,0.383-2.852,0.269c-6.203-0.824-9.371-6.668-6.688-12.316c1.102-2.266,3.219-3.656,5.492-4.582
		c-1.113-2.082-1.707-4.438-1.258-6.789c0.77-5.059,6.707-8.531,11.363-6.023c1.5,0.691,2.645,1.875,3.602,3.191
		c1.688-1.762,3.906-3.066,6.293-3.488c7.063-1.352,13.125,5.301,9.953,12.098C126.073,50.77,125.784,51.395,125.425,52.04z"/>
</svg>