<svg xmlns="http://www.w3.org/2000/svg" viewBox="210.059 353.140 131.726 125.638">
<path style="fill:#282924;" d="M324.433,397.075c9.352,4.711,2.004,15.527-3.852,19.918c-6.172,4.738-14.109,6.879-21.859,7.289
		c4.301,2.621,8.086,6.02,10.887,10.289c3.164,4.574,5.734,10.191,5.18,15.863c-0.422,3.578-3.402,5.824-6.301,7.508
		c-2.633,1.578-3.211,4.758-4.699,7.16c-1.563,2.078-3.988,3.594-6.652,3.52c-12.332-1.145-19.031-13.961-22.051-24.672
		c-0.07-0.242-0.137-0.484-0.199-0.73c-1.313,5.297-3.816,10.293-6.895,14.773c-4.453,6.008-10.898,12.785-19.035,11.949
		c-4.004-0.66-5.496-4.895-8.195-7.309c-1.117-0.875-2.324-1.223-3.492-1.945c-1.324-0.836-2.219-2.18-2.73-3.641
		c-2.855-7.68,2.113-15.699,6.715-21.617c2.809-3.566,6.375-6.473,10.336-8.672c-1.762,0.059-3.527-0.035-5.293-0.352
		c-7.141-0.992-13.875-4.266-19.305-8.984c-3.832-3.387-8.934-10.02-3.996-14.539c0.602-0.648,1.535-1.113,1.719-2.051
		c0.039-1.84-0.699-3.715,0.047-5.527c4.703-8.914,20.563-6.863,28.203-3.113c4.547,2.008,8.395,5.066,11.969,8.449
		c-3.465-6.395-5.34-13.656-5.289-20.93c0.023-4.133,0.605-9.527,4.68-11.641c2.043-1.055,4.234,0.199,6.324-0.242
		c1.531-0.516,2.359-2.012,3.445-3.098c3.18-3.59,8.313-1.262,11.223,1.5c8.008,6.922,8.813,18.668,6.57,28.391
		c-0.086,0.461-0.313,1.578-0.641,2.883c7.238-6.687,18.207-11.574,26.203-9.637c2.234,0.715,4.207,2.5,4.828,4.805
		C322.683,394.305,322.804,396.141,324.433,397.075z"/>
</svg>