<svg xmlns="http://www.w3.org/2000/svg" viewBox="23.257 58.777 50.156 50.161">
<path style="fill:#282924;" d="M63.069,80.469c2.344,4.027-0.324,8.465-4.355,9.68c2.668,4.289-0.371,10.789-5.949,10.648
		c-2.371-0.164-4.812-1.695-6.215-3.742c-1.582,1.371-3.695,2.203-5.801,1.926c-4.988-0.273-7.879-6.992-4.449-10.637
		c-5.043-2.801-4.379-12.008,2.02-12.973c0.992-0.145,2.273-0.207,3.438,0.027c1.145-5.914,10.734-8.621,13.742-2.227
		c0.469,0.59,0.828,2.379,0.785,3.98C58.937,76.962,61.784,78.169,63.069,80.469z"/>
</svg>