<svg xmlns="http://www.w3.org/2000/svg" viewBox="26.558 180.165 168.531 294.792">
<path style="fill:#282924;" d="M184.495,462.184c-4.164-5.281-9.906-9.039-14.636-13.816c-2.09-1.91-4.117-3.883-6.082-5.914
		c-0.785-2.605-1.328-5.305-1.613-8.043c-0.824-9.992,2.18-19.863,4.961-29.367c5.137-15.23,6.418-24.32,3.148-40.254
		c-0.719-4.121-1.16-8.289-1.691-12.441c-0.25-1.16,0.082-3.168-1.402-3.516c-0.844-0.082-1.367,0.719-1.758,1.344
		c-1.516,2.52-3.149,5.098-4.723,7.633c-6.23,9.852-13.543,19.516-16.066,31.125c-2.89,14.289,0.664,28.062,7.731,40.156
		c-2.777-3.696-5.379-7.524-7.793-11.473c-8.328-13.82-12.516-29.766-14.594-45.68c-0.375-2.981-0.426-5.98-0.449-8.984
		c9.496-1.05,18.387-5.621,26.172-10.98c3.965-3.082,15.18-11,11.586-16.754c-1.016-1.016-2.844-1.012-4.801-0.473
		c4.32-7.516,6.832-16.184,7.027-24.863c-0.023-7.742-0.851-15.754-3.551-23.082c-0.797-3.082-4.774-7.844-7.211-3.398
		c-0.766-4.102-3.816-7.648-8.305-6.578c-0.477-2.59-1.105-6.453-4.336-6.738c-5.145,0.551-9.215,4.523-13.336,7.332
		c-8.527,6.305-15.687,14.469-20.043,24.195c-3.379,7.301-4.078,15.848-2.426,23.773c-0.254-0.148-0.516-0.289-0.785-0.414
		c-3.511-1.512-5.473,1.832-4.449,4.965c1.234,6.277,4.473,11.887,7.906,17.203c3.621,5.441,8.078,10.559,13.426,14.359
		c-1.172,14.805,1.117,29.82,6.453,43.672c-1.433-1.793-2.828-3.613-4.176-5.469c-5.785-7.531-10.261-15.938-14.637-24.348
		c-2-3.797-3.914-7.641-5.75-11.523c0.715-5.137,1.035-10.316,0.433-15.473c-0.383-2.953-0.777-6.137-2.695-8.535
		c-2.992-3.117-4.937-1.543-5.883,1.144c-1.449-5.062-3.762-9.867-6.731-14.227c-2.324-7.141-4.594-14.309-7.078-21.395
		c0.563-0.34,1.105-0.695,1.512-0.816c3.703-1.77,7.133-4.047,10.047-6.949c6.887-7.129,13.496-15.066,16.211-24.793
		c0.91-3.93,2.207-8.363,0.504-12.238c-2.168-3.988-5.77-2.027-8.648,1.063c2.008-7.965,2.352-16.391,0.754-24.465
		c-1.551-8.121-4.746-15.879-8.832-23.047c-4.203-7.016-18.699-25.937-22.09-8.43c-1.774-3.578-3.363-7.527-6.656-10
		c-3.219-2.203-7.297-0.215-8.731,3.121c-1.113,1.836-1.641,4.051-2.922,5.75c-0.508,0.391-1.281-0.055-1.887,0.203
		c-2.359,0.633-3.781,2.887-5.437,4.523c-5.691,6.234-9.219,14.145-11.355,22.238c-4.25,15.281,0.035,33.07,10.746,44.856
		c-1.058-0.453-2.148-0.805-3.301-0.922c-8.852,0.438,2.113,14.789,5.129,17.328c7.422,7.524,17.476,13.406,28.246,13.758
		l0.039,0.004c0.359,0.031,2.019-0.035,3.442-0.215c0.633,3.683,1.383,7.344,2.234,10.98c-8.527-8.098-21.734-16.574-29.375-9.664
		c-0.277,0.18-0.594,0.211-0.891,0.051c-1.918-0.949-4.414-0.617-4.879,1.781c-5.765-3.238-10.152,0.305-9.785,6.551
		c0.129,3.125,0.594,6.242,1.383,9.262c0.238,1.461,1.149,3.098,0.461,4.535c-3.191,5.414-1.223,13.203,0.414,18.902
		c3.14,9.992,10.804,18.813,20.703,22.195c-3.477,0.766-4.707,4.547-1.793,7.16c6.598,5.274,15.406,7.418,23.731,7.66
		c5.781,0.207,11.562-0.653,17.035-2.496c2.332,3.543,4.485,7.207,7.313,10.398c7.617,9.277,16.621,17.492,26.719,24
		c2.871,4.5,5.926,8.906,9.168,13.172c-0.922-0.516-1.844-1.055-2.77-1.621c-11.309-7-21.965-15.035-33.797-21.168
		c-14.07-7.59-29.754-11.207-45.668-11.867c-2.324-0.219-4.625-0.633-6.867-1.281c-1.313-0.344-2.613-0.793-3.965-0.957
		c-0.473-0.031-1.008,0.059-1.285,0.488c-0.523,0.773,0.066,1.652,0.578,2.27c1.32,1.593,2.668,3.168,4.027,4.734
		c8.109,10.004,17.707,18.988,29.742,23.984c10.453,4.719,21.984,6.719,33.41,6.906c8.695,0.297,17.457-0.203,26.035,1.57
		c1.219,0.129,2.383,0.363,3.508,0.723c3.769,4.711,7.777,9.234,12.027,13.508c6.262,6.144,12.375,12.855,20.09,17.176
		C183.679,466.957,187.089,465.825,184.495,462.184z M104.702,381.297c0.703-2.414,1.266-4.867,1.789-7.328
		c3.66,7.469,7.641,14.801,12.332,21.644C113.749,391.235,109.069,386.391,104.702,381.297z"/>
</svg>