<svg xmlns="http://www.w3.org/2000/svg" viewBox="416.211 58.875 58.256 61.024">
<path style="fill:#282924;" d="M464.526,106.782c1.941,1.438-1.035,2.25-2.148,2.668c-3.672,1.441-7.555,2.449-11.523,2.273
		c-10.301-0.324-20.039-7.148-23.789-16.754c-2.504-7.246-2.855-15.594-0.355-22.895c1.652-5.199,3.211-3.008,5.211,0.441
		c2.902,4.559,6.012,9.23,6.488,14.762c0.027,0.246,0.059,0.68,0.078,1.223c0.805-1.254,1.754-2.406,2.77-3.402
		c4.207-3.973,9.969-6,15.262-7.977c1.531-0.09,1.023,1.828,0.934,2.785c-0.352,3.355-0.527,6.852-2.184,9.875
		c-2.355,4.293-6.543,7.176-10.945,9.125c1.766-0.055,3.547,0.152,5.223,0.563C455.085,100.665,459.577,104.239,464.526,106.782z"/>
</svg>