<?xml version="1.0" encoding="utf-8"?>
<svg version="1.1" id="Layer_1" xmlns="http://www.w3.org/2000/svg" xmlns:xlink="http://www.w3.org/1999/xlink" x="0px" y="0px" viewBox="2297 60 477 1047" style="enable-background:new 0 0 3000 2000;" xml:space="preserve">

<g>
	<path d="M2453.075,172.154c-0.054,0.027-0.105,0.059-0.158,0.087c0.03-0.013,0.096-0.051,0.162-0.088   C2453.077,172.153,2453.076,172.154,2453.075,172.154z" />
	<path d="M2585.525,443.222c-0.066,0.005-0.131,0.016-0.197,0.023c0.052-0.004,0.119-0.012,0.202-0.021   C2585.529,443.223,2585.527,443.223,2585.525,443.222z" />
	<path d="M2395.012,483.395c-0.04,0.028-0.08,0.057-0.12,0.085c0.016,0.003,0.085-0.04,0.171-0.112   C2395.043,483.378,2395.027,483.386,2395.012,483.395z" />
	<path d="M2554.807,760.583c0.212-0.038,0.424-0.077,0.636-0.115c0.101-0.02,0.199-0.037,0.301-0.057   C2554.178,760.667,2554.492,760.64,2554.807,760.583z" />
	<path d="M2662.781,617.159c0.002-0.01,0.002-0.015,0.003-0.025c0.002-0.094-0.001-0.188-0.002-0.282   C2662.766,616.888,2662.759,616.985,2662.781,617.159z" />
	<path d="M2705.628,441.271c0.346-0.3,0.687-0.605,1.039-0.897c8.96-5.833,18.155-11.398,27.623-16.38   c8.287-3.853,16.007-8.873,23.371-14.261c4.589-3.86,7.812-9.122,10.769-14.273c1.633-3.282,2.839-7.537,1.109-10.992   c-2.171-3.814-6.632-6.391-11.025-6.321c-8.068,0.279-14.636,5.783-21.223,9.855c-9.326,6.21-16.158,15.365-22.171,24.667   c-1.523,2.253-2.937,4.565-4.265,6.922c1.93-8.143,2.235-16.536,2.699-24.879c0.073,0.367,0.148,0.733,0.208,1.105   c0.119-0.902,0.098-2.336-0.037-3.943c0.04-0.639,0.076-1.279,0.122-1.917c0.413-6.343,0.757-12.689,1.042-19.039   c1.302-5.268,2.6-10.749,3.757-15.956c1.668-8.473,2.798-17.05,3.876-25.616c-3.006,8.859-5.445,17.929-7.105,27.133   c0.073-2.518,0.146-5.036,0.197-7.555c-1.804,9.315-3.634,18.625-5.379,27.951c-1.547-5.392-3.041-10.8-3.667-16.385   c-0.76-6.945,0.083-13.94,0.166-20.902c0.153-6.475-0.349-13.138,0.255-18.169c1.356-10.767,5.613-16.533,12.514-20.444   c0.236-0.135,0.479-0.258,0.721-0.382c0.02,0.001,0.041,0,0.061,0.001c0.051,0.002,0.103,0.007,0.154,0.01   c0.405,0.085,1.506,0.297,1.833,0.43c3.025,0.939,4.877,3.76,6.757,10.62c2.384,8.926,2.088,16.783,1.355,25.005   c-0.545,6.907-2.169,13.661-4.375,20.216c-3.179,9.776-6.706,19.441-10.52,28.987c5.375-9.227,10.336-18.702,14.8-28.404   c3.127-6.693,5.763-13.65,7.009-20.958c1.859-10.286,2.781-21.282-1.139-31.211c-0.796-2.059-1.735-4.169-3.329-5.739   c-3.18-2.733-7.659-3.708-11.762-3.197c-5.448,0.791-10.01,4.34-14.053,7.857c-8.358,8.009-8.949,20.42-7.959,31.259   c0.859,12.119-0.063,24.727,5.187,36.032c1.433,3.738,3.261,7.338,4.957,10.983c-0.466,2.555-0.933,5.11-1.379,7.668   c-1.444,8.09-2.353,16.268-3.955,24.331c-0.614,2.37-1.213,4.746-1.807,7.123c-0.183-0.604-0.37-1.207-0.592-1.8   c-2.925-6.042-6.74-11.636-10.945-16.857c-7.159-8.474-15.363-17.611-26.58-20.237c-5.41-0.868-10.577,2.453-13.463,6.858   c-3.917,6.489-3.714,14.852-1.52,21.904c4.676,9.676,23.114,14.021,32.698,17.68c5.709,2.008,11.236,4.553,16.946,6.554   c-4.148,17.088-8.326,34.182-14.169,50.764c-0.511,1.336-1.043,2.639-1.588,3.926c-0.074-0.925-0.166-1.848-0.286-2.768   c-1.154-5.646-2.707-11.22-4.527-16.688c-4.191-12.356-10.861-25.055-22.892-31.271c-6.897-3.96-14.906-2.942-21.719,0.655   c-8.453,3.997-13.852,11.635-11.695,21.193c0.702,3.26,3.19,5.6,5.535,7.782c2.575,2.559,5.356,4.901,8.194,7.161   c4.677,4.019,10.082,6.982,15.808,9.222c9.368,4.107,19.166,7.218,28.406,11.606c-4.535,9.065-10.07,17.259-16.881,26.147   c-7.049,9.119-14.791,17.662-22.298,26.399c-3.804,4.568-7.458,9.262-11.132,13.938c2.412-6.818,4.491-13.75,6.228-20.781   c1.56-6.396,2.802-12.92,2.972-19.517c0.083-4.788-0.586-9.547-1.288-14.272c-0.651-4.457-1.477-9.105-4.081-12.883   c-3.965-5.539-11.255-6.583-16.506-2.169c-7.889,6.758-10.681,17.4-10.361,27.464c0.098,7.215,0.618,14.427,1.59,21.577   c0.516,4.908,2.898,9.391,4.445,14.036c1.367,3.16,1.709,6.602,2.557,9.911c0.783,3.482,1.794,6.922,3.195,10.208   c0.078,0.201,0.163,0.398,0.248,0.596c-10.065,13.303-19.82,26.847-30.077,39.999c-4.523,5.458-9.045,10.917-13.58,16.365   c7.15-14.965,13.313-31.662,11.179-46.776c-0.919-5.568-2.787-11.501-7.04-15.423c-2.332-1.744-5.075-3.127-7.908-3.531   c11.674-7.519,22.669-17.029,27.768-30.257c1.565-3.838,1.194-9.062-2.783-11.242c-3.394-1.727-7.028-3.02-10.673-4.126   c-16.353-3.45-32.295,7.163-45.091,16.157c-20.174,13.406-32.778,34.363-40.833,56.773c-1.691,4.99-3.686,10.021-4.746,15.2   c-0.717,0.72-1.412,1.46-2.018,2.274c-0.296,0.473-0.557,0.967-0.815,1.463c2.162-19.431,4.487-38.842,6.876-58.247   c1.546-8.361,3.113-16.719,4.675-25.078c0.29-0.474,0.545-0.994,0.842-1.552c2.712-4.67,3.867-8.119,6.283-11.566   c3.191-4.728,5.84-6.627,11.164-10.367c4.307-2.851,5.49-3.953,9.774-6.071c4.239-1.965,14.555-6.667,20.487-10.375   c7.022-4.568,13.174-10.299,19.64-15.589c4.119-3.026,8.247-6.04,12.335-9.108c4.598-3.461,9.244-7.134,12.062-12.267   c1.925-3.371,2.914-7.876,1.306-11.536c-2.468-4.031-7.977-4.749-12.259-3.78c-15.746,4.448-29.923,13.405-41.636,24.748   c-9.712,9.404-19.489,18.953-26.317,30.749c-3.227,5.395-6.069,11.019-8.554,16.795c-0.65,0.682-1.267,1.392-1.862,2.121   c2.776-14.842,6.369-29.537,8.316-44.518c0.08-0.611,0.143-1.223,0.219-1.835c1.92-0.836,3.4-2.162,1.523-3.383   c-0.352-0.125-0.717-0.202-1.087-0.257c0.514-4.471,0.95-8.949,1.341-13.431c2.293-3.948,4.545-7.921,6.633-11.978   c2.868-6.214,5.544-12.523,9.6-18.088c2.543-3.615,5.321-7.078,7.585-10.881c4.205-7.193,7.732-14.551,13.389-21.413   c0.921-1.044,1.836-2.094,2.74-3.153c-1.112,1.002-2.23,1.996-3.349,2.99c-6.685,6.196-11.672,13.901-16.594,21.502   c-3.163,4.723-6.969,8.999-9.782,13.959c-2.946,4.737-4.511,10.099-6.367,15.314c-1.167,3.025-2.394,6.027-3.627,9.028   c0.233-2.817,0.456-5.634,0.659-8.454c4.433-10.303,9.805-20.153,15.508-29.822c8.405-14.47,17.426-28.649,28.601-41.161   c2.582-2.931,5.914-7.506,7.916-9.417c2.746-2.51,4.805-3.383,8.501-5.383c9.812-5.107,33.743-14.353,38.938-8.124   c3.382,12.242-9.771,26.427-20.696,35.676c-8.662,7.447-17.04,15.236-25.946,22.393c-12.611,10.142-27.419,17.15-39.497,29.125   c-6.478,5.817-10.48,13.634-13.53,21.668c4.429-8.357,9.926-16.205,17.546-21.951c10.264-8.364,21.231-14.061,32.786-21.459   c8.581-5.428,16.093-12.289,23.689-18.977c12.65-11.802,33.415-25.677,33.971-44.524c0.192-4.887-1.963-6.479-6.48-7.534   c-8.543-1.885-17.246,0.919-25.421,3.28c-10.4,3.542-21.064,7.583-29.779,14.415c-4.86,4.782-8.717,10.489-13.259,15.572   c-8.289,9.768-14.485,21.079-20.23,32.472c-4.752,9.611-9.122,19.435-12.333,29.651c0.558-8.106,1.056-16.217,1.645-24.319   c1.042-15.596,0.493-31.259,0.829-46.883c0.091-6.057,0.1-12.114,0.067-18.171c0.501-1.024,1.04-2.027,1.598-3.018   c-0.443,1.754-0.865,3.51-1.271,5.264c1.37-3.312,2.748-6.627,4.155-9.93c1.676-2.467,3.511-4.828,5.463-7.09   c2.645-3.279,5.096-6.729,7.953-9.83c5.89-4.758,12.513-8.598,18.425-13.363c6.723-5.494,12.967-11.526,18.922-17.84   c4.307-4.218,14.017-13.2,19.384-19.892c2.824-3.432,5.418-7.043,8.095-10.588c1.612-2.031,3.402-3.978,4.415-6.4   c0.971-2.261,1.187-4.737,1.587-7.141c0.203-1.558,0.424-3.183,0.025-4.725c-0.668-2.393-3.469-3.211-5.67-3.518   c-0.709-0.094-3.071-0.273-3.099-0.276c-0.053-0.005-0.102-0.01-0.125-0.013c-2.415-0.301-4.876-0.394-7.261,0.16   c-2.771,0.658-5.331,1.957-8.029,2.849c-8.635,3.056-16.818,7.589-23.453,13.959c-24.722,21.748-37.185,53.949-41.153,86.142   c-0.133-14.12-0.47-28.24-0.633-42.36c-1.725-26.398-3.141-52.819-5.469-79.169c0.865-1.66,1.683-3.343,2.335-5.106   c1.288-2.953,1.976-6.139,3.388-9.035c3.64-5.799,9.231-9.757,13.277-15.238c3.325-4.648,6.114-9.662,9.457-14.302   c3.932-5.394,7.797-10.889,10.393-17.076c2.236-5.006,4.545-9.973,7.27-14.736c1.742-3.308,3.662-6.634,4.452-10.322   c0.362-3.092,0.239-6.475-0.983-9.364c-3.708-5.7-11.193-0.14-15.013,2.76c-4.396,3.543-7.862,8.034-11.308,12.465   c-4.146,5.276-8.396,10.529-11.546,16.484c-3.158,6.3-4.994,13.168-7.402,19.771c-2.718,8.947-3.45,18.371-5.043,27.56   c-0.189,1.09-0.344,2.184-0.493,3.279c-0.114-1.131-0.215-2.262-0.334-3.393c-2.142-24.725-5.149-49.429-10.384-73.688   c0.702-4.475,1.237-8.97,1.784-13.468c1.122-7.277,2.735-14.5,3.072-21.872c0.408-4.357,1.123-8.674,0.971-13.066   c0.069-4.197,0.238-8.59-1.727-12.433c-0.688-1.775-2.094-3.157-4.005-3.505c-3.837-0.851-7.746,1.211-10.182,4.108   c-3.865,4.95-5.526,11.429-5.507,17.642c0.1,2.831,0.953,5.565,1.575,8.311c2.463,10.964,7.451,21.093,11.244,31.619   c2.306,25.671,3.444,51.435,6.011,77.09c1.218,11.651,2.206,23.319,3.075,34.996c-2.099-7.193-4.708-14.232-7.13-21.324   c-1.893-5.466-3.851-10.973-6.91-15.914c-5.955-9.014-11.573-18.829-21.046-24.597c-2.737-1.792-5.682-3.227-8.605-4.684   c-2.275-1.207-4.501-2.689-7.103-3.057c-4.432-0.45-9.697,0.938-12.293,4.791c-8.115,13.15-1.426,24.062,9.709,32.312   c5.769,4.438,11.36,9.136,17.472,13.102c3.393,2.125,6.812,4.236,10.381,6.053c4.98,2.426,10.278,4.531,14.012,8.814   c4.727,5.09,8.816,10.763,12.383,16.72c1.112,16.319,2.055,32.651,3.108,48.975c0.25,17.387,0.6,34.777,0.715,52.166   c-0.023,3.112-0.05,6.355-0.08,9.667c-3.713-21.545-8.697-43.188-21.948-60.941c-6.162-8.295-13.114-16.542-22.125-21.817   c-4.823-2.422-11.694-3.056-15.542,1.396c-4.133,4.863-3.615,11.771-2.819,17.701c0.9,5.863,2.741,11.514,6.193,16.386   c3.428,6.085,7.478,11.779,12.033,17.072c6.67,8.153,13.839,15.846,21.624,22.947c5.528,5.217,11.672,9.815,16.679,15.56   c2.336,2.731,4.173,5.786,5.739,8.997c-0.091,9.261-0.177,18.305-0.217,25.932c-1.04,14.745-1.911,29.504-3.01,44.245   c-1.052-10.259-3.394-20.33-7.8-29.769c-4.365-12.257-9.903-24.17-17.719-34.636c-4.786-5.717-10.687-10.623-17.221-14.217   c-4.083-1.864-5.394-2.111-8.752-3.064c-3.875-1.335-8.227-1.385-11.93,0.511c-4.216,2.207-6.085,7.007-6.065,11.619   c-1.617-5.597-3.885-10.734-7.148-15.005c-3.059-3.778-8.857-3.618-11.985-0.006c-7.192,8.084-5.651,21.627-3.987,31.548   c2.61,15.392,8.962,29.995,18.186,42.569c1.528,2.046,3.005,4.166,4.613,6.167c0.372,1.788,0.745,3.575,1.112,5.362   c0.01,0.046,0.02,0.092,0.03,0.138c-0.625-0.85-1.25-1.7-1.884-2.543c-5.526-7.007-11.355-13.776-16.705-20.925   c-10.206-13.281-20.787-26.267-31.301-39.306c-0.085-0.666-0.161-1.299-0.224-1.826c-1.006-6.66-0.101-11.104,0.98-17.934   c0.991-8.409,1.539-16.861,2.597-25.264c0.935-7.7,2.983-15.26,3.534-23.003c0.251-9.291,0.122-19.231-4.874-27.4   c-3.199-5.624-9.522-8.532-15.313-4.655c-4.117,2.62-8.052,5.75-10.335,10.164c-7.468,13.659-3.406,30.144,0.331,44.355   c2.454,9.649,5.694,19.054,9.317,28.315c-3.213-3.971-6.354-7.996-9.232-12.222c-6.439-9.227-11.454-16.849-15.992-26.196   c-4.017-8.575-7.5-17.398-10.636-26.344c-0.076-2.754-0.14-5.509-0.201-8.264c0.107-7.086,0.096-15.901,0.377-21.729   c0.411-3.695,1.151-7.347,1.636-11.033c0.848-6.337,2.176-12.633,2.229-19.048c-0.132-10.851-1.142-31.81-15.756-31.856   c-7.991,0.444-12.572,7.687-15.588,14.272c-3.773,8.172-6.579,16.942-6.63,26.017c-0.257,12.226,5.325,23.454,11.613,33.601   c5.249,8.423,11.068,16.488,17.107,24.366c2.047,8.393,4.577,16.687,8.154,24.559c5.515,11.586,13.028,22.128,20.795,32.316   c-5.028-4.655-10.196-9.156-15.533-13.46c-4.507-3.653-9.156-7.14-14.027-10.295c-4.343-2.816-8.791-5.673-13.835-7.041   c-15.308-3.505-22.271,1.475-20.463,17.596c2.048,13.779,14.643,24.041,27.72,27.048c8.701,1.5,17.481,2.705,26.244,3.785   c7.201,0.334,14.468,0.656,21.376,2.916c2.594,1.062,5.225,2.058,7.802,3.169c11.376,13.923,22.698,27.891,33.71,42.104   c3.533,4.638,7.405,9.008,11.063,13.545c-1.027-0.651-2.061-1.293-3.096-1.928c-5.037-7.751-12.138-13.706-19.584-19.062   c-6.337-4.583-13.038-8.696-20.29-11.669c-6.222-2.789-12.797-5.369-19.747-4.368c-3.671,0.489-7.504,1.079-10.672,3.12   c-4.564,3.075-6.922,8.738-7.035,14.124c-0.519,9.092,3.616,17.994,12.591,21.144c8.969,2.564,17.935,1.366,27.721,1.67   c11.089-0.789,22.531-0.062,34.066,2.776c8.258,1.265,13.945,7.672,19.631,13.204c-3.462-4.326-6.476-9.235-11.264-12.242   c-3.486-2.143-7.576-3.071-11.483-4.165c-4.733-1.183-9.539-2.083-14.4-2.526c-7.727-0.729-15.502-0.058-23.25-0.468   c-6.142-0.012-11.246-0.013-15.826-1.188c-7.331-2.494-11.202-9.177-11.407-17.894c-0.535-5.276,2.846-12.243,5.445-13.315   c2.285-0.988,6.574-1.534,9.877-1.165c3.469,0.392,6.316,1.719,9.678,2.871c10.222,3.51,19.738,8.733,28.753,14.646   c6.371,4.043,12.247,8.728,17.154,14.48c-1.5-0.919-3-1.831-4.477-2.76c-8.04-4.753-16.377-8.985-24.88-12.843   c7.737,5.127,15.472,10.288,23.57,14.835c3.807,2.215,7.791,4.147,11.673,6.243c0.133,0.176,0.275,0.344,0.407,0.521   c6.47,8.461,13.17,18.746,17.502,26.552c9.319,16.088,15.544,33.637,20.416,51.515c-8.257-10.059-16.897-19.796-25.551-29.515   c-7.162-8.426-15.598-16.18-26.337-19.603c-7.834-2.8-16.493-2.155-24.501-0.465c-7.254,2.155-11.424,9.815-13.387,16.661   c-1.824,5.977-0.205,10.275,4.337,14.402c5.682,5.116,16.416,6.854,22.051,8.487c9.57,3.259,19.395,5.581,29.386,7.109   c7.607,1.701,15.711,2.562,22.442,6.786c3.339,2.327,6.335,5.104,9.3,7.88c2.018,1.943,4.096,4.021,6.871,4.704   c4.018,14.955,7.363,30.082,9.792,45.389c0.563,3.487,1.049,6.985,1.498,10.488c-0.446,3.919-0.871,7.841-1.289,11.763   c-5.663-7.325-12.13-14.02-19.092-20.144c-8.147-6.691-16.719-13.985-27.258-16.309c-5.178-0.992-10.469-0.738-15.711-0.793   c-5.282-0.124-10.793,0.146-15.532,2.724c-8.016,4.945-22.211,13.355-23.164,23.5c-1.084,6.226,4.629,10.478,9.429,13.19   c2.974,1.517,6.239,2.305,9.422,3.267c3.335,1.045,6.634,2.283,10.099,2.826c5.875,0.834,11.834,0.713,17.754,0.846   c11.256,0.349,26.29-0.498,35.603-1.221c5.889-0.226,11.781-0.465,17.674-0.566c-0.694,6.63-1.378,13.262-2.096,19.89   c-1.383,8.659-2.784,17.315-4.157,25.975c-1.824,11.207-3.538,22.435-5.23,33.667c-1.84-0.533-3.684-1.048-5.534-1.545   c-9.977-8.81-21.855-15.266-33.799-21.048c-11.563-5.588-25.437-10.655-37.976-5.264c-9.352,4.451-21.076,10.891-20.862,22.728   c-0.115,3.676,2.111,6.936,4.478,9.561c4.075,4.507,9.945,6.635,15.679,8.143c5.803,1.661,11.888,1.741,17.872,2.116   c4.23,0.29,8.473,0.465,12.713,0.335c10.633-0.21,20.967-2.939,31.271-5.308c5.043-1.252,10.11-2.378,15.202-3.401   c-2.911,19.438-5.777,38.885-8.931,58.28c-3.278-3.773-7.749-6.5-12.022-9.099c-8.672-5.109-18.348-8.492-28.439-9.064   c-11.853-1.065-23.986,0.034-35.365,3.57c-7.9,2.513-21.353,9.477-23.565,17.981c-0.631,2.543-0.06,5.181,2.053,6.862   c10.606,8.667,32.333,5.939,45.389,5.07c9.076-0.448,18.124-1.238,27.067-2.9c6.307-1.075,12.546-2.529,18.833-3.714   c1.63-0.275,3.232-0.673,4.813-1.145c-2.239,13.396-4.641,26.762-7.327,40.076c-3.742,17.66-7.988,35.193-12.697,52.62   c-0.291,1.176-0.575,2.353-0.865,3.529c-0.546,0.947-0.737,1.805-0.617,2.519c-3.636,14.841-7.17,29.707-10.786,44.552   c-3.527,13.821-7.225,27.602-10.965,41.371c-0.806-1.934-1.627-3.861-2.484-5.772c-0.861-8.279-1.597-16.585-2.966-24.797   c-2.012-9.054-4.45-18.034-7.445-26.815c-4.275-12.087-14.894-36.439-28.973-38.318c-3.804-0.538-8.239-0.032-11.041,2.832   c-7.077,10.289-1.484,23.785,3.88,33.626c4.016,7.525,9.979,13.628,15.17,20.301c7.085,9.055,13.063,18.88,19.884,28.125   c1.772,2.413,3.828,4.64,5.726,6.971c1.191,3.298,2.299,6.625,3.412,9.951c0.753,1.757,1.072,3.588,1.897,4.706   c-1.587,5.813-3.176,11.625-4.76,17.437c-12.802,38.863-25.01,77.928-35.405,117.512c9.124-22.584,17.899-45.317,25.626-68.42   c5.653-16.916,11.013-33.927,16.54-50.884c1.089-3.955,2.166-7.913,3.243-11.87c9.62-1.42,19.288-2.717,28.637-5.474   c12.504-3.75,24.156-9.805,35.712-15.782c6.59-4.046,13.148-8.151,19.631-12.367c4.527-2.929,8.147-7.03,11.261-11.389   c4.773-6.223,8.486-13.451,9.28-21.346c0.461-4.848-0.393-10.883-4.685-13.828c-5.304-2.443-12.104-1.04-17.519,0.508   c-27.087,8.48-44.728,21.893-62.973,43.28c-3.354,3.734-6.545,7.613-9.828,11.411c-1.354,1.453-2.693,2.931-3.997,4.441   c6.926-26.006,13.577-52.081,19.766-78.276c3.257-1.052,7.555-2.884,12.003-5.274c3.662-1.99,7.09-4.401,10.927-6.064   c2.838-1.406,9.34-3.654,14.332-4.894c17.224-4.891,38.436-7.725,48.398-24.494c5.192-9.592-0.58-22.198-10.38-26.099   c-4.433-1.583-9.229-0.747-13.552,0.789c-4.178,1.299-8.35,2.775-12.111,5.046c-11.313,7.167-20.588,17.135-29.468,27.053   c-4.773,5.589-9.539,11.185-14.312,16.774c5.995-13.877,12.019-27.741,18.676-41.316c5.147-10.465,9.543-21.29,14.734-31.725   c2.026-3.962,4.09-7.909,6.169-11.85c0.019-0.007,0.036-0.016,0.054-0.023c2.881-0.478,5.635-1.52,8.491-2.126   c0.245-0.03,0.653-0.081,0.998-0.111c2.04-0.051,4.078,0.063,6.117,0.129c5.564,0.179,14.087-1.319,17.273-1.397   c11.907,0.198,23.644-1.822,35.286-4.104c7.132-1.553,9.758-1.451,17.033-2.873c3.589-0.934,6.907-2.624,10.177-4.336   c2.758-1.386,5.569-2.694,8.117-4.452c12.028-7.933,10.541-22.494-1.679-29.365c-14.388-8.33-40.448,0.702-54.593,7.253   c-14.146,6.727-25.438,17.705-36.116,29.003c-2.195,1.263-4.383,2.538-6.564,3.825c10.678-19.794,22.048-39.332,34.145-58.672   c3.615-0.816,7.211-1.712,10.799-2.638c5.798-1.668,9.225-2.585,13.884-3.137c9.831-1.115,14.778-0.672,26.47-1.569   c16.501-3.305,34.195-6.349,47.771-16.98c2.412-2.207,4.995-4.664,5.766-7.957c0.578-3.299-0.661-6.99-3.857-8.448   c-4.452-1.74-9.327-2.238-14.061-2.665c-8.152-0.804-16.389,0.027-24.199,2.507c-13.633,3.935-26.499,10.193-38.371,17.926   c-6.097,3.914-12.127,8.014-17.684,12.673c3.644-5.679,7.335-11.346,11.112-16.992c5.517-7.445,11.034-14.89,16.551-22.334   c4.275-1.69,6.073-2.237,10.242-3.266c6.166-1.466,10.976-1.929,18.268-2.933c3.697-0.636,7.386-1.359,11.076-2.029   c4.033-0.707,8.03-1.596,12.031-2.46c17.23-2.528,35.645-6.104,48.593-18.644c3.102-2.904,6.401-6.72,5.548-11.279   c-1.7-5.854-13.317-4.62-15.867-4.422c-14.07,0.39-27.923,3.711-40.988,8.855c-14.535,5.734-27.61,14.561-39.39,24.834   c6.245-7.407,12.484-14.82,18.68-22.268c10.001-12.288,19.343-25.102,28.867-37.769c0.556-0.169,1.029-0.364,1.315-0.548   c2.895-2.166,2.325-2.424,6.122-3.734c8.632-3.132,21.344-6.22,33.316-9.049c3.359-0.733,6.719-1.463,10.077-2.2   c6.941-1.18,13.982-1.894,20.754-3.897c6.693-1.842,12.673-5.464,18.536-9.077c7.452-4.46,15.383-9.176,20.413-16.437   c3.802-6.496,3.168-10.655-4.726-12.556c-1.554-0.534-6.194-2.048-9.036-2.304c-3.197-0.395-6.431-0.196-9.623,0.15   c-5.575,0.664-11.145,1.608-16.484,3.382c-4.098,1.333-7.895,3.414-11.784,5.242c-8.022,3.615-15.386,8.403-22.069,14.115   c-8.086,6.476-16.134,13.047-23.758,20.07c4.766-6.014,9.471-12.079,14.488-17.883c9.201-10.573,18.714-20.916,26.893-32.324   c2.759-3.935,5.406-7.965,7.867-12.103c6.612-2.103,14.019-1.522,20.779-2.637c17.112-3.813,36.277-5.162,50.031-17.161   c3.023-2.764,6.351-5.635,7.672-9.642c0.774-3.271,0.814-7.233-1.284-10.027c-2.345-2.208-5.667-2.884-8.747-3.402   c-3.987-0.696-8.005-1.512-12.072-1.372c-7.097,0.162-14.25,1.975-20.083,6.134c-10.443,7.106-19.687,15.728-29.048,24.184   c1.272-2.87,2.433-5.79,3.443-8.772C2698.828,468.168,2702.326,454.743,2705.628,441.271z M2707.216,434.716   c13.657-10.188,26.059-22.031,37.011-35.076c-13.403,11.137-25.152,22.41-36.887,34.562c0.757-3.13,1.517-6.259,2.272-9.388   c4.789-7.31,10.219-14.191,15.968-20.785c7.568-9.055,16.042-14.941,26.336-20.379c3.899-1.97,4.626-2.642,9.358,1.955   c3.3,3.807,0.146,10.53-2.83,14.903c-2.209,3.513-4.255,6.78-7.141,8.916c-6.459,4.828-10.679,7.882-16.782,11.497   c-9.118,4.863-17.46,11.042-25.669,17.284c-1.136,0.796-2.17,1.7-3.13,2.685C2706.225,438.833,2706.718,436.774,2707.216,434.716z    M2680.124,425.526c-6.339-2.739-12.73-5.427-18.485-9.297c0.728,0.623-2.209-1.641-2.756-2.236   c-0.526-0.337-1.979-2.228-2.334-2.693c-0.982-1.66-1.205-3.621-1.448-5.5c-1.415-8.433,1.468-16.858,5.11-19.405   c0.201,0.055,0.49,0.136,1.019,0.249c8.875,2.845,17.046,9.995,24.75,17.451c5.075,5.006,9.893,10.329,13.963,16.191   c0.602,1.067,1.124,2.174,1.623,3.292c-0.657,2.652-1.301,5.31-1.947,7.966c-9.592-7.995-19.955-15.008-30.949-20.936   c9.45,8.241,19.97,15.093,30.875,21.237c-0.24,0.99-0.485,1.979-0.726,2.969C2692.588,431.725,2686.6,428.117,2680.124,425.526z    M2527.872,486.589c4.297-5.2,8.419-9.198,13.264-13.66c4.685-4.32,9.208-8.824,14.109-12.903   c5.834-4.682,10.168-7.826,16.292-11.176c2.898-1.708,11.357-4.699,13.542-5.576c0.004-0.001,0.005-0.001,0.009-0.002   c0.08-0.01,0.161-0.02,0.242-0.028c-0.056,0.004-0.097,0.007-0.121,0.006c0.068-0.013,0.118-0.023,0.14-0.028   c0.051-0.003,0.109-0.003,0.175-0.001l0.002,0.001c0.001,0,0.002,0,0.003,0c0.004,0,0.008,0,0.011,0   c-0.003,0-0.006,0.001-0.009,0.001c0.137,0.021,0.272,0.056,0.408,0.086c0.391,0.153,1.087,0.432,1.373,0.637   c0.176,0.121,0.315,0.207,0.402,0.255c0.063,0.047,0.13,0.09,0.192,0.139c1.433,1.169,1.229,1.346,1.582,3.661   c0.341,12.074-15.574,18.875-26.526,28.318c-5.46,4.62-12.718,10.897-17.348,13.753c-7.541,4.441-13.948,6.798-20.73,10.443   c3.067-3.102,6.127-6.21,9.159-9.346c3.046-3.425,5.87-7.077,9.545-9.872c1.696-1.417,3.411-2.811,5.118-4.214   c-1.452,0.998-2.904,1.996-4.354,2.997c-4.797,3.039-8.801,7.017-12.808,10.996c-6.016,5.325-11.927,10.767-18.094,15.915   C2517.754,499.852,2522.488,492.961,2527.872,486.589z M2532.992,306.596c8.909-21.673,23.563-44.263,41.969-57.275   c5.665-3.9,13.961-6.578,18.567-8.4c0.143-0.02,0.249-0.041,0.324-0.059c0.053-0.006,0.107-0.012,0.161-0.017   c2.531,0.091,5.18,0.338,6.394,0.612c2.179,0.658,1.98,2.514,1.541,5.728c-0.605,4.169-1.105,6.883-3.208,9.324   c-6.13,7.838-11.864,16.01-19.078,22.928c-2.078,2.122-6.48,6.276-9.794,9.509c-3.08,3.237-9.046,9.483-10.532,10.992   c-4.715,4.472-9.545,8.811-14.7,12.775c-3.19,2.582-6.696,4.819-9.607,7.72c-1.515,1.699-2.696,3.661-3.95,5.553   c-0.768,1.177-1.544,2.352-2.317,3.531c2.97-6.57,6.147-13.043,9.739-19.291c5.159-8.905,11.61-16.975,16.434-26.08   c0.669-1.171,1.353-2.335,2.021-3.507c-0.844,1.072-1.686,2.145-2.524,3.222c-5.866,8.228-12.797,15.642-18.307,24.125   c-6.088,9.354-9.971,19.929-12.908,30.693c-0.991,1.879-1.897,3.8-2.643,5.795c0-0.007,0-0.013,0-0.02   C2523.58,331.491,2527.677,318.809,2532.992,306.596z M2498.235,111.137c0.115,1.029,0.208,2.06,0.318,3.089   c-1.666-6.261-3.386-12.514-4.417-18.906c-0.473-2.882-1.427-8.722-1.301-10.17c0.534-6.64,2.429-12.679,6.188-16.885   c0.007-0.007,0.01-0.009,0.018-0.017c0.027-0.024,0.057-0.044,0.084-0.068c0.068,0.059,0.137,0.124,0.196,0.197   c1.998,2.17,3.125,7.48,3.173,11.628c0.522,5.74,0.057,9.682,0.065,15.43c0.263,5.599-0.352,9.916-0.473,15.641   c-0.296,5.326,0.029,10.646,0.015,15.971C2500.924,121.72,2499.645,116.414,2498.235,111.137z M2501.348,234.409   c-3.042-4.867-7.824-8.038-12.84-10.585c-4.118-2.342-6.758-4.205-10.129-6.504c-6.878-4.949-13.307-10.509-19.854-15.884   c-10.525-8.28-13.417-18.926-6.137-28.851c0.073-0.057,0.162-0.127,0.217-0.173c0.102-0.061,0.207-0.116,0.312-0.171   c-0.092,0.039-0.017-0.019,0.158-0.087c0.015-0.008,0.03-0.017,0.045-0.025c0,0,0.001,0,0.002-0.001   c-0.017,0.01-0.028,0.015-0.043,0.024c0.048-0.019,0.098-0.037,0.159-0.054c0.177-0.024,0.314-0.055,0.393-0.081   c0.766-0.084,0.452-0.149,1.886,0.335c8.122,4.221,14.462,7.058,20.68,13.286c3.111,3.055,5.616,6.643,8.265,10.088   c3.426,4.37,7.013,8.669,9.542,13.646c2.652,4.96,4.9,10.116,7.385,15.159c2.577,5.335,5.235,10.629,7.598,16.061   c0.224,3.06,0.439,6.121,0.648,9.182C2507.392,244.397,2504.664,239.201,2501.348,234.409z M2513.69,210.703   c1.659-7.518,3.761-14.935,5.585-22.419c1.577-7.226,3.973-14.046,6.96-20.801c1.837-4.342,3.387-8.848,5.772-12.931   c4.085-6.805,9.314-12.811,14.141-19.084c3.527-4.432,6.979-8.1,11.45-10.67c0.111,0.11,0.226,0.242,0.389,0.45   c0.72,0.738,1.355,6.565,1.099,7.558c-0.543,4.039-2.773,7.617-4.642,11.166c-2.256,3.784-5.38,10.173-7.578,15.05   c-2.631,6.177-6.718,11.441-10.987,17.834c-2.788,4.214-5.068,8.75-7.896,12.936c-1.391,2.011-3.006,3.854-4.631,5.688   c1.252-2.692,2.474-5.397,3.483-8.187c2.56-9.072,4.49-18.324,7.445-27.287c-4.78,8.731-8.208,18.094-11.067,27.606   c-1.758,4.827-3.813,9.549-5.339,14.46c-0.021,0.095-0.043,0.199-0.064,0.296c-0.553,0.842-1.078,1.705-1.531,2.621   c-1.085,2.78-1.506,5.763-2.301,8.639C2513.886,212.652,2513.783,211.678,2513.69,210.703z M2501.606,357.488   c-5.291-5.355-10.385-10.897-15.527-16.395c-7.648-9.453-16.237-18.25-22.313-28.862c-3.234-4.565-5.012-9.052-6.165-15.257   c-1.038-6.21-1.26-12.424,1.792-16.394c0.208-0.233,0.306-0.358,0.373-0.445c10.189,1.259,24.422,20.117,31.26,30.734   c10.462,16.296,16.437,37.25,22.344,57.098c-0.013,1.387-0.027,2.779-0.041,4.173   C2510.521,366.505,2505.938,361.986,2501.606,357.488z M2437.664,438.169c-7.159-12.548-11.861-26.403-13.823-40.716   c-1.357-10.53-2.803-23.604,2.495-31.442c8.748,7.871,10.673,30.171,11.458,43.501c0.115,7.114,0.531,14.224,1.223,21.306   c-1.023-3.125-1.951-6.064-2.71-8.631c0.753,6.53,1.992,12.986,3.314,19.425C2438.969,440.461,2438.326,439.305,2437.664,438.169z    M2335.289,285.62c-1.867-6.62-3.525-13.299-4.659-20.087c0.007,1.744-0.009,3.489,0.001,5.233   c0.244,12.314,2.003,24.57,4.782,36.559c0.136,0.603,0.281,1.204,0.421,1.806c-4.423-7.862-8.77-15.83-12.701-23.965   c-6.632-13.139-10.682-27.564-7.43-41.182c1.13-6,3.36-11.752,5.881-17.294c1.731-3.329,3.343-6.928,6.476-9.338   c0.079-0.049,0.162-0.089,0.242-0.136c6.152,1.647,8.998,11.93,9.845,20.559c1.367,11.584-0.826,21.576-1.68,33.636   c-0.711,5.298-0.001,10.623,0.313,15.924c0.145,1.552,0.296,3.104,0.455,4.655C2336.573,289.87,2335.923,287.747,2335.289,285.62z    M2378.117,387.345c-3.424-1.212-6.937-2.23-10.54-2.74c-2.662-0.411-5.353-0.583-8.032-0.846   c-5.219-0.542-10.338-1.787-15.52-2.595c-3.852-0.722-8.984-1.332-12.136-2.27c-13.492-4.271-25.042-15.353-24.318-30.738   c-0.013-1.401,0.93-6.832,2.754-8.247c0.004,0,0.008-0.001,0.012-0.001c-0.121,0.117-0.118,0.118,0.011-0.001   c2.125-0.102,6.618,0.089,9.119,1.01c7.456,2.626,14.128,7.068,20.802,11.225c9.608,6.321,18.936,13.055,28.049,20.069   c1.698,2.079,3.399,4.156,5.098,6.234c-9.275-5.791-19.792-11.094-29.11-15.705c10.317,7.824,21.597,14.161,32.931,20.377   c1.716,2.097,3.43,4.196,5.146,6.293C2380.983,388.671,2379.569,387.961,2378.117,387.345z M2390.512,326.255   c-1.802,9.327-3.376,18.697-4.238,28.162c-0.31,3.61-0.689,7.212-1.104,10.81c-1.38-7.527-2.229-15.214-2.818-22.724   c-0.066-1.18-0.134-2.359-0.202-3.539c-0.037,0.517-0.076,1.034-0.112,1.551c-0.637,11.151-0.685,22.428,1.025,33.49   c0.194,1.016,0.401,2.081,0.615,3.164c-0.008,0.137-0.012,0.273-0.019,0.41c-1.364-1.674-2.736-3.341-4.104-5.013   c-2.312-9.383-4.529-18.793-6.004-28.349c-2.39-14.067-5.06-27.529-1.524-40.798c1.54-6.073,5.356-10.921,9.908-13.87   c2.777,1.457,4.892,4.58,6.246,7.789c2.104,4.927,2.909,10.278,3.025,15.605C2391.411,318.185,2391.445,321.086,2390.512,326.255z    M2393.071,908.899c4.642,12.221,9.537,24.346,14.051,36.615c-4.883-8.87-9.134-18.092-14.743-26.542   c-3.575-6.178-8.599-11.339-12.253-17.461c-6.365-9.929-13.138-25.199-8.022-35.197c0.01-0.019,0.024-0.036,0.035-0.055   c13.675,3.237,28.012,39.289,34.329,55.806c3.696,9.019,5.873,18.548,8.616,27.888   C2408.611,935.843,2400.888,922.306,2393.071,908.899z M2423.116,965.401c0.145-0.512,1.816-3.082,2.969-4.796   c5.737-8.269,13.054-15.252,19.466-22.979c13.96-16.068,29.926-30.533,48.312-37.3c4.693-1.768,9.587-3.747,12.684-4.5   c1.733-0.504,4.398-0.55,5.575-0.424c0.209,0.035,0.413,0.094,0.619,0.144c0.193,0.084,0.39,0.178,0.537,0.248   c3.06,2.477,3.707,8.656,3.217,11.921c-1.331,8.451-3.956,13.233-8.711,19.574c-2.844,3.821-4.62,5.944-7.016,7.891   c-5.038,3.852-11.782,7.565-18.188,11.803c-9.323,5.708-19.09,10.682-28.987,15.32c-9.207,4.167-21.147,6.749-32.659,9.426   c0.237-0.873,0.478-1.745,0.715-2.618c8.305-5.209,18.309-11.748,23.746-15.524c13-8.401,24.191-15.669,37.012-25.086   c-12.052,6.751-24.895,13.556-36.565,21.398c-8.322,5.553-16.131,11.836-23.903,18.138c0.034-0.125,0.067-0.251,0.101-0.376   C2422.52,967.003,2422.861,966.216,2423.116,965.401z M2505.892,761.419c6.037-3.888,11.098-5.843,17.651-8.899   c2.788-1.364,5.963-3.166,8.545-4.364c4.335-1.935,8.841-3.462,13.376-4.851c2.641-0.823,5.353-1.385,8.034-2.054   c-1.645,0.264-3.296,0.486-4.94,0.757c-9.792,1.602-19.147,4.903-28.105,9.104c-4.576,1.799-9.209,3.491-13.625,5.655   c12.521-10.657,25.411-20.929,39.628-26.133c8.037-3.063,15.532-5.264,22.672-6.319c4.867-0.682,7.51-1.006,10.963-0.399   c4.875,1.028,9.026,2.874,12.983,8.442c1.757,2.933,3.49,9.005,0.598,13.303c-0.505,0.925-2.545,3.798-4.855,5.14   c-2.054,1.266-11.135,5.835-12.773,6.256c0.193,0.145-4.443,0.65-7.304,1.014c-4.435,0.789-8.865,1.6-13.298,2.399   c-11.242,2.176-19.632,2.827-30.428,2.858c-3.227,0.334-11.121,1.201-11.729,1.145c-3.439,0.104-6.878-0.305-10.317-0.026   c-0.682,0.045-1.36,0.128-2.034,0.233C2502.993,763.336,2504.875,762.162,2505.892,761.419z M2504.78,591.559   c8.198-16.314,18.895-32.537,31.982-44.03c9.137-7.616,17.332-13.144,27.795-18.26c5.753-2.409,12.159-4.647,20.064-0.701   c4.491,1.908,6.117,1.799,6.811,6.206c0.134,3.645-2.5,8.454-4.727,11.978c-7.928,11.926-18.196,18.17-30.599,25.335   c-8.984,4.984-18.015,9.885-27.125,14.635c-4.443,2.334-9.052,4.361-13.099,7.376c-2.972,2.212-6.044,4.32-9.054,6.502   c5.476-9.168,11.847-17.952,19.249-25.683c1.528-1.652,3.052-3.307,4.574-4.964c-0.627,0.553-1.255,1.106-1.882,1.659   c-8.412,7.201-16.434,14.898-23.028,23.834c-3.011,3.911-5.949,7.917-8.579,12.104   C2499.386,602.093,2502.299,596.854,2504.78,591.559z M2508.694,462.987c-0.622-1.999-1.439-3.937-2.448-5.746   c-1.539-3.176-3.527-6.075-5.644-8.882c-0.069-0.259-0.134-0.519-0.21-0.776c2.367,3.733,4.88,7.387,7.596,10.88   C2508.239,459.968,2508.478,461.475,2508.694,462.987z M2450.546,370.342c0.023,0.006,0.048,0.011,0.07,0.017   c3.376,0.914,4.238,1.101,8.484,2.773c4.185,1.946,5.363,3.017,9.092,5.996c10.444,8.086,15.406,18.639,21.183,29.21   c1.985,3.898,3.644,7.951,5.598,11.864c3.202,5.751,5.887,11.76,8.045,17.98c1.937,5.593,3.336,11.34,4.419,17.156   c-1.413-2.854-2.776-5.733-4.133-8.611c-2.083-5.376-4.132-10.79-7.025-15.8c-5.514-9.181-13.613-16.525-19.023-25.796   c3.251,10.277,10.188,18.68,15.409,27.946c1.323,2.352,2.579,4.739,3.827,7.131c-1.025-0.933-2.21-1.594-3.501-1.987   c-0.582-0.782-1.152-1.573-1.755-2.34c-7.188-8.667-15.641-16.186-22.504-25.133c-4.365-6.279-10.463-11.083-14.934-17.28   C2448.475,386.435,2445.466,375.718,2450.546,370.342z M2466.587,492.983c-2.728-6.171-5.76-12.208-9.079-18.079   c-2.779-4.964-5.766-9.803-8.914-14.537c0.193-0.234,0.337-0.495,0.362-0.807c-0.303-2.461-0.643-4.918-0.862-7.388   c-0.748-8.225-1.666-16.434-2.326-24.668c-1.053-11.534-0.914-26.16-3.228-39.47c3.177,7.623,9.449,13.836,15.132,19.708   c6.49,8.307,13.431,16.243,21.472,23.108c2.478,2.343,4.827,4.803,7.133,7.303c-1.258,0.295-2.499,0.738-3.669,1.318   c-7.551,4.39-11.915,12.76-14.456,20.853C2464.587,470.873,2465.017,482.095,2466.587,492.983z M2469.779,541.614   c-2.606-3.13-5.186-6.338-8.32-8.965c-6.845-5.164-15.653-6.467-23.76-8.588c-5.296-1.075-10.522-2.421-15.739-3.825   c-3.461-1.159-6.912-2.339-10.39-3.446c-6.365-1.696-14.942-3.759-18.989-6.559c-5.668-4.401-7.275-8.628-5.017-15.161   c1.556-4.778,3.591-8.324,7.14-11.457c0.062-0.046,0.125-0.089,0.188-0.134c-0.015-0.002,0.033-0.038,0.12-0.085   c0.026-0.018,0.052-0.038,0.079-0.056c0.005-0.002,0.006-0.002,0.014-0.005c-0.016,0.014-0.028,0.023-0.042,0.035   c0.028-0.014,0.039-0.023,0.075-0.039c0.027-0.015,0.054-0.028,0.081-0.042c0.141-0.041,0.224-0.068,0.256-0.081   c2.74-0.554,9.407-1.133,12.373-0.753c4.814,0.603,8.736,2.258,13.252,4.386c7.127,3.455,12.915,8.938,18.556,14.489   c10.339,10.138,20.924,20.019,31.258,30.16c0.111,0.413,0.225,0.826,0.334,1.239c0.879,2.959,1.721,5.928,2.548,8.902   c-2.493-3.578-5.067-7.093-8.273-10.084c-12.172-11.833-26.568-21.065-41.031-29.824c9.035,7.718,18.136,15.364,27.396,22.812   c4.84,3.886,9.807,7.626,14.43,11.773c2.92,2.66,5.521,5.639,8.331,8.413c0.145,0.531,0.296,1.061,0.439,1.593   C2472.802,545.469,2471.24,543.518,2469.779,541.614z M2479.345,515.739c-0.266-2.667-0.485-5.339-0.615-8.017   c-0.312-10.293,1.355-20.49,2.948-30.622c0.201-1.363,0.4-2.728,0.597-4.091c-0.318,1.099-0.636,2.198-0.952,3.298   c-3.339,11.312-6.642,22.815-6.903,34.689c-0.022,1.016-0.028,2.031-0.021,3.045c-0.495-1.627-0.994-3.253-1.512-4.873   c-0.559-6.335-0.985-12.68-1.222-19.036c-0.159-6.46-0.183-11.278,0.489-17.141c1.177-8.561,4.544-18.417,8.231-24.188   c1.642-2.886,5.017-6.189,6.092-6.905c0.178-0.067,0.278-0.124,0.339-0.167c0.949-0.06,1.126-0.184,3.196,1.721   c5.995,8.111,4.555,20.62,1.97,31.018c-2.503,12.336-7.064,24.076-10.94,36.014   C2480.427,512.127,2479.862,513.899,2479.345,515.739z M2483.488,546.192c-0.402-1.419-0.79-2.843-1.185-4.264   c0.592-0.542,0.657-1.395,0.722-2.169c0.153-1.962,0.108-1.652,0.194-2.998c0.279-4.429,0.82-8.843,1.554-13.22   c1.444-7.863,4.229-15.405,6.745-22.972c3.017-8.647,5.848-17.367,7.726-26.342c1.434-6.091,2.689-12.615,2.396-18.959   c2.767,3.524,5.179,7.344,6.594,11.483c-1.482,11.669-3.542,23.255-6.124,34.747c-1.796,9.348-3.513,18.711-5.235,28.073   c-0.274,0.586-0.554,1.187-0.841,1.811c-0.184,0.353-0.367,0.727-0.553,1.122c-0.009,0.018-0.018,0.035-0.026,0.053h0   c-0.083,0.625,0.195,1.014,0.64,1.251c-0.648,3.519-1.299,7.037-1.957,10.554c-2.317,11.255-3.63,22.661-4.928,34.07   C2488.114,567.552,2486.359,556.729,2483.488,546.192z M2465.463,619.961c-15.481,0.012-33.341-0.308-47.123-1.765   c-4.175-0.83-4.426-1.14-8.491-2.402c-3.628-1.008-8.876-2.672-10.588-3.934c-4.827-3.113-7.515-6.543-6.567-10.605   c1.154-6.158,4.474-7.996,9.073-12.281c3.384-2.664,5.191-3.752,8.212-5.738c-0.039,0.026-0.742,0.487-0.259,0.17   c1.662-1.038,2.631-1.658,3.345-1.927c0.226-0.062,0.453-0.124,0.681-0.176c0.119-0.018,0.205-0.033,0.275-0.046   c0.634-0.092,1.27-0.162,1.909-0.204c1.885-0.035,13.571-0.123,15.942,0.182c9.771,1.095,18.844,7.877,27.37,13.544   c9.07,6.526,17.75,13.616,25.626,21.528c-0.049,0.46-0.097,0.92-0.146,1.38c-18.403-9.124-38.901-13.209-58.975-17.006   c11.925,4.277,24.015,8.069,36.217,11.472c8.051,2.207,15.271,4.071,22.663,6.433c-0.077,0.724-0.154,1.449-0.23,2.173   C2478.097,620.293,2471.779,620.02,2465.463,619.961z M2481.787,685.63c2.331-15.091,4.762-30.167,7.209-45.24   c0.427-4.184,0.884-8.365,1.331-12.547c1.047,0.133,2.302-0.047,2.966-0.202c2.145-0.523,3.111-1.282,3.638-2.416   c0.03-0.003,0.06-0.007,0.09-0.01c0.135-0.408,0.283-0.812,0.412-1.222c0.6-3.028,2.807-9.578,3.329-10.011   c1.429-2.163,3.473-3.851,5.252-5.719c2.573-2.477,13.17-10.257,18.761-14.131c1.61-1.166,9.037-4.673,12.594-6.672   c6.909-3.736,13.849-7.428,20.699-11.275c-0.333,0.589-0.654,1.182-0.956,1.773c-4.506,9.522-4.842,20.555-3.439,30.841   c0.667,4.525,0.657,9.097,1.152,13.637c0.218,1.67,0.482,3.333,0.763,4.994c-0.84-0.445-1.782-0.765-2.735-0.981   c-6.044-1.423-12.22,0.381-17.983,2.189c-2.345,0.78-4.698,1.634-7.018,2.579c0.035-1.4,0.059-2.8-0.042-4.194   c-0.604-3.361-1.792-6.621-3.441-9.609c-1.559-2.615-3.114-5.582-5.973-6.96c-2.877-1.121-6.325-0.703-8.931,0.923   c-3.384,2.303-5.894,5.638-8.255,8.928c-2.019,2.528-2.411,5.848-2.573,8.977c-0.175,4.692,0.066,9.38,0.941,13.997   c0.383,2.436,1.382,4.719,1.797,7.151c0.218,1.203,0.387,2.417,0.593,3.622c-0.966,1.468-1.934,2.932-2.933,4.365   c-6.726,10.343-13.168,20.973-18.038,32.309C2481.26,689.024,2481.521,687.327,2481.787,685.63z M2512.449,617.428   c-0.097,7.171,0.744,14.26,1.908,21.315c-0.678,0.532-1.344,1.08-1.986,1.659c-3.502,3.409-6.289,7.422-8.985,11.495   c0.131-1.64,0.23-3.29,0.072-4.951c-0.636-7.395-0.393-14.933,0.924-22.244c0.363-2.131,1.39-3.822,2.735-5.477   c1.386-2.102,3.248-4.395,4.866-6.026c0.032-0.031,0.106-0.101,0.109-0.104c0.275-0.257,0.561-0.501,0.866-0.722   c0.01-0.007,0.006-0.004,0.013-0.01c0.062-0.034,0.14-0.076,0.2-0.11c0.006-0.002,0.008-0.003,0.014-0.006   c1.823-0.567,4.932,1.81,7.717,5.557c2.375,3.024,4.445,6.388,5.684,10.042c0.266,1.192,0.492,2.394,0.715,3.596   c-4.417,1.834-8.678,4.054-12.457,6.932C2515.381,631.33,2514.341,624.214,2512.449,617.428z M2479.104,702.938   c0.312,0.031,0.625,0.057,0.937,0.071c-0.302-0.091-0.604-0.18-0.906-0.271c0.026-0.167,0.052-0.335,0.078-0.502   c13.702-12.793,25.301-27.602,36.014-42.945c-13.182,12.881-24.595,27.346-35.852,41.895c0.336-2.173,0.671-4.346,1.008-6.518   c4.909-9.04,10.65-17.586,16.735-25.896c6.686-8.899,13.024-18.153,20.507-26.406c4.503-4.348,10.821-7.281,17.906-9.76   c3.778-1.175,8.683-2.797,11.315-1.988c6.573,0.925,1.031,11.8-2.802,18.071c-6.667,11.271-13.295,18.108-22.858,25.549   c-9.533,6.981-19.536,13.346-28.781,20.724c-4.457,3.838-9.6,6.981-13.787,11.116   C2478.78,705.032,2478.942,703.985,2479.104,702.938z M2452.103,709.755c-5.893,1.096-14.734,2.31-19.303,2.528   c-6.87,0.349-13.717-0.429-20.553-0.986c-7.475-0.238-17.101-2.671-21.92-5.755c-8.272-5.691-9.421-12.711-5.449-19.403   c3.265-4.751,6.758-6.252,12.041-9.389c5.272-3.464,14.241-2.239,24.425,1.311c15.092,5.692,30.299,11.832,43.82,20.707   c-1.514-0.39-3.032-0.767-4.558-1.116c-15.071-3.759-30.483-5.876-45.804-8.326c17.625,6.222,35.999,9.599,54.449,12.256   c0.671,0.483,1.344,0.964,2.006,1.463c-0.466-0.468-0.943-0.922-1.419-1.378c0.945,0.135,1.89,0.269,2.836,0.401   c-0.248,1.645-0.501,3.289-0.748,4.934C2465.286,707.666,2458.697,708.718,2452.103,709.755z M2460.717,765.852   c-4.07-1.016-8.031-2.459-12.156-3.256c-8.455-1.397-17.135-1.816-25.675-1.068c-1.127,0.107-2.254,0.22-3.382,0.31   c1.781,0.032,3.561-0.003,5.342,0.03c6.767,0.289,13.537,1.223,20.114,2.851c3.764,1.007,7.503,2.802,11.311,4.054   c1.405,0.494,2.595,0.763,3.663,1.052c-3.466,0.737-7.829,1.373-12.72,2.247c-9.997,1.883-21.271,3.643-34.365,4.197   c-12.746,1.175-29.502,2.282-37.456-2.553c-2.975-1.967-3.504-3.489-3.118-5.415c0.637-4.646,5.21-7.253,8.465-9.716   c6.313-3.802,9.118-4.516,16.964-6.182c7.839-1.632,20.998-2.284,30.929-0.726c6.718,1.06,12.943,3.356,19.214,6.03   c5.1,2.379,10.469,4.775,14.658,8.54C2461.867,766.117,2461.251,765.986,2460.717,765.852z M2498.735,816.081   c4.346-3.079,9.78-4.69,13.284-5.722c0.202-0.053,0.406-0.094,0.61-0.14c0.108-0.006,0.2-0.014,0.268-0.023   c0.088,0.001,0.177-0.001,0.265,0.002c0.099,0.005,0.32,0.018,0.468,0.027c0.258,0.05,0.632,0.121,0.772,0.142   c3.419,0.672,10.301,7.039,10.952,14.248c1.175,9.966-7.9,16.961-16.051,20.761c-2.398,1.381-11.106,3.677-17.952,5.453   c-8.709,2.321-17.612,4.163-25.875,7.867c-5.479,2.16-10.179,5.734-15.357,8.464c-0.234,0.135-0.463,0.258-0.691,0.38   c8.434-9.068,26.649-18.825,39.635-26.505c0.579-0.337,1.158-0.676,1.736-1.014c-0.595,0.284-1.191,0.568-1.786,0.852   c-13.851,6.753-28.298,13.348-39.545,21.067c0.201-0.466,0.403-0.932,0.604-1.397   C2466.292,845.263,2482.553,827.539,2498.735,816.081z M2512.615,722.652c-2.883,4.88-5.748,9.769-8.593,14.667   c-6.161,10.614-12.138,21.341-17.87,32.195c-0.124,0.182-0.223,0.366-0.289,0.55c-3.381,6.415-6.678,12.874-9.874,19.381   c-5.854,13.066-11.389,26.273-16.737,39.553c-2.697,7.576-5.25,15.2-7.679,22.863c4.042-15.882,7.712-31.853,11.168-47.878   c2.029-11.228,3.943-22.474,5.794-33.73c0.249-0.303,0.41-0.657,0.428-1.086c-0.007-0.225-0.06-0.431-0.146-0.618   c3.373-20.59,6.526-41.216,9.702-61.839c4.785-3.805,10.385-6.53,15.404-10.018c5.894-3.949,12.055-7.58,18.704-11.732   c0.001,9.538-0.168,19.102,1.02,28.578c0.372,2.444-0.271,4.848-1.022,7.141C2512.615,721.338,2512.621,721.996,2512.615,722.652z    M2519.854,710.549c-1.515,2.498-3.028,4.998-4.523,7.508c0.301-0.643,0.567-1.302,0.733-1.999   c1.431-10.523,0.007-21.357-2.489-31.691c0.779-0.489,1.559-0.979,2.352-1.485c1.81-1.037,3.602-2.111,5.372-3.22   c-0.471,5.325-0.971,10.648-1.169,15.992C2520.057,700.668,2520.001,705.623,2519.854,710.549z M2526.809,699.252   c-1.78,2.834-3.535,5.684-5.281,8.54c1.88-9.422,1.921-19.165,0.671-28.701c4.411-2.81,8.668-5.859,12.644-9.244   C2532.364,678.083,2529.507,689.14,2526.809,699.252z M2553.895,684.051c10.693-6.103,20.369-11.046,31.866-14.984   c3.93-1.425,11.562-3.561,14.58-4.071c4.802-1.015,11.074-0.569,15.185-0.21c2.934,0.313,5.838,0.88,8.698,1.6   c0.982,0.426,2.72,1.142,3.145,3.73c0.916,3.482-1.156,5.755-3.535,8.096c-4.468,4.027-8.367,5.373-13.932,7.755   c-7.639,3.061-16.792,4.652-26.318,6.632c-2.187,0.462-12.102,0.479-18.18,0.808c-8.295-0.048-16.323,1.676-24.279,3.754   c2.625-1.839,5.166-3.601,7.491-5.002c11.437-6.839,23.382-11.743,36.137-15.957c1.074-0.361,2.15-0.723,3.224-1.085   c-0.953,0.236-1.906,0.471-2.86,0.707c-17.238,4.151-34.247,10.161-49.196,19.845c-0.182,0.109-0.364,0.219-0.547,0.329   c0.09-0.141,0.182-0.282,0.272-0.423C2541.464,691.339,2547.637,687.593,2553.895,684.051z M2554.658,658.798   c0.223-0.517,0.438-1.036,0.653-1.557c0.137,0.046,0.274,0.091,0.428,0.12C2555.376,657.837,2555.017,658.318,2554.658,658.798z    M2557.782,651.005c-0.061,0.716-0.123,1.434-0.194,2.151c-0.273,0.151-0.554,0.307-0.858,0.482   c0.379-1.017,0.741-2.041,1.092-3.069C2557.809,650.714,2557.796,650.86,2557.782,651.005z M2549.538,665.7   c-6.627,8.937-12.872,18.139-18.884,27.495c2.597-7.561,4.158-15.447,4.302-23.444c2.575-2.199,5.045-4.522,7.345-7.03   c4.503-4.672,7.814-10.298,11.119-15.84c1.37-2.674,2.998-5.381,4.071-8.233c0.111,0.747,0.238,1.491,0.333,2.24   c0.237,1.634,0.31,3.274,0.287,4.914C2555.087,652.363,2552.329,659.038,2549.538,665.7z M2561.825,649.72   c-0.255,0.309-0.508,0.62-0.762,0.93c0.769-1.869,1.492-3.758,2.163-5.667C2562.781,646.568,2562.318,648.148,2561.825,649.72z    M2583.88,637.935c10.199-7.087,20.477-12.975,31.782-17.032c12.275-4.594,25.298-7.474,37.705-7.667   c2.63-0.26,4.994-0.217,6.602,0.331c1.782,0.766,1.652,0.442,2.497,1.514c0.102,0.341,0.388,1.188,0.313,1.475   c0.006,0.099,0.001,0.197,0.002,0.296c0.022-0.05,0.042,0.04,0.002,0.282c0,0.027,0.002,0.054,0.001,0.081   c-0.004-0.025-0.001-0.034-0.004-0.056c-0.005,0.026-0.002,0.035-0.009,0.064c-0.503,2.642-0.593,2.525-1.806,4.283   c-9.84,12.174-27.316,15.949-39.228,17.597c-10.047,1.589-22.479,4.4-27.767,5.148c-3.499,0.467-7.042,0.921-10.576,1.463   c2.506-1.025,5.015-2.063,7.399-3.098c11.853-5.301,22.495-10.315,34.947-16.241c1.465-0.766,2.927-1.541,4.384-2.322   c-1.607,0.713-3.216,1.418-4.828,2.12c-14.663,5.688-29.156,11.816-43.896,17.304c-3.536,1.322-7.068,2.657-10.583,4.034   C2575.085,644.204,2579.47,641.045,2583.88,637.935z M2570.34,639.534c-0.841,1.003-1.673,2.013-2.516,3.013   c-0.849,1.002-1.692,2.008-2.537,3.011c1.021-2.172,1.956-4.38,2.707-6.663c3.469-11.509,4.825-23.6,5.37-35.576   c-2.244,8.562-4.705,17.076-6.502,25.747c-0.848,4.806-1.922,9.55-3.187,14.246c-1.431,2.566-2.788,5.172-4.064,7.816   c0.062-0.226,0.126-0.452,0.187-0.678c2.873-9.117,1.574-18.733,1.259-28.107c-0.019-7.048,0.244-14.082-0.388-21.12   c-0.317-8.03,1.687-20.793,6.193-27.07c0.122-0.26,0.486-0.707,0.817-1.09c3.187,1.339,4.499,2.098,6.672,5.458   C2584.407,595.862,2577.516,619.077,2570.34,639.534z M2624.709,569.644c-1.406,1.81-2.796,3.633-4.185,5.456   c4.21-16.017,6.036-32.535,5.536-49.095c-4.235,16.528-6.095,33.054-6.034,49.744c-0.198,0.261-0.401,0.52-0.599,0.781   c-0.359-1.812-0.659-3.634-0.877-5.472c-0.677-4.9-0.26-9.946-1.465-14.767c-0.935-3.924-1.876-7.849-2.848-11.763   c-0.238-2.314-0.261-4.652-0.449-6.972c-0.087-15.171-2.149-30.898,8.417-41.697c0.001-0.001,0.001-0.001,0.002-0.002   c6.344,3.059,7.394,13.971,9.094,22.438c1.532,8.655,0.904,15.586-0.095,24.047c-1.062,8.187-2.436,16.323-4.181,24.384   C2626.255,567.698,2625.487,568.675,2624.709,569.644z M2662.824,547.046c6.416-4.803,11.992-8.46,19.487-11.775   c7.408-3.6,13.818-6.457,20.028-7.258c7.317-1.26,12.155-1.576,18.33,0.68c2.144,0.739,3.023,0.711,5.115,1.938   c0.34,0.314,0.701,0.778,0.89,1.025c1.087,3.079-1.297,6.856-3.882,9.667c-4.346,4.246-10.107,8.237-16.047,11.52   c-5.333,3.351-11.349,6.596-14.774,7.42c-6.897,1.93-11.611,2.135-19.218,3.424c-7.771,1.502-15.476,3.317-23.168,5.178   c-5.729,1.178-11.293,2.985-16.92,4.558c0.007-0.005,0.013-0.009,0.019-0.014c3.275-2.243,8.644-5.315,14.21-8.782   c12.837-8.123,26.031-15.843,40.283-21.228c2.003-0.728,4.052-1.32,6.077-1.983c-2.142,0.527-4.304,0.981-6.425,1.589   c-15.02,4.511-29.139,11.529-42.654,19.403c-3.235,1.954-6.606,3.741-9.929,5.601   C2643.563,560.748,2653.228,553.929,2662.824,547.046z M2679.97,496.695c-2.038-1.418-4.328-2.52-6.448-3.792   c-4.695-2.731-9.654-4.962-14.413-7.576c-3.702-1.965-7.857-4.006-11.179-6.189c-2.951-2.059-5.54-4.581-8.19-7.004   c-2.124-1.971-4.148-4.045-6.115-6.173c-2.515-2.671-3.548-3.572-4.153-6.928c-1.681-10.256,5.341-15.664,10.962-17.508   c2.496-1.517,9.254,1.142,12.996,3.756c11.289,7.589,17.908,20.051,23.279,32.189c1.526,3.619,3.141,7.219,4.38,10.947   c0.183,0.678,0.35,1.36,0.51,2.044c-10.594-9.45-24.354-19.016-36.738-26.795c10.992,11.115,23.742,20.219,37.076,28.302   c0.025,0.117,0.053,0.233,0.078,0.35C2681.358,493.803,2680.677,495.262,2679.97,496.695z M2723.824,467.703   c5.626-3.426,8.218-3.788,13.793-3.915c2.646-0.01,5.42,0.669,8.968,1.343c3.809,0.791,4.931,0.781,6.795,2.565   c0.918,1.672,1.701,5.967,0.199,8.962c-1.131,2.158-3.531,4.673-6.506,7.155c-5.926,5.08-10.765,6.729-19.173,9.312   c-5.767,1.733-16.268,4.174-23.903,6.176c-6.101,1.195-13.347,1.487-19.714,3.822c0.447-0.763,0.882-1.532,1.315-2.303   c16.735-6.474,31.639-16.938,46.934-26.172c-9.688,4.45-19.111,9.466-28.299,14.871c-6.204,3.562-12.075,7.744-18.455,10.986   c1.581-2.835,3.062-5.722,4.425-8.664C2701.438,483.562,2712.365,474.79,2723.824,467.703z" />
	<path d="M2502.868,344.294c-3.398-6.23-7.365-12.157-11.164-18.153c-4.325-5.7-9.2-10.951-13.748-16.471   c5.138,9.144,10.87,16.493,15.18,25.8c3.238,5.817,6.354,10.21,9.186,15.639c2.674,5.046,5.069,10.237,8.172,15.047   c0.849,1.413,1.739,2.801,2.652,4.174c-0.391-0.995-0.78-1.991-1.153-2.993C2508.95,359.655,2506.937,351.534,2502.868,344.294z" />
	<path d="M2472.333,193.448c5.173,9.158,11.347,17.695,18.168,25.694c6.941,7.878,14.249,15.775,18.454,25.531   c-2.111-11.092-9.065-20.433-16.38-28.733C2485.909,208.368,2478.981,201.036,2472.333,193.448z" />
	<path d="M2435.989,835.182c-8.795-13.094-19.779-25.036-33.04-33.687c-2.575-1.43-3.395-3.044-7.065-4.302   c-2.339-0.553-4.713,0.102-6.894,0.987c-0.319,0.001-0.736,0.003-0.961,0c-4.871-0.042-10.287,2.095-12.928,6.343   c-2.821,6.282-0.785,13.898,2.709,19.523c3.098,4.636,7.534,8.212,11.642,11.922c7.721,6.748,16.735,11.652,25.918,16.094   c4.299,2.154,8.547,4.416,12.874,6.511c4.184,1.663,8.378,3.302,12.538,5.025c0.202,0.083,0.404,0.164,0.606,0.248   c-3.802-2.272-7.682-4.409-11.561-6.542c-5.184-3.469-10.435-6.836-15.735-10.127c-7.774-4.569-14.947-10.196-21.253-16.737   c-3.231-3.353-7.111-7.267-8.387-10.255c-2.595-5.665-3.649-11.055-1.552-16.117c0.12-0.174,0.292-0.418,0.461-0.623   c-0.178,0.165-0.277,0.237,0.015-0.019c0.106-0.127,0.209-0.236,0.295-0.299c-0.06,0.074-0.143,0.159-0.223,0.236   c0.894-0.703,0.556-0.513,1.309-0.9c2.182,0.042,4.352-0.169,6.415-0.832c3.881,2.358,10.063,6.284,13.879,8.957   c9.665,7.33,18.772,15.468,26.908,24.474c4.693,5.246,7.85,11.653,11.865,17.407   C2441.213,846.718,2439.235,840.614,2435.989,835.182z" />
	<path d="M2383.359,803.445c0.028-0.026,0.056-0.052,0.086-0.082c-0.03,0.026-0.046,0.041-0.071,0.062   C2383.369,803.432,2383.364,803.439,2383.359,803.445z" />
	<polygon points="2383.446,803.363 2383.446,803.363 2383.445,803.364  " />
	<path d="M2408.621,823.804c9.238,13.526,21.279,24.729,34.042,34.875c0.23,0.186,0.461,0.371,0.691,0.557   c-2.008-2.509-4.048-4.993-6.139-7.434C2428.637,841.541,2418.642,832.617,2408.621,823.804z" />
</g>
</svg>