<?xml version="1.0" encoding="utf-8"?>
<svg version="1.1" id="Layer_1" xmlns="http://www.w3.org/2000/svg" xmlns:xlink="http://www.w3.org/1999/xlink" x="0px" y="0px" viewBox="1063 743 545 991" style="enable-background:new 0 0 3000 2000;" xml:space="preserve">

<g>
	<path d="M1314.079,1487.966c0.079-0.089,0.162-0.173,0.235-0.268C1314.058,1487.975,1314.02,1488.026,1314.079,1487.966z" />
	<path d="M1602.917,1492.583c-1.234-0.814-2.747-0.711-4.161-0.804c-2.673-0.112-5.354,0.105-8.004,0.446   c-8.122,1.196-15.761,4.313-23.035,8.02c-9.573,4.494-18.937,9.475-27.312,15.985c-11.394,8.447-21.647,18.282-32.234,27.691   c-3.395,3.225-6.812,6.482-9.588,10.271c-3.612,4.926-6.348,10.41-9.645,15.54c-7.21,11.381-14.319,22.833-21.113,34.469   c-0.305-0.105-0.609-0.21-0.893-0.332c-0.863-0.345-1.743-0.635-2.635-0.874c0.28-5.279,0.562-10.558,0.83-15.837   c1.198-24.971,1.335-49.988,0.088-74.957c1.47-0.753,2.251-2.438,3.073-3.83c2.045-3.764,3.597-7.751,4.949-11.805   c1.24-2.047,2.552-3.819,3.941-5.07c6.891-7.314,14.417-14.006,21.203-21.417c10.726-12.131,20.397-25.144,30.339-37.915   c10.179-12.993,17.277-27.732,24.632-42.407c7.853-15.172,15.26-31.339,15.001-48.778c0.248-6.339,0.54-20.588-9.415-16.865   c-4.327,2.304-7.762,5.886-11.53,8.961c-7.381,6.789-14.929,13.443-21.705,20.85c-8.743,9.438-14.783,20.817-21.265,31.822   c-6.043,10.084-11.887,20.328-16.262,31.265c-4.904,11.385-7.534,23.535-10.013,35.631c-1.764,8.768-3.412,17.558-5.024,26.355   c-2.425,4.838-4.504,9.849-6.585,14.857c-0.359,0.455-0.719,0.91-1.066,1.373c-0.391,0.625-0.755,1.265-1.109,1.911   c-1.036-18.033-2.204-36.117-6.546-53.702c-4.079-17.481-8.34-34.951-13.959-52.011c-3.9-11.808-8.467-23.365-13.327-34.802   c0.394-2.466,0.727-4.94,1.03-7.42c0.268-0.599,0.532-1.2,0.764-1.814c0.142-0.223,0.157-0.442,0.045-0.657   c-0.043-0.269-0.224-0.447-0.441-0.591c0.362-3.103,0.712-6.208,1.126-9.304c0.543-4.688,1.695-9.265,2.541-13.901   c0.354-2.234,0.585-4.487,1.01-6.709c1.243-3.167,2.549-6.315,3.565-9.563c3.556-10.788,7.081-21.795,12.977-31.575   c8.437-11.276,13.595-24.478,18.622-37.522c4.151-11,8.536-21.903,13.083-32.745c2.297-5.045,4.958-9.932,6.678-15.223   c4.197-11.626,7.054-23.711,7.974-36.048c1.147-9.304,3.594-16.375,6.344-25.614c0.426-2.372,1.625-4.988,0.959-7.321   c-1.67-2.805-5.731-1.542-8.308-0.851c-9.581,2.495-17.976,8.387-25.248,14.943c-7.022,6.922-14.246,13.633-21.466,20.351   c-4.196,4.071-8.688,7.925-12.103,12.71c-5.481,7.969-8.643,17.208-12.616,25.961c-4.776,11.035-9.71,22.039-13.099,33.6   c-3.174,9.978-3.387,20.555-3.001,30.932c0.204,6.917,0.942,13.807,1.969,20.648c1.936,13.612,4.974,27.008,8.788,40.194   c-0.572,5.041-1.009,10.092-1,15.169c-5.603-12.846-11.511-25.55-17.588-38.178c-6.153-13.469-12.971-26.596-20.024-39.612   c-6.267-11.82-12.466-23.71-19.794-34.919c-1.91-2.794-3.905-5.528-5.914-8.251c-0.056-0.249-0.11-0.486-0.168-0.747   c-0.853-4.384-3.174-9.283-4-12.415c-0.918-3.205-0.67-6.567-0.995-9.853c-0.838-9.559-0.846-19.219-0.214-28.793   c0.701-8.058,2.538-15.944,4.311-23.817c2.803-11.74,3.95-23.737,4.509-35.771c0.988-10.399,2.169-20.815,4.284-31.052   c2.425-12.189,4.004-24.543,5.138-36.915c1.041-6.947,1.931-13.921,1.959-20.961c0.009-12.643-2.23-25.279-1.25-37.924   c0.37-3.359,1.247-6.635,1.735-9.975c-0.023-1.218,0.915-2.711-0.007-3.664c-4.851-2.331-9.219,2.69-12.033,6.096   c-15.53,18.863-24.479,41.998-30.397,65.469c-2.422,8.649-4.701,17.355-5.909,26.269c-1.314,8.439-1.69,16.974-2.109,25.492   c-1.064,15.693-1.826,31.642,1.502,47.128c3.364,16.449,9.264,32.273,15.956,47.632c1.797,4.137,3.655,8.248,5.649,12.29   c0.313,1.212,0.633,2.421,0.955,3.63c0.062,1.053,0.158,2.101,0.344,3.137c-12.384-17.199-24.547-34.564-37.528-51.321   c-8.75-10.926-16.906-22.401-26.669-32.467c-7.657-7.708-15.831-14.883-23.731-22.339c-3.813-4.224-11.483-12.401-16.601-17.989   c-3.364-3.81-6.452-7.86-9.58-11.876c-1.912-5.934-2.902-11.981-1.462-18.87c0.835-2.291,2.755-9.107,3.555-13.013   c1.106-4.908,2.362-11.782,3.343-15.227c0.807-3.195,2.256-6.177,3.195-9.328c2.019-6.394,3.596-12.911,5.435-19.356   c2.421-8.448,4.94-16.915,6.204-25.628c0.932-6.664,1.111-13.4,2.185-20.046c1.774-11.237,2.885-22.586,1.777-33.954   c-0.362-4.427-0.513-8.951-1.731-13.241c-0.751-2.367-2.283-4.38-3.147-6.701c-0.495-1.218-1.254-2.43-2.495-2.977   c-1.627-0.672-3.671-0.689-5.229,0.159c-0.917,0.535-0.985,1.646-1.388,2.534c-0.621,1.727-1.184,3.475-1.776,5.212   c-2.025,7.269-5.521,13.948-9.075,20.564c-9.103,16.771-16.143,33.77-17.126,53.056c-0.97,13.684,0.151,27.42,1.735,41.016   c1.294,13.238,4.361,26.167,7.551,39.054c-0.791-8.51-1.668-17.011-2.484-25.518c-0.4-10.718-0.825-21.434-1.145-32.156   c-0.297-13.66,0.074-30.255,3.277-42.141c2.661-10.031,7.029-19.506,11.697-28.741c3.706-7.314,7.991-14.434,10.31-22.35   c0.525-1.697,1.072-3.388,1.634-5.073c0.872,1.831,2.132,4.251,2.053,4.4c1.751,8.564,1.805,17.465,1.754,26.183   c-0.264,7.802-1.692,15.486-2.763,23.202c-0.985,6.142-1.111,12.387-2.169,18.523c-1.139,7.152-2.691,12.191-4.67,19.28   c-2.381,7.87-4.269,15.875-6.722,23.724c-0.001,0.002-0.001,0.004-0.002,0.005c0.767-5.189,1.803-10.333,2.663-15.512   c1.255-8.029,2.793-16.011,4.166-24.021c0.9-8.086,1.41-16.2,1.071-24.337c-0.087-1.97-0.181-3.941-0.282-5.911   c-0.247,2.007-0.487,4.015-0.72,6.024c-0.87,7.75-2.818,17.521-4.152,24.119c-2.16,8.072-4.252,16.178-5.617,24.428   c-2.072,10.736-2.575,21.635-2.887,32.541c-0.073,1.284-0.112,2.568-0.139,3.851c-0.802,3.986-1.6,7.973-2.604,11.915   c-0.236,1.013-2.176,6.21-2.044,9.684c-0.101,1.422-0.085,2.836,0.008,4.241c-2.336-2.998-4.629-6.028-6.809-9.144   c-10.008-13.532-19.589-27.345-28.603-41.561c-3.042-4.699-5.962-9.47-8.812-14.283c0.02-0.16,0.03-0.328,0.022-0.51   c-1.342-3.638-2.472-7.36-3.891-10.974c-1.939-5.091-4.167-10.081-6.696-14.905c-0.205-0.396-0.42-0.786-0.64-1.173   c-0.062-1.069-0.094-2.139-0.035-3.212c1.833-24.059,1.936-48.25,4.855-72.227c1.49-12.949-1.459-25.854-5.125-38.205   c-4.438-14.986-8.023-30.2-12.288-45.234c-3.268-13.611-6.994-27.556-5.637-41.663c0.238-2.936,0.865-3.847,2.253-6.756   c0.542-1.031,1.127-2.166,0.845-3.363c-0.092-0.729-0.932-0.997-1.55-1.17c-1.227-0.269-2.546-0.186-3.698,0.328   c-1.599,1.178-2.552,3.179-3.559,4.869c-5.471,10.331-9.111,21.471-13.193,32.389c-5.239,14.077-9.825,28.526-10.664,43.622   c-1.262,16.131-2.142,32.55,1.433,48.461c2.032,10.397,6.102,20.189,10.104,29.948c4.871,11.971,10.382,23.634,16.404,35.068   c6.057,11.965,12.336,23.807,18.922,35.479c-2.236-1.634-4.55-3.164-6.886-4.623c-4.481-2.606-9.167-5.078-14.259-6.223   c-19.547-3.23-40.46,3.115-54.412,17.303c-4.89,4.754-9.97,9.432-13.629,15.246c-2.741,4.162-4.653,8.794-7.018,13.169   c-1.935,4.432-3.596,10.066-4.542,13.553c-0.073,3.88,10.415,3.2,13.106,3.215c2.796,0.108,5.724,0.355,8.575,0.513   c5.237,0.21,10.508,1.247,15.734,0.41c6.431-1.555,12.278-5.007,18.029-8.185c8.212-4.664,16.717-8.846,24.663-13.966   c4.845-3.875,9.344-8.195,14.09-12.199c3.311-2.696,7.312-4.547,11.267-6.051c0.001,0,0.002,0,0.003-0.001   c0.73,0.082,1.462-0.008,2.167-0.213c1.481,2.512,2.975,5.017,4.49,7.51c5.534,8.519,11.087,17.026,16.629,25.54   c9.386,12.903,18.407,26.078,28.482,38.463c1.048,1.328,2.096,2.656,3.143,3.985c0.096,0.235,0.184,0.474,0.282,0.708   c1.124,2.786,2.284,5.557,3.465,8.32c-7.579-5.116-16.365-8.443-25.397-9.793c-7.188-1.54-14.516-2.251-21.866-2.158   c-13.728-0.047-26.85,4.779-39.49,9.67c-9.574,3.984-19.056,8.434-27.564,14.413c-6.59,4.999-13.155,10.254-18.581,16.524   c-6.583,8.448-11.282,18.244-15.105,28.204c-1.724,4.961-2.936,10.085-4.592,15.07c-0.065,0.453-0.489,0.911-0.295,1.357   c0.362,0.93,1.67,1.046,2.546,1.166c4.053,0.317,7.844-1.518,11.616-2.727c9.223-2.961,18.536-6.03,28.253-6.789   c16.483-1.602,32.935-5.802,47.82-13.138c7.165-3.709,13.716-8.481,20.561-12.733c3.32-1.51,11.473-6.951,16.286-10.156   c5.777-4.017,12.75-5.583,18.976-8.724c4-2.014,7.607-4.968,11.934-6.258c1.593-0.33,3.237-0.162,4.845-0.361   c1.644-0.151,3.715-0.381,5.878-0.078c2.416,2.611,4.862,5.192,7.387,7.693c10.297,9.796,20.336,18.089,28.797,28.319   c16.718,20.378,32.446,41.541,47.733,63.006c6.39,8.97,12.891,17.858,19.394,26.745c-14.761-4.665-29.751-8.548-44.731-12.44   c-24.127-6.572-49.704-9.186-74.372-4.131c-15.157,3.286-29.1,10.625-42.707,17.842c-10.681,5.857-21.345,11.892-30.804,19.626   c-10.936,8.565-20.617,18.517-29.684,29.008c-3.769,4.428-7.558,8.868-10.931,13.608c-0.982,1.327-1.89,2.704-2.69,4.149   c-0.131,0.32-0.13,0.726,0.185,0.931c0.721,0.457,1.514,0.75,2.341,0.951c-0.72,0.497-1.436,0.999-2.161,1.489   c0.866-0.475,1.741-0.93,2.616-1.388c1.922,0.377,4.008,0.267,5.903,0.223c2.817-0.194,5.696,0.327,8.561,0.811   c15.408,2.554,30.625,6.888,46.287,7.538c19.059,0.135,37.907-3.349,56.442-7.478c16.26-3.499,32.024-9.017,47.38-15.364   c4.069-1.361,7.609-3.829,11.133-6.212c5.737-3.762,11.009-8.212,15.46-13.446c5.162-5.671,7.899-11.902,13.337-16.1   c2.402-2.075,4.954-3.968,7.428-5.955c1.768-1.364,3.483-3.087,5.579-3.822c5.956-1.553,12.853,0.345,18.953-1.459   c0.045,0.107,0.084,0.217,0.131,0.324c0.495,1.111,0.726,2.584,2.168,2.744c0.455,0.192,1.379,0.216,2.248,0.064   c4.612,7.239,8.835,14.731,12.876,22.297c5.851,11.142,11.98,22.146,17.674,33.366c10.559,21.969,20.979,43.999,30.673,66.366   c0.523,1.144,1.046,2.323,1.568,3.498c-1.262,1.181-2.523,2.363-3.774,3.555c-10.142-0.732-20.312-0.948-30.46-0.022   c-12.824,0.729-25.471,3.173-37.577,7.485c-6.703,2.146-13.366,4.434-19.859,7.155c-4.843,1.957-9.726,3.961-13.989,7.031   c-11.981,9.139-21.881,20.66-32.061,31.691c-9.974,10.581-19.363,21.685-27.476,33.771c-4.022,6.321-8.493,12.381-12.086,18.962   c-2.882,6.058-4.538,12.628-5.907,19.171c-1.747,8.341-2.27,16.865-3.576,25.278c-0.028,0.264-0.095,0.522-0.149,0.782   c-0.231,1.083-0.463,2.166-0.694,3.25c-0.023,0.085-0.043,0.171-0.074,0.254c-0.257,0.821-0.714,1.663-0.521,2.535   c0.845,3.134,5.109,2.814,7.492,1.758c6.166-3.385,13.884-4.225,21.098-4.938c5.093-0.635,10.057-2.056,14.961-3.533   c13.625-4.093,26.165-10.574,38.192-17.987c-0.091,0.117-0.194,0.224-0.282,0.342c-0.09,0.188-0.453,0.59-0.551,0.69   c-1.109,1.251-2.728,1.964-3.671,3.374c-2.305,3.386-2.54,5.168,0.548,8.215c8.9,9.844,21.73,14.902,34.527,17.358   c7.689,1.624,15.237,3.857,22.899,5.603c6.225,1.679,9.843,3.316,15.961,5.428c7.257,2.295,14.97,2.735,22.466,1.489   c4.668-0.584,9.382-0.936,13.964-2.053c5.999-1.552,11.747-3.943,17.603-5.947c6.589-2.551,13.278-5.026,18.913-9.408   c0.236-0.17,0.472-0.34,0.707-0.51c0.183,0.113,0.362,0.224,0.542,0.335c0.96,20.024,1.169,40.082,0.445,60.119   c-0.24,9.942-0.709,19.884-1.28,29.826c-2.542-1.028-5.334-2.137-8.048-3.057c-10.188-7.473-21.463-13.429-33.057-18.463   c-6.449-3.179-12.78-6.641-19.732-8.639c-7.797-2.376-15.994-3.321-24.115-3.715c-12.814-0.659-25.534,1.862-37.836,5.241   c-10.953,3.416-23.087,8.401-33.461,10.948c0.4-0.117-0.259,0.066-0.494,0.105c-0.772,0.149-1.526,0.385-2.233,0.729   c-0.931,0.379-2.155,1.683-1.25,2.568c0.39,0.433,1,0.655,1.564,0.782c2.635,0.706,5.321,1.181,7.971,1.813   c15.515,4.217,30.436,13.504,46.269,18.446c10.388,2.985,21.152,4.419,31.889,5.442c8.569,0.81,17.15,1.584,25.76,1.734   c13.856,0.155,29.057-5.81,40.956-8.747c1.243-0.219,2.667-0.424,3.931-0.578c0.522,0.205,1.047,0.402,1.575,0.59   c-0.114,1.882-0.224,3.763-0.343,5.645c-0.16,0.07-0.314,0.14-0.477,0.211c-1.999,1.018-1.115,2.217,0.285,2.804   c-2.456,38.195-5.587,76.396-2.375,114.594c1.452-19.805,3.908-39.515,5.643-59.294c1.356-18.605,2.486-37.228,3.516-55.856   c0.935-0.378,1.844-0.834,2.72-1.306c0.064-0.038,0.128-0.078,0.192-0.116c1.648-0.721,3.433-1.531,4.744-2.231   c3.222-1.492,7.48-4.568,8.433-5.062c10.38-5.232,20.701-10.588,30.799-16.352c13.127-7.821,25.585-16.741,37.238-26.626   c8.521-7.68,16.162-16.281,23.958-24.681c7.852-9.96,15.827-19.843,23.028-30.29c3.117-4.688,7.098-9.035,8.562-14.588   C1603.601,1493.386,1603.323,1492.848,1602.917,1492.583z M1485.298,1446.688c4.96-18.457,11.705-36.47,21.648-52.856   c7.258-11.676,13.339-24.17,22.112-34.828c7.306-8.835,21.561-21.756,31.029-29.545c1.261,3.852,0.738,8.633,0.76,13.261   c-0.078,16.281-6.672,30.156-14.291,44.929c-6.37,12.032-11.983,24.553-19.874,35.7c-5.791,8.355-12.235,16.221-18.483,24.231   c-6.308,8.142-10.721,13.786-17.387,21.26c-3.274,3.625-6.855,7.055-10.437,10.491c0.468-0.945,0.932-1.892,1.422-2.825   c6.457-11.356,14.089-22.003,20.887-33.156c4.613-7.428,8.605-15.229,12.769-22.915c1.588-3.064,3.163-6.134,4.727-9.209   c-1.668,2.363-3.331,4.729-4.986,7.1c-5.429,7.636-10.73,15.368-16.208,22.966c-7.029,9.413-14.175,18.763-20.61,28.597   C1480.759,1462.179,1483.051,1454.44,1485.298,1446.688z M1342.818,1156.209c-2.138-18.08-0.282-36.264,1.007-54.335   c0.607-5.782,1.608-11.522,2.441-17.276c-1.09,3.251-3.1,11.134-4.321,16.014c-3.144,17.734-6.398,35.761-4.731,53.829   c0.247,3.633,0.821,7.21,1.558,10.758c-0.096-0.307-0.19-0.615-0.286-0.922c-3.952-13.553-7.893-27.2-9.888-41.201   c-2.114-17.572-0.077-35.281,0.848-52.868c1.367-17.773,5.589-31.7,10.028-47.864c4.278-14.574,9.922-28.837,18.166-41.652   c2.743-4.214,5.49-8.442,8.441-12.024c-0.816,4.274-1.487,8.574-1.307,12.946c0.033,11.446,1.697,22.851,1.317,34.295   c-0.173,6.021-1.006,11.979-1.934,17.92c-0.553,6.228-1.279,12.432-2.206,18.615c-1.107,10.624-3.873,20.972-5.248,31.546   c-0.64,5.714-1.518,11.408-2.01,17.135c-0.506,6.823-0.682,13.682-1.592,20.468c-2.204,16.315-7.836,32.145-7.705,48.74   C1344.246,1165.68,1343.248,1160.995,1342.818,1156.209z M1164.522,951.909c-1.768-4.126-3.025-8.441-4.559-12.653   c-2.64-6.866-4.608-11.959-6.631-18.783c-1.149-4.585-2.442-9.154-2.967-13.864c-0.569-7.594-0.501-15.223-0.707-22.825   c-1.437-11.395-3.533-22.704-5.436-34.029c-1.805-9.965-3.347-20.016-6.365-29.705c1.601,10.138,1.868,20.415,2.735,30.629   c0.79,11.117,2.092,22.189,3.172,33.277c0.046,5.31-0.106,10.615,0.274,15.923c0.026,4.715,0.466,9.401,1.601,13.986   c1.874,8.224,4.698,16.157,7.775,23.995c-2.587-5.067-5.165-10.138-7.658-15.252c-3.127-7.297-6.319-14.569-9.278-21.937   c-7.403-16.889-10.916-35.228-10.031-54.484c0.524-14.091,1.434-29.787,5.297-42.062c2.669-8.819,5.822-17.481,9.001-26.127   c1.183-3.311,2.393-6.615,3.675-9.891c0.027,0.58,0.058,1.159,0.089,1.735c1.07,14.857,5.188,29.295,9.1,43.605   c3.225,12.8,6.606,25.555,10.151,38.27c2.633,10.112,4.421,20.61,3.37,31.078c-1.085,9.742-2.178,19.514-2.493,29.316   c-0.411,12.843,0.192,25.667,1.005,38.482c0.067,1.273,0.101,2.55,0.157,3.826C1165.337,953.602,1164.901,952.771,1164.522,951.909   z M1170.686,987.769c-4.543,1.126-8.929,3.215-12.904,5.673c-4.974,3.716-9.502,8.024-14.113,12.176   c-6.513,4.957-14.623,8.759-21.769,12.844c-5.551,3.21-11.127,6.386-17.067,8.832c-2.069,0.941-4.257,0.867-6.412,0.718   c-6.042-0.478-12.092-0.95-18.148-1.183c-1.671,0.037-3.478,0.098-5.103-0.05c8.243-5.391,16.438-11.066,23.02-18.456   c2.861-3.16,5.154-6.777,7.928-10.009c3.49-3.865,7.244-7.553,11.446-10.641c1.961-1.202,4.213-1.806,6.352-2.605   c-0.837,0.177-1.673,0.354-2.51,0.532c-4.938,0.702-9.006,3.617-12.987,6.414c-3.123,2.404-6.211,4.89-8.779,7.9   c-2.784,3.115-5.168,6.555-7.917,9.7c-5.264,6.089-11.182,11.555-16.983,17.122c-0.485-0.057-0.953-0.132-1.389-0.239   c0.001-0.039,0.002-0.087,0.003-0.151c0.008-0.131,0.029-0.26,0.064-0.387c-0.367,0.993,0.406-1.151,0.403-1.473   c0.827-1.55,2.057-7.045,3.456-9.904c1.96-4.106,4.013-8.186,6.151-12.202c3.595-6.119,6.956-9.514,11.989-14.44   c9.28-9.8,20.986-17.157,34.629-18.574c4.786-0.495,9.715-0.78,14.465,0.134c4.179,1.008,8.042,3.06,11.772,5.146   c4.682,2.797,9.104,6.026,13.198,9.632c-1.687-0.096-3.381-0.115-5.063-0.098c-8.269,0.158-16.191,4.374-24.51,2.81   c-3.45-0.421-6.768-1.448-10.09-2.427c1,0.375,1.993,0.773,2.991,1.156c4.091,1.558,8.448,2.588,12.837,2.669   c4.921-0.182,9.752-1.321,14.622-1.971c2.586-0.328,5.198-0.286,7.787-0.013c1.322,0.207,3.298-0.071,4.06,1.149   C1171.515,987.607,1170.993,987.696,1170.686,987.769z M1233.146,1086.845c-4.881,1.464-9.109,4.465-13.756,6.479   c-4.552,1.942-9.337,3.298-13.852,5.322c-4.791,2.407-9.136,5.592-13.59,8.555c-1.716,1.286-4.759,2.719-7.845,4.596   c-3.858,2.483-7.696,5.002-11.551,7.49c-17.099,11.486-37.813,16.094-58.061,17.95c-9.973,1.48-19.478,4.91-29.068,7.87   c0,0,0-0.001,0-0.001c0.056-0.173,0.107-0.347,0.161-0.52c5.938-4.72,11.611-9.768,17.57-14.46   c7.49-5.676,15.286-10.948,22.762-16.651c-8.818,4.969-17.779,9.845-25.913,15.892c-4.957,3.941-9.375,8.482-13.761,13.046   c1.182-4.061,2.183-8.18,3.731-12.12c3.722-9.467,8.23-18.794,14.526-26.835c3.711-4.302,10.887-10.44,16.615-14.846   c8.894-6.511,19.036-11.115,29.183-15.31c9.033-3.357,18.219-6.836,27.846-7.95c8.406-0.751,16.912-0.199,25.169,1.531   c10.555,1.473,20.686,5.937,28.764,12.916c1.056,0.893,2.019,1.893,2.908,2.954c-2.922,0.433-5.834,0.994-8.732,1.131   c-2.803,0.334-5.079-0.206-7.854-1.092c-4.693-1.136-9.229-2.956-13.988-3.764c-7.119-0.72-14.153,1.353-20.963,3.182   c-17.581,4.703-33.003,14.629-48.606,23.649c12.05-5.527,24.38-11.967,36.399-16.759c9.93-3.572,22.778-7.532,30.688-7.828   c3.823,0.253,8.196,1.983,12.547,2.79c3.825,0.919,7.703,1.984,11.665,1.341c3.255-0.266,6.365-1.061,9.479-1.726   c0.396,0.648,0.838,1.262,1.35,1.8c0.033,0.055,0.073,0.106,0.106,0.162c0.016-0.002,0.032-0.005,0.047-0.007   c0.142,0.141,0.286,0.28,0.438,0.408c0.131,0.064,0.273,0.115,0.416,0.165C1236.346,1086.234,1234.723,1086.368,1233.146,1086.845z    M1238.967,1078.921c1.05,1.148,2.097,2.298,3.143,3.448c-0.531-0.053-1.063-0.093-1.597-0.108   C1239.933,1081.183,1239.425,1080.065,1238.967,1078.921z M1241.168,1086.186c0.387-0.161,0.736-0.389,1.015-0.696   c0.14-0.226,0.08-0.441-0.026-0.647c0.003,0,0.005-0.001,0.007-0.001c-0.01-0.012-0.018-0.026-0.027-0.038   c-0.062-0.112-0.132-0.222-0.197-0.327c-0.334-0.554-0.709-1.081-1.098-1.597c0.583-0.015,1.166-0.005,1.749,0.017   c0.989,1.087,1.977,2.175,2.97,3.259C1244.102,1086.066,1242.632,1086.105,1241.168,1086.186z M1344.661,1219.885   c-6.214-0.026-13.179-0.086-18.181,4.149c-4.23,3.544-8.748,6.768-12.669,10.667c-3.358,3.463-5.687,7.752-8.691,11.5   c-5.241,6.791-14.245,14.2-22.965,19.14c-9.478,4.295-16.209,6.543-26.123,10.194c-8.36,2.3-16.002,4.943-22.581,6.227   c-16.676,3.735-33.539,6.961-50.67,7.424c-14.559,0.212-27.212-3.634-41.46-6.1c-5.182-0.895-10.339-2.174-15.611-2.372   c-1.213-0.064-2.401,0.06-3.564,0.076c7.159-4.171,14.987-6.988,22.606-10.191l0.271-0.111c1.058-0.353,2.116-0.706,3.173-1.061   c5.201-1.885,10.377-1.813,16.075-3.271c4.311-0.886,8.367-2.618,12.567-3.889c7.968-2.012,15.818-4.463,23.103-8.323   c4.955-2.405,9.812-5.017,14.614-7.712c3.619-2.28,7.024-4.884,10.667-7.128c6.833-4.287,14.169-7.714,21.658-10.683   c-9.583,2.941-18.963,6.662-27.65,11.696c-6.518,4.127-13.471,7.418-20.489,10.589c-3.062,1.371-6.161,2.658-9.214,4.048   c-5.267,2.015-10.757,3.358-16.174,4.904c-4.773,1.553-9.392,3.564-14.327,4.588c-1.769,0.436-9.126,1.448-12.647,2.959   c-4.255,1.52-8.273,3.591-12.295,5.635c-3.986,1.963-7.941,4.02-11.583,6.579c-0.156,0.115-0.316,0.225-0.472,0.339   c0.969-1.371,1.966-2.723,2.938-4.094c2.014-2.654,6.915-8.42,7.843-9.646c9.666-11.096,19.901-21.699,31.592-30.692   c8.147-6.548,17.203-11.808,26.335-16.842c13.453-7.277,27.55-14.907,42.324-18.422c20.904-4.488,42.309-2.469,63.228,2.083   c16.729,3.811,33.566,7.12,50.31,10.856c-3.428-0.572-6.723-0.931-8.746-1.368c-9.116-1.633-18.487-2.239-27.723-1.438   c-14.11,1.523-27.784,5.63-41.483,9.171c-3.162,0.865-6.323,1.738-9.48,2.617c2.918-0.554,5.836-1.113,8.752-1.677   c15.611-2.699,31.169-6.852,46.991-7.399c7.977-0.063,16.183,0.962,24.213,2.384c2.406,0.295,4.626,0.54,6.898,1.062   c2.099,0.315,5.439,1.395,6.497,2.327C1349.977,1220.24,1348.062,1219.767,1344.661,1219.885z M1431.824,1309.48   c-0.92,2.026-1.637,4.127-2.208,6.269c-0.565,1.476-1.128,2.953-1.676,4.436c-0.015,0.047-0.026,0.095-0.041,0.143   c0.365-3.522,0.812-7.039,1.258-10.54c0.984-9.313,1.227-18.729,3.181-27.917c3.804-17.958,8.138-34.27,13.959-51.99   c2.435-7.498,5.023-14.941,7.598-22.391c-1.411,2.389-5.291,10.38-7.357,14.786c-9.256,19.503-16.685,39.99-20.782,61.221   c-1.724,8.649-1.96,17.49-2.894,26.238c-0.053,0.448-0.108,0.897-0.161,1.345c-1.72-12.338-3.094-24.72-4.097-37.147   c-1.221-16.08-2.495-33.825,2.524-48.056c2.785-9.032,6.521-17.715,10.282-26.374c5.12-10.916,8.749-22.76,15.979-32.532   c5.581-6.588,15.401-14.967,22.896-22.143c5.513-5.111,10.546-10.786,16.825-15.005c3.992-2.845,8.306-5.279,12.95-6.824   c-0.381,2.878-1.539,6.806-2.72,10.375c-1.415,4.926-2.899,9.847-3.91,14.875c-1.041,5.017-1.248,10.144-1.997,15.2   c-1.668,10.03-4.014,17.893-7.61,27.67c-1.625,4.502-3.996,8.669-5.954,13.023c-4.705,11.024-9.159,22.145-13.408,33.352   c-4.453,11.382-8.881,22.909-15.771,33.08c-7.557,10.26-11.435,22.673-15.281,34.688c-0.355,1.11-0.735,2.211-1.123,3.309   C1432.133,1308.877,1431.968,1309.173,1431.824,1309.48z M1284.763,1498.5c-6.855,2.81-13.93,5.127-21.163,6.739   c-7.529,1.184-15.155,1.491-22.402,4.128c-0.533,0.155-1.058,0.335-1.578,0.529c0.511-1.926,1-4.565,1.456-7.474   c2.729-3.593,6.061-6.674,9.112-9.998c8.684-10.285,19.191-19.165,30.13-26.486c12.966-10.548,26.571-20.281,39.637-30.688   c8.221-7.139,15.942-14.833,23.568-22.599c-9,7.367-17.928,14.833-27.193,21.869c-13.125,9.305-26.706,18.019-39.06,28.371   c-3.091,2.797-6.731,4.86-9.866,7.597c-6.719,5.634-12.935,11.894-18.152,18.956c-2.48,3.541-5.343,6.821-7.786,10.374   c0.636-4.425,1.197-9.16,1.643-12.859c1.029-6.49,2.154-12.005,3.861-17.475c1.746-6.536,5.202-12.327,9.02-17.844   c4.893-7.533,9.922-14.978,15.404-22.099c7.041-9.332,14.913-17.165,23.277-26.486c5.481-5.971,11.002-11.926,16.953-17.436   c3.939-3.616,7.802-7.439,12.484-10.097c8.084-4.246,16.75-7.313,25.388-10.225c6.557-2.106,13.063-4.42,19.775-5.998   c15.687-3.342,31.719-4.531,47.735-4.441c-1.007,0.969-2.005,1.948-2.973,2.957c-3.57,3.794-8.365,5.993-12.809,8.566   c-12.008,6.972-24.746,13.07-34.999,22.625c-2.647,2.333-4.603,5.264-6.568,8.161c2.021-2.171,3.903-4.497,6.228-6.359   c15.166-12.141,34.012-18.169,50.38-28.34c1.481-1.088,2.933-2.346,4.372-3.672c-0.52,1.716-0.961,3.458-1.262,5.244   c-0.712,4.603-3.118,8.868-5.338,14.004c-3.207,6.369-6.076,12.922-9.594,19.128c-3.165,5.342-7.287,10.007-10.917,15.015   c-5.905,10.284-11.175,19.103-19.907,26.072c-15.455,12.965-31.437,25.337-48.131,36.668   C1312.652,1483.969,1299.283,1492.413,1284.763,1498.5z M1445.235,1513.63c-7.296,3.54-11.036,4.661-17.48,7.01   c-6.918,2.588-11.96,4.286-19.088,4.855c-6.366,0.823-10.873,1.551-15.329,0.605c-5.092-0.751-8.904-2.747-13.992-4.305   c-7.73-2.592-15.75-4.109-23.63-6.165c-4.556-1.237-9.252-1.84-13.816-3.039c-7.602-2.249-15.789-5.333-21.917-11.047   c-2.344-2.396-3.735-2.923-5.136-5.563c-0.016-0.108-0.054-0.203-0.088-0.264c-0.011-0.065-0.034-0.128-0.037-0.195   c-0.012-0.241,0.013-0.481,0.049-0.719c-0.001-0.035,0.002-0.066,0.004-0.097c0.078-0.224,0.173-0.441,0.281-0.651   c0.47-0.798,0.9-1.63,1.441-2.382c0.437-0.344,1.658-1.348,1.907-1.497c2.275-1.92,2.215-2.809,4.257-4.487   c4.964-4.193,10.993-5.509,17.041-7.697c7.363-2.41,13.159-6.095,19.996-5.959c11.779-0.025,24.213,1.32,36.136,6.141   c5.51,2.429,10.851,5.239,16.18,8.037c10.185,5.531,20.602,10.613,30.763,16.191c0.842,0.481,1.769,1.02,2.751,1.596   c-2.802-0.406-5.603-0.813-8.409-1.189c-10.027-1.44-24.653-5.004-37.031-7.193c-1.225-0.239-2.444-0.513-3.667-0.765   c1.555,0.483,3.105,0.98,4.677,1.404c14.527,4.151,28.963,8.701,43.938,10.977c2.62,0.439,5.225,0.996,7.85,1.404   C1449.971,1510.606,1447.469,1512.442,1445.235,1513.63z M1455.826,1505.455c-2.221-0.299-4.439-0.622-6.658-0.943   c-8.676-6.169-17.754-11.76-26.999-17.056c-6.862-4.177-13.821-8.252-21.12-11.625c-5.703-2.295-11.658-4.03-17.697-5.175   c-6.264-1.231-12.639-1.63-19.011-1.749c-3.991-0.087-8.055-0.426-11.939,0.708c-3.908,0.859-9.967,3.364-12.461,4.47   c-3.106,1.201-6.254,2.287-9.395,3.393c-0.83,0.304-1.661,0.612-2.488,0.929c4.623-3.117,9.201-6.293,13.764-9.445   c9.909-7.284,19.769-14.638,29.329-22.378c5.92-4.832,12.146-9.444,17.06-15.348c4.886-5.796,8.618-12.401,12.525-18.855   c4.146-5.455,8.734-10.647,11.951-16.744c4.373-8.666,8.717-17.366,12.507-26.304c0.625-2.212,1.084-4.193,1.531-6.092   c4.411,10.721,8.504,21.708,11.544,31.146c5.081,15.928,9.03,32.19,12.82,48.466c4.957,19.869,5.849,40.389,7.019,60.748   c0.039,0.677,0.071,1.354,0.107,2.031C1457.281,1505.598,1456.414,1505.582,1455.826,1505.455z M1442.439,1605.105   c-5.055,1.724-10.193,3.151-15.377,4.433c-14.352,4.16-24.879,2.051-41.626,0.77c-10.617-1.048-20.993-2.466-30.692-5.61   c-15.558-5.585-29.953-14.365-46.14-18.174c-0.291-0.055-0.578-0.126-0.868-0.185c10.685-2.864,20.932-7.208,31.512-10.424   c10.855-2.886,20.727-4.995,31.986-4.617c5.693,0.253,13.998,1.029,20.466,2.91c6.167,1.696,12.802,4.863,19.022,7.736   c11.391,4.429,22.657,9.301,33.34,15.222c-0.148-0.03-0.302-0.067-0.447-0.094c-11.464-1.779-23.06-2.635-34.559-4.188   c-7.75-1.196-15.769-1.961-23.064-4.997c-1.712-0.764-3.374-1.634-5.068-2.433c1.697,1.091,3.334,2.278,5.099,3.259   c7.555,3.767,16.042,5.295,24.254,6.986c9.07,1.734,20.069,3.359,27.962,4.559c3.628,0.645,6.94,1.921,10.423,3.313   C1446.567,1603.985,1444.486,1604.475,1442.439,1605.105z M1465.013,1608.773c-0.344,0.186-0.693,0.372-1.047,0.557   c0.016-0.298,0.031-0.595,0.047-0.893c0.366,0.016,0.731,0.034,1.101,0.023c0.074-0.004,0.152-0.011,0.228-0.016   C1465.235,1608.554,1465.124,1608.667,1465.013,1608.773z M1468.432,1604.418c-0.055-0.021-0.11-0.041-0.165-0.061   c1.182-1.557,2.364-3.113,3.547-4.67C1470.684,1601.262,1469.568,1602.847,1468.432,1604.418z M1591.499,1501.856   c-8.624,12.472-18.064,24.337-27.621,36.102c-5.676,5.86-15.797,16.84-23.769,23.623c-11.933,9.777-23.351,18.086-35.025,25.032   c-8.798,5.173-17.858,9.876-26.924,14.557c2.368-3.397,4.758-6.777,7.421-9.954c8.14-9.868,16.544-19.371,25.084-30.111   c3.803-4.624,7.119-9.695,11.496-13.816c-3.752,2.748-6.985,6.12-10.234,9.428c-4.395,4.519-8.902,8.928-13.31,13.435   c-7.303,7.505-14.843,14.797-21.612,22.8c-0.345,0.401-0.677,0.813-1.012,1.223c6.168-8.136,12.309-16.292,18.304-24.557   c4.018-5.552,7.344-11.609,11.817-16.827c3.469-3.936,11.209-11.011,16.53-15.554c14.138-12.812,28.693-25.376,46.191-33.15   c8.157-4.185,17.966-8.473,25.161-8.962c0.652-0.022,1.19-0.051,1.677-0.076   C1594.606,1497.492,1593.053,1499.681,1591.499,1501.856z" />
</g>
</svg>