<?xml version="1.0" encoding="utf-8"?>
<svg version="1.1" id="Layer_1" xmlns="http://www.w3.org/2000/svg" xmlns:xlink="http://www.w3.org/1999/xlink" x="0px" y="0px" viewBox="145 1548 1310 417" style="enable-background:new 0 0 3000 2000;" xml:space="preserve">

<g>
	<path d="M525.472,1580.632c0.04-0.017,0.207-0.139,0.531-0.415c-0.009,0.006-0.018,0.012-0.026,0.017   C525.807,1580.365,525.64,1580.5,525.472,1580.632z" />
	<path d="M350.731,1896.059c0.025-0.003,0.052-0.006,0.074-0.009c0.015-0.003,0.029-0.007,0.044-0.01   c-0.041,0-0.1,0.003-0.183,0.011C350.695,1896.055,350.709,1896.057,350.731,1896.059z" />
	<path d="M350.556,1896.064c0.027,0.002,0.057,0.005,0.082,0.006c0.03-0.003,0.053-0.006,0.08-0.01   c-0.025-0.002-0.038-0.004-0.075-0.007C350.619,1896.056,350.584,1896.061,350.556,1896.064z" />
	<path d="M1450.852,1800.525c0.114-0.794-0.599-1.262-1.057-1.743c-2.829-1.869-7.269-2.961-10.384-0.435   c-1.709,1.58-7.688,5.559-12.142,7.312c-7.828,2.951-15.978,4.922-24.109,5.532c-9.254,0.379-18.496,1.109-27.752,2.311   c-14.362,1.253-28.648,4.059-42.571,9.025c-8.604,2.549-17.185,5.897-24.388,11.974c-9.635,7.925-16.908,18.531-26.142,26.9   c-2.404,2.194-5.004,4.069-7.699,5.774c-11.543,3.55-22.991,7.724-34.813,9.403c-5.621,1.022-9.157,1.989-12.067,2.273   c-5.244,0.547-10.909,1.626-15.904,1.891c-0.162-0.015-0.324-0.031-0.487-0.047c6.838-0.979,13.668-2.117,20.481-3.423   c-0.559,0.051-1.118,0.097-1.677,0.146c-10.224,0.786-20.733,1.843-30.062,2.042c-16.681-2.141-33.144-5.492-49.259-9.695   c-19.986-5.448-39.676-11.911-58.722-19.875c-11.256-5.319-22.38-10.906-33.553-16.396c7.637,0.448,15.326,0.548,23.004,0.578   c21.124,0.405,42.363-1.729,63.478-5.659c9.615-1.532,17.324-8.51,25.056-14.554c4.263-2.984,15.654-12.009,21.458-18.192   c5.834-5.921,12.049-11.354,18.191-16.899c4.767-4.735,8.929-10.13,13.916-14.608c6.693-5.926,15.501-10.882,23.097-18.749   c0.578-1.064,1.542-2.468,0.628-3.478c-2.111-2.375-5.55-2.358-8.565-2.083c-12.325,0.032-23.57,8.094-34.06,14.889   c-9.558,6.136-22.05,15.26-28.974,20.64c-9.57,6.945-19.676,13.286-28.181,21.759c-3.28,3.011-6.446,6.28-10.291,8.442   c-5.583,3.41-11.755,5.053-17.754,7.156c-9.3,3.146-18.584,6.655-28.011,9.238c-5.616,1.139-9.828,1.797-15.709,2.965   c-5.705,1.461-13.837,2.596-20.266,3.044c-1.614,0.011-3.161-0.121-4.656-0.308c32.51-27.064,66.951-56.28,71.04-101.715   c0.872-10.813-0.016-21.904-4.876-31.153c-1.316-3.008-2.937-6.085-5.98-7.395c-2.536-1.36-7.677-3.104-9.554,0.49   c-3.449,5.047-5.097,10.846-6.251,16.715c-1.422,6.153-3.654,12.134-5.896,18.063c-5.315,13.156-12.203,25.664-18.92,38.16   c-5.319,9.064-6.379,19.563-9.989,29.219c-4.591,10.483-12.298,19.612-15.071,30.847c-0.533,1.844-0.953,3.711-1.363,5.579   c-4.977-2.362-9.977-4.678-15.021-6.904c-39.096-17.87-78.632-34.786-118.903-49.988c-16.306-6.244-32.561-12.621-48.893-18.798   c-15.13-4.799-30.26-9.598-45.389-14.397c-11.884-3.077-23.876-5.812-35.958-8.178c0.954-0.196,1.908-0.393,2.861-0.597   c-0.6,0.255-1.193,0.532-1.796,0.78c1.294-0.39,2.58-0.812,3.863-1.24c20.287-4.46,40.37-10.535,60.543-15.777   c14.129-3.756,28.195-7.88,42.079-12.837c33.727-11.588,64.521-32.762,90.346-59.155c14.953-15.199,28.63-31.864,40.426-49.822   c6.134-9.666,13.001-19.343,15.895-30.532c1.177-3.69,0.411-5.552-3.339-6.409c-2.423-0.823-4.952-0.098-7.432,0.576   c-11.259,2.702-20.202,11.699-30.48,17.092c-11.41,6.88-23.132,13.042-34.778,19.369c-13.792,9.394-28.396,17.147-42.577,25.774   c-21.625,13.369-38.255,33.997-54.784,53.584c-9.83,11.926-19.019,23.783-31.03,33.478c-7.873,5.79-16.69,9.746-25.182,14.246   c-5.267,2.989-10.617,5.788-16.061,8.335c-3.229,1.017-6.466,1.994-9.717,2.903c-28.33-5.487-57.166-8.888-86.351-9.593   c-9.611-0.3-19.255,0.27-28.906,1.144c21.833-7.474,42.69-18.581,63.046-30.37c13.968-8.61,28.907-15.999,41.219-27.39   c9.548-9.889,17.319-21.535,25.238-32.824c5.338-8.465,11.216-17.601,12.02-27.673c-0.482-2.188-2.816-3.16-4.667-3.813   c-7.842-2.927-13.738,4.782-19.336,9.879c-9.064,9.246-18.003,18.635-27.749,27.086c-3.784,3.346-7.353,6.99-11.332,10.075   c-3.066,1.96-14.388,8.536-19.746,12.9c-15.044,12.138-28.275,26.655-42.374,39.985c-8.719,8.019-17.263,16.444-27.509,22.165   c8.688-3.774,18.2-10.157,24.919-15.636c24.428-17.338,45.049-40.752,71.6-54.31c15.27-10.92,31.373-28.841,44.15-41.361   c-3.518,10.12-9.174,17.622-15.827,27.131c-6.092,8.107-11.737,16.704-19.003,23.75c-5.86,5.636-12.232,9.75-19,14.177   c-12.391,8.141-24.783,16.287-37.419,23.959c-11.081,6.664-22.237,13.268-33.789,18.852c-3.259,1.414-6.556,2.697-9.864,3.944   c-2.802,0.281-5.604,0.584-8.406,0.884c2.479-2.749,4.576-5.86,6.083-9.266c3.136-4.089,6.215-8.221,8.931-12.607   c2.928-5.385,5.708-10.852,8.394-16.36c7.739-16.074,14.553-33.152,15.748-50.83c0.565-10.842-0.052-22.645-6.256-31.18   c-6.83-8.859-16.805-14.067-27.498-16.5c-7.724-2.071-11.652,2.144-11.934,10.358c2.221,18.53,4.136,37.213,7.245,55.56   c2.384,13.358,4.558,26.403,4.102,39.449c0.102,4.967,1.002,9.836,0.538,14.855c-0.191,3.273-0.966,6.522-2.212,9.598   c-1.335,2.231-2.667,4.463-3.967,6.712c0.664-0.898,1.337-1.792,2.013-2.682c-0.592,1.03-1.258,2.014-1.958,2.973   c-4.655,0.498-9.31,0.996-13.96,1.442c-20.634,2.011-41.263,4.106-61.89,6.505c-20.892,2.308-41.881,4.918-62.462,10.761   c-46.808,13.191-91.814,33.982-136.844,53.72c-1.559,0.718-3.113,1.45-4.671,2.172c8.326-6.802,16.6-13.678,24.804-20.651   c21.115-17.384,41.198-36.18,60.052-56.297c16.896-17.999,33.14-36.655,48.508-56.092c13.94-18.465,30.077-37.021,34.681-60.345   c0.966-6.661,3.005-13.579,2.023-20.169c-1.356-6.141-7.431-9.363-13.168-9.596c-11.664,0.282-19.537,13.67-26.744,22.197   c-7.417,9.866-14.72,19.825-22.136,29.692c-4.011,5.411-8.234,10.652-12.389,15.945c-5.033,5.513-10.114,10.998-14.512,17.092   c-4.011,5.431-7.116,11.463-10.585,17.249c-3.955,6.446-8.108,12.766-12.044,19.225c-13.434,22.202-26.074,44.907-40.603,66.409   c-6.578,9.299-12.672,19.061-19.993,27.755c-4.812,5.168-10.42,9.394-16.093,13.39c6.082-3.406,12.124-7.012,17.598-11.521   c4.589-3.738,8.387-8.445,12.419-12.82c31.255-34.608,54.803-75.384,79.239-115.078c4.593-6.559,10.013-12.399,15.346-18.292   c6.317-7.97,12.503-16.045,18.534-24.248c6.275-8.257,12.213-16.79,18.685-24.884c3.811-4.712,7.357-9.785,12.163-13.447   c0.214-0.173,0.431-0.34,0.647-0.51c-0.059,0.025,0.146-0.162,0.505-0.398c0.031-0.024,0.061-0.049,0.092-0.072   c-0.026,0.022-0.041,0.034-0.065,0.055c0.022-0.014,0.04-0.027,0.064-0.042c0.363-0.26,0.738-0.499,1.113-0.737   c0.53,1.181,0.853,2.476,0.944,3.812c-0.202,5.09-1.724,17.098-4.128,24.748c-3.145,9.469-7.101,16.873-11.409,24.019   c-8.036,11.551-16.566,22.801-25.238,33.851c-14.359,17.946-29.342,35.274-45.016,51.975c-10.659,11.143-21.707,21.879-32.3,33.1   c-17.525,16.395-34.739,33.158-52.032,49.828c-26.599,12.504-52.996,25.603-79.117,39.346c2.474-3.488,4.812-7.075,6.418-10.96   c3.169-2.889,6.279-5.846,9.209-9.005c5.408-6.37,10.349-13.16,15.091-20.068c6.837-10.023,13.104-20.437,19.1-30.993   c5.503-9.785,11.183-19.613,14.759-30.274c2.253-7.023,3.195-14.301,4.69-21.463c1.146-6.544,2.588-13.741,0.597-19.924   c-1.971-2.106-5.14-2.792-8.001-2.371c-2.158,0.397-4.149,1.989-5.935,3.362c-3.772,3.61-7.303,11.827-8.612,13.911   c-3.358,6.076-9.391,17.412-10.3,19.057c-6.767,11.77-13.542,23.537-20.338,35.29c-5.329,9.202-11.495,18.052-14.743,28.263   c-2.131,6.415-4.268,12.888-5.33,19.523c-0.481,5.031-0.417,10.299-3.186,14.873c-0.622,1.255-7.162,11.283-9.624,15.279   c1-1.633-0.774,0.531-0.311,1.24c0.447,0.918,1.132,1.563,1.931,2.049c-2.551,1.373-5.119,2.707-7.664,4.093   c-36.363,20.194-71.883,42.18-106.932,65.044c40.765-21.096,81.16-43.203,121.805-64.658c0.667,0.739,1.364,1.449,2.014,2.203   c5.363,5.563,9.309,12.722,16.063,16.683c2.74,1.802,5.927,2.491,8.743,4.057c12.587,6.011,24.346,13.581,36.99,19.486   c5.453,2.761,10.79,6.196,17.171,6.424c3.411,0.066,7.924-0.658,10.01-4.053c1.003-3.43-1.845-7.239-3.582-9.772   c-6.909-8.482-16.607-13.675-25.311-19.889c-7.522-5.236-15.21-10.192-23.409-14.287c-7.471-4.115-15.361-7.656-24.018-8.564   c16.64-8.693,33.331-17.251,50.124-25.538c-0.149,0.121-0.305,0.227-0.452,0.352c-1.032,0.856-2.246,1.55-3.202,2.458   c-0.019,0.085-0.005,0.159,0.041,0.22c5.642,3.903,13.16,1.469,19.706,1.836c7.814,0.832,15.779,2.97,22.512,6.288   c8.967,4.781,17.01,12.066,25.517,18.319c6.736,5.305,15.473,11.052,20.55,16.61c5.316,4.731,12.854,15.78,14.493,19.513   c2.689,5.304,5.456,10.779,6.123,16.977c0.083,0.866,0.147,1.583,0.203,2.249c-3.822-5.115-7.675-11.409-11.988-16.072   c-3.377-3.561-5.723-8.36-9.815-11.072c-4.203-2.434-7.745-2.21-10.699-3.672c-8.933-3.582-21.336-10.264-31.507-15.525   c-7.596-4.32-15.795-7.604-22.91-12.735c-6.746-4.576-12.001-10.964-17.481-17.016c-0.783-0.99-1.566-1.981-2.349-2.971   c0.123,0.204,0.244,0.41,0.367,0.615c4.026,6.354,8.251,12.721,13.614,17.877c7.074,6.966,16.067,11.214,24.288,16.53   c11.678,7.141,30.821,18.268,39.553,19.838c1.377,1.648,8.143,10.589,11.614,14.85c3.21,4.112,5.732,8.805,9.12,12.762   c2.663,3.283,6.071,5.728,10.049,7.047c0.03,0.012,0.049,0.02,0.076,0.031c0.077,0.036,0.21,0.098,0.44,0.2   c2.291,1.096,5.146,1.62,7.672,0.488c0.528-0.244,0.887-0.647,1.078-1.209c-0.07-5.702-0.011-11.561-1.646-16.923   c-3.416-9.827-8.539-18.988-15.033-26.73c-9.502-11.637-22.339-19.165-34.232-27.8c-9.136-6.157-17.911-13.235-28.539-16.652   c-8.688-2.654-17.918-4.926-27.284-3.671c-3.704,0.483-7.583,1.24-11.037-0.026c0.234-0.191,0.493-0.482,0.807-0.734   c1.363-1.233,2.697-2.505,4.123-3.655c0.244-0.193,0.509-0.347,0.76-0.527c-1.674,1.6-3.341,3.207-5.022,4.798   c3.08-2.366,6.134-4.771,9.195-7.165c20.997-10.222,42.156-20.014,63.57-29.127c10.036-4.343,20.088-8.689,30.172-12.938   c-1.527,5.807-0.552,11.883-0.039,17.625c1.989,18.436,8.483,35.407,15.732,51.748c2.092,5.132,3.88,10.532,7.113,14.958   c4.978,6.522,11.731,11.157,18.077,16.091c14.702,11.628,32.076,18.868,50.235,23.391c14.469,4.056,29.04,7.788,43.806,10.831   c23.337,4.899,46.665,9.929,70.633,11.914c2.942,0.168,5.994,1.375,8.927,0.057c0.532-0.369,1.243-0.852,1.067-1.579   c0.043-0.754-0.552-1.428-1.107-1.825c-4.192-2.581-9.605-2.225-13.989-3.978c-23.422-7.806-45.911-19.014-65.086-34.666   c-11.004-8.696-22.791-16.353-33.104-25.969c-18.055-17.713-35.236-36.422-54.188-53.132c-0.708-0.672-1.435-1.318-2.173-1.948   c9.17,3.352,18.358,6.658,27.518,10.033c18.038,6.351,36.64,12.269,50.935,19.66c8.017,4.372,15.539,9.701,23.934,13.374   c11.534,4.907,23.755,8.102,35.787,11.685c12.604,3.224,24.949,7.432,37.83,9.662c8.363,1.433,16.996,1.1,25.569,0.627   c19.962-2.055,40.189-4.464,59.281-0.035c7.901,1.289,15.213,3.027,22.335,6.621c1.338,0.713,2.701,1.464,3.91,2.398   c-10.515,0.616-21.006,0.421-31.532,1.172c-14.955,1.049-27.373,1.982-41.524,1.52c-6.072-0.587-11.384-2.276-17.108-3.743   c-9.632-2.558-17.969-4.69-27.792-7.638c13.668,5.186,27.357,10.563,41.61,14.124c11.094,1.879,23.881,1.257,35.356,1.271   c16.719-0.949,27.214-0.923,42.934-1.172c4.353-0.581,15.609,0.647,7.471-6.563c-7.377-6.017-16.682-9.043-25.849-11.316   c-20.375-4.848-41.633-5.789-62.924-2.863c-9.497,1.101-19.098,1.901-28.487,1.007c-7.153-0.825-13.981-2.853-20.85-4.744   c-17.875-4.986-36.175-9.181-53.182-16.516c-6.984-3.481-13.546-7.739-20.315-11.607c-8.183-4.25-16.813-7.502-25.396-10.876   c-23.09-8.102-46.23-16.104-69.072-24.851c-1.46-0.562-2.894-1.18-4.319-1.82c-0.347-0.279-0.699-0.551-1.041-0.836   c-3.549-3.059-7.431-5.635-11.508-7.89c0.717,0.089,1.417,0.168,2.067,0.23c1.092,0.239,1.079,0.139,1.836,0.387   c0.914,0.285,1.815,0.605,2.721,0.913c0.455,0.167,0.597,0.206-0.182-0.106c12.476,5.106,31.573,9.948,47.235,11.643   c16.181,3.039,32.46,5.792,48.383,9.806c15.765,3.803,30.113,8.962,49.099,11.679c13.209,2.423,26.71,3.523,39.773,6.575   c8.108,1.688,16.273,3.673,23.223,8.222c2.716,2.304,12.838,4.914,10.222-2.116c-1.846-3.72-5.396-5.976-7.89-9.156   c-6.395-6.751-13.021-13.43-20.68-18.625c-16.612-10.442-35.947-15.366-54.735-20.736c-19.212-5.661-38.688-10.621-58.672-13.48   c-19.341-3.101-39.324-1.721-59.074,1.076c-11.133,1.387-22.238,3.357-33.272,5.884c-0.201-0.048-0.405-0.079-0.608-0.119   c23.663-9.77,47.557-18.745,71.999-25.292c19.564-5.335,39.475-7.606,59.296-9.792c30.538-3.503,61.09-6.396,91.635-9.502   c22.56-2.024,44.905,0.016,67.033,2.373c6.771,0.65,13.497,1.526,20.187,2.562c0.826,0.177,1.652,0.353,2.477,0.529   c7.452,1.621,14.857,3.937,21.328,7.942c9.137,6.543,17.643,14.244,23.76,24.027c7.393,11.384,15.711,22.02,23.794,32.836   c9.041,11.804,17.812,23.953,28.494,34.17c11.002,10.552,22.98,20.757,35.169,29.8c8.949,6.492,19.065,11.03,28.244,17.151   c19.582,12.014,35.078,22.837,55.437,35.858c5.179,3.084,9.977,6.78,15.164,9.838c4.45,2.066,9.206,3.727,14.063,4.622   c1.458,0.065,3.531-0.018,4.244-1.656c0.15-1.445,0.521-2.872,0.671-4.316c0.479-5.617-2.964-10.109-5.312-14.614   c-4.598-8.164-11.91-22.617-18.753-32.493c-18.195-24.517-43.464-41.633-67.054-59.924c-12.487-9.476-24.872-19.136-38.266-27.261   c-17.374-10.917-35.853-19.847-54.199-28.978c-17.367-8.636-34.631-17.496-52.698-24.625c7.726,1.515,15.406,3.221,23.045,5.073   c13.038,2.683,20.487,5.175,33.947,9.528c25.955,7.603,50.874,17.879,76.031,27.56c40.745,15.482,75.332,30.375,113.859,47.976   c3.776,1.668,7.525,3.391,11.263,5.137c1.837,1.172,3.705,2.29,5.607,3.343c-1.278-0.137-2.557-0.264-3.83-0.44   c1.505,0.313,3.018,0.583,4.533,0.839c0.248,0.135,0.503,0.256,0.751,0.388c0.405,0.769,1.2,1.504,2.34,2.03   c0.205,0.161,0.508,0.31,0.85,0.452c-0.422,0.442-0.844,0.882-1.263,1.327c0.49-0.412,0.984-0.825,1.478-1.238   c0.828,0.309,1.928,0.553,3.107,0.683c4.131,1.925,8.351,3.675,12.623,5.297c8.632,4.263,17.254,8.545,25.934,12.71   c9.81,4.249,19.821,8.036,29.955,11.501c-0.823,1.234,1.802,2.306,2.773,2.365c0.338,0.05,0.7,0.148,1.061,0.248   c1.637,0.983,3.172,2.133,4.758,3.198c4.045,2.74,7.974,5.689,11.488,9.119c-0.121-0.022-0.243-0.045-0.364-0.066   c0.133,0.033,0.265,0.068,0.398,0.1c1.109,1.085,2.18,2.215,3.196,3.406c3.882,4.451,8.031,8.664,12.537,12.412   c0.768,0.485,1.56,0.926,2.358,1.356c8.779,6.515,18.714,11.426,28.376,16.416c4.683,2.252,8.301,6.389,13.195,9.309   c8.293,5.33,17.088,9.84,25.831,14.368c13.952,6.666,29.862,10.417,42.975,14.183c6.07,2.06,12.154,4.082,18.217,6.162   c6.15,2.045,11.801,4.562,17.045,3.741c1.138-0.149,2.568-1.428,1.766-2.584c-2.55-3.027-5.912-5.365-8.79-8.088   c-9.381-7.997-18.765-15.996-28.748-23.189c-4.649-3.694-9.078-7.712-14.311-10.552c-28.301-14.951-58.941-25.231-90.377-32.307   c1.864,0.302,3.742,0.545,5.648,0.653c-6.141-1.115-12.182-2.597-18.243-4.009c2.104,0.775,4.251,1.427,6.418,2.01   c-3.334-0.704-6.673-1.386-10.021-2.022c-1.086-1.606-2.161-3.22-3.639-4.465c-1.503-1.283-3.3-2.103-5.082-2.927   c-1.165-1.149-2.442-2.17-3.854-3.015c-0.898-0.67-1.81-1.332-2.742-1.959c7.376,2.318,14.792,4.52,22.266,6.528   c38.791,10.12,79.524,15.354,120.485,11.642c15.876-1.624,31.731-4.488,47.323-9.01c17.083-3.971,33.98-9.297,50.33-16.513   c22.366-10.323,44.612-22.427,63.625-39.215c5.164-4.577,10.088-9.443,15.005-14.314c1.832-1.811,3.614-3.701,4.989-5.92   C1450.807,1801.227,1450.922,1800.894,1450.852,1800.525z M1064.055,1831.235c8.152-1.107,16.12-3.612,24.19-5.442   c1.58-0.495,3.165-0.958,4.748-1.423c1.458-0.254,2.916-0.508,4.367-0.732c-0.817,0.042-1.634,0.111-2.45,0.163   c2.628-0.794,5.241-1.65,7.798-2.769c4-1.267,8.179-1.368,12.142-2.851c1.172-0.433,5.368-1.983,2.695-1.193   c-2.595,0.775-5.217,1.191-7.845,1.526c12.066-3.575,24.776-5.371,35.967-12.013c6.57-4.372,12.09-10.338,18.715-14.622   c8.788-6.121,17.922-11.633,26.522-18.071c11.591-8.267,23.299-16.57,35.6-23.496c1.491-0.805,3.058-1.606,4.597-2.328   c-6.787,5.48-11.099,8.099-17.699,13.82c-4.914,4.608-9.063,10.068-14.004,14.65c-12.617,10.838-25.815,25.314-37.346,33.142   c-7.064,5.185-11.926,10.276-18.672,12.893c-21.672,5.557-42.788,7.825-65,8.787c-5.604,0.27-11.213,0.499-16.81,0.578   C1062.399,1831.657,1063.227,1831.451,1064.055,1831.235z M817.449,1713.938c5.979-2.565,12.01-5.096,17.59-8.671   c6.766-4.644,13.082-10.166,19.187-15.764c11.912-12.642,23.542-25.578,35.12-38.558c11.615-12.431,22.539-23.609,35.314-31.214   c14.25-8.628,28.851-16.542,42.703-25.945c8.802-4.884,17.82-9.252,26.432-14.581c4.712-2.791,9.526-5.378,14.14-8.366   c4.584-2.987,9.43-6.576,14.197-9.27c-1.853,5.283-4.398,9.791-7.041,14.198c-5.424,8.939-11.2,17.669-17.423,26.051   c-30.501,40.443-66.524,72.817-111.795,90.375c-21.887,8.653-44.288,15.213-66.478,22.626c-6.25,2.014-12.474,4.156-18.706,6.257   C806.284,1718.722,811.847,1716.261,817.449,1713.938z M654.183,1602.667c-0.605-4.424-1.104-5.616-0.303-9.551   c0.587-1.857,0.728-2.616,1.175-3.333c0.923,0.295,1.888,0.589,2.253,0.657c2.896,0.818,4.961,1.845,5.858,2.396   c5.212,3.672,8.996,6.47,12.131,12.086c7.921,16.702,4.289,43.959-3.229,65.527c-3.351,9.945-6.979,19.845-11.186,29.486   c-1.049,1.99-2.15,3.952-3.271,5.902c0.884-4.124,1.009-8.349,1.119-12.511c0.277-5.859,1.29-11.707,1.255-17.561   c-0.431-19.969-3.511-39.535-4.399-59.447C655.137,1611.765,654.897,1607.163,654.183,1602.667z M290.716,1803.65   c4.637-17.684,14.123-29.394,22.94-45.888c7.937-13.831,15.72-27.742,23.09-41.885c0.129-0.23,0.309-0.567,0.513-0.955   c-1.103,6.781-2.739,14.069-4.023,20.439c-2.988,10.832-8.151,20.964-13.013,31.098c-8.746,17.979-17.687,35.988-28.82,52.627   c-1.522,2.04-3.12,4.013-4.755,5.955C287.552,1816.946,287.924,1812.202,290.716,1803.65z M301.744,1855.564   c11.792,5.936,19.105,11.078,30.872,19.166c8.193,5.694,20.127,13.335,19.99,20.375c-0.013,0.015-0.023,0.03-0.036,0.045   c-0.28,0.184-0.975,0.642-1.343,0.744c-0.001,0-0.001,0-0.002,0c0,0-0.002,0.001-0.002,0.001c-0.007,0.002-0.018,0.008-0.025,0.01   c-0.388,0.077-0.175,0.046-0.015,0.016c-0.075,0.05-0.2,0.089-0.333,0.118c0.017,0,0.021,0.001,0.031,0.002   c-0.017,0.002-0.029,0.002-0.075,0.008c-0.02,0.004-0.038,0.007-0.057,0.011c-0.005-0.001-0.01-0.001-0.016-0.002   c-0.004,0-0.009,0.001-0.013,0.001c0.007,0.001,0.015,0.001,0.021,0.002c-0.013,0.002-0.026,0.005-0.039,0.007   c-0.022,0-0.039,0.001-0.063,0.001c-0.097,0.01-0.194,0.018-0.259,0.015c0.072-0.01,0.121-0.015,0.177-0.021   c-0.107-0.007-0.225-0.02-0.357-0.05c0.205,0.017,0.343,0.03,0.445,0.039c0.006-0.001,0.017-0.002,0.023-0.003   c-0.266-0.034-0.781-0.109-1.074-0.211c-5.539-2.655-21.364-9.755-30.656-14.578c-6.271-3.078-12.626-5.981-19.117-8.582   c-3.174-1.308-6.635-1.948-9.469-3.982c-6.509-4.11-11.162-10.551-17.238-15.247c-0.456-0.402-0.93-0.785-1.394-1.179   c1.847-0.975,3.697-1.942,5.545-2.914C286.068,1849.698,293.292,1850.677,301.744,1855.564z M523.586,1765.048   c25.811,2.017,50.759,8.588,75.283,15.729c18.609,5.573,38.625,9.955,53.81,22.615c5.163,4.61,10.279,9.409,14.988,14.561   c-5.788-2.157-11.832-3.701-17.96-4.907c-16.232-3.577-32.947-5.021-49.252-8.324c-11.872-2.116-20.801-5.514-34.638-8.887   c-20.548-5.216-41.469-9.331-62.554-12.421c-13.267-2.162-18.778-4.28-27.671-6.958c-6.169-2.293-13.215-4.796-19.538-4.951   c-1.546-0.229-3.07-0.795-4.617-1.349C475.473,1766.376,499.672,1764.286,523.586,1765.048z M447.693,1778.82   c4.54,3.635,9.644,6.435,14.956,8.847c2.865,2.242,5.728,4.493,8.743,6.535c16.673,14.02,31.317,28.822,45.109,42.866   c13.401,14.971,28.862,27.592,45.166,38.966c17.519,14.673,37.354,26.251,58.449,34.877c-23.728-4.688-47.571-8.989-70.964-14.931   c-12.775-3.534-26.63-6.717-39.165-11.946c-9.096-3.93-17.335-9.527-25.182-15.56c-5.321-4.173-11.094-8.075-14.813-13.996   c-2.504-3.837-5.138-11.927-8.128-18.245c-6.329-14.01-11.318-28.862-13.348-44.595   C447.981,1787.252,447.353,1782.641,447.693,1778.82z M841.417,1769.228c15.433,8.333,30.576,17.249,45.09,27.131   c13.387,9.47,26.24,19.706,39.312,29.623c23.426,17.8,47.497,36.585,61.307,64.087c5.087,9.625,9.488,16.242,12.82,23.887   c0.924,2.473,0.886,3.638,0.593,5.473c-0.711-0.242-1.385-0.491-1.986-0.753c-22.159-13.811-43.615-28.831-65.824-42.593   c-9.164-6.192-18.97-11.279-28.347-17.104c-8.73-5.651-16.424-12.742-24.436-19.381c-20.799-16.59-35.86-39.267-52.979-59.696   c-8.808-10.01-15.926-21.701-25.796-30.619c-3.403-2.982-6.994-5.772-10.731-8.331   C807.59,1750.075,824.277,1760.075,841.417,1769.228z M774.497,1732.873c-2.285-0.734-4.615-1.343-6.968-1.867   c1.681,0.302,3.356,0.627,5.032,0.948C773.208,1732.26,773.854,1732.565,774.497,1732.873z M1044.364,1826.634   c-0.042-0.02-0.083-0.04-0.125-0.06c0.63-1.728,1.265-3.455,1.995-5.147c3.356-8.634,9.428-15.707,14.725-23.156   c7.652-9.313,9.277-21.581,15.055-31.903c10.502-17.123,21.726-34.217,27.884-53.461c1.917-5.197,2.414-10.773,4.324-15.953   c6.958,16.504,3.784,40.502-4.315,60.074c-6.12,14.515-15.192,27.584-26.005,40.511c-6.041,6.753-12.337,13.244-18.663,19.704   c-2.202,1.272-4.363,2.63-6.468,4.092c1.7-0.812,3.371-1.695,5.025-2.616c-1.013,1.033-2.022,2.07-3.035,3.103   c-2.589,1.822-5.224,3.562-7.901,5.228C1046.006,1826.905,1045.173,1826.761,1044.364,1826.634z M1047.897,1827.222   c1.105-0.537,2.197-1.103,3.265-1.719c-0.633,0.649-1.269,1.294-1.901,1.944C1048.795,1827.376,1048.35,1827.298,1047.897,1827.222   z M1242.56,1919.877c12.766,9.242,26.769,20.397,39.771,31.686c-17.346-6.502-32.975-9.169-49.724-15.817   c-7.709-2.89-16.697-8.307-25.353-12.673c-6.447-3.265-11.013-7.275-17.211-11.251c-12.982-6.551-27.392-12.441-38.458-20.832   c-3.043-2.42-5.868-5.141-8.314-8.221c-0.354-0.462-0.686-0.944-1.017-1.426C1176.894,1890.363,1211.067,1902.471,1242.56,1919.877   z M1423.905,1815.68c-12.27,11.71-25.041,19.587-40.508,28.413c-22.615,12.907-46.776,22.196-71.456,27.788   c-15.473,4.424-31.155,7.591-46.917,9.073c-11.113,1.021-22.204,1.305-33.239,0.997c0.937-0.176,1.875-0.353,2.808-0.529   c6.043-1.662,12.138-3.026,18.176-4.714c6.617-2.437,13.121-5.292,19.61-8.168c-2.993,1.762-6.073,3.359-9.136,4.94   c-4.235,2.087-8.539,3.989-12.824,5.931c10.862-3.723,21.927-7.294,32.027-13.337c12.641-7.9,22.12-20.347,34.252-29.039   c8.401-6.049,18.178-8.385,27.658-11.089c15.742-5.111,31.929-6.339,47.978-8.244c8.203-0.789,16.437-0.506,24.616-2.259   c3.217-0.611,6.421-1.373,9.596-2.289C1425.655,1813.988,1424.771,1814.828,1423.905,1815.68z" />
</g>
</svg>