<?xml version="1.0" encoding="utf-8"?>
<svg version="1.1" xmlns="http://www.w3.org/2000/svg" xmlns:xlink="http://www.w3.org/1999/xlink" xml:space="preserve" viewBox="37 41 151 281">
<path d="M84.753,314.788c-0.25,0.639-0.452,1.322-0.774,1.943c-0.468,0.902-1.119,1.633-2.236,1.719
		c-0.604,0.047-1.088-0.144-1.46-0.657c-1.126-1.553-1.411-3.192-0.586-4.971c0.889-1.917,1.722-3.861,2.67-5.749
		c2.656-5.286,5.339-10.559,8.049-15.818c1.645-3.193,3.365-6.346,5.036-9.525c1.442-2.743,2.936-5.461,4.279-8.252
		c3.941-8.187,7.777-16.422,11.005-24.924c1.076-2.834,2.022-5.709,2.66-8.68c0.182-0.85,0.22-1.666-0.139-2.481
		c-0.374-0.849-0.952-1.401-1.931-1.355c-1.335,0.064-2.673,0.111-4,0.254c-1.047,0.113-2.076,0.392-3.12,0.542
		c-2.384,0.342-4.673,1.008-6.908,1.896c-2.171,0.863-4.462,1.272-6.751,1.677c-0.784,0.138-1.631,0.197-2.252-0.272
		c-0.79-0.597-1.543-0.495-2.392-0.342c-1.133,0.204-2.246,0.067-3.308-0.402c-1.244-0.549-1.456-0.779-2.046-2.29
		c-1.354,0.082-2.745,0.174-4.136,0.247c-0.849,0.044-1.69,0.013-2.481-0.366c-0.711-0.341-0.948-0.764-0.765-1.524
		c0.146-0.609,0.344-1.206,0.556-1.938c-0.449-0.24-0.838-0.529-1.274-0.667c-1.207-0.383-2.437-0.695-3.653-1.052
		c-0.539-0.159-1.089-0.311-1.595-0.549c-1.285-0.606-1.407-0.882-1.295-2.458c0.009-0.129-0.067-0.265-0.131-0.496
		c-1.885-0.651-4.185-0.874-4.815-3.517c0.339-0.611,0.708-1.277,1.137-2.051c-0.435-0.275-0.817-0.554-1.231-0.773
		c-0.808-0.427-1.653-0.789-2.446-1.241c-0.484-0.276-0.946-0.624-1.337-1.02c-1.037-1.049-1.105-1.769-0.341-3.005
		c0.257-0.415,0.564-0.798,0.927-1.307c-0.326-0.29-0.597-0.59-0.923-0.81c-1.224-0.829-2.476-1.618-3.697-2.451
		c-0.825-0.563-1.493-1.282-1.93-2.198c-0.439-0.921-0.399-1.773,0.354-2.519c0.545-0.54,1.107-1.063,1.743-1.671
		c-0.281-0.281-0.51-0.53-0.761-0.757c-0.992-0.898-1.997-1.781-2.985-2.685c-0.363-0.332-0.745-0.665-1.022-1.063
		c-1.283-1.842-1.807-2.615,0.37-4.446c0.257-0.217,0.489-0.463,0.817-0.776c-0.889-1.21-1.973-2.107-2.952-3.102
		c-0.54-0.549-1.134-1.088-1.515-1.741c-0.677-1.161-0.627-1.787,0.452-2.531c0.284-0.196,0.543-0.429,0.86-0.682
		c-0.244-0.895-0.91-1.453-1.417-2.102c-0.66-0.844-1.177-1.733-1.398-2.805c-0.167-0.806,0.058-1.371,0.727-1.805
		c0.409-0.265,0.807-0.548,1.304-0.887c-0.205-0.4-0.346-0.788-0.58-1.107c-0.498-0.682-1.076-1.306-1.558-1.998
		c-0.359-0.515-0.729-1.068-0.902-1.66c-0.508-1.74-0.705-2.308,1.252-3.173c0.252-0.112,0.486-0.266,0.847-0.466
		c-0.202-0.463-0.387-0.889-0.575-1.314c-0.341-0.77-0.792-1.511-1.002-2.315c-0.383-1.468,0.311-2.636,1.753-3.13
		c0.652-0.224,1.333-0.364,1.911-0.517c0.308-0.494,0.058-0.791-0.122-1.074c-0.378-0.594-0.863-1.132-1.161-1.761
		c-0.326-0.687-0.567-1.436-0.703-2.184c-0.138-0.76,0.236-1.38,0.94-1.73c0.562-0.279,1.151-0.504,1.848-0.805
		c-0.13-0.407-0.264-0.781-0.367-1.163c-0.254-0.947-0.58-1.887-0.713-2.852c-0.129-0.939,0.251-1.401,1.167-1.754
		c0.582-0.224,1.181-0.405,1.893-0.646c-0.153-0.607-0.25-1.148-0.429-1.661c-0.333-0.954-0.394-1.92-0.287-2.916
		c0.093-0.869,0.508-1.429,1.367-1.665c0.735-0.202,1.459-0.44,2.092-0.633c0.463-0.859-0.046-1.506-0.084-2.186
		c-0.042-0.767-0.185-1.543-0.109-2.297c0.109-1.083,0.761-1.791,1.863-2.02c0.743-0.154,1.487-0.305,2.167-0.444
		c0.271-0.805-0.157-1.35-0.331-1.943c-0.305-1.039-0.367-2.07-0.029-3.115c0.33-1.019,0.974-1.689,2.034-1.937
		c0.54-0.126,1.076-0.268,1.679-0.419c0-0.478,0.007-0.879-0.002-1.279c-0.012-0.561-0.09-1.126-0.041-1.68
		c0.067-0.764,0.501-1.306,1.246-1.549c0.595-0.194,1.2-0.358,1.788-0.532c0.481-0.785,0.214-1.573,0.225-2.324
		c0.014-0.922,0.058-1.82,0.469-2.678c0.475-0.991,1.192-1.567,2.319-1.47c0.697,0.06,1.391,0.179,2.078,0.312
		c0.474,0.092,0.935,0.252,1.555,0.424c0.066-0.434,0.148-0.747,0.151-1.061c0.003-0.35-0.088-0.699-0.102-1.05
		c-0.072-1.821,0.282-2.275,2.113-2.766c0.198-0.053,0.383-0.156,0.664-0.273c0.118-0.43,0.262-0.892,0.367-1.363
		c0.092-0.412,0.118-0.838,0.21-1.25c0.559-2.524,2.442-3.621,4.913-2.86c0.335,0.103,0.646,0.281,0.976,0.401
		c0.318,0.116,0.648,0.203,1.134,0.353c0.02-0.468,0.074-0.8,0.04-1.123c-0.059-0.558-0.25-1.111-0.247-1.665
		c0.006-1.349,0.347-2.526,1.873-2.935c0.193-0.052,0.358-0.211,0.632-0.379c-0.03-0.305-0.005-0.66-0.106-0.974
		c-0.317-0.986-0.374-1.912,0.245-2.829c0.178-0.264,0.174-0.669,0.201-1.014c0.193-2.459,0.224-2.517,2.435-3.9
		c0-0.41-0.012-0.89,0.003-1.37c0.017-0.561,0.017-1.126,0.098-1.679c0.169-1.164,0.755-1.951,2.022-2.07
		c0.345-0.033,0.684-0.13,1.139-0.221c0.087-0.472,0.184-0.935,0.256-1.402c0.191-1.248,0.35-2.502,0.567-3.746
		c0.071-0.409,0.246-0.812,0.437-1.185c0.421-0.821,1.076-1.313,2.044-1.174c0.898,0.13,1.788,0.314,2.852,0.505
		c0.132-0.234,0.393-0.555,0.508-0.922c0.55-1.743,1.061-3.498,1.586-5.248c0.101-0.336,0.173-0.685,0.314-1.004
		c0.341-0.769,0.901-1.243,1.796-1.22c0.483,0.013,0.968,0.002,1.503,0.002c0.437-0.879,0.507-1.791,0.664-2.683
		c0.134-0.761,0.249-1.537,0.493-2.266c0.395-1.18,0.968-1.479,2.253-1.334c0.278,0.032,0.554,0.079,0.833,0.103
		c0.058,0.005,0.123-0.061,0.327-0.171c0.059-0.212,0.21-0.528,0.229-0.853c0.238-4.077,0.65-8.146,0.5-12.239
		c-0.075-2.055,0.137-4.081,0.729-6.058c0.253-0.845,0.262-0.842,1.22-1.769c0.304,0.363,0.715,0.673,0.879,1.082
		c0.549,1.368,1.066,2.756,1.487,4.168c0.361,1.212,0.528,2.48,0.86,3.703c0.608,2.241,1.267,4.469,1.923,6.697
		c0.076,0.26,0.265,0.486,0.368,0.668c0.197,0.101,0.319,0.215,0.445,0.22c1.522,0.057,2.04,1.061,2.208,2.361
		c0.072,0.556,0.047,1.124,0.073,1.686c0.032,0.691,0.07,1.382,0.11,2.152c1.507,0.392,2.383,1.298,2.571,2.878
		c0.463,0,0.867,0.04,1.259-0.008c0.819-0.101,1.425,0.248,1.704,0.957c0.461,1.173,0.809,2.391,1.193,3.593
		c0.17,0.533,0.297,1.079,0.472,1.61c0.036,0.109,0.204,0.173,0.407,0.334c0.394-0.137,0.846-0.31,1.306-0.453
		c1.477-0.46,2.656-0.098,3.443,1.231c0.459,0.774,0.796,1.66,0.995,2.539c0.279,1.23,0.377,2.501,0.553,3.754
		c0.048,0.339,0.098,0.677,0.167,1.154c0.494-0.18,0.871-0.337,1.259-0.454c0.536-0.161,1.074-0.371,1.623-0.42
		c2.13-0.192,3.525,0.926,3.817,3.041c0.095,0.687,0.09,1.388,0.137,2.188c0.573,0.137,1.107,0.252,1.634,0.394
		c0.693,0.187,1.08,0.665,1.114,1.37c0.037,0.764,0.008,1.531,0.008,2.292c0.596,0.56,1.35,0.324,2.024,0.434
		c1.331,0.217,2.088,0.773,2.291,2.101c0.168,1.097,0.093,2.238,0.055,3.357c-0.031,0.904-0.334,1.795-0.17,2.839
		c0.39,0.079,0.782,0.164,1.177,0.236c0.414,0.075,0.844,0.091,1.245,0.21c1.432,0.423,2.137,1.271,2.142,2.763
		c0.003,0.833-0.185,1.674-0.353,2.498c-0.126,0.616-0.357,1.21-0.526,1.762c0.215,0.72,0.881,0.72,1.342,0.999
		c1.404,0.849,1.986,2.207,1.49,3.785c-0.229,0.729-0.608,1.42-0.979,2.095c-0.473,0.86-1.007,1.686-1.469,2.453
		c0.1,0.258,0.125,0.406,0.204,0.514c0.366,0.501,1.031,0.811,1.063,1.521c0.039,0.867-0.202,1.693-0.692,2.397
		c-0.398,0.571-0.892,1.084-1.39,1.575c-0.597,0.588-1.244,1.125-1.786,1.61c0,0.299-0.031,0.446,0.005,0.574
		c0.418,1.481,0.337,1.87-0.763,2.7c-0.501,0.378-1.055,0.729-1.64,0.945c-2.494,0.918-4.247,2.733-5.791,4.768
		c-0.848,1.117-1.565,2.341-2.257,3.565c-1.312,2.319-1.42,4.825-0.986,7.389c0.047,0.276,0.127,0.55,0.22,0.814
		c0.335,0.954,0.806,1.228,1.776,0.983c1.104-0.278,2.108-0.773,3.035-1.441c1.555-1.119,2.946-2.411,4.113-3.926
		c1.288-1.672,2.517-3.389,3.783-5.079c0.379-0.506,0.766-1.013,1.203-1.468c0.657-0.687,1.388-1.183,2.435-0.798
		c0.747,0.274,1.373-0.067,1.924-0.562c0.419-0.376,0.801-0.803,1.255-1.13c0.567-0.408,1.155-0.828,1.798-1.081
		c1.065-0.418,2.078-0.269,2.883,0.648c0.461,0.525,0.929,1.044,1.339,1.504c0.966,0.225,1.585-0.33,2.251-0.681
		c1.121-0.59,2.194-1.275,3.328-1.838c0.686-0.34,1.434-0.588,2.182-0.76c0.906-0.209,1.712,0.113,2.188,0.913
		c0.389,0.655,0.717,1.376,0.913,2.111c0.44,1.646,0.476,3.34,0.397,5.037c-0.026,0.548-0.004,1.097-0.004,1.775
		c0.484,0.04,0.884,0.094,1.285,0.102c0.492,0.009,0.987-0.054,1.477-0.028c2.299,0.123,3.659,1.394,3.855,3.68
		c0.083,0.965,0.029,1.866,0.67,2.765c0.484,0.679,0.039,1.642-0.212,2.448c-0.205,0.658-0.472,1.297-0.678,1.854
		c0.436,0.791,1.165,0.729,1.718,0.982c1.918,0.874,2.723,2.366,2.257,4.442c-0.214,0.952-0.558,1.876-0.873,2.912
		c0.498,0.311,0.952,0.616,1.426,0.885c0.776,0.441,1.083,1.141,0.921,1.96c-0.162,0.818-0.469,1.61-0.753,2.399
		c-0.308,0.852-0.938,1.578-1.028,2.673c0.478,0.206,0.978,0.415,1.473,0.636c1.938,0.867,2.401,1.849,1.692,3.88
		c-0.32,0.917-0.826,1.77-1.298,2.758c0.344,0.325,0.688,0.654,1.035,0.979c1.114,1.045,1.259,1.87,0.479,3.163
		c-0.357,0.592-0.809,1.126-1.279,1.77c0.329,0.325,0.628,0.605,0.909,0.901c0.721,0.76,0.789,1.181,0.178,2.032
		c-0.407,0.567-0.923,1.057-1.402,1.57c-0.384,0.411-0.794,0.798-1.174,1.214c-0.084,0.092-0.088,0.257-0.162,0.496
		c0.423,0.292,0.873,0.603,1.323,0.915c0.727,0.503,0.971,1.208,0.737,2.031c-0.151,0.533-0.399,1.046-0.663,1.537
		c-0.228,0.424-0.541,0.802-0.769,1.132c0.066,0.258,0.071,0.41,0.14,0.522c0.858,1.415,0.856,1.756-0.142,2.939
		c-0.49,0.581-1.027,1.123-1.61,1.757c0.556,0.526,0.993,0.966,1.458,1.373c0.879,0.769,0.93,1.627,0.457,2.656
		c-0.456,0.994-1.072,1.799-1.995,2.392c-0.642,0.413-1.408,0.665-1.961,1.457c0.329,0.554,0.671,1.146,1.031,1.727
		c0.342,0.553,0.266,1.053-0.106,1.563c-0.556,0.762-1.27,1.305-2.136,1.669c-0.616,0.258-1.075,0.635-1.096,1.396
		c-0.017,0.626-0.466,1.025-0.945,1.324c-0.835,0.521-1.706,0.983-2.562,1.469c-0.723,0.411-1.558,0.678-2.025,1.62
		c0.311,0.697,0.647,1.45,0.974,2.185c-0.331,1.208-1.118,1.991-2.067,2.638c-0.348,0.237-0.733,0.419-1.098,0.631
		c-1.264,0.734-1.337,0.753-0.98,2.145c0.278,1.085-0.101,1.794-0.952,2.323c-0.595,0.369-1.246,0.65-1.885,0.944
		c-0.511,0.235-1.039,0.434-1.564,0.638c-0.974,0.38-1.499,1.007-1.247,2.119c0.042,0.186-0.064,0.406-0.097,0.584
		c-0.682,0.75-1.568,0.984-2.476,1.138c-0.624,0.106-1.257,0.154-1.888,0.214c-0.976,0.092-1.579,0.424-1.317,1.641
		c0.059,0.272,0.064,0.559,0.071,0.84c0.013,0.548-0.266,0.943-0.723,1.202c-1.005,0.573-2.092,0.82-3.247,0.74
		c-0.562-0.039-1.121-0.114-1.683-0.157c-0.921-0.071-1.751-0.051-2.546,0.667c-0.457,0.412-1.31,0.551-1.977,0.533
		c-2.387-0.064-4.787,0.271-7.165-0.249c-0.52-0.114-1.105,0.061-1.659,0.106c-0.766,0.062-1.556,0.281-2.292,0.163
		c-2.1-0.339-4.212-0.253-6.316-0.305c-2.137-0.052-4.193-0.432-6.219-1.075c-0.803-0.255-1.62-0.48-2.445-0.641
		c-0.769-0.15-1.409,0.163-1.77,0.859c-0.355,0.684-0.668,1.397-0.927,2.123c-1.016,2.852-1.928,5.744-3.018,8.568
		c-2.104,5.452-4.226,10.898-6.759,16.173c-1.494,3.11-2.904,6.26-4.406,9.366c-1.256,2.597-2.587,5.158-3.89,7.732
		c-1.939,3.831-3.89,7.657-5.824,11.491c-1.744,3.457-3.498,6.91-5.197,10.389c-0.927,1.898-1.725,3.858-2.625,5.77
		c-0.602,1.279-0.828,2.536-0.15,3.854C84.705,314.327,84.705,314.555,84.753,314.788z"/>
</svg>
