<?xml version="1.0" encoding="utf-8"?>
<svg version="1.1" xmlns="http://www.w3.org/2000/svg" xmlns:xlink="http://www.w3.org/1999/xlink" xml:space="preserve" viewBox="570 42 194 272">
<path d="M672.559,309.839c0.239-1.254,0.735-2.412,1.5-3.417c0.655-0.862,0.747-1.724,0.362-2.688
		c-0.598-1.498-1.163-3.011-1.804-4.491c-1.306-3.016-2.64-6.021-3.987-9.02c-2.895-6.446-5.295-13.067-7.221-19.867
		c-1.368-4.829-2.859-9.624-4.243-14.448c-0.691-2.41-1.263-4.854-1.899-7.279c-0.136-0.519-0.28-1.043-0.492-1.533
		c-0.375-0.865-1.018-1.475-1.951-1.712c-1.042-0.265-2.081-0.568-3.141-0.734c-2.419-0.379-4.846-0.715-7.276-1.009
		c-2.12-0.257-4.176,0.105-6.145,0.906c-0.995,0.405-1.986,0.839-2.93,1.349c-2.273,1.227-4.658,2.163-7.125,2.91
		c-0.513,0.155-1.034,0.318-1.51,0.559c-1.356,0.684-2.835,0.927-4.288,1.261c-0.288,0.066-0.593,0.076-0.891,0.08
		c-0.979,0.016-1.772-0.257-2.035-1.341c-0.025-0.101-0.148-0.177-0.331-0.384c-2.836-0.133-5.703-0.572-7.899-2.975
		c0.222-0.706,0.431-1.369,0.64-2.033c-0.454-0.614-1.116-0.766-1.71-1.015c-0.329-0.137-0.686-0.207-1.032-0.301
		c-0.975-0.266-1.586-0.821-1.45-1.943c-0.38-0.256-0.735-0.471-1.061-0.723c-0.377-0.291-0.776-0.574-1.082-0.932
		c-1.255-1.468-1.226-2.31,0.094-3.734c0.398-0.43,0.83-0.83,1.332-1.328c-0.383-0.4-0.687-0.748-1.021-1.064
		c-1.333-1.261-1.87-2.884-2.12-4.635c-0.13-0.912,0.158-1.639,0.985-2.126c0.617-0.364,1.191-0.806,1.826-1.133
		c0.748-0.387,1.458-0.726,1.841-1.588c0.253-0.571,0.961-0.699,1.547-0.781c1.182-0.165,2.372-0.296,3.563-0.364
		c1.907-0.109,3.825-0.005,5.714-0.414c1.125-0.243,2.179-0.618,3.127-1.283c0.535-0.375,0.845-0.841,0.733-1.512
		c-0.206-1.236-0.407-2.473-0.643-3.703c-0.066-0.347-0.223-0.682-0.372-1.006c-1.291-2.806-3.316-3.996-6.356-3.429
		c-3.518,0.657-7.052,1.308-10.368,2.771c-0.863,0.381-1.822,0.55-2.742,0.799c-0.922,0.25-1.867,0.426-2.769,0.731
		c-1.009,0.341-1.88,0.367-2.45-0.628c-1.34,0.054-2.59,0.12-3.841,0.151c-0.97,0.024-1.906-0.169-2.779-0.599
		c-0.849-0.418-1.02-0.799-0.826-1.725c0.071-0.339,0.156-0.676,0.253-1.094c-0.615-0.244-1.164-0.455-1.708-0.679
		c-0.442-0.182-0.887-0.361-1.314-0.574c-1.423-0.71-1.485-0.822-1.509-2.558c-0.826-0.468-1.697-0.975-2.581-1.458
		c-0.959-0.524-1.771-1.218-2.46-2.059c-0.892-1.089-0.859-1.576,0.176-2.599c0.212-0.21,0.46-0.383,0.676-0.589
		c0.213-0.203,0.407-0.427,0.682-0.718c-0.248-0.35-0.444-0.708-0.716-0.995c-0.534-0.563-1.122-1.075-1.665-1.631
		c-0.291-0.297-0.565-0.621-0.792-0.967c-0.438-0.668-0.374-1.044,0.223-1.546c0.312-0.262,0.643-0.503,1.008-0.786
		c-0.836-1.79-1.713-3.465-2.847-4.898c0.563-1.422,1.831-1.707,2.901-2.4c-0.126-0.275-0.192-0.563-0.362-0.759
		c-0.391-0.45-0.857-0.835-1.248-1.286c-0.309-0.357-0.608-0.744-0.808-1.167c-0.422-0.89-0.315-1.241,0.463-2.015
		c0.084-0.083,0.169-0.166,0.241-0.258c0.034-0.044,0.039-0.112,0.071-0.212c-0.391-0.63-0.858-1.258-1.19-1.95
		c-0.359-0.748-0.661-1.539-0.86-2.342c-0.211-0.852,0.068-1.36,0.891-1.732c0.701-0.317,1.452-0.523,2.302-0.82
		c-0.133-0.323-0.229-0.64-0.387-0.924c-0.462-0.835-1.018-1.624-1.408-2.49c-0.583-1.294-0.391-1.715,0.875-2.447
		c0.152-0.088,0.305-0.175,0.517-0.297c-0.359-0.827-0.684-1.654-1.072-2.45c-0.586-1.204-0.797-2.5-1.01-3.797
		c-0.058-0.35-0.044-0.715-0.03-1.072c0.02-0.521,0.263-0.94,0.749-1.128c0.663-0.256,1.347-0.464,2.031-0.659
		c0.332-0.094,0.686-0.111,1.051-0.165c0-0.263,0.03-0.444-0.005-0.612c-0.356-1.755-0.684-3.517-1.098-5.258
		c-0.4-1.684-0.885-3.349-1.346-5.018c-0.222-0.803-0.509-1.596-0.097-2.537c0.325-0.009,0.674-0.076,1.001-0.016
		c0.585,0.106,1.186,0.22,1.729,0.451c2.254,0.957,4.488,1.961,6.731,2.943c0.492,0.215,0.986,0.43,1.492,0.608
		c1.24,0.435,2.487,0.853,3.733,1.269c0.386,0.129,0.781,0.228,1.264,0.368c0.136-0.345,0.268-0.6,0.335-0.871
		c0.13-0.522,0.209-1.056,0.335-1.579c0.386-1.6,0.912-1.979,2.55-1.672c0.815,0.153,1.626,0.417,2.388,0.747
		c2.138,0.925,4.249,1.914,6.374,2.871c0.429,0.193,0.872,0.354,1.235,0.501c0.792-0.3,0.982-0.99,1.372-1.499
		c0.7-0.914,1.087-1.042,2.136-0.603c1.151,0.483,1.972,1.331,2.563,2.409c0.37,0.675,0.707,1.367,1.068,2.069
		c0.23-0.038,0.422-0.024,0.563-0.102c0.559-0.308,1.031-0.155,1.485,0.217c1.036,0.848,1.801,1.901,2.408,3.086
		c0.326,0.637,0.671,1.269,1.069,1.862c0.258,0.385,0.627,0.696,1.013,1.111c0.539-0.355,1.015-0.668,1.547-1.018
		c1.244,0.844,2.077,1.988,2.711,3.27c0.369,0.746,0.598,1.561,0.879,2.348c0.201,0.563,0.36,1.135,0.884,1.519
		c0.514,0.376,0.654,0.968,0.835,1.544c0.285,0.909,0.575,1.821,0.945,2.697c0.909,2.154,1.638,4.34,2.039,6.665
		c0.472,2.738,1.673,5.248,3.213,7.542c1.767,2.633,3.772,5.082,6.35,7.007c1.168,0.872,2.4,1.567,3.818,1.91
		c2.09,0.505,4.186,0.987,6.273,1.508c0.726,0.181,1.248,0.004,1.733-0.575c1.373-1.641,2.362-3.468,2.654-5.597
		c0.235-1.714,0.403-3.443,0.48-5.171c0.127-2.86-0.764-5.457-2.521-7.678c-1.815-2.294-3.78-4.47-5.7-6.68
		c-1.069-1.229-2.391-2.163-3.755-3.032c-1.008-0.643-2.023-1.278-3.072-1.851c-0.676-0.369-1.41-0.638-2.132-0.917
		c-2.115-0.818-4.31-1.43-6.326-2.508c-1.163-0.622-2.025-1.456-2.378-2.862c0.301-0.436,0.633-0.916,1.028-1.488
		c-0.29-0.295-0.551-0.601-0.853-0.86c-0.816-0.699-1.652-1.374-2.476-2.065c-0.183-0.153-0.353-0.323-0.514-0.499
		c-1.278-1.397-1.27-1.919,0.118-3.342c-0.189-0.259-0.378-0.542-0.592-0.805c-0.49-0.602-1.034-1.165-1.473-1.801
		c-0.299-0.432-0.515-0.945-0.667-1.451c-0.217-0.723-0.031-1.129,0.589-1.52c0.252-0.159,0.535-0.267,0.794-0.414
		c0.204-0.116,0.394-0.256,0.644-0.421c-0.034-0.24-0.017-0.486-0.104-0.686c-0.656-1.51-0.769-3.127-0.936-4.73
		c-0.049-0.468,0.007-0.958,0.089-1.425c0.27-1.537,0.62-1.831,2.209-1.987c0.286-0.028,0.566-0.107,0.911-0.175
		c0-0.418,0.04-0.765-0.006-1.1c-0.316-2.277-0.278-4.529,0.401-6.746c0.053-0.171,0.096-0.346,0.153-0.516
		c0.568-1.681,1.032-1.972,2.791-1.679c0.755,0.126,1.499,0.316,2.231,0.473c0.166-0.218,0.322-0.341,0.368-0.496
		c0.541-1.832,1.04-3.677,1.603-5.502c0.316-1.024,0.71-2.026,1.11-3.022c0.103-0.257,0.36-0.452,0.524-0.648
		c0.836-0.07,1.474,0.281,2.093,0.628c1.199,0.671,2.375,1.385,3.556,2.087c0.359,0.214,0.698,0.463,1.062,0.667
		c0.695,0.391,1.351,0.385,1.975-0.187c0.385-0.353,0.708-0.873,1.329-0.806c0.682,0.073,1.245,0.436,1.696,0.931
		c1.769,1.941,3.71,3.723,5.306,5.824c0.541,0.712,1.133,1.391,1.75,2.039c1.117,1.171,2.096,2.441,3.055,3.744
		c0.986,1.34,2.155,2.55,3.289,3.776c0.498,0.538,0.819,0.609,2.312,1.005c0.721-0.442,0.856-1.228,0.942-1.983
		c0.156-1.369,0.164-2.745-0.181-4.098c-0.889-3.483-2.085-6.854-3.625-10.107c-0.715-1.511-1.314-3.077-2.021-4.593
		c-0.58-1.244-1.24-2.451-1.866-3.673c-0.054-0.106-0.125-0.204-0.184-0.308c-0.631-1.115-1.045-2.22,0.238-3.154
		c-0.374-1.615-0.757-3.115-1.058-4.632c-0.162-0.814-0.23-1.655-0.255-2.487c-0.029-0.97,0.318-1.742,1.531-1.793
		c0.238-0.01,0.48-0.036,0.709-0.097c0.383-0.102,0.615-0.372,0.642-0.767c0.037-0.536,0.009-1.077,0.063-1.611
		c0.06-0.593,0.165-1.183,0.282-1.768c0.11-0.552,0.356-1.027,0.954-1.189c0.833-0.225,1.021-0.853,1.177-1.61
		c0.203-0.986,0.452-1.991,0.875-2.898c0.495-1.061,1.003-1.288,2.002-1.011c0.172,0.048,0.351,0.083,0.528,0.098
		c0.586,0.049,0.923-0.154,1.09-0.7c0.331-1.084,0.654-2.17,0.953-3.263c0.34-1.244,0.96-2.305,1.974-3.196
		c0.843-0.131,1.598,0.293,2.394,0.505c0.975,0.26,1.269,0.121,1.625-0.85c0.329-0.897,0.582-1.823,0.926-2.713
		c0.3-0.777,0.662-1.493,1.422-2.005c0.459-0.309,0.719-0.925,1.047-1.417c0.397-0.594,0.724-1.242,1.169-1.796
		c0.47-0.585,0.887-0.619,1.59-0.278c0.368,0.178,0.719,0.391,1.094,0.598c0.745-0.492,1.032-1.218,1.295-1.938
		c0.204-0.559,0.339-1.146,0.479-1.727c0.325-1.349,0.844-2.621,1.576-3.793c0.309-0.495,0.694-0.979,1.145-1.341
		c1.038-0.833,1.593-1.923,1.868-3.177c0.769-3.501,1.506-7.009,2.281-10.508c0.206-0.932,0.495-1.846,0.769-2.761
		c0.044-0.147,0.208-0.259,0.465-0.563c0.11,0.213,0.198,0.36,0.265,0.516c0.38,0.876,0.806,1.737,1.115,2.638
		c0.251,0.73,0.451,1.502,0.516,2.268c0.318,3.749,0.808,7.49,0.733,11.264c-0.018,0.894-0.115,1.787-0.176,2.681
		c-0.051,0.744,0.021,1.383,0.766,1.857c0.352,0.224,0.563,0.753,0.713,1.188c0.152,0.439,0.15,0.932,0.232,1.524
		c0.456-0.07,0.894-0.138,1.361-0.209c0.722,0.447,0.93,1.199,1.144,1.946c0.247,0.862,0.488,1.724,0.735,2.586
		c0.286,0.998,0.87,1.722,1.944,1.867c1.192,0.162,1.568,0.974,1.685,1.994c0.109,0.949,0.149,1.906,0.243,2.858
		c0.045,0.459,0.144,0.912,0.23,1.442c0.747-0.074,1.388-0.138,2.011-0.199c0.802,0.559,0.94,1.408,1.16,2.204
		c0.577,2.084,0.566,2.138,2.651,2.315c1.198,0.102,1.847,0.637,2.109,1.793c0.356,1.569,0.775,3.123,1.224,4.908
		c-0.077-0.104-0.027,0.039,0.067,0.079c1.071,0.462,1.311,1.291,1.094,2.354c-0.13,0.637-0.218,1.283-0.336,1.991
		c0.347,0.185,0.634,0.406,0.957,0.497c0.631,0.179,1.279,0.307,1.927,0.418c1.026,0.176,1.42,0.477,1.304,1.742
		c-0.108,1.179-0.421,2.345-0.712,3.499c-0.29,1.153-0.665,2.285-1.007,3.443c0.424,0.522,0.794,0.977,1.217,1.498
		c-0.01,1.115-0.704,1.935-1.446,2.712c-0.411,0.43-0.898,0.787-1.347,1.182c-0.453,0.398-0.858,0.772-0.79,1.505
		c0.031,0.334-0.274,0.792-0.559,1.043c-0.532,0.47-1.137,0.873-1.754,1.23c-2.176,1.257-4.336,2.535-6.229,4.205
		c-0.805,0.711-1.569,1.469-2.339,2.217c-0.471,0.457-0.9,0.959-1.383,1.404c-1.805,1.662-2.639,3.791-3.002,6.151
		c-0.036,0.236-0.051,0.476-0.055,0.715c-0.022,1.259,0.322,1.631,1.545,1.663c1.03,0.028,2.025-0.17,2.986-0.524
		c2.242-0.827,4.475-1.68,6.721-2.496c0.841-0.305,1.708-0.541,2.565-0.799c0.228-0.068,0.466-0.111,0.701-0.147
		c1.922-0.289,2.319-0.064,3.166,1.761c0.073,0.158,0.185,0.299,0.298,0.478c1.065,0.062,2.132,0.139,3.201,0.182
		c1.892,0.077,3.596,0.83,5.336,1.457c0.512,0.184,0.744,0.571,0.706,1.116c-0.104,1.489-0.174,2.982-0.321,4.466
		c-0.148,1.49-0.545,2.92-1.41,4.277c0.819,0.374,1.603,0.343,2.337,0.517c0.87,0.206,1.742,0.411,2.604,0.651
		c0.513,0.143,0.802,0.536,0.813,1.062c0.013,0.593,0.048,1.208-0.084,1.777c-0.309,1.328-0.712,2.633-1.116,4.087
		c0.357,0.308,0.812,0.679,1.242,1.077c0.428,0.397,0.505,0.793,0.168,1.277c-0.338,0.486-0.721,0.958-1.159,1.354
		c-1.152,1.042-2.344,2.039-3.519,3.055c-0.176,0.152-0.344,0.314-0.582,0.532c0.682,0.702,1.328,1.367,1.886,1.942
		c0.085,0.844-0.314,1.299-0.721,1.736c-1.201,1.293-2.637,2.236-4.296,2.841c-0.779,0.284-1.569,0.487-2.164,1.182
		c-0.439,0.513-1.169,0.56-1.835,0.573c-2.611,0.051-5.047,0.859-7.47,1.72c-0.844,0.3-1.656,0.69-2.503,0.982
		c-1.94,0.669-3.678,1.727-5.396,2.808c-1.886,1.187-3.457,2.757-4.868,4.468c-1.98,2.402-3.751,4.954-5.296,7.662
		c-0.906,1.588-1.521,3.242-1.443,5.103c0.095,2.25,0.828,4.332,1.71,6.366c0.118,0.273,0.51,0.501,0.823,0.6
		c0.507,0.16,1.051,0.244,1.584,0.274c1.133,0.063,2.27,0.101,3.404,0.093c2.675-0.02,4.716-1.265,6.107-3.475
		c1.463-2.325,2.789-4.738,4.164-7.118c0.777-1.346,1.505-2.721,2.311-4.048c0.369-0.606,0.811-1.199,1.332-1.675
		c1.266-1.159,2.137-2.558,2.795-4.12c0.208-0.493,0.467-0.97,0.756-1.42c0.544-0.846,1.266-1.43,2.424-1.344
		c0.264-0.451,0.526-0.911,0.799-1.365c0.762-1.264,1.81-2.216,3.155-2.825c0.908-0.411,1.743-0.381,2.387,0.509
		c0.105,0.144,0.241,0.266,0.357,0.402c0.443,0.516,0.985,0.641,1.615,0.409c0.449-0.165,0.884-0.38,1.343-0.501
		c1.155-0.305,2.321-0.568,3.481-0.851c0.927-0.227,1.853-0.459,2.78-0.688c0.348-0.086,0.692-0.202,1.045-0.247
		c1.327-0.168,1.849,0.178,2.259,1.464c0.163,0.51,0.313,1.023,0.478,1.532c0.015,0.046,0.09,0.073,0.224,0.175
		c0.843-0.24,1.748-0.508,2.659-0.755c0.864-0.235,1.733-0.446,2.599-0.672c0.461-0.12,0.914-0.296,1.382-0.364
		c0.8-0.117,1.539-0.075,1.962,0.826c0.298,0.635,0.916,0.727,1.545,0.598c1.127-0.23,2.187-0.63,3.044-1.432
		c0.741-0.694,1.451-1.421,2.194-2.113c0.742-0.691,1.5-1.366,2.269-2.026c0.164-0.141,0.409-0.189,0.606-0.275
		c0.789,1.229,1.077,1.99,1.166,3.186c0.128,1.728,0.278,3.456,0.335,5.186c0.039,1.185-0.067,2.374-0.111,3.642
		c0.343,0.109,0.668,0.222,0.999,0.315c0.517,0.145,1.051,0.242,1.555,0.423c0.92,0.33,1.184,0.673,1.061,1.608
		c-0.385,2.915-0.944,5.784-2.525,8.341c-0.152,0.246-0.257,0.522-0.352,0.72c0.217,0.593,0.665,0.605,1.069,0.643
		c0.984,0.093,1.839,0.48,2.633,1.045c0.661,0.471,0.954,1.093,0.674,1.865c-0.305,0.838-0.615,1.693-1.07,2.453
		c-0.549,0.918-1.252,1.744-1.89,2.609c-0.241,0.327-0.484,0.651-0.802,1.078c0.558,0.373,1.046,0.69,1.524,1.021
		c1.331,0.922,1.467,1.391,0.62,2.822c-0.577,0.975-1.285,1.871-1.921,2.811c-1.137,1.678-2.263,3.362-3.458,5.138
		c0.489,0.513,0.974,1.022,1.46,1.53c0.419,0.439,0.478,0.915,0.24,1.479c-0.541,1.28-1.498,2.142-2.698,2.763
		c-0.95,0.491-1.898,0.979-2.794,1.723c0.484,0.736,0.934,1.422,1.421,2.165c-0.891,2.133-2.961,2.873-4.728,4.102
		c0.09,1.41-0.934,1.995-2.068,2.494c-0.766,0.336-1.532,0.674-2.285,1.038c-0.256,0.123-0.471,0.329-0.779,0.549
		c0.234,0.661,0.472,1.261,0.658,1.876c0.268,0.887,0.075,1.308-0.747,1.768c-1.042,0.583-2.168,0.632-3.312,0.486
		c-1.123-0.143-2.242-0.321-3.452-0.497c-0.222,0.35-0.436,0.686-0.664,1.043c-0.615,0.362-1.266,0.222-1.884-0.002
		c-1.867-0.674-3.776-1.128-5.759-1.27c-0.294-0.021-0.587-0.115-0.873-0.199c-3.791-1.113-7.688-1.746-11.567-2.42
		c-1.624-0.282-3.334-0.119-5.003-0.081c-1.372,0.032-2.744,0.15-4.11,0.288c-0.766,0.077-1.553,0.182-2.269,0.444
		c-0.533,0.196-1.044,0.596-1.429,1.027c-0.777,0.872-0.743,1.755,0.178,2.502c1.156,0.938,2.413,1.753,3.642,2.599
		c0.491,0.338,1.048,0.581,1.528,0.931c0.53,0.386,1.055,0.819,1.225,1.499c0.219,0.873,0.825,1.432,1.488,1.958
		c0.512,0.406,1.018,0.818,1.533,1.232c0.137,0.831-0.331,1.413-0.744,1.974c-0.674,0.913-1.418,1.773-2.134,2.655
		c-0.226,0.278-0.57,0.52-0.66,0.836c-0.289,1.016-0.834,1.809-1.648,2.478c-0.22,0.181-0.282,0.651-0.278,0.987
		c0.006,0.472,0.135,0.943,0.221,1.413c0.098,0.531-0.102,0.925-0.518,1.244c-1.215,0.934-2.59,1.469-4.102,1.667
		c-0.296,0.039-0.596,0.041-0.895,0.058c-0.668,0.037-1.12,0.367-1.349,0.996c-0.061,0.168-0.109,0.342-0.159,0.514
		c-0.177,0.608-0.648,0.901-1.214,0.867c-0.828-0.05-1.662-0.174-2.469-0.366c-0.975-0.232-1.876-0.733-2.953-0.561
		c-0.36,0.057-0.812-0.19-1.164-0.396c-1.852-1.083-3.743-2.085-5.413-3.482c-1.226-1.025-2.673-1.795-4.058-2.617
		c-1.078-0.64-2.203-1.203-3.325-1.765c-0.585-0.293-1.196-0.546-1.816-0.754c-2.441-0.816-4.94-1.408-7.463-1.906
		c-0.95-0.188-1.886-0.217-2.849-0.076c-0.884,0.13-1.786,0.136-2.68,0.209c-0.476,0.039-0.96,0.058-1.422,0.165
		c-1.044,0.242-1.53,0.794-1.638,1.86c-0.165,1.632,0.125,3.212,0.57,4.778c0.605,2.127,1.143,4.274,1.768,6.394
		c1.404,4.757,2.767,9.528,4.297,14.245c1.105,3.406,2.385,6.76,3.711,10.088c1.082,2.718,2.32,5.375,3.537,8.037
		c1.665,3.641,3.369,7.265,5.071,10.889c0.567,1.206,0.898,2.479,1.032,3.789c0.065,0.637-0.026,1.31-0.161,1.943
		c-0.214,1.006-0.838,1.682-1.847,2.006c-0.506,0.162-0.98,0.423-1.468,0.64C674.472,309.839,673.516,309.839,672.559,309.839z"/>
</svg>
