<?xml version="1.0" encoding="utf-8"?>
<svg version="1.1" xmlns="http://www.w3.org/2000/svg" xmlns:xlink="http://www.w3.org/1999/xlink" xml:space="preserve" viewBox="44 304 211 296">
<path d="M250.683,559.726c-31.157-24.013-71.243-30.138-98.203-14.715c-0.863-7.501-1.727-15.01-2.594-22.54
		c36.792,12.206,68.081,5.354,97.133-17.382c-3.341-1.707-5.896-3.013-9.135-4.667c3.268-1.987,5.641-3.516,9.083-5.608
		C214.014,476.476,182,476.231,148,494.05c0-9.017,0-17.96,0-26.946c36,15.624,72.858,13.153,96.647-6.886
		C211.263,443.641,179,445.409,147,464.195c0-6.622,0-13.13,0-19.636c39,2.313,64.409-18.409,84.854-47.863
		c-0.261-0.797-0.482-1.593-0.743-2.39c-11.073,1.576-22.126,3.151-33.627,4.787c11.344-10.465,23.777-19.766,27.936-37.226
		c-36.671,2.688-61.572,21.282-80.398,50.74c0.819-4.375,2.154-8.793,4.43-12.653c2.586-4.386,6.63-7.954,8.979-12.433
		c12.302-23.462,13.511-53.433,3.502-78.683c-0.582,0.619-1.128,1.145-1.608,1.727c-0.51,0.617-0.933,1.306-1.434,1.932
		c-21.49,26.904-26.936,56.57-15.605,89.253c1.084,3.127,0.997,6.661,1.454,10.006c-11.559-32.403-34.737-54.044-69.471-63.666
		c1.542,18.259,12.433,31.614,23.86,44.324c-10.851-2.921-21.372-5.777-33.988-9.173C80.973,419.632,107,439.263,144,445.315
		c0,5.377,0,11.238,0,16.541c-26-25.049-55.654-34.943-91.825-27.793C77.05,462.432,105,472.253,145,466.045
		c0,8.995,0,17.858,0,26.85c-29-23.061-65.889-29.005-96.608-13.951c13.837,7.556,26.26,14.374,36.165,19.783
		c-9.012,2.082-21.335,4.921-35.247,8.134c35.188,24.699,63.401,28.897,98.517,15.124c0.608,7.404,1.178,14.434,1.771,21.664
		c-40.564-4.689-68.534,5.545-91.527,33.056c16.845,6.201,33.223,3.172,49.38-2.457c16.263-5.665,31.548-13.02,42.116-28.742
		c2.728,18.275,5.189,34.764,7.651,51.253c0.399-0.057,0.798-0.113,1.197-0.17c-1.915-16.639-3.83-33.283-5.752-49.98
		C174.572,568.995,219.569,574.96,250.683,559.726z M143.879,438.732c-5.519-8.467-11.228-17.227-16.9-25.929
		c-0.265,0.137,0.007-0.131,0.189-0.08C145.399,417.838,145.398,417.839,143.879,438.732z M166.153,415.825
		c-5.653,8.474-12.315,18.46-18.996,28.473c-0.746-8.653-1.492-17.307-2.268-26.312C153.546,417.106,161.1,416.338,166.153,415.825z
		 M118.932,503.001c7.41-1.877,16.572-4.198,26.948-6.827c0.605,7.438,1.221,15.009,1.826,22.453
		C137.185,512.913,127.505,507.656,118.932,503.001z M148.473,495.468c4.638,2.917,7.499,4.917,10.546,6.576
		c3.039,1.654,6.263,2.966,9.431,4.439c-5.83,4.492-11.548,8.897-18.295,14.096C149.593,512.19,149.083,504.584,148.473,495.468z"/>
</svg>
