<?xml version="1.0" encoding="utf-8"?>
<svg version="1.1" xmlns="http://www.w3.org/2000/svg" xmlns:xlink="http://www.w3.org/1999/xlink" xml:space="preserve" viewBox="271 331 219 264">
<path d="M383.533,512.356c-1.14,13.773-1.972,27.883-3.575,41.905c-1.282,11.209-3.434,22.323-5.396,33.445
		c-0.235,1.331-1.701,2.444-3.35,3.394c5.754-26.42,10.362-52.804,9.636-79.757c-2.143,5.656-3.665,11.658-6.568,16.893
		c-5.048,9.102-10.189,18.356-16.759,26.337c-4.392,5.335-11.25,8.772-19.045,7.945c-2.959-0.314-5.916-0.655-8.718-0.967
		c-6.038-18.993,4.654-29.641,19.709-38.116c-0.305-0.386-0.609-0.773-0.914-1.159c-3.32,0.84-6.61,1.828-9.966,2.484
		c-4.62,0.904-9.293,1.537-13.937,2.325c-3.082,0.523-6.184,1.71-9.221,1.548c-5.943-0.318-12.385-0.152-17.616-2.462
		c-5.254-2.32-9.35-7.336-13.827-11.314c-2.589-2.301-4.927-4.884-6.732-6.694c2.594-2.74,6.267-6.148,9.367-10.016
		c3.537-4.412,7.93-7.375,13.289-8.51c6.007-1.273,12.138-2.274,18.257-2.582c3.614-0.182,7.33,1.107,10.956,1.929
		c2.377,0.539,4.675,1.424,7.28,1.568c-5.148-2.962-8.332-8.731-14.87-9.645c-1.487-0.208-2.65-2.736-3.964-4.196
		c-0.208-0.231-0.405-0.634-0.635-0.656c-5.015-0.483-8.504-2.941-11.941-6.793c-3.343-3.747-9.115-5.329-12.45-9.08
		c-4.469-5.026-9.07-10.783-10.972-17.03c-2.42-7.95-5.608-16.495-1.366-25.238c1.037-2.138,1.081-5.174,0.524-7.549
		c-0.52-2.217-2.444-4.106-3.807-6.229c0.643-0.178,1.089-0.415,1.19-0.312c6.455,6.547,13.787,1.325,20.694,1.507
		c4.317,0.114,8.538-0.75,12.754,1.639c3.547,2.01,7.729,2.9,11.63,4.286c0.453,0.161,1.022,0.194,1.343,0.494
		c3.981,3.725,7.398,8.457,12.023,10.983c5.063,2.766,3.848,10.053,9.783,11.466c0.128,0.031,0.243,0.222,0.316,0.363
		c3.077,5.975,6.139,11.957,9.229,17.925c0.653,1.261,1.407,2.469,2.771,3.37c-0.814-6.732,0.295-13.674-4.273-19.462
		c-1.223-1.549-3.017-4.784,0.935-6.094c-1.466-2.662-3.201-5.162-4.219-7.926c-0.534-1.45,0.296-3.362,0.308-5.067
		c0.009-1.201-0.152-2.461-0.534-3.595c-1.06-3.139-4.856-5.862-1.163-9.698c0.365-0.379-0.97-2.087-0.951-3.168
		c0.044-2.52,0.416-5.035,0.698-7.547c0.052-0.461,0.576-1.031,0.43-1.329c-2.937-5.98,2.015-10.823,2.428-16.334
		c0.114-1.526,2.056-2.91,3.141-4.372c0.266-0.359,0.705-0.807,0.654-1.153c-0.823-5.572,4.457-7.784,6.634-11.677
		c1.439-2.574,4.403-4.657,7.142-6.071c6.242-3.222,11.839-6.633,10.835-16.392c1.405,1.842,2.046,2.291,2.053,2.75
		c0.115,7.304,4.975,10.386,10.733,13.448c3.462,1.841,5.486,6.314,8.91,8.313c4.622,2.699,3.027,9.177,7.916,11.281
		c0.128,0.055,0.247,0.25,0.278,0.399c1.174,5.702,2.313,11.411,3.517,17.106c0.327,1.548,0.836,3.059,1.278,4.582
		c0.135,0.464,0.583,1.01,0.452,1.351c-2.211,5.761,0.934,12.26-2.575,17.928c-0.722,1.166,0.059,3.236,0.068,4.889
		c0.006,1.083,0.158,2.295-0.259,3.225c-1.349,3.012-2.93,5.92-4.327,8.68c0.468,1.251,1.029,2.572,1.433,3.94
		c0.123,0.418-0.042,1.077-0.32,1.433c-4.615,5.906-4.077,13.248-5.77,21.55c1.745-1.658,3.009-2.367,3.523-3.437
		c1.646-3.422,0.159-8.771,6.136-9.529c0.399-0.051,0.535-1.809,0.876-2.744c1.111-3.045,0.586-7.272,5.47-7.644
		c0.232-0.018,0.627-0.464,0.619-0.699c-0.2-5.623,4.657-8.215,7.672-11.48c3.639-3.941,8.782-6.497,13.287-9.633
		c0.388-0.27,0.917-0.337,1.308-0.605c9.071-6.204,18.778-7.143,29.363-4.523c4.637,1.147,9.983,1.81,13.703-3.676
		c0.215,0.404,0.43,0.808,0.644,1.213c-0.423,0.75-0.703,1.645-1.292,2.226c-4.009,3.955-1.651,8.326-1.087,12.679
		c0.482,3.717,0.694,7.532,0.439,11.263c-0.27,3.956-1.23,7.866-1.897,11.794c-0.055,0.325-0.091,0.694-0.268,0.951
		c-2.87,4.159-5.652,8.386-8.682,12.426c-2.721,3.629-5.718,7.05-8.598,10.558c-0.205,0.25-0.419,0.522-0.689,0.682
		c-5.823,3.447-11.654,6.88-18.481,10.903c-0.18,0.22-1.065,2.412-2.301,2.63c-6.215,1.101-10.301,5.623-15.365,8.952
		c0.63,0.746,1.301,1.54,1.607,1.902c8.177-3.028,16.072-4.267,24.641-3.484c7.697,0.703,14.191,3.36,20.05,7.982
		c1.87,1.475,3.224,3.594,4.865,5.372c2.45,2.656,4.944,5.271,6.816,7.262c-1.729,1.84-4.446,4.53-6.929,7.421
		c-4.449,5.182-9.203,9.895-16.29,11.094c-6.008,1.017-12.051,2.46-18.084,2.485c-4.233,0.018-8.448-2.141-12.717-3.131
		c-5.702-1.321-11.449-2.452-17.345-3.7c5.964,5.742,12.037,10.767,17.085,16.669c5.745,6.715,2.354,15.406,2.923,23.061
		c-1.446-0.099-3.592-0.756-5.459-0.291c-11.427,2.847-20.399-1.886-26.346-10.625c-6.892-10.127-12.038-21.452-17.776-32.345
		C384.424,516.732,384.092,514.232,383.533,512.356z"/>
</svg>
