<?xml version="1.0" encoding="utf-8"?>
<svg version="1.1" xmlns="http://www.w3.org/2000/svg" xmlns:xlink="http://www.w3.org/1999/xlink" xml:space="preserve" viewBox="255 611 292 128">
<path d="M381.344,731.495c-0.842,0.525-1.378,1.149-1.853,1.106c-2.622-0.237-5.275-0.436-7.833-1.017
		c-7.974-1.81-15.986-3.52-23.84-5.77c-7.932-2.271-15.75-4.982-23.512-7.793c-7.103-2.572-13.944-5.902-21.116-8.236
		c-10.439-3.397-21.045-6.298-31.642-9.184c-2.346-0.639-4.95-0.451-7.433-0.429c-2.367,0.021-3.898-0.639-3.897-3.31
		c0-0.52-0.245-1.041-0.451-1.856c1.18-0.133,2.244-0.42,3.28-0.339c4.089,0.321,7.658-0.964,10.814-3.428
		c13.204-10.312,25.786-21.432,39.905-30.552c6.933-4.478,13.781-9.088,20.74-13.525c2.159-1.377,4.441-2.945,6.867-3.437
		c4.858-0.985,8.685-4.043,13.16-5.735c1.806-0.683,3.522-1.658,5.184-2.659c3.64-2.193,7.148-4.613,10.853-6.684
		c1.736-0.97,3.855-1.226,5.71-2.018c4.007-1.711,7.948-3.575,11.932-5.341c0.76-0.337,1.592-0.51,2.634-0.835
		c-0.053,0.738-0.086,1.191-0.112,1.55c5.789-1.394,11.474-2.762,17.314-4.168c-0.031,0.507-0.06,0.967-0.073,1.179
		c3.516-1.093,6.981-2.171,10.843-3.372c-0.2,1.174-0.307,1.806-0.47,2.765c1.431-0.485,2.702-0.916,4.136-1.402
		c0.266,0.623,0.514,1.207,0.79,1.853c2.791-0.496,5.518-0.981,8.388-1.492c-0.019,0.895-0.039,1.851-0.064,3.07
		c4.241,0.192,8.338,0.377,12.611,0.571c0.003,0.232,0.013,0.954,0.023,1.739c4.614,0.033,9.087,0.065,13.803,0.099
		c-0.497,1.081-0.9,1.955-1.257,2.732c4.801-0.119,9.512-0.236,14.399-0.357c-0.333,1.099-0.631,2.085-1.038,3.427
		c4.819,0.388,9.492,0.764,14.271,1.149c-0.097,0.465-0.247,1.177-0.47,2.242c4.558-0.065,8.93-0.128,14.008-0.201
		c-1.51,2.121-2.599,3.651-3.632,5.103c3.296,0.78,6.474,1.391,9.551,2.332c1.217,0.372,2.187,1.514,3.318,2.228
		c0.348,0.22,0.855,0.208,1.294,0.26c1.081,0.127,2.22,0.063,3.227,0.4c0.689,0.23,1.195,1.006,1.784,1.538
		c-0.123,0.223-0.246,0.446-0.369,0.669c1.928,0.239,3.888,0.335,5.775,0.757c2.013,0.451,3.943,1.261,5.935,1.819
		c1.721,0.482,3.487,0.801,5.217,1.251c1.055,0.274,2.255,0.583,1.148,1.547c3.237,0.98,6.667,1.846,9.96,3.079
		c2.018,0.755,2.12,1.857,0.478,3.24c-3.375,2.843-6.856,5.559-10.417,8.426c0.181,0.243,0.469,0.63,0.802,1.079
		c-3.031,1.567-5.993,3.098-9.364,4.841c0.937,0.633,1.453,0.982,2.173,1.469c-4.053,2.544-7.956,4.994-12.045,7.56
		c0.708,0.701,1.399,1.386,2.373,2.351c-4.719,2.001-9.304,3.945-14.146,5.998c0.638,0.815,1.365,1.742,2.276,2.906
		c-3.655,1.171-7.129,2.234-10.557,3.431c-0.576,0.201-0.948,0.985-1.415,1.5c0.151,0.199,0.302,0.399,0.453,0.598
		c-3.451,1.135-6.902,2.27-10.672,3.51c0.833,1.305,1.669,2.615,2.262,3.544c-5.322,1.385-10.619,2.764-16.062,4.181
		c0.248,0.968,0.389,1.519,0.578,2.259c-3.024,0.766-6.012,1.522-9.633,2.439c0.721,0.878,1.3,1.584,2.136,2.602
		c-3.425,0.592-6.513,1.125-10.147,1.753c0.639,0.773,1.159,1.402,2.074,2.511c-3.625,0.468-6.717,0.867-9.98,1.288
		c0.125,0.289,0.285,0.658,0.595,1.373c-3.71,0.817-7.38,1.626-11.618,2.56c0.772,1.071,1.467,2.033,2.552,3.537
		c-5.421,0.347-10.258,0.658-15.237,0.977c0.214,0.581,0.433,1.177,0.656,1.783c-6.714,0.438-13.256,0.865-19.912,1.3
		c0.393,0.556,0.811,1.148,1.523,2.155C393.695,734.746,387.597,730.567,381.344,731.495z"/>
</svg>
