<svg xmlns="http://www.w3.org/2000/svg" viewBox="-18.404 210.775 55.396 52.635">
<path style="fill:#284955;" d="M26.099,238.04
			c0,0,2.772,0.239,2.832,0.781c0.061,0.542-3.373,1.388-5.36,2.895c-1.987,1.508-4.877,5.667-10.539,7.478
			c-5.662,1.811-8.434,0.969-11.145,2.176c-2.711,1.207-4.637,4.04-5.902,3.98c-1.265-0.059-1.386-1.084-1.386-1.084
			s-0.662,0.844-1.868,0.182c-1.205-0.662-0.905-2.168-0.905-2.168s-1.024,0.483-1.627-0.421c-0.603-0.903,0.3-2.41,4.095-2.774
			s7.951-2.355,10.541-4.345c0,0-4.279-2.106-7.234-6.683c-2.955-4.577-3.44-9.457-2.778-9.879c0.662-0.422,1.085-0.001,1.085-0.001
			s-1.026-2.59-0.183-3.012c0.843-0.422,1.566-0.001,1.566-0.001s-0.605-4.458,0.539-4.881c1.144-0.423,1.868,0.782,1.868,0.782
			s-0.363-2.048,0.782-2.29s2.654,5.24,3.74,6.324c0,0-0.543-1.265,0.36-1.747c0.903-0.483,2.835,5.421,4.945,7.287
			c2.11,1.866,5.184,3.371,5.667,4.515c0,0,0.059-2.109,0.782-2.109s0.784,0.421,0.784,0.421s-0.122-2.169,0.722-2.35
			c0.843-0.181,1.205,0.301,1.205,0.301s0.481-1.989,1.384-2.11c0.904-0.121,1.446,0.541,1.446,0.541s0.36-2.23,1.505-1.929
			c1.145,0.301-0.721,2.953-1.021,4.76c-0.3,1.808-0.239,3.193-0.239,3.193S25.616,235.389,26.099,238.04z"/>
</svg>