<svg xmlns="http://www.w3.org/2000/svg" viewBox="470.176 174.941 35.901 37.798">
<path style="fill:#284955;" d="M496.578,187.331
			c0,0,1.223-0.209,1.361-0.095c0.138,0.115-0.905,1.231-1.025,1.657c-0.12,0.425,1.029,2.836-1.098,5.328
			c-2.126,2.492-2.478,1.792-3.257,3.012c-0.779,1.22-0.831,6.482-1.197,6.994c-0.367,0.512-0.834-0.4-1.001-0.831
			c0,0-0.942,0.151-1.14-0.946c0,0-0.954,0.025-0.938-0.837c0,0-0.614,0.248-0.742-0.441c-0.128-0.689,2.218-2.533,2.45-4.148
			c0,0-2.451,1.057-4.531,0.963c-2.08-0.093-3.448-0.763-3.533-1.153c-0.084-0.39,0.387-0.466,0.387-0.466s-2.225-0.55-2.263-0.997
			c-0.038-0.446,0.433-0.522,0.433-0.522s-1.156-0.434-1.082-1.015c0.073-0.58,0.499-0.461,0.499-0.461s-1.725-0.732-1.279-1.761
			c0.446-1.029,1.625-0.342,1.625-0.342s-0.375-0.602,0.13-1c0.505-0.398,2.79,1.907,4.652,2.053c1.862,0.145,3.32-0.277,3.32-0.277
			s-1.662-1.932-1.394-2.395c0.268-0.463,0.798,0.093,0.798,0.093s-0.692-1.274-0.286-2.045c0.406-0.771,0.821-0.077,0.821-0.077
			s-0.073-2.16,0.483-2.69c0.556-0.53,0.925,0.01,0.925,0.01s0.611-2.001,1.444-1.951c0.833,0.05-0.277,2.161,0.686,3.951
			c0.963,1.79,1.807,1.616,2.077,1.432C494.173,188.193,494.25,186.624,496.578,187.331z"/>
</svg>