<svg xmlns="http://www.w3.org/2000/svg" viewBox="336.055 312.653 60.781 54.980">
<path style="fill:#284955;" d="M386.932,339.082
			c0,0,1.904,1.201,1.804,1.902c0,0-1.803-0.399-2.704,0.002c-0.901,0.401-2.495,1.43-4.506,2.006
			c-1.402,0.402-2.901,5.01-7.508,6.615c-4.606,1.606-7.411,1.908-9.613,4.113c-2.202,2.205-2.901,5.711-3.902,5.612
			c-1.002-0.1-1.203-1.402-1.203-1.402s-0.8,1.703-2.303,1.003c-1.503-0.7-1.304-3.304-1.304-3.304s-1.702,0.702-2.705-0.599
			c-1.002-1.301,0.799-2.605,0.799-2.605s-2.003,0.001-2.204-1.501c-0.201-1.502,3.804-2.607,6.008-2.708
			c2.203-0.102,3.305-0.303,4.306-1.004c1.001-0.702,2.302-2.405,2.302-2.405s-2.204-1-4.51-3.703
			c-2.305-2.703-3.111-9.212-3.111-9.212s-1.602,0.602-2.504-0.299c-0.902-0.901-1.403-1.301-1.403-1.301s-2.103,0.502-3.105,0.102
			c-1.002-0.4-1.603-1.201-1.603-1.201s-2.705-0.499-3.306-1.5c-0.602-1.001,6.209-0.906,10.516-1.71
			c4.306-0.804,7.611-1.307,9.315,0.094c1.704,1.401,1.405,3.805,3.009,5.707c1.604,1.902,3.307,3.203,3.307,3.203
			s1.095-10.217,2.496-12.021c1.401-1.804,4.407,0.498,7.612-0.406c3.204-0.904,6.309-1.907,6.51-0.806
			c0.201,1.102-2.502,2.806-2.502,2.806s0.501,0.701-0.6,1.603c-1.101,0.902-3.605,0.503-3.605,0.503s0.905,5.308-0.295,8.614
			C380.42,335.28,386.127,333.173,386.932,339.082z"/>
</svg>