<svg xmlns="http://www.w3.org/2000/svg" viewBox="446.580 438.745 31.484 40.827">
<path style="fill:#284955;" d="M467.617,464.303
			c0,0-0.24,1.393-0.338,1.509c-0.098,0.116-0.732-1.02-1.087-1.386c-0.354-0.367-1.528-1.494-2.267-1.721
			c-0.739-0.227-1.932,1.888-2.02,3.012c-0.087,1.123-2.487,2.15-3.721,3.764c-1.235,1.614-1.772,2.091-2.171,1.62
			c-0.399-0.471,0.231-1.999,0.231-1.999s-0.831-0.039-0.864-0.865c-0.032-0.826,0.454-1.478,0.454-1.478s-0.608-0.382-0.36-1.302
			c0.248-0.921,0.987-1.558,0.987-1.558s-0.381-0.257-0.133-1.177c0.248-0.921,0.955-1.519,0.955-1.519s-0.345-0.692,0.102-1.377
			c0.447-0.685,1.413-1.197,1.413-1.197s-0.139-1.249-1.31-1.908c-1.171-0.659-2.908-1.2-2.901-1.993
			c0.006-0.793,0.919-1.084,0.919-1.084s-0.664-0.629-0.393-1.264c0.272-0.635,1.13-0.706,1.13-0.706s-0.53-1.181,0.376-1.543
			c0.906-0.363,1.078,1.711,1.971,2.934c0.893,1.222,2.326,1.572,2.326,1.572s0.031-1.371,1.217-1.829c0,0,0.272-1.499,1.411-1.665
			c0,0,0.514-1.627,2.022-1.679c0,0,0.516-1.159,1.348-1.12c0,0,1.488-1.599,2.319-1.56c0.831,0.039-0.911,3.352-0.531,5.337
			c0.38,1.985,0.239,3.329-0.587,4.225c-0.826,0.896-1.903,2.246-2.043,2.725c-0.14,0.48,1.236,1.446,1.959,2.791
			C468.756,463.206,467.617,464.303,467.617,464.303z"/>
</svg>