<svg xmlns="http://www.w3.org/2000/svg" viewBox="82.470 250.297 65.407 55.128">
<path style="fill:#284955;" d="M130.203,291.62
			c0,0,1.145,2.08,0.695,2.676c0,0-1.461-1.289-2.497-1.379c-1.037-0.09-3.033,0.047-5.183-0.448
			c-1.499-0.345-5.235,3.144-10.307,2.275c-5.071-0.869-7.814-2.021-10.972-1.11c-3.158,0.911-5.593,3.791-6.467,3.188
			c-0.874-0.603-0.395-1.908-0.395-1.908s-1.608,1.164-2.638-0.25c-1.03-1.413,0.483-3.716,0.483-3.716s-1.93-0.221-2.191-1.934
			c-0.261-1.713,2.068-1.996,2.068-1.996s-1.85-1.021-1.269-2.511c0.581-1.49,4.842-0.464,6.928,0.567
			c2.086,1.031,3.205,1.408,4.488,1.271c1.282-0.137,3.353-1.045,3.353-1.045s-1.524-2.048-2.273-5.72
			c-0.748-3.672,1.831-10.092,1.831-10.092s-1.786-0.262-2.159-1.554c-0.373-1.292-0.631-1.917-0.631-1.917s-2.198-0.61-2.918-1.49
			c-0.721-0.881-0.867-1.927-0.867-1.927s-2.242-1.841-2.286-3.072c-0.044-1.231,6.194,2.334,10.579,3.789
			c4.386,1.456,7.693,2.678,8.55,4.841c0.857,2.163-0.646,4.229-0.136,6.804c0.51,2.574,1.418,4.645,1.418,4.645
			s6.226-8.872,8.44-9.822c2.214-0.95,3.814,2.709,7.233,3.511c3.419,0.802,6.797,1.46,6.42,2.579
			c-0.377,1.12-3.742,1.313-3.742,1.313s0.105,0.903-1.372,1.173c-1.477,0.271-3.585-1.376-3.585-1.376s-1.874,5.361-4.669,7.801
			C126.132,284.786,132.476,285.754,130.203,291.62z"/>
</svg>