<svg xmlns="http://www.w3.org/2000/svg" viewBox="179.518 299.233 145.054 179.485">
<g>
		<path style="fill:#302D3E;" d="M256.67,332.688c-0.586,0.46-1.159,0.94-1.738,1.43c-0.021,0.018-0.047,0.018-0.072,0.026
			c-0.024,0.026-0.053,0.046-0.077,0.072c0.039,1.946-0.181,3.891-0.066,5.847c0.131,2.219,0.497,4.419,1.084,6.563
			c1.153,4.21,3.167,7.988,5.913,11.371c2.57,3.166,5.546,6.118,7.528,9.716c0.309,0.56,0.589,1.132,0.859,1.708
			c0.546,0.575,1.363,1.057,1.883,0.525c0.13-0.133,0.205-0.307,0.276-0.478c0.661-1.575,1.224-3.188,1.737-4.817
			c0.015,0.008,0.03,0.015,0.045,0.023c0.108-1.121,0.209-2.241,0.318-3.362c0.436-4.469,0.621-8.839-0.68-13.193
			C271.328,340.241,264.793,334.132,256.67,332.688z"/>
		<path style="fill:#302D3E;" d="M299.557,350.003c-0.7-2.149-1.305-4.329-1.958-6.493c-0.279-0.383-0.528-0.78-0.828-1.154
			c-5.133-6.41-12.384-10.814-20.376-12.628c-3.854-0.874-7.921-1.178-11.827-0.458c-1.804,0.332-3.583,0.849-5.229,1.67
			c-0.774,0.386-1.475,0.849-2.15,1.35c1.336,0.089,2.589,0.3,3.955,0.79c1.651,0.592,3.241,1.385,4.687,2.378
			c5.522,3.792,8.872,10.028,9.713,16.605c0.51,3.984,0,8.01-0.341,11.987c-0.033,0.387-0.073,0.772-0.107,1.158
			c2.646,1.345,5.422,2.412,8.323,3.056c7.204,1.599,15.101,0.629,21.293-3.385c0.227-0.147,0.466-0.318,0.541-0.578
			c0.075-0.26-0.038-0.533-0.148-0.78C303.116,359.072,301.066,354.636,299.557,350.003z"/>
		<path style="fill:#302D3E;" d="M294.171,325.607c-0.824-0.343-1.646-0.689-2.481-0.978c-1.732-0.6-3.497-1.109-5.287-1.504
			c-3.736-0.824-7.577-1.187-11.395-0.849c-3.543,0.314-7.066,1.268-10.258,2.843c-1.446,0.714-2.829,1.554-4.12,2.52
			c-1.333,0.998-3.197,2.21-3.731,3.887c2.389-1.829,5.571-2.851,8.366-3.278c8.258-1.261,17.045,1.254,23.922,5.841
			c3.07,2.048,5.987,4.699,8.442,7.72c6.051,1.049,12.509,0.276,17.615-3.087c0.638-0.42,1.328-1.063,1.159-1.808
			C308.02,336.045,301.351,330.278,294.171,325.607z"/>
		<path style="fill:#302D3E;" d="M254.721,346.044c-0.464-1.96-0.751-3.969-0.85-5.981c-0.082-1.681-0.103-3.528,0.246-5.228
			c-0.171,0.151-0.32,0.328-0.502,0.467c-1.269,0.972-2.756,1.456-4.293,1.596c-1.309,1.346-2.784,2.531-4.039,3.944
			c-1.449,1.631-2.763,3.392-3.897,5.257c-2.309,3.799-3.803,8.027-4.626,12.387c-0.763,4.038-0.907,8.083-0.827,12.132
			c1.826,5.118,3.428,10.275,3.468,15.631c1.75-1.325,3.902-1.812,6.091-2.221c-0.56,2.098-1.156,4.171-1.775,6.207
			c-5.201,17.095-12.003,34.289-12.465,52.381c-0.057,2.231-0.029,4.533,0.11,6.853c-1.579-5.096-3.625-10.023-6.474-14.52
			c-4.732-7.47-11.891-13.713-20.474-15.84c4.259,8.777,6.231,18.769,12.15,26.524c4.884,6.4,12.122,10.877,17.089,17.076
			c0.775,2.507,1.747,4.926,3.004,7.167c0.473,0.842,1.827,0.276,1.56-0.658c-1.205-4.224-2.42-8.273-2.984-12.655
			c-0.238-1.85-0.376-3.718-0.458-5.588c0.545-5.344,2.567-10.655,5.089-15.457c3.935-7.491,9.091-14.357,12.253-22.206
			c1.395-3.463,2.382-7.074,3.366-10.676c0.883-3.232,1.766-6.465,2.65-9.697c-12.669,12.229-20.812,28.94-23.041,46.387
			c0.673-7.401,2.136-14.664,4.006-21.878c2.936-11.327,6.579-22.524,9.095-33.949c0.23-0.05,0.462-0.097,0.688-0.154
			c5.737-1.433,10.624-5.325,14.281-9.972c1.51-1.919,2.823-4.007,3.917-6.199c-2.146-3.319-4.84-6.232-7.106-9.473
			C257.524,354.201,255.706,350.203,254.721,346.044z"/>
		<path style="fill:#302D3E;" d="M234.738,370.209c-0.014-4.192,0.31-8.373,1.128-12.423c0.893-4.426,2.469-8.715,4.866-12.553
			c1.13-1.808,2.423-3.506,3.881-5.062c1.026-1.095,2.158-2.287,3.413-3.22c-0.296-0.015-0.592-0.066-0.888-0.108
			c-0.603,0.036-1.204,0.084-1.804,0.214c-1.123,0.244-2.195,0.668-3.208,1.208c-1.992,1.062-3.719,2.546-5.184,4.255
			c-2.993,3.489-4.926,7.772-6.136,12.176c-1.256,4.569-1.516,9.288-2.384,13.927c0.018-0.012,0.037-0.022,0.056-0.034
			c0.078,1.701-0.058,3.412-0.442,5.071C230.591,373.4,232.916,372.046,234.738,370.209z"/>
		<path style="fill:#302D3E;" d="M257.516,329.259c0.241-0.266,0.494-0.519,0.735-0.755c1.28-1.252,2.719-2.31,4.258-3.224
			c3.291-1.955,6.984-3.175,10.758-3.76c4.006-0.621,8.109-0.491,12.09,0.25c2.101,0.391,4.171,0.954,6.194,1.639
			c0.045,0.015,0.092,0.032,0.137,0.047c1.635-1.371,3.061-2.97,4.115-4.832c-8.158,0.093-15.803-4.739-23.956-4.468
			c-5.602,0.186-10.958,3.059-14.476,7.4c0.653,2.385,0.79,5.032,0.265,7.33C257.606,329.013,257.549,329.133,257.516,329.259z"/>
		<path style="fill:#302D3E;" d="M221.664,371.749c1.942-0.515,3.754-1.345,5.482-2.35c0.161-0.645,0.311-1.295,0.438-1.952
			c0.759-3.916,1.032-7.899,2.007-11.778c0.84-3.343,2.057-6.621,3.796-9.605c1.68-2.883,3.857-5.55,6.611-7.466
			c1.334-0.928,3.137-1.873,4.966-2.296c-1.865-0.704-3.532-1.907-4.814-3.434c-0.068-0.08-0.12-0.173-0.185-0.255
			c-1.666-0.66-3.258-1.336-5.072-1.617c-2.164-0.336-4.39-0.237-6.531,0.208c-3.87,0.803-7.405,2.722-10.631,4.951
			c-3.146,2.174-6.275,4.592-8.935,7.35c-2.817,2.92-4.451,6.496-5.787,10.239c-0.118,8.061,1.662,16.294-0.447,24.069
			c1.952-2.835,5.477-4.152,8.877-4.696C214.837,372.574,218.336,372.631,221.664,371.749z"/>
		<path style="fill:#302D3E;" d="M254.248,311.631c0.211-0.196,0.36-0.428,0.448-0.697c0.136-0.258,0.198-0.536,0.186-0.834
			c-0.026-0.192-0.052-0.384-0.077-0.576c-0.103-0.367-0.289-0.685-0.557-0.956c-0.146-0.113-0.292-0.226-0.438-0.339
			c-0.338-0.196-0.702-0.294-1.093-0.296c-0.298-0.011-0.576,0.051-0.834,0.186c-0.268,0.088-0.501,0.237-0.697,0.448
			c-0.211,0.196-0.361,0.429-0.448,0.697c-0.136,0.258-0.198,0.536-0.186,0.834c0.026,0.192,0.052,0.384,0.077,0.576
			c0.103,0.367,0.289,0.685,0.557,0.956c0.146,0.113,0.292,0.226,0.438,0.339c0.199,0.116,0.411,0.187,0.629,0.234
			c-0.021,1.61-0.299,3.205-0.809,4.753c-0.355,1.077-0.85,2.074-1.412,3.055c-0.032,0.056-0.072,0.107-0.104,0.162
			c-0.092,0-0.185,0.013-0.277,0.014c0.03-0.15,0.068-0.304,0.095-0.45c0.203-1.108,0.236-2.239,0.152-3.361
			c0.855-0.322,1.272-0.795,1.195-1.439c0-0.001,0-0.001,0-0.002c0-0.001,0-0.003,0-0.004c-0.004-0.066-0.048-0.359-0.028-0.206
			c-0.009-0.068-0.018-0.135-0.027-0.203c-0.324-0.185-0.648-0.369-0.973-0.554c-0.423-0.582-0.873-0.713-1.35-0.394
			c-0.107,0.082-0.213,0.165-0.32,0.247c-0.082,0.107-0.165,0.213-0.247,0.32c-0.116,0.181-0.178,0.377-0.188,0.588
			c-0.038,0.14-0.038,0.28,0,0.42c0.01,0.21,0.072,0.406,0.188,0.588c0.082,0.107,0.165,0.213,0.247,0.32
			c0.107,0.082,0.213,0.165,0.32,0.247c0.13,0.075,0.279,0.078,0.419,0.113c-0.033,1.05-0.136,2.094-0.366,3.129
			c-0.052,0.237-0.144,0.462-0.208,0.696c-0.138,0.013-0.276,0.007-0.413,0.023c-0.264-0.398-0.531-0.795-0.758-1.216
			c-1.146-2.132-1.847-4.44-2.249-6.809c0.245-0.056,0.482-0.139,0.707-0.27c0.17-0.132,0.341-0.263,0.511-0.395
			c0.313-0.315,0.529-0.687,0.649-1.115c0.105-0.336,0.12-0.671,0.045-1.007c-0.015-0.336-0.115-0.649-0.3-0.939
			c-0.159-0.294-0.376-0.53-0.651-0.709c-0.244-0.223-0.53-0.374-0.859-0.452c-0.448-0.12-0.895-0.12-1.343,0
			c-0.003,0.001-0.006,0.003-0.009,0.004c-0.003,0.001-0.004,0.003-0.007,0.004c-0.001,0-0.001,0-0.002,0
			c-0.316,0.089-0.591,0.249-0.845,0.445c-0.001,0.001-0.003,0.001-0.005,0.003c-0.002,0.001-0.003,0.004-0.005,0.005
			c-0.08,0.062-0.167,0.113-0.241,0.186c-0.004,0.005-0.009,0.009-0.014,0.014c-0.046,0.043-0.057,0.107-0.098,0.153
			c-0.027,0.036-0.072,0.056-0.096,0.095c-0.089,0.073-0.156,0.16-0.2,0.261c0.03-0.012,0.06-0.024,0.09-0.036
			c-0.067,0.115-0.174,0.207-0.216,0.337c-0.158,0.3-0.23,0.623-0.217,0.969c0.03,0.223,0.06,0.446,0.09,0.669
			c0.119,0.426,0.335,0.796,0.647,1.11c0.273,0.326,0.48,0.384,0.816,0.526c0.197,0.114,0.409,0.172,0.637,0.172
			c0.115,0.02,0.229,0.035,0.345,0.046c0.005,0,0.01-0.002,0.015-0.002c0.197,2.775,0.824,5.737,2.126,8.216
			c-0.456,0.098-0.902,0.222-1.346,0.361c-0.234-0.313-0.496-0.606-0.701-0.945c-0.694-1.145-1.206-2.442-1.444-3.768
			c0.035-0.027,0.071-0.055,0.106-0.082c0.053-0.068,0.106-0.137,0.158-0.205c0.034-0.081,0.068-0.161,0.102-0.242
			c0.042-0.135,0.048-0.269,0.018-0.404c0-0.091-0.023-0.177-0.069-0.256c-0.024-0.086-0.067-0.16-0.13-0.223
			c-0.045-0.076-0.106-0.137-0.182-0.182c-0.098-0.09-0.212-0.15-0.344-0.181c-0.07-0.011-0.14-0.02-0.21-0.03
			c-0.165-0.022-0.235-0.043-0.423,0.018c-0.083,0.035-0.166,0.07-0.249,0.105c-0.074,0.052-0.145,0.107-0.214,0.165
			c-0.009,0.008-0.019,0.016-0.028,0.024c-0.126,0.127-0.214,0.277-0.262,0.45c-0.049,0.181-0.049,0.361,0,0.542
			c0.049,0.173,0.136,0.323,0.262,0.45c0.127,0.126,0.277,0.214,0.45,0.262c0.011,0.003,0.023,0.007,0.034,0.01
			c0.188,0.057,0.258,0.043,0.423,0.021c0.025,0,0.047-0.016,0.071-0.019c0.02,1.403,0.331,2.762,0.992,4.022
			c0.152,0.289,0.334,0.561,0.52,0.832c-0.257,0.103-0.497,0.24-0.748,0.356c-0.185-0.474-0.377-0.939-0.579-1.384
			c-0.979-2.159-2.294-4.093-3.833-5.874c0.127-0.141,0.243-0.289,0.302-0.47c0.112-0.214,0.164-0.445,0.155-0.692
			c-0.021-0.159-0.043-0.318-0.064-0.478c-0.085-0.304-0.239-0.569-0.462-0.793c-0.121-0.094-0.243-0.187-0.364-0.281
			c-0.28-0.163-0.582-0.244-0.907-0.245c-0.247-0.009-0.478,0.042-0.692,0.155c-0.223,0.073-0.416,0.196-0.578,0.371
			c-0.175,0.163-0.299,0.356-0.371,0.578c-0.113,0.214-0.164,0.445-0.155,0.692c0.021,0.159,0.043,0.318,0.064,0.478
			c0.085,0.304,0.239,0.569,0.462,0.793c0.121,0.094,0.242,0.187,0.364,0.281c0.28,0.163,0.583,0.244,0.907,0.245
			c0.247,0.009,0.478-0.042,0.692-0.155c0.047-0.016,0.078-0.059,0.123-0.079c1.388,1.836,2.542,3.884,3.4,6.007
			c0.179,0.444,0.342,0.893,0.505,1.342c-0.48,0.27-0.932,0.583-1.376,0.907c-0.129-0.1-0.274-0.176-0.401-0.279
			c-0.793-0.648-1.45-1.427-2.038-2.257c0.118-0.105,0.242-0.204,0.32-0.348c0.004-0.009,0.008-0.019,0.012-0.028
			c0.058-0.138,0.117-0.277,0.175-0.416c0.073-0.231,0.083-0.463,0.031-0.694c0-0.157-0.04-0.304-0.119-0.439
			c-0.07-0.216-0.19-0.403-0.36-0.56c-0.006-0.007-0.012-0.015-0.019-0.022c-0.12-0.093-0.24-0.186-0.361-0.279
			c-0.204-0.13-0.425-0.201-0.663-0.212c-0.158-0.042-0.316-0.042-0.474,0c-0.161,0.001-0.311,0.041-0.45,0.122
			c-0.221,0.072-0.412,0.195-0.574,0.368c-0.093,0.12-0.186,0.241-0.279,0.361c-0.06,0.142-0.12,0.284-0.18,0.426
			c-0.074,0.237-0.085,0.474-0.032,0.711c0.001,0.161,0.041,0.311,0.122,0.45c0.042,0.151,0.119,0.282,0.229,0.393
			c0.126,0.194,0.292,0.347,0.5,0.459c0.142,0.06,0.284,0.12,0.426,0.18c0.158,0.021,0.316,0.042,0.474,0.064
			c0.158-0.021,0.316-0.043,0.474-0.064c0.083-0.02,0.141-0.081,0.217-0.114c0.545,0.939,1.169,1.831,1.955,2.584
			c0.078,0.075,0.169,0.137,0.251,0.209c-0.248,0.21-0.494,0.42-0.726,0.647c-0.79-0.398-1.571-0.814-2.328-1.288
			c-1.599-1-3.186-2.365-4.351-3.947c0.12-0.118,0.258-0.218,0.341-0.372c0.013-0.03,0.026-0.059,0.039-0.089
			c0.07-0.167,0.141-0.333,0.211-0.5c0.087-0.278,0.1-0.557,0.037-0.835c-0.001-0.189-0.048-0.365-0.143-0.528
			c-0.084-0.26-0.229-0.484-0.433-0.674c-0.02-0.024-0.04-0.048-0.06-0.072c-0.15-0.116-0.3-0.232-0.451-0.348
			c-0.255-0.163-0.531-0.251-0.828-0.264c-0.197-0.053-0.395-0.053-0.592,0c-0.201,0.001-0.388,0.051-0.562,0.152
			c-0.276,0.09-0.515,0.243-0.717,0.46c-0.116,0.15-0.232,0.3-0.348,0.451c-0.075,0.177-0.15,0.355-0.224,0.532
			c-0.093,0.296-0.106,0.592-0.04,0.888c0.001,0.201,0.051,0.388,0.152,0.562c0.053,0.189,0.148,0.352,0.286,0.491
			c0.157,0.242,0.365,0.434,0.625,0.573c0.177,0.075,0.355,0.15,0.532,0.224c0.197,0.026,0.395,0.053,0.592,0.079
			c0.197-0.027,0.395-0.053,0.592-0.079c0.194-0.046,0.346-0.163,0.506-0.266c0.276,0.603,0.579,1.193,0.938,1.755
			c0.747,1.168,1.713,2.23,2.748,3.148c0.465,0.412,0.98,0.778,1.514,1.12c0.007,0.001,0.013-0.006,0.02-0.004
			c0.115,0.029,0.213,0.113,0.298,0.205c0.098,0.059,0.19,0.127,0.289,0.183c-0.031,0.042-0.064,0.081-0.098,0.12
			c0.036,0.075,0.077,0.147,0.105,0.224c0.045,0.127,0.075,0.27,0.085,0.406c0.307,0.658,0.472,1.854,0.555,2.098
			c0.482,1.415,1.209,2.747,2.177,3.889c2.005,2.366,5.178,3.835,8.304,3.471c3.444-0.401,6.024-3.342,7.048-6.51
			c0.513-1.588,0.617-3.255,0.458-4.91c-0.096-1.002-0.314-1.98-0.522-2.96c-0.588-0.268-1.174-0.543-1.791-0.74
			c0.078-0.114,0.173-0.219,0.248-0.333c1.314-2.021,2.091-4.243,2.548-6.57c0.018,0.007,0.037,0.014,0.061,0.021
			c0.039,0.014,0.064,0.049,0.104,0.061c0.317,0.085,0.633,0.085,0.95,0c0.303-0.085,0.566-0.238,0.789-0.46
			c0.221-0.223,0.375-0.486,0.46-0.789c0.005-0.013,0.009-0.027,0.011-0.041c0.03-0.172,0.067-0.347,0.068-0.523
			c0-0.007,0-0.013-0.001-0.02c0-0.004-0.001-0.008-0.001-0.011c-0.022-0.165-0.044-0.329-0.066-0.494
			c0-0.002-0.001-0.004-0.001-0.007c-0.001-0.007-0.003-0.014-0.004-0.021c-0.001-0.003-0.002-0.006-0.003-0.01
			c-0.058-0.245-0.171-0.458-0.337-0.64c-0.133-0.205-0.308-0.366-0.528-0.484c-0.151-0.089-0.334-0.151-0.486-0.208
			c-0.015-0.006-0.03-0.01-0.046-0.012c-0.167-0.03-0.343-0.062-0.516-0.069c-0.008,0-0.015,0-0.023,0
			c-0.171,0.015-0.343,0.036-0.512,0.069c-0.009,0.002-0.018,0.004-0.027,0.008c-0.241,0.057-0.45,0.167-0.629,0.331
			c-0.201,0.13-0.36,0.303-0.476,0.519c-0.062,0.147-0.124,0.294-0.186,0.442c-0.077,0.246-0.088,0.492-0.033,0.738
			c0,0.167,0.043,0.323,0.126,0.467c0.075,0.229,0.202,0.428,0.383,0.595c0.009,0.007,0.019,0.015,0.029,0.022
			c-0.618,2.173-1.7,4.249-3.025,6.051c-0.23,0.313-0.481,0.603-0.724,0.9c-0.187-0.036-0.368-0.094-0.557-0.122
			c-0.155-0.024-0.313-0.02-0.468-0.039c0.458-0.949,0.827-1.954,1.073-2.967c0.407-1.674,0.475-3.419,0.291-5.134
			c0.166-0.029,0.339-0.03,0.491-0.11C253.82,311.992,254.052,311.842,254.248,311.631z M257.368,314.003
			c0.014,0.005,0.024,0.017,0.039,0.022c-0.013-0.006-0.026-0.011-0.04-0.017C257.367,314.007,257.368,314.005,257.368,314.003z"/>
		<path style="fill:#302D3E;" d="M209.825,340.983c3.011-2.67,6.291-5.194,9.754-7.249c3.381-2.006,7.098-3.494,11.046-3.799
			c2.687-0.207,6.013,0.082,8.497,1.519c-0.338-0.535-0.638-1.094-0.882-1.678c-0.38-0.908-0.868-2.154-0.704-3.172
			c-0.001-0.014-0.004-0.028-0.004-0.042c0-0.044-0.002-0.089-0.006-0.133c0,0,0,0,0-0.001c-1.056-0.215-2.101-0.489-3.115-0.847
			c-2.376-0.84-4.674-1.9-6.665-3.441c0.09-0.089,0.195-0.165,0.258-0.281c0.152-0.262,0.228-0.544,0.229-0.847
			c0.024-0.194,0.022-0.278-0.052-0.545c-0.034-0.154-0.094-0.295-0.18-0.422c-0.09-0.117-0.181-0.234-0.271-0.351
			c-0.098-0.106-0.239-0.196-0.366-0.281c-0.013-0.008-0.025-0.017-0.038-0.025c-0.05-0.034-0.101-0.067-0.151-0.101
			c-0.252-0.146-0.523-0.219-0.814-0.22c-0.291,0.001-0.562,0.074-0.814,0.22c-0.242,0.143-0.435,0.336-0.578,0.578
			c-0.146,0.252-0.219,0.523-0.22,0.814c0.004,0.061,0.008,0.123,0.013,0.184c0.001,0.015,0.002,0.03,0.003,0.045
			c0.011,0.159,0.021,0.322,0.063,0.476c0.051,0.144,0.111,0.285,0.179,0.422c0.109,0.202,0.258,0.365,0.447,0.487
			c0.168,0.154,0.365,0.257,0.591,0.311c0.003,0.001,0.007,0.003,0.011,0.004c0.005,0.002,0.011,0.005,0.016,0.007
			c0.012,0.005,0.025,0.01,0.037,0.016c0.298,0.08,0.595,0.08,0.893,0c0.124-0.03,0.217-0.11,0.323-0.17
			c0.811,0.931,1.675,1.818,2.626,2.601c-1.193-0.07-2.389-0.075-3.579,0.037c-0.033-0.012-0.056-0.04-0.091-0.048
			c-0.107-0.014-0.213-0.029-0.319-0.043c-0.106,0.014-0.213,0.029-0.319,0.043c-0.049,0.012-0.084,0.049-0.13,0.068
			c-5.815-0.835-11.911,0.08-16.604,3.523c-4.05,2.972-6.669,7.442-9.655,11.482c-2.986,4.04-6.795,7.953-11.736,8.863
			c4.402,2.739,9.697,3.806,14.854,3.346c0.205-0.559,0.398-1.123,0.609-1.679C204.447,346.796,206.744,343.715,209.825,340.983z"/>
	</g>
</svg>