<svg xmlns="http://www.w3.org/2000/svg" viewBox="455.502 296.356 39.694 41.847">
<path style="fill:#284955;" d="M485.498,315.209
			c0,0,1.566-0.024,1.698,0.095s-0.664,0.689-1.564,1.428c-0.9,0.739-1.549,1.465-1.939,3.493c-0.39,2.028-1.202,5.032-6.441,5.998
			c-5.239,0.966-5.377,0.723-6.704,1.674c-1.327,0.951-2.707,2.306-3.449,2.259c-0.742-0.047-0.585-0.833-0.585-0.833
			s-1.149,0.54-1.529,0.009c-0.38-0.531,0.065-1.559,0.065-1.559s-0.994,0.393-1.271-0.306c-0.277-0.699,1.562-1.001,2.872-1.136
			c1.309-0.135,4.097-2.345,4.318-4.477c0,0-1,0.055-1.04-1.121c0,0-1.293-0.255-1.219-2.328c0,0-1.21-1.012-0.637-2.686
			c0,0-0.828-0.907-0.322-2.428c0,0-0.62-1.458-0.145-2.625c0,0-1.091-1.357-0.565-2.289c0.526-0.932,1.743,2.036,3.637,2.734
			c1.894,0.698,2.908,1.106,3.661,2.043c0,0-0.281-1.464,0.522-1.91c0,0-0.554-1.399,0.266-2.234c0,0-0.702-0.914-0.185-1.758
			c0,0-1.052-1.798-0.418-2.347c0.634-0.549,3.427,3.924,4.514,6.134c1.087,2.21-0.049,5.47,0.339,5.913
			c0,0,0.867,0.253,1.606-0.891C481.72,314.916,483.703,313.577,485.498,315.209z"/>
</svg>