<?xml version="1.0" encoding="utf-8"?>
<svg version="1.1" xmlns="http://www.w3.org/2000/svg" xmlns:xlink="http://www.w3.org/1999/xlink" xml:space="preserve" viewBox="254 174 85 157">
<path d="M324.687,187.02c0.645,0.993,0.111,2.272-0.059,3.343c-0.695,3.365-2.218,6.506-4.06,9.387
		c-1.485,2.518-3.96,4.252-6.765,5.006c-0.995,0.364-2.213,0.412-2.964,1.239c-0.559,0.706-0.375,1.662-0.596,2.489
		c-0.5,2.742-3.479,3.749-5.853,4.364c-4.645,1.166-9.502-0.469-14.139,0.782c-1.098,0.314-2.288,0.673-3.108,1.483l-0.001,0
		c-2.019,2.656-3.435,5.731-4.649,8.825c-0.118,0.319-0.238,0.636-0.353,0.954c0.813,3.757,1.219,7.606,1.261,11.433
		c0.056,5.273-1.089,10.443-1.934,15.622c-0.062,0.354-0.125,0.706-0.189,1.059c0.37-1.072,0.774-2.133,1.244-3.169
		c0.935-1.988,2.097-3.862,3.343-5.668c3.554-5.355,7.645-8.394,13.681-10.549c3.68-1.342,7.628-1.905,11.537-1.749
		c5.685,0.438,11.366,1.909,17.09,1.298c1.843-0.249,3.672-0.753,5.247-1.76c0.466-0.16,0.975,0.102,1.162,0.554
		c0.365,0.766-1.212,2.19-1.627,2.85c-4.448,5.717-9.363,7.135-16.253,7.974c-2.115,0.308-4.176,0.872-6.275,1.251
		c-3.112,0.548-6.26,0.822-9.394,1.214c-8.757,1.094-11.074,2.598-16.356,9.613c-1.656,2.215-3.217,4.548-4.369,7.065
		c-0.165,0.339-0.198,0.784-0.548,0.987c-0.366,0.571-0.628,1.26-0.953,1.87c-0.093,0.208-0.182,0.445-0.339,0.604
		c-0.53,2.162-0.986,4.339-1.162,6.564c-0.615,6.332,0.39,12.657,0.582,18.985c0.173,3.518,0.106,7.052,0.475,10.558
		c0.373,3.442,1.122,6.831,2.146,10.136c1.48,4.574,3.409,9.168,6.606,12.818c1.308,0.832,0.91,2.516-0.63,2.797
		c-1.089,0.091-1.796-0.984-2.523-1.637c-1.818-1.901-3.156-4.199-4.207-6.598c-3.693-8.193-4.416-17.272-4.243-26.152
		c0-3.949-0.39-7.882-0.621-11.819c-0.016-0.046-0.027-0.096-0.035-0.147c-0.25-0.831-0.53-1.65-0.715-2.499
		c-0.886-3.714-0.843-7.547-1.005-11.339c-0.095-1.878-0.066-3.767-0.31-5.634c-0.312-2.461-0.958-4.866-1.252-7.331
		c-0.358-3.01-0.406-6.043-0.654-9.063c-0.091-3.814-1.23-7.444-2.833-10.876c-1.362-3.314-2.986-6.503-4.806-9.587
		c-0.986-1.65-1.723-3.435-2.058-5.333c-0.532-2.675-1.188-5.324-1.747-7.992c-0.974-5.357,0.254-10.815,1.317-16.069
		c1.135-4.838,2.297-9.727,4.241-14.313c0.127-0.259,0.264-0.562,0.467-0.788c0.071-0.361,0.16-0.755,0.517-0.928
		c0.365-0.177,0.858-0.055,1.1,0.272c0.115,0.145,0.137,0.291,0.119,0.438c0.484,0.324,0.65,0.95-0.165,1.163
		c-0.207,3.323,0.269,6.652,0.771,9.933c0.421,2.537,0.89,5.081,1.717,7.52c1.614,4.941,5.244,8.811,7.711,13.308
		c1.805,3.238,3.18,6.69,4.168,10.26c0.729-1.817,1.583-3.583,2.559-5.28c0.715-1.329,1.547-2.501,2.471-3.556
		c-0.113-0.481,0.061-1.016,0.171-1.486c0.271-0.931,0.684-1.82,1.154-2.667c2.872-5.262,8.534-7.89,12.985-11.567
		c2.505-2.138,3.514-5.729,6.369-7.458c0.836-0.376,1.824,0.114,2.173,0.932c0.476,1.275-0.132,2.756-0.393,3.967
		c3.603-2.008,6.811-4.688,10.389-6.755C320.784,187.469,323.276,185.358,324.687,187.02z"/>
</svg>
