<svg xmlns="http://www.w3.org/2000/svg" viewBox="80.674 21.580 52.557 50.217">
<path style="fill:#284955;" d="M122.547,47.677
			c0,0,2.572,0.222,2.628,0.725c0.056,0.503-3.13,1.288-4.974,2.687c-1.844,1.399-4.525,5.258-9.779,6.939
			c-5.254,1.681-7.827,0.9-10.342,2.02c-2.515,1.12-4.302,3.749-5.477,3.694c-1.174-0.055-1.286-1.006-1.286-1.006
			s-0.615,0.783-1.733,0.169c-1.119-0.614-0.84-2.012-0.84-2.012s-0.95,0.448-1.51-0.39c-0.56-0.838,0.278-2.236,3.8-2.574
			c3.522-0.338,7.379-2.185,9.781-4.032c0,0-3.971-1.954-6.713-6.201c-2.742-4.247-3.192-8.776-2.578-9.167
			c0.615-0.392,1.006-0.001,1.006-0.001s-0.952-2.403-0.17-2.795c0.783-0.392,1.454-0.001,1.454-0.001s-0.562-4.137,0.5-4.529
			c1.062-0.392,1.734,0.726,1.734,0.726s-0.337-1.901,0.725-2.125c1.062-0.224,2.463,4.862,3.47,5.868c0,0-0.504-1.174,0.334-1.622
			c0.838-0.448,2.631,5.03,4.589,6.762c1.958,1.732,4.81,3.128,5.258,4.19c0,0,0.055-1.957,0.726-1.957
			c0.671,0,0.727,0.391,0.727,0.391s-0.113-2.013,0.67-2.181c0.783-0.168,1.118,0.279,1.118,0.279s0.446-1.845,1.285-1.958
			c0.839-0.112,1.342,0.502,1.342,0.502s0.334-2.069,1.397-1.79c1.062,0.279-0.669,2.74-0.948,4.417
			c-0.278,1.677-0.222,2.963-0.222,2.963S122.098,45.217,122.547,47.677z"/>
</svg>