<svg xmlns="http://www.w3.org/2000/svg" viewBox="411.734 328.127 49.018 41.057">
<path style="fill:#284955;" d="M444.544,342.923
			c0,0,1.935,0.605,2.082,0.767c0.146,0.162-1.588,0.848-2.177,1.282c-0.589,0.434-2.414,1.888-2.876,2.895
			c-0.463,1.007,2.317,3.105,3.898,3.442c1.58,0.337,2.584,3.943,4.645,6.004c2.06,2.061,2.636,2.915,1.891,3.393
			c-0.745,0.478-2.798-0.707-2.798-0.707s-0.214,1.174-1.393,1.064c-1.18-0.111-2.015-0.926-2.015-0.926s-0.658,0.791-1.92,0.264
			c-1.262-0.527-2.027-1.699-2.027-1.699s-0.437,0.493-1.699-0.034c-1.262-0.527-1.978-1.645-1.978-1.645s-1.049,0.359-1.938-0.406
			c-0.889-0.766-1.433-2.236-1.433-2.236s-1.801-0.039-2.961,1.5c-1.159,1.539-2.257,3.906-3.383,3.746
			c-1.125-0.16-1.367-1.511-1.367-1.511s-1.02,0.825-1.871,0.318c-0.85-0.507-0.789-1.74-0.789-1.74s-1.778,0.529-2.122-0.828
			c-0.344-1.357,2.637-1.207,4.544-2.245c1.907-1.038,2.676-3.009,2.676-3.009s-1.943-0.304-2.369-2.077
			c0,0-2.079-0.671-2.099-2.321c0,0-2.215-1.039-2.004-3.192c0,0-1.549-0.954-1.336-2.128c0,0-1.991-2.419-1.777-3.593
			c0.214-1.174,4.592,1.931,7.486,1.767c2.894-0.164,4.777,0.292,5.895,1.636c1.118,1.344,2.831,3.131,3.486,3.421
			c0.655,0.291,2.29-1.482,4.338-2.255C443.2,341.096,444.544,342.923,444.544,342.923z"/>
</svg>