<svg xmlns="http://www.w3.org/2000/svg" viewBox="229.645 284.065 56.198 56.670">
<path style="fill:#284955;" d="M275.738,317.486
			c0,0,2.104,1.801,2.105,2.202c0,0.401-3.405,0.203-4.306,0.604c-0.901,0.401-3.402,5.811-10.713,5.716
			c-7.312-0.095-6.612-1.698-9.816-1.296c-3.205,0.403-12.314,7.82-13.717,7.922c-1.402,0.101-0.502-2.003-0.002-2.905
			c0,0-1.604-1.401-0.002-3.305c0,0-1.403-1.602,0.098-2.805c0,0-1.303-0.7-0.302-1.903c1.001-1.203,7.512,0.195,10.616-1.71
			c0,0-5.31-2.701-8.117-6.405c-2.807-3.704-3.608-7.009-3.059-7.71c0.549-0.702,1.351-0.001,1.351-0.001s-2.229-4.606-1.517-5.307
			s1.514-0.001,1.514-0.001s-0.903-2.603,0.198-3.305c1.101-0.702,1.503,0.199,1.503,0.199s-1.205-4.006,1.199-4.708
			c2.403-0.703,2.906,2.302,2.906,2.302s0.5-1.503,1.902-1.203c1.402,0.3,0.706,7.512,3.112,10.915
			c2.406,3.404,5.212,5.305,5.212,5.305s0.946-5.609,2.124-5.811c1.178-0.201,0.979,1.502,0.979,1.502s1.2-3.005,3.103-3.407
			c1.903-0.402,1.303,1.301,1.303,1.301s3.604-3.207,5.306-3.008c1.703,0.199,1.303,1.602,1.303,1.602s4.306-1.806,5.408-0.304
			c1.103,1.502-4.105,2.607-5.805,6.815c-1.7,4.208-0.197,5.409,0.504,5.608C270.828,314.585,273.631,312.48,275.738,317.486z"/>
</svg>