<svg xmlns="http://www.w3.org/2000/svg" viewBox="105.394 148.243 60.021 40.553">
<path style="fill:#284955;" d="M143.122,157.029
			c0,0,2.378,0.137,2.591,0.28c0.213,0.143-1.568,1.419-2.115,2.082c-0.547,0.663-2.212,2.841-2.451,4.121
			c-0.24,1.28,3.527,2.877,5.424,2.81c1.897-0.067,4.071,3.756,7.008,5.517c2.937,1.761,3.836,2.57,3.123,3.327
			c-0.713,0.757-3.391-0.007-3.391-0.007s0.092,1.399-1.284,1.61c-1.376,0.21-2.56-0.48-2.56-0.48s-0.524,1.09-2.113,0.849
			c-1.588-0.241-2.795-1.358-2.795-1.358s-0.357,0.687-1.946,0.446c-1.588-0.241-2.724-1.31-2.724-1.31s-1.092,0.709-2.324,0.09
			c-1.232-0.619-2.272-2.139-2.272-2.139s-2.064,0.47-2.946,2.555c-0.882,2.085-1.458,5.096-2.786,5.235
			c-1.328,0.139-1.989-1.332-1.989-1.332s-0.928,1.231-2.041,0.897c-1.114-0.334-1.395-1.758-1.395-1.758s-1.876,1.11-2.655-0.338
			c-0.779-1.448,2.661-2.129,4.538-3.856c1.877-1.727,2.191-4.193,2.191-4.193s-2.301,0.208-3.293-1.691
			c0,0-2.561-0.172-3.055-2.046c0,0-2.821-0.552-3.195-3.066c0,0-2.038-0.645-2.13-2.044c0,0-2.96-2.188-3.051-3.588
			c-0.092-1.399,5.784,0.89,9.036-0.123c3.251-1.013,5.528-1.031,7.185,0.182c1.657,1.213,4.12,2.76,4.95,2.904
			c0.83,0.144,2.187-2.343,4.301-3.809S143.122,157.029,143.122,157.029z"/>
</svg>