<svg xmlns="http://www.w3.org/2000/svg" viewBox="181.848 154.253 41.244 39.047">
<path style="fill:#284955;" d="M213.979,172.304
			c0,0,1.113,0.533,1.103,0.921c0,0-1.007-0.103-1.472,0.173c-0.465,0.276-1.268,0.937-2.326,1.379
			c-0.738,0.308-1.261,2.912-3.667,4.079c-2.406,1.167-3.913,1.51-4.972,2.85c-1.059,1.34-1.216,3.294-1.768,3.303
			c-0.552,0.01-0.744-0.687-0.744-0.687s-0.327,0.978-1.19,0.693c-0.863-0.286-0.92-1.716-0.92-1.716s-0.882,0.491-1.511-0.154
			c-0.629-0.645,0.27-1.469,0.27-1.469s-1.09,0.128-1.296-0.677c-0.205-0.805,1.905-1.661,3.099-1.856
			c1.193-0.195,1.78-0.375,2.281-0.821c0.5-0.446,1.1-1.456,1.1-1.456s-1.264-0.404-2.691-1.729
			c-1.427-1.325-2.279-4.818-2.279-4.818s-0.834,0.43-1.382-0.004c-0.548-0.433-0.847-0.619-0.847-0.619s-1.113,0.407-1.684,0.253
			c-0.571-0.154-0.949-0.552-0.949-0.552s-1.504-0.1-1.895-0.607c-0.391-0.507,3.323-0.888,5.617-1.599
			c2.293-0.712,4.061-1.196,5.077-0.541c1.017,0.655,1.007,1.982,2.001,2.916c0.994,0.934,2.004,1.534,2.004,1.534
			s-0.053-5.632,0.595-6.703c0.648-1.071,2.431-0.009,4.118-0.705c1.687-0.696,3.314-1.439,3.493-0.852
			c0.18,0.587-1.184,1.687-1.184,1.687s0.317,0.35-0.225,0.911c-0.542,0.561-1.931,0.503-1.931,0.503s0.83,2.832,0.387,4.708
			C210.191,170.648,213.165,169.138,213.979,172.304z"/>
</svg>