<svg xmlns="http://www.w3.org/2000/svg" viewBox="458.217 47.319 44.863 44.502">
<path style="fill:#284955;" d="M493.267,64.931
			c0,0,1.707,0.503,1.813,0.738s-1.943,1.014-2.366,1.486s-0.466,4.301-4.778,6.167c-4.311,1.866-4.322,0.742-6.095,1.821
			c-1.773,1.079-5.163,7.822-5.959,8.25c-0.795,0.428-0.821-1.042-0.765-1.702c0,0-1.308-0.4-0.87-1.937c0,0-1.244-0.57-0.68-1.67
			c0,0-0.948-0.068-0.677-1.036c0.271-0.968,4.455-1.86,5.774-3.793c0,0-3.823-0.187-6.442-1.621
			c-2.619-1.434-3.958-3.16-3.82-3.716c0.138-0.556,0.792-0.356,0.792-0.356s-2.518-2.114-2.285-2.713
			c0.233-0.598,0.887-0.399,0.887-0.399s-1.214-1.289-0.753-1.99c0.461-0.701,0.933-0.278,0.933-0.278s-1.759-2.032-0.535-3.075
			c1.224-1.044,2.309,0.585,2.309,0.585s-0.102-1.012,0.799-1.205s2.389,4.218,4.694,5.581c2.305,1.363,4.45,1.74,4.45,1.74
			s-0.92-3.537-0.283-3.965c0.638-0.427,0.968,0.623,0.968,0.623s-0.087-2.077,0.923-2.813c1.01-0.736,1.106,0.42,1.106,0.42
			s1.269-2.828,2.32-3.159s1.185,0.596,1.185,0.596s2.049-2.191,3.091-1.6c1.041,0.59-1.721,2.607-1.611,5.521
			c0.11,2.914,1.307,3.223,1.77,3.155S490.716,62.55,493.267,64.931z"/>
</svg>