<svg xmlns="http://www.w3.org/2000/svg" viewBox="188.448 11.366 118.903 187.675">
<g>
		<path style="fill:#302D3E;" d="M205.861,189.532c3.446,1.326,7.267,1.509,10.908,0.901c4.342-0.726,8.416-2.525,12.526-4.1
			c4.11-1.575,8.415-2.956,12.813-2.78c1.288,0.052,2.575,0.275,3.82,0.636c-6.675-6.336-16.205-8.718-25.078-9.997
			c-8.135-1.172-16.888-0.921-24.267,2.744c0.016,1.863,0.365,3.709,1.189,5.417C199.375,185.679,202.415,188.206,205.861,189.532z"
			/>
		<g>
			<path style="fill:#302D3E;" d="M271.385,72.063c-0.408,0.773-0.764,1.571-1.102,2.377c0.556-0.431,1.154-0.81,1.779-1.124
				c2.664-1.342,5.706-1.696,8.683-1.877c2.977-0.18,5.995-0.212,8.876-0.982c2.417-0.645,4.723-1.829,6.477-3.613
				c1.754-1.784,2.921-4.195,2.978-6.696c0.06-2.613-1.174-5.052-3.052-6.88c-6.257,2.084-12.26,5.023-17.23,9.388
				C275.769,65.314,273.265,68.5,271.385,72.063z"/>
			<path style="fill:#302D3E;" d="M224.874,111.889c3.534,1.488,7.372,2.061,11.132,2.815c3.76,0.755,7.573,1.743,10.729,3.921
				c0.704,0.486,1.358,1.05,1.965,1.66c-0.748-2.326-2.187-4.54-3.882-6.614c-3.033-3.71-6.257-7.256-9.875-10.406
				c-5.509-4.794-11.743-8.507-18.55-10.854c-0.905,1.415-1.547,2.983-1.743,4.68c-0.368,3.195,0.693,6.472,2.612,9.053
				C219.182,108.727,221.91,110.641,224.874,111.889z"/>
			<path style="fill:#302D3E;" d="M251.135,38.71c2.35,1.837,5.114,3.048,7.782,4.38c2.526,1.261,5.024,2.711,6.919,4.792
				c-0.073-0.858-0.156-1.717-0.316-2.587c-0.741-4.023-2.117-7.92-4.121-11.489c-1.82-3.242-4.128-6.196-6.82-8.759
				c-1.419-1.35-2.951-2.551-4.53-3.69c-1.578,1.011-2.874,2.409-3.574,4.164c-0.927,2.324-0.798,4.999,0.117,7.327
				C247.506,35.177,249.164,37.17,251.135,38.71z"/>
			<path style="fill:#302D3E;" d="M242.215,75.707c2.749,1.157,5.734,1.603,8.658,2.189c2.924,0.587,5.889,1.355,8.344,3.05
				c0.239,0.165,0.441,0.379,0.667,0.563c-0.189-0.8-0.425-1.602-0.747-2.41c-1.462-3.66-4.041-6.747-6.957-9.349
				c-2.959-2.641-6.322-4.948-9.773-6.9c-2.03-1.149-4.218-2.157-6.49-2.727c-0.868,1.206-1.481,2.577-1.654,4.075
				c-0.286,2.485,0.539,5.033,2.032,7.041C237.787,73.247,239.909,74.736,242.215,75.707z"/>
			<path style="fill:#302D3E;" d="M272.968,176.003c4.378-0.456,8.825-0.696,13.025-2.015c3.522-1.106,6.846-2.999,9.319-5.742
				c2.472-2.742,4.039-6.372,3.963-10.063c-0.053-2.594-0.959-5.044-2.418-7.158c-2.473,0.758-5.022,1.328-7.546,1.993
				c-9.832,2.59-17.669,8.916-24.251,16.482c-3.156,3.628-6.204,7.358-7.705,11.943c0.897-0.812,1.88-1.532,2.93-2.119
				C264.126,177.177,268.59,176.459,272.968,176.003z"/>
			<path style="fill:#302D3E;" d="M282.169,119.941c-9.612,1.189-18.869,6.185-24.301,14.336c-2.56,3.842-4.207,8.224-5.031,12.757
				c-0.046,0.255-0.053,0.503-0.091,0.757c1.118-1.207,2.438-2.235,3.869-3.035c3.842-2.148,8.305-2.866,12.683-3.322
				c4.378-0.456,8.825-0.696,13.025-2.014c3.523-1.106,6.846-2.999,9.319-5.742c2.472-2.742,4.039-6.372,3.963-10.063
				c-0.024-1.163-0.27-2.282-0.608-3.371C290.753,119.591,286.439,119.413,282.169,119.941z"/>
			<path style="fill:#302D3E;" d="M222.62,173.334c5.176,0.791,10.346,1.935,15.169,4.018c4.306,1.86,8.196,4.56,11.202,8.171
				c0.768,0.558,1.539,1.333,2.29,1.963c0.387,0.812,0.756,1.634,1.193,2.415c0.576,1.027,2.227,0.337,1.902-0.802
				c-0.188-0.66-0.373-1.31-0.56-1.965c0.383-0.87,0.718-1.882,1.131-2.739c0.205-1.12,0.45-2.215,0.753-3.24
				c1.497-5.063,4.898-8.809,8.418-12.595c3.5-3.764,7.089-7.417,11.276-10.429c4.136-2.976,8.668-5.012,13.599-6.265
				c2.366-0.601,4.789-1.093,7.173-1.703c-2.368-2.951-5.82-5.131-9.561-5.836c-6.655-1.254-13.634,1.472-18.66,6.011
				c-5.026,4.539-8.319,10.701-10.699,17.042c-1.842,4.906-3.803,10.824-4.352,16.428c-0.904-3.322-1.706-6.642-2.155-10.137
				c-0.676-5.261-0.795-10.625-0.54-15.919c0.106-2.21,0.29-4.405,0.516-6.594c0.04-0.105,0.085-0.201,0.126-0.305
				c0.214-2.112,0.607-4.189,1.09-6.11c2.379-9.469,8.512-17.421,17.213-21.902c7.906-4.072,16.979-4.994,25.611-3.322
				c-1.841-4.909-6.563-8.772-11.82-9.762c-6.655-1.254-13.634,1.472-18.66,6.011c-4.669,4.216-7.831,9.836-10.167,15.695
				c0.427-1.83,0.869-3.657,1.342-5.481c1.782-6.873,3.778-13.707,5.713-20.555c0.121-0.093,0.261-0.157,0.385-0.246
				c0.746-2.059,1.918-3.965,3.388-5.474c3.13-3.214,6.92-5.94,10.933-7.934c7.117-3.536,15.128-4.765,22.765-3.037
				c-1.067-3.395-3.705-6.381-7.019-7.815c-4.92-2.13-10.784-1.243-15.457,1.384s-8.292,6.811-11.236,11.291
				c-0.296,0.451-0.599,0.923-0.902,1.398c1.091-4.165,2.053-8.356,2.93-12.564c-0.052-1.696,0.377-3.51,0.811-5.085
				c0.529-1.92,1.273-3.791,2.188-5.56c1.892-3.658,4.577-6.905,7.646-9.639c5.114-4.555,11.346-7.491,17.867-9.43
				c-1.315-1.111-2.889-1.931-4.558-2.321c-4.468-1.044-9.272,0.597-12.808,3.522c-3.536,2.925-5.945,7-7.743,11.222
				c-0.301,0.707-0.605,1.454-0.906,2.216c0.19-1.731,0.359-3.466,0.477-5.212c0.229-3.395,0.235-6.76,0.058-10.098
				c0.814-3.493,0.961-7.376,0.961-10.681c0-4.589-0.621-9.282-2.728-13.359c-2.107-4.076-5.885-7.467-10.405-8.257
				c-2.184-0.382-4.502-0.028-6.512,0.906c4.677,3.141,8.563,7.78,11.219,12.496c2.148,3.813,3.627,8.007,4.363,12.32
				c0.258,1.512,0.478,3.112,0.585,4.729c0.27,0.521,0.519,1.053,0.695,1.611c0.05,10.418-1.744,20.959-4.305,31.052
				c-0.218-3.35-1.026-6.822-1.829-9.781c-1.202-4.429-3.03-8.796-6.131-12.178c-3.101-3.382-7.635-5.666-12.204-5.244
				c-2.63,0.243-5.158,1.546-6.951,3.461c1.945,0.427,3.843,1.207,5.637,2.168c3.898,2.086,7.681,4.695,10.966,7.656
				c3.151,2.84,5.795,6.255,7.261,10.266c0.472,1.291,0.834,2.695,1.037,4.126c0.172,0.23,0.38,0.433,0.531,0.677
				c0.363,0.587,0.564,1.447,0.795,2.232c-0.603,2.211-1.23,4.403-1.886,6.558c-2.724,8.951-5.804,17.925-8.481,26.998
				c-0.385-3.899-1.323-7.862-2.252-11.287c-1.545-5.695-3.896-11.31-7.883-15.659c-3.988-4.349-9.817-7.285-15.692-6.743
				c-3.83,0.353-7.504,2.437-9.805,5.457c1.685,0.525,3.35,1.126,4.979,1.854c7.763,3.468,14.587,8.874,20.444,14.983
				c2.873,2.996,5.914,6.287,7.519,10.171c0.598,1.448,0.98,3.136,1.004,4.797c0.13,0.341,0.247,0.705,0.354,1.082
				c-2.681,9.711-4.733,19.553-5.262,29.614c-1.513-4.843-3.995-9.667-6.275-13.717c-3.322-5.902-7.518-11.489-13.179-15.206
				c-5.661-3.717-12.975-5.344-19.36-3.088c-3.313,1.171-6.208,3.54-8.123,6.475c3.3-0.812,6.718-1.172,9.992-0.902
				c5.192,0.429,10.109,2.747,14.779,4.914c4.662,2.163,9.188,4.813,12.706,8.618c3.809,4.121,6.602,9.52,7.682,15.163
				c0.596,0.723,1.114,1.701,1.643,2.59c-0.032,7.477,0.747,15.433,3.072,22.711c-2.84-3.755-6.38-7.211-9.535-10.103
				c-4.993-4.576-10.719-8.58-17.255-10.352c-6.536-1.772-13.993-1.043-19.36,3.088c-3.538,2.723-5.83,7.066-6.168,11.458
				c2.814-1.366,5.846-2.279,8.99-2.754C211.26,172.113,217.003,172.476,222.62,173.334z"/>
			<path style="fill:#302D3E;" d="M202.247,147.029c2.862,2.332,6.437,3.695,10.087,4.249c4.352,0.661,8.783,0.218,13.18,0
				c4.396-0.219,8.917-0.192,13.042,1.344c1.347,0.501,2.631,1.197,3.799,2.046c-0.278-1.072-0.6-2.136-1.006-3.181
				c-1.593-4.095-4.098-7.835-7.317-10.827c-3.574-3.322-7.967-5.602-12.392-7.569c-4.759-2.116-9.557-4.21-14.86-4.187
				c-2.986,0.013-5.841,0.604-8.677,1.318c-1.127,2.319-1.655,4.887-1.31,7.469C197.281,141.35,199.385,144.697,202.247,147.029z"/>
			<path style="fill:#302D3E;" d="M277.012,92.714c-3.779,1.875-7.303,4.308-10.372,7.205c-1.317,1.243-2.461,2.59-3.27,4.167
				c0.588-0.286,1.189-0.549,1.814-0.734c3.341-0.988,6.913-0.763,10.373-0.351c3.46,0.412,6.936,1.003,10.409,0.718
				c2.913-0.239,5.81-1.121,8.197-2.807c2.387-1.686,4.231-4.215,4.817-7.078c0.297-1.45,0.215-2.915-0.121-4.331
				C291.484,88.2,283.719,89.385,277.012,92.714z"/>
		</g>
	</g>
</svg>