<svg xmlns="http://www.w3.org/2000/svg" viewBox="20.729 293.132 100.840 195.459">
<g>
		<path style="fill:#302D3E;" d="M108.916,386.14c-1.423,2.593-2.91,5.148-4.466,7.663c-5.693,9.206-12.055,17.976-18.575,26.609
			c-1.632,2.16-3.273,4.313-4.917,6.464c-1.478,1.935-2.898,3.965-4.607,5.707c-0.791,0.807-1.66,1.531-2.607,2.147
			c-1.156,0.751-2.498,1.358-2.984,2.754c-0.012,0.034-0.016,0.07-0.027,0.105c3.055-1.513,6.088-3.47,8.829-5.023
			c4.355-2.467,8.601-5.142,12.571-8.196c8.045-6.189,15.032-14.132,18.492-23.674c1.037-2.861,1.754-5.921,1.368-8.94
			c-0.286-2.241-1.269-4.457-2.862-6.019C109.058,385.871,108.989,386.007,108.916,386.14z"/>
		<path style="fill:#302D3E;" d="M74.963,304.241c-1.708,1.943-2.658,4.438-3.289,6.947c-2.103,8.366-0.96,17.283,1.761,25.469
			c1.343,4.039,3.061,7.943,4.954,11.752c1.016,2.044,2.04,4.402,3.203,6.617c0.557-8.085,0.109-16.284,0.004-24.342
			c-0.128-9.797-0.349-19.607-0.167-29.406C78.991,301.132,76.585,302.395,74.963,304.241z"/>
		<path style="fill:#302D3E;" d="M112.615,352.362c-0.443-1.886-1.481-3.691-2.988-4.871c-1.007,2.474-2.375,4.829-3.723,7.13
			c-4.958,8.465-10.165,16.788-15.578,24.969c-2.612,3.947-5.686,7.799-7.629,12.138c-0.455,1.017-0.816,2.072-1.135,3.143
			c2.522-1.569,4.987-3.564,7.23-5.162c3.464-2.468,6.818-5.103,9.905-8.034c6.256-5.939,11.463-13.267,13.549-21.637
			C112.87,357.529,113.206,354.88,112.615,352.362z"/>
		<path style="fill:#302D3E;" d="M110.261,424.455c-1.484,2.67-3.533,5.134-5.175,7.567c-6.133,9.091-11.102,18.92-17.448,27.871
			c-2.928,4.129-6.152,8.04-9.805,11.55c-0.957,0.919-1.946,1.803-2.966,2.652c-0.626,0.521-1.256,1.032-1.713,1.672
			c2.635-1.407,5.225-3.077,7.599-4.421c4.355-2.467,8.601-5.142,12.571-8.196c8.045-6.189,15.032-14.132,18.491-23.674
			c1.038-2.861,1.754-5.921,1.368-8.94C112.894,428.267,111.892,426.02,110.261,424.455z"/>
		<path style="fill:#302D3E;" d="M60.611,470.287c-6.149-8.029-12.04-16.258-16.548-25.348c-2.27-4.577-3.831-9.443-5.473-14.268
			c-0.859-2.524-1.726-5.045-2.577-7.572c-0.283-0.84-0.574-1.686-0.861-2.536c-0.081,0.028-0.165,0.041-0.245,0.072
			c-2.839,1.097-4.784,3.89-5.481,6.853c-0.697,2.963-0.302,6.08,0.432,9.034c2.449,9.85,8.573,18.476,15.931,25.467
			c3.631,3.45,7.576,6.552,11.651,9.458c2.484,1.771,5.197,3.966,7.981,5.757c-0.082-0.137-0.152-0.278-0.236-0.414
			C63.781,474.538,62.224,472.394,60.611,470.287z"/>
		<path style="fill:#302D3E;" d="M59.806,341.537c-2.559,0.38-4.692,2.333-5.823,4.659c-1.131,2.326-1.385,4.984-1.327,7.57
			c0.193,8.624,3.661,16.918,8.457,24.088c2.367,3.538,5.059,6.846,7.895,10.016c1.88,2.101,3.895,4.658,6.068,6.772
			c0.073-0.416,0.032-0.847-0.236-1.307c-0.665-1.142-1.309-2.295-1.914-3.471c-4.047-7.866-6.696-16.337-8.538-24.968
			c-0.935-4.379-1.665-8.797-2.31-13.227c-0.314-2.153-0.606-4.31-0.891-6.467c-0.154-1.164-0.29-2.328-0.414-3.496
			c-0.005-0.043-0.012-0.133-0.02-0.231C60.439,341.476,60.122,341.49,59.806,341.537z"/>
		<path style="fill:#302D3E;" d="M95.077,445.698c2.911-4.908,5.788-9.839,9.03-14.539c1.682-2.439,3.678-4.85,5.239-7.456
			c-0.287-0.202-0.585-0.39-0.901-0.551c-3.023-1.546-6.762-0.858-9.778,0.703c-4.847,2.509-8.391,7.023-10.886,11.878
			c-2.495,4.854-4.075,10.115-5.99,15.226c-1.796,4.794-3.897,9.474-6.283,14.003c-1.208,2.293-2.489,4.548-3.841,6.76
			c-0.518,0.848-1.196,1.741-1.859,2.655c-0.771-2.852-1.453-5.706-1.839-8.707c-0.595-4.633-0.7-9.357-0.476-14.02
			c0.214-4.449,0.727-8.843,1.447-13.204c0.054-0.023,0.109-0.055,0.163-0.078c0.07-0.553,0.196-1.094,0.427-1.614
			c1.018-2.282,3.902-3.061,5.619-4.718c1.913-1.846,3.447-4.078,5.058-6.181c1.647-2.15,3.291-4.301,4.924-6.461
			c3.266-4.319,6.495-8.667,9.621-13.089c3.121-4.416,6.14-8.905,8.988-13.502c1.423-2.298,2.82-4.614,4.165-6.958
			c0.148-0.257,0.292-0.518,0.438-0.777c-0.344-0.259-0.704-0.498-1.092-0.697c-3.023-1.546-6.762-0.858-9.778,0.703
			c-4.847,2.509-8.391,7.024-10.886,11.878c-2.495,4.854-4.075,10.115-5.99,15.226c-1.796,4.794-3.897,9.474-6.283,14.003
			c-1.208,2.294-2.489,4.548-3.841,6.76c-0.223,0.364-0.48,0.739-0.748,1.118c0.687-3.479,1.496-6.938,2.391-10.388
			c2.405-9.278,5.256-18.474,7.672-27.76c0.041-0.021,0.082-0.051,0.124-0.073c0.531-1.857,1.109-3.693,1.961-5.438
			c2.055-4.212,5.038-8,7.619-11.897c2.685-4.054,5.316-8.144,7.892-12.268c2.53-4.05,5.003-8.136,7.432-12.248
			c1.355-2.295,2.825-4.617,3.942-7.068c-0.257-0.144-0.522-0.275-0.8-0.382c-2.691-1.041-5.791-0.13-8.203,1.454
			c-3.877,2.547-6.475,6.675-8.157,10.997c-1.682,4.323-2.555,8.909-3.724,13.397c-1.097,4.21-2.461,8.35-4.079,12.389
			c-0.819,2.045-1.704,4.063-2.652,6.052c-0.044,0.093-0.108,0.195-0.156,0.29c1.869-7.773,3.337-15.629,3.88-23.668
			c0.288-4.259,0.198-8.467-0.244-12.623c-0.023-0.638-0.04-1.261-0.014-1.832c0.1-2.201,0.271-4.398,0.511-6.588
			c0.474-4.325,1.221-8.619,2.237-12.85c1.083-4.51,2.473-8.967,3.024-13.572c0.552-4.605,0.203-9.471-2.016-13.543
			c-1.323-2.427-3.5-4.587-6.198-5.073c0.478,9.94,0.546,19.906,0.712,29.853c0.095,5.686,0.236,11.374,0.273,17.061
			c0.02,2.97-0.046,5.948-0.315,8.902c0.158,0.254,0.302,0.529,0.467,0.773c0.12,12.209-2.642,24.626-6.094,36.053
			c-0.337-1.161-0.751-2.328-0.988-3.37c-0.487-2.148-0.906-4.312-1.256-6.487c-0.69-4.295-1.11-8.634-1.254-12.983
			c-0.153-4.636,0.004-9.301-0.686-13.888c-0.69-4.587-2.317-9.185-5.538-12.523c-1.524-1.579-3.524-2.86-5.649-3.199
			c0.395,2.557,0.747,5.12,1.12,7.68c1.442,9.882,3.205,19.799,6.511,29.25c1.699,4.856,3.837,9.508,6.512,13.905
			c0.434,0.714,0.933,1.423,0.812,2.301c-0.054,0.39-0.23,0.761-0.437,1.125c0.079,0.067,0.153,0.15,0.233,0.215
			c-3.878,12.544-8.427,25.152-10.962,38.092c-0.376-1.245-0.812-2.487-1.065-3.604c-0.574-2.528-1.066-5.074-1.478-7.633
			c-0.812-5.054-1.306-10.16-1.475-15.277c-0.18-5.455,0.005-10.945-0.807-16.342c-0.812-5.397-2.727-10.808-6.517-14.735
			c-2.036-2.109-4.791-3.766-7.667-3.862c0.345,3.892,0.684,7.779,1.348,11.654c1.779,10.384,4.879,20.495,8.473,30.381
			c1.826,5.022,3.85,9.954,5.871,14.899c0.542,1.326,1.074,2.658,1.601,3.991c0.333,0.842,0.667,1.707,0.685,2.625
			c0.002,0.086-0.011,0.172-0.013,0.258c0.176,0.151,0.343,0.332,0.52,0.476c-0.776,4.53-1.289,9.102-1.407,13.73
			c-0.182,7.113,0.439,14.878,2.673,21.913c-1.087-2.29-2.106-4.61-3.048-6.963c-1.902-4.753-3.505-9.625-4.793-14.58
			c-1.374-5.283-2.398-10.679-4.376-15.766c-1.977-5.087-5.033-9.945-9.593-12.945c-2.428-1.597-5.449-2.601-8.256-2.093
			c0.379,1.098,0.745,2.199,1.116,3.283c0.979,2.859,1.959,5.717,2.936,8.577c1.717,5.031,3.49,9.961,6.015,14.655
			c2.476,4.604,5.23,9.06,8.224,13.345c2.802,4.011,5.934,7.748,8.891,11.64c1.604,2.111,3.295,4.452,4.528,6.956
			c0.382,0.197,0.765,0.395,1.147,0.565c0.119,0.224,0.214,0.464,0.338,0.685c0.354,0.631,1.159,0.517,1.522,0.055
			c-0.022-0.436-0.013-0.861,0.002-1.293c-0.16-0.559-0.318-1.118-0.477-1.675c0.229-0.101,0.458-0.23,0.687-0.338
			c0.598-2.33,2.678-3.53,4.46-5.097C83.859,464.434,89.583,454.959,95.077,445.698z"/>
		<path style="fill:#302D3E;" d="M46.781,415.481c2.785,4.163,5.953,8.056,9.291,11.785c2.121,2.371,4.383,5.247,6.82,7.673
			c-0.09-0.312-0.196-0.628-0.333-0.964c-1.082-2.66-2.164-5.315-3.193-7.997c-3.724-9.711-7.382-19.453-10.022-29.526
			c-1.295-4.94-2.377-9.953-3.077-15.014c-0.396-2.864-0.731-5.784-0.857-8.703c-0.056,0.007-0.111,0.002-0.166,0.011
			c-3.011,0.447-5.521,2.745-6.852,5.482c-1.331,2.737-1.63,5.865-1.562,8.908C37.057,397.285,41.138,407.045,46.781,415.481z"/>
	</g>
</svg>