<svg xmlns="http://www.w3.org/2000/svg" viewBox="361.408 379.884 56.394 47.556">
<path style="fill:#284955;" d="M401.295,416.162
			c0,0,0.837,1.726,0.449,2.189c0,0-1.125-1.101-1.958-1.216c-0.833-0.115-2.45-0.089-4.164-0.577
			c-1.196-0.341-4.356,2.319-8.413,1.407c-4.057-0.912-6.222-1.956-8.809-1.352c-2.587,0.604-4.671,2.827-5.351,2.304
			c-0.68-0.523-0.24-1.556-0.24-1.556s-1.346,0.872-2.118-0.311c-0.772-1.183,0.544-2.979,0.544-2.979s-1.548-0.258-1.688-1.652
			c-0.139-1.393,1.752-1.525,1.752-1.525s-1.45-0.901-0.92-2.079c0.531-1.178,3.927-0.173,5.568,0.745
			c1.64,0.919,2.528,1.269,3.569,1.212c1.041-0.057,2.749-0.704,2.749-0.704s-1.145-1.716-1.596-4.711
			c-0.451-2.994,1.897-8.069,1.897-8.069s-1.431-0.286-1.678-1.344c-0.247-1.058-0.43-1.574-0.43-1.574s-1.748-0.584-2.293-1.324
			c-0.545-0.741-0.62-1.591-0.62-1.591s-1.733-1.579-1.717-2.575c0.015-0.996,4.902,2.141,8.38,3.498
			c3.479,1.357,6.097,2.482,6.699,4.263c0.602,1.781-0.697,3.387-0.393,5.485c0.304,2.099,0.951,3.807,0.951,3.807
			s5.393-6.901,7.22-7.576c1.826-0.675,2.966,2.345,5.692,3.134c2.726,0.789,5.425,1.461,5.074,2.348
			c-0.351,0.888-3.075,0.904-3.075,0.904s0.047,0.733-1.156,0.89c-1.203,0.157-2.836-1.259-2.836-1.259s-1.735,4.249-4.092,6.101
			C398.293,410.478,403.373,411.523,401.295,416.162z"/>
</svg>