<svg xmlns="http://www.w3.org/2000/svg" viewBox="432.687 200.337 60.402 53.326">
<path style="fill:#284955;" d="M482.35,231.767
			c0,0,2.471,0.933,2.605,1.2c0.134,0.267-1.469,0.669-3.338,1.271c-1.869,0.602-3.338,1.338-5.205,4.277s-5.003,7.148-13.818,5.418
			s-8.882-2.198-11.553-1.528c-2.67,0.67-5.674,1.94-6.81,1.407c-1.135-0.534-0.402-1.669-0.402-1.669s-2.137,0.135-2.404-0.933
			c-0.268-1.068,1.067-2.404,1.067-2.404s-1.803,0.001-1.804-1.268c-0.001-1.269,3.071-0.603,5.208-0.003
			c2.137,0.6,7.878-1.14,9.546-4.346c0,0-1.603-0.533-0.936-2.403c0,0-1.87-1.201-0.47-4.407c0,0-1.27-2.336,0.665-4.608
			c0,0-0.736-1.936,0.999-4.007c0,0-0.068-2.671,1.4-4.208c0,0-0.87-2.804,0.532-3.94c1.401-1.136,1.472,4.273,4.011,6.541
			c2.539,2.269,3.875,3.536,4.477,5.472c0,0,0.466-2.471,2.001-2.672c0,0-0.002-2.537,1.801-3.34c0,0-0.536-1.869,0.799-2.872
			c0,0-0.536-3.472,0.799-3.94c1.335-0.468,2.943,8.278,3.28,12.417c0.337,4.14-3.466,8.549-3.132,9.484
			c0,0,1.203,0.934,3.071-0.403C476.605,228.966,480.544,228.096,482.35,231.767z"/>
</svg>