<svg xmlns="http://www.w3.org/2000/svg" viewBox="4.491 118.640 52.867 46.215">
<path style="fill:#284955;" d="M45.893,144.423
			c0,0,1.369,1.329,1.164,1.893c0,0-1.426-0.647-2.244-0.472c-0.818,0.175-2.32,0.75-4.089,0.876
			c-1.233,0.088-3.284,3.649-7.386,4.175c-4.102,0.526-6.482,0.286-8.694,1.73c-2.213,1.444-3.406,4.23-4.219,3.973
			c-0.814-0.258-0.753-1.373-0.753-1.373s-0.962,1.273-2.086,0.429c-1.124-0.844-0.504-2.97-0.504-2.97s-1.535,0.285-2.139-0.97
			c-0.604-1.255,1.119-2.021,1.119-2.021s-1.662-0.349-1.566-1.631c0.096-1.281,3.612-1.497,5.458-1.196
			c1.846,0.301,2.795,0.327,3.748-0.08c0.953-0.407,2.331-1.593,2.331-1.593s-1.654-1.215-3.093-3.861s-0.969-8.187-0.969-8.187
			s-1.434,0.219-2.025-0.686c-0.591-0.905-0.936-1.325-0.936-1.325s-1.833,0.049-2.594-0.458c-0.761-0.507-1.12-1.277-1.12-1.277
			s-2.157-0.887-2.481-1.823c-0.324-0.936,5.31,0.335,9.023,0.421c3.713,0.086,6.543,0.247,7.711,1.708
			c1.168,1.46,0.5,3.403,1.497,5.261c0.998,1.859,2.184,3.236,2.184,3.236s2.696-8.285,4.174-9.536
			c1.478-1.251,3.569,1.184,6.386,0.995c2.817-0.189,5.568-0.478,5.542,0.471c-0.026,0.949-2.567,1.89-2.567,1.89
			s0.293,0.669-0.778,1.225c-1.071,0.556-3.079-0.213-3.079-0.213s-0.178,4.562-1.752,7.095
			C41.155,140.129,46.259,139.38,45.893,144.423z"/>
</svg>