<svg xmlns="http://www.w3.org/2000/svg" viewBox="355.720 181.218 123.225 132.961">
<g>
		<path style="fill:#302D3E;" d="M417.135,274.254c-0.884-5.1-0.702-10.253,0.005-15.362c0.12-0.866,0.227-1.729,0.313-2.589
			c-0.206,0.014-0.41,0.031-0.62,0.031c-2.313,0-4.422-0.859-6.04-2.267c-2.876,0.834-5.78,1.578-8.478,2.912
			c-2.529,1.25-4.931,2.78-7.141,4.532c-8.325,6.598-13.549,18.175-24.448,20.979c3.275,0.798,9.663-1.037,12.406-1.383
			c5.254-0.663,11.298-2.034,15.931-4.603c1.327-0.736,2.759-1.693,4.213-2.813c-0.473,4.119-0.185,8.305,1.248,12.536
			c1.893,5.59,5.592,8.842,10.511,11.789c3.459,2.072,6.67,4.317,8.214,8.163c0.151-0.078,0.298-0.183,0.444-0.296
			C426.706,294.917,418.953,284.745,417.135,274.254z"/>
		<path style="fill:#302D3E;" d="M394.235,260.805c3.975-3.316,8.529-5.735,13.307-7.677c0.586-0.238,1.166-0.484,1.742-0.735
			c-1.045-1.494-1.663-3.309-1.663-5.271c0-0.855,0.126-1.679,0.344-2.465c-1.958-1.894-3.9-3.804-6.178-5.323
			c-2.347-1.565-4.873-2.88-7.495-3.919c-9.876-3.911-22.515-2.646-30.392-10.682c0.947,3.235,5.729,7.85,7.401,10.052
			c3.201,4.219,7.411,8.768,11.953,11.495c1.301,0.781,2.846,1.543,4.542,2.242c-3.804,1.65-7.286,3.992-10.234,7.349
			c-3.894,4.435-4.861,9.264-4.954,14.997c-0.065,4.032-0.404,7.935-2.962,11.194c0.143,0.092,0.308,0.167,0.478,0.237
			C381.126,279.426,386.059,267.625,394.235,260.805z"/>
		<path style="fill:#302D3E;" d="M407.735,241.934c0.336,0.261,0.673,0.52,1.012,0.775c1.327-2.426,3.715-4.18,6.539-4.659
			c0.66-2.638,1.341-5.269,1.517-7.996c0.182-2.815,0.058-5.66-0.354-8.45c-1.551-10.508-8.966-20.821-5.945-31.662
			c-2.328,2.437-3.933,8.887-5.005,11.435c-2.053,4.882-3.888,10.802-3.979,16.099c-0.026,1.517,0.086,3.235,0.329,5.053
			c-3.33-2.469-7.1-4.313-11.48-5.188c-5.788-1.155-10.453,0.422-15.465,3.208c-3.524,1.959-7.073,3.618-11.176,3.032
			c-0.008,0.17,0.009,0.35,0.034,0.532c7.99,8.092,20.676,6.464,30.67,10.135C399.292,236.033,403.664,238.767,407.735,241.934z"/>
		<path style="fill:#302D3E;" d="M417.531,221.142c0.884,5.1,0.702,10.253-0.005,15.363c-0.066,0.478-0.127,0.954-0.185,1.431
			c2.671,0.146,5.041,1.419,6.63,3.365c2.843-0.823,5.711-1.565,8.378-2.883c2.529-1.25,4.931-2.78,7.141-4.532
			c8.325-6.598,13.549-18.175,24.448-20.979c-3.275-0.798-9.663,1.037-12.406,1.383c-5.254,0.663-11.299,2.034-15.931,4.604
			c-1.327,0.736-2.759,1.692-4.212,2.812c0.473-4.119,0.185-8.305-1.248-12.536c-1.893-5.59-5.592-8.842-10.511-11.789
			c-3.459-2.072-6.67-4.317-8.214-8.163c-0.151,0.078-0.298,0.183-0.444,0.296C407.96,200.479,415.713,210.652,417.531,221.142z"/>
		<path style="fill:#302D3E;" d="M440.43,234.592c-3.975,3.316-8.529,5.735-13.307,7.677c-0.675,0.274-1.342,0.558-2.002,0.85
			c0.587,1.212,0.926,2.567,0.926,4.004c0,0.913-0.138,1.793-0.385,2.625c0.134,0.126,0.271,0.251,0.402,0.377
			c2.18,2.09,4.29,4.254,6.815,5.938c2.347,1.565,4.873,2.88,7.495,3.919c9.876,3.911,22.515,2.646,30.392,10.682
			c-0.947-3.235-5.73-7.85-7.401-10.052c-3.201-4.219-7.411-8.768-11.953-11.495c-1.301-0.781-2.845-1.543-4.542-2.242
			c3.804-1.65,7.285-3.992,10.233-7.349c3.895-4.435,4.861-9.264,4.954-14.997c0.065-4.031,0.404-7.935,2.962-11.194
			c-0.143-0.092-0.308-0.167-0.478-0.237C453.539,215.971,448.605,227.772,440.43,234.592z"/>
		<path style="fill:#302D3E;" d="M426.93,253.462c-0.722-0.562-1.449-1.111-2.185-1.636c-1.289,2.163-3.431,3.755-5.969,4.3
			c0.195,0.389,0.4,0.773,0.621,1.154c-0.665,2.661-1.356,5.313-1.534,8.064c-0.182,2.815-0.058,5.66,0.354,8.45
			c1.551,10.508,8.966,20.821,5.945,31.662c2.328-2.437,3.934-8.887,5.005-11.435c2.053-4.882,3.888-10.802,3.979-16.099
			c0.026-1.516-0.086-3.235-0.329-5.053c3.33,2.469,7.099,4.312,11.479,5.187c5.788,1.155,10.454-0.422,15.465-3.208
			c3.524-1.959,7.073-3.617,11.176-3.032c0.008-0.17-0.009-0.35-0.034-0.532c-7.99-8.092-20.677-6.464-30.671-10.135
			C435.372,259.364,431.001,256.629,426.93,253.462z"/>
		
			<ellipse transform="matrix(0.9872 -0.1598 0.1598 0.9872 -34.13 69.7765)" style="fill:#302D3E;" cx="416.833" cy="247.122" rx="8.096" ry="8.096"/>
	</g>
</svg>