<svg xmlns="http://www.w3.org/2000/svg" viewBox="191.639 337.922 49.749 50.073">
<path style="fill:#284955;" d="M231.61,367.007
			c0,0,1.772,1.495,1.775,1.83c0.003,0.335-2.848,0.19-3.6,0.531c-0.752,0.341-2.811,4.883-8.929,4.848
			c-6.118-0.035-5.542-1.381-8.221-1.025c-2.679,0.356-10.256,6.618-11.429,6.711c-1.173,0.093-0.432-1.673-0.019-2.43
			c0,0-1.35-1.163-0.022-2.765c0,0-1.184-1.332,0.065-2.347c0,0-1.094-0.578-0.264-1.59c0.83-1.012,6.287,0.118,8.872-1.495
			c0,0-4.46-2.228-6.83-5.31c-2.371-3.082-3.061-5.842-2.606-6.433c0.455-0.59,1.13-0.009,1.13-0.009s-1.893-3.84-1.302-4.432
			c0.592-0.591,1.267-0.01,1.267-0.01s-0.771-2.173,0.146-2.767c0.917-0.594,1.258,0.158,1.258,0.158s-1.032-3.344,0.975-3.947
			c2.007-0.603,2.446,1.908,2.446,1.908s0.409-1.26,1.584-1.018c1.175,0.242,0.636,6.281,2.67,9.114s4.393,4.407,4.393,4.407
			s0.758-4.699,1.742-4.875c0.984-0.175,0.828,1.251,0.828,1.251s0.986-2.522,2.576-2.87c1.59-0.348,1.098,1.081,1.098,1.081
			s2.996-2.705,4.422-2.549c1.426,0.156,1.1,1.332,1.1,1.332s3.592-1.537,4.523-0.287c0.932,1.25-3.419,2.206-4.816,5.737
			c-1.397,3.531-0.132,4.527,0.456,4.69C227.485,364.609,229.817,362.831,231.61,367.007z"/>
</svg>