<svg xmlns="http://www.w3.org/2000/svg" viewBox="219.317 429.015 42.823 38.547">
<path style="fill:#284955;" d="M252.486,451.173
			c0,0,1.492,0.565,1.573,0.726c0.081,0.161-0.887,0.403-2.017,0.766s-2.017,0.807-3.146,2.581
			c-1.129,1.775-3.025,4.316-8.349,3.267c-5.324-1.049-5.364-1.331-6.978-0.928c-1.613,0.403-3.428,1.17-4.114,0.847
			c-0.686-0.323-0.242-1.008-0.242-1.008s-1.291,0.081-1.452-0.565c-0.161-0.645,0.645-1.452,0.645-1.452s-1.089,0-1.089-0.766
			c0-0.766,1.855-0.363,3.146,0c1.291,0.363,4.759-0.686,5.768-2.622c0,0-0.968-0.323-0.565-1.452c0,0-1.129-0.726-0.282-2.662
			c0,0-0.766-1.412,0.403-2.783c0,0-0.444-1.17,0.605-2.42c0,0-0.04-1.613,0.847-2.541c0,0-0.524-1.694,0.323-2.38
			s0.887,2.581,2.42,3.953c1.533,1.371,2.339,2.138,2.702,3.307c0,0,0.282-1.492,1.21-1.613c0,0,0-1.533,1.089-2.017
			c0,0-0.323-1.129,0.484-1.734c0,0-0.323-2.097,0.484-2.38c0.807-0.282,1.775,5.001,1.976,7.502
			c0.202,2.501-2.097,5.163-1.896,5.727c0,0,0.726,0.565,1.855-0.242C249.017,449.479,251.397,448.955,252.486,451.173z"/>
</svg>