<svg xmlns="http://www.w3.org/2000/svg" viewBox="371.839 161.074 51.440 49.298">
<path style="fill:#284955;" d="M413.654,182.871
			c0,0,1.597,0.617,1.625,1.155c0,0-1.404-0.034-2.018,0.397s-1.653,1.433-3.069,2.157c-0.988,0.505-1.432,4.164-4.635,6.037
			c-3.203,1.873-5.252,2.509-6.572,4.477c-1.321,1.968-1.329,4.687-2.091,4.76c-0.762,0.072-1.103-0.87-1.103-0.87
			s-0.348,1.388-1.572,1.086c-1.224-0.302-1.457-2.275-1.457-2.275s-1.168,0.773-2.106-0.051c-0.939-0.825,0.215-2.061,0.215-2.061
			s-1.495,0.294-1.865-0.798c-0.37-1.092,2.458-2.502,4.087-2.901c1.63-0.398,2.422-0.71,3.067-1.38
			c0.645-0.67,1.366-2.132,1.366-2.132s-1.792-0.424-3.908-2.104c-2.116-1.68-3.671-6.42-3.671-6.42s-1.108,0.684-1.913,0.144
			c-0.805-0.54-1.238-0.766-1.238-0.766s-1.496,0.683-2.302,0.531c-0.806-0.152-1.372-0.661-1.372-0.661s-2.092,0.023-2.687-0.636
			c-0.596-0.659,4.502-1.585,7.598-2.816c3.096-1.231,5.489-2.09,6.966-1.294c1.477,0.796,1.605,2.634,3.081,3.819
			c1.475,1.185,2.937,1.906,2.937,1.906s-0.679-7.786,0.103-9.337c0.782-1.551,3.362-0.274,5.622-1.417
			c2.259-1.144,4.429-2.347,4.741-1.554c0.311,0.793-1.457,2.461-1.457,2.461s0.477,0.45-0.213,1.284
			c-0.69,0.835-2.617,0.903-2.617,0.903s1.453,3.829,1.041,6.472C408.236,180.987,412.188,178.578,413.654,182.871z"/>
</svg>