<svg xmlns="http://www.w3.org/2000/svg" viewBox="353.968 237.423 53.805 64.930">
<path style="fill:#284955;" d="M397.494,267.635
			c0,0,2.093,1.845,2.186,2.131c0.093,0.286-2.472,0.175-3.455,0.391c-0.983,0.216-4.092,1.02-5.238,2.027
			c-1.146,1.007,1.172,5.202,2.969,6.511c1.797,1.31,1.038,6.404,2.472,10.151c1.434,3.746,1.679,5.141,0.474,5.324
			c-1.205,0.183-3.121-2.458-3.121-2.458s-0.927,1.356-2.347,0.556c-1.42-0.801-2.013-2.293-2.013-2.293s-1.271,0.626-2.561-0.744
			c-1.29-1.37-1.595-3.272-1.595-3.272s-0.826,0.375-2.116-0.995c-1.29-1.37-1.564-3.177-1.564-3.177s-1.52-0.136-2.207-1.597
			c-0.688-1.461-0.548-3.614-0.548-3.614s-2.242-1.059-4.562,0.225c-2.32,1.284-5.027,3.643-6.352,2.812
			c-1.325-0.832-0.87-2.666-0.87-2.666s-1.745,0.464-2.53-0.649c-0.785-1.113-0.016-2.629-0.016-2.629s-2.532-0.332-2.203-2.231
			c0.328-1.898,3.991-0.039,6.97-0.274c2.979-0.235,5.05-2.281,5.05-2.281s-2.272-1.471-1.813-3.939c0,0-2.237-2.009-1.337-4.094
			c0,0-2.202-2.547-0.729-5.135c0,0-1.413-2.068-0.486-3.424c0,0-1.147-4.156-0.22-5.512c0.927-1.356,4.689,5.001,8.417,6.418
			c3.729,1.417,5.841,3.045,6.492,5.361c0.651,2.316,1.803,5.522,2.464,6.255c0.661,0.732,3.709-0.579,6.717-0.402
			S397.494,267.635,397.494,267.635z"/>
</svg>