<?xml version="1.0" encoding="utf-8"?>
<svg version="1.1" xmlns="http://www.w3.org/2000/svg" xmlns:xlink="http://www.w3.org/1999/xlink" xml:space="preserve" viewBox="162 176 69 154">
<path d="M223.429,287.951c0.977-3.462,1.717-6.991,2.29-10.542c0.56-3.508,0.942-7.043,1.14-10.589
		c0.088-2.487,0.259-5.063-0.341-7.495c-0.335-0.891-1.349-0.8-1.685-0.025c-1.112,2.521-2.044,5.123-3.201,7.627
		c-1.52,3.362-3.368,6.569-4.742,9.997c-3.46,8.094-6.163,16.963-4.455,25.814c0.207,1.159,0.499,2.298,0.858,3.415
		c-1.677-2.785-3.26-5.626-4.755-8.513c-3.291-6.784-6.186-13.774-8.586-20.926c0.035-0.14,0.037-0.296-0.001-0.459
		c-0.01-1.012-0.051-2.03,0.007-3.042c0.11-1.603,0.476-3.18,0.931-4.716c1.883-6.607,4.445-13.002,7.683-19.062
		c2.621-5.178,5.129-10.489,6.523-16.145c1.331-5.64,1.202-11.476,1.693-17.221c0.049-0.615,0.097-1.231,0.151-1.846
		c0.026-0.486,0.174-1.048-0.099-1.488c-0.21-0.289-0.624-0.359-0.937-0.202c-0.488,0.345-0.686,0.993-1.059,1.456
		c-1.835,2.865-3.731,5.691-5.742,8.434c-3.615,4.888-7.005,10.058-8.94,15.864c-2.287,6.501-3.223,13.429-3.096,20.306
		c0.114,3.54,0.572,7.057,0.977,10.574c0.084,0.743,0.165,1.487,0.226,2.233c-0.057-0.186-0.112-0.373-0.167-0.56
		c-1.067-3.687-1.733-7.468-2.416-11.239c-0.876-5.037-1.84-10.059-2.985-15.042c-0.093-0.425-0.19-0.85-0.291-1.272
		c0.004-0.003,0.008-0.007,0.012-0.01c0.201-0.187,0.215-0.517,0.234-0.773c0.106-1.315,0.12-2.635,0.22-3.951
		c0.166-2.443,0.581-4.862,1.103-7.252c1.081-4.669,3.114-9.084,3.761-13.859c0.747-5.756,0.186-11.716-1.428-17.282
		c-2.169-6.856-6.145-12.939-9.964-18.968c-0.461-0.788-1.437-0.742-2.018-0.129c-1.088,1.051-1.469,2.577-1.99,3.951
		c-1.237,3.358-2.214,6.801-2.979,10.296c-1.127,4.854-1.782,9.837-1.882,14.82c0.117,3.482,0.571,6.976,1.485,10.34
		c0.596,2.078,1.31,4.126,2.235,6.083c1.501,3.178,3.628,6.006,5.323,9.077c1.275,2.219,2.413,4.514,3.478,6.84
		c0.26,0.567,0.506,1.14,0.757,1.709c0.086,0.183,0.151,0.389,0.305,0.522c0.568,2.608,1.055,5.234,1.533,7.857
		c0.538,3.004,0.979,6.027,1.467,9.041c-0.11-0.299-0.223-0.597-0.336-0.896c-0.689-1.74-1.545-3.406-2.349-5.094
		c-1.092-2.298-2.094-4.637-3.227-6.915c-1.462-2.946-3.2-5.775-5.318-8.296c-2.135-2.549-4.642-4.744-6.984-7.093
		c-2.761-2.742-5.345-5.693-7.442-8.98c-0.25-0.382-0.509-0.857-1.037-0.821c-0.581,0.021-0.884,0.645-0.717,1.156
		c0.124,0.9,0.197,1.809,0.295,2.713c0.395,3.626,0.557,7.335,1.807,10.794c1.163,3.232,2.708,6.316,4.377,9.314
		c0.903,1.631,1.89,3.231,3.107,4.649c2.894,3.52,6.753,6.02,10.452,8.606c3.281,2.265,5.986,5.286,8.071,8.673
		c0.466,0.729,0.909,1.471,1.331,2.228c2.118,8.255,5.014,16.296,8.511,24.066c1.179,2.506,2.468,4.954,3.853,7.347
		c-1.074-1.284-2.042-2.653-3.112-3.94c-3.303-4.105-7.12-7.797-11.28-11.03c-2.889-2.3-6.177-4.036-9.699-5.146
		c-3.815-1.458-8.309-1.64-11.503-4.4c-0.181-0.225-0.347-0.499-0.671-0.518c-0.383-0.037-0.722,0.262-0.762,0.638
		c-0.024,0.217,0.064,0.399,0.169,0.579c0.322,0.655,0.634,1.318,0.961,1.972c2.023,3.946,4.308,7.866,7.606,10.888
		c3.751,3.434,8.185,5.992,12.634,8.405c4.588,2.515,9.326,4.747,13.912,7.266c3.727,2.278,7.255,4.982,10.23,8.19
		c1.19,1.36,2.312,2.779,3.314,4.283c0.809,1.161,1.584,2.43,2.66,3.363c0.001,0.008,0.002,0.015,0.004,0.023
		c0.052,0.266,0.218,0.439,0.403,0.623c0.521,0.526,1.095,1.031,1.784,1.32c0.483,0.232,1.151,0.242,1.48-0.244
		c0.829-1.348-2.634-5.575-3.488-6.806c-0.694-0.777-2.418-3.712-3.467-3.949c-1.037-2.08-1.371-4.492-1.462-6.796
		c-0.088-3.51,0.875-6.914,2.005-10.204C221.247,294.358,222.533,291.217,223.429,287.951z"/>
</svg>
