<?xml version="1.0" encoding="utf-8"?>
<svg version="1.1" xmlns="http://www.w3.org/2000/svg" xmlns:xlink="http://www.w3.org/1999/xlink" xml:space="preserve" viewBox="219 60 85 83">
<path d="M299.665,117.843c0.896,2.328-2.915,7.609-4.438,9.421c-3.955,4.807-8.927,8.974-14.892,10.981
		c-2.323,0.752-5.019,1.547-7.365,0.499c-2.752-1.429-1.705-3.897-0.039-5.746c-2.481-0.217-4.978-0.083-7.464-0.046
		c-2.429,0.014-6.092,0.337-7.792-1.722c-0.211-0.432-0.037-0.831,0.171-1.226c0.324-0.74,1.018-1.171,1.641-1.635
		c-0.521-0.141-1.153-0.276-1.706-0.421c-4.563-1.142-9.422-2.124-12.907-5.531c-0.612-0.527-1.07-1.328-0.155-1.823
		c0.34-0.11,0.721-0.142,1.057-0.244c-1.964-1.245-3.841-2.654-5.741-4.007c-1.358-1.024-2.886-1.829-4.161-2.952
		c-0.626-0.532-0.661-1.612,0.151-1.982c0.827-0.343,1.78-0.355,2.643-0.534c0.005-0.009-0.431-0.383-0.47-0.416
		c-2.869-2.583-5.984-4.919-8.519-7.85c-0.785-0.678-1.265-1.742-0.161-2.403c1.144-0.402,2.437-0.248,3.636-0.318
		c-1.393-2.489-2.382-5.196-3.961-7.583c-0.431-0.635-0.884-1.253-1.364-1.85c-0.43-0.425-0.87-1.12-0.366-1.66
		c0.264-0.337,0.704-0.367,1.096-0.296c0.624,0.073,1.259,0.158,1.881,0.198c-1.519-1.855-2.824-3.876-4.074-5.918
		c-0.236-0.316-0.28-0.77-0.018-1.087c0.473-0.604,1.201-0.143,1.788-0.019c0.015,0.006,0.147,0.048,0.151,0.042
		c-0.294-1.633-0.763-3.255-1.372-4.804c-0.644-1.641-1.484-3.215-2.574-4.605c-0.713-0.784-0.621-1.878,0.614-1.924
		c5.408,0.138,10.775-1.009,16.181-0.406c0.318,0.022,0.641,0.057,0.957,0.029c0.068,0.013,0.082-0.013,0.038-0.078
		c-0.091-0.356-0.185-0.711-0.273-1.068c-0.943-3.655,1.418-3.933,4.209-2.682c1.626,0.586,3.205,1.301,4.741,2.09
		c1.712,0.842,3.322,1.911,5.097,2.617c0.126,0.077,0.158,0.054,0.093-0.074c-0.199-0.882-0.452-1.781-0.46-2.689
		c-0.068-1.629,0.838-2.741,2.54-2.298c1.725,0.309,3.408,0.942,4.905,1.855c2.318,1.517,4.257,3.589,5.898,5.8
		c0.012-1.163-0.053-2.332-0.006-3.495c0.024-0.482,0.052-0.984,0.366-1.377c0.608-0.703,1.512-0.142,2.102,0.285
		c1.275,0.803,2.586,1.547,3.86,2.355c3.006,1.903,5.23,4.732,7.419,7.483c2.255,2.649,3.863,5.778,5.018,9.042
		c0.421-1.501,0.628-3.186,1.442-4.532c0.719-0.73,1.469-0.001,1.841,0.702c0.802,1.195,1.47,2.481,2.069,3.786
		c2.853,6.559,5.006,13.453,5.786,20.582c0.332,2.998,0.512,6.014,0.556,9.029c0.025,0.083-0.066,0.23,0.05,0.249
		C299.494,117.651,299.589,117.744,299.665,117.843z"/>
</svg>
