<svg xmlns="http://www.w3.org/2000/svg" viewBox="303.344 200.782 40.043 36.536">
<path style="fill:#284955;" d="M333.833,223.025
			c0,0,1.554,0.486,1.52,0.803c-0.034,0.317-2.103,0.368-3.428,0.979c-1.326,0.611-3.501,2.624-6.965,2.946
			c-3.464,0.322-4.943-0.508-6.643-0.16c-1.701,0.348-3.159,1.725-3.875,1.531c-0.716-0.193-0.656-0.794-0.656-0.794
			s-0.485,0.399-1.09-0.131c-0.605-0.53-0.244-1.353-0.244-1.353s-0.646,0.147-0.877-0.445c-0.231-0.592,0.475-1.34,2.69-1.07
			s4.841-0.344,6.572-1.155c0,0-2.18-1.743-3.293-4.731c-1.112-2.988-0.775-5.838-0.343-5.996c0.432-0.158,0.62,0.136,0.62,0.136
			s-0.26-1.61,0.275-1.745c0.535-0.135,0.895,0.197,0.895,0.197s0.216-2.624,0.923-2.721c0.707-0.097,0.969,0.682,0.969,0.682
			s0.051-1.216,0.735-1.21c0.685,0.006,0.857,3.329,1.34,4.085c0,0-0.151-0.791,0.426-0.953c0.577-0.162,0.938,3.455,1.908,4.787
			c0.971,1.333,2.538,2.579,2.67,3.294c0,0,0.299-1.198,0.713-1.107c0.413,0.091,0.395,0.339,0.395,0.339s0.203-1.255,0.708-1.252
			c0.505,0.003,0.651,0.324,0.651,0.324s0.525-1.076,1.057-1.031c0.532,0.045,0.758,0.492,0.758,0.492s0.487-1.229,1.103-0.913
			c0.617,0.316-0.784,1.597-1.183,2.592s-0.539,1.795-0.539,1.795S333.891,221.449,333.833,223.025z"/>
</svg>