<svg xmlns="http://www.w3.org/2000/svg" viewBox="144.895 306.723 43.079 41.340">
<path style="fill:#284955;" d="M177.987,328.139
			c0,0,1.905,0.166,1.946,0.538c0.041,0.373-2.319,0.952-3.685,1.987c-1.366,1.035-3.354,3.892-7.246,5.134
			c-3.892,1.242-5.797,0.663-7.66,1.491c-1.863,0.828-3.188,2.774-4.058,2.733c-0.87-0.041-0.952-0.745-0.952-0.745
			s-0.456,0.58-1.284,0.124c-0.828-0.455-0.621-1.491-0.621-1.491s-0.704,0.331-1.118-0.29c-0.414-0.621,0.207-1.656,2.816-1.905
			c2.609-0.248,5.466-1.615,7.246-2.981c0,0-2.94-1.449-4.969-4.596c-2.029-3.147-2.36-6.501-1.905-6.79c0.455-0.29,0.745,0,0.745,0
			s-0.704-1.781-0.124-2.07c0.58-0.29,1.076,0,1.076,0s-0.414-3.064,0.373-3.354c0.787-0.29,1.283,0.538,1.283,0.538
			s-0.248-1.408,0.538-1.573c0.787-0.166,1.822,3.602,2.567,4.348c0,0-0.373-0.87,0.248-1.201c0.621-0.331,1.946,3.727,3.395,5.01
			c1.449,1.284,3.561,2.319,3.892,3.105c0,0,0.041-1.449,0.538-1.449c0.497,0,0.538,0.29,0.538,0.29s-0.083-1.491,0.497-1.615
			c0.58-0.124,0.828,0.207,0.828,0.207s0.331-1.366,0.952-1.449c0.621-0.083,0.994,0.373,0.994,0.373s0.248-1.532,1.035-1.325
			c0.787,0.207-0.497,2.029-0.704,3.271c-0.207,1.242-0.166,2.194-0.166,2.194S177.656,326.317,177.987,328.139z"/>
</svg>