<svg xmlns="http://www.w3.org/2000/svg" viewBox="25.917 16.999 130.545 200.814">
<g>
		<path style="fill:#302D3E;" d="M54.436,146.182c-1.453,1.872-4.318,2.838-6.357,3.549c-1.123,0.392-2.257,0.748-3.391,1.106
			c-1.309,0.99-2.526,2.089-3.287,3.525c1.406-0.413,2.878-0.601,4.343-0.554c0.848,0.027,1.695,0.133,2.543,0.1
			c1.941-0.075,3.842-0.908,5.213-2.283c0.159-0.159,0.286-0.346,0.428-0.52c-0.017-0.356-0.029-0.712-0.026-1.068
			c0.008-0.838,0.073-1.676,0.195-2.506C54.163,147.084,54.283,146.627,54.436,146.182z"/>
		<path style="fill:#302D3E;" d="M55.235,144.704c0.168-0.201,0.342-0.398,0.556-0.557c0.901-0.669,2.142-0.835,3.311-0.808
			c0.548-0.983,1.004-2.025,1.273-3.107c0.558-2.247,0.645-4.728-0.433-6.776c-0.833-1.583-2.323-2.844-2.721-4.588
			c0.008,1.308-0.57,2.537-0.935,3.794c-0.129,0.444-0.221,0.893-0.299,1.344c-0.033-0.046-0.077-0.083-0.111-0.129
			c-0.155,1.313-0.322,2.629-0.401,3.955c-0.117,1.979,0.175,3.976-0.056,5.949C55.384,144.087,55.32,144.4,55.235,144.704z"/>
		<path style="fill:#302D3E;" d="M43.828,150.059c0.909-0.21,1.811-0.415,2.681-0.651c1.794-0.488,3.594-1.034,5.274-1.842
			c0.749-0.36,1.502-0.793,2.113-1.352c-0.016-0.027-0.018-0.063,0.012-0.086c0.146-0.112,0.262-0.242,0.376-0.374
			c0.044-0.052,0.09-0.103,0.132-0.157c0.871-1.191,0.679-3.004,0.614-4.4c-0.076-1.636-0.129-3.259-0.06-4.897
			c0.045-1.079,0.126-2.157,0.209-3.236c-0.844-0.986-1.777-1.901-2.836-2.66c-2.953-2.601-7.396-3.554-11.055-2.016
			c-4.651,1.955-7.371,7.631-5.982,12.481c0.776,2.707,2.624,4.999,4.764,6.828C41.2,148.663,42.455,149.519,43.828,150.059z"/>
		<path style="fill:#302D3E;" d="M106.242,179.692c6.111-9.221,5.282-21.589,10.67-31.25c-0.452-0.009-0.898,0.04-1.348,0.057
			c-4.125,2.32-8.011,5.021-11.49,8.257c-3.622,3.369-6.804,7.207-9.427,11.402c-2.923,4.674-4.87,9.716-6.702,14.893
			c-1.048,2.962-2.096,5.924-3.137,8.889c-0.988,2.816-1.996,5.656-2.488,8.609c-0.155,0.935-0.216,1.864-0.229,2.79
			c0.867-1.786,2.092-3.442,3.446-4.898C91.904,191.597,101.078,187.484,106.242,179.692z"/>
		<path style="fill:#302D3E;" d="M47.599,78.447c4.406,2.892,10.059,2.909,15.313,2.494c1.981-0.156,3.956-0.382,5.928-0.632
			c-1.92,0.831-3.832,1.68-5.719,2.583c-5.349,2.559-10.84,5.782-13.46,11.102c-0.307,0.623-0.576,1.306-0.489,1.995
			c0.188,1.5,1.887,2.286,3.379,2.53c5.202,0.85,10.372-1.434,15.004-3.95c1.775-0.964,3.516-1.988,5.242-3.037
			c-1.438,1.562-2.88,3.119-4.257,4.735c-3.846,4.514-7.551,9.692-7.78,15.617c-0.027,0.694,0.005,1.427,0.364,2.022
			c0.782,1.294,2.653,1.321,4.116,0.937c5.098-1.339,8.892-5.529,12.1-9.711c1.21-1.577,2.364-3.196,3.497-4.829
			c-0.667,1.982-1.315,3.971-1.907,5.977c-1.677,5.688-2.956,11.925-0.756,17.431c0.258,0.645,0.585,1.301,1.155,1.699
			c1.241,0.864,2.961,0.127,4.141-0.818c4.112-3.297,5.875-8.668,7.104-13.793c0.464-1.933,0.86-3.881,1.23-5.834
			c0.146,1.541,0.312,3.08,0.498,4.617c-1.04,6.989-2.788,13.887-4.777,20.424c-4.031,13.249-9.016,26.561-11.243,40.306
			c-1.081-3.161-2.595-6.171-4.448-8.947c-3.079-4.612-6.982-8.334-11.221-11.735c0.163-0.421,0.276-0.857,0.277-1.322
			c-0.044-0.327-0.088-0.655-0.132-0.982c-0.004-0.012-0.011-0.022-0.015-0.035c-0.046-0.288-0.122-0.567-0.26-0.829
			c-0.085-0.303-0.239-0.567-0.461-0.791c-0.253-0.39-0.588-0.698-1.006-0.923c-0.196-0.083-0.392-0.165-0.587-0.248
			c0.064-0.087,0.102-0.193,0.163-0.282c-1.043,0.039-2.105,0.271-2.737,1.066c-0.865,1.088-1.041,2.798-1.188,4.129
			c-0.056,0.504-0.069,1.006-0.082,1.509c0.334,0.359,0.73,0.613,1.187,0.762c0.44,0.231,0.915,0.337,1.423,0.318
			c0.509,0.019,0.983-0.087,1.423-0.318c0.458-0.149,0.854-0.404,1.189-0.764c0.175-0.226,0.349-0.452,0.524-0.678
			c3.698,3.494,7.047,7.427,9.695,11.686c1.949,3.135,3.454,6.538,4.415,10.103c0.418,1.551,0.766,3.128,1.019,4.716
			c-0.163,1.774-0.287,3.554-0.333,5.346c-0.23,8.996,0.896,19.127,5.373,27.108c0.343,0.612,1.15,0.472,1.459-0.008
			c-1.101-3.055-1.178-6.203-0.544-9.386c0.619-3.105,1.76-6.077,2.842-9.042c1.133-3.105,2.254-6.214,3.382-9.322
			c1.884-5.192,4.042-10.177,7.133-14.778c5.011-7.457,11.878-13.909,19.865-18.126c-7.141,0.533-13.925,4.128-19.087,9.153
			c-5.708,5.556-9.628,12.702-12.672,20.063c-0.833,2.015-1.608,4.056-2.238,6.143c-0.937,3.107-1.54,6.314-1.812,9.548
			c-0.306-3.477-0.35-6.99-0.183-10.467c0.424-8.807,2.075-17.392,4.284-25.911c3.524-13.593,8.071-26.997,10.433-40.841
			c0.931,4.21,2.484,8.245,5.529,11.207c0.498,0.484,1.064,0.951,1.746,1.082c1.485,0.285,2.757-1.088,3.45-2.432
			c2.416-4.684,1.841-10.308,0.879-15.49c-0.363-1.955-0.793-3.897-1.249-5.833c1.027,1.823,2.072,3.636,3.168,5.419
			c3.104,5.052,6.884,10.176,12.448,12.226c0.652,0.24,1.358,0.436,2.035,0.278c1.473-0.343,2.076-2.115,2.163-3.625
			c0.302-5.262-2.511-10.165-5.497-14.508c-1.144-1.663-2.343-3.287-3.566-4.892c1.702,1.265,3.4,2.536,5.149,3.735
			c4.891,3.353,10.428,6.496,16.345,6.105c0.693-0.046,1.418-0.154,1.972-0.574c1.206-0.913,1.036-2.777,0.501-4.191
			c-1.865-4.93-6.428-8.266-10.923-11.018c-1.696-1.039-3.427-2.018-5.17-2.974c2.043,0.457,4.09,0.894,6.149,1.273
			c5.832,1.073,12.169,1.693,17.415-1.07c0.615-0.324,1.233-0.718,1.569-1.326c0.73-1.324-0.183-2.958-1.247-4.033
			c-3.709-3.745-9.234-4.936-14.46-5.623c-1.971-0.259-3.949-0.449-5.929-0.614c2.05-0.413,4.095-0.846,6.128-1.337
			c5.764-1.391,11.805-3.402,15.474-8.061c0.43-0.546,0.834-1.157,0.893-1.85c0.128-1.507-1.37-2.628-2.779-3.177
			c-4.911-1.913-10.444-0.754-15.497,0.745c-1.935,0.574-3.849,1.213-5.753,1.879c1.729-1.228,3.463-2.45,5.145-3.743
			c4.7-3.616,9.401-7.91,10.857-13.658c0.171-0.674,0.292-1.397,0.064-2.053c-0.495-1.429-2.321-1.844-3.831-1.772
			c-5.265,0.25-9.847,3.559-13.854,6.983c-1.512,1.292-2.979,2.636-4.427,3.999c1.066-1.802,2.114-3.613,3.11-5.454
			c2.823-5.215,5.371-11.05,4.364-16.893c-0.118-0.685-0.302-1.394-0.777-1.901c-1.033-1.104-2.87-0.74-4.22-0.061
			c-4.708,2.37-7.548,7.257-9.816,12.015c-0.855,1.794-1.647,3.617-2.416,5.449c0.24-2.078,0.461-4.157,0.622-6.243
			c0.458-5.912,0.412-12.279-2.885-17.208c-0.386-0.578-0.843-1.151-1.483-1.421c-1.393-0.588-2.923,0.491-3.88,1.661
			c-3.337,4.08-3.944,9.7-4.081,14.969c-0.052,1.987-0.034,3.974,0.009,5.961c-0.625-1.995-1.27-3.985-1.971-5.955
			c-1.986-5.587-4.618-11.385-9.634-14.547c-0.588-0.37-1.238-0.709-1.933-0.695c-1.512,0.03-2.47,1.637-2.869,3.096
			c-1.389,5.084,0.342,10.465,2.36,15.334c0.773,1.865,1.609,3.702,2.471,5.527c-1.402-1.592-2.799-3.189-4.262-4.726
			c-4.087-4.296-8.849-8.522-14.718-9.37c-0.688-0.099-1.419-0.144-2.049,0.151c-1.369,0.642-1.591,2.501-1.362,3.995
			c0.799,5.21,4.569,9.421,8.393,13.049c1.442,1.368,2.932,2.685,4.438,3.983c-1.902-0.871-3.813-1.724-5.748-2.522
			c-5.481-2.263-11.551-4.186-17.257-2.574c-0.669,0.189-1.355,0.446-1.81,0.971c-0.99,1.143-0.436,2.931,0.381,4.204
			c2.849,4.434,8.006,6.748,12.975,8.507c1.873,0.663,3.768,1.26,5.671,1.833c-2.091-0.022-4.182-0.023-6.272,0.034
			c-5.928,0.163-12.255,0.874-16.812,4.668c-0.534,0.445-1.057,0.958-1.258,1.623C45.103,76.208,46.335,77.617,47.599,78.447z"/>
	</g>
</svg>