<svg xmlns="http://www.w3.org/2000/svg" viewBox="365.611 323.479 106.035 157.726">
<g>
		<path style="fill:#302D3E;" d="M374.373,405.215c11.122,2.048,21.564,6.177,31.741,11.091c4.845,2.339,9.229,5.45,13.071,9.217
			c1.101,1.079,2.183,2.219,3.244,3.388c1.014-6.939-2.582-12.3-2.582-12.3l-0.227,0.853c-1.955-8.86-9.368-10.63-9.368-10.63
			l0.251,1.128c-4.463-5.793-8.985-4.041-8.985-4.041l0.307,0.968c-4.06-4.075-9.432-2.763-9.432-2.763l0.521,0.971
			c-3.607-2.195-8.555-0.556-8.555-0.556l0.732,1.188C381.877,401.997,376.378,404.272,374.373,405.215z"/>
		<path style="fill:#302D3E;" d="M456.345,378.669l-1.082,1.758c1.487-12.98-6.49-16.361-6.49-16.361l-0.811,1.623
			c-0.135-10.276-8.654-15.279-8.654-15.279l-0.541,1.893c-1.893-7.302-10.276-11.358-10.276-11.358l-0.541,2.434
			c-1.922-6.087-11.411-9.97-15.326-11.338c0.984,3.114,1.722,6.321,2.695,9.436c1.159,3.711,2.459,7.376,3.832,11.013
			c4.939,13.082,10.87,25.794,15.122,39.131c2.184,6.851,3.749,13.8,4.826,20.907c0.555,3.668,1.141,7.352,2.338,10.876
			c0.073,0.214,0.171,0.406,0.25,0.615c12.352-7.468,14.794-20.875,14.794-20.875l-1.352,0.811
			C463.646,390.162,456.345,378.669,456.345,378.669z"/>
		<path style="fill:#302D3E;" d="M440.534,424.902c-0.086-0.222-0.191-0.445-0.273-0.666c-1.477-4.014-2.007-8.293-2.615-12.503
			c-2.069-14.326-7.158-27.793-12.602-41.128c-2.747-6.728-5.559-13.435-8.043-20.267c-1.207-3.319-2.339-6.666-3.349-10.05
			c-0.839-2.81-1.68-5.684-2.074-8.603c-0.421-0.136-0.666-0.206-0.666-0.206c1.217,5.273-0.27,16.361-0.27,16.361l-1.217-1.217
			c-2.028,8.519,0.676,25.42,0.676,25.42l-1.623-0.946c0.27,7.707,5.273,20.688,5.273,20.688l-1.487-0.676
			c1.082,5.409,6.626,12.71,6.626,12.71l-1.622,0.27c6.995,13.757,18.192,19.662,21.15,21.031c0.48,7.721,0.444,15.473-0.129,23.203
			c-0.39,5.257-1.143,10.439-2.179,15.574c-0.118-0.698-0.253-1.385-0.376-2.017c-0.482-2.467-1.206-4.912-1.984-7.3
			c-1.499-4.602-3.354-9.134-5.57-13.437c-1.795-3.486-3.878-6.848-6.205-10.033c0.041-0.143,0.064-0.281,0.1-0.423
			c-1.217-1.454-2.46-2.888-3.815-4.237c-3.828-3.811-8.072-6.988-12.866-9.485c-9.832-5.123-20.765-9.121-31.64-11.448
			c-0.085,0.043-0.143,0.074-0.143,0.074c2.544,1.643,6.269,6.677,6.269,6.677l-0.963-0.014c2.506,4.212,10.181,9.946,10.181,9.946
			l-1.021,0.252c3.113,2.99,10.183,6.253,10.183,6.253l-0.861,0.309c2.543,1.75,7.616,2.522,7.616,2.522l-0.546,0.741
			c8.53,2.921,15.558,0.624,16.883,0.134c1.974,2.907,3.777,5.94,5.377,9.118c2.188,4.342,3.948,8.853,5.197,13.553
			c0.581,2.186,1.058,4.395,1.456,6.621c0.375,2.101,0.482,4.86,1.762,6.608c-0.325,1.362-0.641,2.725-1.011,4.08
			c-0.129,0.473,0.595,0.814,0.816,0.344c3.035-6.425,4.361-13.494,5.149-20.518c0.807-7.187,1.017-14.439,0.758-21.665
			C440.788,428.667,440.674,426.783,440.534,424.902z"/>
	</g>
</svg>