<svg xmlns="http://www.w3.org/2000/svg" viewBox="297.328 269.786 38.208 42.034">
<path style="fill:#284955;" d="M325.181,288.429
			c0,0,1.335,0.894,1.41,1.05c0.075,0.156-1.398,0.288-1.943,0.486c-0.545,0.198-2.259,0.894-2.837,1.556
			c-0.578,0.662,1.065,2.881,2.191,3.492c1.126,0.611,1.08,3.578,2.184,5.607s1.35,2.808,0.676,3.004
			c-0.674,0.196-1.969-1.166-1.969-1.166s-0.426,0.845-1.298,0.496c-0.872-0.349-1.324-1.156-1.324-1.156s-0.678,0.454-1.519-0.23
			c-0.841-0.684-1.16-1.747-1.16-1.747s-0.443,0.277-1.284-0.407c-0.841-0.684-1.135-1.695-1.135-1.695s-0.878,0.038-1.382-0.744
			c-0.504-0.782-0.588-2.022-0.588-2.022s-1.361-0.434-2.588,0.476s-2.593,2.463-3.413,2.089c-0.82-0.374-0.7-1.456-0.7-1.456
			s-0.961,0.398-1.494-0.178c-0.533-0.576-0.209-1.5-0.209-1.5s-1.471,0.003-1.428-1.106c0.043-1.109,2.276-0.326,3.959-0.687
			c1.683-0.361,2.71-1.687,2.71-1.687s-1.409-0.667-1.335-2.111c0,0-1.43-0.977-1.075-2.236c0,0-1.451-1.287-0.807-2.877
			c0,0-0.964-1.073-0.538-1.918c0,0-0.971-2.286-0.545-3.131c0.426-0.845,3.058,2.499,5.295,3.023
			c2.237,0.525,3.567,1.294,4.115,2.567c0.548,1.273,1.45,3.016,1.883,3.384c0.433,0.368,2.074-0.613,3.805-0.741
			C324.57,286.739,325.181,288.429,325.181,288.429z"/>
</svg>