<?xml version="1.0" encoding="utf-8"?>
<svg version="1.1" xmlns="http://www.w3.org/2000/svg" xmlns:xlink="http://www.w3.org/1999/xlink" xml:space="preserve" viewBox="40 347 110 113">
<path d="M145.666,404.025c0.241,1.479-2.903,2.878-3.929,3.702c-2.841,1.721-5.003,4.289-6.894,6.979
		c-3.022,4.283-5.443,9.135-9.634,12.441c-1.778,1.448-3.637,2.802-5.537,4.085c-1.129,0.804-2.367,1.426-3.691,1.837
		c-3.24,0.911-6.739,1.186-10.053,0.53c-3.329-0.561-6.257-2.303-9.017-4.158c-2.219-1.491-4.748-2.398-7.346-2.967
		c-0.057,2.609-0.305,5.214-0.597,7.807c-0.153,2.827-0.38,5.647-0.715,8.457c-0.097,0.804-0.197,1.607-0.308,2.41
		c-0.078,0.199,0.133,0.349,0.153,0.547c0.229,2.31,0.026,4.65,0.123,6.965c-0.003,0.691,0.232,1.493-0.257,2.073
		c-0.053,0.862-0.372,1.939-1.456,1.788c-0.578-0.105-0.963-0.618-0.958-1.197c-0.01-0.94-0.076-1.881-0.148-2.82
		c-0.439-5.348-0.638-5.745-5.677-7.521c-3.441-1.196-6.894-2.431-10.491-3.071c-4.479-0.832-9.251-1.157-13.199-3.641
		c-8.08-5.26-10.379-16.863-11.241-25.843c-0.111-1.22-0.239-2.44-0.318-3.662c-0.088-1.961-0.426-3.996,0.058-5.924
		c0.804-1.931,2.307-1.029,3.624-0.225c2.096,1.16,4.234,2.244,6.388,3.292c3.383,1.615,6.729,3.31,10.023,5.099
		c2.62,1.361,5.197,2.833,7.46,4.747c3.22,2.484,5.911,5.555,8.312,8.82c2.294,3.055,4.268,6.409,5.177,10.149
		c0.118-1.251-0.229-7.669,0.319-12.129c-0.046-0.319-0.097-0.637-0.155-0.955c-0.076-0.687-0.596-1.387-0.248-2.065
		c0.066-0.118,0.077-0.054,0.013-0.162c-0.486-0.812-0.976-1.623-1.486-2.421c-2.018-3.313-4.862-5.993-7.079-9.157
		c-3.165-4.49-5.11-11.97-4.822-17.442c0.194-4.09,1.921-7.896,3.989-11.366c1.094-1.835,2.283-3.656,3.847-5.128
		c2.494-2.33,5.5-4.075,7.703-6.72c2.888-3.323,5.201-7.093,7.434-10.875c0.653-1.106,1.304-2.213,1.925-3.336
		c0.167-0.305,0.318-0.677,0.59-0.904c0.466-0.37,1.124-0.08,1.31,0.453c1.398,4.541,2.789,9.094,4.799,13.415
		c1.736,4.07,3.813,8.06,4.673,12.434c1.146,6.11,0.222,12.82-2.593,18.363c-1.357,2.378-3.176,4.44-4.858,6.589
		c-2.132,2.672-4.132,5.441-6.107,8.228c-1.012,1.362-2.165,2.639-2.931,4.167c-0.633,1.274-1.025,2.745-1.371,4.1
		c1.6-1.874,3.505-3.491,5.329-5.151c1.607-1.458,3.263-2.86,5.026-4.13c2.575-1.834,5.262-3.538,8.149-4.838
		c3.265-1.385,6.744-2.2,10.218-2.864c5.452-1.022,11.011-0.701,16.518-0.53C137.842,402.491,145.3,401.524,145.666,404.025z"/>
</svg>
