<?xml version="1.0" encoding="utf-8"?>
<svg version="1.1" xmlns="http://www.w3.org/2000/svg" xmlns:xlink="http://www.w3.org/1999/xlink" xml:space="preserve" viewBox="149 348 96 112">
<path d="M234.221,394.375c4.274,9.855,6.518,21.078,4.357,31.725c-1.395,5.589-4.671,10.976-9.653,14.032
		c-0.189,0.099-0.398,0.193-0.602,0.264c-0.028,0.033,0.028,0.26,0.035,0.312c0.217,1.683,0.57,3.358,1.091,4.976
		c0.216,0.076,0.433,0.147,0.65,0.212c1.358,0.097,0.903,2.349-0.364,2.176c-0.013-0.002-0.026-0.004-0.039-0.007
		c-0.154,0.136-0.379,0.219-0.68,0.221c-0.333-0.048-0.559-0.234-0.734-0.481c-0.02-0.028-0.039-0.058-0.058-0.087
		c-0.102-0.032-0.204-0.065-0.306-0.098h-0.002c-0.128,0.074-0.292,0.111-0.487,0.098c-4.945-1.234-9.696-3.202-14.64-4.459
		c-2.486-0.643-5.059-0.897-7.602-1.224c-1.262-0.169-2.445-0.336-3.571-0.496c-0.16,0.158-0.316,0.318-0.476,0.47
		c-2.839,2.802-5.242,6.031-8.241,8.67c-3.861,3.296-9.134,4.77-14.161,4.259c-5.61-0.476-10.623-3.157-15.957-4.679
		c-2.312-0.606-4.666-1.067-7.024-1.451c-0.437-0.093-0.92-0.071-1.306-0.309c-0.94-0.946,0.524-1.919,1.139-2.568
		c2.544-2.533,5.29-4.842,8.352-6.726c1.877-1.232,3.776-2.429,5.65-3.659c2.953-1.968,6.005-4.03,9.603-4.513
		c4.846-0.587,9.69,0.914,14.233,2.458c3.112,1.094,6.052,2.62,8.822,4.4c0.039,0.026,0.123,0.091,0.169,0.104l0.141-0.009
		c0.245,0.006,0.455,0.201,0.546,0.413c0.184-0.033,0.377-0.128,0.57-0.139c0.708-0.048,1.007,0.751,0.79,1.332
		c4.054,0.63,8.098,1.338,12.012,2.577c0.485,0.152,0.968,0.307,1.449,0.466c-3.203-1.988-6.213-4.292-8.956-6.873
		c-5.901-5.606-11.173-11.894-15.374-18.876c-1.173-1.951-2.299-3.934-3.361-5.95c-2.202-0.528-4.281-1.585-6.36-2.46
		c-3.718-1.73-7.183-4.073-9.982-7.085c-9.084-9.963-4.679-24.454-1.39-35.943c0.667-2.451,1.303-4.911,1.925-7.375
		c0.387-1.341,0.583-2.748,1.046-4.06c1.453-1.782,2.889,0.792,3.586,1.975c8.664,15.11,16.992,20.777,15.597,40.044
		c-0.16,4.071-0.777,8.122-0.712,12.2c0.008,0.803,0.052,1.613,0.152,2.408c0.043,0.333,0.11,0.65,0.195,0.974
		c0.113,0.373-0.013,0.736-0.26,1.002c1.593,2.776,3.337,5.468,5.203,8.073c6.126,8.356,13.343,16.173,22.531,21.175
		c1.73,0.883,3.439,1.914,5.203,2.774c-0.47-1.466-0.79-2.982-1.072-4.469c-3.242-4.872-6.158-10.054-8.3-15.517
		c-3.965-10.271-6.615-22.836-0.279-32.706c1.118-1.847,2.445-3.569,3.848-5.214c1.087-1.156,2.455-3.053,4.259-2.427
		c0.102,0.032,0.23,0.186,0.236-0.033c0.156-0.279,0.437-0.476,0.754-0.531C229.356,384.108,233.069,391.759,234.221,394.375z"/>
</svg>
