<?xml version="1.0" encoding="utf-8"?>
<svg version="1.1" xmlns="http://www.w3.org/2000/svg" xmlns:xlink="http://www.w3.org/1999/xlink" xml:space="preserve" viewBox="33 39 82 128">
<path d="M94.818,120.383c3.144,6.925,4.44,14.521,5.643,21.982c0.651,3.809,1.562,7.574,2.126,11.402
		c0.286,2.102,0.884,4.153,1.176,6.247c0.043,0.227-0.074,0.419-0.042,0.643c0.025,0.202,0.133,0.385,0.297,0.504
		c2.299,0.971,0.802-3.8,0.707-5.077c-0.532-3.84-0.987-7.692-1.619-11.52c-0.891-7.001-1.83-14.095-4.138-20.791
		c0.005-0.004,0.009-0.007,0.013-0.011c0.413-0.348,0.601-0.83,0.748-1.337c0.398-1.652,0.695-3.322,0.943-5
		c0.129-0.052,0.242-0.149,0.319-0.287c0.056-0.097,0.013-0.108,0.115-0.095c0.561,0.08,1.09-0.453,0.998-1.015
		c2.009-1.85,4.426-3.271,6.118-5.454c1.942-2.458,3.083-5.579,3.116-8.714c-0.072-4.004-3.326-10.077-7.46-11.011
		c-3.971-1.049-5.551,3.111-6.285,6.213c-1.165,3.715-0.536,7.659,0.415,11.351c0.384,1.453,0.925,2.861,1.402,4.287
		c-0.252,3.067-0.474,6.144-1.176,9.126c-2.093-4.846-4.301-9.67-7.002-14.208c0.008,0.011,0.018,0.021,0.028,0.031
		c0.379,0.386,0.992,0.058,1.084-0.416c0.509-1.772,0.592-3.634,0.594-5.468c-0.09-3.758-0.392-7.512-0.659-11.263
		c0.195,0.008,0.396-0.07,0.523-0.249c1.736-3.465,2.083-7.384,3.298-11.026c1.198,0.074,1.076-1.287,0.969-2.11
		c-0.033-0.167-0.055-0.31,0.169-0.297c2.613-0.347,4.073-2.815,5.296-4.887c1.643-2.785,2.798-5.913,3.028-9.155
		c0.427-6.819-8.014-17.798-11.603-6.467c-0.922,3.022-1.316,6.236-0.875,9.379c0.48,3.445,1.035,6.883,1.753,10.286
		c0.031,0.35,0.286,0.742,0.091,1.05c-0.866,2.168-1.234,4.48-1.642,6.767c-0.274,1.638-0.688,3.243-1.218,4.813
		c-0.45-3.343-1.076-6.662-1.793-9.958c-0.787-3.173-1.315-6.403-2.078-9.579c-0.266-1.002-0.561-1.995-0.861-2.986
		c0.051-0.178,0.098-0.354,0.146-0.532c1.036-4.056,2.592-8.391,1.011-12.513c-0.873-2.351-2.11-4.67-3.974-6.385
		c-1.621-1.385-3.629-2.279-5.658-2.888c-1.918-0.664-3.518-0.268-4.656,1.465c-2.407,3.436-1.176,7.723,0.635,11.124
		c1.45,3.159,3.292,6.167,5.968,8.438c1.386,1.275,2.922,2.393,4.25,3.721c-0.061,0.299-0.266,0.628-0.214,0.953
		c0.059,0.619,0.903,0.859,1.264,0.346c0.007-0.013,0.013-0.025,0.02-0.038c0.616,2.729,1.006,5.509,1.751,8.21
		c1.202,4.84,2.245,9.741,2.762,14.706c0.273,3.272,0.788,6.528,0.902,9.812c-0.02,1.496,0.065,3.097-0.4,4.522
		c-0.062,0.138-0.061,0.298-0.007,0.436c-0.468-0.783-0.95-1.557-1.451-2.321c-4.66-7.025-10.666-13.08-17.183-18.392
		c-0.558-0.418-1.124-0.823-1.697-1.218c-0.107-1.117-0.546-2.214-0.927-3.268c-0.79-2.188-1.822-4.289-2.963-6.315
		c-1.968-3.589-4.301-7.074-7.649-9.515c-2.869-2.091-7.229-4.789-10.395-1.821c-4.024,3.23-5.677,8.924-2.029,13.091
		c2.752,3.143,6.846,4.573,10.655,5.992c3.278,1.191,6.502,2.572,9.953,3.184c0.962,0.241,1.926,0.498,2.859,0.84
		c1.129,0.836,2.22,1.723,3.243,2.699c0.847,0.744,1.682,1.505,2.502,2.279c-0.211-0.03-0.422-0.057-0.631-0.083
		c-1.857-0.191-3.725-0.145-5.588-0.163c-3.811-0.383-7.642-0.548-11.437-1.101c-1.274-1.585-3.262-2.425-4.988-3.43
		c-4.09-2.147-10.096-3.927-13.756-0.127c-1.932,2.386-1.63,5.767-0.335,8.38c0.606,1.367,1.318,2.729,2.433,3.755
		c3.06,2.64,5.819,1.576,9.051,0.05c1.362-0.557,2.818-0.936,4.019-1.822c0.884-0.642,1.677-1.399,2.386-2.229
		c0.712-0.778,1.18-1.827,2.078-2.412c1.709,0.038,3.418,0.5,5.138,0.595c1.785,0.078,3.569,0.333,5.356,0.261
		c2.888-0.124,5.784-0.036,8.606,0.606c1.917,1.945,3.739,3.983,5.438,6.12c-1.093-0.706-2.122-1.518-3.318-2.054
		c-1.382-0.721-2.865-1.2-4.351-1.654c-3.589-1.093-11.766-2.984-14.175,0.797c-1.497,2.323-2.037,5.601-0.517,8.04
		c0.972,1.448,2.837,1.816,4.464,1.967c1.964,0.211,3.835-0.423,5.611-1.193c1.576-0.61,3.244-0.93,4.894-1.272
		c1.102-0.193,2.182-0.475,3.268-0.731c1.712-0.359,3.455-0.523,5.171-0.86c0.391-0.067,0.785-0.092,1.177-0.086
		c0.458,0.643,0.904,1.296,1.339,1.958C90.332,110.542,92.621,115.456,94.818,120.383z"/>
</svg>
