<svg xmlns="http://www.w3.org/2000/svg" viewBox="110.630 341.671 35.501 48.045">
<path style="fill:#284955;" d="M137.475,368.893
			c0,0,0.413,1.553,0.366,1.72c-0.047,0.167-1.24-0.706-1.78-0.917c-0.54-0.211-2.287-0.819-3.158-0.703
			c-0.871,0.116-1.101,2.867-0.659,4.069c0.443,1.202-1.55,3.4-2.06,5.654c-0.51,2.254-0.839,3-1.475,2.703
			c-0.636-0.298-0.71-2.175-0.71-2.175s-0.878,0.354-1.302-0.484c-0.425-0.838-0.232-1.742-0.232-1.742s-0.809-0.106-0.989-1.175
			c-0.18-1.069,0.282-2.078,0.282-2.078s-0.516-0.084-0.696-1.153c-0.18-1.069,0.266-2.022,0.266-2.022s-0.685-0.551-0.547-1.471
			c0.137-0.92,0.893-1.907,0.893-1.907s-0.736-1.224-2.258-1.35c-1.522-0.126-3.573,0.139-3.942-0.683
			c-0.369-0.822,0.435-1.556,0.435-1.556s-0.985-0.335-1.005-1.12c-0.02-0.784,0.833-1.265,0.833-1.265s-1.107-0.968-0.343-1.773
			c0.764-0.805,1.925,1.257,3.427,2.097s3.149,0.521,3.149,0.521s-0.618-1.431,0.39-2.467c0,0-0.429-1.678,0.668-2.389
			c0,0-0.241-1.924,1.293-2.694c0,0-0.016-1.442,0.862-1.796c0,0,0.779-2.358,1.657-2.712c0.878-0.354,0.648,3.895,1.982,5.766
			c1.334,1.871,1.826,3.326,1.397,4.644c-0.429,1.318-0.901,3.223-0.819,3.785c0.082,0.562,1.963,0.908,3.347,1.954
			C138.131,367.219,137.475,368.893,137.475,368.893z"/>
</svg>