<svg xmlns="http://www.w3.org/2000/svg" viewBox="75.089 184.288 121.814 140.373">
<g>
		<path style="fill:none;" d="M120.782,239.653c-0.023-0.212-0.033-0.425-0.052-0.637c-0.304-0.906-0.562-1.849-0.76-2.814
			c0.282,1.569,0.602,3.145,0.98,4.696C120.886,240.483,120.827,240.068,120.782,239.653z"/>
		<path style="fill:#302D3E;" d="M124.133,244.23c0.504,0.786,1.056,1.54,1.658,2.255c0.36,0.428,0.738,0.837,1.103,1.258
			c1.611-0.358,3.646,0.528,4.915,1.388c0.56,0.379,1.08,0.812,1.574,1.275c0.294-0.046,0.587-0.108,0.874-0.175
			c1.262-0.292,2.494-0.74,3.68-1.258c0.197-0.086,0.385-0.19,0.58-0.282c1.168-0.917,2.37-1.8,3.49-2.701
			c10.861-8.736,16.13-23.88,13.038-37.471c-1.236-5.435-3.694-10.658-3.817-16.231c-8.637,4.924-16.655,11.214-22.411,19.32
			c-4.731,6.663-7.833,14.644-8.193,22.763c0.198,1.684,0.586,3.355,1.136,4.956C122.351,241.049,123.15,242.697,124.133,244.23z"/>
		<path style="fill:#302D3E;" d="M134.556,254.73c-0.016-0.072-0.03-0.145-0.026-0.229c0-0.013,0.014-0.015,0.022-0.022
			c-0.126-0.16-0.247-0.327-0.379-0.49c-0.316-0.39-0.603-0.801-0.92-1.189c-0.622-0.76-1.34-1.455-2.147-2.018
			c-0.001,0-0.001-0.001-0.002-0.001c-0.022-0.014-0.041-0.029-0.062-0.043c-1.075-0.748-3.781-2.526-4.722-0.842
			c-0.415,0.743,0.517,1.559,0.994,2.03c0.661,0.655,1.414,1.201,2.233,1.641c0.819,0.439,1.698,0.765,2.605,0.968
			c0.48,0.107,0.964,0.178,1.454,0.207c0.171,0.01,0.59,0.072,0.905,0.049C134.522,254.767,134.535,254.747,134.556,254.73z"/>
		<path style="fill:#302D3E;" d="M137.825,250.215c-1.148,0.47-2.407,0.861-3.656,1.011c0.086,0.098,0.187,0.181,0.27,0.282
			c0.704,0.859,1.629,2.126,1.41,3.301c-0.003,0.016-0.015,0.025-0.02,0.039c-0.006,0.058-0.025,0.112-0.039,0.168
			c0.045,0.033,0.091,0.069,0.135,0.1c0.522,0.359,1.032,0.731,1.536,1.114c0.514,0.39,1.034,0.77,1.563,1.137
			c0.004,0.003,0.007,0.005,0.011,0.008c0.528,0.366,1.066,0.72,1.616,1.057c4.073,2.496,8.846,4.606,13.702,4.59
			c1.264-0.004,2.496-0.195,3.712-0.474c1.736-0.556,3.413-1.296,4.981-2.222c5.687-3.359,9.94-9,11.804-15.337
			c1.061-3.607,1.375-7.384,2.038-11.085c1.166-6.51,3.433-12.822,6.675-18.586c-4.611-2.329-10.361-1.487-14.819,1.123
			c-4.459,2.61-7.808,6.76-10.6,11.107c-2.793,4.346-5.138,8.982-8.174,13.162c-1.409,1.94-2.982,3.793-4.911,5.217
			c-0.796,0.588-1.644,1.09-2.514,1.556c-0.298,0.23-0.599,0.451-0.897,0.66C140.454,248.979,139.173,249.662,137.825,250.215z"/>
		<path style="fill:#302D3E;" d="M125.556,256.337c0.811-0.199,1.612-0.455,2.354-0.841c0.381-0.198,0.737-0.483,1.101-0.742
			c-0.088-0.044-0.178-0.082-0.265-0.128c-1.051-0.561-2.026-1.304-2.834-2.18c-0.445-0.483-0.834-1.036-1.013-1.628
			c-0.645-0.493-1.225-1.18-1.745-1.672c-0.995-0.942-1.978-1.898-2.958-2.856c-1.705-1.666-3.436-3.309-5.056-5.059
			c-1.272-1.373-2.498-2.819-3.55-4.365c-0.927-0.595-1.866-1.177-2.83-1.731c-7.968-4.586-19.349-6.201-25.671,1.365
			c6.952,0.37,8.236,6.276,10.771,11.494c2.445,5.034,7.357,8.075,12.72,9.265c3.155,0.7,6.196,1.032,9.246,1.081
			c1.555-0.4,3.104-0.825,4.684-1.12C122.189,256.908,123.895,256.744,125.556,256.337z"/>
		<path style="fill:#302D3E;" d="M133.097,260.094c-0.012-1.091-0.087-2.175-0.182-3.261c-0.022-0.252-0.099-0.632-0.091-0.977
			c-0.231-0.023-0.463-0.049-0.693-0.085c-0.752-0.118-1.486-0.329-2.194-0.606c-0.351,0.449-0.895,0.807-1.34,1.079
			c-0.722,0.44-1.517,0.766-2.321,1.023c-0.816,0.261-1.651,0.446-2.491,0.606c0.491-0.058,0.945-0.104,1.367-0.142
			c-2.659,0.736-5.619,1.061-7.58,1.53c-3.248,0.778-7.564,1.215-10.064,3.739c-3.023,3.052-3.293,15.117,0.017,18.21
			c2.119,1.981,3.312-0.967,5.574-1.782c2.723-0.98,5.519,0.022,8.28-0.187c-0.666,2.174-1.259,4.371-1.748,6.604
			c-1.087,4.956-1.774,10.006-2.046,15.073c-0.138,2.577-0.187,5.166-0.069,7.744c0.112,2.436,0.201,5.017,0.924,7.362
			c0.196,0.637,1.082,0.487,1.129-0.153c0.189-2.552-0.136-5.169-0.185-7.726c-0.046-2.411-0.041-4.819,0.076-7.228
			c0.244-4.993,0.904-9.96,1.965-14.846c0.522-2.402,1.133-4.794,1.828-7.162c5.004-1.401,7.767-6.509,9.116-11.259
			c0.585-2.062,0.647-3.821,0.386-5.56c0.127,0.423,0.226,0.88,0.28,1.375C133.082,262.343,133.109,261.219,133.097,260.094z"/>
		<path style="fill:#302D3E;" d="M116.316,240.749c1.587,1.691,3.227,3.332,4.853,4.985c0.892,0.907,1.782,1.817,2.66,2.738
			c0.312,0.327,0.701,0.678,1.07,1.053c0.046-0.143,0.106-0.286,0.188-0.43c0.289-0.508,0.663-0.854,1.087-1.083
			c-1.073-0.956-1.965-2.24-2.725-3.384c-1.027-1.546-1.86-3.217-2.499-4.958c-0.078-0.213-0.146-0.436-0.22-0.654
			c0.019,0.212,0.029,0.425,0.052,0.637c0.045,0.415,0.104,0.83,0.168,1.245c-0.378-1.551-0.698-3.127-0.98-4.696
			c-0.082-0.398-0.152-0.797-0.212-1.2c-0.305-1.784-0.575-3.539-0.85-5.202c-0.805-4.862-2.074-10.189-5.585-13.906
			c-2.056-2.177-7.109-5.7-10.278-5.36c0.17,1.857,4.397,4.322,5.608,6.107c2.751,4.051,3.513,7.239,3.514,12.046
			c0,2.61-0.035,4.992,0.267,7.289C113.596,237.669,114.916,239.258,116.316,240.749z"/>
		<path style="fill:#302D3E;" d="M188.903,268.145c-2.002-3.014-4.787-6.754-8.53-7.553c-5.326-1.137-11.205,0.757-16.446,1.512
			c-0.773,0.111-1.56,0.246-2.354,0.388c-0.493,0.149-0.986,0.298-1.483,0.443c-2.329,0.678-4.781,1.255-7.223,1.108
			c-2.314-0.14-4.56-0.781-6.721-1.6c2.818,2.134,5.488,4.413,7.837,7.125c0.381,0.44,0.735,0.901,1.103,1.351
			c2.714,1.299,5.525,2.467,8.425,2.898c4.35,0.647,8.011-1.199,12.004-2.534C178.994,270.12,185.22,267.131,188.903,268.145z"/>
		<path style="fill:#302D3E;" d="M147.104,264.543c-1.941-1.56-3.982-2.998-6.008-4.454c-0.647-0.366-1.285-0.745-1.905-1.157
			c-0.982-0.652-1.96-1.341-2.848-2.117c-0.397-0.347-0.759-0.719-1.108-1.11c-0.417,0.213-0.949,0.209-1.397,0.208
			c-0.018,0-0.037-0.002-0.055-0.003c0.07,0.264,0.163,0.533,0.203,0.777c0.075,0.452,0.127,0.907,0.168,1.364
			c0.086,0.951,0.13,1.907,0.136,2.862c0.014,2.015-0.132,4.029-0.251,6.039c-0.065,1.104-0.119,2.208-0.151,3.311
			c0.203,0.968,0.459,1.945,0.815,2.956c1.842,5.237,4.587,9.5,9.965,11.567c3.985,1.531,10.037,1.776,11.912,6.427
			c2.693-0.984,2.738-6.183,2.3-8.557c-0.658-3.567-2.319-7.344-4.344-10.547C152.306,269.358,149.891,266.783,147.104,264.543z"/>
	</g>
</svg>