<?xml version="1.0" encoding="utf-8"?>
<svg version="1.1" xmlns="http://www.w3.org/2000/svg" xmlns:xlink="http://www.w3.org/1999/xlink" xml:space="preserve" viewBox="401 63 69 79">
<path d="M456.888,118.774c1.06,0.773,0.313,2.176-0.294,3.004c-6.587,8.97-17.779,12.691-28.291,14.729
		c-3.894,0.627-7.915,0.814-11.795-0.015c-1.799-0.359-3.602-0.871-5.364-1.293c-0.339,0.18-0.769,0.111-1.058-0.126
		c-3.851-5.632-5.064-12.629-4.812-19.361c0.243-4.647,0.833-9.334,2.469-13.711c0.568-2.051,1.922-3.819,4.058-2.219
		c1.076-2.52,2.104-5.074,3.124-7.622c0.735-1.859,1.342-3.761,2.025-5.642c0.259-0.669,0.434-1.382,0.796-2.005
		c0.964-1.631,2.722-0.642,3.454,0.658c2.983-4.203,6.866-7.694,10.998-10.739c2.318-1.528,4.678-3.329,5.141,0.811
		c5.151-1.589,10.363-3.023,15.425-4.874c1.674-0.657,3.325-1.372,4.967-2.101c1.09-0.577,2.588-1.078,3.112,0.471
		c0.364,2.427-0.55,4.881-0.622,7.32c-0.296,2.575,0.012,5.151,0.496,7.681c0.094,0.506,0.15,1.104,0.27,1.563
		c0.642-0.142,0.995-0.946,1.721-0.758c2.69,0.747,0.02,14.174-0.576,16.556c0.626-0.52,1.088-1.26,1.815-1.64
		c0.776-0.316,1.578,0.372,1.591,1.166c-0.137,2.056-1.153,3.972-1.982,5.832c-1.08,2.315-2.504,4.446-4.091,6.439
		c-1.664,2.139-4.048,4.4-5.617,6.259C454.843,118.989,455.908,118.21,456.888,118.774z"/>
</svg>
