<svg xmlns="http://www.w3.org/2000/svg" viewBox="388.122 19.690 57.449 143.316">
<g>
		<path style="fill:#302D3E;" d="M399.52,104.85c1.332,3.427,2.764,6.393,5.926,8.583c2.089,1.447,4.581,2.312,6.898,3.286
			c1.656,0.696,2.588,1.727,4.044,2.453c-0.049,3.108-0.054,6.217-0.133,9.325c-0.105,4.151-0.271,8.295-0.347,12.437
			c-0.442-0.705-0.928-1.382-1.481-2.002c-0.412-0.463-0.855-0.887-1.315-1.292c0.187-0.33,0.368-0.663,0.488-1.033
			c0.473-0.9,0.689-1.87,0.65-2.91c-0.09-0.669-0.18-1.338-0.27-2.008c-0.359-1.279-1.006-2.39-1.942-3.333
			c-0.51-0.394-1.019-0.787-1.529-1.181c-1.178-0.683-2.448-1.027-3.812-1.031c-1.04-0.039-2.01,0.177-2.91,0.65
			c-0.936,0.305-1.746,0.825-2.43,1.562c-0.736,0.684-1.257,1.494-1.561,2.43c-0.473,0.9-0.69,1.87-0.651,2.91
			c0.09,0.669,0.18,1.339,0.27,2.008c0.359,1.279,1.006,2.39,1.942,3.332c0.51,0.394,1.019,0.787,1.528,1.181
			c1.178,0.683,2.448,1.027,3.812,1.031c1.04,0.039,2.01-0.178,2.91-0.65c0.936-0.305,1.746-0.825,2.431-1.562
			c0.153-0.142,0.257-0.313,0.392-0.466c0.349,0.402,0.727,0.78,1.043,1.204c0.666,0.891,1.247,1.861,1.65,2.901
			c0.222,0.572,0.449,1.232,0.771,1.817c-0.007,3.152,0.039,6.304,0.262,9.459c0.054,0.767,1.275,1.055,1.434,0.194
			c0.43-2.323,0.734-4.651,0.991-6.983c1.196-1.135,2.987-2.122,4.329-2.815c2.232-1.153,4.012-2.845,5.573-4.817
			c1.485-1.875,2.233-4.192,3.846-5.948c0.596-0.649,2.752-2.07,1.6-3.286c-1.492-1.576-6.174,2.316-7.244,3.181
			c-3.472,2.807-6.083,5.893-7.699,9.591c0.282-3.63,0.431-7.273,0.551-10.935c0.08-2.442,0.129-4.885,0.184-7.327
			c0.337-0.822,0.717-1.627,1.218-2.387c0.641-0.972,1.381-1.873,2.167-2.735c0.335,0.68,0.739,1.319,1.289,1.873
			c0.473,0.365,0.945,0.73,1.418,1.095c1.093,0.634,2.271,0.953,3.536,0.957c0.964,0.036,1.864-0.165,2.699-0.603
			c0.869-0.283,1.62-0.765,2.255-1.449c0.683-0.634,1.166-1.386,1.448-2.255c0.439-0.835,0.64-1.735,0.603-2.699
			c-0.083-0.621-0.167-1.242-0.25-1.862c-0.333-1.187-0.934-2.217-1.802-3.091c-0.473-0.365-0.945-0.73-1.418-1.095
			c-1.093-0.634-2.271-0.952-3.536-0.956c-0.965-0.036-1.864,0.165-2.699,0.603c-0.869,0.282-1.62,0.765-2.255,1.448
			c-0.683,0.635-1.166,1.386-1.449,2.255c-0.439,0.835-0.64,1.735-0.603,2.699c0.082,0.614,0.165,1.228,0.247,1.842
			c-1.011,0.897-1.957,1.858-2.783,2.94c0.071-3.915,0.114-7.831,0.121-11.748c0.004-2.226-0.025-4.451-0.041-6.677
			c1.244-1.797,3.219-1.633,5.658-3.088c2.798-1.669,4.467-4.35,5.679-7.297c0.623-1.514,1.033-3.07,2.11-4.357
			c0.544-0.65,1.369-1.091,1.801-1.774c-2.841-3.29-7.694,0.747-9.663,2.86c-2.448,2.626-4.543,5.643-5.614,9.015
			c-0.032-2.208-0.101-4.415-0.157-6.622c0.069-0.254,0.135-0.511,0.214-0.748c0.511-1.55,1.096-3.094,1.737-4.595
			c0.75-1.758,1.625-3.468,2.568-5.14c0.673,0.471,1.391,0.865,2.205,1.094c1.294,0.348,2.588,0.348,3.882,0
			c1.237-0.347,2.311-0.973,3.222-1.878c0.016-0.019,0.031-0.038,0.046-0.057c0.91-0.916,1.539-1.996,1.888-3.24
			c0.35-1.301,0.35-2.602,0-3.904c-0.349-1.244-0.978-2.324-1.888-3.24c-0.916-0.91-1.996-1.539-3.24-1.888
			c-1.301-0.35-2.602-0.35-3.904,0c-1.244,0.349-2.324,0.978-3.24,1.888c-0.91,0.916-1.539,1.996-1.888,3.24
			c-0.35,1.301-0.35,2.603,0,3.904c0.007,0.025,0.014,0.05,0.022,0.075c0.347,1.237,0.973,2.311,1.878,3.222
			c0.033,0.033,0.074,0.051,0.107,0.083c-1.21,1.648-2.295,3.381-3.183,5.244c-0.196,0.412-0.36,0.833-0.537,1.249
			c-0.252-7.569-0.654-15.132-1.246-22.683c-0.1-1.279-0.245-2.554-0.359-3.832c0.774-1.96,1.163-4.049,1.993-5.992
			c0.628-1.47,1.349-2.927,2.217-4.281c0.163,0.195,0.28,0.417,0.463,0.6c0.588,0.454,1.175,0.908,1.763,1.362
			c1.358,0.788,2.824,1.185,4.396,1.189c1.199,0.045,2.318-0.205,3.356-0.75c1.08-0.351,2.014-0.952,2.803-1.801
			c0.849-0.789,1.45-1.723,1.801-2.803c0.545-1.038,0.795-2.157,0.75-3.356c-0.104-0.772-0.207-1.544-0.311-2.316
			c-0.414-1.476-1.16-2.757-2.24-3.844c-0.588-0.454-1.175-0.908-1.763-1.362c-1.359-0.788-2.824-1.184-4.396-1.189
			c-1.199-0.045-2.318,0.205-3.356,0.75c-1.08,0.351-2.014,0.952-2.803,1.801c-0.849,0.789-1.45,1.723-1.801,2.803
			c-0.545,1.038-0.796,2.157-0.75,3.356c0.104,0.772,0.208,1.544,0.311,2.315c0.25,0.89,0.662,1.686,1.154,2.435
			c-1.217,1.3-2.276,2.735-3.016,4.375c-0.372,0.824-0.694,1.694-0.957,2.578c-0.495-5.037-0.994-10.072-1.462-15.111
			c0.193,0.017,0.374,0.075,0.571,0.076c0.936,0.035,1.81-0.16,2.62-0.586c0.843-0.274,1.573-0.743,2.189-1.406
			c0.663-0.616,1.132-1.346,1.406-2.189c0.426-0.811,0.621-1.684,0.586-2.62c-0.081-0.603-0.162-1.205-0.243-1.808
			c-0.323-1.152-0.906-2.153-1.749-3.001c-0.459-0.354-0.918-0.709-1.376-1.063c-1.061-0.615-2.205-0.925-3.433-0.929
			c-0.936-0.035-1.81,0.16-2.62,0.586c-0.843,0.274-1.573,0.743-2.189,1.406c-0.663,0.616-1.132,1.346-1.406,2.189
			c-0.426,0.811-0.621,1.684-0.586,2.62c0.081,0.603,0.162,1.205,0.243,1.808c0.323,1.152,0.906,2.153,1.749,3.001
			c0.459,0.355,0.918,0.709,1.376,1.064c0.709,0.411,1.47,0.635,2.254,0.773c0.358,6.289,0.445,12.614,0.573,18.91
			c-0.396-2.143-0.853-4.259-1.458-6.262c-1.207-3.996-3.108-7.975-6.595-10.461c-3.013-2.15-7.572-3.193-8.992-6.975
			c0.171,5.945,2.092,11.561,5.185,16.691c2.669,4.428,7.017,7.726,10.086,11.875c0.443,0.599,1.213,1.592,1.906,2.688
			c0.073,3.676,0.136,7.353,0.186,11.03c-0.055-0.075-0.095-0.157-0.152-0.231c-1.42-1.854-3.174-3.341-5.005-4.748
			c0.302-0.404,0.559-0.835,0.717-1.322c0.387-0.736,0.564-1.529,0.532-2.379c-0.073-0.547-0.147-1.094-0.221-1.642
			c-0.293-1.046-0.823-1.954-1.588-2.725c-0.417-0.322-0.833-0.644-1.25-0.965c-0.963-0.559-2.002-0.84-3.117-0.843
			c-0.85-0.032-1.643,0.145-2.379,0.532c-0.766,0.249-1.428,0.675-1.987,1.277c-0.602,0.559-1.028,1.222-1.277,1.987
			c-0.387,0.736-0.564,1.529-0.532,2.379c0.074,0.547,0.147,1.094,0.221,1.642c0.293,1.046,0.823,1.954,1.588,2.725
			c0.417,0.322,0.833,0.644,1.25,0.965c0.963,0.559,2.002,0.84,3.117,0.843c0.85,0.032,1.643-0.145,2.379-0.532
			c0.758-0.246,1.413-0.669,1.968-1.261c1.55,1.451,3.044,2.98,4.262,4.705c0.591,0.837,1.095,1.752,1.525,2.693
			c0.008,0.688,0.029,1.376,0.035,2.064c0.099,10.614,0.064,21.226-0.068,31.837c-1.011-4.178-2.814-8.297-5.798-11.309
			c-3.567-3.601-9.343-6.618-14.517-6.313c0.066,0.766,0.833,1.434,1.254,2.121C398.265,101.615,398.907,103.274,399.52,104.85z"/>
	</g>
</svg>