<svg xmlns="http://www.w3.org/2000/svg" viewBox="465.738 246.504 59.661 56.599">
<path style="fill:#284955;" d="M514.193,275.851
			c0,0,3.072,0.265,3.139,0.866c0.067,0.601-3.738,1.538-5.941,3.209c-2.202,1.671-5.404,6.28-11.68,8.288
			c-6.275,2.007-9.347,1.074-12.351,2.412c-3.004,1.337-5.139,4.477-6.541,4.411c-1.402-0.066-1.537-1.201-1.537-1.201
			s-0.734,0.935-2.07,0.202s-1.003-2.403-1.003-2.403s-1.135,0.535-1.803-0.466c-0.668-1.001,0.332-2.671,4.539-3.075
			c4.206-0.403,8.812-2.61,11.682-4.815c0,0-4.742-2.334-8.018-7.406c-3.275-5.073-3.813-10.481-3.079-10.949
			s1.202-0.001,1.202-0.001s-1.137-2.87-0.202-3.338c0.934-0.468,1.736-0.001,1.736-0.001s-0.671-4.941,0.597-5.409
			c1.268-0.468,2.07,0.867,2.07,0.867s-0.402-2.27,0.866-2.538s2.942,5.807,4.145,7.008c0,0-0.602-1.402,0.399-1.937
			c1.001-0.535,3.142,6.008,5.481,8.076c2.338,2.068,5.745,3.736,6.28,5.004c0,0,0.065-2.337,0.866-2.338s0.868,0.467,0.868,0.467
			s-0.135-2.404,0.8-2.605s1.336,0.333,1.336,0.333s0.533-2.204,1.534-2.338c1.001-0.134,1.603,0.6,1.603,0.6
			s0.399-2.471,1.668-2.138c1.269,0.333-0.799,3.272-1.132,5.276c-0.333,2.003-0.265,3.539-0.265,3.539
			S513.657,272.914,514.193,275.851z"/>
</svg>