<svg xmlns="http://www.w3.org/2000/svg" viewBox="44.066 158.438 53.722 56.711">
<path style="fill:#284955;" d="M86.995,175.36
			c0,0,2.305-0.246,2.549-0.016c0.244,0.23-1.833,2.189-2.106,2.967c-0.273,0.779,1.583,5.408-2.674,9.802
			c-4.257,4.395-4.831,3.048-6.426,5.229c-1.595,2.182-2.314,11.985-3.057,12.896c-0.744,0.911-1.507-0.845-1.769-1.667
			c0,0-1.774,0.171-2.013-1.897c0,0-1.781-0.066-1.65-1.671c0,0-1.174,0.391-1.331-0.909c-0.157-1.3,4.433-4.459,5.056-7.442
			c0,0-4.693,1.68-8.559,1.261c-3.866-0.419-6.337-1.83-6.449-2.567c-0.111-0.737,0.775-0.823,0.775-0.823s-4.083-1.289-4.101-2.125
			c-0.018-0.836,0.869-0.922,0.869-0.922s-2.103-0.946-1.898-2.019c0.205-1.073,0.984-0.8,0.984-0.8s-3.129-1.567-2.177-3.433
			c0.953-1.866,3.07-0.447,3.07-0.447s-0.627-1.167,0.36-1.849c0.988-0.681,4.976,3.884,8.43,4.375
			c3.453,0.491,6.221-0.125,6.221-0.125s-2.87-3.797-2.316-4.629c0.554-0.832,1.476,0.267,1.476,0.267s-1.14-2.456-0.291-3.845
			c0.848-1.389,1.54-0.046,1.54-0.046s0.118-4.035,1.217-4.957c1.099-0.922,1.723,0.127,1.723,0.127s1.374-3.657,2.921-3.466
			c1.547,0.191-0.771,3.995,0.813,7.446c1.584,3.451,3.178,3.226,3.703,2.914C82.41,176.681,82.739,173.766,86.995,175.36z"/>
</svg>