<svg xmlns="http://www.w3.org/2000/svg" viewBox="151.335 224.396 60.584 45.389">
<path style="fill:#284955;" d="M183.952,233.422
			c0,0,2.005-1.026,2.247-1.011c0.242,0.014-0.6,1.908-0.729,2.71c-0.129,0.802-0.444,3.374-0.028,4.533
			c0.417,1.158,4.252,0.659,5.767-0.303c1.515-0.962,5.116,1.115,8.353,1.146c3.237,0.031,4.357,0.26,4.138,1.219
			c-0.219,0.959-2.769,1.616-2.769,1.616s0.744,1.097-0.277,1.927c-1.021,0.83-2.317,0.833-2.317,0.833s0.094,1.139-1.316,1.703
			c-1.41,0.564-2.929,0.23-2.929,0.23s0.037,0.731-1.373,1.295s-2.848,0.235-2.848,0.235s-0.552,1.101-1.852,1.185
			c-1.301,0.084-2.876-0.658-2.876-0.658s-1.458,1.37-1.18,3.492c0.278,2.122,1.249,4.852,0.232,5.601
			c-1.016,0.749-2.259-0.135-2.259-0.135s-0.167,1.448-1.236,1.708c-1.068,0.26-1.978-0.766-1.978-0.766s-0.998,1.803-2.327,0.995
			c-1.328-0.808,1.151-3.008,1.856-5.314c0.704-2.306-0.219-4.467-0.219-4.467s-1.776,1.27-3.494,0.196c0,0-2.17,1.085-3.469-0.207
			c0,0-2.564,0.9-4.072-0.972c0,0-1.97,0.449-2.714-0.648c0,0-3.46-0.368-4.204-1.466c-0.744-1.097,5.142-2.041,7.309-4.422
			c2.166-2.381,4.014-3.485,5.945-3.289s4.68,0.279,5.425,0c0.745-0.279,0.662-2.956,1.685-5.163
			C181.466,233.019,183.952,233.422,183.952,233.422z"/>
</svg>