<svg xmlns="http://www.w3.org/2000/svg" viewBox="399.705 98.224 71.244 52.416">
<path style="fill:#284955;" d="M438.207,107.495
			c0,0,2.484-1.271,2.784-1.253c0.3,0.018-0.743,2.364-0.903,3.358c-0.16,0.994-0.551,4.181-0.034,5.617
			c0.516,1.436,5.269,0.816,7.146-0.376c1.877-1.192,6.339,1.382,10.35,1.421c4.011,0.039,5.399,0.322,5.127,1.51
			c-0.272,1.188-3.431,2.003-3.431,2.003s0.922,1.359-0.343,2.388c-1.265,1.028-2.871,1.033-2.871,1.033s0.116,1.412-1.631,2.11
			c-1.747,0.698-3.629,0.285-3.629,0.285s0.046,0.906-1.701,1.604c-1.747,0.698-3.529,0.291-3.529,0.291s-0.684,1.364-2.295,1.468
			c-1.612,0.104-3.563-0.815-3.563-0.815s-1.807,1.698-1.463,4.327c0.345,2.629,1.547,6.012,0.288,6.94
			c-1.26,0.928-2.799-0.167-2.799-0.167s-0.207,1.794-1.531,2.116c-1.324,0.322-2.452-0.949-2.452-0.949s-1.237,2.234-2.883,1.233
			c-1.646-1.001,1.427-3.728,2.3-6.585c0.873-2.858-0.271-5.535-0.271-5.535s-2.201,1.574-4.329,0.243c0,0-2.689,1.344-4.299-0.257
			c0,0-3.177,1.115-5.045-1.204c0,0-2.441,0.557-3.364-0.803c0,0-4.287-0.457-5.209-1.816c-0.922-1.359,6.372-2.529,9.056-5.479
			c2.685-2.95,4.974-4.319,7.367-4.075c2.394,0.243,5.799,0.346,6.723,0s0.821-3.663,2.088-6.397
			C435.126,106.996,438.207,107.495,438.207,107.495z"/>
</svg>