<svg xmlns="http://www.w3.org/2000/svg" viewBox="47.294 320.434 42.503 38.986">
<path style="fill:#284955;" d="M80.347,344.422
			c0,0,1.348,0.798,1.399,0.967c0.051,0.17-0.926,0.241-2.079,0.401c-1.153,0.161-2.086,0.44-3.478,1.966
			c-1.391,1.526-3.653,3.664-8.625,1.752c-4.972-1.912-4.963-2.192-6.592-2.074c-1.628,0.118-3.513,0.553-4.121,0.126
			c-0.609-0.428-0.064-1.016-0.064-1.016s-1.262-0.14-1.309-0.791c-0.047-0.651,0.869-1.296,0.869-1.296s-1.053-0.184-0.924-0.925
			s1.856-0.038,3.043,0.53c1.187,0.569,4.718,0.139,6.02-1.563c0,0-0.882-0.475-0.301-1.5c0,0-0.97-0.892,0.176-2.622
			c0,0-0.503-1.494,0.859-2.623c0,0-0.232-1.206,0.993-2.238c0,0,0.233-1.567,1.247-2.315c0,0-0.221-1.727,0.713-2.247
			c0.935-0.52,0.423,2.646,1.674,4.231c1.251,1.585,1.902,2.462,2.056,3.654c0,0,0.525-1.396,1.442-1.356
			c0,0,0.258-1.482,1.393-1.767c0,0-0.122-1.147,0.76-1.596c0,0,0.042-2.083,0.869-2.22c0.828-0.137,0.873,5.136,0.646,7.588
			c-0.227,2.452-2.899,4.639-2.799,5.219c0,0,0.607,0.668,1.835,0.079C77.278,342.198,79.668,342.093,80.347,344.422z"/>
</svg>