<?xml version="1.0" encoding="utf-8"?>
<svg version="1.1" xmlns="http://www.w3.org/2000/svg" xmlns:xlink="http://www.w3.org/1999/xlink" xml:space="preserve" viewBox="345 174 121 159">
<path d="M366.805,317.123c0.372-0.549,0.981-1.189,1.695-0.818c2.685-5.767,3.404-12.499,3.013-18.845
		c-0.669-7.73-3.014-15.317-2.517-23.136c0.361-6.333,3.039-12.251,6.34-17.577c2.374-3.956,5.411-7.545,7.263-11.791
		c-3.814-2.676-8.218-4.448-12.697-5.667c-9.856-1.942-13.077-6.716-15.498-16.073c-0.636-2.481-1.201-5.001-2.23-7.356
		c-0.58-1.296-1.208-2.588-1.958-3.794c-0.34-0.637-1.06-1.475-0.498-2.173c1.693-1.633,6.581,1.606,8.122,2.888
		c2.533,2.259,4.459,5.086,6.53,7.751c1.589,2.149,3.474,4.27,6.191,4.879c3.701,1.029,7.504,1.822,11.036,3.373
		c6.53,2.608,11.78,7.669,15.797,13.337c5.741,9.221,7.298,20.534,7.533,31.214c1.226-7.759,0.093-15.744-2.342-23.167
		c-1.07-3.017-2.302-5.982-3.191-9.062c-0.969-3.228-1.579-6.567-1.659-9.939c-0.147-3.425-0.028-6.87,0.794-10.211
		c0.243-1.148,0.563-2.303,0.589-3.481c0.011-3.249-1.88-6.111-3.425-8.847c-2.173-3.387-3.09-7.458-2.839-11.458
		c0.157-3.442,1.491-6.653,2.709-9.829c0.53-1.408,1.057-2.818,1.585-4.226c0.317-0.766,0.561-2.194,1.672-1.951
		c1.102,0.384,0.847,1.806,0.997,2.746c0.071,0.84,0.145,1.679,0.238,2.517c0.418,4.302,1.42,8.542,3.315,12.441
		c1.106,2.523,2.237,5.064,2.79,7.775c1.403,7.074-0.296,14.199-1.038,21.242c-0.583,7.063-0.085,14.181,0.854,21.191
		c0.504,3.798,1.382,7.545,1.714,11.365c0-0.006,0-0.012,0.002-0.018c0.471-4.795,1.202-9.598,1.452-14.422
		c0.16-3.351,0.065-6.708,0.309-10.056c0.216-3.253,0.868-6.496,2.324-9.432c6.448-13.59,4.523-17.654-0.099-31.089
		c-1.749-5.312,0.608-10.773,2.93-15.519c0.273-0.765,0.942-1.676,1.822-1.12c0.477,0.349,0.45,1.022,0.47,1.548
		c0.041,1.74,0.253,3.469,0.506,5.19c0.271,2.549,1.233,4.934,2.101,7.326c1.2,3.276,2.22,6.617,3.077,10
		c1.495,6.034,2.286,12.319,1.825,18.535c-0.621,6.1-1.873,12.139-3.604,18.019c-1.276,4.401-2.353,8.858-3.603,13.265
		c1.792-3.428,4.137-6.578,6.929-9.258c1.875-1.827,4.092-3.23,6.166-4.807c2.249-1.615,3.895-3.874,5.167-6.305
		c1.917-3.695,4.484-7.066,7.703-9.723c1.938-1.644,4.082-3.03,5.991-4.711c0.819-0.703,1.595-1.46,2.281-2.293
		c0.542-0.75,1.317-1.64,2.256-0.906c0.872,0.867-0.813,3.493-1.181,4.669c-0.722,1.689-1.424,3.386-2.061,5.11
		c-1.561,4.248-2.454,8.696-3.342,13.123c-0.974,5.5-2.718,8.829-7.604,11.752c-4.736,2.768-9.505,5.557-13.632,9.205
		c-3.441,2.952-6.027,6.711-9.201,9.924c-1.737,1.791-3.567,3.503-5.16,5.429c-1.823,2.37-3.278,5.007-4.79,7.582
		c-0.05,0.088-0.436,0.734-0.42,0.745c1.651-1.387,3.291-2.924,4.971-4.309c4.813-4.107,10.019-7.707,15.117-11.441
		c2.564-1.87,4.925-4.005,7.509-5.847c5.943-3.992,12.5-7.146,17.666-12.205c1.854-1.697,3.543-3.555,5.06-5.558
		c0.677-0.885,1.318-1.8,2.042-2.648c0.275-0.319,0.559-0.675,0.973-0.812c0.482-0.162,1.028,0.104,1.25,0.553
		c0.364,1.142-0.64,2.186-1.104,3.169c-0.925,1.567-1.789,3.169-2.571,4.812c-1.823,3.845-2.965,7.963-4.261,12.003
		c-0.814,2.443-1.483,5.06-3.137,7.093c-2.723,3.285-6.644,5.184-10.203,7.4c-2.321,1.4-4.761,2.602-7.301,3.554
		c-3.281,1.246-6.747,1.859-10.131,2.745c-3.234,0.861-6.304,2.237-9.276,3.761c-3.071,1.541-6.124,3.13-9.069,4.9
		c-2.372,1.257-4.058,3.35-5.759,5.362c-0.666,0.64-1.055,1.447-1.507,2.239c-0.047,0.077-0.094,0.154-0.14,0.232
		c-0.085,0.089-0.074,0.115,0.034,0.075c0.044-0.008,0.089-0.014,0.135-0.021c1.257-0.19,2.531-0.192,3.797-0.128
		c3.507,0.239,7.011,0.677,10.42,1.552c4.682,1.124,8.763,2.864,11.167,7.306c0.899,1.551,1.63,3.214,1.99,4.977
		c0.534,2.297,0.475,4.806,1.849,6.823c1.398,2.217,3.654,3.823,6.133,4.621c1.241,0.429,2.531,0.691,3.793,1.037
		c0.911,0.276,1.322,1.346,0.659,2.097c-0.594,0.612-1.471,0.814-2.261,1.05c-8.649,2.453-11.53,0.958-17.076-5.808
		c-1.589-2.082-2.764-4.443-4.336-6.537c-2.468-3.372-6.122-5.878-10.256-6.651c-2.762-0.445-5.59-0.054-8.332,0.364
		c-4.301,0.717-8.603,2.049-12.103,4.733c-3.891,2.775-6.628,6.753-9.797,10.258c-1.367,1.417-2.583,3.304-4.576,3.855
		c-1.465,0.254-3.052-0.404-3.556-1.878c-0.96-2.166,0.178-4.529,1.471-6.297C365.978,318.118,366.392,317.621,366.805,317.123z
		 M392.577,299.576c0.017-0.025,0.117-0.147,0.124-0.176c-0.812-0.862,0.276-1.787,0.847-2.427c0.898-1.089,2.057-1.993,2.511-3.369
		c3.036-7.024,4.271-16.713,2.917-24.249c-1.108-6.451-4.566-12.212-8.693-17.194c-0.044-0.052-0.089-0.104-0.133-0.155
		c-0.049-0.098-0.075-0.113-0.072-0.045c-0.077,0.773-0.149,1.547-0.259,2.317c-0.402,3.518-1.407,6.909-2.641,10.215
		c-3.186,8.424-0.424,15.252,0.018,23.678c0.107,6.384-1.063,13.926-4.421,19.424C386.32,305.453,390.086,302.997,392.577,299.576z"
		/>
</svg>
