<svg xmlns="http://www.w3.org/2000/svg" viewBox="443.965 370.388 49.987 50.908">
<path style="fill:#284955;" d="M483.616,394.512
			c0,0,2.166,0.138,2.336,0.316s-0.993,0.879-2.317,1.802c-1.324,0.923-2.3,1.854-3.06,4.613c-0.76,2.759-2.211,6.82-9.553,7.583
			c-7.342,0.762-7.508,0.411-9.445,1.58c-1.937,1.169-3.991,2.89-5.012,2.744c-1.021-0.146-0.717-1.215-0.717-1.215
			s-1.646,0.62-2.114-0.155s0.259-2.146,0.259-2.146s-1.416,0.435-1.722-0.562c-0.306-0.997,2.268-1.213,4.091-1.256
			c1.823-0.043,5.915-2.792,6.454-5.713c0,0-1.388-0.033-1.314-1.663c0,0-1.759-0.493-1.43-3.349c0,0-1.56-1.53-0.587-3.78
			c0,0-1.044-1.344-0.18-3.389c0,0-0.697-2.082,0.087-3.643c0,0-1.358-1.994-0.531-3.223c0.828-1.23,2.185,3.003,4.725,4.174
			s3.896,1.846,4.835,3.222c0,0-0.229-2.053,0.929-2.581c0,0-0.612-1.993,0.611-3.057c0,0-0.871-1.34-0.063-2.449
			c0,0-1.257-2.599-0.321-3.288c0.936-0.689,4.305,5.795,5.566,8.967c1.261,3.171-0.666,7.551-0.178,8.205
			c0,0,1.17,0.444,2.316-1.056C478.429,393.694,481.314,392.062,483.616,394.512z"/>
</svg>