<svg xmlns="http://www.w3.org/2000/svg" viewBox="311.114 419.011 47.889 43.358">
<path style="fill:#284955;" d="M349.189,445.461
			c0,0,1.67,0.869,1.742,1.07c0.072,0.2-1.096,0.349-2.469,0.617c-1.374,0.268-2.475,0.664-4.045,2.586
			c-1.57,1.922-4.145,4.635-10.236,2.665c-6.091-1.97-6.099-2.306-8.046-2.058c-1.946,0.248-4.179,0.893-4.938,0.419
			s-0.143-1.215-0.143-1.215s-1.523-0.085-1.622-0.864c-0.099-0.779,0.958-1.611,0.958-1.611s-1.276-0.152-1.169-1.049
			s2.224-0.167,3.686,0.438c1.462,0.605,5.671-0.141,7.122-2.268c0,0-1.089-0.513-0.459-1.78c0,0-1.222-1.008,0.04-3.158
			c0,0-0.701-1.761,0.86-3.204c0,0-0.357-1.432,1.046-2.751c0,0,0.177-1.896,1.346-2.859c0,0-0.378-2.058,0.709-2.743
			c1.088-0.685,0.68,3.148,2.285,4.968c1.605,1.82,2.443,2.83,2.706,4.251c0,0,0.538-1.709,1.642-1.722c0,0,0.213-1.796,1.557-2.211
			c0,0-0.221-1.368,0.809-1.965c0,0-0.086-2.502,0.898-2.721c0.984-0.218,1.383,6.107,1.271,9.064
			c-0.112,2.958-3.176,5.756-3.018,6.446c0,0,0.772,0.763,2.207-0.025C345.361,442.993,348.222,442.71,349.189,445.461z"/>
</svg>