<svg xmlns="http://www.w3.org/2000/svg" viewBox="306.174 62.903 32.708 38.394">
<path style="fill:#284955;" d="M329.972,81.641
			c0,0,0.85,0.887,0.88,1.016c0.03,0.129-1.091-0.015-1.53,0.044c-0.439,0.058-1.833,0.296-2.373,0.696
			c-0.54,0.399,0.322,2.325,1.062,2.966c0.74,0.641,0.219,2.848,0.709,4.545c0.491,1.697,0.546,2.318,0.011,2.353
			c-0.535,0.036-1.278-1.194-1.278-1.194s-0.457,0.561-1.05,0.157c-0.594-0.404-0.798-1.08-0.798-1.08s-0.581,0.228-1.096-0.421
			c-0.515-0.649-0.579-1.494-0.579-1.494s-0.376,0.134-0.892-0.515c-0.515-0.649-0.569-1.452-0.569-1.452s-0.662-0.116-0.909-0.782
			c-0.248-0.667-0.107-1.606-0.107-1.606s-0.945-0.547-2.01-0.07c-1.065,0.478-2.34,1.413-2.891,0.999
			c-0.551-0.414-0.283-1.202-0.283-1.202s-0.783,0.139-1.086-0.378c-0.303-0.517,0.09-1.154,0.09-1.154s-1.099-0.239-0.884-1.06
			c0.214-0.821,1.753,0.131,3.068,0.137c1.316,0.007,2.3-0.814,2.3-0.814s-0.942-0.729-0.65-1.795c0,0-0.907-0.964-0.435-1.846
			c0,0-0.872-1.199-0.13-2.28c0,0-0.543-0.959-0.087-1.52c0,0-0.349-1.866,0.107-2.427c0.457-0.561,1.872,2.368,3.456,3.127
			c1.584,0.759,2.45,1.552,2.65,2.592c0.2,1.04,0.587,2.489,0.85,2.835c0.263,0.346,1.649-0.117,2.962,0.072
			C329.793,80.279,329.972,81.641,329.972,81.641z"/>
</svg>