<svg xmlns="http://www.w3.org/2000/svg" viewBox="-5.278 274.830 59.744 45.781">
<path style="fill:#284955;" d="M34.699,289.668
			c0,0,2.514,0.626,2.712,0.822c0.199,0.196-1.962,1.2-2.68,1.798c-0.718,0.598-2.937,2.589-3.451,3.909
			c-0.515,1.319,3.189,3.786,5.23,4.097c2.041,0.311,3.592,4.835,6.375,7.31c2.783,2.475,3.581,3.52,2.666,4.185
			c-0.915,0.665-3.622-0.692-3.622-0.692s-0.184,1.514-1.697,1.461c-1.513-0.053-2.639-1.029-2.639-1.029s-0.78,1.059-2.429,0.481
			c-1.649-0.578-2.713-2.015-2.713-2.015s-0.52,0.662-2.169,0.084c-1.649-0.578-2.647-1.95-2.647-1.95s-1.31,0.537-2.502-0.373
			c-1.191-0.91-1.996-2.744-1.996-2.744s-2.301,0.086-3.664,2.136c-1.363,2.05-2.586,5.151-4.033,5.032
			c-1.448-0.119-1.857-1.825-1.857-1.825s-1.24,1.128-2.362,0.546c-1.123-0.582-1.136-2.16-1.136-2.16s-2.229,0.808-2.769-0.897
			c-0.541-1.705,3.273-1.738,5.627-3.204c2.354-1.467,3.187-4.038,3.187-4.038s-2.501-0.242-3.177-2.471c0,0-2.702-0.7-2.851-2.803
			c0,0-2.903-1.159-2.795-3.921c0,0-2.048-1.1-1.864-2.614c0,0-2.721-2.936-2.537-4.449c0.184-1.514,6.002,2.118,9.68,1.692
			c3.679-0.426,6.115,0.013,7.641,1.644c1.526,1.631,3.846,3.781,4.704,4.102c0.858,0.321,2.81-2.063,5.364-3.202
			C32.849,287.439,34.699,289.668,34.699,289.668z"/>
</svg>