<svg xmlns="http://www.w3.org/2000/svg" viewBox="226.779 214.979 95.337 82.020">
<g>
		<path style="fill:#302D3E;" d="M276.115,273.19c3.082-1.413,6.035-3.11,8.815-5.05c1.479-1.032,2.933-2.124,4.233-3.379
			c1.109-1.071,2.048-2.281,2.934-3.535c-7.814-2.264-15.578-4.907-23.009-8.26c0.06,0.126,0.047,0.283-0.102,0.381
			c-1.836,1.213-4.155,1.899-6.247,2.521c-7.098,2.109-14.793,2.372-21.975,0.512c0.689,1.467,1.437,2.909,2.142,4.326
			c2.085,4.193,3.864,8.519,6.922,12.138c1.678,1.986,3.684,3.821,5.874,5.488c0.271-0.017,0.54-0.018,0.811-0.039
			C263.275,277.754,269.947,276.017,276.115,273.19z"/>
		<path style="fill:#302D3E;" d="M294.672,251.006c0.043,3.136-0.352,6.294-1.586,9.165c0.491,0.126,0.98,0.258,1.471,0.382
			c2.528,0.637,5.061,1.265,7.611,1.799c1.233-1.07,2.565-2.643,3.491-3.883c2.941-3.938,4.436-9.915,3.932-14.749
			c-0.995-9.546-6.875-16.112-16.073-19.384c-2.629-0.935-5.418-1.32-8.282-1.357c3.59,5.012,5.966,10.974,7.632,16.848
			C293.898,243.463,294.62,247.217,294.672,251.006z"/>
		<path style="fill:#302D3E;" d="M268.876,252.077c0.057-0.769,0.114-1.531,0.045-2.308c-0.076-0.857-0.226-1.704-0.443-2.537
			c-0.396-1.521-0.959-3.007-1.565-4.456c-2.021-4.837-4.969-9.303-8.575-13.105c-0.719-0.758-1.472-1.483-2.243-2.189
			c-3.715,0.419-7.422,0.618-11.211,0.487c-2.895-0.1-6.361-0.954-9.319-0.408c3.351,4.112,7.154,7.86,11.267,11.204
			C253.51,244.195,261.008,248.575,268.876,252.077z"/>
		<path style="fill:#302D3E;" d="M257.511,256.172c1.944-0.334,3.862-0.782,5.745-1.372c1.849-0.579,3.599-1.444,5.445-2.013
			c-3.55-1.617-7.029-3.382-10.388-5.374c-8.773-5.204-16.797-11.738-23.1-19.779c-0.144,0.033-0.293,0.05-0.434,0.09
			c0.024,3.125,0.362,6.383,0.529,9.534c0.259,4.899,2.226,9.58,3.567,14.273c0.425,1.488,1.018,2.948,1.677,4.384
			c1.74,0.341,3.488,0.615,5.258,0.77C249.708,257.028,253.654,256.835,257.511,256.172z"/>
		<path style="fill:#302D3E;" d="M264.551,236.676c1.427,2.306,2.646,4.748,3.611,7.283c0.93,2.443,2.019,5.669,1.136,8.297
			c2.478,1.091,4.99,2.104,7.526,3.027c5.185,1.888,10.472,3.394,15.807,4.77c0.885-3.431,1.286-6.955,1.039-10.507
			c-0.484-6.956-2.762-13.9-5.773-20.16c-1.078-2.242-2.331-4.395-3.774-6.397c-7.981,0.142-16.465,2.792-23.728,3.922
			c-1.19,0.185-2.375,0.345-3.559,0.488C259.816,230.119,262.429,233.248,264.551,236.676z"/>
		<path style="fill:#302D3E;" d="M289.211,265.773c-1.471,1.351-3.084,2.548-4.735,3.668c-5.752,3.9-12.274,6.689-19.036,8.268
			c-2.887,0.674-5.829,1.111-8.786,1.334c4.192,3.025,8.974,5.438,13.465,7.073c7.919,2.883,17.145,1.944,23.8-3.67
			c5.862-4.945,6.031-10.324,5.684-16.841c0.116,0.049,0.227,0.107,0.343,0.156c2.191,0.918,4.467,1.646,6.804,2.089
			c2.041,0.387,5.14,1.269,6.968-0.116c0.364-0.276,0.398-0.777,0.064-1.093c-1.569-1.482-4.497-1.264-6.504-1.588
			c-2.236-0.36-4.471-0.755-6.684-1.24c-0.371-0.081-0.739-0.177-1.108-0.268c-0.003-0.043-0.005-0.084-0.008-0.127
			c0.29,0.213,0.688,0.179,1.144-0.016c-2.692-0.604-5.371-1.276-8.021-2.035C291.88,263.089,290.576,264.519,289.211,265.773z"/>
	</g>
</svg>