<svg xmlns="http://www.w3.org/2000/svg" viewBox="133.892 376.703 50.040 46.207">
<path style="fill:#284955;" d="M171.349,410.831
			c0,0,0.871,1.801,0.755,2.066c-0.116,0.265-2.312-0.852-3.024-0.847c-0.712,0.005-3.933,2.86-8.743,0.681
			c-4.81-2.179-3.883-3.037-6.12-3.699c-2.237-0.661-10.411,1.61-11.368,1.271c-0.957-0.339,0.247-1.471,0.839-1.922
			c0,0-0.655-1.391,0.955-2.188c0,0-0.465-1.466,0.877-1.827c0,0-0.659-0.84,0.351-1.346c1.01-0.506,4.914,2.304,7.519,1.941
			c0,0-2.732-3.324-3.517-6.587c-0.785-3.263-0.359-5.682,0.208-5.987c0.566-0.305,0.894,0.391,0.894,0.391
			s-0.142-3.693,0.532-3.951c0.674-0.258,1.002,0.438,1.002,0.438s0.156-1.984,1.088-2.13c0.932-0.146,0.936,0.567,0.936,0.567
			s0.362-2.999,2.156-2.768c1.793,0.231,1.257,2.364,1.257,2.364s0.766-0.85,1.607-0.245c0.841,0.604-1.707,5.174-1.1,8.123
			c0.607,2.949,1.913,5.018,1.913,5.018s2.25-3.438,3.087-3.23c0.837,0.208,0.213,1.277,0.213,1.277s1.664-1.641,3.039-1.356
			c1.375,0.285,0.485,1.238,0.485,1.238s3.313-1.079,4.382-0.454c1.069,0.625,0.399,1.437,0.399,1.437s3.371,0.052,3.666,1.364
			c0.295,1.313-3.47,0.537-5.813,2.829c-2.343,2.292-1.696,3.522-1.29,3.857C168.94,407.491,171.404,406.909,171.349,410.831z"/>
</svg>