<svg xmlns="http://www.w3.org/2000/svg" viewBox="444.663 152.290 43.229 32.084">
<path style="fill:#284955;" d="M469.668,161.01
			c0,0,1.369-0.208,1.508-0.153s-0.721,0.996-0.952,1.439c-0.231,0.443-0.916,1.882-0.898,2.639
			c0.018,0.757,2.353,1.212,3.424,0.945c1.071-0.267,2.768,1.646,4.65,2.294c1.883,0.648,2.492,1,2.177,1.516
			c-0.314,0.517-1.93,0.404-1.93,0.404s0.221,0.785-0.536,1.07s-1.514,0.035-1.514,0.035s-0.167,0.683-1.099,0.737
			c-0.932,0.054-1.754-0.436-1.754-0.436s-0.12,0.434-1.053,0.488c-0.932,0.055-1.707-0.417-1.707-0.417s-0.536,0.535-1.311,0.331
			c-0.775-0.204-1.55-0.943-1.55-0.943s-1.117,0.516-1.368,1.808c-0.251,1.292-0.216,3.074-0.954,3.313
			c-0.739,0.239-1.292-0.518-1.292-0.518s-0.379,0.812-1.053,0.756c-0.674-0.056-1.005-0.832-1.005-0.832s-0.933,0.858-1.551,0.128
			s1.257-1.531,2.117-2.74c0.86-1.209,0.741-2.649,0.741-2.649s-1.284,0.396-2.077-0.565c0,0-1.477,0.211-1.984-0.796
			c0,0-1.671,0.026-2.187-1.359c0,0-1.237-0.121-1.458-0.906c0,0-1.947-0.888-2.168-1.673c-0.221-0.785,3.397-0.19,5.125-1.158
			c1.727-0.968,3.02-1.252,4.109-0.762c1.089,0.49,2.676,1.074,3.165,1.056c0.489-0.018,0.962-1.596,1.988-2.684
			C468.296,160.29,469.668,161.01,469.668,161.01z"/>
</svg>