<svg xmlns="http://www.w3.org/2000/svg" viewBox="33.100 226.005 39.173 33.262">
<path style="fill:#284955;" d="M58.429,238.574
			c0,0,1.354,0.408,1.457,0.52c0.103,0.112-1.102,0.602-1.509,0.909c-0.407,0.307-1.67,1.334-1.985,2.039
			c-0.316,0.706,1.638,2.149,2.742,2.372c1.104,0.224,1.83,2.731,3.281,4.154c1.451,1.423,1.858,2.014,1.342,2.352
			c-0.516,0.338-1.956-0.473-1.956-0.473s-0.141,0.82-0.964,0.751c-0.823-0.069-1.411-0.631-1.411-0.631s-0.453,0.556-1.337,0.198
			c-0.883-0.359-1.425-1.17-1.425-1.17s-0.301,0.347-1.185-0.012c-0.883-0.359-1.391-1.133-1.391-1.133s-0.729,0.258-1.354-0.27
			c-0.625-0.528-1.015-1.549-1.015-1.549s-1.256-0.015-2.054,1.067c-0.797,1.081-1.546,2.739-2.332,2.636
			c-0.786-0.103-0.964-1.044-0.964-1.044s-0.706,0.582-1.302,0.235c-0.597-0.347-0.562-1.208-0.562-1.208s-1.236,0.381-1.486-0.562
			c-0.249-0.944,1.83-0.86,3.153-1.597s1.845-2.117,1.845-2.117s-1.357-0.198-1.666-1.432c0,0-1.454-0.453-1.48-1.604
			c0,0-1.552-0.709-1.42-2.212c0,0-1.087-0.654-0.946-1.475c0,0-1.405-1.673-1.265-2.493c0.141-0.82,3.215,1.314,5.232,1.18
			c2.017-0.135,3.333,0.17,4.122,1.099c0.789,0.929,1.996,2.163,2.455,2.361c0.459,0.198,1.586-1.05,3.009-1.603
			C57.48,237.31,58.429,238.574,58.429,238.574z"/>
</svg>