<?xml version="1.0" encoding="utf-8"?>
<svg version="1.1" xmlns="http://www.w3.org/2000/svg" xmlns:xlink="http://www.w3.org/1999/xlink" viewBox="70 100 326 311" xml:space="preserve">
<g>
	<path style="fill:#FFD34E;" d="M185.228,199.623c-1.251,1.007-2.451,2.076-3.628,3.169c-1.946,1.806-3.77,3.742-5.467,5.782
		c-1.854,2.228-3.566,4.569-5.051,7.059c-1.4,2.348-2.593,4.81-3.673,7.319c-0.493,1.145-0.923,2.315-1.368,3.479
		c-0.391,1.027-0.783,2.055-1.175,3.082c-0.29,0.76-0.493,1.566-0.734,2.342c-0.304,0.977-0.608,1.955-0.913,2.932
		c-0.37,1.182-0.63,2.413-0.898,3.62c-0.316,1.425-0.556,2.863-0.769,4.305c-0.455,3.079-0.749,6.163-1.05,9.26
		c-0.184,1.886-0.262,3.785-0.381,5.676c-0.227,3.592-0.377,7.189-0.488,10.788c-0.034,1.106-0.069,2.213-0.103,3.32
		c-0.027,0.932-0.014,1.868-0.004,2.801c0.019,1.746,0.224,3.452,0.46,5.181c0.365,2.679,1.128,5.238,2.149,7.733
		c1.125,2.75,2.38,5.411,3.95,7.937c1.533,2.467,3.324,4.778,5.209,6.984c1.715,2.006,3.624,3.813,5.683,5.464
		c2.323,1.865,4.751,3.57,7.344,5.04c2.345,1.331,4.787,2.513,7.268,3.567c3.244,1.379,6.534,2.599,9.865,3.738
		c1.703,0.582,3.396,1.219,5.12,1.737c2.297,0.691,4.595,1.383,6.892,2.075c4.413,1.328,8.953,2.247,13.545,2.669
		c2.747,0.252,5.512,0.095,8.246-0.223c3.031-0.351,6.018-0.878,8.984-1.59c5.327-1.278,10.565-2.926,15.644-4.984
		c5.285-2.14,10.297-4.812,14.994-8.047c4.677-3.22,9.044-6.915,12.975-11.013c1.867-1.946,3.671-3.968,5.372-6.061
		c1.814-2.234,3.561-4.582,4.922-7.125c2.837-5.3,4.388-11.195,4.688-17.187c0.155-3.083-0.171-6.124-0.605-9.172
		c-0.389-2.736-0.924-5.443-1.577-8.127c-0.662-2.717-1.417-5.416-2.334-8.059c-0.944-2.717-2.029-5.422-3.403-7.952
		c-1.368-2.516-3.079-4.846-5.127-6.848c-2.016-1.973-4.346-3.656-6.756-5.11c-4.854-2.927-10.128-5.173-15.568-6.747
		c-2.691-0.779-5.425-1.369-8.185-1.845c-2.973-0.512-5.969-0.891-8.984-1.033c-1.371-0.064-2.744-0.063-4.114,0.009
		c-1.687,0.09-3.365,0.327-5.034,0.573c-2.774,0.407-5.536,0.953-8.23,1.731c-2.807,0.812-5.528,1.931-8.165,3.182
		c-2.444,1.159-4.774,2.566-6.935,4.192c-2.315,1.744-4.41,3.694-6.27,5.918c-1.869,2.234-3.531,4.664-4.965,7.197
		c-1.404,2.482-2.551,5.15-3.401,7.872c-0.87,2.79-1.356,5.752-1.548,8.663c-0.195,2.968,0.148,6.021,0.908,8.893
		c0.383,1.445,0.985,2.84,1.62,4.19c0.569,1.208,1.267,2.353,2.019,3.455c0.83,1.216,1.755,2.387,2.778,3.447
		c1.088,1.126,2.358,2.109,3.653,2.984c1.219,0.824,2.615,1.383,3.977,1.916c1.239,0.484,2.532,0.824,3.829,1.111
		c2.882,0.639,5.888,0.816,8.832,0.833c2.999,0.018,6.014-0.346,8.974-0.799c2.741-0.421,5.421-1.101,8.117-1.737
		c2.037-0.482,4.038-1.159,5.984-1.922c1.445-0.567,2.878-1.18,4.244-1.92c1.468-0.795,2.81-1.751,4.126-2.776
		c2.285-1.779,4.213-3.975,5.823-6.378c0.844-1.259,1.434-2.662,1.991-4.065c0.609-1.536,0.858-3.173,1.016-4.809
		c0.06-0.621,0.027-1.242-0.046-1.859c-0.111-0.934-0.243-1.837-0.493-2.742c-0.242-0.871-0.635-1.711-1.003-2.531
		c-0.294-0.657-0.669-1.278-1.065-1.877c-1.718-2.603-4-4.847-6.656-6.479c-1.102-0.678-2.331-1.19-3.555-1.597
		c-1.286-0.428-2.658-0.573-3.995-0.74c-2.612-0.328-5.254,0.087-7.834,0.493c-2.243,0.354-4.459,0.987-6.623,1.664
		c-2.485,0.776-4.928,1.765-7.261,2.917c-2.289,1.13-4.383,2.725-6.344,4.342c-1.022,0.843-2.008,1.729-3,2.607
		c-0.562,0.495-1.102,1.011-1.645,1.526c-0.839,0.795-1.54,1.689-2.238,2.609c-0.387,0.665-0.581,1.384-0.582,2.153
		c0,1.128,0.453,2.221,1.25,3.018c0.796,0.797,1.89,1.25,3.018,1.25c1.068,0,2.293-0.43,3.018-1.25
		c0.813-0.92,1.79-1.687,2.734-2.467c0.95-0.785,1.925-1.542,2.899-2.298c2.128-1.611,4.388-2.991,6.821-4.08
		c3.628-1.465,7.421-2.593,11.291-3.188c1.424-0.157,2.834-0.202,4.26-0.074c0.737,0.131,1.461,0.309,2.168,0.555
		c0.679,0.333,1.327,0.72,1.947,1.154c0.82,0.702,1.573,1.48,2.265,2.307c0.447,0.631,0.845,1.29,1.186,1.983
		c0.163,0.472,0.294,0.95,0.397,1.438c0.024,0.427,0.02,0.852-0.01,1.281c-0.155,0.806-0.378,1.591-0.663,2.363
		c-0.479,1.008-1.051,1.953-1.705,2.858c-1.022,1.245-2.15,2.387-3.394,3.409c-1.552,1.122-3.214,2.056-4.962,2.836
		c-2.445,0.977-4.949,1.714-7.502,2.353c-0.94,0.235-1.879,0.471-2.818,0.706c-1.486,0.373-3.013,0.634-4.531,0.855
		c-3.683,0.452-7.412,0.586-11.105,0.167c-1.782-0.283-3.541-0.727-5.225-1.373c-0.876-0.411-1.698-0.894-2.484-1.455
		c-0.941-0.787-1.796-1.647-2.576-2.594c-0.997-1.362-1.865-2.811-2.57-4.346c-0.53-1.39-0.892-2.824-1.134-4.291
		c-0.204-1.939-0.177-3.884,0.04-5.822c0.399-2.607,1.073-5.144,2.052-7.595c1.314-2.963,2.997-5.753,4.938-8.347
		c1.581-1.975,3.361-3.787,5.332-5.373c2.694-1.997,5.63-3.605,8.702-4.943c4.193-1.697,8.597-2.734,13.068-3.381
		c3.792-0.451,7.602-0.33,11.389,0.139c5.75,0.818,11.424,2.193,16.805,4.394c1.785,0.777,3.526,1.641,5.233,2.581
		c1.677,0.925,3.317,1.92,4.858,3.058c1.458,1.174,2.823,2.458,4.01,3.907c1.312,1.81,2.377,3.788,3.274,5.834
		c1.268,3.122,2.259,6.339,3.096,9.603c0.839,3.274,1.51,6.577,1.988,9.923c0.203,1.617,0.346,3.237,0.371,4.868
		c0.026,1.624-0.065,3.251-0.25,4.865c-0.428,2.789-1.187,5.507-2.24,8.124c-0.542,1.222-1.143,2.416-1.828,3.565
		c-0.711,1.192-1.529,2.321-2.368,3.427c-2.038,2.57-4.307,4.978-6.612,7.307c-2.318,2.34-4.796,4.526-7.386,6.561
		c-4.877,3.697-10.169,6.859-15.787,9.292c-3.548,1.455-7.195,2.686-10.877,3.75c-3.81,1.1-7.689,2.062-11.617,2.64
		c-1.652,0.204-3.309,0.346-4.975,0.394c-1.707,0.049-3.406-0.055-5.1-0.254c-3.535-0.526-7.006-1.38-10.424-2.422
		c-2.189-0.668-4.375-1.337-6.564-2.003c-1.679-0.513-3.329-1.14-4.988-1.711c-2.744-0.945-5.467-1.924-8.15-3.029
		c-4.315-1.868-8.473-4.107-12.243-6.924c-1.336-1.063-2.616-2.188-3.82-3.399c-1.262-1.271-2.423-2.641-3.537-4.044
		c-2.18-2.908-3.98-6.041-5.441-9.368c-0.451-1.116-0.859-2.246-1.193-3.403c-0.349-1.21-0.598-2.446-0.788-3.691
		c-0.348-3.155-0.198-6.347-0.128-9.514c0.039-1.788,0.099-3.573,0.168-5.359c0.141-3.66,0.247-7.33,0.552-10.979
		c0.208-2.506,0.406-5.003,0.718-7.497c0.356-2.497,0.811-5.003,1.511-7.425c0.432-1.493,0.864-2.985,1.296-4.478
		c0.284-0.98,0.666-1.932,1.011-2.893c0.479-1.336,0.942-2.676,1.474-3.991c0.87-2.005,1.829-3.967,2.896-5.874
		c1.066-1.902,2.283-3.71,3.596-5.447c1.34-1.693,2.771-3.311,4.282-4.854c1.271-1.3,2.592-2.584,3.984-3.755
		c1.419-1.193,2.838-2.384,4.255-3.577c1.145-0.855,2.291-1.709,3.436-2.564c1.156-0.863,2.396-1.616,3.6-2.41
		c1.145-0.755,2.322-1.426,3.513-2.106c2.214-1.266,4.444-2.478,6.78-3.505c3.198-1.304,6.502-2.266,9.918-2.782
		c2.04-0.236,4.116-0.296,6.161-0.079c0.595,0.102,1.171,0.235,1.739,0.436c0.639,0.294,1.266,0.61,1.883,0.945
		c1.622,0.879,3.677,0.414,4.63-1.214c0.909-1.552,0.406-3.751-1.213-4.63c-1.2-0.65-2.441-1.247-3.723-1.719
		c-0.578-0.213-1.205-0.308-1.811-0.404c-0.939-0.149-1.883-0.254-2.833-0.307c-0.497-0.028-0.994-0.041-1.491-0.041
		c-2.429,0-4.862,0.317-7.242,0.766c-2.675,0.505-5.258,1.293-7.798,2.265c-2.224,0.849-4.448,1.835-6.542,2.972
		c-1.076,0.583-2.152,1.168-3.228,1.752c-0.581,0.315-1.16,0.62-1.719,0.97c-1.623,1.018-3.272,1.996-4.833,3.107
		c-1.763,1.255-3.531,2.49-5.216,3.847C187.315,197.943,186.271,198.783,185.228,199.623z"/>
	<path style="fill:#FFD34E;" d="M264.532,177.626c1.909-1.984,3.835-3.947,5.774-5.901c0.915-0.921,1.829-1.843,2.744-2.763
		c0.297-0.301,0.588-0.611,0.902-0.894c3.035-2.736,6.064-5.481,9.108-8.21c1.202-1.079,2.472-2.09,3.706-3.132
		c1.402-1.185,2.805-2.371,4.208-3.557c0.302-0.255,0.604-0.509,0.908-0.762c1.225,0.305,2.599,0.022,3.48-0.952
		c0.566-0.624,1.128-1.254,1.672-1.897c1.152-1.36,2.323-2.702,3.292-4.201c0.934-1.444,0.581-3.479-0.601-4.66
		c-0.718-0.718-1.703-1.126-2.718-1.126c-0.342,0.045-0.683,0.091-1.023,0.137c-0.651,0.182-1.217,0.511-1.696,0.989
		c-1.567,1.292-3.073,2.653-4.604,3.988c-1.38,1.204-2.756,2.41-4.139,3.61c-2.817,2.442-5.676,4.842-8.433,7.351
		c-1.696,1.542-3.391,3.083-5.086,4.625c-0.771,0.7-1.54,1.4-2.31,2.099c-0.307,0.278-0.63,0.546-0.921,0.84
		c-3.103,3.125-6.204,6.25-9.257,9.423c-1.333,1.387-1.38,3.614,0,4.994C260.879,178.968,263.196,179.013,264.532,177.626z"/>
	<path style="fill:#FFD34E;" d="M311.822,208.229c0.93,0.544,2.273,0.814,3.316,0.434c8.716-3.175,17.423-6.372,26.127-9.58
		c1.191-0.438,2.384-0.874,3.577-1.308c0.978-0.355,1.957-0.712,2.937-1.068c0.586-0.213,1.17-0.432,1.754-0.651
		c0.513-0.193,1.03-0.376,1.55-0.548c0.102-0.033,0.203-0.07,0.305-0.107c0.149,0.015,0.296,0.023,0.439,0.023
		c1.17,0,2.304-0.47,3.132-1.296c1.721-1.722,1.684-4.536,0-6.262c-0.331-0.339-0.722-0.615-1.117-0.878
		c-0.737-0.493-1.59-0.556-2.443-0.617c-0.069-0.005-0.137-0.007-0.205-0.007c-0.761,0-1.442,0.3-2.137,0.558
		c-1.141,0.422-2.28,0.849-3.418,1.278c-0.985,0.372-1.97,0.741-2.956,1.11c-1.501,0.564-3.001,1.128-4.504,1.689
		c-3.551,1.33-7.102,2.658-10.66,3.972c-4.888,1.803-9.776,3.604-14.669,5.391c-1.088,0.398-1.972,0.951-2.573,1.979
		c-0.582,0.995-0.74,2.205-0.434,3.316C310.139,206.732,310.859,207.666,311.822,208.229z"/>
	<path style="fill:#FFD34E;" d="M389.84,245.613c-0.559-0.324-1.16-0.487-1.807-0.489c-0.429-0.041-0.859-0.059-1.289-0.059
		c-1.551,0-3.107,0.229-4.641,0.409c-1.874,0.22-3.749,0.413-5.627,0.589c-3.699,0.347-7.402,0.643-11.105,0.942
		c-4.083,0.33-8.162,0.684-12.241,1.048c-1.532,0.137-3.064,0.269-4.596,0.4c-1.156,0.098-2.314,0.197-3.47,0.296
		c-1.224,0.105-2.456,0.107-3.687,0.097c-0.667-0.609-1.619-0.909-2.507-0.61c-0.552,0.186-1.056,0.399-1.475,0.817
		c-0.486,0.487-0.718,1.11-0.901,1.756c-0.48,1.693,0.858,3.394,2.595,3.405c1.988,0.014,3.989,0.128,5.976,0.004
		c1.213-0.075,2.426-0.151,3.639-0.227c1.62-0.1,3.239-0.202,4.858-0.309c2.17-0.144,4.341-0.285,6.511-0.43
		c2.088-0.14,4.182-0.214,6.273-0.32c3.547-0.182,7.098-0.297,10.649-0.408c1.729-0.053,3.458-0.096,5.186-0.138
		c0.976-0.024,1.951-0.048,2.927-0.081c0.974-0.034,1.951-0.071,2.926-0.019c0.921,0.049,1.893-0.41,2.532-1.049
		c0.668-0.669,1.048-1.586,1.048-2.531c0-0.946-0.38-1.863-1.048-2.532C390.323,245.986,390.081,245.799,389.84,245.613z"/>
	<path style="fill:#FFD34E;" d="M365.666,315.593c-0.402-0.678-0.943-1.22-1.623-1.621c-1.691-1.193-3.603-2.021-5.471-2.892
		c-1.621-0.755-3.247-1.499-4.877-2.238c-3.486-1.579-6.968-3.172-10.446-4.772c-3.282-1.509-6.564-3.022-9.843-4.538
		c-0.373-0.157-0.748-0.315-1.121-0.472c-0.415-0.112-0.831-0.168-1.246-0.168c-0.416,0-0.831,0.056-1.246,0.168
		c-1.172,0.323-2.189,1.106-2.803,2.155c-0.634,1.084-0.806,2.403-0.472,3.614c0.297,1.077,1.103,2.316,2.155,2.803
		c8.115,3.749,16.248,7.459,24.375,11.18c2.145,0.981,4.329,1.904,6.432,2.969c1.11,0.562,2.259,0.794,3.485,0.456
		c1.13-0.312,2.111-1.068,2.703-2.079c0.611-1.045,0.778-2.316,0.456-3.485C365.97,316.314,365.818,315.954,365.666,315.593z"/>
	<path style="fill:#FFD34E;" d="M277.667,355.47c0.358,0.744,0.831,1.448,1.243,2.163c0.461,0.802,0.893,1.634,1.392,2.414
		c0.598,0.935,1.2,1.868,1.799,2.802c1.09,1.699,2.221,3.369,3.323,5.059c1.138,1.745,2.296,3.519,3.121,5.437
		c0.346,0.585,0.811,1.05,1.396,1.396c0.9,0.526,1.996,0.669,3,0.392c0.973-0.267,1.817-0.919,2.327-1.788
		c0.498-0.852,0.722-2.044,0.392-3c-0.445-1.288-1.001-2.528-1.632-3.734c-0.441-0.844-1.018-1.62-1.561-2.398
		c-1.076-1.543-2.219-3.045-3.323-4.568c-0.6-0.826-1.148-1.693-1.721-2.537c-0.393-0.579-0.761-1.155-1.12-1.756
		c-0.645-1.083-1.29-2.167-1.935-3.25c-0.327-0.548-0.593-1.128-0.874-1.702c-0.635-1.291-1.269-2.583-1.905-3.875
		c-1.303-3.178-2.612-6.351-3.878-9.544c-0.125-0.296-0.25-0.592-0.375-0.887c-0.33-0.558-0.775-1.001-1.333-1.332
		c-0.571-0.334-1.225-0.506-1.882-0.506c-0.33,0-0.661,0.043-0.982,0.132c-0.928,0.256-1.733,0.876-2.22,1.707
		c-0.457,0.783-0.722,1.984-0.374,2.863c1.056,2.666,2.133,5.322,3.219,7.976c0.318,0.775,0.635,1.55,0.953,2.326
		c0.455,1.113,1,2.185,1.524,3.266C276.718,353.508,277.192,354.489,277.667,355.47z"/>
	<path style="fill:#FFD34E;" d="M235.477,361.298c0.441-0.18,0.817-0.504,1.059-0.917c0.293-0.501,0.373-1.113,0.219-1.673
		c-0.073-0.174-0.147-0.346-0.219-0.52c-0.194-0.326-0.453-0.585-0.78-0.779c-0.482-0.371-1.022-0.464-1.605-0.55
		c-0.193-0.026-0.385-0.053-0.578-0.079c-0.392,0.001-0.759,0.1-1.098,0.297c-0.327,0.194-0.586,0.453-0.78,0.78
		c-0.197,0.339-0.296,0.706-0.297,1.098c-0.147,1.361-0.347,2.715-0.495,4.076c-0.157,1.461-0.175,2.93-0.14,4.398
		c0.064,2.597,0.35,5.182,0.48,7.777c0.111,2.224,0.225,4.447,0.339,6.671c0.181,3.551,0.354,7.104,0.551,10.653
		c0.109,1.969,0.21,3.938,0.307,5.907c0.042,0.86,0.107,1.719,0.17,2.578c0.042,0.588,0.126,1.168,0.21,1.751
		c0.115,0.815,0.233,1.596,0.535,2.369c0.104,0.247,0.209,0.494,0.313,0.741c0.276,0.465,0.646,0.837,1.111,1.113
		c0.717,0.419,1.589,0.533,2.39,0.312c0.775-0.213,1.448-0.731,1.854-1.425c0.104-0.247,0.208-0.494,0.312-0.741
		c0.148-0.55,0.148-1.099,0-1.649c-0.229-0.556-0.387-1.124-0.505-1.712c-0.073-0.369-0.167-0.741-0.22-1.114
		c-0.108-0.74-0.216-1.481-0.322-2.221c-0.442-3.359-0.884-6.72-1.223-10.091c-0.425-4.234-0.81-8.467-1.183-12.705
		c-0.201-2.288-0.422-4.574-0.585-6.863c-0.113-1.573-0.171-3.152-0.084-4.728C235.262,363.132,235.366,362.215,235.477,361.298z"/>
	<path style="fill:#FFD34E;" d="M182.219,358.825c0.01,0.006,0.02,0.012,0.029,0.018c0.593,0.347,1.555,0.187,1.865-0.488
		c0.319-0.695,0.631-1.393,0.973-2.076c0.415-0.826,0.927-1.616,1.286-2.466c0.167-0.288,0.25-0.597,0.251-0.93
		c-0.001-0.332-0.084-0.642-0.251-0.93c-0.164-0.277-0.384-0.497-0.661-0.661c-0.288-0.167-0.597-0.251-0.929-0.251
		c-0.561,0.073-1.242,0.068-1.726,0.406c-0.427,0.298-0.836,0.619-1.213,0.977c-0.725,0.685-1.303,1.533-1.903,2.331
		c-2.202,2.817-4.297,5.71-6.297,8.676c-1.44,2.137-2.879,4.274-4.32,6.41c-0.806,1.195-1.582,2.41-2.364,3.623
		c-1.045,1.62-2.102,3.232-3.132,4.862c-1.018,1.609-2.035,3.219-3.053,4.829c-0.414,0.653-0.826,1.307-1.239,1.961
		c-0.233,0.372-0.468,0.744-0.703,1.115c-0.6,0.951-1.337,1.874-1.499,3.025c-0.155,0.575-0.155,1.151,0,1.725
		c0.223,0.811,0.765,1.516,1.491,1.94c1.284,0.75,2.871,0.498,3.931-0.507c0.472-0.448,0.904-0.907,1.309-1.414
		c0.171-0.221,0.343-0.442,0.514-0.664c0.297-0.513,0.446-1.065,0.448-1.658c0-0.288-0.039-0.573-0.112-0.848
		c0.122-0.243,0.245-0.486,0.368-0.73c0.313-0.623,0.635-1.238,0.967-1.851c0.863-1.59,1.696-3.202,2.605-4.767
		c1.235-2.122,2.468-4.245,3.702-6.366c0.729-1.252,1.506-2.474,2.269-3.704c1.143-1.841,2.285-3.684,3.429-5.526
		c0.807-1.301,1.645-2.585,2.483-3.866C181.221,360.282,181.714,359.55,182.219,358.825z"/>
	<path style="fill:#FFD34E;" d="M125.051,355.783c0.077-0.282,0.122-0.571,0.135-0.86c1.994-1.628,3.99-3.255,5.982-4.885
		c2.464-2.016,4.93-4.015,7.445-5.968c3.558-2.762,7.115-5.525,10.673-8.288c1.945-1.477,3.911-2.925,5.866-4.387
		c0.297-0.229,0.594-0.46,0.892-0.689c0.546-0.55,0.923-1.197,1.133-1.942c0.312-1.137,0.151-2.376-0.444-3.394
		c-0.577-0.984-1.532-1.721-2.632-2.023c-0.39-0.053-0.78-0.104-1.17-0.158c-0.795,0.003-1.536,0.204-2.223,0.601
		c-2.68,2.003-5.369,3.992-8.014,6.043c-1.927,1.493-3.852,2.985-5.779,4.478c-2.742,2.125-5.527,4.204-8.216,6.395
		c-3.449,2.81-6.9,5.62-10.351,8.431c-2.752,2.242-5.505,4.486-8.209,6.786c-0.7,0.596-1.4,1.19-2.101,1.786
		c-0.794,0.676-1.543,1.395-2.3,2.11c-1.398,1.319-1.626,3.576-0.672,5.207c0.562,0.961,1.494,1.679,2.567,1.974
		c1.054,0.29,2.38,0.189,3.311-0.433c4.136-2.761,8.205-5.623,12.305-8.44C124.115,357.53,124.764,356.821,125.051,355.783z"/>
	<path style="fill:#FFD34E;" d="M114.843,285.496c1.882-0.157,3.764-0.231,5.65-0.296c1.754-0.06,3.509-0.101,5.255,0.076
		c0.283,0.049,0.563,0.109,0.843,0.189c0.27,0.078,0.534,0.18,0.795,0.289c0.109,0.048,0.217,0.097,0.324,0.147
		c0.289,0.122,0.578,0.244,0.867,0.366c0.643,0.172,1.286,0.172,1.928,0c0.908-0.25,1.695-0.856,2.17-1.668
		c0.49-0.839,0.623-1.859,0.365-2.797c-0.229-0.832-0.854-1.794-1.668-2.168c-1.314-0.602-2.637-1.201-4.072-1.419
		c-1.517-0.231-3.026-0.332-4.555-0.332c-0.097,0-0.194,0-0.292,0.001c-2.761,0.023-5.528,0.153-8.28,0.381
		c-3.042,0.252-6.074,0.598-9.102,0.973c-2.193,0.273-4.386,0.544-6.58,0.814c-2.273,0.281-4.539,0.645-6.805,0.971
		c-2.562,0.369-5.126,0.726-7.689,1.082c-1.725,0.206-3.474,0.31-5.126,0.872c-0.658,0.185-1.229,0.517-1.714,0.999
		c-0.726,0.726-1.138,1.722-1.138,2.748c0,1.027,0.412,2.023,1.138,2.749c0.68,0.681,1.76,1.212,2.748,1.137
		c1.068-0.079,2.145-0.117,3.208-0.254c0.556-0.072,1.111-0.143,1.666-0.214c1.285-0.165,2.57-0.328,3.852-0.503
		c2.212-0.303,4.426-0.59,6.626-0.974c0.627-0.176,1.172-0.494,1.635-0.953c0.001-0.001,0.001-0.001,0.002-0.002
		c0.83-0.13,1.661-0.261,2.492-0.391c2.658-0.352,5.318-0.698,7.975-1.046C109.847,285.945,112.348,285.706,114.843,285.496z"/>
	<path style="fill:#FFD34E;" d="M78.819,228.708c0.752,0.202,1.535,0.292,2.293,0.469c1.123,0.262,2.247,0.524,3.372,0.786
		c1.573,0.366,3.148,0.73,4.724,1.091c2.173,0.497,4.346,0.993,6.52,1.493c1.51,0.345,3.006,0.76,4.506,1.14
		c2.574,0.651,5.147,1.303,7.721,1.954c0.917,0.232,1.81,0.468,2.708,0.763c4.677,1.533,9.356,3.067,14.034,4.6
		c2.651,0.868,5.245,1.882,7.855,2.863c0.882,0.331,2.042,0.09,2.828-0.37c0.821-0.48,1.434-1.276,1.687-2.193
		c0.26-0.947,0.126-1.98-0.37-2.828c-0.191-0.247-0.383-0.495-0.574-0.742c-0.457-0.455-0.997-0.769-1.619-0.944
		c-2.611-0.984-5.202-1.999-7.851-2.874c-2.419-0.799-4.839-1.599-7.258-2.398c-2.257-0.745-4.512-1.49-6.767-2.235
		c-0.897-0.297-1.79-0.537-2.706-0.773c-2.569-0.666-5.139-1.331-7.709-1.996c-1.499-0.389-2.993-0.805-4.5-1.166
		c-3.738-0.896-7.479-1.782-11.214-2.696c-0.986-0.241-1.974-0.483-2.96-0.724c-0.257-0.835-0.828-1.558-1.583-2
		c-0.28-0.117-0.559-0.235-0.837-0.353c-0.311-0.084-0.621-0.125-0.932-0.125c-0.311,0-0.622,0.042-0.932,0.125
		c-0.38,0.065-0.75,0.141-1.121,0.247c-0.698,0.198-1.354,0.537-2.017,0.826c-0.252,0.195-0.506,0.391-0.758,0.586
		c-0.464,0.467-0.784,1.018-0.962,1.651c-0.248,0.902-0.176,2.094,0.377,2.885c0.544,0.779,1.06,1.597,1.917,2.077
		C77.359,228.22,78.081,228.509,78.819,228.708z"/>
	<path style="fill:#FFD34E;" d="M92.629,168.762c0.687,0.62,1.398,1.212,2.102,1.812c1.55,1.318,3.128,2.6,4.7,3.89
		c1.453,1.193,2.958,2.319,4.448,3.463c1.829,1.404,3.634,2.842,5.515,4.174c4.539,3.217,9.23,6.181,14.118,8.839
		c2.622,1.426,5.266,2.809,7.937,4.137c4.395,2.186,8.79,4.372,13.185,6.558c2.676,1.331,5.372,2.622,8.062,3.926
		c0.737,0.357,1.465,0.521,2.277,0.299c0.738-0.204,1.379-0.697,1.765-1.358c0.399-0.682,0.507-1.513,0.297-2.276
		c-0.19-0.692-0.695-1.442-1.357-1.765c-2.801-1.367-5.608-2.717-8.391-4.12c-2.225-1.122-4.452-2.244-6.679-3.367
		c-2.159-1.087-4.318-2.175-6.477-3.265c-2.943-1.484-5.839-3.072-8.708-4.696c-4.745-2.687-9.253-5.743-13.642-8.974
		c-1.374-1.095-2.744-2.197-4.115-3.294c-1.206-0.965-2.422-1.915-3.588-2.927c-1.449-1.259-2.911-2.508-4.336-3.794
		c-0.669-0.604-1.347-1.198-2.003-1.817c-0.932-0.88-1.887-1.74-2.732-2.704c-0.075-0.116-0.146-0.235-0.215-0.359
		c-0.618-1.089-1.797-1.692-2.989-1.692c-0.591,0-1.185,0.148-1.715,0.458c-1.646,0.964-2.14,3.064-1.235,4.705
		C89.767,166.27,91.245,167.514,92.629,168.762z"/>
	<path style="fill:#FFD34E;" d="M155.508,140.518c0.404,0.592,0.866,1.149,1.324,1.699c0.38,0.455,0.776,0.894,1.152,1.352
		c2.383,3.127,4.664,6.335,7.081,9.436c2.634,3.382,5.274,6.76,7.912,10.139c2.875,3.684,5.781,7.344,8.684,11.005
		c0.282,0.218,0.564,0.437,0.848,0.655c0.653,0.379,1.358,0.569,2.114,0.571c1.107,0,2.181-0.445,2.964-1.227
		c0.782-0.783,1.227-1.856,1.227-2.964c-0.05-0.37-0.1-0.742-0.149-1.114c-0.199-0.71-0.559-1.326-1.077-1.848
		c-5.385-6.799-10.706-13.644-16.035-20.487c-1.288-1.729-2.581-3.452-3.872-5.18c-0.693-0.927-1.388-1.855-2.081-2.783
		c0.248-0.506,0.382-1.067,0.382-1.638c0-1.012-0.41-1.892-1.087-2.624c-1.2-1.296-2.656-2.314-4.177-3.193
		c-0.642-0.37-1.348-0.546-2.047-0.546c-1.419,0-2.809,0.725-3.575,2.021c-0.524,0.887-0.935,1.784-0.935,2.847
		c0,1.145,0.446,2.228,0.944,3.231C155.218,140.098,155.366,140.309,155.508,140.518z"/>
	<path style="fill:#FFD34E;" d="M222.71,151.866c0.14,1.578,0.288,3.158,0.472,4.732c0.204,1.735,0.488,3.46,0.731,5.19
		c0.123,0.293,0.248,0.587,0.372,0.881c0.328,0.555,0.769,0.996,1.324,1.324c0.852,0.499,1.892,0.635,2.844,0.372
		c0.921-0.254,1.722-0.87,2.205-1.696c0.124-0.293,0.248-0.587,0.372-0.881c0.176-0.654,0.176-1.308,0-1.962
		c-0.127-0.928-0.268-1.854-0.399-2.781c-0.33-2.624-0.529-5.27-0.723-7.906c-0.209-2.84-0.353-5.684-0.425-8.531
		c-0.073-2.852-0.022-5.709,0.065-8.561c0.058-1.943,0.096-3.897,0.243-5.838c0.179-2.392,0.36-4.786,0.54-7.18
		c0.132-1.761,0.357-3.516,0.546-5.273c0.006-0.057,0.012-0.114,0.019-0.17c0.094-0.077,0.185-0.16,0.272-0.246
		c0.197-0.254,0.394-0.509,0.59-0.764c0.342-0.59,0.514-1.225,0.516-1.908c-0.143-1.096-0.295-2.114-0.588-3.174
		c-0.274-0.987-0.931-1.841-1.814-2.358c-0.576-0.338-1.331-0.563-2.056-0.563c-0.343,0-0.68,0.051-0.987,0.164
		c-0.449,0.166-0.904,0.327-1.315,0.574c-0.661,0.398-1.18,0.943-1.533,1.627c-0.491,0.95-0.638,1.894-0.689,2.955
		c-0.028,0.564-0.08,1.124-0.132,1.685c-0.079,0.857-0.164,1.716-0.228,2.575c-0.137,1.812-0.286,3.622-0.387,5.435
		c-0.127,2.303-0.255,4.604-0.383,6.907c-0.133,2.415-0.161,4.846-0.197,7.265c-0.041,2.852-0.004,5.703,0.107,8.553
		C222.199,145.504,222.427,148.687,222.71,151.866z"/>
</g>
</svg>