<?xml version="1.0" encoding="utf-8"?>
<!-- Generator: Adobe Illustrator 28.0.0, SVG Export Plug-In . SVG Version: 6.00 Build 0)  -->
<svg version="1.1" id="Layer_1" xmlns="http://www.w3.org/2000/svg" xmlns:xlink="http://www.w3.org/1999/xlink" x="0px" y="0px" viewBox="-32 -32 793 793" style="enable-background:new 0 0 614 746;" xml:space="preserve">
<style type="text/css">
	.st0{opacity:0.2;fill:#584136;enable-background:new    ;}
</style>
<path class="st0" d="M616.4,242.6c-3.8,1.7-6.2,4.5-6.1,9.2c-1.1-0.7-1.8-1.2-2.6-1.8c-3.1,0.2-5.3,2.2-8,4  c-1.7-0.2-3.5-0.5-5.5-0.7c-2.4,2.3-1.8,6-3.4,8.7s-2.9,5.7-4.8,9.4c-1-3.2-1.7-5.4-2.6-8.4c1.1-3,0-5.9-3.7-7.8  c-2.5-0.5-4.3,0.9-6.1,2.3c-1.5,0.3-2.9,0.4-4.2,0.8c-2.1,0.8-4.2,0.9-6.4,0.5c-2.4-0.5-3.9,0-6.6,1.4c1.3,1.6,3,2,4.9,1.9  c3.2-0.3,6.1,0.6,8.7,2c3.2,6.1,3,7.9-1.3,14.7c-1.8,0.5-4.1,1.1-6.4,1.8c-0.9,1.4-2,2.9-3,4.4c-0.9,3,0.9,4.7,3,5.9  c0.4,2-0.3,3.3-2.2,4.4c-1-0.6-2-1.4-3.3-2.2c-2.4,0.1-4.7,0.7-7.1,2.3c-2.5,1.6-5.6,2.3-8.9,3.5c-0.6,2-1.3,4.2-1.8,6.5  c-1.4,6.7-2.8,8.5-9,11.3c-0.6,1.4,1,3.4-1,4.7c-1.1,0.3-2-0.1-2.3-1.4c-0.8-3.6-3.2-6.2-6.2-9.1c-0.3-1.7-0.8-3.9-1.2-6.2  c-0.7-3.9-2.3-7.1-6-8.7c-2.6-1.1-4.5-2.7-5.3-5.7c1.3-2.2,0.9-4.5-0.6-6.6c-2.9-1.8-6.1-0.4-9.2-1.2c0.7-1.2,1.2-2.2,1.7-3.1  c-0.3-2-0.7-3.8-1-5.8c1-1,1.9-2,2.5-2.6c4.2-1.6,7.4,0.8,11.1,1.1c1-2.9,1.9-5.7,2.7-7.9c-1.9-3.9-3.5-7.3-5.5-11.5  c0.7-2.3,1.7-5.3,2.7-8.4c0.9-0.4,1.7-0.8,2.7-1.2c0-1,0-2,0-3.2c-0.7-0.2-1.2-0.3-1.8-0.5c-3.3,3.1-4.3,8.2-9.6,9.5  c-2.9-5.4-7.6-7.4-13.6-6.3c-1.6-3-3.9-5.1-6.9-6.2c-3.1,1.5-6,3.1-9.3,4.7c-2,3.1-2.6,6.6-0.1,10c-1,3.8-2.5,7.1-7.2,8l-5.9-2.8  c-0.2-1.4-0.7-3-0.4-4.5c0.8-3.7,0.8-7.3,0.2-10.8c1.1-1.5,1.9-2.7,3-4.2c-2-2.9,0.2-7.8-4.3-9.9c-1.3-0.3-2.7-0.6-4-1l0.1,0.2l0,0  c0.9-0.6,1.8-1.2,2.9-2c-0.2-1.3-0.3-2.6-0.4-4c-0.6-4.2,2.2-8.7,6.2-10.1c3.3-1.1,6.7-1,10.1-0.8c0.7,0,1.5-0.1,2.7-0.1  c-0.8-3.3-2-5.7-5.8-6.3c-0.9,1.3-1.8,2.7-2.8,4.2c-1.3,0.1-2.7,0.1-3.8,0.1c-3.1-1.1-6-2.2-9.1-3.3c0-0.5-0.1-1.3-0.1-2  c-0.3-0.1-0.5-0.3-0.8-0.2c-2.9,0.7-5.7,1.5-8.5,2.1c-1.5,0.3-3,0.5-4.5,0.5c-2.8-0.1-5.6-0.4-7.7-0.5l-7.2-3.4  c-0.5-0.5-1.5-1.5-2.6-2.7c-3.9,2.5-8.1,2.6-13,0.7c-1.6-3.9-2.6-8.3-0.4-12.6c7-4.6,8.7-4.5,16.4,0.9c3-0.5,2.8-3.9,4.9-5.2  c-0.4-1.3-0.7-2.5-1.2-4.2c1.8-0.1,3.1-0.2,4.7-0.3c0.4-1.1,0.9-2.2,1.3-3.2c2.3-0.9,4.5-1.8,6.8-2.7c1.7,2.5,4.6,3.9,8.7,4  c1.2,2.2,2.4,4.3,3.5,6.4c0.2-0.1,0.4-0.1,0.5-0.2c0.5,3.8,1.1,7.6,1.6,11.6c2.6,0.6,3-2.2,4.6-2.7c0.4-1.7,0.7-3.2,1.1-4.9  c1.1-0.1,1.9-0.2,3.5-0.4c0.2,1.4,0.4,2.8,0.6,3.9c1.2,0.5,2,0.8,2.8,1.1c0.4,1.8,0.7,3.4,1.2,5.3c1.1-0.2,2.1-0.3,2.9-0.6  c2.3-1,4.6-1.1,6.7,0.2c2,1.2,4.6,0.5,6.4,2.5c0.3,0.4,1.6-0.1,2.9-0.3c-0.9-2.4-3.6-3.7-2.2-7.7c2.2-2.6,5.4-6.2,9-10.4  c0,0.2,0.1-0.6,0.3-1.3c0.2,0.1,0.3,0.2,0.4,0.3c2.9-4.1,5.7-8.3,8.5-12.4c3.7-0.7,7.3-1.3,10.8-1.9c2.4,1.1,4.5,2.1,6.6,3.1  c4.2,2.3,7,7.9,5.7,12.1c-0.8,2.4-2.3,4.7-3.6,7c-0.7,1.2-1.6,2.2-2.7,3.7c-3.5,2-7.1,4.8-11.5,4.2c-2.5,1.8-4.7,3.3-6.6,4.6  c-2,0.3-3.7,0.6-5.3,0.9c-2.2-0.6-4.2-1.3-7-2.1c1.2,2.2,2.1,3.9,3.1,5.8c-1.6,1.2-3,2.2-4.4,3.1c0.5,1.4,1.3,2.9,1.4,4.4  c0.1,1.6-0.6,3.2-1,5.3c2.5-1.2,4.5-2.1,7-3.2c1.2-2.6,4.4-4.6,4.2-8.5l-0.2,0.1c1.9,0.9,3.2,2.4,4,4.3c0.6,1.4,1.3,2.8,2.3,4  c0.7,0.9,1.7,1.5,3.1,2.7c0.3-1.4,0.4-2.1,0.6-2.8c0.7-0.1,1.5-0.2,2-0.2c1.6-1.4,3-2.8,4.3-4c2.3,0.6,4.2,1.1,6.2,1.6  c1.8-1.1,3.5-2.2,5-3.2c12.1,3.1,24.6,3,37.4,6.1c0.2,0.2,1,1.3,1.9,2.4c1.1-0.2,2.3-0.4,3.9-0.7c-0.3,1.5-0.6,2.4-0.8,3.6  c0.5,1.7,1.9,2.9,3.7,3.5c5.5,2.1,8.7,6.1,10.6,11.6c0.8,2.2,2,4,3.7,5.8c2.4,2.5,5.3,2.8,8.4,2.9c0.3,0,0.7-0.5,1.2-1  c-1.9-2.7-3.7-5.3-5.5-7.8s-3.6-5-5.3-7.3c0-2.5-0.1-4.9-0.1-8.1c0.6-1.6,1.6-3.9,3-7.2c1.3-1.8,3.2-4.4,5.5-7.5  c0,0,0.5-0.3,1.1-0.4c1.8-0.3,3.2-2.3,5.1-1.6c2.4,0.9,4.7,2.2,6.3,4.3c0.4,0.5,0.7,1,1.2,1.7c0.6,4-0.5,8.6,3.4,11.8  c-0.3,1.4-0.6,2.6-0.9,4.1c2.2,2.4,4.5,5,7.1,7.8c-0.3,0.6-0.7,1.7-1.3,3.1c0.6,1.4,1.2,2.9,1.9,4.6 M466.2,233.7  c1.4,3.1,1.4,3.2,4.7,2.2L466.2,233.7z M359.5,339.3c-5.3-1.8-9.8-3.4-12-8.7l-7.3-3.5c-0.4-2.1-0.8-4.4-1.2-6.6h-0.6  c0.7-3,1.4-6,2.1-9.1c1.8-1.3,3.6-2.9,5.6-3.8c1.9-0.9,4.1-1.2,6-1.7c2-3.3,4.2-5.4,6.6-6.2c4.1,1.7,4.8,2.8,4.7,8l9.8,4.6  c4.3,4.4,3.8,8.9,1.7,13.3c-1.9,3.9-4.4,7.4-8.4,9.5c-1.6,0.8-3,2.1-4.6,3C361.1,338.6,360.2,339,359.5,339.3z M506.6,368.9  c0-4.2,0-8.2-0.1-12.8c0.9-2.4,2.1-5.5,3.4-8.7c2.1-1.7,4.7-2.2,6.4-2.3c3.1-1.4,5.4-2.4,7.1-3.2c3.9-0.1,6.1,1.9,8.3,3.6  c2.3,3.5,3.6,7.2,3.4,11.5c-0.1,1.3,0.6,2.7,0.9,4.3c-0.2,0.9-0.5,2.1-0.7,3c-3.5,4.2-6.9,8.3-11,13.1c-1,0.2-3.1,0.6-4.5,0.9  C513.8,376.5,509.6,373.3,506.6,368.9L506.6,368.9z M412.8,226.4c-3.3-3.6-8.9-3.9-12.8-7.8c1.2-1.8,2.1-3.5,3.4-5  c2.3-2.5,4.5-5.1,7.2-7.2c3.3-2.5,7.2-2,10.6-0.3c3,1.5,4,4.5,3.8,7.8c-0.1,1.1,0.2,2.1,0.3,3.1C422.1,225.8,420,227.4,412.8,226.4  L412.8,226.4z M565.8,208.7c-1.1,0.1-2.1,0.1-3.3,0.2c-2.4-2.4-2.3-5.2-1.2-8.6c1.4-0.8,3.1-1.8,5.1-3c0.8-3.3,0.6-7.4,4.2-9.8  c1.7-0.6,3.5-1.3,5.1-1.8l4.2,2c2.5,3.6,2.1,7.4-0.4,11.1c1,1.6,1.9,3,2.8,4.3c-2.1,3.7-2.5,3.9-6.7,2.8c-1-1.2-2.1-2.5-3-3.6  C568.9,203.1,569.5,207.7,565.8,208.7L565.8,208.7z M447.7,228.8c0.6,1,1.2,2.2,1.9,3.1c2.3,2.7,3.1,5.6,1.8,9  c-0.2,0.6-0.2,1.2-0.1,0.9c-1.6,2.7-2.8,4.7-4.1,7c-0.9,0.4-2.2,0.9-3,1.3c-2.9-1.2-5.4-2.2-8.5-3.5c-0.5-2-1.2-4.5-2-7.3  c1.4-2.5,2.9-5.1,4.6-8.2c-3,0.4-5.3,0.8-7.6,1.1c-0.5-2.2,0.5-3,2.1-3.7c1.1,0.3,2.4,0.7,4,1.2c1.1-0.4,2.4-0.9,3.7-1.5  c2.1,2.1,4.9-0.5,7.3,0.7L447.7,228.8z M433.4,229.8C433.3,230.1,433.2,230.4,433.4,229.8C432.9,230.2,433.1,230,433.4,229.8z   M561.1,378.2c1.6,1.1,3.1,2.1,4.6,3.2c0.6,1.1,1.3,2.5,2,3.8c-0.5,2-0.9,4-1.4,6.1c-2.5,2.5-3.8,6.3-8.2,7.5l-6.6-3.1  c-1-1.7-2-3.6-3-5.3c-0.4-6.9,1.5-9.8,7.7-12.3C557.9,378.1,559.4,378.1,561.1,378.2L561.1,378.2z M185.9,266.1  c1.6,0.3,2.9,0.6,4.4,0.9c1.4,1.6,4.1,2.3,3.9,6.1c-0.2,0.8-0.5,2.4-0.9,4.5c-1.9,1.2-3.9,2.6-5.7,3.7c-5.3,0.5-10.1,0.8-13.5-4  c0.9-3.3,0.2-6.4-1.9-9.1c2.2-1.4,5-1.6,9-0.6C182.7,267.1,184.2,266.6,185.9,266.1L185.9,266.1z M479.9,189.5  c-0.8,1.2-1.3,1.9-1.9,2.9c-1.2,0.1-2.5,0.2-3.8,0.3c-1.2-2.3-0.1-4,1.3-5.6c-1.2-1.2-2.2-2.3-3.1-3.3c-0.9-2.6-0.4-4.7,1.2-6.6  c1.8-0.8,3.7-1.5,5.7-2.4c0.5-3.5,3.2-4.5,6.5-5c1,0.9,2.2,1.8,3.5,2.9c0.2,2.4,0.4,4.8,0.5,7.2c-1,1.1-1.8,2-2.7,3.1  c-0.2,1-0.4,2.2-0.5,3.1C484.8,188.6,482.7,189.7,479.9,189.5L479.9,189.5z M391.3,321.3c1.1-0.3,2.7-0.8,4.3-1.2l3.9,1.9  c0.7,1.3,1.5,2.6,2.5,4.3c-0.1,0.8,0,2-0.3,3.2s-0.7,2.4-1,3.6c-3.2,2.8-7,3.5-11.2,3c-0.5,1.8-0.8,3.4-1.3,5.3  c-1.7,0.5-3.2,1-5.1,1.6c-0.7-1.7-1.2-3.1-1.9-4.9c1.5-1.5,3-3,5-5C386,329.4,386.5,325.1,391.3,321.3L391.3,321.3z M271.5,646.5  c-3.4-5.8-2.2-12.5,2.8-16.7c0.5-0.4,1-0.8,1.5-1.1c4-3.1,6-2.8,8.9,1.7C284.3,639.9,279,646.4,271.5,646.5z M402.5,315.5  c-2.3,1-4.4,1.1-6.7,0c0.2-1.4,0.3-2.9,0.5-4.2c2.4-2.3,4.8-3.2,7.7-2c1.9-2.9,4.3-4.6,7.6-5.3l4,1.9c3,6.4,1.5,9.6-6.2,12.6  c-1.1-0.2-2.5-0.3-3.8-0.5C404.7,317.2,403.7,316.5,402.5,315.5L402.5,315.5z M586.3,458.6c-1.2,0.6-2.1,1-3,1.4l-4.7-2.2  c-0.3-1.2-0.5-2.5-0.9-4.2c-1.4-0.4-2.8-0.8-4.2-1.2c-3.8-6.7-3.8-7-1.2-11.5c3-0.3,6.2-1.2,8.9,2.1c0.1,1.2,0.2,2.6,0.2,3.9  c0.3,0.3,0.5,0.7,0.7,0.7c3.1,0.1,4.3,2.3,4.5,4.9C586.8,454.3,586.4,456.3,586.3,458.6z M431.5,120c0.5,1.2,1.1,2.7,1.8,4.2  c-0.5,2-1.1,4.1-1.6,5.7c-3.3,2.5-6.3,4.8-10.1,2.6c-3.2-1.9-4.2-5.4-3.8-8.9c0.5-3.9,3.4-5.6,7.5-6.5L431.5,120z M489.4,392.5  c1.3,6.7-1.6,11.2-6.6,14.7c-0.5-0.4-1.1-0.8-1.7-1.3c-0.8,0.2-1.5,0.4-2.1,0.5c-1.2-1-2.4-2-3.6-2.9c-0.8-7.3,2.1-11.7,9.1-13.5  L489.4,392.5L489.4,392.5z M558.9,315.5c-1.1,3.6-2.8,6.8-5.8,9.3c-2.6,0.1-3.8-2-5.3-3.3c-0.2-1.3-0.5-2.5-0.8-3.8  c0.8-2,1.6-4.1,2.3-6.1c-0.5-3-3.3-1.7-5.3-3c-0.3-0.6-0.9-1.6-1.5-2.7l1.9-4.1c1.4,0,2.7-0.1,4.5-0.1c0.2,2.2,0.4,4.3,0.6,6.3  c2.8,1.1,5.3,2.1,8.3,3.2C558.1,312.2,558.5,313.6,558.9,315.5L558.9,315.5z M415,294.5c-0.2-1.1-0.4-2.2-0.6-3.2  c1.9-3.3,3.6-6.5,5.5-9.8c1.5-0.5,2.9-1,4.6-1.5l5.2,2.5c1.4,2.6,0.5,5,0.2,7.3c-1.7,2.5-3.7,4.3-6.9,4.2c-1,0-2,0.8-2.9,1.3  C418.4,296.1,416.8,296,415,294.5L415,294.5z M401.7,3.8c2.8,2.5,6,4.8,4.9,9.2c-2,1.6-4.7,2.6-8,3c-6.5-2.3-8-6.2-4.4-12.1  c1.3-0.2,2.6-0.5,4-0.6C399.3,3.4,400.6,3.7,401.7,3.8L401.7,3.8z M216.1,580.3c2.4-6.5,3.1-12.8,9.1-16.1c0.9-0.5,2-0.8,2.9-1.2  c1.6,1,2.5,2.2,2.3,3.9c-0.2,2.1-0.3,4.5-1.3,6.2c-1.6,2.7-3.8,5.2-7.5,5.6C220.3,578.8,218.8,579.5,216.1,580.3L216.1,580.3z   M328.9,296.4c-2-2.5-3.5-4.4-5.4-6.6c0.2-1.3,0.4-2.9,0.7-4.8c-0.4-0.9-0.9-2-1.5-3.3c0.8-0.8,1.6-1.5,2.1-2  c2.3-0.3,2.9,1.2,3.6,2.6c1.6,0.2,3.2,0.5,4.8,0.7c0.6,1.6,1.1,2.9,1.4,3.5c-0.3,3.4-0.6,6.1-0.9,9  C332.1,295.8,330.4,296.1,328.9,296.4L328.9,296.4z M278.3,374.2c-1.6-2.6-0.2-5-0.2-7.4c2-2.1,3.6-4.7,6.7-5.2  c2.6,0.2,4.1,2,5.8,3.6c-0.1,1.4-0.3,2.8-0.4,4c-1.4,1.9-2.7,3.6-4.1,5.6c-1.2,0.3-2.7,0.7-4.5,1.1L278.3,374.2z M13.7,383.4  c1.8-2.8,3.5-5.3,5.4-8.3c2.2-0.4,4.9-0.8,7.6-1.3l3.6,1.7c1,2.4,0.2,4.1-1,5.8C22.6,385.8,18.1,386.5,13.7,383.4L13.7,383.4z   M321.2,371.2c-2-1.7-3.1-3.6-3.6-5.7c0.3-2.6,0.6-4.8,0.9-7.2c0.9,0,2.1-0.1,3.5-0.1c0.4-1.1,0.8-2.1,1.2-3.1  c0.4-0.1,0.8-0.1,1.2-0.2c-0.1,0.8-0.1,1.5-0.2,2.4c2.5,0.2,4.3,1.2,5.4,3.3c0.6,2.8-0.1,5.4-2.5,8.6  C325.6,369.6,323.3,370.4,321.2,371.2L321.2,371.2z M423.5,306.6c2.3-1.9,4.6-1.3,7.3-1c0.9,1.2,2,2.5,3.1,4  c-0.3,2.1-0.6,4.2-0.9,6.5c-2.3,0.9-4.7,1.8-6.8,2.7C420.9,314.6,420.4,312.3,423.5,306.6L423.5,306.6z M590.4,519.1  c1.2,0.4,2.1,0.8,3.4,1.2c0.9,3.1,2.2,6.3,2.8,9.6c0.4,2.2,0.6,4.7-1.8,6.6c-0.7,0.1-1.6,0.1-2.3,0.2c-3.2-1.6-4.7-4.2-4.6-7.5  C588,525.8,586.3,521.9,590.4,519.1L590.4,519.1z M207.6,393.7c-2.7,0.5-4.7-0.2-6.7-1.9c0.1-1.5,0.3-3.1,0.4-4.7  c3.1-4.1,7.1-4.9,12-4.2c0.5,0.9,1.1,2,1.6,2.9C213.6,389.8,210.5,391.6,207.6,393.7L207.6,393.7z M602.8,501.3  c-1.4,0.5-3,1-4.4,1.5c-4-4.5-4.1-7.9-0.6-13.4c0.9-0.1,1.9-0.3,2.5-0.4C604.3,489.6,605.5,495.7,602.8,501.3L602.8,501.3z   M518.9,320.9c0.5,2.4,0.2,4.9-1.1,7.5c-1.4,0.8-3.1,1.8-4.7,2.7c-2.8-1.6-3.1-4.2-3.9-6.8c0.2-0.7,0.4-1.8,0.7-3  c-0.5-0.9-1-1.9-1.9-3.8c1.7,0.6,2.6,0.9,4.2,1.4C514,318.6,516.6,318.7,518.9,320.9L518.9,320.9z M453.9,278.8  c0.1,1.7,0.1,2.6,0.1,3.6c-1.2,0.4-2.3,0.7-3.8,1.2c1.3,1.3,2.2,2.2,3.1,3.2c0.4,2.5-1.1,3.8-3.4,4.9c-2.8-1.9-7.2-1.8-8.3-6.4  c1.8-2.8,3.5-5.6,7.6-4.2C450.6,280.5,451.9,279.8,453.9,278.8L453.9,278.8z M277.2,315.4c-0.7,1.9-1.2,3.3-1.7,4.7  c-3,2-5.8,3.9-9.8,1.7c-0.3-1.4-0.6-3-1-4.8c1.6-1.8,3.1-3.5,4.7-5.3L277.2,315.4L277.2,315.4z M454.9,368.3c1.3,0.4,3.1,1,5.2,1.7  c-0.2,2.6-0.3,4.9-0.4,7.2c-2.4,1.4-4.1,3.8-7.4,3.6c-1.9-2.3-1.7-5.2-1.6-7.8C450.7,371,452.2,369.4,454.9,368.3L454.9,368.3z   M598.7,391.1c1.5-0.6,2.7-1,3.6-1.4c2.6,0.3,4.2,1.7,5,3.9c0.4,1,0.5,2.1,0.5,3.2c0,2.1-1.1,3.5-2.9,4.3c-1.8,0.7-3.5,0.2-4.6-1.1  c-1.2-1.3-2-3-3.1-4.6C597.6,393.9,598.1,392.6,598.7,391.1L598.7,391.1z M323.6,630.2c1-3.2,1.8-6,2.8-8.8c0.9-2.4,2.6-3.8,5.3-3.4  c2.9,3.4,3.2,6.1,0.7,9c-1.8,2-3.8,3.6-6.4,4.2C325.5,631.4,324.7,630.7,323.6,630.2L323.6,630.2z M234,483.9  c0.3,6.2-2.1,8.5-9.8,9.6c-0.5-1-1-2.2-1.5-3.2C228.6,483,229.7,482.4,234,483.9L234,483.9z M435.7,210.7c1.9-2.5,3.7-4.5,6.9-4.7  c2.1,0.6,4.1,1.4,4.2,4.4l-1.8,3.8C440.1,216.8,437.5,215.9,435.7,210.7z M416.6,450.7c1.1-1.3,2.1-2.3,3.1-3.4c1.1,0,2.1,0,3.2,0  c0.8,0.9,1.6,1.9,2.6,2.9c-0.1,1.2-0.2,2.4-0.2,3.7c-0.9,1.1-1.8,2.1-2.7,3.1c-1.6,0.5-3.2,0.9-5,1.4  C415.4,456,416.4,453.4,416.6,450.7L416.6,450.7z M398.8,451.8c-0.5-0.1-0.9-0.1-1.1-0.2c-0.3-0.1-0.5-0.3-1.1-0.6  c-0.1-2.2-0.3-4.7-0.4-6.9c1.6-2.2,2.9-4.4,5.8-4.3c3.2,2.4,3.7,4.4,1.7,7.3c-0.6,0.9-1.4,1.7-2.2,2.4  C400.6,450.4,399.6,451.1,398.8,451.8L398.8,451.8z M168.8,322.3c1.4-5.4,3.9-6.8,10.4-5.9c0.2,0.7,0.4,1.6,0.5,2.5  c0.1,0.7,0,1.5,0,2.2C174.5,325.7,171.8,326,168.8,322.3z M263,702c0.4-2.9,0.8-5.1,1.1-7.3c0.3-1.9,1.4-3.3,2.8-4.6  c1.3-1.2,2.7-2,4.6-1.5c1.5,3.7,1.3,5.8-1.5,8.2C268,698.6,265.7,700,263,702L263,702z M242.5,713.5c-1.4-5.9-0.2-9.1,4.6-12.4  c2.4,0.9,3.2,3.4,2.4,7.3C247.7,710.6,246,713,242.5,713.5z M482.2,250c1.4-2.7,3.5-1.8,5-2.6c0.6-0.7,1.2-1.6,2.2-2.8  c1.2,0.3,2.9,0.3,4,1.1c1.9,1.4,1.7,3.4,0,5.8c-1.4,0.1-3.2,0.3-5.6,0.6c-0.5,0.3-1.7,0.9-3.3,1.7  C483.6,252.3,482.8,251.1,482.2,250L482.2,250z M250.4,550c0.1-2.1,0.8-3.8,2.4-4.9c2-1.4,3.1-4.3,6.1-4.3c0.6,2.3,1.1,4.4,1.8,7.1  c-0.2,0.2-0.6,1.4-1.2,1.5C256.5,549.8,253.6,551.5,250.4,550L250.4,550z M550,370.3c-1.5,1.5-2.6,2.7-3.9,4  c-1.5-0.6-2.7-1.1-3.7-1.5c-1.8-2.2-1.4-4.3-0.8-6.5c1.6-1.7,3.7-2,6.3-1.7C548.5,366.3,549.2,368.1,550,370.3z M375.3,254.2  c-1-0.9-1.6-1.3-2.2-1.9c-1.2,0.3-2.3,0.9-3.5,0.8c-1.1-0.1-2.2-0.7-3.5-1.2c0.4-1.4,0.7-2.6,1.1-3.9c-0.4-0.5-0.9-1.1-1.5-1.8  c1.4-0.6,2.7-1.1,4.5-1.8c0,1.2,0,2,0,2.9c1.2,0.9,2.3,1.8,3.5,2.8c1.5,0,3-1.6,5-0.1c0,0.6,0,1.5,0.1,2.5  C377.6,253.2,376.5,253.7,375.3,254.2L375.3,254.2z M310.7,445.9c1.7-0.3,3.5-0.6,5-0.9c2.3,2.3,1.7,4.3,0.3,6.2  c-1.9,2.5-4.3,3.1-8.8,2L310.7,445.9z M579.5,321.9c-3.9,1.4-3.9,1.4-6.9-2.5c0.1-1.1,0.2-2.5,0.3-3.7c1.7-2.1,3.7-2.1,7.1-0.1  C581.6,317.9,581.1,319.9,579.5,321.9L579.5,321.9z M187.7,575.3c0.2,1.3,0.4,2.6,0.5,4c-2.8,2.4-4.5,6.4-9.4,5  C179.6,578.5,182.3,575.7,187.7,575.3z M279.5,251.9c0.6-0.5,1.6-1.3,2.8-2.3c1.2,0.7,2.2,1.3,3,1.7c0.1,0.7,0.3,1.1,0.1,1.3  c-2.3,2.3,1.1,5.9-2.2,8.4c-1-0.1-2.5-0.3-3.9-0.5C279.4,257.5,279.4,255,279.5,251.9L279.5,251.9z M467.7,288.9  c-2.1-0.1-4.2-0.2-6.6-0.3c-2.9-2.4,2.7-3.4,1.1-5.9c1.9-1,3.6-1.9,5.3-2.7c2.2,3.1,2.1,6-0.1,8.9H467.7L467.7,288.9z M608.5,416.6  c1.2,1.7,2.1,2.9,2.8,3.9c0.3,2.8,0,4.9-2.7,6.1c-2.3,0-3.5-1.5-4.8-3.6c0.1-1.2,0.2-2.7,0.4-5C605.5,417.6,607,417.1,608.5,416.6  L608.5,416.6z M619.1,255.1c-1.2-2.3-0.7-4.3,1.4-5.7 M381.5,352.6c2.7-2.6,4.7-5,8.2-4.2c2.4,3.9,1.9,5.3-2.9,7.4  c-1-0.5-2.1-1-3.2-1.5C383,353.9,382.5,353.3,381.5,352.6L381.5,352.6z M484.1,326c-1,1-1.8,1.9-2.6,2.7c-1.3,0.4-2.6,0.8-4.1,1.3  c-0.4-1.3-0.8-2.8-1.3-4.4c1.7-1.9,3.3-3.7,4.8-5.3C483.9,321.3,484.3,323.3,484.1,326L484.1,326z M438.1,412.7  c-1.6,0.3-3,0.5-4.3,0.7c-1.9-2.7-0.4-4.6,0.9-6.6c0.9-0.2,1.7-0.5,2.4-0.7c1.6,0.6,1.9,1,2.6,4.2c1,0.6,1.9,1.3,3.2,2.1  c-0.9,0.9-1.6,1.4-2.3,2.1C439.7,413.8,439,413.3,438.1,412.7z M368.4,342l3,1.4c1.5,2.1,0.6,4-3.2,6.5c-1.3-0.3-2.9-0.5-4.6-0.9  C363.6,345.4,365.6,343.6,368.4,342z M304.7,593.6c1.1,3.1-0.7,5.1-1.9,7.1c-0.9,1.6-2.5,2.3-4.4,1.8c-1.5-1.9-0.9-3.9,0.2-5.6  C300,594.9,301.6,593.3,304.7,593.6z M147.1,500c-2.2,0.5-4.2,0.8-6.2,1.2c-0.5-1.5,0.1-2.7,1-3.3c2.4-1.7,4.2-4.6,7.9-4.5  C151.7,496.7,148.7,497.9,147.1,500z M177.9,669.4c-1-4.8,0.3-7.2,4.8-9.6c0.4,0.1,0.8,0.2,1.2,0.4s0.6,0.7,0.9,1  C184.8,665.9,181.4,667.5,177.9,669.4z M209.6,691.2c-0.6,4.4-2.3,7.4-6.8,8.7c-0.8-3.2-0.2-5.7,2-7.9  C206.5,690.3,206.4,690.3,209.6,691.2L209.6,691.2z M498.3,395.2c1.4,2,2.5,3.6,3.7,5.2c-0.5,2.3-1.3,4.2-4.1,5  c-0.7-0.5-1.6-1.2-2.3-1.7C496,399.9,496.9,397.1,498.3,395.2L498.3,395.2z M445.9,157.2c4.2-2.4,5.2-2,6.8,2.5  c-0.6,1.1-1.3,2.5-2.1,4l-4.9-2.3C445.8,160,445.8,158.7,445.9,157.2L445.9,157.2z M233.7,494.3c0.7-3.6,3.4-5.5,5.6-8  c0.9,0.4,1.6,0.6,2.2,0.9C242,492.7,240,494.6,233.7,494.3z M259.6,77.1c-3.7,1.1-6.4,0-8.3-3.1c0.5-2.1,2.2-2.1,3.7-2.2  c2.3-0.1,3.7,0.7,5.7,2.9L259.6,77.1z M414.1,412.9c-4-1.4-3.1-4.2-3.3-6.6c1.3-1.7,2.6-3,5.2-2.3  C416.8,407.2,416.8,410.1,414.1,412.9z M371.1,209.1c-0.8-1.6-1.6-3.1-2.3-4.6c2.7-2,5.3-3.1,8-0.8c0.8,1.9,0,3.2-1.1,4.7  C374.4,208.6,372.9,208.8,371.1,209.1z M370.7,407.5c3,0,3.2,2.6,4.6,4.1c-2.1,3.1-4.7,2.7-7.5,2.3  C366.9,410.7,368.2,408.7,370.7,407.5z M606.6,596.3c1.2,2.4,2.4,4.6,3.4,7c0.5,1.1,0.5,2.4-1.2,3.4c-2.3-1.9-4.1-4.3-5.1-7.1  C603.2,597.9,604.1,596.6,606.6,596.3z M541.4,645.1c2.3,3.7,2.3,6.7,0.1,9.9c-1.4-1.1-2.5-3.1-3.2-6  C539.2,646,539.3,646.1,541.4,645.1z M604,638.4c2.2-3.7,5.6-5.2,9.4-6.7c0.9,0.6,1.8,1.2,3.1,2C612.5,636.4,608.8,638.3,604,638.4  L604,638.4z M192.2,308.3c1.5-4.7,3.4-5.7,7.3-4c0.6,1.7-0.5,2.9-1.3,4.2C196.3,309.9,194.3,310.3,192.2,308.3z M246.8,299.9  c1.4-1,2.6-1.9,4-3c1.3,0.5,2.5,1,4.2,1.6c-0.5,1.7-0.9,3.1-1.3,4.3C250.5,303.8,248.5,303.1,246.8,299.9z M193.8,356.5  c-0.6-1.3-0.9-2-1.3-2.9c1.1-1.3,2.1-2.5,3.1-3.6c2.1-0.7,3.5,0,4.9,1.4l-1.7,3.6C197.3,355.4,195.7,355.9,193.8,356.5L193.8,356.5z   M449.9,467.6c-0.2-2.2-0.4-3.9-0.5-5.7c1.1-0.9,2-1.6,2.9-2.4l2.8,1.3c0,1.5,0,3,0,4.6C453.5,466.1,452,466.7,449.9,467.6  L449.9,467.6z M557.5,84.9c-2.2-2-2.6-3.6-1.4-5.5c1-1.5,2.1-1.7,5.1-0.9c0.1,1.2,0.2,2.5,0.4,4.1C560.2,83.4,558.9,84.2,557.5,84.9  L557.5,84.9z M490.7,150.2c1.4,0.7,2.5,1.4,3.6,1.9c-0.2,2.2-1.2,3.9-3,5.2c-0.8-0.5-1.7-0.9-2.5-1.4  C488.2,153.7,488.9,152.1,490.7,150.2z M315.4,375.5c1.2-2.4,3.1-3.1,5.6-2.3c0.2,1.1,0.3,2.4,0.5,3.9c-1.4,0.6-2.5,1.2-4.1,1.9  C316.6,377.6,315.9,376.5,315.4,375.5L315.4,375.5z M161.1,444.6c1.8-5,2.7-5.5,7-4.4C167.5,444.2,165.3,445.7,161.1,444.6z   M523.5,206.1c-2.5,0.6-4.1,0.6-5-1.8l1.7-3.6c2-0.6,3.3-0.1,4.4,1.9C524.4,203.6,523.9,204.8,523.5,206.1L523.5,206.1z   M464.6,464.4c0.9-1.5,1.6-2.7,2.4-4l3.2,1.5c-0.2,2.9-0.5,5.2-3.8,6.1C465.8,466.8,465.3,465.8,464.6,464.4L464.6,464.4z   M577.9,723c-3-5.5-2.8-6.9,0.8-8.2c1.6,1.3,1.9,3,1.7,4.9C580.2,721,580.2,721,577.9,723L577.9,723z M553.2,362.6  c-0.7-1.1-1.4-2.2-2.3-3.6c1-1.1,1.9-2.2,3.2-3.7c1.3,1.2,2.2,2.1,3.2,3C556.5,360.4,556.2,362.3,553.2,362.6z M279.8,414  c-0.8-2.2,0.8-3.6,1.9-4.5c1.5-1.2,2.9-3,5.4-2.9c-0.9,1.7-1.7,3.1-2.4,4.5C283.8,413.1,282.4,414.3,279.8,414L279.8,414z   M445.4,546.6c1.4-2.1,1.3-4.6,4.3-4.9c0.5,1,1,2,1.6,3.2c-0.8,1.4-1.6,2.6-2.6,4.3C447.4,548.2,446.5,547.5,445.4,546.6  L445.4,546.6z M620.8,472.9c-2-0.2-2.7-1.8-3.4-3.4c0.5-1.6,0.9-3.4,3.1-3.5 M252.3,693.2c0.6-3.4,0.6-7.1,4.6-8.8  C258.3,688.1,257.5,689.5,252.3,693.2z M523.2,155.3c0.8,0.6,1.5,1,2.1,1.4c0,1.2,0.1,2.2,0.1,3.2c-1.4,1.8-2.5,1.6-5.5-0.6  C519.3,156.8,521.1,156.2,523.2,155.3z M446.2,356.9c1.6-1.1,3-2.1,4.5-3.1c1.3,0.3,2.4,0.9,3.2,1.9c-0.3,2-1.9,2.6-3.5,3.2  L446.2,356.9z M428,432.5c2.5,3.6,2.1,4.7-2.6,6.7c-0.3-1-0.8-2-0.7-2.8C425,434.6,425.7,432.9,428,432.5z M500.3,639.7  c-0.4-2.3-0.7-3.5-0.9-5c0.9-1.6,1.7-3.2,2.9-5.3c0.6,1.2,1.3,1.9,1.3,2.6C503.8,634.8,502.7,637,500.3,639.7z M473.4,427.4  c0.3-0.8,0.6-1.6,1.1-3.1c1-0.3,2.4-0.8,3.9-1.2c0.4,0.9,0.6,1.3,0.7,1.8c0.1,0.9,0,1.8,0,2.8c-1.1,0.7-2.1,1.3-3.2,2  C474.9,428.9,474.2,428.2,473.4,427.4z M429.4,637.1c-0.8-4.5,0.1-6.7,3.4-8.4C434.5,632.6,432.2,634.7,429.4,637.1z M537.4,576.5  c2.1,0.7,2.4,2.4,2.5,3.8c0.1,0.9-0.5,1.9-0.8,2.6c-2.4,0.5-3.2-0.7-3.6-2.3C535,578.8,535.5,577.4,537.4,576.5L537.4,576.5z   M481.7,520.3c0.7-0.3,1.5-0.7,2.6-1.1c0.5,0.6,1.1,1.2,1.3,1.8c0.6,1.9,0.5,3.6-1.5,4.6C482.1,524.7,481.3,522.9,481.7,520.3  L481.7,520.3z M312.9,511.5c-0.4-4,0-4.7,3.5-6.3c0.5,1,1.1,2,1.5,2.8C316.7,509.9,315,511,312.9,511.5z M440.8,224.6  c-0.3-1.5-0.5-2.8-0.8-4.3c1.5-0.6,2.8-1,4.2-1.5c0.6,1.4,1,2.5,1.4,3.4C444.7,224.2,443.4,224.9,440.8,224.6L440.8,224.6z   M438.2,331c-1.2-0.2-1.9-0.3-3.1-0.5c0.2-1.8,0.4-3.3,0.5-5.1c1.5-0.1,2.6-0.2,3.7-0.3C440.8,327.5,439.2,328.9,438.2,331  L438.2,331z M618.2,308.4c3.5,0.4,3.8,2.4,3.6,4.8c-0.6,0.4-1.1,0.9-2,1.5c-1-0.7-1.9-1.3-3.1-2.1  C617.3,311.1,617.7,309.9,618.2,308.4z M525.2,68.6l3.4,1.6c0,1.1,0,2.3,0,3.8c-1.2,0.2-2.2,0.4-2.9,0.5  C524,73.6,523.9,71.9,525.2,68.6L525.2,68.6z M425.5,413.5c0.5,0.3,0.9,0.6,1.6,1.1c-0.5,1.3-1.1,2.6-1.7,4.2  c-1.4,0.1-2.7,0.1-4.3,0.2C421.5,415.7,423.2,414.4,425.5,413.5z M498.7,347.3c-1-1-1.7-1.7-2.3-2.3c0.6-2.1,1.8-3.4,3.6-4  C501.1,343.2,500.7,345.3,498.7,347.3z M485.9,291.1l-1.3,2.8c-0.8,0.4-1.9,0.9-3,1.4c-1.6-2.7-0.8-4.7,1.5-6.8  C484,289.3,484.9,290.1,485.9,291.1L485.9,291.1z M485.5,309.6c-1.5,1.1-2.6,1.9-3.6,2.7c-0.6-1.1-1.4-2.3-2.3-3.8  c1.4-0.8,2.8-1.6,4.8-2.7C484.9,307.4,485.2,308.6,485.5,309.6z M370.1,279.8c0.1,1.1,0.2,2,0.3,3c-0.8,0.6-1.6,1.3-2.3,1.8  c-2-0.3-3-1.2-2.9-3.2C366.1,279.6,367.6,279.1,370.1,279.8z M391.1,463.5c1.1-0.5,2.3-1.1,3.6-1.7c1.6,3.6-0.7,5-2.9,6.9  C390.9,467.1,391.1,465.4,391.1,463.5L391.1,463.5z M497,378.6l-2,4.3c-1.2-0.4-2.3-0.8-3.7-1.2c0.6-1.6,1-2.9,1.3-3.8  C494.6,376.7,495.6,377.5,497,378.6z M592.6,335.9c-0.8-1-1.7-1.9-2.3-2.6c0.6-2.7,2.1-3.4,4.4-3.2  C595.8,332.4,595.5,334.3,592.6,335.9z M246.6,395.5c-1.4,1.1-2.5,2.9-5.1,1.8c-0.1-2.7,1.2-4.2,3.3-5.3  C246.6,392.6,246.6,393.9,246.6,395.5z M185,444c-1,2.5-2.9,3.8-5.8,3.9C180.3,443.6,180.7,443.3,185,444z M496,428.7  c-0.6-2.4-1.1-4.4-1.6-6.4c1.5,0.4,3,0.9,4.4,1.3C499.1,425.9,498.2,427.6,496,428.7L496,428.7z M487.4,427.5  c0.1,1.5,0.1,2.8,0.2,4.3c-1.1,0.5-2.1,1-3.1,1.5C482.8,428.9,483.4,427.6,487.4,427.5z M448.4,276.4c-1.6-1-2.4-2.4-2.6-4.1  c1.4-1.3,3-1.4,4.7-0.4L448.4,276.4z M600.3,197.6c-2.1-0.1-2.8-1.1-3.1-2.8c0.8-1.7,2-2.7,4.3-2.1  C602.6,194.6,601.7,196.1,600.3,197.6z M418.1,488.3c0.5,1.9,0.2,3.7-0.8,5.6c-1-0.3-2.1-0.7-3.3-1.1c0.4-1.2,0.6-2.1,1-3.1  C415.9,489.3,416.8,488.9,418.1,488.3z M359.5,404.4c-0.4-0.6-0.8-1.2-1.2-1.7c0.5-2.3,2.1-3,3.5-3.6c1.6,0.6,1.8,1.5,1.4,2.7  C362.8,403.7,361.5,404.6,359.5,404.4L359.5,404.4z M569.9,331.4c-0.9-0.1-1.9-0.3-2.8-0.4c-0.4-2.4,0.4-4,2.6-4.8  C570.9,327.8,571.4,329.4,569.9,331.4L569.9,331.4z M400,200.3c-0.4,0.9-0.5,1.6-0.9,2.2c-0.3,0.5-0.9,0.7-1.3,1  c-2.1,0-2.8-1.2-3.1-3.3c0.5-0.4,1.1-1,1.9-1.6L400,200.3L400,200.3z M580,745.3c-0.7-1.8-1.2-3-1.8-4.5l1.7-3.6  c0.4,0.5,0.9,0.8,1,1.2C581.5,740.5,583,742.8,580,745.3L580,745.3z M576.8,349.2c1.7-0.2,2.9-0.3,3.8-0.4c1.4,1.7,1,2.9-1.5,5.1  c-0.5-0.2-1.1-0.4-1.8-0.6C577.1,352.1,577,351,576.8,349.2z M393,482.7c-1.4,1.3-2.3,2.2-3.5,3.3c-0.7-0.9-1.3-1.6-1.7-2.2  c0.4-1.9,0.9-3.5,3.3-3.9C391.6,480.7,392.1,481.5,393,482.7L393,482.7z M618.2,442.8c-1.3-0.7-2.2-1.2-3-1.6  c-0.5-2.4,0.3-3.6,2.2-4.4C619.2,438.5,619.4,440.3,618.2,442.8L618.2,442.8z M369.9,292.6c-1.8,1.1-3.4,2-5.1,3  c-1.9-1.5-1.3-2.7-0.1-4C366.4,291.5,368.2,290.8,369.9,292.6z M443.4,347.7c-0.6-0.6-1.1-0.9-1.5-1.3c2.3-3.4,3.8-3.8,6.5-1.7  C446.8,345.6,445.3,346.5,443.4,347.7z M367.1,166.5c-1.5-0.2-2.8-0.4-4.5-0.6c0.6-1.5,1.1-2.6,1.5-3.5  C366.3,162.5,367.3,163.9,367.1,166.5L367.1,166.5z M437.4,469c-1.3,1-2.6,1.5-4.5,0.3c0.4-1.1,0.8-2.4,1.2-3.5  C436.5,466.1,437.6,467.2,437.4,469z M503,594.2c0.5,1.9,0.9,3,1.2,4.3c-0.9,1-1.8,1.8-2.7,2.7c-0.5-0.5-1-0.7-1-1.1  C499.9,597.9,500.9,596.3,503,594.2z M532.3,441.6c0.9-0.8,1.4-1.3,2.3-2.1c0.8,0.8,1.8,1.3,2,2.1c0.4,1.6-0.4,2.9-2.4,3.7  C533.7,444.1,533.1,443,532.3,441.6z M226,168.9c2.1-0.6,3.6-1,5.3-1.5c0.5,0.9,1,1.8,1.4,2.6C231.9,171.7,229.4,171.4,226,168.9z   M256.7,417.7c1.2-1.3,2.1-2.2,3.4-3.5c1,1.2,1.6,2,2.2,2.8C260.8,419.5,259.2,419.5,256.7,417.7L256.7,417.7z M389.4,473.2  c0.4,2.7-0.7,4.7-3.1,5.9c-0.3-1.6-0.5-3,0.5-4.2C387.3,474.3,388.2,473.9,389.4,473.2L389.4,473.2z M453.6,346.8  c-1-2-1.6-3-2.1-4.1c0.5-0.9,1-1.6,1.5-2.6c0.9,0.4,1.7,0.7,2.9,1.1C455.2,342.9,454.6,344.3,453.6,346.8L453.6,346.8z M259.7,370.1  c-0.2-1-0.3-1.7-0.5-2.5c0.8-0.6,1.5-1.2,2.3-1.9l2.3,1.1C264.3,368.7,263.1,369.7,259.7,370.1L259.7,370.1z M263.3,401.7  c0.2,1,0.3,1.7,0.5,2.4c-1.3,1.4-2.5,2.9-4.7,1.3C259.2,403,260.5,401.8,263.3,401.7L263.3,401.7z M424.6,483.2  c-1.5-3.7,1.9-4.3,3.6-7.1c0.3,1.8,0.7,2.8,0.4,3.3C427.5,480.8,426.6,482.4,424.6,483.2z M340.2,689.5c-1.1,1-2,2-3.5,3.4  c-0.4-3-0.7-5.1,2.3-6.5C339.5,687.5,339.8,688.5,340.2,689.5L340.2,689.5z M487.2,167c-1.6,1.1-2.8,1.2-4.1-0.3  c0.1-0.6,0.3-1.5,0.5-2.5c1-0.2,1.8-0.3,3-0.5C486.8,165,487,166.1,487.2,167L487.2,167z M619.6,212.5c0.1-1.2,0.2-2,0.3-3.1   M326,264.5c1.4-0.9,3-1,4.7-0.1c-0.6,1.1-1.2,2.2-1.7,3.2C326.5,267.4,326,266.2,326,264.5z M584.7,340.3c-0.8-1.2-1.6-2.4-2.5-3.8  c0.8-0.8,1.4-1.4,2.1-2.2c2.1,1.7,1.2,3.7,1.6,5.5L584.7,340.3L584.7,340.3z M293,243.8c1.2-0.9,2-1.5,2.8-2.2  c0.9,0.5,1.7,0.9,2.6,1.5c-0.6,1-1,1.7-1.5,2.7L293,243.8L293,243.8z M622.9,290c-0.6-0.2-1.4-0.4-2.5-0.8l2-4.2 M409.9,325.8  c-0.2-1-0.4-1.8-0.5-2.5c1.3-1.5,2.3-2.7,4.1-1.9C413.6,323.1,412.5,324.5,409.9,325.8z M439.6,384.1c0.4,1.2,0.6,2.1,1,3.2  c-1.1,0.6-2.2,1.1-3.5,1.8c-0.2-1.4-0.3-2.5-0.5-4.3C437.4,384.6,438.4,384.4,439.6,384.1z M497.8,539.2c-1.6,2-3.4,2.7-6.3,1.4  C493.4,538.4,495.5,538.6,497.8,539.2z M494.3,509.3c-1-2.5-0.8-4.4,0.6-5.6C496.5,505.6,496.2,507.2,494.3,509.3z M306.2,416.6  c1.4-3.6,1.5-3.6,4.1-2.4C309.9,416.1,308.5,417,306.2,416.6z M395.5,438.6c-0.2-1.2-0.3-2.1-0.5-3.3c1-0.5,1.9-1,2.7-1.4  c0.4,0.4,0.7,0.6,0.7,0.8C398.7,436.7,398.2,438.2,395.5,438.6L395.5,438.6z M388.8,401.7c-0.1,0.7-0.1,1-0.2,1.2  c-0.2,0.4-0.5,0.8-0.9,1.4c-1.2-0.5-2.3-1-3.4-1.4C384.3,401.1,385.7,400.7,388.8,401.7z M239.3,187.9c2.2-0.9,3.6-0.5,4.4,1.3  C241.8,190.2,240.4,189.8,239.3,187.9z M427.4,258.4c-2.7,1-5,3-8.2,3c1.6-2.8,3.2-3.3,8.2-2.8V258.4z M491.9,361.7  c0.4-2,1.4-3.4,2.9-4.3c0.2,1.2,0.4,2.3,0.6,3.8C494.1,361.4,493,361.5,491.9,361.7z M370,714.4c-1.5-2.6-0.6-4,0.8-5.6  C371.9,710.5,371.6,712.3,370,714.4z M167,597.6c-0.4,2.9-0.6,3.2-4,3.9C163.1,599.1,164.5,598.1,167,597.6z M152.7,370.9  c-0.4,1.3-0.8,2.4-1.3,3.9c-1.5-0.6-2.7-1-4.6-1.8C149.2,372.2,150.2,370.4,152.7,370.9L152.7,370.9z M450.9,307.1  c-0.4-1.9-0.1-3.6,0.8-5c0.7,0.6,1.4,1.2,2.4,2.1C453,305.3,452.2,306,450.9,307.1L450.9,307.1z M475.7,285.8  c0.5,1.6,0.8,2.6,1.2,3.9c-1.3,0.5-2.2,0.9-3.2,1.2C472.7,288.8,473.1,287.5,475.7,285.8L475.7,285.8z M463.7,620  c-2.6-2.7-2.6-2.8,0-5.3C465.2,616.7,463.6,618.3,463.7,620z M302.9,233.4c-1.9,3.1-2.1,3.2-4.8,0.6  C299.5,233,300.8,232.2,302.9,233.4z M515.5,527.6c1.3,2,1,3.7-0.9,5.2C513.1,530.7,514.5,529.3,515.5,527.6z M454.2,549.1  c-1.7-3.1-1.7-3.2,1.2-5.4C456.7,545.9,455.1,547.1,454.2,549.1z M445.3,444.4c1.2-0.3,1.8-0.4,2.1-0.5c1.8,1,1.4,2.3-1.4,4.1  C445.7,446.8,445.5,445.8,445.3,444.4z M455.3,417.3c2.2,0.2,2.4,1.8,3.4,2.9c-0.7,0.8-1.3,1.4-2.5,2.7  C455.9,420.6,455.6,419.1,455.3,417.3L455.3,417.3z M321.6,571.4c-0.1-2.3,0.9-3.8,3-4.6C324.4,569,324,570.7,321.6,571.4z   M431,156.7c-1-2.5-0.3-3.6,2-4c0.4,0.7,0.8,1.5,1.2,2.5C433.1,155.8,432.2,156.2,431,156.7z M429.3,345c0,1,0.1,1.8,0.1,2.7  c-1.8,0.2-3.5,0.4-5.1,0.6c-0.1-0.3-0.2-0.5-0.3-0.8C425.7,346.8,427.3,346,429.3,345z M567.5,555.2c-0.7-1.5-1-3.1-1-4.7  c0.5,0,1-0.1,1.7-0.2C568.8,552,569.2,553.5,567.5,555.2L567.5,555.2z M440.3,474l-1.9,4c-0.6-0.2-1.1-0.4-1.8-0.6  C436.8,475.5,437.2,474,440.3,474z M508.2,433.4c1.1-0.5,1.8-0.8,2.3-1c0.5,0.3,0.8,0.4,0.9,0.7c0.8,1.7,0.4,2.9-1.8,3.5  C509.2,435.7,508.8,434.8,508.2,433.4L508.2,433.4z M535.9,508.2c-1.8-1.7-2.2-3.4-1-5.2C536.8,504.2,536,505.9,535.9,508.2z   M539.5,316.1c1,0.1,2.1,0.1,3.8,0.2c-0.9,1.5-1.4,2.4-2.2,4c-0.9-1.4-1.5-2.2-2.1-3.1C539.1,316.8,539.3,316.4,539.5,316.1z   M425.9,241.4c0,1,0.1,2,0.1,3.6l-3.7-1.8c1-0.9,1.7-1.6,2.4-2.3C425.1,241,425.5,241.2,425.9,241.4L425.9,241.4z M371.8,381.9  c-1.1,0.6-1.9,1.1-2.9,1.8c-0.6-0.7-1-1.3-1.7-2.1c0.9-0.7,1.7-1.2,2.7-2C370.5,380.4,371.1,381,371.8,381.9L371.8,381.9z   M612.8,458.2c-3.1-1.4-3.1-2-0.6-4.6C613.6,454.9,613.1,456.4,612.8,458.2z M483.4,260.3c2-1.6,3.2-0.9,4.4,1.3  c-1.2,0.5-2.2,0.9-3.5,1.5C483.9,261.8,483.7,261.1,483.4,260.3L483.4,260.3z M398.7,341.7c0.2-2,0.9-3.4,3.3-3.5  C401.8,340.5,400.7,341.7,398.7,341.7z M514,76.1c0.9-0.9,1.5-1.5,2.3-2.4c1,1.2,2.2,2,0.9,4L514,76.1z M364.7,236.4  c-2.1-0.2-3.2-0.3-5.3-0.5c1.6-1.5,2.4-2.2,3.5-3.2C363.4,233.9,363.7,234.6,364.7,236.4L364.7,236.4z M390.2,529  c0.7,2.3,0.1,3.7-1.2,5C388.2,532.1,388.6,530.4,390.2,529z M478.4,350.9c-0.3-2.1,0.2-3.3,1.6-4.2  C481.1,348.5,480.6,349.9,478.4,350.9z M441.9,507.9c-1.1-1.9-0.8-3.2,0.5-4.3C444.5,505.5,444.5,505.7,441.9,507.9z M619.5,371.1  c0.3,2.1,0.8,3.6-1.5,4.5c-0.5-1.1-0.9-2.1-1.5-3.4C617.6,371.9,618.4,371.6,619.5,371.1z M500.1,318.9c0.8,0.6,1.2,0.8,2,1.3  c-1.1,1.1-2,2.1-3.1,3.2c-0.3-0.7-0.5-1-0.5-1.2C498.9,321.2,499.5,320.3,500.1,318.9z M451.3,311.7c-0.1,1.7-0.1,2.2-0.2,3  c-1.1,0-2.1,0-3.1,0c0-0.7-0.1-1.4,0.1-1.5C448.8,312.8,449.8,312.4,451.3,311.7z M407.9,5.6c0.4-2.6,1.8-3.7,4-4.7  C411.6,3.7,409.8,4.4,407.9,5.6z M499.1,266.7c0.9,2.2,0.2,2.9-1.5,3.2c-0.3-0.7-0.7-1.4-1.2-2.5  C497.4,267.2,498.2,266.9,499.1,266.7L499.1,266.7z M599.4,421.1c0.5,0.6,1,1.2,1.4,1.7l-1.3,2.7c-0.6-0.4-1.1-0.5-1.2-0.8  C597.4,423.2,598.1,422.1,599.4,421.1L599.4,421.1z M441.6,153.3c-1.2,1.7-1.9,2.7-3.2,4.4c-0.6-2.2-0.8-3.5,0.2-5  C439.2,152.9,439.9,153,441.6,153.3L441.6,153.3z M596.8,576.6c0.6,2.2,1,3.4,1.3,4.8C594.9,580.7,594.8,580.4,596.8,576.6z   M505,390c-0.8-1.9-1.2-2.8-1.6-3.6c1.2-1.3,2.1-1.2,3.3,0.1L505,390z M480.9,383.9c-0.7-0.6-1.4-1.3-2.5-2.4  c1.4-0.3,2.5-0.5,3.6-0.8C483.1,382.3,483,383.2,480.9,383.9L480.9,383.9z M394.2,385.5c0.4,1.9-0.6,2.7-2.2,3.4  C391.6,387,392.3,385.9,394.2,385.5z M279.5,324.5c-0.4,1.9-1.6,2.5-3.6,1.9C276.6,324.7,277.9,324.5,279.5,324.5z M604.3,269.5  c0.2,0.7,0.4,1.4,0.7,2.3c-1,0.5-1.8,1-2.8,1.5c-0.2-0.7-0.4-1.1-0.4-1.5C601.9,270.4,602.7,269.7,604.3,269.5L604.3,269.5z   M582,518.2c1,1.7,0.6,2.9-1.2,4.3c-0.3-1.4-0.4-2.5-0.7-3.6C580.9,518.7,581.4,518.4,582,518.2L582,518.2z M410.8,392.9  c0.6,0.8,0.8,1.2,1.2,1.8c-0.7,0.6-1.3,1.2-2.2,2c-0.5-0.9-0.9-1.6-1.5-2.5C409.2,393.7,409.8,393.4,410.8,392.9z M349.7,352  c-0.3,0.9-0.7,1.6-1.1,2.6c-0.8-0.2-1.4-0.4-2.1-0.6C347.2,352.6,348.2,351.9,349.7,352L349.7,352z M519.8,425.8  c1.4-1.3,2.7-1.6,4.2-0.2C522.9,426.8,521.5,426.9,519.8,425.8z M382.5,361.9c1.2-1.7,1.8-2.5,2.8-3.7c0.6,1.3,1,2.1,1.6,3.3  C385.5,361.6,384.5,361.7,382.5,361.9L382.5,361.9z M590.4,559.2c2.2,0.9,1.1,2.6,1.5,4.3C590.2,562.3,589.7,560.9,590.4,559.2z   M522.7,324.3c-2.1-1.6-1.4-2.7-0.4-4l1.9,0.9L522.7,324.3z M377.4,422.3c-0.9-0.4-1.3-0.5-1.9-0.7c0-1.9,0.7-2.8,2.7-2.6  c0.1,0.4,0.3,0.7,0.3,1C378.2,420.6,377.9,421.3,377.4,422.3L377.4,422.3z M535,483c1,2.2,0.6,3.4-1.2,4.3  C532.7,485.6,533.2,484.4,535,483z M284.3,577.2c0.2,2.5-0.6,3.6-1.9,4.6C282.2,580.4,282.9,578.9,284.3,577.2z M388,491.4l3.2,1.5  l-0.8,1.7c-0.9-0.4-1.7-0.7-2.6-1.1C387.8,492.9,387.8,492.4,388,491.4z M500.9,579.4c0.9-0.4,1.3-0.6,1.9-0.8  c1.2,1.6,0.5,2.8-0.7,4.4C501.6,581.7,501.3,580.7,500.9,579.4L500.9,579.4z M620.3,220.2c-0.4-1.2-0.6-1.9-1.1-3.4l0,0 M74.3,378.4  c1.6-1.4,2.7-1.8,4-0.1C77.2,379.8,76.1,379.6,74.3,378.4z M422.5,400.7c0.5,2.1,0.4,3.4-1.9,3.4  C419.7,402.2,420.3,401.2,422.5,400.7z M305.1,316.3c0.7-0.7,1.5-1.4,2.6-2.5c0.3,1.1,0.7,1.9,0.5,2c-0.7,0.6-1.5,1.1-2.3,1.5  C305.6,316.9,305.4,316.6,305.1,316.3z M459.5,344.4l-1.5,3.1c-0.7-1.1-1.1-1.8-1.6-2.7c1-0.4,1.7-0.8,2.4-1.1  C459.1,344,459.3,344.2,459.5,344.4z M473.6,366.3c1.6-0.3,2.4-0.5,3.7-0.8l-1.7,3.6C474.9,368.2,474.5,367.6,473.6,366.3z   M621.5,430.8c-3.5-0.7-3.6-0.9-2.2-3.7C620,428.2,620.6,429.1,621.5,430.8z M343.9,561.9c0.2-0.8,0.4-1.6,0.7-2.6  c0.8,0.2,1.3,0.3,2.4,0.6c-0.9,1.2-1.5,2-2.1,2.8L343.9,561.9z M455.2,298.5l1.1-2.2c0.7,0.5,1.2,1,1.8,1.3c0.5,0.3,1.1,0.5,1.6,1.4  C458.2,298.8,456.9,298.6,455.2,298.5L455.2,298.5z M434.6,269.3c0.3-1.5,0.4-2.3,0.6-3.4c0.9,0.3,1.6,0.5,2.1,0.6  C437.7,268.4,436.7,268.9,434.6,269.3L434.6,269.3z M30.8,510.3c0.7-2.6,1.3-4.1,4.6-3.6C33.6,508.1,32.5,508.9,30.8,510.3z   M395,655.8c1.6,2.3,0.8,3.4-0.7,4.3C393.3,658.6,393.9,657.5,395,655.8z M543.7,180.9l2.1,1c-0.2,1.6-0.8,2.2-2.5,1.6  C543.4,182.7,543.5,182,543.7,180.9z M479.2,566.5c-0.2,1-0.4,2-0.7,3.4C476.7,568.2,476.6,567.1,479.2,566.5z M424.9,300.6  c-0.6,1-0.9,1.5-1.2,2.2l-2.1-1c0.3-0.6,0.5-1.1,0.8-1.9C423.1,300.1,423.7,300.3,424.9,300.6z M420,366.9c-0.3,0.9-0.4,1.6-0.8,2.3  c-0.3,0.5-0.8,0.8-1.3,1.3C417.7,368.9,418.4,367.7,420,366.9z M273.7,189.3c1.6-0.8,2.6-0.9,3.4,0.7  C275.8,191.4,274.8,191.3,273.7,189.3z M478.4,414.6c-1.3,0-1.8-0.1-2.8-0.1c0.4-1.2,0.7-2,1.4-3.9  C477.6,412.4,477.9,413.2,478.4,414.6z M279.6,661.1c0.9-1.5,1.5-2.6,2.2-3.6C282.4,659.4,281.9,660.5,279.6,661.1z M408.6,471  l-2.1,4.5c-0.4-1.8-0.6-2.6-0.8-3.7C406.5,471.6,407.2,471.4,408.6,471L408.6,471z M256.6,640.1c1-1.6,1.6-2.7,2.7-4.5  C259.2,637.8,258.3,639.4,256.6,640.1z M316.1,588.1c0.8,1.8-0.1,2.8-1.5,3.7C314.4,590.2,314.9,588.9,316.1,588.1z M614.9,427.2  c-0.6-1.1-0.9-1.7-1.3-2.5c0.6-0.5,1.1-0.9,1.6-1.2C616.5,424.7,616.3,425.7,614.9,427.2z M443.9,613.3c0.7,0,1.1-0.1,2.1-0.1  c-0.4,1.3-0.7,2.3-1.1,3.6C443.2,615.5,443.9,614.4,443.9,613.3L443.9,613.3z M480.2,534.2c0.3,1.4-0.1,2.5-1.7,3.6  c-0.5-1.7,0.1-2.9,1-3.8c0.1-0.1,0.3-0.2,0.4-0.1C480,534,480.1,534.1,480.2,534.2L480.2,534.2z M324.6,352.5  c-0.8,0.4-1.6,0.7-2.7,1.3c0-1.1-0.1-1.7-0.1-2.8c1.1,0.2,1.9,0.3,2.8,0.5C324.7,351.8,324.7,352.2,324.6,352.5L324.6,352.5z   M560.4,571.2c-1.5,2.5-3,2.8-5.2,2.8C556.4,572.2,558,571.9,560.4,571.2z M209.5,363.1l-2.4-1.1c1.2-0.7,2-1.2,3.5-2.2  C210.1,361.2,209.9,361.9,209.5,363.1z M541.7,446.6c-1.4-0.5-1.8-0.7-2.5-0.9c0.3-0.7,0.5-1.5,1-3.1  C540.9,444.3,541.2,445.1,541.7,446.6L541.7,446.6z M415.5,327.7c0.8-0.5,1.5-1,2.4-1.6c0.7,1.9-0.1,2.6-1.6,3.2  C416,328.8,415.8,328.3,415.5,327.7z M344.8,335.8c1.6-0.7,2.4-1.1,3.6-1.6C348.3,336.6,347.7,337.3,344.8,335.8z M604.9,411.4  c0.5,1.6,0.7,2.4,1.1,3.7c-1.1-0.4-1.6-0.5-2.5-0.8L604.9,411.4z M71.6,379.5c-0.9,0.5-1.9,0.9-2.8,1.4c-0.1-0.2-0.3-0.5-0.4-0.7  c0.9-0.6,1.7-1.2,2.5-1.8C71.1,378.8,71.4,379.2,71.6,379.5z M616.3,195.7c0.7-0.1,1.4-0.2,2.4-0.3c-0.1,0.9-0.2,1.4-0.4,2.4  l-2.3-1.1C616.1,196.4,616.2,196,616.3,195.7z M491.3,310.6c0.3,0.8,0.7,1.5,1.2,2.6C489.8,313.5,489.7,312.5,491.3,310.6z   M206.4,458.2c0.3,2.1-0.7,2.5-1.9,2.7C203.4,460.1,203.9,459.5,206.4,458.2z M412.7,475.2c0.3-0.9,0.6-1.8,1.1-2.9  C414.4,473.4,414,474.3,412.7,475.2z M381.2,322.2c-0.7-0.6-1.2-0.9-2-1.6c1.3-0.5,2.1-0.8,3.9-1.5  C382.1,320.6,381.7,321.3,381.2,322.2L381.2,322.2z M617.3,280.5c1.7,0.2,2.3,0.3,3.4,0.4l-1.4,2.9  C618.6,282.7,618.2,282,617.3,280.5z M437.6,298.5c0.1,1.1,0.1,1.7,0.2,3c-0.5,0.2-1.1,0.4-2,0.8c-0.2-1.2-0.5-1.9-0.3-2.1  C436,299.6,436.7,299.2,437.6,298.5L437.6,298.5z M458.3,364.1c-1-0.2-2-0.4-3.4-0.7c1.7-2.1,2.7-1.3,3.7-0.7  C458.5,363.2,458.3,363.7,458.3,364.1L458.3,364.1z M494.7,322.2c-0.2-0.5-0.3-1.1-0.5-1.8c0.7-0.6,1.3-1.2,2.4-2.2  c-0.4,1.8-0.6,2.9-0.9,4.1C495.4,322.2,495,322.2,494.7,322.2L494.7,322.2z M432.5,457.7c-1-1.2-0.9-2.1,0.6-2.8  C433.7,456,433.5,457,432.5,457.7z M426.7,272.9l2.6,1.2c-1.1,0.7-1.8,1.1-3.2,2.1C426.4,274.7,426.5,274.1,426.7,272.9z   M477.3,462.2c0.8-0.2,1.3-0.3,2.4-0.5c-0.3,1.3-0.6,2.2-1,4.1C478,464.1,477.7,463.3,477.3,462.2z M42.7,575.3  c-0.4,0.5-0.7,1-1.1,1.3c-0.4,0.3-1.1,0.4-1.9,0.6C39.7,575,41.2,575.1,42.7,575.3z M500.9,39.8l3.2,1.5c-2,1.5-2.8,0.3-3.6-0.6  C500.6,40.4,500.7,40.1,500.9,39.8z M196.5,481.9c0.5-1.4,1.6-2.1,3.2-2C198.3,480.7,197.4,481.3,196.5,481.9z M489.2,455.6l-1,2.1  c-0.7-0.5-1.2-0.9-2.1-1.5c1.1-0.6,1.8-0.9,2.5-1.3C488.8,455.1,489,455.3,489.2,455.6z M263.2,304.2c-0.7,0.4-1.4,0.7-2.4,1.3  C261,304.3,261.8,303.9,263.2,304.2z M440.8,110.9c-0.3-0.8-0.5-1.6-0.9-2.9C441.9,108.6,442.4,109.3,440.8,110.9z M543.6,413.7  c-0.3-0.7-0.7-1.5-1.3-2.7C544.5,411.3,544.7,412.1,543.6,413.7z M488.5,413.5c0.4,1.1,0.7,1.9,1.3,3.3l-3.4-1.6  C487.1,414.7,487.6,414.2,488.5,413.5L488.5,413.5z M332.4,457.6c-0.9-1.8-0.4-2.6,1.6-2.6C333.4,456,332.9,456.8,332.4,457.6z   M512.8,412.1c-0.8-2.4-0.2-3.2,1.7-3.6L512.8,412.1z M471.5,363.8c-0.2-1.8-0.2-2.6-0.3-3.6C473.1,360.8,473.3,361.5,471.5,363.8z   M195.5,404.4c-1.6,0.8-2.4,1.2-3.3,1.7C192.4,404.6,193.5,404,195.5,404.4z M498.3,559.3c-0.3,1.5-0.5,2.3-0.7,3.6  C496.9,561.5,497.2,560.3,498.3,559.3z M360.1,423.9c0.5,0.8,0.7,1.1,1.2,1.8c-0.7,0.5-1.4,0.9-2,1.3c-0.2-0.1-0.4-0.3-0.5-0.5  C359.1,425.7,359.5,424.9,360.1,423.9L360.1,423.9z M504.8,343.3c0.4,1.1,0.5,1.7,0.8,2.5c-0.9,0.1-1.5,0.2-3.1,0.4  C503.5,344.9,504,344.3,504.8,343.3z M495.9,256.8c0.7-1.7,1-2.3,1.4-3.5c0.7,1,1.1,1.6,1.6,2.3C498,255.9,497.5,256.1,495.9,256.8z   M448.9,425.5c-1.1-1.9-0.6-2.7,0.9-3.6C450.6,423.5,449.8,424.3,448.9,425.5z M545.7,621.2c0-1.1,0-2.1,0-3.2c0.2,0,0.5,0,0.7,0  c0.2,1.1,0.3,2.1,0.5,3.2C546.5,621.2,546.1,621.2,545.7,621.2L545.7,621.2z M595,484.2c-0.4-1.4-0.7-2.2-0.9-3  c0.7-0.5,0.9-0.7,1.4-1C596.7,481.3,596.7,482.3,595,484.2L595,484.2z M438.3,484.5l-1.3,2.7C436,485.4,436,484.6,438.3,484.5z   M391.1,252.5c-0.6,0.4-1.1,0.7-1.8,1.1c-0.3-0.6-0.5-1-0.9-1.7c0.9-0.1,1.6-0.3,2.4-0.4C390.9,251.9,391,252.2,391.1,252.5  L391.1,252.5z M241.9,691.1c1-0.3,2.1-0.5,3.1-0.8c0.1,0.2,0.1,0.3,0.1,0.5c-0.9,0.5-1.8,1.1-2.8,1.6L241.9,691.1z M324,346.3  c0.3-0.6,0.7-1.2,1-1.8c0.2,0.1,0.5,0.2,0.7,0.3c-0.3,0.7-0.5,1.3-0.8,2C324.7,346.7,324.4,346.5,324,346.3L324,346.3z M434.9,460.9  l0.9-2l0.7,0.3c-0.2,0.7-0.4,1.4-0.6,2.1C435.6,461.1,435.2,461,434.9,460.9L434.9,460.9z M463.1,366.9l0.9-1.9  c0.2,0.1,0.5,0.2,0.7,0.3c-0.2,0.7-0.4,1.4-0.6,2.1C463.8,367.2,463.5,367.1,463.1,366.9z M469.1,187.1c0.2-0.7,0.4-1.4,0.5-2.1  c0.5,0.1,0.6,0.2,1.2,0.3l-1,2.1L469.1,187.1z M398.3,524.8c0.6-1.4,1-2.3,1.5-3.6C400.9,523.1,400.3,523.9,398.3,524.8z   M606.6,528.6c0.1,0.8,0.3,1.7,0.4,2.5c-0.2,0-0.5,0.1-0.7,0.1c-0.2-0.8-0.4-1.6-0.6-2.5C606,528.6,606.3,528.6,606.6,528.6  L606.6,528.6z M426.6,539c0.5-1.3,0.8-2.2,1.2-3.4C428.3,536.9,427.9,538,426.6,539z M495.1,523.3c-0.3,0.7-0.5,1.4-0.7,2  c-0.3-0.1-0.5-0.1-0.8-0.2c0.1-0.7,0.3-1.5,0.4-2.2C494.4,523.1,494.7,523.2,495.1,523.3L495.1,523.3z M298.7,298.8l-2.2-0.6  l0.2-0.9c0.8,0.1,1.5,0.2,2.3,0.3C298.8,298,298.7,298.4,298.7,298.8L298.7,298.8z M496.8,433.6c-0.8-1.5-1.1-2.1-1.5-2.9  c0.8-0.2,1.3-0.3,2.3-0.6C497.4,431.2,497.2,432,496.8,433.6L496.8,433.6z M521.8,412.3l1.4-3C524.2,410.7,524.1,411.4,521.8,412.3z   M129.2,672c0.4-0.6,0.8-1.2,1.1-1.8c0.2,0.1,0.4,0.2,0.7,0.3c-0.3,0.6-0.5,1.3-0.8,1.9C129.9,672.2,129.6,672,129.2,672L129.2,672z   M550.8,300.5c0.1-1.5,0.1-2.1,0.3-2.5c0.1-0.3,0.6-0.4,1.4-0.9c0.1,0.8,0.2,1.4,0.1,1.8C552.5,299.3,552,299.5,550.8,300.5  L550.8,300.5z M413.9,539.8c0.2-0.6,0.5-1.2,0.8-2c1.9,1.7,0.2,1.7,0.3,2.4C414.6,540,414.2,539.9,413.9,539.8z M251.6,411.7  c0.6-0.3,1.3-0.7,1.9-1.1c0.2,0.5,0.3,0.8,0.6,1.4c-0.7,0.2-1.4,0.4-2.1,0.6C251.8,412.3,251.7,412,251.6,411.7z M433.7,374.3  l-0.9,1.9c-0.2-0.1-0.5-0.1-0.7-0.2c0.2-0.7,0.4-1.4,0.5-2.1C433,374.1,433.4,374.2,433.7,374.3L433.7,374.3z M464.7,426.8l-1.5,3.2  C462.7,427.8,462.7,427,464.7,426.8z M332.3,507.3l1-2c0.2,0.1,0.5,0.2,0.7,0.2c-0.2,0.7-0.4,1.4-0.6,2.1  C333,507.5,332.7,507.4,332.3,507.3L332.3,507.3z M573.4,299.8c-0.7,1-1,1.5-1.5,2.4c-0.7-0.8-1.1-1.4-1.9-2.3  C571.1,299.9,571.9,299.9,573.4,299.8z M540.3,386.8c-0.2,0.6-0.4,1.2-1,2.8c-0.4-1.4-0.7-1.9-0.6-2.3c0.1-0.3,0.5-0.6,0.8-0.9  C539.8,386.5,540.1,386.7,540.3,386.8L540.3,386.8z M503.7,325.1l-0.8,1.8c-0.2-0.1-0.4-0.1-0.7-0.2c0.2-0.7,0.3-1.3,0.5-2  L503.7,325.1L503.7,325.1z M379.6,310.6l-1.3,1.8c-0.2-0.1-0.4-0.3-0.7-0.4l0.9-2C379,310.3,379.3,310.5,379.6,310.6z M481.9,352.6  c0.6-0.3,1.1-0.7,2-1.2c0.3,0.7,0.4,1.1,0.6,1.8c-1,0.1-1.7,0.3-2.4,0.4C482.1,353.3,482,352.9,481.9,352.6L481.9,352.6z   M421.2,323.7c0.6-0.9,1.1-1.5,1.8-2.4C423.2,322.6,422.6,323.4,421.2,323.7z M447.2,338.2c-0.7,1.3-1.1,2-1.7,3.1  C444.7,339.6,444.8,338.7,447.2,338.2z M439.8,298.6c0.6-0.4,1.2-0.9,2-1.5c0.7,2.1-0.4,2.1-1.2,2.4  C440.3,299.2,440.1,298.9,439.8,298.6z M483.2,152.1c-0.7,0.7-1.1,1.1-2,2c-0.2-1.3-0.2-2.1-0.4-3.4  C481.8,151.3,482.4,151.6,483.2,152.1z M545.5,340.8l1.3-2.8C547.8,339.4,547.9,340.1,545.5,340.8z M204.5,625.2  c-0.4,0.5-0.8,1.1-1.1,1.6c-0.2-0.1-0.4-0.2-0.6-0.3l0.8-1.7C203.9,624.9,204.2,625,204.5,625.2z M346.8,378.5  c0.4-0.5,0.8-1,1.1-1.5c0.2,0.1,0.4,0.2,0.6,0.3l-0.8,1.7C347.4,378.8,347.1,378.6,346.8,378.5L346.8,378.5z M441.6,426.7l1.3-2.8  C444.1,425.9,442.7,426.2,441.6,426.7z M606.1,509.3c0.1-0.7,0.3-1.3,0.4-2c0.2,0,0.4,0.1,0.7,0.1c0,0.7,0,1.4,0,2.1  C606.8,509.4,606.4,509.3,606.1,509.3L606.1,509.3z M432.4,590.4c-0.2,0.7-0.4,1.3-0.6,1.9c-0.2,0-0.4,0-0.5-0.1  c-0.1-0.7-0.1-1.4-0.2-2.2C431.6,590.3,431.9,590.3,432.4,590.4z M336.2,451.2c0.5-0.5,0.9-1.1,1.4-1.6c0.2,0.2,0.4,0.3,0.6,0.5  c-0.4,0.5-0.9,1.1-1.4,1.7C336.6,451.6,336.4,451.4,336.2,451.2L336.2,451.2z M488.1,464.3l-1.3,2.8c0-1.7,0-2.3,0-3  C487.4,464.1,487.6,464.2,488.1,464.3L488.1,464.3z M470.9,385.9c-0.1,0.7-0.2,1.4-0.3,2.1c-0.3,0-0.6-0.1-0.9-0.2  c0.1-0.7,0.3-1.4,0.4-2C470.4,385.8,470.6,385.9,470.9,385.9z M366.6,594.5l-1.2,2.4C365.4,596,364.3,594.5,366.6,594.5z   M467.7,530.9c-0.2,0.6-0.4,1.2-0.7,1.9c-0.2,0-0.4-0.1-0.7-0.2c0.1-0.7,0.2-1.4,0.3-2.1C467,530.7,467.4,530.8,467.7,530.9  L467.7,530.9z M486.1,269.7c-0.1,0.8-0.1,1.2-0.1,1.9c-0.8-0.3-1.3-0.6-2.6-1.1C484.7,270.1,485.3,269.9,486.1,269.7z M126.5,232.5  l1.2-2.5c0.4,0.3,0.7,0.4,1.3,0.8C128.3,231.3,127.7,231.7,126.5,232.5z M440.5,279c1.4,1.5,1.3,2.2-0.3,2.8  C440.2,281,440.3,280.3,440.5,279z M380.3,301.3c0.6-0.3,1.1-0.7,1.7-1c0.1,0.1,0.3,0.3,0.4,0.5c-0.5,0.5-1,1-1.5,1.5  C380.7,301.9,380.5,301.6,380.3,301.3z M399.4,129.4c-0.1-0.7-0.2-1.1-0.3-1.6c0.4-0.2,0.8-0.4,1.3-0.6  C401.1,128.3,401.4,129,399.4,129.4z M524.5,615.6c-0.1,1.2-0.1,2.1-0.2,3.4C523.8,617.9,523.9,616.7,524.5,615.6z M342.3,216.8  c0.7,0.1,1.3,0.2,2,0.3c0,0.3-0.1,0.5-0.1,0.8c-0.7-0.1-1.4-0.1-2-0.2C342.2,217.4,342.2,217.1,342.3,216.8z M503.3,494.1  c-0.1,0.7-0.2,1.4-0.3,2.1c-0.2,0-0.5,0-0.8,0c0-0.7,0-1.4,0-2.1C502.6,494.1,503,494.1,503.3,494.1z M373.5,568.9  c-0.4,0.5-0.8,1-1.1,1.5c-0.2-0.1-0.4-0.2-0.6-0.3c0.2-0.6,0.5-1.2,0.7-1.8C372.8,568.5,373.1,568.7,373.5,568.9L373.5,568.9z   M602.3,539.9c-0.3-0.6-0.7-1.2-1-1.8c0.2-0.1,0.4-0.3,0.6-0.4l1.5,1.6C603,539.5,602.7,539.6,602.3,539.9L602.3,539.9z   M574.4,537.1c0.4,0.5,0.8,0.9,1.8,2.2c-1.3-0.4-1.7-0.4-2.1-0.6c-0.3-0.2-0.6-0.6-0.9-0.9C573.6,537.5,574,537.3,574.4,537.1  L574.4,537.1z M33.1,328.2c-1.1,0.2-2.2,0.3-3.3,0.5c1.1-1.4,2.3-1.2,3.4-0.4L33.1,328.2L33.1,328.2z M306.2,474.1l-1,1.7  c-0.2-0.1-0.5-0.1-0.6-0.2c0.1-0.4,0-1,0.2-1.3s0.7-0.5,1.1-0.8C306,473.8,306.1,473.9,306.2,474.1z M568.8,334.1  c0,0.7,0,1.4-0.1,2.1c-0.3,0-0.6,0-0.9-0.1c0.1-0.7,0.1-1.4,0.2-2.2C568.3,334.1,568.5,334.1,568.8,334.1z M70.2,280.9  c0.6-0.3,1.2-0.6,1.8-0.9c0.1,0.2,0.2,0.3,0.4,0.5l-1.5,1.4C70.6,281.6,70.4,281.3,70.2,280.9L70.2,280.9z M267.3,261.3  c1.5-2.2,2.2-1.3,3.5-0.4C269.4,261,268.8,261.1,267.3,261.3z M180.1,573.5c0.1-1.5,0-2,0.2-2.3s0.7-0.5,1.3-0.9  c0.1,0.6,0.2,1,0.1,1.4C181.4,572.1,181,572.4,180.1,573.5z M496.1,480.5l-0.5,1.9l-0.8-0.1c0-0.7,0.1-1.4,0.1-2  C495.4,480.3,495.8,480.4,496.1,480.5z M416,468.8c-0.3-1.1-0.4-1.7-0.6-2.3l0.6-0.3c0.3,0.4,0.8,0.7,0.9,1.1  C416.9,467.5,416.5,467.9,416,468.8L416,468.8z M311.8,731.5l-1.2,2.6C310.4,732.9,310.8,732.1,311.8,731.5z M516.4,332.4  c0.3-0.5,0.5-0.7,0.8-1.3c0.5,0.7,1,1.2,2,2.6L516.4,332.4z M518.7,488.4c0-1.6,0-2.2,0-2.9c0.2-0.1,0.5-0.1,0.7-0.2  c0.2,0.4,0.5,0.8,0.5,1.2C519.8,486.9,519.4,487.2,518.7,488.4z M564.9,366.6c-0.8-0.2-1-0.3-1.4-0.4c0.2-0.7,0.4-1.3,0.6-1.9  c0.2,0,0.4,0.1,0.6,0.1C564.8,365,564.8,365.7,564.9,366.6z M423.3,387.6c0.2,0,0.5-0.1,0.7-0.2c0,0.3,0.1,0.7,0.1,1  c-0.3,0-0.6,0-0.7-0.1C423.3,388.2,423.4,387.8,423.3,387.6L423.3,387.6z M434.1,248.5c0.2,0.4,0.4,0.6,0.5,0.8  c-0.3,0.2-0.6,0.4-1,0.5c-0.1,0-0.4-0.5-0.4-0.6C433.5,248.9,433.8,248.7,434.1,248.5z M332.8,632.2l1.1-2.3c0,0,0.2,0.1,0.4,0.2  l-1.1,2.3C333.1,632.3,332.9,632.2,332.8,632.2z M219.7,518.2c0.5-0.3,1-0.7,1.6-1c0.1,0.2,0.3,0.4,0.4,0.5  c-0.5,0.4-0.9,0.8-1.4,1.2C220.1,518.6,219.9,518.4,219.7,518.2L219.7,518.2z M477.4,313.7c-0.5,0.2-0.9,0.4-1.8,0.7  c0.2-0.9,0.4-1.5,0.7-2.7C476.9,312.7,477.1,313.2,477.4,313.7z M461.1,485.3c1,1.3,1,2-0.8,2.4  C460.6,486.8,460.8,486.2,461.1,485.3z M424,497.1l0.6-1.2c0.2,0.1,0.4,0.2,0.6,0.3c-0.2,0.4-0.4,0.8-0.7,1.2  C424.3,497.2,424.2,497.2,424,497.1z M453,412.7c0-0.3,0-0.5-0.1-0.8c0.3,0,0.7,0,1,0c-0.1,0.3,0,0.6-0.2,0.8  C453.7,412.9,453.3,412.7,453,412.7z M502.8,204.3c-0.9-0.5-1.8-1-2.7-1.5c0-0.1,0.1-0.2,0.1-0.3c0.5,0.2,1.1,0.2,1.5,0.5  s0.6,0.9,0.9,1.4L502.8,204.3L502.8,204.3z M396.2,270.4c-0.7,0.1-1.2,0.3-1.5,0.1c-0.2-0.1-0.2-0.7-0.1-1c0-0.1,0.6-0.3,0.7-0.2  C395.6,269.5,395.8,269.9,396.2,270.4L396.2,270.4z M534.1,493.8c0-0.5,0-0.9,0.1-1.4c0.2,0,0.4,0,0.6-0.1c0.1,0.5,0.2,0.9,0.3,1.4  C534.8,493.8,534.5,493.8,534.1,493.8z M304.6,605.9c-0.8,0.8-1.6,1.3-3.4,0c1.6,0.1,2.5,0.1,3.4,0.2V605.9z M408.5,291.7  c-0.1-0.4-0.4-0.8-0.3-0.8c0.3-0.2,0.7-0.3,1-0.5c0.1,0.2,0.3,0.6,0.3,0.7C409.2,291.3,408.8,291.5,408.5,291.7z M159.4,364.4  c-0.4,0.1-0.9,0.1-1.4,0.2c0-0.4,0-0.7,0.1-1.1c0.4,0.1,0.9,0.2,1.3,0.3C159.5,364,159.4,364.2,159.4,364.4z M447.7,228.9  c0.2-0.4,0.5-0.8,0.8-1.3c0.6,0.2,1.3,0.4,1.9,0.6c0,0.2,0,0.3,0,0.5C449.5,228.7,448.6,228.8,447.7,228.9L447.7,228.9L447.7,228.9z   M385.5,397.3l1.1-2.4C387.4,396.6,387.1,397.2,385.5,397.3z M448.9,322.7c-0.1,0.3-0.2,0.7-0.2,1.1c-0.3-0.2-0.7-0.3-1-0.4  c0.2-0.3,0.4-0.6,0.6-1C448.5,322.5,448.7,322.7,448.9,322.7L448.9,322.7z M348,275.9c0.1,0.3,0.1,0.5,0.2,0.7  c-0.3,0.1-0.7,0.1-1.1,0.2c0-0.3,0-0.6,0.2-0.8C347.4,275.9,347.8,276,348,275.9L348,275.9z M263.5,331.4c-0.2,0.1-0.5,0.2-0.7,0.2  c-0.1-0.4-0.2-0.7-0.3-1.1c0.3,0,0.6-0.1,0.8,0.1C263.4,330.7,263.4,331.1,263.5,331.4L263.5,331.4z M467.1,426.2  c-0.2,0-0.5,0.1-0.8,0.1c0-0.4,0-0.7-0.1-1.1c0.3,0,0.7,0,0.8,0.1C467.2,425.6,467.1,426,467.1,426.2z M495.5,264.2  c-0.3,0-0.5,0-0.8,0.1c0-0.3,0-0.7,0-1c0.3,0,0.7,0,0.8,0.2C495.7,263.6,495.5,264,495.5,264.2L495.5,264.2z M508.2,205.2  c0.3,0.3,0.5,0.5,0.6,0.7c-0.3,0.2-0.6,0.5-0.9,0.7c-0.2-0.2-0.5-0.5-0.4-0.6C507.7,205.7,507.9,205.5,508.2,205.2z M498.6,352.5  c0.3-0.2,0.5-0.4,0.7-0.6c0.2,0.3,0.4,0.6,0.5,0.9c0,0.1-0.5,0.5-0.6,0.4C499.1,353.1,498.8,352.8,498.6,352.5L498.6,352.5z   M502.3,354.3c-0.4-0.1-0.8-0.1-1.1-0.3c-0.1,0,0-0.8,0.1-0.8c0.4,0,0.8,0,1.1,0C502.4,353.5,502.4,353.8,502.3,354.3z M511.2,404.2  c0.3-0.3,0.6-0.6,0.9-0.9c0.2,0.2,0.5,0.5,0.5,0.6c-0.3,0.3-0.6,0.6-0.9,0.9C511.5,404.6,511.4,404.4,511.2,404.2L511.2,404.2z   M446.9,383.5c0.6-0.1,1.2-0.2,1.8-0.4c0,0.2,0.1,0.5,0.1,0.8c-0.6,0.1-1.2,0.2-1.8,0.3C446.9,384,446.9,383.8,446.9,383.5z   M285.2,265.4c0.6-0.1,1.2-0.1,1.9-0.1c0,0.2,0,0.4,0,0.6c-0.6,0.1-1.2,0.1-1.8,0.2C285.3,265.9,285.2,265.7,285.2,265.4z   M295.1,284.4c-0.2,0.1-0.4,0.1-0.7,0.2c-0.1-0.3-0.1-0.7-0.2-1c0.3,0,0.6-0.1,0.8,0C295.1,283.8,295,284.2,295.1,284.4L295.1,284.4  z M611.3,344c-0.2,0.8-0.3,1.3-0.7,2.8c-0.5-1.3-0.8-1.7-0.7-2.1C610,344.4,610.6,344.3,611.3,344L611.3,344z M477.6,371.6  c-0.2,0.6-0.4,1.1-0.6,1.7c-0.2-0.1-0.5-0.2-0.8-0.3c0.2-0.6,0.4-1.1,0.6-1.7C477.1,371.5,477.3,371.5,477.6,371.6z M189.3,263.2  c0.6-0.1,1.2-0.1,1.9-0.2c0,0.2,0.1,0.4,0.1,0.6c-0.6,0.1-1.1,0.3-1.7,0.5C189.5,263.9,189.4,263.6,189.3,263.2z M506.9,146.4  c0.3-0.1,0.5-0.1,0.8-0.2c0,0.4,0.1,0.7,0.1,1.1c-0.3,0-0.7,0-0.8-0.1C506.8,147.1,506.9,146.7,506.9,146.4L506.9,146.4z   M571.3,413.9c0,0.7-0.1,1.3-0.1,2c-0.2,0-0.4,0-0.6,0c-0.1-0.7-0.2-1.4-0.3-2H571.3L571.3,413.9z M300.1,317.4  c0.4-0.1,0.9-0.2,1.3-0.4c0.2,0.4,0.4,0.7,0.5,1.1c-0.4,0.3-0.8,0.6-1.1,0.9C300.5,318.4,300.3,317.9,300.1,317.4z M467.6,288.9  c0.4,0.4,0.9,0.9,1.9,2c-2.3-0.3-2.2-1.1-1.8-2H467.6L467.6,288.9z M306.2,556.2c-0.3,0.1-0.5,0.2-0.7,0.3c0-0.4-0.1-0.7-0.1-1.1  c0.3,0,0.7-0.1,0.8,0.1C306.3,555.6,306.2,556,306.2,556.2z M471,375.1c0.1,0.4,0.2,0.9,0.3,1.3c0,0.1-0.6,0.3-0.6,0.3  c-0.3-0.4-0.5-0.8-0.6-1.2C470.3,375.5,470.7,375.3,471,375.1L471,375.1z M545.6,315.9c0.1,0.4,0.3,0.8,0.5,1.5  c-0.7,0.2-1.1,0.4-2.1,0.7c0.3-1.2,0.4-1.7,0.6-2.3C544.9,315.9,545.3,315.9,545.6,315.9L545.6,315.9z M585.8,183  c0.2,0.3,0.4,0.6,0.6,0.9c0,0.1-0.4,0.3-0.6,0.5c-0.2-0.4-0.4-0.7-0.6-1.1L585.8,183z M519.3,454.6c-0.1-0.4-0.3-0.8-0.4-1.2  c0.2-0.1,0.3-0.1,0.5-0.2c0.1,0.4,0.3,0.8,0.4,1.2C519.6,454.5,519.5,454.5,519.3,454.6L519.3,454.6z M288.3,443.6  c0.5-0.1,1-0.1,1.5-0.2c0,0,0.1,0.3,0.1,0.4c-0.4,0.3-0.8,0.5-1.2,0.7C288.5,444.2,288.4,443.9,288.3,443.6z M476.1,339.9  c0.1,0.4,0.2,0.8,0.4,1.2c-0.2,0-0.3,0.1-0.5,0.2c-0.1-0.4-0.2-0.8-0.4-1.2C475.7,340,475.9,339.9,476.1,339.9L476.1,339.9z   M165.6,571c0.4-0.2,0.8-0.4,1.3-0.5c0.1,0.2,0.2,0.4,0.3,0.6c-0.4,0.2-0.8,0.4-1.2,0.7C165.8,571.4,165.7,571.2,165.6,571  L165.6,571z M507.8,446.9l0.4,1.2c0,0-0.3,0.1-0.4,0.1c-0.1-0.4-0.2-0.8-0.3-1.1C507.5,447,507.7,447,507.8,446.9L507.8,446.9z   M571.4,436.1c-0.2-0.4-0.3-0.8-0.5-1.2c0.1-0.1,0.3-0.2,0.4-0.3c0.3,0.4,0.5,0.7,0.8,1.1C572,435.8,571.7,435.9,571.4,436.1  L571.4,436.1z M474.2,317.5c-0.4,0.1-0.7,0.2-2.1,0.7c1.1-0.9,1.5-1.2,1.8-1.4L474.2,317.5z M545,401.2c0.2,0.4,0.4,0.9,0.7,1.3  c-0.2,0.1-0.4,0.2-0.6,0.3c-0.2-0.4-0.4-0.9-0.6-1.3C544.7,401.4,544.8,401.3,545,401.2L545,401.2z M271.4,520.3  c-0.4,0.2-0.8,0.3-1.3,0.4c-0.1-0.4-0.3-0.7-0.4-1c0.4-0.3,0.8-0.5,1.1-0.8C271.1,519.4,271.3,519.8,271.4,520.3L271.4,520.3z   M428.7,522.1c-0.4,0.1-0.8,0.3-1.2,0.4c0-0.2-0.1-0.4-0.2-0.5c0.4-0.1,0.8-0.2,1.2-0.4C428.6,521.7,428.6,521.9,428.7,522.1  L428.7,522.1z M153.2,329.2c-0.4,0.2-0.7,0.5-1.1,0.7c-0.1-0.2-0.2-0.4-0.4-0.6c0.4-0.2,0.8-0.4,1.2-0.6  C153,328.9,153.1,329,153.2,329.2L153.2,329.2z M528.5,483.6l-0.8,1.6c0,0-0.2-0.1-0.3-0.2l0.8-1.6  C528.2,483.5,528.4,483.6,528.5,483.6z M168.4,317.2c-0.4,0-0.9,0-1.4,0c0-0.2,0-0.4,0-0.5c0.4-0.1,0.9-0.1,1.3-0.2  C168.3,316.7,168.4,317,168.4,317.2z M407.6,424.7c0.4-0.2,0.8-0.3,1.2-0.5c0.1,0.2,0.2,0.5,0.3,0.7c-0.3,0.2-0.7,0.5-1,0.7  C407.9,425.3,407.7,425,407.6,424.7z M443.5,358.4c-0.4,0.3-0.8,0.5-1.1,0.8c-0.1-0.2-0.2-0.3-0.3-0.4c0.4-0.3,0.7-0.6,1.1-0.9  C443.2,358,443.3,358.2,443.5,358.4z M523.3,329.3c-0.3,0.2-0.7,0.3-1,0.5c-0.1-0.2-0.3-0.3-0.3-0.3c0.3-0.3,0.6-0.6,0.8-0.9  C523,328.9,523.2,329.1,523.3,329.3z M140.9,611.2c0.1,0.4,0.2,0.7,0.4,1.1c-0.2,0.1-0.3,0.1-0.5,0.2c-0.1-0.4-0.2-0.7-0.4-1.1  C140.6,611.3,140.8,611.2,140.9,611.2L140.9,611.2z M113.4,548.5l0.8-1.4c0.2,0.1,0.3,0.1,0.5,0.2c-0.3,0.5-0.6,1-0.8,1.4  C113.7,548.7,113.6,548.6,113.4,548.5L113.4,548.5z M584,423.2c0.1,0.4,0.2,0.8,0.3,1.2c-0.2,0.1-0.3,0.1-0.5,0.1  c-0.1-0.4-0.2-0.8-0.3-1.2C583.7,423.2,583.9,423.2,584,423.2L584,423.2z M570.8,378.6c0.2-0.5,0.4-1,0.6-1.5l0.5,0.2  c-0.2,0.5-0.4,1-0.6,1.5C571.1,378.7,571,378.7,570.8,378.6z M587.4,284.7c-0.2-0.4-0.3-0.8-0.5-1.2c0.2-0.1,0.3-0.1,0.5-0.2  c0.2,0.4,0.3,0.8,0.5,1.2C587.8,284.6,587.6,284.6,587.4,284.7z M315.2,535.2l-0.8,1.6c0,0-0.2-0.1-0.4-0.2l0.8-1.6L315.2,535.2z   M223.9,408.3c-0.4,0.1-0.7,0.3-1.1,0.5c-0.1-0.3-0.2-0.5-0.3-0.8c0.4-0.1,0.8-0.2,1.2-0.2C223.8,407.9,223.8,408.2,223.9,408.3  L223.9,408.3z M272.6,612.3c-0.4,0.1-0.7,0.3-1.1,0.4c-0.1-0.2-0.2-0.4-0.3-0.6c0.3-0.3,0.6-0.5,0.9-0.8  C272.3,611.7,272.4,612,272.6,612.3L272.6,612.3z M406.4,261.1c0.2,0.4,0.3,0.8,0.5,1.2c-0.2,0.1-0.4,0.2-0.6,0.3l-0.5-1.2  C406.1,261.3,406.2,261.2,406.4,261.1z M464.1,378.4c0.2,0.4,0.5,0.7,0.7,1.1l-0.6,0.4c-0.2-0.4-0.4-0.8-0.6-1.2  C463.8,378.6,463.9,378.5,464.1,378.4L464.1,378.4z M439.8,459.2c-0.1-0.5-0.2-0.9-0.6-2c0.7,0.8,1,1,1.1,1.3  C440.4,458.6,440,458.9,439.8,459.2z M357.1,361.7c0.4-0.1,0.9-0.3,1.3-0.4c0.1,0.2,0.1,0.4,0.2,0.6c-0.4,0.1-0.9,0.2-1.3,0.4  C357.3,362.1,357.2,361.9,357.1,361.7L357.1,361.7z M286.3,328.2l1.3-0.6c0.1,0.2,0.2,0.4,0.3,0.6c-0.4,0.2-0.9,0.4-1.3,0.6  C286.5,328.6,286.4,328.4,286.3,328.2z M470.4,344.5c0.2-0.5,0.4-1,0.6-1.5c0.2,0.1,0.3,0.1,0.5,0.2c-0.2,0.5-0.4,1-0.6,1.5  C470.7,344.6,470.6,344.6,470.4,344.5L470.4,344.5z M453,517.9c0.2-0.5,0.4-1.1,0.6-1.6c0.2,0.1,0.4,0.1,0.6,0.2  c-0.2,0.5-0.4,1.1-0.6,1.6C453.4,518,453.2,518,453,517.9z M382.6,596.6c0,0.4,0,0.9,0,1.3c-0.2,0-0.3,0-0.5,0  c-0.1-0.5-0.2-0.9-0.3-1.3C382.1,596.6,382.3,596.6,382.6,596.6L382.6,596.6z M1.9,452.6c-0.4,0.1-0.8,0.2-1.2,0.3  c-0.1-0.2-0.2-0.4-0.3-0.6c0.3-0.2,0.7-0.5,1-0.7C1.6,452,1.7,452.3,1.9,452.6z M468.5,410.7c0,0.4,0.1,0.8,0.1,1.1  c-0.3,0-0.7,0-0.7-0.1c-0.1-0.3,0-0.7,0-1H468.5L468.5,410.7z M268.5,309.4c0.4-0.2,0.9-0.4,1.3-0.5c0.1,0.2,0.1,0.4,0.2,0.6  c-0.4,0.2-0.9,0.4-1.3,0.5C268.7,309.8,268.6,309.6,268.5,309.4z M326.4,534.2c0.3-0.6,0.7-1.1,1-1.7c0.2,0.1,0.4,0.2,0.5,0.3  c-0.3,0.6-0.6,1.2-0.9,1.7C326.8,534.4,326.6,534.3,326.4,534.2L326.4,534.2z M489.9,591.9c0,0.4,0,0.9,0,1.3h-0.4  c-0.1-0.4-0.2-0.8-0.4-1.2C489.4,592,489.6,591.9,489.9,591.9z M499.6,509.3c-0.1-0.4-0.3-0.8-0.5-1.2c0.2-0.1,0.3-0.1,0.5-0.2  c0.2,0.4,0.3,0.8,0.5,1.2C499.9,509.2,499.7,509.2,499.6,509.3L499.6,509.3z M236.4,425.6c-0.4,0.2-0.8,0.4-1.2,0.6  c-0.1-0.3-0.2-0.5-0.4-0.7c0.4-0.3,0.7-0.5,1.1-0.8C236.1,425,236.2,425.3,236.4,425.6z M498.8,412.7l-0.1-1.2c0.3,0,0.8,0,0.8,0.1  c0.1,0.4,0,0.7,0,1.1C499.2,412.8,499,412.8,498.8,412.7z M299.8,438.9c0.4-0.1,0.8-0.2,1.2-0.4c0.1,0.1,0.1,0.2,0.2,0.3  c-0.4,0.3-0.7,0.5-1.1,0.8C300,439.4,299.9,439.2,299.8,438.9L299.8,438.9z M356.4,432.6c0.4-0.2,0.7-0.5,1.1-0.7  c0.1,0.2,0.2,0.4,0.3,0.6c-0.4,0.2-0.7,0.4-1.1,0.5C356.6,432.9,356.5,432.7,356.4,432.6z M588.2,317.2c-0.1-0.4-0.2-0.9-0.3-1.3  c0.2-0.1,0.4-0.2,0.6-0.3c0.2,0.4,0.5,0.8,0.7,1.2C588.9,317,588.6,317.1,588.2,317.2z M448,621.6c0.4-0.2,0.8-0.4,1.3-0.5  c0.1,0.2,0.2,0.4,0.3,0.6c-0.4,0.3-0.8,0.5-1.2,0.7C448.3,622.1,448.1,621.8,448,621.6L448,621.6z M334.1,422.2  c-0.4,0.3-0.8,0.5-1.2,0.8c-0.1-0.2-0.3-0.4-0.4-0.6c0.4-0.2,0.9-0.5,1.3-0.7C333.9,421.8,334,422,334.1,422.2L334.1,422.2z   M608,554.7c-0.1-0.5-0.2-1-0.3-1.5c0.2-0.1,0.4-0.1,0.6-0.1c0.1,0.5,0.2,1,0.3,1.5C608.4,554.6,608.2,554.6,608,554.7L608,554.7z   M599.2,402.3c0.1,0.5,0.1,0.9,0.2,1.4c0,0-0.3,0.1-0.4,0.1c-0.3-0.4-0.5-0.7-0.8-1.1C598.5,402.5,598.9,402.4,599.2,402.3z   M377.7,465.9c0.3-0.4,0.5-0.7,0.7-1c0,0.3,0,0.5-0.1,0.8C378.2,465.8,378,465.8,377.7,465.9L377.7,465.9z M258.5,430.6  C258.3,430.9,258.2,431.1,258.5,430.6C258.1,431.1,258.3,430.9,258.5,430.6z M212.8,685.8c-0.1,0.3-0.3,0.6-0.5,0.9  c-0.1,0-0.2-0.1-0.2-0.1c0.1-0.3,0.3-0.6,0.5-0.9L212.8,685.8L212.8,685.8z M336.6,492.5l-0.4,0.9c0,0-0.2-0.1-0.3-0.1l0.4-0.9  C336.3,492.4,336.5,492.5,336.6,492.5z M520.2,518C520,518.2,520,518.5,520.2,518C520.1,518.3,520.1,518.5,520.2,518z M210.8,168.6  C211,168.7,211.2,168.8,210.8,168.6C211,168.6,211.2,168.6,210.8,168.6z M341.2,397.8l-0.4,0.9c0,0-0.2-0.1-0.3-0.1  c0.2-0.3,0.3-0.5,0.5-0.8C341.1,397.7,341.2,397.7,341.2,397.8z M493,149.7c0.5-1.1,0.6-1.3,0.6-1.6c0.1,0,0.1,0,0.2,0.1  C493.7,148.4,493.6,148.6,493,149.7z M63.4,291.5C63.8,291.6,64.1,291.7,63.4,291.5C63.8,291.7,64,291.9,63.4,291.5z M559.6,350.6  c0,0.3-0.1,0.5-0.1,0.8c-0.2-0.1-0.4-0.2-0.5-0.3C559.2,351,559.4,350.8,559.6,350.6L559.6,350.6z M463.4,481.6  c-0.2,0.3-0.3,0.5-0.5,0.7c0-0.1-0.1-0.3-0.1-0.3C463,481.9,463.2,481.8,463.4,481.6z M376.1,434.9  C376,435.2,375.9,435.5,376.1,434.9C375.8,435.4,375.9,435.2,376.1,434.9z M174.1,364.9C174.4,364.3,174.3,364.5,174.1,364.9  C174.4,364.6,174.5,364.4,174.1,364.9z M332.6,243.9c0.2-0.3,0.3-0.5,0.5-0.8c0.1,0.1,0.2,0.3,0.2,0.3  C333.1,243.6,332.9,243.7,332.6,243.9L332.6,243.9z M37.7,327.9C38.2,328.1,38.5,328.2,37.7,327.9C38.2,328.2,38.4,328.3,37.7,327.9  z M444.1,276.3l0.4-0.9l0.2,0.1l-0.4,0.9C444.3,276.4,444.2,276.4,444.1,276.3z M441.5,492.6C441.4,493.1,441.2,493.3,441.5,492.6  C441.1,493.2,441.2,493,441.5,492.6z M451.7,204.7c0,0,0-0.3,0.1-0.3s0.3,0,0.4,0c-0.1,0.1-0.1,0.3-0.1,0.4L451.7,204.7z   M475.6,321.2c0,0.2-0.1,0.5-0.2,0.7c0,0.1-0.2,0.1-0.3,0.1c0.1-0.3,0.2-0.6,0.3-0.9C475.5,321.1,475.6,321.2,475.6,321.2  L475.6,321.2z M445.5,351.4c0.1-0.3,0.2-0.6,0.3-1c0.1,0,0.2,0.1,0.3,0.2l-0.4,0.9C445.8,351.5,445.6,351.4,445.5,351.4L445.5,351.4  z M244,365.8C244.2,365.4,244.1,365.6,244,365.8C244.1,365.4,244.1,365.6,244,365.8z M584.4,412.7c0.5,0.4,0.7,0.6,0.9,0.8  c-0.2,0-0.5,0-0.7-0.1C584.6,413.4,584.5,413.2,584.4,412.7L584.4,412.7z M493.8,371.9C493.6,372.3,493.5,372.5,493.8,371.9  C493.4,372.5,493.5,372.3,493.8,371.9z M409.9,385.9c-0.2,0.3-0.3,0.7-0.5,1c-0.1,0-0.2-0.1-0.2-0.1c0.2-0.3,0.3-0.7,0.5-1  C409.8,385.9,409.9,385.9,409.9,385.9L409.9,385.9z M495.7,274.7l0.6,0.3c0,0-0.1,0.1-0.1,0.2l-0.6-0.3L495.7,274.7z M95.7,216.5  c0.5-0.4,1.1-0.9,1.6-1.3v-0.1c-0.5,0.4-1.1,0.8-1.6,1.2V216.5z M477.8,345l-0.4,0.9c0,0-0.2-0.1-0.3-0.1c0.1-0.3,0.3-0.5,0.5-0.8  C477.6,344.9,477.7,344.9,477.8,345L477.8,345z M221.6,523.6C221.1,524,221.4,523.8,221.6,523.6C221.6,524,221.5,524.3,221.6,523.6z   M134.1,232l0.9,0.4c0,0-0.1,0.2-0.1,0.3l-0.9-0.4L134.1,232z M577.1,472.3C576.9,472.7,576.8,473,577.1,472.3  C576.7,472.9,576.8,472.7,577.1,472.3z M406.4,393.3c0,0,0.2,0,0.3,0.1c-0.1,0.1-0.1,0.3-0.1,0.4c-0.1,0-0.2-0.1-0.3-0.2  C406.3,393.6,406.4,393.4,406.4,393.3z M567.7,301C567.9,300.3,567.8,300.6,567.7,301C567.9,300.6,568.1,300.4,567.7,301z   M612.5,491.2c0.3,0.1,0.6,0.3,0.9,0.5c0,0.1-0.1,0.2-0.1,0.3l-0.9-0.4C612.3,491.5,612.4,491.3,612.5,491.2L612.5,491.2z   M97.3,215.2c0.3-0.4,0.6-0.8,0.8-1.2c0.1,0.2,0.3,0.3,0.4,0.5C98.1,214.7,97.6,215,97.3,215.2L97.3,215.2z M353.8,551.5l-0.3,0.6  c0,0-0.1-0.1-0.2-0.1c0.1-0.2,0.2-0.4,0.3-0.6C353.7,551.5,353.8,551.5,353.8,551.5L353.8,551.5z M333.5,362.2  C333.7,362.3,333.9,362.4,333.5,362.2C333.7,362.2,334,362.3,333.5,362.2z M367.9,582.7C367.7,583.1,367.6,583.4,367.9,582.7  C367.5,583.3,367.7,583.1,367.9,582.7z M495.8,439.1C496.2,439.3,496.4,439.3,495.8,439.1C496.1,439.3,496.4,439.5,495.8,439.1z   M188.2,697.9c0.2-0.3,0.3-0.6,0.5-0.8c0,0.1,0.1,0.3,0.1,0.3C188.6,697.6,188.4,697.7,188.2,697.9L188.2,697.9z M606.8,359.8  C607,359.2,606.9,359.4,606.8,359.8C607,359.4,607.1,359.2,606.8,359.8z M106.6,528.8c0.2,0.1,0.5,0.2,0.7,0.2c0,0.1,0,0.1-0.1,0.2  c-0.2-0.1-0.4-0.2-0.7-0.3C106.6,528.9,106.6,528.9,106.6,528.8z M211.3,464.9C211.4,464.7,211.6,464.5,211.3,464.9  C211.4,464.4,211.4,464.7,211.3,464.9z M196.8,566.5l0.3-0.6l0.2,0.1c-0.1,0.2-0.2,0.4-0.4,0.6C196.9,566.5,196.9,566.5,196.8,566.5  z M404.7,487.1c0.3-0.5,0.5-0.8,0.7-1c0,0.3,0,0.6-0.1,0.8C405.4,486.9,405.2,487,404.7,487.1z M473.2,408.9l-0.9-0.4  c0,0,0.1-0.2,0.1-0.3c0.3,0.1,0.6,0.3,0.9,0.5C473.3,408.7,473.2,408.8,473.2,408.9z M426.8,325.8l0.4-0.9l0.2,0.1l-0.4,0.9  C427,325.9,426.9,325.8,426.8,325.8z M488.9,275.7c0.2,0,0.5,0,0.8,0.1c-0.1,0.2-0.2,0.3-0.3,0.5C489.2,276,489,275.9,488.9,275.7z   M577.7,460.5c-0.2,0.3-0.3,0.7-0.4,1c-0.1,0-0.2-0.1-0.3-0.2l0.5-1C577.4,460.3,577.6,460.4,577.7,460.5z M462.8,261.3  c0,0.3-0.1,0.6-0.1,0.9c-0.2-0.1-0.4-0.2-0.6-0.3C462.3,261.6,462.6,261.4,462.8,261.3z M175.6,463.1c0.3-0.4,0.5-0.7,0.2-0.3  c0.4-0.3,0.1-0.1-0.3,0.1L175.6,463.1L175.6,463.1z M457.6,406.5c0.3,0,0.6,0.1,0.9,0.1c-0.1,0.2-0.2,0.4-0.3,0.6  C458,406.9,457.8,406.7,457.6,406.5z M515,433.5C514.9,434,514.8,434.2,515,433.5C514.6,434.2,514.8,433.9,515,433.5z M310,339.5  c0.2-0.3,0.3-0.5,0.4-0.7c0,0.1,0.1,0.3,0.1,0.3C310.3,339.2,310.2,339.3,310,339.5z M439.7,364.7c-0.4,0.5-0.6,0.8-0.8,1  c0-0.2,0-0.5,0.1-0.7C439,364.8,439.2,364.8,439.7,364.7z M428.1,425.8C428.3,425.9,428.5,425.9,428.1,425.8  C428.3,425.8,428.5,425.8,428.1,425.8z M293.1,481.3C293.3,480.7,293.3,481,293.1,481.3C293.3,481,293.5,480.8,293.1,481.3z   M529.8,475.9l0.4-0.9c0,0,0.2,0.1,0.3,0.1l-0.4,0.9C530,476.1,529.8,476,529.8,475.9z M314.7,279.9c-0.3-0.2-0.6-0.3-0.8-0.5  c0.1,0,0.3-0.2,0.4-0.1C314.4,279.4,314.5,279.6,314.7,279.9z M566,493.3c-0.3-0.2-0.5-0.3-0.7-0.5c0.1,0,0.3-0.2,0.3-0.1  C565.8,492.8,565.9,493,566,493.3z M36.5,404.8c-0.3,0-0.6,0-0.8-0.1c-0.1,0-0.1-0.3-0.1-0.4l1,0.2L36.5,404.8L36.5,404.8z   M128.8,449.6c-0.2,0.3-0.3,0.6-0.5,0.8c0-0.1-0.2-0.3-0.1-0.3C128.4,449.9,128.6,449.8,128.8,449.6z M0.6,556.9  C0.8,556.4,0.7,556.6,0.6,556.9C0.6,556.4,0.6,556.6,0.6,556.9z M285.8,473.6c-0.1,0.3-0.3,0.6-0.5,0.9c-0.1,0-0.2-0.1-0.3-0.2  c0.1-0.3,0.3-0.6,0.5-0.9C285.6,473.4,285.7,473.5,285.8,473.6z M298.9,374.2c0,0-0.2,0-0.3,0c0-0.1,0-0.3,0.1-0.4c0,0,0.2,0,0.3,0  C299,373.9,298.9,374,298.9,374.2L298.9,374.2z M492.5,333.3c0-0.3,0.1-0.5,0.1-0.8c0.2,0.1,0.4,0.2,0.6,0.3  C492.9,333,492.7,333.1,492.5,333.3z M492.4,569.7c0.2-0.3,0.3-0.5,0.5-0.8c0,0.1,0.1,0.3,0.1,0.3  C492.9,569.4,492.7,569.5,492.4,569.7L492.4,569.7z M593.8,304.9l-0.4,0.9l-0.2-0.1l0.4-0.9C593.6,304.8,593.7,304.8,593.8,304.9z   M460.4,520.1C460.3,520.6,460.2,520.8,460.4,520.1C460,520.7,460.2,520.5,460.4,520.1z M487.8,286.6  C488.1,286.8,488.3,286.8,487.8,286.6C488.1,286.8,488.3,287,487.8,286.6z M270.2,549.9c-0.2,0.3-0.3,0.5-0.5,0.7  c0-0.1-0.1-0.3-0.1-0.3C269.7,550.1,269.9,550,270.2,549.9z M489.5,615.7l-0.4,0.9l-0.2-0.1l0.4-0.9  C489.3,615.6,489.5,615.7,489.5,615.7z M446.9,420.9C447,420.5,447,420.7,446.9,420.9C446.9,420.5,446.9,420.7,446.9,420.9z   M137.6,680.8C137.4,681.2,137.4,681.5,137.6,680.8C137.2,681.4,137.4,681.2,137.6,680.8z M441.5,266.8c-0.3-0.1-0.5-0.1-0.6-0.2  c0,0,0-0.2,0-0.3C441.1,266.5,441.2,266.6,441.5,266.8z M276.9,291.8c-0.3-0.1-0.5-0.2-0.7-0.2c0.1,0,0.2-0.1,0.2-0.1  C276.6,291.5,276.7,291.6,276.9,291.8z M333.4,694.5c-0.2,0.3-0.3,0.5-0.4,0.7c0-0.1-0.1-0.3,0-0.3  C333,694.8,333.2,694.7,333.4,694.5L333.4,694.5z M457.9,232.1c0.1-0.3,0.3-0.6,0.5-0.8c0.1,0,0.2,0.1,0.3,0.2  c-0.2,0.3-0.3,0.5-0.5,0.8C458,232.2,457.9,232.2,457.9,232.1L457.9,232.1z M490,451.9c-0.2,0.3-0.3,0.6-0.5,1  c-0.1,0-0.2-0.1-0.2-0.1l0.5-1C489.8,451.7,489.9,451.8,490,451.9z M41.5,328.1c-0.2,0.1-0.4,0.1-0.5,0.2c0.1,0,0.3,0,0.6-0.1  L41.5,328.1z M41.5,328.2c0.2-0.1,0.4-0.2,0.5-0.2c-0.1,0-0.3,0.1-0.6,0.1L41.5,328.2L41.5,328.2z M33.2,328.4  c0.2-0.1,0.4-0.2,0.4-0.3c-0.1,0-0.3,0.1-0.5,0.1L33.2,328.4L33.2,328.4z M175.5,462.9c-0.2,0.1-0.4,0.2-0.5,0.2  c0.1,0,0.3,0,0.5-0.1V462.9z M304.7,606c0.2-0.1,0.4-0.2,0.4-0.3c0,0-0.2,0-0.5,0.1L304.7,606z M200.7,407.9  c0.2-0.1,0.4-0.3,0.4-0.3s-0.3,0.1-0.5,0.1L200.7,407.9z M200.7,407.8c-0.2,0.1-0.4,0.2-0.4,0.2c0.1,0,0.3,0,0.5,0L200.7,407.8z   M487.2,556.3c-0.1-0.2-0.3-0.4-0.1-0.2c0-0.2,0,0,0,0.2H487.2z M487,556.4c0.1,0.2,0.2,0.4,0.2,0.4c0,0.1,0-0.2-0.1-0.4H487z   M458.7,328.4v0.3l-0.2-0.2L458.7,328.4z M580.8,373.1h0.3l-0.2,0.2L580.8,373.1z M509.4,335.1h-0.3l0.1-0.2L509.4,335.1z   M596.4,198.8h0.3l-0.2,0.3L596.4,198.8z M455.1,226.1c-0.2,0.1-0.4,0.3-0.4,0.3s0.3-0.1,0.5-0.2L455.1,226.1z M612.3,363.2l0.3,0.1  l-0.1,0.2L612.3,363.2z M376.4,243.2v-0.3l0.2,0.1L376.4,243.2z M427.5,258.6c0.4-0.1,0.8-0.3,1.2-0.5l-0.1-0.2  c-0.4,0.1-0.8,0.3-1.3,0.4L427.5,258.6L427.5,258.6z M428.7,258.1c0.2-0.1,0.4-0.2,0.5-0.2c-0.1,0-0.3,0.1-0.5,0.1V258.1z   M95.6,216.4c-0.2,0.1-0.4,0.3-0.4,0.3c0.1,0,0.3-0.1,0.5-0.1L95.6,216.4L95.6,216.4z M563.7,421.8h0.3l-0.1,0.2L563.7,421.8z   M365.7,374.4v-0.2l0.2,0.1L365.7,374.4z M305.1,337.2h-0.2l0.1-0.2L305.1,337.2z" />
</svg>