<svg xmlns="http://www.w3.org/2000/svg" viewBox="159.134 288.492 176.525 174.702">
<g>
		<path d="M204.453,371.726c0.63-0.526,1.169-1.016,1.481-1.841c0.08-0.211-0.03-0.63-0.062-0.876
			c1.714-1.826,3.458-3.499,5.754-4.56c1.717-0.793,3.505-1.117,5.381-1.3c0.714-0.069,1.444-0.239,2.148-0.39
			c-0.573-0.384-1.196-0.689-1.732-1.132c-0.536-0.443-0.777-0.97-0.933-1.657c-0.101-0.446-0.207-0.984-0.32-1.443
			c-1.397,1.041-2.634,2.183-3.755,3.525c-0.744,0.892-1.49,1.762-2.292,2.623c-0.26,0.279-0.638,0.457-1.015,0.555
			c0.329-0.795,0.664-1.592,0.996-2.388c-1.056,0.767-1.934,1.68-2.841,2.613c1.453-2.451,3.047-4.692,5.045-6.73
			c-0.052-0.078-0.103-0.154-0.156-0.234c-0.44,0.319-0.889,0.592-1.319,0.93c-1.877,1.474-3.463,3.227-5.081,4.977
			c-0.391,0.423-0.781,0.859-1.173,1.279c-0.262,0.281-0.489,0.246-0.737-0.021c0.007,0.004,0.017,0.012,0.023,0.017
			c1.5-1.827,2.952-3.682,4.514-5.46c0.785-0.893,1.718-1.655,2.51-2.547c-0.459,0.282-0.944,0.462-1.381,0.796
			c-3.406,2.597-6.024,5.679-8.393,9.237c-1.227,1.843-2.245,3.799-3.414,5.675c-0.12,0.193-0.257,0.364-0.422,0.522
			c2.186-7.169,5.677-12.596,11.281-17.573c-0.72,0.339-1.475,0.508-2.143,0.97c-3.421,2.365-6.352,5.037-8.954,8.306
			c-1.588,1.995-3.18,3.994-4.763,6.023c-1.055,1.353-1.993,2.812-3.002,4.249c-0.382,0.544-0.684,1.214-1.467,1.244
			c1.679-5.227,4.775-9.505,7.96-13.932c-0.635,0.656-1.243,1.297-1.89,1.952c-0.647,0.655-1.332,1.318-2.049,1.909
			c0.091-0.218,0.17-0.447,0.272-0.661c1.294-2.705,2.76-5.158,4.798-7.367c-1.856,1.04-3.368,3.012-4.585,4.699
			c-1.336,1.852-2.611,3.645-4.017,5.427c0.086-0.213,0.147-0.445,0.259-0.642c1.048-1.843,2.115-3.612,3.183-5.459
			c0.482-0.833,0.961-1.786,1.412-2.652c-0.196,0.143-0.46,0.3-0.63,0.465c-2.142,2.082-4.044,4.299-5.871,6.652
			c-0.818,1.053-1.624,2.122-2.5,3.133c-0.424,0.489-0.959,0.84-1.504,1.184c2.149-4.145,4.02-8.388,7.124-11.918
			c1.558-1.772,3.246-3.006,5.463-3.809c1.303-0.472,2.575-1.129,3.799-1.776c-0.289-0.442-0.809-0.454-1.201-0.285
			c-2.402,1.036-4.601,1.958-6.698,3.511c-2.424,1.796-4.285,4.142-6.174,6.498c-0.929,1.158-1.908,2.311-2.954,3.374
			c0.608-1.104,1.205-2.226,1.882-3.29c1.291-2.032,2.524-4.051,4.181-5.801c0.382-0.403,0.788-0.748,1.173-1.13
			c0.232-0.231,0.416-0.551,0.65-0.739c0.097-0.078,0.3,0.06,0.405-0.007c1.11-0.712,2.204-1.397,3.298-2.111
			c-0.495-0.028-1.022-0.017-1.436,0.268c-0.82,0.565-1.5,1.228-2.257,1.855c-1.247,0.63-2.082,1.641-3.008,2.659
			c-2.584,2.839-4.779,5.929-6.954,9.088c-0.742,1.078-1.541,2.118-2.402,3.108c0.477-1.262,1.043-2.422,1.723-3.596
			c0.68-1.174,1.412-2.355,2.138-3.512c0.725-1.157,1.475-2.294,2.165-3.478c-1.117,1.047-1.919,2.171-2.806,3.447
			c-0.887,1.276-1.685,2.755-2.522,4.097c-0.837,1.343-1.693,2.606-2.536,3.967c-0.843,1.361-1.619,2.825-2.721,4.021
			c0.484-1.874,1.091-3.829,2.047-5.489c1.926-3.345,3.917-6.482,5.938-9.741c0.057-0.091,0.078-0.241,0.056-0.358
			c-2.018,2.267-3.771,4.748-5.731,7.069c0.741-1.463,1.362-2.913,2.215-4.336c0.853-1.422,1.784-2.895,2.876-4.166
			s2.388-2.325,3.616-3.456c-0.92,0.177-1.576,0.354-2.096,1.199c-0.287,0.467-0.716,0.83-1.098,1.239
			c-0.763,0.817-1.539,1.567-2.26,2.444c-2.985,3.633-5.372,7.425-7.225,11.78c-0.925,2.174-1.727,4.362-2.253,6.732
			c-0.132,0.595-0.394,1.345-0.942,1.766c-0.087-3.067,0.107-6.17,0.908-9.121c0.801-2.951,2.177-5.39,3.669-7.999
			c-1.392,1.105-2.538,2.463-3.931,3.566c0.805-2.19,2.157-3.811,3.725-5.504c-2.311,0.542-4.255,3.443-5.781,5.02
			c0.104-0.242,0.208-0.536,0.326-0.761c0.118-0.225,0.227-0.43,0.368-0.62c1.289-1.734,2.594-3.305,4.386-4.535
			c0.323-0.222,0.624-0.437,0.95-0.669c0.326-0.233,0.544-0.383,0.359-0.814c0.1-0.058,0.192-0.129,0.294-0.179
			c2.152-1.063,4.214-2.222,6.464-3.092c1.296-0.501,2.597-0.562,4.017-0.856c0.706-0.146,1.536-0.333,2.07-0.964
			c-1.077,0.101-2.301,0.128-3.352,0.349c-1.431,0.301-2.853,0.767-4.184,1.172c-0.805,0.245-1.158,0.243-1.939,0.095
			c1.281-1.043,2.617-2.123,4.143-2.728c2.522-1.001,5.017-1.287,7.674-1.298c1.812-0.008,3.513,0.204,5.306,0.288
			c0.257,0.012,0.502,0.111,0.758,0.176c0.477,0.121,0.883,0.31,1.394,0.382c0.51,0.072,1.103,0.053,1.639,0.065
			c-0.034-0.05,0.095-0.198,0.028-0.23c-0.238-0.114-0.535-0.252-0.821-0.284c-2.643-0.297-5.291-0.48-7.943-0.736
			c-0.867-0.084-1.738-0.251-2.583-0.473c2.892-0.435,5.764-0.619,8.663-0.221c2.506,0.345,4.862,1.127,7.329,1.61
			c0.329,0.064,0.668,0.021,1.002,0.026c0.011-0.092,0.02-0.179,0.031-0.273c-0.966-0.292-1.902-0.699-2.9-0.862
			c-2.349-0.384-4.629-0.639-7.011-0.964c-1.359-0.185-2.836-0.351-4.168-0.802c3.76-0.87,7.117-0.623,10.984-0.232
			c-0.089-0.159-0.178-0.318-0.266-0.477c3.344,0.753,6.516,1.621,9.547,3.256c-0.254-0.513-0.508-1.026-0.762-1.539
			c1.384,0.153,2.769,0.306,4.153,0.458c-1.502-1.206-3.192-1.385-4.985-1.927c0.479,0.02,0.936,0.027,1.42,0.068
			c0.484,0.041,1.002,0.117,1.483,0.174c-0.226-0.497-0.696-0.67-1.168-0.682c-2.321-0.057-4.505-0.073-6.815-0.124
			c-0.14-0.003-0.446-0.121-0.601-0.172c0.432-0.214,0.878-0.425,1.313-0.638c-0.874-0.088-1.769-0.079-2.63,0.025
			c-0.861,0.104-1.678,0.172-2.529,0.234c-0.851,0.062-1.686,0.088-2.538,0.049c2.331-0.818,4.687-1.294,7.135-1.59
			c-0.133-0.062-0.285-0.188-0.432-0.191c-1.956-0.036-3.883-0.014-5.84-0.001c-0.406,0.003-0.777,0.059-1.217,0.057
			c-0.44-0.003-0.999-0.044-1.46-0.068c-0.009-0.081-0.005-0.162-0.013-0.243c0.802-0.197,1.529-0.418,2.357-0.579
			c0.828-0.16,1.75-0.319,2.605-0.374c0.855-0.055,1.69,0.033,2.536,0.046c0.01-0.037-0.057-0.335-0.07-0.335
			c-0.865-0.017-1.536-0.485-2.306-0.748c-1.309-0.447-2.561-0.308-3.899-0.199c-1.124,0.092-2.133,0.141-3.26-0.045
			c-0.592-0.097-1.207,0.086-1.802,0.215c-1.158,0.252-2.326,0.523-3.496,0.727c2.36-1.386,4.851-2.064,7.492-2.716
			c-0.868-0.108-1.705-0.271-2.586-0.312c-0.881-0.04-1.791,0.042-2.677,0.067c0.139-0.283,0.279-0.569,0.419-0.853
			c-0.4-0.432-0.928-0.275-1.432-0.499c1.206-0.438,2.409-0.884,3.618-1.315c0-0.076-0.002-0.15-0.001-0.227
			c-0.474,0.035-0.909,0.044-1.391,0.111c-0.481,0.067-1.01,0.187-1.494,0.278c-0.484,0.091-0.906,0.167-1.4,0.262
			c-0.494,0.096-1.028,0.172-1.546,0.113c0.257-0.224,0.518-0.448,0.776-0.673c-2.436,0.353-4.687,1.352-7.109,1.769
			c1.815-1.25,3.754-2.277,5.656-3.385c-1.423-0.034-2.845-0.068-4.268-0.101c-0.011-0.041-0.023-0.083-0.035-0.124
			c1.001-0.266,2.002-0.532,3.004-0.797c-2.153-0.599-4.311-1.05-6.528-1.335c0.717-0.056,1.437-0.18,2.156-0.164
			c2.183,0.048,4.351,0.119,6.531,0.252c0.996,0.061,1.993,0.265,2.995,0.295c-1.704-0.58-3.41-1.164-5.114-1.745
			c0.014-0.079,0.029-0.157,0.044-0.236c1.604,0.207,3.208,0.414,4.812,0.621c-0.205-0.264-0.414-0.526-0.616-0.793
			c0.024-0.035,0.14-0.183,0.178-0.174c1.149,0.255,2.311,0.391,3.406,0.817c2.31,0.899,4.545,1.973,6.813,2.962
			c0.219,0.095,0.484,0.171,0.701,0.116c2.212-0.555,4.224-0.353,6.392,0.204c2.45,0.63,4.79,1.432,7.199,2.152
			c-1.445-1.061-3.004-1.994-4.654-2.649c-1.65-0.655-3.234-1.235-4.927-1.683c-1.693-0.448-3.417-0.667-5.116-1.08
			c1.452-0.083,2.903-0.171,4.355-0.255c0.012-0.068,0.023-0.137,0.035-0.205c-2.117-0.503-4.209-0.996-6.339-1.485
			c-0.636-0.146-1.098-0.444-1.55-0.927c6.139-0.369,11.188,1.079,16.551,4.015c-0.038-0.517-0.238-0.938-0.698-1.163
			c-3.416-1.676-6.919-2.578-10.62-3.278c-1.573-0.298-3.107-0.481-4.678-0.733c1.812-0.401,3.521-0.277,5.324,0.071
			c1.472,0.284,2.811,0.631,4.279,1.018c2.036,0.537,3.937,1.45,5.737,2.566c-0.067-0.25-0.147-0.629-0.25-0.848
			c-0.834-1.767-1.354-3.575-2.001-5.396c-0.853-2.402-1.839-4.653-2.823-7.046c-0.333-0.811-0.641-1.716-0.485-2.65
			c0.613,0.864,1.269,1.731,1.884,2.6c1.235,1.747,2.164,3.556,2.856,5.582c0.485,1.42,1.031,2.855,1.377,4.314
			c0.42,1.769,0.99,3.466,1.549,5.185c0.365,1.122,0.998,1.984,1.743,2.881c-0.898-3.529-2.295-6.844-2.568-10.503
			c1.407,2.212,2.576,4.49,3.285,7.014c0.709,2.524,1.273,5.035,2.054,7.527c-0.095-1.094-0.194-2.244-0.274-3.324
			c-0.08-1.08-0.158-2.054-0.2-3.132c-0.022-0.559,0.055-1.048,0.58-1.359c-0.183-1.208-0.434-2.454-0.49-3.663
			c-0.095-2.063-0.756-3.947-1.146-5.94c-0.539-2.756-0.718-5.456-0.786-8.275c-0.015-0.643,0.253-1.41,0.371-2.06
			c0.581,2.277,1.154,4.565,1.729,6.846c0.062-0.011,0.124-0.025,0.186-0.035c-0.043-0.753-0.119-1.474-0.105-2.233
			c0.024-1.268-0.035-2.465,0.416-3.694c0.055-0.151,0.22-0.409,0.3-0.569c0.203,1.602,0.396,3.24,0.598,4.837
			c0.112,0.884,0.208,1.708,0.357,2.584c0.026,0.155,0.216,0.277,0.316,0.395c-0.317,1.344,0.079,2.534,0.264,3.868
			c0.178-0.891,0.355-1.561-0.011-2.453c-0.169-0.411-0.205-0.939-0.253-1.418c-0.13-1.293-0.325-2.608-0.379-3.917
			c-0.072-1.738-0.069-3.502-0.103-5.237c-0.03-1.53,0.453-2.883,0.882-4.327c-0.049,2.976,0.168,5.878,0.639,8.816
			c0.472-3.23,0.863-6.369,0.628-9.642c-0.064-0.895,0.064-1.79,0.235-2.673c0.607,2.992,1.055,5.899,0.914,8.962
			c0.121-0.253,0.306-0.489,0.361-0.765c0.686-3.411,1.335-6.704,1.719-10.205c0.076-0.689,0.397-1.523,0.878-2.102
			c-0.065,1.969-0.139,3.954-0.205,5.938c0.056-0.023,0.17,0.106,0.216,0.055c0.12-0.135,0.21-0.344,0.328-0.505
			c0.746-1.018,1.483-2.048,2.246-3.056c0.261-0.344,0.564-0.633,0.877-0.929c1.51-1.429,2.563-3.123,3.86-4.761
			c0.639-0.807,1.398-1.467,2.393-1.833c-1.82,2.804-3.953,5.274-5.231,8.4c0.748-0.311,1.496-0.622,2.244-0.933
			c-2.017,2.593-4.035,5.184-6.053,7.776c1.743-1.074,3.141-2.267,5.267-2.35c-3.557,3.372-6.702,6.773-9.154,11.038
			c0.19-0.106,0.536-0.276,0.673-0.413c1.307-1.311,2.634-2.441,4.178-3.423c0.414-0.263,0.846-0.428,1.308-0.584
			c-2.479,2.794-5.074,5.304-6.891,8.606c1.112-1.218,2.127-2.431,3.329-3.585c1.202-1.154,2.468-2.254,3.907-3.147
			c1.439-0.893,2.492-2.08,4.274-2.204c-0.854,1.071-1.728,2.143-2.568,3.224c-0.297,0.382-0.57,0.773-0.775,1.202
			c-1.715,3.58-3.776,6.886-5.946,10.21c-0.257,0.393-0.481,0.845-0.602,1.31c0.15-0.139,0.31-0.271,0.45-0.425
			c1.05-1.149,2.053-2.356,3.158-3.451c0.685-0.679,1.486-1.178,2.238-1.775c0.51-0.405,0.958-0.861,1.512-1.224
			c0.405-0.266,0.877-0.339,1.36-0.352c-0.625,0.823-1.254,1.645-1.881,2.468c0.037,0.05,0.074,0.1,0.111,0.15
			c0.755-0.427,1.51-0.853,2.265-1.28c-0.185,0.587-0.297,0.896-0.83,1.208c-0.957,1.401-1.854,2.848-2.899,4.185
			c-2.114,2.706-4.147,5.401-5.877,8.381c-0.115,0.197-0.178,0.494-0.259,0.715c0.849-1,1.638-2.078,2.578-2.993
			c0.94-0.915,1.818-1.662,2.329-2.899c0.023,0.331,0.042,0.66,0.066,0.988c0.059-0.047,0.178-0.12,0.21-0.181
			c1.245-2.427,2.481-4.818,3.7-7.261c0.131-0.263,0.104-0.644,0.153-0.937c0.092,0.052,0.365,0.261,0.461,0.197
			c0.413-0.275,0.762-0.564,1.061-0.946c0.419-0.535,0.73-1.17,1.044-1.755c0.706-1.312,1.855-2.136,2.735-3.314
			c0.38-0.509,0.827-0.95,1.378-1.288c-1.018,1.798-2.037,3.599-3.056,5.398c0.041,0.033,0.083,0.066,0.124,0.099
			c1.869-2.253,3.728-4.506,5.6-6.762c0.009,0.053,0.16,0.07,0.143,0.13c-0.065,0.23-0.213,0.48-0.3,0.716
			c3.775-3.521,7.939-6.42,12.202-9.317c-0.853,1.072-1.901,1.819-2.949,2.7c-1.048,0.88-2.068,1.825-2.991,2.857
			c1.298-0.739,2.452-1.354,3.826-2.091c0.377-0.202,0.728-0.86,1.247-0.173c0.027,0.036,0.388-0.192,0.563-0.299
			c0.868-0.53,1.923-1.127,2.837-1.677c0.043,0.071,0.074,0.146,0.113,0.218c-1.473,1.169-2.946,2.337-4.42,3.505
			c0.018,0.054,0.037,0.112,0.053,0.164c0.617-0.194,1.214-0.424,1.824-0.639c1.626-0.574,3.182-0.783,4.93-0.823
			c0.623-0.014,1.236,0.329,1.763,0.751c0.977,0.782,1.918,1.768,2.842,2.64c-1.332-2.904-2.621-5.671-3.064-8.867
			c2.139,3.551,3.581,7.421,5.456,11.108c-0.136-2.764-0.272-5.527-0.408-8.291c0.085-0.013,0.171-0.027,0.256-0.04
			c0.545,2.33,0.88,4.695,1.302,7.05c0.033-0.198,0.063-0.391,0.093-0.589c0.191-1.236,0.326-2.443,0.581-3.683
			c0.071-0.346,0.431-0.672,0.636-0.965c0.516,3.898,0.305,7.792,0.436,11.714c0.022-0.711,0.047-1.363,0.068-2.088
			c0.021-0.725,0.069-1.444,0.373-2.129c0.281,1.62,0.331,3.26,0.758,4.857c0.317-2.207,0.406-4.382,1.329-6.442
			c-0.055,5.191-0.191,10.368,0.107,15.554c0.385-3.788,0.714-7.52,1.784-11.188c0.09-0.31,0.286-0.587,0.439-0.853
			c0.153-0.266,0.337-0.371,0.602-0.49c-0.241,2.742-0.47,5.488-0.759,8.222c-0.367,3.468-0.617,6.895-0.581,10.39
			c0.003,0.296,0.16,0.606,0.299,0.87c-0.129-6.06,1.147-11.623,2.832-17.421c0.157-0.54,0.497-1.023,0.874-1.446
			c0.001,0.211,0.02,0.428,0.002,0.64c-0.313,3.716-1.043,7.344-1.745,11c-0.35,1.823-0.543,3.65-0.785,5.494
			c-0.042,0.319,0.022,0.668,0.081,0.987c0.532-3.25,1.43-6.127,3.22-8.912c-0.548,3.629-1.098,7.259-1.654,10.887
			c0.029,0.002,0.059,0.003,0.088,0.005c0.368-1.052,0.735-2.104,1.103-3.156c0.035,0.016,0.071,0.034,0.106,0.05
			c-0.226,3.365-0.455,6.693-0.666,10.074c-0.034,0.549-0.012,1.049,0.615,1.23c0.446-0.804,0.895-1.619,1.337-2.427
			c0.642,1.156,0.436,2.375,0.508,3.631c0.072,1.256,0.085,2.453,0.15,3.698c0.992-4.433,1.565-8.937,2.493-13.379
			c0.536,0.452,0.599,1.042,0.544,1.701c-0.158,1.888-0.358,3.717-0.546,5.607c-0.025,0.251-0.014,0.558,0.093,0.811
			c0.244-0.567,0.544-1.086,0.74-1.681c0.8-2.433,1.259-4.881,1.695-7.42c0.327-1.901,0.724-3.87,1.089-5.779
			c0.847,3.04,0.043,6.698-0.289,9.76c0.393-0.886,0.824-1.776,1.155-2.683c1.084-2.974,2.345-5.808,3.865-8.583
			c0.116-0.213,0.256-0.408,0.431-0.578c-0.307,1.747-1.242,3.261-1.496,5.021c2.025-2.896,4.122-5.668,6.593-8.201
			c-1.346,2.19-2.691,4.382-4.035,6.574c0.066,0.066,0.132,0.131,0.199,0.196c1.088-1.365,2.175-2.73,3.265-4.094
			c0.044,0.032,0.088,0.064,0.132,0.096c-0.217,0.488-0.435,0.976-0.653,1.465c2.003-1.849,3.925-3.748,6.157-5.326
			c-2.099,2.502-4.2,5.002-6.294,7.508c0.056,0.069,0.111,0.139,0.167,0.208c2.519-2.346,5.046-4.685,7.57-7.026
			c-0.901,1.696-2.137,3.079-3.364,4.542c0.942-0.492,1.661-1.248,2.525-1.856c0.864-0.608,1.748-1.174,2.653-1.735
			c0.905-0.561,1.862-1.064,2.836-1.506c-2.219,2.038-4.683,3.757-6.746,5.965c3.429-0.849,6.8-0.728,10.306-0.678
			c0.017,0.123,0.034,0.245,0.052,0.369c-0.244,0.09-0.483,0.191-0.73,0.272c-1.503,0.494-2.965,1.067-4.503,1.447
			c-1.934,0.478-3.822,0.726-5.797,1.153c-2.16,0.468-4.165,1.182-5.976,2.518c1.244-0.395,2.46-0.856,3.732-1.182
			c1.272-0.326,2.543-0.591,3.859-0.748c1.316-0.157,2.684-0.189,4.012-0.201c1.328-0.012,2.623,0.096,3.936,0.262
			c-2.983,0.7-6.035,0.97-9.03,1.607c1.424,0.838,3.011,0.741,4.225,1.961c-1.615,0.117-3.23,0.234-4.844,0.352
			c-0.001,0.05-0.001,0.1-0.001,0.15c0.685,0.022,1.371,0.045,2.056,0.067c-3.418,0.414-6.78,0.409-10.069,1.537
			c4.37-0.421,8.513,0.068,12.802,0.907c-0.198,0.108-0.5,0.325-0.704,0.366c-1.194,0.238-2.388,0.362-3.523,0.726
			c-2.252,0.721-4.574,0.743-6.836,1.397c-1.839,0.532-3.55,1.459-5.32,2.209c-0.108,0.046-0.187,0.234-0.259,0.327
			c-0.975-0.08-1.586,0.381-2.257,1.031c0.765-0.299,1.461-0.774,2.24-1.039c1.348-0.458,2.71-0.874,4.106-1.186
			c0.992-0.222,2.019-0.128,3.026-0.103c-0.597,0.646-1.36,0.618-2.13,0.884c-0.77,0.266-1.491,0.502-2.244,0.784
			c2.268-0.262,4.505-0.45,6.787-0.338c-3.283,0.958-6.58,1.619-9.688,3.097c1.534-0.255,3.017-0.464,4.576-0.601
			c1.559-0.137,2.949-0.99,4.554-0.801c-2.409,1.248-4.824,2.506-7.233,3.756c1.668-0.046,3.143-0.603,4.623-1.303
			c2.378-1.126,4.664-2.149,7.266-2.534c1.539-0.228,3.001-0.142,4.573-0.163c0.392-0.005,0.945,0.278,1.34,0.398
			c-2.671,0.686-5.356,1.364-8.033,2.047c0.004,0.049,0.006,0.097,0.011,0.146c0.53-0.025,1.09,0.012,1.601-0.126
			c1.642-0.443,3.282-0.568,4.965-0.672c1.945-0.12,3.829-0.13,5.76,0.155c1.448,0.214,2.857,0.435,4.324,0.677
			c0.342,0.056,0.714,0.313,0.957,0.587c-0.975,0.12-1.961,0.233-2.941,0.35c0.001,0.055,0.004,0.112,0.004,0.166
			c1.898,0.331,3.755,0.63,5.667,0.957c0.844,0.144,1.591,0.548,2.262,1.093c-1.353-0.041-2.711-0.088-4.066-0.132
			c2.363,1.227,4.937,1.696,7.047,3.392c-0.024,0.091-0.048,0.181-0.072,0.272c-0.873-0.168-1.746-0.335-2.618-0.503
			c-0.044,0.07-0.088,0.141-0.131,0.211c4.335,3.133,6.553,6.677,7.535,11.939c-3.256-3.415-5.842-7.346-8.92-10.913
			c0.714,1.599,1.471,3.109,2.164,4.733c0.693,1.625,0.933,3.387,1.146,5.142c-1.037-2.21-2.03-4.392-3.442-6.396
			c0.661,2.701,1.708,5.15,1.509,7.978c-2.444-5.434-5.107-10.418-9.158-14.832c1.296,1.982,2.506,3.858,3.16,6.155
			c-0.27-0.367-0.528-0.763-0.803-1.117c-0.029-0.037-0.1,0.045-0.134,0.026c0.122,0.669,0.247,1.33,0.37,1.996
			c-0.195-0.184-0.391-0.367-0.586-0.551c0.405,1.338,0.809,2.676,1.213,4.013c-0.065,0.037-0.13,0.073-0.196,0.11
			c-0.942-1.629-1.885-3.259-2.827-4.888c-0.067,0.037-0.135,0.075-0.202,0.111c0.341,1.026,0.658,2.047,1.058,3.052
			c0.951,2.394,1.596,4.798,2.265,7.307c0.283,1.062,0.523,2.07,0.091,3.156c-0.126-0.213-0.271-0.43-0.384-0.655
			c-0.871-1.732-1.776-3.443-2.58-5.208c-1.361-2.989-2.549-6.091-3.989-9.037c-1.027-2.101-2.215-4.091-3.486-6.033
			c-0.763-1.167-1.873-1.393-3.161-1.586c3.205,3.978,5.242,8.247,6.833,13.091c0.197,0.6,0.233,1.293,0.271,1.925
			c-1.464-2.154-3.069-4.309-4.239-6.62c-1.171-2.311-2.302-4.528-3.505-6.789c-0.229-0.43-0.512-0.827-0.766-1.211
			c-0.104-0.157-0.251-0.387-0.392-0.401c-0.854-0.086-1.639-0.069-2.475-0.113c0.896,0.943,1.78,1.757,2.688,2.712
			c1.465,1.541,2.506,3.325,3.476,5.248c1.175,2.33,2.227,4.701,2.887,7.26c0.428,1.662,0.65,3.416,0.92,5.13
			c0.064,0.404-0.099,0.868-0.153,1.27c-0.846-1.424-1.8-2.932-2.566-4.372c-0.766-1.44-1.399-2.834-2.012-4.299
			c-1.231-2.942-2.44-5.843-3.943-8.647c-0.596-1.112-1.176-2.144-1.918-3.188c-0.586-0.823-1.295-1.169-2.313-0.916
			c0.611,0.588,1.251,1.116,1.829,1.752c0.578,0.635,1.124,1.306,1.618,2.027c0.494,0.72,0.957,1.483,1.333,2.282
			c0.376,0.799,0.619,1.661,0.922,2.491c-0.066,0.041-0.129,0.08-0.194,0.121c-0.54-0.77-1.08-1.539-1.621-2.309
			c-0.028,0.022-0.055,0.045-0.083,0.067c0.61,1.571,1.219,3.141,1.829,4.712c-0.07,0.047-0.139,0.095-0.209,0.142
			c-0.236-0.312-0.484-0.609-0.702-0.935c-1.329-1.986-2.613-3.996-3.962-5.973c-0.562-0.823-1.104-1.619-1.775-2.382
			c-0.809-0.919-1.777-1.081-2.962-0.923c0.171,0.138,0.443,0.332,0.615,0.44c3.213,2.018,5.026,4.509,6.29,8.065
			c0.337,0.948,0.648,1.922,1.041,2.888c0.326,0.804,0.389,1.707,0.372,2.583c-1.577-2.222-3.27-4.369-4.593-6.756
			c-1.099-1.983-2.271-3.761-3.96-5.279c-0.427-0.384-0.874-0.662-1.363-0.947c2.387,2.36,4.184,4.792,5.39,7.94
			c-1.393-1.539-2.773-3.102-4.182-4.623c-0.686-0.74-1.368-1.475-2.144-2.115c-0.546-0.45-1.125-0.779-1.803-1.001
			c-0.316-0.104-0.773,0.213-1.021,0.346c-0.054,0.029-0.056,0.199,0.01,0.233c0.272,0.141,0.628,0.212,0.949,0.365
			c1.329,0.635,2.478,1.383,3.482,2.504c0.832,0.928,1.52,1.979,2.248,3.027c0.34,0.489,0.516,1.099,0.572,1.705
			c0.057,0.606,0.304,1.034,0.796,1.392c1.374,0.999,2.746,2.024,4.091,3.057c0.119,0.091,0.228,0.233,0.357,0.263
			c1.757,0.404,2.767,1.543,4.078,2.726c0.483,0.436,0.909,1.169,1.297,1.713c-0.183-0.008-0.548-0.131-0.69-0.116
			c-0.081,0.009-0.03,0.176,0.005,0.216c0.691,0.796,1.331,1.524,2.191,2.187c2.458,1.896,4.529,3.923,6.144,6.629
			c0.094,0.157,0.154,0.412,0.124,0.613c-0.409-0.472-0.813-0.951-1.229-1.428c-0.003,0.049-0.167,0.062-0.141,0.118
			c0.122,0.27,0.288,0.555,0.46,0.817c1.34,2.041,2.766,3.948,4.092,6.023c1.201,1.879,1.606,3.961,1.835,6.176
			c0.123,1.192,0.084,2.43,0.063,3.631c-0.567-1.006-0.936-2.084-1.281-3.18c-0.432-1.372-0.758-2.788-1.263-4.127
			c-0.679-1.801-1.471-3.526-2.242-5.283c-0.355-0.809-0.773-1.58-1.211-2.346c0.463,2.107,1.183,4.04,1.056,6.228
			c-0.365-0.886-0.731-1.776-1.095-2.66c0.058,1.875,0.118,3.815,0.252,5.667c0.066,0.917-0.249,1.53-0.594,2.33
			c-0.622-2.576-1.136-5.2-1.504-7.808c-0.411-2.917-0.968-5.669-2.035-8.413c-0.431-1.108-1.183-1.903-2.065-2.677
			c2.074,4.674,2.949,9.332,3.305,14.421c0.045,0.645-0.125,1.287-0.341,1.896c-0.431-2.293-0.856-4.59-1.285-6.885
			c-0.054,0-0.109,0.002-0.163,0.002c-0.275,1.675-0.53,3.325-0.794,5.009c-0.163,1.04-0.528,1.935-1.193,2.763
			c0.013-0.806,0.095-1.624,0.049-2.43c-0.176-3.072-0.226-6.153-0.627-9.204c-0.313-2.385-0.98-4.686-1.594-7.002
			c-0.333-1.256-1.013-2.217-1.81-3.238c-0.159-0.203-0.492-0.415-0.696-0.598c2.288,4.935,3.388,9.717,3.591,15.18
			c0.052,1.391-0.088,2.832-0.664,4.147c-0.335-3.581-0.733-7.085-1.795-10.54c0.027,0.347,0.082,0.682,0.093,1.031
			c0.048,1.575-0.063,3.025-0.517,4.552c-0.235,0.791-0.362,1.579-0.47,2.433c-0.135,1.063-0.537,2.056-1.082,2.992
			c-0.138-1.546-0.302-3.18-0.393-4.713c-0.081-1.366-0.03-2.673-0.089-4.008c-0.101-2.302-0.507-4.516-0.957-6.76
			c-0.222-1.104-0.515-2.167-0.82-3.245c-0.131-0.463-0.374-0.874-0.563-1.313c-0.226-1.432-0.563-2.748-1.633-3.78
			c0.428,1.126,0.878,2.242,1.31,3.366c0.063,0.165,0.292,0.237,0.329,0.396c0.078,0.335,0.012,0.737,0.102,1.082
			c0.815,3.118,1.043,6.158,0.931,9.371c-0.042,1.201,0.083,2.4,0.097,3.606c0.005,0.451-0.134,0.904-0.202,1.35
			c-0.08,0.004-0.155,0.005-0.234,0.008c-0.456-1.382-0.912-2.764-1.368-4.146c-0.06,1.035,0.25,1.954-0.314,2.893
			c-0.331-1.27-0.714-2.535-0.981-3.819c-0.329-1.582-0.546-3.181-0.835-4.764c-0.131-0.717-0.514-1.205-0.98-1.721
			c-0.138-0.153-0.144-0.377-0.243-0.541c-1.416-2.35-3.075-4.477-4.863-6.54c-0.743-0.858-1.585-1.536-2.434-2.273
			c-0.244-0.212-0.569-0.278-0.855-0.416c1.593,1.976,3.285,3.859,4.935,5.788c0.911,1.065,1.73,2.207,2.594,3.311
			c-0.667-0.627-1.335-1.246-1.988-1.89c-2.008-1.981-3.979-4.023-6.002-5.984c-1.069-1.037-2.316-1.644-3.65-2.258
			c-0.028,0.959-0.048,1.914-0.077,2.869c0.573,0.358,1.046,0.686,1.653,1.017c1.898,1.032,3.824,1.911,5.725,3.037
			c1.35,0.8,2.348,2.071,3.184,3.41c-2.358-1.396-4.491-3.109-7.033-4.186c4.445,3.234,7.283,7.319,9.889,12.104
			c-0.59-0.396-1.001-0.916-1.453-1.459c-0.452-0.543-0.894-1.089-1.348-1.641c-0.453-0.552-0.931-1.108-1.438-1.617
			c0.72,1.569,1.632,2.942,2.721,4.278c1.632,2.003,2.939,4.14,4.066,6.464c0.349,0.72,0.687,1.485,0.956,2.228
			c0.269,0.743,0.368,1.445,0.418,2.221c-0.938-1.609-1.869-3.21-2.807-4.823c0.036,0.778,0.168,1.289,0.518,2.024
			c0.217,0.457,0.522,0.978,0.791,1.481c1.714,3.213,2.737,6.572,3.558,10.141c0.026,0.114,0.022,0.411,0.025,0.551
			c-0.592-1.478-1.182-2.962-1.776-4.45c-0.035,0.059-0.122-0.021-0.145,0.07c-0.023,0.091-0.051,0.301-0.009,0.432
			c0.986,3.045,1.726,6.088,2.116,9.275c0.08,0.655,0.096,1.323,0.074,1.99c-0.022,0.668-0.166,1.327-0.338,1.974
			c-0.164-1.043-0.326-2.087-0.489-3.13c-0.058,0.006-0.12,0.01-0.176,0.018c-0.145,1.219-0.227,2.477-0.363,3.69
			c-0.218,1.941-0.882,3.548-1.911,5.191c-0.544,0.869-1.265,1.464-2.119,2.015c1.096-2.641,1.405-5.398,2.018-8.169
			c-0.08-0.033-0.159-0.067-0.239-0.1c-0.209,0.502-0.419,1.004-0.628,1.506c-0.056-0.022-0.112-0.044-0.168-0.065
			c0.284-1.253,0.569-2.505,0.854-3.758c-0.069-0.037-0.137-0.074-0.206-0.111c-0.788,1.356-1.576,2.712-2.364,4.068
			c-0.072-0.038-0.144-0.076-0.216-0.115c0.74-2.461,1.482-4.923,2.222-7.384c-0.751,0.917-1.507,1.859-2.291,2.741
			c-0.785,0.882-1.39,1.663-2.551,2.017c0.239-0.574,0.514-1.183,0.733-1.74c0.016-0.04-0.066-0.1-0.096-0.066
			c-0.408,0.462-0.839,1.005-1.255,1.492c0.688-3.072,1.349-6.168,2.047-9.234c0.113-0.498,0.32-0.93,0.449-1.418
			c-0.074-0.02-0.155-0.045-0.231-0.066c-0.066,0.504-0.133,1.008-0.199,1.513c-0.549,0.996-1.088,2.002-1.651,2.989
			c-0.284,0.497-0.607,0.963-0.912,1.445c-0.062-0.041-0.124-0.081-0.186-0.122c0.333-2.445,0.698-4.899,0.978-7.347
			c0.28-2.448,0.507-4.805,0.188-7.26c-0.495,2.02-0.944,3.941-1.526,5.962c-0.583,2.022-0.993,4.081-2.277,5.831
			c0.503-4.26,1.006-8.53,1.509-12.794c-0.049-0.016-0.099-0.033-0.148-0.049c-0.183,0.535-0.365,1.069-0.548,1.604
			c0.061-2.368,0.122-4.736,0.183-7.104c-0.04-0.003-0.084-0.003-0.122-0.009c-0.161,1.375-0.228,2.693-0.485,4.069
			c-0.257,1.376-0.711,2.677-1.004,4.091c-0.293,1.414-0.64,2.793-1.538,3.985c0.029-1.235,0.044-2.53,0.105-3.757
			c0.06-1.227,0.186-2.403,0.284-3.611c0.308-3.816,0.199-7.512-0.36-11.302c-0.047-0.321-0.086-0.655-0.228-0.956
			c0.025,1.029,0.117,2.056,0.135,3.085c0.049,2.798-0.437,5.394-1.15,8.106c-0.245,0.929-0.797,1.659-1.544,2.268
			c0.038-0.182,0.159-0.462,0.18-0.632c0.191-1.499,0.281-2.894,0.047-4.381c0.097-0.103,0.32-0.246,0.33-0.392
			c0.065-0.92,0.063-1.82,0.093-2.728c-0.411,0.215-0.423,0.59-0.418,0.973c0.008,0.761,0.028,1.451,0.025,2.18
			c-0.005,1.463-0.037,2.903-0.053,4.361c-0.112,0.122-0.268,0.223-0.334,0.379c-0.284,0.678-0.546,1.345-0.933,1.97
			c0.062-2.385,0.122-4.771,0.185-7.156c-0.061-0.015-0.123-0.028-0.184-0.044c-0.213,1.057-0.426,2.068-0.611,3.141
			c-0.225,1.299-0.579,2.511-1.262,3.658c0.051-2.009,0.102-4.021,0.155-6.032c-0.544,1.679-0.859,3.379-1.677,4.959
			c0.343-2.431,0.685-4.863,1.028-7.293c-0.835,2.292-1.519,4.554-2.844,6.617c0.031-0.32,0.054-0.818,0.131-1.1
			c0.409-1.502,0.651-2.872,0.745-4.412c0.052-0.855,0.396-1.688,0.61-2.523c0.689-2.684,1.075-5.33,1.056-8.102
			c-0.47,1.511-0.883,3.048-1.422,4.537c-0.613,1.693-1.386,3.484-2.042,5.107c-0.427,1.058-0.841,1.613-1.599,2.391
			c1.049-5.195,2.197-10.338,3.545-15.456c-0.251-0.075-0.5-0.151-0.751-0.225c-1.531,3.141-2.988,6.33-4.227,9.587
			c-0.231,0.607-0.014,0.995,0.244,1.527c-1.404,1.593-1.76,3.456-2.342,5.467c-0.072,0.249,0.029,0.67,0.057,0.943
			c-0.731,0.824-1.075,1.598-0.89,2.703c-0.847,1.603-1.347,3.03-1.172,4.862c-0.945,0.739-1.154,1.751-1.406,2.876
			c-0.837,3.731-1.705,7.447-2.5,11.193c-0.127,0.6,0.146,1.257-0.115,1.851c-0.261,0.594-0.434,1.169-0.532,1.837
			c-0.121,0.828-0.379,1.57-0.047,2.407c0.033,0.083,0.005,0.251-0.043,0.338c-0.8,1.45-0.734,3.038-1.116,4.611
			c0.362,0.247,0.723,0.494,1.084,0.741c-0.206,0.724-0.775,0.789-1.367,1.13c-0.808,8.018-1.747,15.98-1.862,24.047
			c0.802-1.649,1.61-3.306,2.41-4.95c0.024,0.852-0.31,1.682-0.605,2.419c-0.5,1.251-0.991,2.309-1.483,3.529
			c-0.383,0.951-0.593,1.861-0.635,2.917c-0.028,0.698-0.167,1.497-0.274,2.209c0.472-0.485,0.794-0.81,0.642-1.54
			c-0.033-0.158,0.076-0.382,0.139-0.57c0.467-1.403,0.907-2.808,1.394-4.23c0.103-0.301,0.354-0.588,0.637-0.768
			c-0.073,0.982-0.149,1.973-0.229,2.958c0.298-0.273,0.595-0.547,0.893-0.821c0.424,1.489,0.292,3.001,0.397,4.53
			c0.354-0.947,0.707-1.894,1.06-2.841c0.052,0.023,0.104,0.047,0.156,0.07c-0.4,1.631-0.8,3.262-1.2,4.893
			c-1.105-0.971-0.807-2.237-1.048-3.566c-0.138,1.367-0.272,2.734-0.409,4.101c-0.476-0.28-1.005-0.044-1.41-0.443
			c-0.348,0.307-0.696,0.614-1.044,0.92c-0.226-1.212,0.063-2.433-0.187-3.642c-0.083,0.603-0.15,1.508-0.265,2.046
			c-0.201,0.944-0.339,1.162-1.268,1.184c-0.477,0.011-0.821,0.058-1.392,0.034c-0.571-0.024-0.991-0.383-1.137-1.096
			c-0.179-0.876-0.37-2.016-0.589-2.927c-0.052,0.512-0.094,1.181-0.155,1.669c-0.061,0.488-0.104,0.965-0.212,1.375
			c-0.213,0.81-0.576,1.054-1.273,0.59c-0.155-0.103-0.232-0.319-0.35-0.458c-0.602,0.199-0.759,0.202-1.071-0.364
			c-0.238,0.54-0.478,1.079-0.717,1.619c-0.551-0.058-0.77-0.55-1.047-0.97c-0.277-0.419-0.355-0.727-0.96-0.63
			c-0.147,0.024-0.445-0.254-0.543-0.47c-0.305-0.675-0.633-1.413-0.92-2.128c-0.157-0.391-0.04-0.607,0.181-0.968
			c0.958,0.756,1.42,1.846,2.123,2.817c0.032-2.513-1.22-4.942-2.238-7.173c0.138-0.03,0.271-0.083,0.415-0.089
			c0.307-0.011,0.614,0.005,0.921,0.009c1.105,2.319,2.149,4.564,2.705,7.085c0.077-0.214,0.233-0.449,0.236-0.676
			c0.032-2.03,0.066-4.057,0.02-6.079c-0.029-1.258-0.207-2.511-0.274-3.758c-0.291-5.386-0.897-10.709-1.799-16.015
			c-0.419-2.465-0.863-4.886-1.276-7.344c-0.055-0.327-0.064-0.659-0.098-0.988c0.29,0.15,0.41,0.255,0.764,0.154
			c0.822-0.233,1.678-0.372,2.564-0.473c0.167-0.019,0.486,0.191,0.646,0.275c-0.386,0.247-0.833,0.477-1.204,0.728
			c-0.053,0.036,0.066,0.122,0.038,0.166c0.565-0.019,1.116-0.042,1.675-0.062c-0.199-0.799-0.397-1.597-0.596-2.396
			c-0.633-0.015-1.266-0.03-1.899-0.045c0.238,0.19,0.476,0.381,0.714,0.571c-1.043,0.297-1.822-0.009-2.741-0.513
			c0.021,0.546,0.047,1.091,0.07,1.637c-0.055-0.104-0.136-0.191-0.16-0.309c-0.215-1.057-0.544-1.729-1.649-1.993
			c0.097-0.625,0.202-1.349,0.379-1.934c0.256-0.848,0.105-1.432-0.326-2.153c-0.218-0.365-0.49-0.634-0.736-0.984
			c0.643-0.989,0.266-2.047-0.015-3.03c-0.942-3.29-1.892-6.393-2.868-9.626c-0.326-0.062-0.654-0.131-0.982-0.199
			c-0.018-0.137-0.07-0.319-0.045-0.456c0.23-1.256-0.052-2.561-0.461-3.659c-0.243-0.655-0.253-0.666-0.738-1.015
			c-0.143-0.673-0.237-1.454-0.464-2.107c-0.433-1.248-0.939-2.412-1.421-3.628c-0.529,0.389-1.088,0.773-1.625,1.119
			c-0.027,0.018-0.093-0.037-0.074-0.062c0.199-0.26,0.383-0.506,0.639-0.77c0.255-0.264,0.529-0.573,0.653-0.948
			c-0.302,0.212-0.665,0.372-0.941,0.621c-1.402,1.266-2.775,2.559-4.177,3.823c-0.375,0.339-0.772,0.632-1.204,0.894
			c1.432-2.781,3.496-4.742,5.793-6.813c-0.702-1.293-1.397-2.598-2.095-3.89c-0.055-0.101-0.144-0.191-0.169-0.292
			c-0.451-1.836-1.456-3.365-2.293-5.022c-0.32-0.632-0.702-1.208-0.956-1.845c-0.79-1.986-2.008-3.522-3.303-5.19
			c-0.487-0.627-0.942-1.232-1.48-1.842c-0.367-0.416-0.867-0.824-1.281-1.212c0.234,2.118,0.592,4.215,1.238,6.235
			c0.294,0.918,0.446,1.712,0.638,2.669c0.051,0.252-0.015,0.725-0.031,1.011c-0.657-1.358-1.313-2.732-1.969-4.096
			c-0.076,0.034-0.146,0.068-0.225,0.103c0.721,2.86,1.331,5.724,2.109,8.574c0.779,2.851,2.204,5.407,3.556,8.028
			c-1.687-1.163-2.857-2.596-3.788-4.465c-1.386-2.783-2.21-5.805-2.951-8.862c-0.327-1.35-0.593-2.819-0.942-4.177
			c0.01,0.646-0.057,1.35,0.021,1.989c0.339,2.803,0.931,5.466,1.83,8.135c0.198,0.589,0.337,1.179,0.479,1.786
			c0.567,2.414,1.386,4.528,2.633,6.721c0.319,0.561,0.639,1.388,0.572,2.091c-0.145-0.178-0.44-0.436-0.555-0.625
			c-1.48-2.444-2.904-4.691-3.643-7.458c-0.683-2.556-1.23-5.098-1.837-7.673c-0.204-0.864-0.242-1.789-0.372-2.676
			c-0.469,0.656-0.703,1.006-0.344,1.84c0.096,0.223-0.119,0.645-0.122,0.971c-0.013,1.51,0.017,3.111,0.326,4.609
			c0.257,1.246,0.412,2.507,0.731,3.72c0.611,2.326,1.305,4.646,1.969,6.931c0.222,0.764,0.403,1.392,0.519,2.164
			c-0.698-0.603-1.328-1.172-1.703-2.044s-0.645-1.85-0.978-2.749c-0.124-0.335-0.338-0.656-0.423-0.992
			c-0.117-0.461-0.062-0.946-0.147-1.411c-0.073,0.006-0.157,0.012-0.234,0.019c0.128,0.453,0.26,0.919,0.387,1.371
			c0.442,1.566,0.806,3.18,1.374,4.699c0.732,1.961,1.518,3.871,2.252,5.828c0.023,0.062,0.007,0.144,0.009,0.212
			c-3.095-3.173-4.247-7.162-5.219-11.391c-0.415,1.096-0.424,2.116-0.133,3.237c0.242,0.934,0.45,1.816,0.77,2.717
			c0.471,1.322,0.958,2.493,1.507,3.828c0.549,1.335,1.179,2.784,1.691,4.194c0.161,0.443,0.222,1.019,0.221,1.502
			c-0.919-1.084-1.737-2.323-2.391-3.56c-0.654-1.237-1.088-2.43-1.758-3.637c0.238,1.076,0.384,2.043,0.672,3.131
			c0.288,1.089,0.636,2.223,0.932,3.363c0.296,1.14,0.998,2.145,0.832,3.381c-1.395-1.819-2.228-4.017-2.854-6.149
			c-0.626-2.132-0.8-4.01-0.986-6.161c-0.307,1.837-0.596,3.659-0.903,5.489c-0.005-0.01-0.037-0.007-0.037-0.019
			c0.002-1.24,0.028-2.484,0.047-3.726c-0.161-0.032-0.322-0.065-0.484-0.097c-0.116-1.829,0.312-3.469,0.815-5.215
			c0.187-0.649,0.497-1.243,0.704-1.895c0.128-0.404,0.147-0.853,0.147-1.28c-0.912,1.298-1.507,2.747-2.607,3.913
			c0.139-1.181,0.696-2.206,0.355-3.396c0.084,0.203,0.168,0.406,0.252,0.609c0.5-1.009,0.451-1.733-0.17-2.663
			c-0.022,0.695-0.044,1.391-0.066,2.085c-1.121-3.049-1.475-6.038-1.754-9.266c-0.033,0.833-0.048,1.722-0.105,2.545
			c-0.114,1.631-0.336,3.33-0.341,4.93c-0.012,3.799-0.066,7.443,0.814,11.126c0.198,0.83,0.193,1.578,0.259,2.412
			c-0.091,0.008-0.18,0.023-0.271,0.034c-0.647-1.399-1.304-2.805-1.914-4.214c-0.049,0.791,0.274,1.615,0.49,2.312
			c0.403,1.297,0.768,2.443,1.284,3.65c0.209,0.488,0.144,0.905,0.056,1.408c-0.597-0.818-1.208-1.617-1.725-2.487
			c-0.008,1.871,1.239,3.318,1.734,5.083c-1.387-1.068-2.628-2.193-3.652-3.62c-0.066,0.014-0.129,0.032-0.196,0.044
			c0.186,0.496,0.317,0.935,0.53,1.438c0.213,0.503,0.497,0.991,0.733,1.525c0.236,0.534,0.518,1.046,0.163,1.612
			c-3.268-3.745-4.388-7.974-5.533-12.717c-0.221,1.128-0.449,2.259-0.662,3.387c-0.018,0.096-0.012,0.189,0.02,0.276
			c0.482,1.308,0.944,2.644,1.472,3.926c0.468,1.136,1.069,2.227,1.585,3.321c0.784,1.661,1.713,3.153,2.813,4.615
			c0.236,0.313,0.407,0.648,0.524,1.027c-0.846-0.65-1.574-1.327-2.207-2.177c-0.633-0.85-1.227-1.616-1.76-2.525
			c-0.533-0.909-0.938-1.934-1.438-2.865c-0.032,0.081-0.131,0.333-0.109,0.404c0.852,2.64,1.551,5.178,2.727,7.702
			c0.605,1.299,1.452,2.538,2.052,3.881c0.155,0.348,0.157,0.841,0.12,1.233c-2.6-3.138-4.522-6.195-5.744-10.111
			c-0.073,0.116-0.284,0.388-0.259,0.513c0.326,1.627,0.634,3.171,1.278,4.701c0.177,0.42,0.556,0.79,0.764,1.213
			c0.384,0.783,0.375,1.51,0.471,2.387c0.123,1.134-0.076,2.206-0.262,3.381c-0.147,0.933-0.266,1.943-0.453,2.947
			c-0.088,0.474-0.314,0.98-0.871,1.131c-0.667-1.532-1.348-3.089-1.734-4.724c-0.193-0.818-0.217-1.55-0.394-2.419
			c-0.049-0.238,0.171-0.651-0.393-0.545c-0.013-0.129-0.064-0.252-0.046-0.368c0.231-1.508,0.475-2.995,0.742-4.497
			c0.06-0.336,0.262-0.625,0.279-0.986c0.023-0.5-0.094-1.048-0.143-1.549c-0.118,0.165-0.364,0.444-0.413,0.62
			c-0.31,1.11-0.541,2.156-0.841,3.253c-0.191,0.697-0.45,1.377-0.801,2.017c0.181-1.164,0.323-2.333,0.563-3.488
			c0.213-1.026,0.537-1.975,0.867-2.976c0.33-1.001,0.362-1.95,0.132-2.992c-0.705,2.33-1.402,4.422-2.051,6.827
			c-0.649,2.405-1.014,5.123-2.049,7.463c-0.346-1.513-0.249-3.263,0.002-4.73c0.422-2.471,1.336-4.535,2.182-6.803
			c0.526-1.411,1.189-2.667,1.768-4.053c0.152-0.363,0.236-0.796,0.271-1.19c-0.707,0.704-1.043,1.718-1.41,2.58
			c-0.781,1.833-1.532,3.524-2.238,5.353c-0.074-0.021-0.147-0.039-0.224-0.052c0.499-1.695,0.961-3.259,1.578-4.95
			c0.617-1.691,1.379-3.508,1.975-5.24c-0.171,0.265-0.381,0.548-0.535,0.826c-1.119,2.026-2.297,4.042-3.33,6.097
			c-0.716,1.423-1.085,2.746-1.635,4.271c-0.682,1.888-1.363,3.904-2.035,5.871c-0.094,0.276-0.385,0.759-0.547,1.031
			c-0.166-0.752-0.272-1.747-0.143-2.472c0.424-2.393,1.023-4.633,1.874-6.839c0.678-1.759,1.589-3.122,2.629-4.694
			c0.52-0.787,0.838-1.736,1.208-2.662c0.785-1.967,1.762-3.748,3.015-5.52c0.386-0.545,0.573-1.279,0.476-1.984
			c-0.822,1.405-1.752,2.922-2.508,4.339c-0.756,1.417-1.396,2.766-2.133,4.143c-0.738,1.377-1.266,2.787-2.179,4.054
			c-0.086-0.017-0.171-0.036-0.262-0.05c0.092-0.542,0.08-1.01,0.238-1.556c0.915-3.151,2.079-6.043,3.797-8.89
			c1.072-1.777,2.4-3.472,3.724-5.134c0.308-0.387,0.601-0.874,0.557-1.423c-0.387,0.352-0.894,0.74-1.232,1.134
			c-1.816,2.121-3.753,4.276-5.411,6.461c-1.221,1.61-2.345,3.376-3.368,4.958c-0.73,1.129-1.208,1.744-2.184,2.545
			c0.402-2.79,1.442-4.848,3.214-7.027c2.081-2.559,4.469-4.858,6.809-7.199c0.831-0.832,1.71-1.604,2.472-2.534
			c0.417-0.509,0.642-1.212,0.845-1.846c-2.626,2.855-5.443,5.359-8.539,7.7c0.782-2.164,1.671-4.22,2.991-6.117
			c1.651-2.374,3.638-4.262,5.892-6.062c0.702-0.561,1.299-1.247,1.919-1.904c0.148-0.157,0.302-0.313,0.481-0.444
			c1.069-0.785,1.586-1.824,2.101-3.017c0.04-0.093,0.122-0.161,0.179-0.244c0.313-0.455,0.636-0.91,0.949-1.363
			c0.18-0.26,0.207-0.616,0.422-0.85c0.771-0.841,1.659-1.589,2.418-2.45c-0.042-0.071-0.09-0.146-0.135-0.219
			c-1.779,1.296-3.649,2.474-5.477,3.701c-0.038-0.068-0.076-0.136-0.115-0.204c3.084-3.305,6.302-5.911,10.563-7.514
			c-0.036-0.111-0.073-0.219-0.11-0.331c-0.53,0.114-1.076,0.161-1.588,0.346c-2.071,0.746-4.106,1.523-6.168,2.317
			c-0.497,0.191-0.916,0.637-1.376,0.898c-0.145,0.083-0.361,0.007-0.513,0.089c-1.431,0.779-2.877,1.506-4.295,2.302
			c0.38,0.244,0.765,0.487,1.143,0.734c0.788-1.164,1.385-1.667,2.663-2.335c0.294-0.153,0.74-0.558,1.018-0.808
			c-0.158,0.753-0.143,1.374-1.076,1.473c-0.113,0.012-0.265,0.251-0.336,0.41c-0.533,1.2-1.638,1.965-2.386,3.034
			c-0.079-0.356-0.152-0.714-0.231-1.07c-0.82,0.536-1.375,1.267-1.873,2.093c-0.949,1.573-1.652,3.107-2.194,4.88
			c-0.085,0.278-0.322,0.69-0.469,0.97c-0.3-1.541,0.09-2.823,0.519-4.301c-2.339,3.724-3.499,7.635-4.565,11.864
			c-0.359-0.459-0.322-1.004-0.226-1.526c0.83-4.474,2.406-8.224,5.138-11.858c0.064-0.085,0.048-0.226,0.121-0.314
			C204.064,372.256,204.183,371.952,204.453,371.726z M232,336.483c0.617-0.169,1.328-0.314,1.976-0.421
			c0.328-0.054,0.687,0.063,1.026,0.041c0.534-0.035,1.077-0.148,1.612-0.091c1.665,0.178,3.289,0.387,4.947,0.676
			c1.039,0.181,2.011,0.481,3.061,0.801c0.398,0.121,0.79,0.429,0.886,0.898c-2.324,0.171-4.663,0.334-6.993,0.501
			c0.214,0.109,0.429,0.218,0.644,0.327c-1.681,0.304-3.364,0.621-5.044,0.918c0.168,0.172,0.418,0.281,0.633,0.327
			c1.406,0.3,2.731,0.54,4.139,0.851c0.589,0.13,1.022,0.471,1.23,1.066c-0.922,0.174-1.907,0.347-2.823,0.496
			c-0.916,0.149-1.786,0.303-2.692,0.28c-1.672-0.041-3.102,0.507-4.666,1.002c3.107,0.205,5.95,1.125,8.895,2.075
			c2.176-1.426,4.351-2.853,6.534-4.269c0.045,0.079,0.09,0.158,0.135,0.237c-0.837,0.818-1.676,1.635-2.512,2.456
			c1.124-0.466,2.251-0.931,3.372-1.401c-0.351,0.407-0.818,0.699-1.261,0.975c-1.156,0.718-2.27,1.438-3.415,2.156
			c-0.322,0.202-0.65,0.383-0.973,0.582c0.043,0.076,0.088,0.158,0.13,0.232c0.314-0.211,0.601-0.513,0.921-0.704
			c0.32-0.191,0.664-0.315,0.982-0.498c3.186-1.836,6.444-3.217,9.99-4.174c0.587-0.159,1.17-0.175,1.763-0.276
			c0.022,0.066,0.044,0.127,0.066,0.191c-0.439,0.312-0.878,0.623-1.316,0.936c2.829-0.769,5.659-1.535,8.489-2.302
			c0.023,0.092,0.046,0.185,0.07,0.277c-1.615,1.096-3.495,1.526-5.209,2.427c2.655-0.624,5.311-1.246,7.965-1.877
			c-1.089-0.846-2.173-1.698-3.257-2.55c0.037-0.076,0.075-0.151,0.112-0.227c1.528,0.565,2.962,1.171,4.334,2.069
			c0.718,0.47,1.299,0.47,2.007-0.03c-0.098-0.159-0.182-0.353-0.307-0.491c-1.963-2.168-3.881-4.371-5.886-6.496
			c-0.839-0.889-1.821-1.577-2.733-2.397c-0.347-0.312-0.676-0.719-0.992-1.07c0.028-0.029,0.205-0.134,0.232-0.124
			c0.22,0.084,0.403,0.169,0.612,0.253c2.487,0.999,4.604,2.311,6.609,4.1c0.251,0.223,0.471,0.509,0.648,0.809
			c0.728,1.23,1.504,2.227,2.779,2.922c-1.039-1.743-2.051-3.481-3.389-5.014c-1.159-1.329-2.298-2.573-3.465-3.929
			c-0.293-0.341-0.594-0.798-0.647-1.292c0.956,0.513,1.922,1.036,2.884,1.549c0.033-0.042,0.066-0.085,0.1-0.128
			c-2.089-2.082-4.167-4.176-6.249-6.265c1.959,0.752,3.633,1.972,5.457,2.969c-0.361-0.633-0.887-1.418-1.288-1.98
			c-0.401-0.561-1.007-1.359-1.311-1.761c-0.625-0.825-0.885-1.108-1.047-2.017c1.795,1.021,3.232,2.277,4.579,3.819
			c-0.172-0.992-0.596-1.918-1.13-2.742c-1.026-1.586-2.057-3.084-3.137-4.607c-0.544-0.768-1.159-1.454-1.743-2.186
			c-0.319,0.156-0.631,0.324-0.935,0.492c-1.52,0.84-2.814,1.275-4.6,1.465c-1.785,0.19-3.52,0.81-5.051,1.86
			c2.079,0.132,4.117,0.127,6.12,0.798c-3.075,1.171-6.261,1.376-9.473,1.946c0.179,0.115,0.392,0.164,0.594,0.169
			c2.162,0.056,4.13,0.335,6.22,0.982c0.374,0.116,0.797,0.337,1.003,0.734c-1.759-0.124-3.534-0.255-5.298-0.389
			c-0.014,0.084-0.028,0.167-0.042,0.251c1.674,0.774,3.364,0.853,4.654,2.295c-1.499,0.046-2.99,0.135-4.491,0.113
			c-1.277-0.018-2.484-0.203-3.777-0.254c-1.294-0.051-2.496,0.24-3.666,0.822c4.915-0.605,9.511,0.153,14.331,1.121
			c-0.779,0.146-1.563,0.244-2.354,0.264c-2.334,0.06-4.602,0.073-6.958,0.126c-0.615,0.014-1.403,0.121-2.041,0.181
			c2.547,0.777,4.753,1.716,6.729,3.549c-1.873,0.115-3.749,0.182-5.625,0.188c-2.036,0.007-4.025-0.442-6.065-0.221
			c-1.296,0.141-2.575,0.335-3.891,0.406c-1.005,0.055-1.479,0.604-1.772,1.533c0.011,0.024,0.083,0.105,0.102,0.099
			c2.785-0.965,5.42-1.332,8.37-1.185c1.039,0.052,2.005,0.078,2.954,0.623c0.199,0.114,0.488,0.057,0.736,0.096
			c1.357,0.212,2.694,0.416,4.071,0.668c0.238,0.044,0.572,0.329,0.784,0.47c-0.111,0.05-0.384,0.152-0.483,0.16
			c-2.594,0.206-5.124,0.373-7.706,0.479c-2.962,0.122-5.8,0.604-8.755,1.071c-0.761,0.12-1.463,0.651-2.163,1.111
			c-0.224,0.147-0.224,0.485,0.168,0.489c0.101,0.001,0.212,0.259,0.29,0.237C230.934,336.954,231.383,336.652,232,336.483z
			 M281.784,352.222c-0.947,0.298-1.385,0.5-1.664,1.471c0.565-0.466,1.078-1.039,1.655-1.478c0.301-0.229,0.693-0.266,1.01-0.463
			c-0.038-0.084-0.083-0.182-0.123-0.271C282.369,351.729,282.077,351.975,281.784,352.222z M308.473,359.525
			c-0.004,0.399,0.15,0.584,0.546,0.636c-0.189-0.205-0.378-0.41-0.568-0.615c-0.465-1.154-0.962-2.165-2.218-2.543
			C306.94,357.896,307.551,358.836,308.473,359.525z M223.1,354.04c-0.07,0.019-0.333,0.088-0.339,0.162
			c-0.068,0.811-0.067,1.599-0.099,2.402c0.276-0.185,0.548-0.37,0.822-0.555c-0.132-0.679-0.265-1.357-0.402-2.035
			c0.101-0.943-0.077-1.845-0.227-2.769c-0.29,0.342-0.325,0.733-0.218,1.12C222.803,352.971,222.945,353.457,223.1,354.04z
			 M225.09,365.003c-0.182,0.519,0.012,0.779,0.421,1.101c0.018-0.466,0.051-0.894-0.449-1.075
			c-0.438-0.908-0.871-1.815-1.313-2.722c-0.187,0.023-0.428,0.005-0.597,0.039c-0.041,0.008-0.008,0.142,0,0.161
			c0.008,0.02,0.22,0.005,0.224,0.02c0.139,0.44,0.184,0.979,0.446,1.348C224.214,364.427,224.321,365.047,225.09,365.003z
			 M285.381,355.021c-0.676,0.102-1.11,0.463-1.552,0.966c0.471-0.179,0.937-0.36,1.412-0.538c0.077,0.051,0.279,0.218,0.365,0.175
			c0.37-0.184,0.711-0.453,1.035-0.666c0.325-0.212,0.635-0.425,0.941-0.612c0.306-0.186,0.558-0.315,0.859-0.483
			C287.297,354.03,286.321,354.335,285.381,355.021z M291.907,373.123c0.051-0.593-0.085-1.001-0.581-1.347
			c0.167,0.451,0.452,0.866,0.595,1.325c0.181,0.583,0.281,1.2,0.42,1.793c0.14,0.593,0.258,1.216,0.377,1.803
			c0.119,0.587,0.118,1.103,0.517,1.573c-0.104-1.102-0.245-2.217-0.401-3.306C292.724,374.204,292.457,373.65,291.907,373.123z
			 M255.516,350.298c-0.316-0.343-0.305-0.481-0.794-0.464c0.269,0.151,0.523,0.301,0.787,0.457
			c0.606,0.763,1.256,1.587,1.783,2.384c0.528,0.797,1.102,0.998,1.998,1.13c-0.903-1.153-2.017-2.088-3.068-3.079
			C256.01,350.526,255.675,350.471,255.516,350.298z M259.221,404.289c0.843,0.501,1.686,1.002,2.53,1.503
			c0.043-0.328,0.086-0.658,0.129-0.984c-0.529-0.181-1.068-0.333-1.603-0.485c-0.345-0.098-0.703,0.028-1.038-0.083
			c-0.651-0.215-1.269-0.622-1.913-0.879c-0.066,0.263-0.135,0.539-0.203,0.806c0.998,0.705,1.979,1.167,3.193,1.352
			C259.951,405.109,259.586,404.699,259.221,404.289z M241.734,401.272c0.077-0.619,0.153-1.238,0.231-1.858
			c-0.295,0.014-0.592,0.029-0.886,0.042c0.219,0.611,0.453,1.178,0.667,1.8c0.149,0.432,0.272,0.934,0.416,1.378
			c0.727-1.416,1.613-1.148,2.975-1.469c-0.12-0.408-0.24-0.817-0.36-1.226c-0.65,0.331-1.216,0.012-1.373,0.904
			C242.848,400.988,242.292,401.132,241.734,401.272z M221.537,360.477c0.238,0.229,0.475,0.458,0.713,0.686
			c0.009-0.281,0.018-0.562,0.027-0.843c-0.252,0.061-0.505,0.123-0.757,0.185c0.195-0.739,0.39-1.478,0.585-2.217
			c-1.084-0.785-2.168-1.569-3.252-2.354C220.093,357.363,220.974,358.666,221.537,360.477z M221.612,362.117
			c-0.159-0.254-0.181-0.617-0.319-0.888c-0.207,0.313-0.498,0.665-0.682,0.97c-0.031,0.051,0.014,0.176,0.066,0.167
			c0.28-0.049,0.649-0.199,0.952-0.275c-0.282,2.275-0.57,4.561-0.85,6.834c0.081-0.111,0.266-0.338,0.293-0.453
			c0.241-1.009,0.439-1.978,0.67-2.97c0.053-0.227,0.114-0.451,0.226-0.648c0.235-0.415,0.506-0.792,0.759-1.189
			C222.379,363.132,221.951,362.66,221.612,362.117z M272.334,371.77c-0.796,0.283-1.435,0.21-2.14-0.243
			c-0.15-0.096-0.345-0.192-0.491-0.166c-0.147,0.026-0.156,0.259-0.203,0.368c-0.284,0.66-0.282,0.84,0.374,1.162
			c-0.022-0.243-0.052-0.492-0.071-0.734c0.475,0.258,0.936,0.665,0.835,1.24c-0.101,0.576-0.595,0.871-0.896,1.321
			c-0.009,0.502,0.18,1.064-0.035,1.542c-0.215,0.478-0.738,0.673-1.113,1c0.295,0.331,0.596,0.667,0.893,1
			c0.73-1.601,1.47-3.198,2.183-4.807c0.246-0.556,0.43-1.136,0.643-1.705c0.579-0.471,0.679-1.154,0.943-1.819
			c-0.296-0.144-0.594-0.286-0.891-0.427C272.242,370.299,271.989,370.999,272.334,371.77z M216.827,344.695
			c-0.635-0.301-1.291-0.562-1.902-0.908c-1.366-0.774-2.669-1.707-4.103-2.338c-2.225-0.98-4.445-1.737-6.738-2.583
			c-0.906-0.334-1.978-0.628-2.916-0.914c0.107,0.138,0.354,0.448,0.477,0.53c2.661,1.752,4.931,3.724,7.042,6.075
			c0.117,0.13,0.289,0.249,0.452,0.263c0.69,0.061,1.349,0.067,2.032,0.098c0.023-0.084,0.044-0.17,0.071-0.252
			c-0.753-0.43-1.417-0.817-2.197-1.247c-0.78-0.43-1.532-0.947-2.098-1.677c3.885,0.541,7.176,2.14,10.642,3.897
			c-0.162-0.322-0.39-0.645-0.532-0.967c-0.064-0.145,0.017-0.32-0.076-0.446c-0.093-0.125-0.223-0.139-0.349-0.205
			c0.014,0.141,0.025,0.358,0.053,0.477C216.713,344.617,216.774,344.611,216.827,344.695z M262.04,353.783
			c-1.269-1.124-2.528-2.262-3.805-3.375c-0.38-0.332-0.824-0.571-1.237-0.849c-0.023,0.166,0.031,0.411,0.129,0.519
			c1.063,1.174,1.9,2.336,2.651,3.731c0.177,0.329,0.602,0.519,0.949,0.682c0.575,0.269,1.221,0.404,1.763,0.748
			c1.098,0.697,2.136,1.508,3.198,2.251c0.217,0.152,0.47,0.291,0.677,0.393c0.037,0.018,0.087-0.086,0.057-0.12
			c-0.468-0.534-1.003-1.091-1.495-1.632c0.023-0.036,0.049-0.07,0.074-0.105c1.458,0.776,2.915,1.553,4.374,2.327
			c-0.344-0.81-1.04-1.293-1.187-2.193c0.326,0.175,0.652,0.35,0.978,0.526c0.068-0.174,0.135-0.349,0.203-0.523
			c0.468,0.676,0.938,1.35,1.407,2.025c-0.588-1.801-1.39-3.387-2.53-4.902c0.394,0.135,0.781,0.274,1.179,0.407
			c-1-1.157-1.566-2.443-3.081-3.031c-1.515-0.588-2.952-1.457-4.369-2.286c-0.229-0.134-0.485-0.228-0.718-0.349
			c0.745,0.93,1.599,1.788,2.376,2.683c0.778,0.895,1.463,1.829,2.197,2.752c-0.06,0.08-0.116,0.159-0.175,0.239
			c-2.17-1.464-4.142-3.098-6.547-4.177c0.91,1.122,1.805,2.223,2.73,3.345c0.246,0.299,0.415,0.56,0.184,0.941
			C262.031,353.803,262.034,353.792,262.04,353.783z M245.667,383.177c-0.051-0.048-0.103-0.096-0.154-0.143
			c-1.035,1.211-2.076,2.417-3.125,3.617c-0.083-0.058-0.167-0.115-0.251-0.172c0.395-1.415,0.8-2.829,1.189-4.244
			c-0.216,0.103-0.536,0.169-0.694,0.345c-0.775,0.867-1.497,1.631-2.189,2.594c-0.174,0.243-0.131,0.788-0.009,1.1
			c0.28,0.722,0.723,1.513,1.008,2.199s0.435,1.237,1.194,1.372c0.134,0.551-0.353,0.792-0.014,1.363
			c0.185,0.312,0.133,0.864,0.286,1.264c0.658,1.717,1.269,3.46,1.862,5.227c0.158,0.47,0.27,0.858,0.86,0.964
			c0.203,0.036,0.487,0.457,0.621,0.639c-0.216,0.17-0.448,0.331-0.67,0.498c0.223,0.759,0.449,1.524,0.675,2.279
			c0.226,0.754,0.349,1.334,0.981,1.897c0.145,0.129,0.173,0.491,0.18,0.756c0.023,0.909,0.081,1.625,0.833,2.304
			c0.402,0.363,0.712,0.826,0.661,1.461c-0.039,0.476-0.106,1.037,0.024,1.527c0.26,0.978,0.337,1.892,0.975,2.736
			c0.11,0.146,0.1,0.472,0.11,0.681c0.01,0.209-0.028,0.474,0.032,0.682c1.109,3.845,1.937,7.834,3.077,11.633
			c0.19,0.634,0.364,0.749,0.931,0.903c0.064-0.474,0.126-0.928,0.191-1.392c0.786,0.128,1.624,0.292,2.386,0.455
			c0.239,0.051,0.613,0.381,0.615,0.52c0.011,0.887,0.472,0.971,1.053,1.46c0.213-1.982,0.426-3.957,0.651-5.935
			c-1.81,0.326-3.339,0.193-5.017-0.574c-0.115,0.396-0.228,0.795-0.341,1.19c-0.054-0.367-0.039-0.752,0.019-1.111
			c0.14-0.854,0.338-1.709,0.385-2.562c0.185-3.353,0.804-6.623,1.346-9.921c0.454-2.769,1.097-5.476,1.714-8.207
			c0.778-3.446,1.784-6.826,2.781-10.213c0.453-1.54,0.865-3.092,1.458-4.582c1.002-2.516,1.746-5.063,2.36-7.697
			c0.175-0.749,0.439-1.472,0.667-2.206c-1.573,2.936-2.558,6.066-3.671,9.194c0.219-3.377,1.111-6.44,2.329-9.583
			c-1.368,1.723-2.54,3.582-4.017,5.218c0.855-1.888,1.707-3.777,2.556-5.667c-0.085-0.052-0.169-0.103-0.255-0.155
			c-0.765,1.473-1.581,2.916-2.288,4.42c-0.707,1.504-1.323,3.112-1.951,4.634c-0.628,1.522-1.224,2.975-1.847,4.484
			c-0.06-0.031-0.122-0.058-0.182-0.088c0.764-3.082,1.527-6.165,2.293-9.247c-0.024-0.016-0.048-0.032-0.071-0.048
			c-0.558,1.02-1.117,2.042-1.675,3.059c0.11-0.772,0.32-1.562,0.566-2.287c0.246-0.725,0.503-1.379,0.759-2.083
			c-0.216,0.059-0.387,0.223-0.483,0.4c-1.29,2.367-2.42,4.668-3.299,7.23c-0.223,0.65-0.566,1.329-1.078,1.837
			c0.21-2.064,0.712-4.057,1.182-6.075c-0.337,0.256-0.655,0.613-0.941,0.902c-0.286,0.289-0.542,0.488-0.837,0.748
			c0.009-0.044-0.059-0.089-0.039-0.131c0.4-0.846,0.832-1.695,1.235-2.539c-0.17-0.027-0.352,0.072-0.431,0.19
			c-1.033,1.541-2.05,3.022-3.051,4.573c-0.299,0.463-0.52,0.987-0.741,1.502c-0.366,0.855-0.672,1.746-1.061,2.596
			c-0.16,0.349-0.446,0.621-0.673,0.926c-0.074-0.048-0.146-0.095-0.219-0.143c0.392-2.46,0.785-4.921,1.187-7.379
			c-1.238,1.662-2.306,3.393-3.915,4.729C244.36,385.788,245.014,384.483,245.667,383.177z M243.016,375.552
			c-0.01-0.046-0.02-0.091-0.03-0.137c1.333-0.597,2.667-1.194,4-1.792c-0.011-0.042-0.022-0.084-0.034-0.126
			c-1.523,0.18-3.046,0.36-4.568,0.54c-0.013-0.07-0.026-0.139-0.039-0.209c2.446-0.888,4.888-1.785,7.326-2.694
			c-0.993-1.287-1.986-2.574-2.975-3.864c0.187,1.267,0.762,2.818-0.176,3.879c-2.096-3.519-3.671-7.23-5.187-11.027
			c-0.287,0.25-0.573,0.508-0.861,0.752c0.643,1.181,1.295,2.166,1.854,3.436c0.558,1.27,0.932,2.612,0.813,4.052
			c-0.612-1.081-1.221-2.177-1.833-3.266c0.187,1.939,0.336,3.731,1.159,5.546c0.273,0.603,0.482,1.218,0.256,1.906
			c-0.671-0.744-1.386-1.436-2.002-2.241c-0.616-0.805-1.129-1.711-1.681-2.564c-0.018,0.339,0.045,0.677,0.171,0.981
			c0.326,0.787,0.625,1.42,0.917,2.249c0.184,0.522,0.432,1.053-0.045,1.55c-0.454-0.527-0.92-1.002-1.344-1.576
			c-0.424-0.574-0.838-1.254-1.205-1.871c-0.366-0.617-0.691-1.266-1.034-1.874c-0.344-0.608-0.739-1.282-1.082-1.846
			c-0.344-0.564-0.922-1.449-1.187-1.862c-0.519-0.807-0.672-1.139-1.393-1.583c1.516,2.532,2.8,4.889,3.242,7.829
			c-1.215-2.115-2.43-4.221-3.794-6.244c-0.065,0.92,0.292,1.659-0.477,2.351c-0.941-1.918-1.87-3.842-2.805-5.763
			c-0.75,1.175-1.533,2.121-2.863,2.627c-0.042,0.488-0.083,0.978-0.126,1.465c0.432-0.113,0.835-0.29,1.29-0.327
			c0.206-0.017,0.477,0.161,0.561,0.35c0.084,0.189-0.059,0.473-0.203,0.607c-0.347,0.324-0.79,0.565-1.179,0.841
			c0.93,0.243,1.698-0.282,2.226,0.744c-0.454,0.581-0.908,1.161-1.362,1.742c1.109,0.237,2.048,0.288,3.101-0.18
			c0.222,0.43,0.446,0.858,0.671,1.286c-0.443,0.317-0.889,0.631-1.329,0.95c0.276,0.212,0.613,0.385,0.95,0.398
			c1.07,0.042,1.882-0.022,2.923-0.39c0.549-0.194,1.032-0.086,1.203,0.596c-1.11,1.082-2.562,1.665-3.773,2.63
			c1.463,0.351,2.597-0.233,3.973-0.661c0.203,0.451,0.406,0.903,0.609,1.354c-0.804,0.511-1.61,1.018-2.419,1.52
			c0.146,0.198,0.291,0.396,0.437,0.594c-0.428,0.213-0.858,0.42-1.291,0.623c-0.114-0.702-0.228-1.404-0.342-2.105
			c-0.369,0.013-0.737,0.026-1.106,0.043c0.781,1.489,1.561,2.978,2.341,4.467c0.393-0.176,0.794-0.341,1.179-0.532
			c0.214-0.475,0.322-1.069,0.795-1.375c1.061-0.686,1.649,0.239,1.751,1.29c0.087,0.902,0.345,1.456,1.348,1.207
			c0.367-0.091,0.649-0.33,0.965-0.535c1.152-0.747,2.22-1.532,3.388-2.289c0.967-0.627,2.052-1.231,3.056-1.828
			C244.858,375.314,243.935,375.434,243.016,375.552z M256.788,446.69c0.208-3.024,0.342-6.035,0.258-9.066
			c-1.543-0.205-3.089-0.532-4.358-1.479c1.163,0.022,2.325,0.044,3.488,0.066c-0.114-0.214-0.227-0.428-0.341-0.641
			c0.489,0.134,0.979,0.269,1.468,0.403c0.078-0.754,0.155-1.506,0.236-2.26c-0.531,0.012-0.755,0.225-1.029,0.674
			c-0.275,0.449-0.626,0.712-1.178,0.649c-0.366-0.042-0.729-0.039-1.087-0.105c-1.223-0.226-2.34-0.063-3.533,0.233
			c-0.334,0.083-0.65,0.278-0.928,0.442c-0.066,0.039,0.056,0.183,0.018,0.237c0.598,0.066,1.182,0.124,1.775,0.187
			c0.136,0.405,0.271,0.811,0.407,1.216c-0.162,0.067-0.302,0.11-0.466,0.189c-0.164,0.079-0.348,0.201-0.511,0.296
			c1.39,0.577,2.731,0.414,4.196,0.524c-0.31-0.281-0.623-0.561-0.932-0.842c0.495,0.118,1.045,0.215,1.523,0.363
			c0.478,0.148,0.939,0.252,0.98,0.817c0.041,0.565-0.337,0.925-0.816,1.164c-0.117,0.058-0.287,0.079-0.413,0.121
			c0.585,0.706,1.154,0.985,1.187,1.988c-0.424,0.377-0.848,0.753-1.272,1.13c0.301,0.363,0.602,0.726,0.904,1.089
			c-0.329,0.956-0.848,1.239-1.833,1.265C255.284,445.796,256.036,446.243,256.788,446.69z M224.98,350.254
			c0.313-0.202,0.728-0.511,1.02-0.704c0.446-0.295,0.807-0.7,1.286-0.836c1.52-0.432,2.881-0.281,4.417-0.059
			c0.88,0.127,1.705,0.066,2.522,0.545c0.115,0.068,0.348,0.03,0.483-0.086c0.587-0.5,1.116-1.005,1.508-1.69
			c-2.651,0.264-5.179-0.062-7.801-0.444c-0.442-0.064-0.845-0.122-1.304-0.045c-0.79,0.133-1.416,0.374-1.786,1.189
			C225.058,348.712,225.08,349.598,224.98,350.254z M216.279,382.909c0.589-1.999,1.379-3.872,2.326-5.73
			c0.151-0.295,0.246-0.659,0.326-0.969c0.013-0.049-0.137-0.037-0.148-0.076c-0.39,0.427-0.761,0.85-1.149,1.275
			c-0.204-0.197-0.55-0.377-0.676-0.629c-0.914-1.835-0.958-3.713-1.128-5.711C215.399,375.073,215.71,378.933,216.279,382.909z
			 M254.824,368.039c-1.567-1.34-3.136-2.681-4.698-4.031c0.51,1.154,1.089,2.19,1.757,3.279c0.32,0.522,0.477,1.048,0.307,1.674
			c-0.712-0.527-1.427-1.061-2.137-1.594c-0.14,0.196-0.28,0.391-0.421,0.587c-0.486-0.381-0.739-0.851-1.358-1.047
			c0.448,0.861,0.895,1.724,1.347,2.583c0.731-0.071,1.503-0.203,2.228-0.222c0.725-0.019,1.356,0.016,2.077,0.08
			c0.721,0.063,1.323,0.328,2.011-0.071c-0.698-0.189-1.391-0.38-2.095-0.573c0.045-0.051-0.043-0.156,0.026-0.197
			C254.156,368.338,254.517,368.2,254.824,368.039z M261.554,406.624c-0.034-0.01-0.119-0.037-0.147-0.03
			c-0.255,0.064-0.491,0.131-0.74,0.198c0.132,0.77,0.076,1.164-0.78,1.046c-0.149-0.021-0.276-0.087-0.417-0.14
			c-0.973-0.367-1.948-0.744-2.921-1.115c-0.135,0.865-0.271,1.73-0.406,2.595c1.458,0.662,2.856,1.167,4.462,1.276
			c-0.214-0.307-0.503-0.651-0.688-0.946c-0.029-0.046,0.047-0.13,0.096-0.115c0.261,0.08,0.598,0.252,0.878,0.357
			C261.112,408.711,261.334,407.666,261.554,406.624z M261.801,357.753c-0.003-0.119-0.003-0.241-0.005-0.363
			c-0.99,0.063-1.981,0.076-2.967,0.183c-0.986,0.107-1.929,0.194-2.903,0.451c-0.974,0.257-1.933,0.677-2.912,0.984
			c-0.98,0.307-1.777,1.031-2.696,1.481c0.585,0.236,1.136,0.512,1.75,0.685c0.23,0.065,0.494-0.051,0.687-0.184
			c2.015-1.387,4.132-2.197,6.499-2.727C260.125,358.068,260.938,357.933,261.801,357.753z M260.682,390.597
			c-0.258,0.831-0.517,1.66-0.775,2.491c1.49,0.676,2.923,1.252,4.559,1.441c0.346-1.101,0.692-2.204,1.038-3.305
			c-0.684,0.577-0.977,0.84-1.857,0.564c-0.548-0.172-1.046-0.55-1.647-0.504C261.4,391.33,261.094,390.989,260.682,390.597z
			 M239.889,355.508c-0.026-0.156-0.037-0.555-0.153-0.648c-1.052-0.843-2.007-1.715-3.124-2.443
			c-1.117-0.728-1.971-0.347-2.789,0.598c0.571,0.215,1.241,0.296,1.736,0.666c0.887,0.662,1.642,1.485,2.431,2.225
			c0.159,0.149,0.295,0.426,0.476,0.443c1.039,0.098,2.018,0.075,3.041,0.112C241.087,355.837,240.697,355.313,239.889,355.508z
			 M225.346,337.419c-0.034,0.013-0.092-0.083-0.122-0.052c-0.154,0.16-0.325,0.324-0.452,0.523
			c-1.205,1.891-2.435,3.726-3.618,5.648c-0.72,1.169-0.602,2.142-0.005,3.354c0.068-0.088,0.16-0.181,0.2-0.287
			c0.634-1.693,1.41-3.225,2.505-4.667c0.144-0.19,0.29-0.386,0.359-0.614C224.606,340.024,224.968,338.727,225.346,337.419z
			 M253.252,452.825c0.034-0.05,0.154-0.004,0.171-0.069c0.054-0.207,0.047-0.37,0.077-0.621c0.03-0.252,0.005-0.738,0.437-0.685
			c0.207,0.026,0.398,0.298,0.489,0.525c0.225,0.555,0.409,1.19,0.601,1.769c0.091-0.026,0.396-0.102,0.416-0.192
			c0.481-2.058,0.899-4.097,1.341-6.151c-0.97,0.952-1.762,1.235-3.084,1.547c0.084,0.525,0.168,1.049,0.252,1.574
			c-0.367,0.072-0.734,0.144-1.102,0.216C252.987,451.433,253.118,452.124,253.252,452.825z M240.37,349.044
			c2.101,0.687,3.828,1.802,5.58,3.131c0.795,0.603,1.497,0.667,2.422,0.322c-0.402-0.35-0.808-0.8-1.24-1.094
			c-1.286-0.878-2.535-1.705-3.798-2.604C242.236,348.018,241.373,348.21,240.37,349.044z M238.032,350.845
			c-0.633,0.131-1.268,0.254-1.898,0.381c0.314,0.223,0.668,0.3,1.036,0.33c1.585,0.128,2.8,0.545,3.975,1.628
			c0.324,0.299,0.708,0.589,1.106,0.725c0.398,0.136,0.705,0.045,1.096,0.064c0.056-0.329,0.118-0.651,0.177-0.979
			c-1.023-0.713-2.017-1.479-3.073-2.144c-0.585-0.369-1.222-0.687-1.877-0.884C237.919,349.77,237.934,350.371,238.032,350.845z
			 M257.39,429.223c0.194,0.597,0.254,1.111-0.426,1.281c-0.278,0.07-0.508,0.055-0.762,0.021c-1.011-0.133-1.995-0.307-2.999-0.457
			c0.079,0.405,0.158,0.811,0.237,1.216c-0.297,0.17-0.594,0.34-0.892,0.51c1.363,0.263,2.725,0.525,4.088,0.787
			c-0.166-0.258-0.332-0.516-0.499-0.774c0.545,0.168,1.089,0.338,1.633,0.508c0.126-1.274,0.251-2.547,0.38-3.821
			C257.897,428.738,257.645,428.979,257.39,429.223z M263.195,359.221c-3.517,0.24-6.694,0.727-9.894,2.269
			c0.17,0.147,0.458,0.496,0.662,0.539c0.955,0.201,1.712-0.083,2.533-0.489C258.658,360.469,260.88,359.838,263.195,359.221z
			 M210.272,379.688c-0.102-0.022-0.202-0.044-0.306-0.065c-0.378,1.005-0.786,2.031-1.187,3.02
			c-0.274,0.677-0.284,1.344-0.152,2.032c0.247,1.284,0.534,2.509,0.802,3.777c0.042,0.197,0.119,0.386,0.176,0.579
			C209.546,385.884,209.841,382.804,210.272,379.688z M219.124,372.4c-0.045-0.048-0.091-0.105-0.135-0.148
			c0.448-1.137,0.933-2.067,1.21-3.304s0.314-2.711,0.449-4.007c-0.419,0.379-0.835,0.774-1.252,1.159
			c-0.147,2.761-0.812,5.444-0.965,8.199c0.593-0.864,1.293-1.496,1.514-2.558C219.672,371.961,219.398,372.181,219.124,372.4z
			 M263.202,383.655c1.356,0.679,2.571,1.454,4.11,1.599c0.321-1.003,0.646-2.004,0.968-3.007c-0.328-0.065-0.681-0.153-1.003-0.201
			c-0.066-0.01-0.209,0.021-0.21,0.07c-0.001,0.064,0.151,0.168,0.187,0.268c0.035,0.1,0.094,0.253,0.12,0.366
			c-1.378,1.247-2.227,0.259-3.677-0.307C263.532,382.848,263.367,383.251,263.202,383.655z M201.04,387.948
			c0.999-1.056,2.028-2.104,3.023-3.16c0.995-1.056,1.898-2.191,3.028-3.087c0.796-0.631,1.054-1.355,1.354-2.285
			C205.582,381.974,203.103,384.704,201.04,387.948z M267.638,344.02c-0.444-0.423-0.994-0.923-1.377-1.367
			c-0.383-0.445-0.743-0.498-1.247-0.368c-1.184,0.305-2.312,0.614-3.479,0.941c-0.383,0.107-0.741,0.327-1.098,0.482
			c1.029,0.285,2.225,0.507,3.217,0.228c1.219-0.343,1.964,0.245,3.14,0.212C267.032,344.141,267.383,344.052,267.638,344.02z
			 M278.228,369.072c0.2,0.831,0.466,1.676,0.588,2.517c0.302,2.081,0.656,4.109,0.566,6.207c-0.052,1.235,0.187,2.375,0.4,3.577
			c0.028-0.027,0.121-0.12,0.123-0.15c0.276-3.667,0.043-7.181-0.645-10.781C279.137,369.794,278.745,369.424,278.228,369.072z
			 M265.884,389.948c0.161-0.537,0.321-1.075,0.482-1.612c-1.468-0.542-2.937-1.08-4.409-1.612c-0.135,0.404-0.27,0.808-0.405,1.213
			C262.949,388.739,264.348,389.451,265.884,389.948z M257.945,363.186c1.241,0.725,2.44,1.462,3.715,2.151
			c0.227,0.123,0.616,0.027,0.875,0.028c-0.747-0.58-1.643-0.673-2.201-1.494c0.505,0.005,1.01,0.01,1.515,0.016
			c0.326-1.314,1.248-1.667,2.197-2.495C262.013,361.99,259.981,362.59,257.945,363.186z M212.495,375.353
			c-0.855,1.254-1.692,2.171-1.414,3.774c0.023,0.133-0.009,0.297-0.01,0.443c-0.005,2.389,0.021,4.78,0.049,7.169
			C211.264,382.89,211.819,379.141,212.495,375.353z M293.063,393.65c-0.343,2.019-0.62,4.099-1.051,6.089
			c-0.431,1.991-1.014,3.879-1.532,5.836C292.761,402.03,293.502,397.814,293.063,393.65z M281.505,364.139
			c1.283,0.832,2.615,1.517,3.808,2.496c1.193,0.979,2.207,2.205,3.292,3.309c-1.022-2.322-2.476-3.993-4.485-5.524
			c-0.21-0.16-0.466-0.183-0.721-0.205C282.771,364.161,282.135,364.168,281.505,364.139z M255.111,415.12
			c-0.075,0.416-0.15,0.829-0.225,1.246c1.21,0.418,2.412,0.88,3.638,1.248c0.333,0.1,0.73,0.128,1.013-0.093
			c0.284-0.221,0.244-0.683,0.355-0.994C258.295,416.055,256.705,415.59,255.111,415.12z M254.212,353.47
			c0.043,0.01,0.033-0.109,0.067-0.119c-0.791-0.677-1.558-1.386-2.377-2.019c-1.582-1.223-3.173-2.408-4.772-3.607
			c-0.3-0.225-0.605-0.412-0.945-0.602c-0.482-0.27-0.89-0.147-1.322,0.176c0.712,0.421,1.422,0.864,2.171,1.214
			c1.997,0.934,3.484,2.194,4.88,3.9c0.248,0.303,0.58,0.512,0.969,0.678C253.274,353.256,253.793,353.375,254.212,353.47z
			 M229.685,353.783c-0.043-0.117-0.087-0.231-0.128-0.351c-1.183,0.213-2.341,0.325-3.515,0.644
			c-0.703,0.191-1.334,0.616-1.976,1.001c-0.163,0.098-0.261,0.418-0.352,0.586c0.599-0.09,1.152-0.362,1.665-0.645
			c0.873-0.482,1.464-0.279,2.187,0.361c0.202,0.178,0.331,0.586,0.472,0.829C228.588,355.406,229.136,354.591,229.685,353.783z
			 M231.154,351.343c-1.494-0.114-2.962-0.3-4.465-0.377c-0.68-0.035-1.181,0.275-1.666,0.769c-0.153,0.156-0.247,0.553-0.338,0.77
			c2.036-0.79,3.613-0.824,5.44,0.461C230.468,352.424,230.81,351.887,231.154,351.343z M238.643,388.673
			c0.251,0.718-0.248,0.842-0.62,1.358c0.143,0.328,0.285,0.656,0.427,0.984c0.971-0.408,1.942-0.817,2.912-1.225
			c-0.286-0.698-0.572-1.397-0.857-2.095C239.885,388.021,239.264,388.347,238.643,388.673z M259.504,418.831
			c-0.164,0.004-0.564,0.007-0.674,0.104c-0.769,0.68-1.508,0.439-2.289,0.081c-0.781-0.358-1.328-0.648-2.063-0.998
			c-0.025,0.401-0.066,0.797-0.096,1.196c1.595,0.527,3.19,1.053,4.786,1.579C259.279,420.14,259.398,419.483,259.504,418.831z
			 M267.737,365.346c0.116-0.742,0.233-1.484,0.349-2.227c-1.85,0.221-3.705,0.239-5.525,0.664
			C264.394,364.181,266.106,364.344,267.737,365.346z M243.277,406.211c0.052,0.003,0.199,0.086,0.234,0.067
			c0.077-0.042,0.246-0.443,0.22-0.477c-0.275-0.358-0.215-0.653-0.088-1.016c0.211-0.603,0.394-1.136,0.596-1.726
			c0.459-0.014,0.92-0.033,1.38-0.048c-0.117-0.46-0.233-0.92-0.351-1.381c-0.573,0.24-1.158,0.461-1.721,0.724
			c-0.107,0.05-0.196,0.224-0.226,0.313c-0.017,0.049,0.156,0.106,0.157,0.142c0.002,0.036,0.009,0.09-0.033,0.1
			c-0.365,0.088-0.766,0.15-1.143,0.23C242.626,404.164,242.947,405.185,243.277,406.211z M259.506,394.955
			c-0.047,0.115-0.094,0.231-0.141,0.346c1.287,0.991,2.78,1.592,4.167,2.425c0.165-0.589,0.329-1.177,0.494-1.766
			C262.519,395.625,261.013,395.29,259.506,394.955z M234.842,382.687c0.087-0.01,0.174-0.021,0.26-0.031
			c0.059-0.555,0.118-1.11,0.177-1.664c0.554-0.317,1.108-0.635,1.661-0.952c-0.164-0.372-0.328-0.744-0.492-1.116
			c-1.147,0.207-2.012,0.381-2.829,1.273c0.604,0.036,1.208,0.064,1.813,0.086c-0.001,0.064-0.001,0.129-0.002,0.194
			c-0.493,0.12-0.987,0.236-1.483,0.344C234.246,381.441,234.544,382.064,234.842,382.687z M252.703,427.88
			c-0.226-0.922-0.448-1.843-0.676-2.765c-0.451-0.01-0.979-0.037-1.411-0.025s-0.765,0.062-1.178,0.096
			c1.236,0.264,1.825,0.29,1.722,1.633c-0.634,0.09-1.268,0.179-1.901,0.271C250.396,427.715,251.399,428.032,252.703,427.88z
			 M244.435,410.278c1.106,0.892,2.441,1.466,3.876,1.441c-0.188-0.63-0.376-1.259-0.562-1.889
			C246.565,409.759,245.533,409.791,244.435,410.278z M275.913,355.257c-0.588,2.348-1.178,4.699-1.764,7.045
			c0.469,0.242,0.786,0.165,0.91-0.344c0.124-0.509,0.242-0.947,0.356-1.434C275.827,358.767,275.994,357.059,275.913,355.257z
			 M254.608,433.669c-0.942-0.663-1.992-0.725-2.499-1.863c-1.11,0.177-1.998,0.393-2.822,1.184c1.093,0.443,2.011,0.41,3.085-0.069
			C253.055,433.746,253.556,433.715,254.608,433.669z M174.793,359.826c0.713,0.195,0.272,0.804,0.691,1.235
			c0.839-0.756,1.685-1.482,2.522-2.247c0.22-0.202,0.385-0.496,0.568-0.737C177.159,358.437,175.94,358.903,174.793,359.826z
			 M282.591,363.469c0.037-0.116,0.074-0.225,0.115-0.34c-0.942-0.625-1.799-1.272-2.779-1.872c-0.49-0.3-0.909-0.085-1.199,0.405
			c0.566,0.338,1.212,0.702,1.692,1.135C281.104,363.416,281.723,363.447,282.591,363.469z M287.531,364.286
			c-1.45-1.883-3.004-3.518-4.938-4.905c-0.361,0.147-0.725,0.292-1.085,0.439c1.942,0.766,3.465,2.003,4.723,3.644
			C286.629,363.983,286.836,364.342,287.531,364.286z M249.544,428.304c-0.014-0.089-0.029-0.178-0.043-0.267
			c-0.597-0.119-1.195-0.239-1.792-0.358c0.247,1.402,0.495,2.803,0.742,4.205c0.423-0.33,0.845-0.66,1.268-0.99
			c-0.345-0.227-0.689-0.454-1.034-0.681C248.735,429.412,248.847,428.777,249.544,428.304z M290.712,398.275
			c0.676-2.332,1.031-4.604,0.993-7.041c-0.007-0.48-0.285-0.949-0.421-1.406c-0.1,0.018-0.192,0.041-0.289,0.061
			C291.35,392.72,290.967,395.453,290.712,398.275z M288.037,343.651c2.314-1.077,4.704-1.189,7.199-1.521
			C292.503,341.921,290.292,341.928,288.037,343.651z M227.499,341.56c2.06-1.618,4.258-2.098,6.785-2.649
			c-1.865,0.155-3.495,0.285-5.374,0.782C228.117,339.903,227.589,340.663,227.499,341.56z M231.983,357.031
			c-0.563-0.498-0.99-1.209-1.876-1c-0.661,0.156-1.13,0.77-1.225,1.47C230.103,357.754,230.826,357.513,231.983,357.031z
			 M241.551,391.147c0.068-0.051-0.116-0.194-0.087-0.262c-0.747,0.323-1.457,0.587-2.186,0.974
			c-0.174,0.092-0.342,0.498-0.288,0.694c0.267,0.962,0.605,1.856,0.923,2.789c0.098-0.031,0.196-0.053,0.292-0.086
			c-0.031-0.543-0.052-1.196-0.153-1.709c-0.214-1.083-0.064-1.696,0.929-2.17C241.179,391.282,241.407,391.255,241.551,391.147z
			 M254.632,440.926c-1.385-0.945-2.64-1.425-4.323-1.139c0.389,0.751,1.278,0.274,1.387,1.246
			C252.687,440.574,253.603,441.159,254.632,440.926z M249.029,345.856c-0.015,0.098-0.026,0.189-0.04,0.285
			c1.714,1.006,3.437,1.996,5.158,2.987c-0.012-0.051-0.009-0.142-0.047-0.178c-1.18-1.137-2.419-2.087-3.857-2.875
			C249.876,345.874,249.429,345.927,249.029,345.856z M275.837,362.792c0.43-1.16,1.176-1.958,2.104-2.733
			c0.674-0.562,1.242-1.142,1.872-1.737c-0.056-0.063-0.107-0.129-0.161-0.193C277.77,359.44,276.357,360.449,275.837,362.792z
			 M253.456,370.707c-0.004-0.086-0.008-0.172-0.012-0.257c-1.2-0.19-2.4-0.379-3.6-0.571c0.049,0.436,0.099,0.871,0.148,1.307
			C251.147,371.026,252.301,370.866,253.456,370.707z M183.276,358.886c0.051,0.071,0.103,0.142,0.154,0.213
			c1.535-1.293,3.096-2.553,4.651-3.823C186.082,355.679,184.532,357.392,183.276,358.886z M259.014,411.495
			c0.273,0.439,0.77,0.871,0.865,1.382c0.138,0.745-0.553,0.781-1.013,1.14c0.418,0.192,0.847,0.388,1.269,0.582
			c0.17-1.02,0.339-2.04,0.509-3.059C260.101,411.525,259.55,411.508,259.014,411.495z M245.779,357.004
			c0.297,0.581,0.593,1.162,0.89,1.743c0.448-0.42,0.896-0.841,1.345-1.261c-0.348-0.347-0.696-0.694-1.044-1.04
			C246.573,356.632,246.176,356.818,245.779,357.004z M249.341,440.582c0.215,1.089-0.115,2.151,0.259,3.217
			c0.915-0.799,0.792-1.664,0.709-2.786C249.986,440.87,249.663,440.726,249.341,440.582z M270.935,348.323
			c0.058-0.068,0.124-0.125,0.178-0.199c-0.596-0.791-1.314-1.786-1.909-2.508c-0.595-0.722-0.731-0.587-1.526-0.386
			C268.773,346.264,269.849,347.289,270.935,348.323z M262.622,385.188c-0.021,0.116-0.046,0.229-0.066,0.346
			c1.259,0.699,2.6,1.211,3.995,1.463c0.327,0.059,0.365-0.174,0.345-0.395C265.465,386.128,264.049,385.657,262.622,385.188z
			 M255.74,411.447c1.101,0.469,2.06,1.073,3.287,1.093c-0.933-0.847-2.043-1.315-3.146-1.898
			C255.833,410.911,255.786,411.179,255.74,411.447z M279.836,363.515c-0.422-0.204-1.005-0.502-1.4-0.681
			c-1.012-0.458-1.158-0.232-1.796,0.58C277.723,363.903,278.714,363.766,279.836,363.515z M251.502,446.573
			c0.917,0.47,1.654,0.804,2.642,0.341c-0.857-0.558-1.715-1.115-2.573-1.672C251.549,445.686,251.525,446.129,251.502,446.573z
			 M255.433,413.028c0.027,0.491,0.041,0.795,0.504,0.977c0.736,0.29,1.437,0.556,2.17,0.809c0.507,0.174,1.013,0.295,1.525,0.444
			C258.356,414.259,256.802,413.866,255.433,413.028z M240.486,396.559c0.02,0.109,0.033,0.215,0.051,0.323
			c1.05,0.074,2.014-0.114,3.004-0.435c-0.059-0.193-0.41-0.724-0.602-0.684C242.049,395.949,241.318,396.288,240.486,396.559z
			 M234.701,356.536c-0.738-0.701-1.411-1.487-2.191-2.158c-0.49-0.421-0.788,0.014-0.997,0.48c0.971,0.292,1.562,0.733,2.202,1.566
			C233.977,356.766,234.304,356.944,234.701,356.536z M232.736,358.777c0.954,1.128,1.932,2.25,2.901,3.374
			c-0.303-1.339-1.032-2.175-1.907-3.222C233.576,358.746,232.977,358.796,232.736,358.777z M268.257,340.9
			c-0.287,0.193-0.574,0.387-0.861,0.58c0.773,0.747,1.543,1.498,2.322,2.239c0.058-0.061,0.116-0.122,0.174-0.183
			C269.343,342.66,268.801,341.779,268.257,340.9z M263.288,398.59c-0.09-0.06-0.181-0.119-0.272-0.179
			c-0.3,0.917-0.686,1.495-1.701,1.564c0.465,0.445,0.93,0.891,1.394,1.337C262.902,400.404,263.095,399.496,263.288,398.59z
			 M265.302,378.714c-0.219,0.276-0.373,0.61-0.034,0.819c1.041,0.641,2.094,1.051,3.253,1.392
			C267.643,379.815,266.286,379.672,265.302,378.714z M295.767,373.991c-0.119-1.83-0.47-3.71-1.863-5.009
			C294.524,370.652,295.146,372.322,295.767,373.991z M249.7,446.245c-0.272,1.771-0.459,3.761,0.084,5.499
			c0.2-0.799,0.398-1.599,0.596-2.398C249.431,448.487,250.017,447.358,249.7,446.245z M247.248,412.305
			c-0.003-0.054-0.005-0.108-0.008-0.162c-0.95-0.155-1.9-0.309-2.85-0.463c0.141,0.407,0.283,0.814,0.424,1.221
			C245.626,412.702,246.437,412.504,247.248,412.305z M250.74,421.53c0.037-0.158,0.075-0.314,0.112-0.472
			c-1.127-0.546-2.2-0.329-3.395-0.169c0.096,0.091,0.28,0.311,0.401,0.327C248.836,421.346,249.773,421.426,250.74,421.53z
			 M251.912,443.923c0.522-0.156,1.044-0.312,1.566-0.469c-0.623-0.603-1.247-1.206-1.874-1.807
			C251.709,442.406,251.811,443.164,251.912,443.923z M208.423,352.366c-0.04,0.13-0.079,0.26-0.119,0.391
			c1.565,0.428,2.609,1.514,4.316,1.392C211.22,353.556,209.821,352.962,208.423,352.366z M219.277,381.758
			c-0.191,1.338-0.43,2.242,0.783,3.125C219.802,383.84,219.538,382.799,219.277,381.758z M253.51,428.844
			c0.391-0.062,0.859-0.097,1.22-0.169c0.053-0.011,0.062-0.131,0.016-0.152c-0.466-0.221-1.027-0.43-1.522-0.647
			c-0.168,0.625-0.329,1.251-0.493,1.876c0.429-0.084,0.857-0.168,1.285-0.252C253.848,429.281,253.676,429.062,253.51,428.844z
			 M203.817,394.536c-0.766,1.164-1.509,2.342-2.255,3.519c0.073,0.035,0.146,0.069,0.219,0.104
			C202.591,396.998,203.401,395.906,203.817,394.536z M260.54,402.11c0.582,0.402,1.164,0.804,1.746,1.206
			c0.107-0.536,0.214-1.073,0.32-1.609C261.917,401.841,261.229,401.976,260.54,402.11z M249.054,438.697
			c0.725-0.483,1.138-0.831,0.959-1.752c-0.343-0.037-0.687-0.075-1.03-0.112C249.007,437.455,249.031,438.076,249.054,438.697z
			 M214.42,372.729c-0.109-0.018-0.217-0.036-0.326-0.054c-0.674,1.053-0.187,2.021-0.037,3.162
			C214.177,374.8,214.299,373.765,214.42,372.729z M239.292,383.256c0.047,0.081,0.094,0.162,0.14,0.243
			c1.108-0.818,2.223-1.628,3.316-2.466c-0.041-0.07-0.081-0.14-0.122-0.21C241.45,381.563,240.327,382.326,239.292,383.256z
			 M249.752,356.4c0.585-0.324,1.159-0.657,1.74-0.986c-0.789-0.465-1.287-0.019-2.098,0.088c-0.035,0.005-0.147,0.139-0.098,0.234
			C249.383,355.903,249.63,356.205,249.752,356.4z M267.475,377.975c0.057-0.972-0.468-1.206-1.244-1.719
			C265.92,377.307,266.582,377.591,267.475,377.975z M271.485,369.714c0.062-0.047,0.124-0.095,0.186-0.142
			c-0.231-0.921-0.461-1.842-0.692-2.763c-0.138,0.7-0.276,1.4-0.415,2.1C270.872,369.177,271.178,369.445,271.485,369.714z
			 M267.313,373.3c-0.158,0.388-0.319,0.774-0.475,1.164c0.155,0.129,0.359,0.319,0.513,0.42c0.154,0.101,0.249,0.112,0.4,0.182
			C268.074,374.15,268.112,373.881,267.313,373.3z M221.814,349.778c0.688-0.996,1.004-1.814,0.82-3.033
			C222.204,347.788,221.725,348.615,221.814,349.778z M242.275,398.395c0.016,0.056,0.033,0.112,0.049,0.167
			c0.655,0.02,1.309,0.04,1.964,0.06c-0.126-0.284-0.252-0.569-0.379-0.853C243.365,397.978,242.82,398.186,242.275,398.395z
			 M269.82,351.131c-0.5-1.398-1.254-1.344-2.562-1.516C268.112,350.121,268.966,350.626,269.82,351.131z M277.127,371.244
			c0.098-0.007,0.189-0.023,0.284-0.033c-0.157-0.794-0.309-1.581-0.468-2.378c-0.367,0.178-0.661,0.246-0.487,0.75
			C276.63,370.087,276.924,370.718,277.127,371.244z M207.332,391.118c-0.091-0.993-0.174-1.985-0.245-2.979
			C206.53,389.253,206.703,390.081,207.332,391.118z M228.27,344.755c-0.989,0.214-2.403,0.402-2.533,1.622
			C226.581,345.836,227.426,345.296,228.27,344.755z M260.58,400.367c-0.666-0.687-1.255-1.45-2.251-1.565
			C258.912,399.663,259.67,399.947,260.58,400.367z M274.866,351.594c-0.057,0.308-0.127,0.635-0.174,0.942
			c-0.047,0.307-0.093,0.682-0.119,0.961c-0.025,0.28-0.014,0.44-0.024,0.698C274.856,353.448,275.776,352.175,274.866,351.594z
			 M249.682,429.697c0.929,0.312,1.752,0.546,2.717,0.265C251.345,430.06,250.753,429.182,249.682,429.697z M257.924,401.359
			c0.425,0.978,1.315,1.292,2.316,1.424C259.467,402.309,258.696,401.834,257.924,401.359z M219.094,342.473
			c0.074-0.013,0.147-0.027,0.221-0.04c0.056-1.113-0.006-2.069-0.557-3.056C218.869,340.409,218.981,341.441,219.094,342.473z
			 M228.412,343.495c-1.029-0.083-1.804-0.201-1.981,0.968C227.091,344.14,227.752,343.818,228.412,343.495z M245.268,354.716
			c-0.604-0.659-0.941-0.257-1.589,0.223C244.352,355.501,244.614,355.224,245.268,354.716z M251.026,452.428
			c0.026-0.036,0.145,0.03,0.157-0.023c0.117-0.501,0.27-1.029,0.31-1.556c0.04-0.527-0.234-0.569-0.642-0.321
			C250.91,451.162,250.966,451.791,251.026,452.428z M232.559,351.502c-1.161-0.064-1.289,0.746-1.449,1.748
			C231.593,352.667,232.076,352.085,232.559,351.502z M243.776,381.861c0.208-0.424,0.465-0.859,0.652-1.278
			c0.027-0.061-0.123-0.083-0.121-0.139c-0.523,0.427-1.032,0.852-1.549,1.278C243.097,381.768,243.434,381.815,243.776,381.861z
			 M245.311,414.497c0.896,0.585,1.14,0.576,1.768-0.3C246.49,414.297,245.9,414.397,245.311,414.497z M242.958,394.631
			c-0.06-0.129-0.202-0.589-0.338-0.62c-0.643-0.144-1.016,0.161-1.463,0.563C241.758,394.594,242.361,394.618,242.958,394.631z
			 M241.465,382.836c-0.936,0.389-1.671,0.697-1.77,1.783C240.285,384.025,240.875,383.43,241.465,382.836z M251.557,422.983
			c-0.731,0.064-1.454,0.123-2.189,0.191c-0.029,0.003-0.092,0.065-0.116,0.086C250.144,423.419,250.923,423.742,251.557,422.983z
			 M246.674,421.792c0.11,0.526,0.215,1.044,0.329,1.574c0.036-0.041,0.172,0.049,0.191-0.015c0.115-0.39,0.182-0.844,0.283-1.253
			C247.208,421.994,246.943,421.894,246.674,421.792z M281.871,373.15c-0.072,0.016-0.144,0.031-0.216,0.047
			c0.15,0.929,0.3,1.858,0.451,2.787c0.076-0.017,0.151-0.033,0.227-0.05C282.178,375.007,282.025,374.078,281.871,373.15z
			 M247.518,344.871c0.029,0.086,0.057,0.173,0.087,0.26c0.748-0.346,1.495-0.693,2.243-1.039c-0.027-0.082-0.054-0.164-0.082-0.246
			C249.016,344.188,248.267,344.53,247.518,344.871z M239.72,357.547c0.664,0.053,1.218,0.383,1.869,0.103
			c-0.002-0.098-0.005-0.197-0.007-0.295C240.961,357.419,240.34,357.483,239.72,357.547z M237.202,385.926
			c-0.691,0.612-0.27,0.895,0.101,1.546C237.27,386.957,237.236,386.442,237.202,385.926z M219.818,333.776
			c0.173-0.618,0.347-1.237,0.52-1.855C219.628,332.435,219.554,332.968,219.818,333.776z M247.464,358.732
			c0.656,0.446,0.975,0.181,1.562-0.22C248.395,358.095,248.083,358.542,247.464,358.732z M235.658,358.691
			c-0.063,0.062-0.125,0.124-0.188,0.186c0.402,0.366,0.806,0.732,1.209,1.098C236.609,359.22,236.345,358.945,235.658,358.691z
			 M268.015,371.801c0.814-0.02,0.72-0.736,0.808-1.419C268.553,370.855,268.284,371.328,268.015,371.801z M229.486,371.713
			c0.136,0.312,0.273,0.624,0.409,0.936c0.217-0.361,0.427-0.726,0.638-1.091C230.184,371.61,229.836,371.663,229.486,371.713z
			 M264.365,380.562c0.18,0.802,0.311,1.009,1.147,1.011C265.13,381.236,264.747,380.899,264.365,380.562z M289.209,367.72
			c-0.313-0.516-0.625-1.032-0.938-1.548C288.345,366.894,288.507,367.422,289.209,367.72z M250.478,357.475
			c0.015,0.108,0.03,0.216,0.045,0.325c0.563-0.044,0.911-0.383,1.287-0.774C251.366,357.176,250.922,357.325,250.478,357.475z
			 M203.997,345.156c0.026,0.016-0.014,0.112,0.025,0.115c0.467,0.031,1.008,0.049,1.462,0.061c0.038,0.001,0.039-0.109,0.001-0.112
			C205.019,345.189,204.487,345.176,203.997,345.156z M217.413,352.129c-0.042,0.067-0.084,0.134-0.126,0.2
			c0.418,0.419,0.649,0.62,1.258,0.411C218.167,352.537,217.79,352.333,217.413,352.129z M194.813,341.727
			c0.009,0-0.017-0.014-0.029-0.015c-0.39-0.03-0.776-0.07-1.176-0.088c-0.025-0.001-0.098,0.127-0.108,0.156
			C193.933,341.763,194.384,341.747,194.813,341.727z M219.92,353.1c0.342,0.215,0.683,0.429,1.024,0.644
			C220.823,353.07,220.586,352.868,219.92,353.1z M268.655,374.516c-0.044,0.582-0.145,0.91,0.488,1.018
			C268.98,375.195,268.817,374.856,268.655,374.516z M291.079,388.898c0.069-0.568-0.049-0.782-0.414-1.22
			C290.804,388.084,290.942,388.491,291.079,388.898z M267.486,366.622c0.35,0.003,0.701,0.007,1.052,0.011
			c-0.28-0.242-0.559-0.485-0.839-0.727C267.628,366.146,267.557,366.384,267.486,366.622z M212.543,347.527
			c0.026-0.069,0.052-0.139,0.079-0.208c-0.399-0.221-0.798-0.441-1.197-0.661c-0.033,0.087-0.065,0.174-0.098,0.261
			C211.732,347.121,212.137,347.324,212.543,347.527z M295.958,335.803c0.041-0.052-0.117-0.159-0.112-0.216
			c-0.171,0.177-0.435,0.409-0.565,0.575c-0.036,0.046,0.088,0.199,0.129,0.166C295.549,336.213,295.833,335.965,295.958,335.803z
			 M244.611,379.835c0.069,0.095,0.136,0.189,0.207,0.284c0.226-0.275,0.509-0.548,0.712-0.825c0.038-0.052-0.112-0.112-0.102-0.165
			C245.148,379.364,244.884,379.6,244.611,379.835z M272.565,342.745c0,0.029,0.087,0.023,0.089-0.005
			c0.019-0.356,0.033-0.796,0.039-1.152c0-0.029-0.087-0.026-0.089,0.002C272.586,341.947,272.571,342.389,272.565,342.745z
			 M220.158,329.346c-0.071-0.021-0.143-0.043-0.214-0.064c-0.092,0.406-0.185,0.813-0.277,1.219c0.06,0.018,0.12,0.036,0.181,0.054
			C219.951,330.152,220.054,329.749,220.158,329.346z M267.934,377.724c-0.072,0.111-0.138,0.221-0.208,0.332
			c0.224,0.148,0.438,0.298,0.668,0.445c-0.011-0.063,0.149-0.15,0.106-0.208C268.356,378.096,268.106,377.915,267.934,377.724z
			 M249.222,434.291c0.021-0.078-0.075-0.263-0.128-0.256c-0.096,0.013-0.363,0.16-0.421,0.294c-0.058,0.134,0.169,0.401,0.226,0.52
			C248.976,434.687,249.182,434.438,249.222,434.291z M205.304,353.144c0.049,0.002,0.062-0.191,0.014-0.203
			c-0.169-0.042-0.574-0.106-0.743-0.113c-0.052-0.002-0.067,0.205-0.016,0.218C204.727,353.087,205.132,353.138,205.304,353.144z
			 M190.076,355.025c0.05-0.039-0.089-0.156-0.073-0.205c-0.214,0.146-0.496,0.319-0.676,0.462c-0.037,0.029,0.032,0.158,0.07,0.138
			C189.579,355.323,189.902,355.159,190.076,355.025z M241.374,392.469c-0.041,0.024,0.055,0.212,0.101,0.201
			c0.122-0.027,0.463-0.159,0.568-0.222c0.042-0.025-0.022-0.237-0.07-0.225C241.846,392.252,241.488,392.401,241.374,392.469z
			 M221.874,356.778c0.15,0.215,0.3,0.43,0.45,0.644C222.567,356.896,222.45,356.703,221.874,356.778z M266.052,349.339
			c-0.015-0.065,0.139-0.227,0.084-0.276c-0.125-0.111-0.447-0.244-0.584-0.306c-0.041-0.018-0.12,0.139-0.08,0.174
			C265.611,349.056,265.875,349.214,266.052,349.339z M257.566,406.08c-0.324-0.305-0.468-0.525-0.876-0.18
			C256.982,405.96,257.274,406.02,257.566,406.08z M246.956,419.358c-0.558,0.061-0.615,0.145-0.509,0.695
			C246.617,419.821,246.786,419.59,246.956,419.358z M267.166,367.614c-0.045,0.05,0.12,0.171,0.114,0.228
			c0.164-0.141,0.428-0.328,0.551-0.462c0.039-0.043-0.062-0.211-0.105-0.185C267.593,367.277,267.286,367.482,267.166,367.614z
			 M226.39,366.952c-0.048-0.014-0.123,0.201-0.087,0.234c0.074,0.069,0.354,0.207,0.458,0.248c0.042,0.017,0.075-0.185,0.064-0.193
			C226.713,367.155,226.487,366.979,226.39,366.952z M200.791,355.423c0.034-0.033-0.083-0.175-0.12-0.147
			c-0.129,0.096-0.38,0.338-0.498,0.461c-0.026,0.027,0.05,0.141,0.08,0.119C200.392,355.757,200.674,355.539,200.791,355.423z
			 M306.609,355.158c0.022-0.001,0.061-0.142,0.011-0.146c-0.134-0.01-0.451,0-0.598,0.011c-0.03,0.002-0.034,0.114-0.001,0.116
			C306.177,355.154,306.449,355.165,306.609,355.158z M293.146,380.457c0.003,0.045,0.162,0.062,0.162,0.017
			c0.001-0.191-0.032-0.536-0.051-0.741c-0.003-0.027-0.094-0.023-0.095,0.004C293.152,379.938,293.135,380.271,293.146,380.457z
			 M267.393,358.725c-0.03-0.024-0.114,0.096-0.088,0.125c0.111,0.123,0.352,0.355,0.476,0.456c0.031,0.025,0.115-0.101,0.088-0.132
			C267.759,359.053,267.517,358.826,267.393,358.725z M217.937,347.208c-0.046-0.025-0.142,0.153-0.099,0.195
			c0.137,0.137,0.423,0.32,0.604,0.462c-0.01-0.063,0.161-0.207,0.109-0.258C218.418,347.476,218.082,347.286,217.937,347.208z
			 M273.215,360.233c0.033-0.187,0.132-0.513,0.087-0.685c-0.045-0.172-0.185-0.288-0.268-0.373
			c-0.027-0.028-0.126,0.038-0.113,0.094C272.988,359.554,273.128,359.93,273.215,360.233z M232.264,360.646
			c-0.029-0.038-0.158,0.074-0.134,0.115c0.107,0.185,0.336,0.522,0.466,0.689c0.028,0.036,0.15-0.073,0.127-0.113
			C232.614,361.152,232.391,360.813,232.264,360.646z M270.093,362.033c0.008,0.062-0.163,0.185-0.116,0.239
			c0.123,0.142,0.415,0.327,0.557,0.429c0.033,0.024,0.115-0.102,0.085-0.138C270.485,362.403,270.259,362.199,270.093,362.033z"/>
		<path d="M195.761,320.942c0.584,0.202,1.17,0.408,1.751,0.608c-0.269-0.527-0.668-0.944-1.218-1.132
			c-0.718-0.246-1.426-0.298-2.101-0.602c-0.948-0.427-1.811-0.973-2.712-1.484c-1.648-0.934-3.281-1.862-4.928-2.811
			c-0.413-0.238-0.821-0.536-1.172-0.871c2.148-0.046,4.08,0.267,6.03,1.214c1.95,0.947,3.536,2.44,5.285,3.697
			c-1.322-1.741-2.978-3.139-4.051-5.069c1.063,1.002,2.126,2.005,3.189,3.004c-0.389-1.044-0.952-1.972-1.626-2.845
			c-1.002-1.298-1.976-2.504-2.917-3.863c-0.324-0.469-0.454-1.147-0.56-1.719c2.17,1.361,3.841,3.247,5.725,4.961
			c-0.173-0.445-0.347-0.889-0.52-1.335c1.453,1.404,2.66,2.929,3.762,4.625c1.102,1.696,2.154,3.47,3.167,5.215
			c1.013,1.745,1.953,3.51,2.927,5.254c0.28-0.442,0.049-0.995-0.108-1.349c-1.343-3.028-2.626-5.928-3.996-8.888
			c-0.445-0.961-1-1.819-1.462-2.779c-0.27-0.562-0.427-1.199-0.556-1.816c1.129,0.608,1.814,1.552,2.521,2.594
			c1.628,2.397,2.719,4.991,3.904,7.631c0.732,1.631,1.386,3.264,2.017,4.975c0.354,0.96,0.615,2.11,0.895,3.12
			c-1.181-0.122-2.487-0.137-3.624-0.423c-1.983-0.499-3.856-1.147-5.774-1.761c-2.767-0.885-5.491-1.574-8.355-2.117
			c-0.923-0.175-1.834-0.317-2.582-0.965c1.04-0.131,2.054-0.249,3.101-0.402c1.048-0.153,2.074-0.469,3.157-0.482
			c1.083-0.012,2.16,0.23,3.237,0.415c1.6,0.275,3.209,0.583,4.83,0.75c-0.759-0.263-1.48-0.492-2.239-0.79
			c-0.76-0.298-1.523-0.7-2.301-0.992c-1.164-0.437-2.329-0.872-3.519-1.253c-2.812-0.9-5.624-1.38-8.582-1.748
			c2.503-0.679,4.029-0.429,6.869-0.037c1.543,0.213,4.764,0.715,6.434,1.65c-0.889-0.699-1.867-1.169-3.009-1.566
			c-0.347-0.121-0.825-0.097-0.866-0.638C195.767,320.926,195.77,320.934,195.761,320.942z M200.044,319.985
			c0.089,1.986,0.665,3.288,2.454,4.251C201.683,322.817,200.863,321.401,200.044,319.985z M205.557,328.564
			c0.369,0.306,0.738,0.612,1.107,0.918C206.654,328.633,206.398,328.314,205.557,328.564z M203.656,326.573
			c-0.046,0-0.076,0.18-0.031,0.188c0.152,0.029,0.517,0.056,0.675,0.055c0.043-0.001,0.055-0.17,0.013-0.178
			C204.162,326.608,203.808,326.571,203.656,326.573z"/>
		<path d="M204.435,371.716c-0.196,0.264-0.393,0.528-0.59,0.789c-1.059,0.529-1.722,1.089-2.134,2.245
			c-0.334,0.938-0.898,1.832-1.356,2.726c-0.891,1.742-1.44,3.61-2.001,5.464c-0.496,1.639-0.956,3.19-1.485,4.834
			c-0.085,0.265-0.34,0.663-0.486,0.931c-0.072-0.517-0.141-1.047-0.209-1.567c-0.434,0.656-0.227,1.245-0.229,1.971
			c-0.002,0.726,0.006,1.486,0.048,2.188c0.042,0.702,0.092,1.322,0.098,2.009c-0.505-0.653-0.829-1.369-0.996-2.165
			c-0.166-0.796-0.251-1.536-0.513-2.297c-0.369,2.042-0.702,4.117-1.064,6.141c-0.411-1.736-0.441-4.116-0.215-5.757
			c0.3-2.177,0.591-3.775,0.83-5.843c-1.521,3.343-2.118,6.716-2.622,10.317c-0.76-2.02-1.089-3.887-0.737-6.033
			c-1.095,3.586-1.967,7.228-2.9,10.858c-0.094-0.014-0.188-0.028-0.281-0.042c0.02-1.258,0.04-2.515,0.06-3.773
			c-0.066,0-0.133-0.001-0.199-0.001c-0.093,2.178-0.186,4.357-0.278,6.536c-0.029,0.013-0.058,0.018-0.087,0.036
			c-0.126-0.956-0.271-1.77-0.36-2.762c-0.089-0.993-0.105-2.139-0.189-3.174c-0.017-0.207-0.183-0.421-0.273-0.608
			c0.102-0.447,0.229-0.896,0.32-1.342c0.273-1.327,0.532-2.648,0.797-3.975c-0.803,1.391-1.034,2.864-1.362,4.418
			c-0.102,0.483-0.07,1-0.094,1.493c-0.727,2.902-0.608,5.509,0.128,8.405c0.158,0.621,0.39,1.291,0.566,1.918
			c-2.575-2.989-2.553-6.436-2.075-10.195c-0.298,0.805-0.618,1.575-0.884,2.397c-0.266,0.822-0.475,1.667-0.707,2.512
			c-0.232,0.845-0.475,1.722-0.791,2.541c-0.167-1.765-0.03-3.563,0.483-5.241c0.981-3.208,2.306-6.132,4.095-8.909
			c1.29-2.003,2.668-3.751,4.337-5.386c1.497-1.467,2.817-2.985,4.323-4.417c2.558-2.432,5.166-4.812,8.071-6.825
			C203.765,371.933,204.119,371.861,204.435,371.716z M198.371,377.522c-0.021,0.054,0.109,0.092,0.111,0.145
			c0.144-0.26,0.287-0.498,0.416-0.771c0.006-0.012-0.117-0.129-0.142-0.138C198.636,377.008,198.469,377.271,198.371,377.522z
			 M191.828,384.235c-0.008,0.027,0.093,0.066,0.105,0.04c0.062-0.144,0.159-0.4,0.203-0.548c0.009-0.03-0.104-0.074-0.117-0.045
			C191.959,383.824,191.871,384.083,191.828,384.235z"/>
		<path d="M212.027,372.539c-0.057,0.083-0.109,0.174-0.184,0.241c-1.484,1.316-3.023,2.583-4.484,3.921
			c-1.245,1.14-2.379,2.271-3.616,3.456c-0.425,0.407-1.063,0.859-1.548,1.234c0.423-1.211,0.979-2.498,1.732-3.515
			c1.734-2.341,3.684-3.957,6.169-5.394c0.805-0.466,1.528-0.996,2.289-1.519c0.33-0.227,0.666-0.426,1.003-0.644
			c-0.156,0.276-0.244,0.589-0.413,0.857C212.681,371.642,212.341,372.085,212.027,372.539z"/>
		<path d="M262.508,452.428c0.731-0.753,1.269-1.234,2.225-0.543c-0.066,0.084-0.271,0.334-0.367,0.329
			c-1.046-0.053-1.52,0.531-2.061,1.328c-0.137,0.202-0.28,0.359-0.434,0.552c-0.356-0.201-0.522-0.286-0.399-0.777
			c0.124-0.491,0.31-1.094,0.434-1.656c0.228-1.035,0.456-2.154,0.675-3.204c0.082,0.071,0.289,0.218,0.281,0.329
			c-0.045,0.615-0.187,1.276-0.271,1.851c-0.084,0.575-0.183,1.051-0.24,1.596C262.342,452.321,262.493,452.347,262.508,452.428z"/>
		<path d="M245.262,455.194c-0.343-0.142-0.795-0.23-1.044-0.511c-0.498-0.561-1.039-0.73-1.084-1.551
			C244.695,453.007,245.09,453.727,245.262,455.194z"/>
		<path d="M262.356,454.473c0.104-0.941,1.021-1.129,1.264-2.001c0.08,0.018,0.159,0.036,0.238,0.053
			c0.053,0.866,0.107,1.731,0.161,2.597C263.464,454.906,262.91,454.69,262.356,454.473z"/>
		<path d="M186.322,344.066c-0.105-0.268-0.289-0.655-0.278-0.923c0.012-0.268,0.219-0.652,0.432-0.686
			c0.644-0.104,1.057-0.059,1.519,0.391C187.636,343.62,187.107,343.849,186.322,344.066z"/>
		<path d="M279.743,392.032c0.556,1.148,0.901,2.01,0.346,3.233C279.122,394.232,279.659,393.286,279.743,392.032z"/>
		<path d="M182.635,320.322c0.044-0.412-0.027-0.798,0.535-0.828c0.562-0.03,1.288,0.041,1.881,0.043
			C184.649,320.644,183.638,320.452,182.635,320.322z"/>
		<path d="M271.547,375.815c0.581-1.461,1.162-2.922,1.741-4.384C273.147,373.084,272.673,374.57,271.547,375.815z"/>
		<path d="M326.407,363.97c-0.583-0.242-1.165-0.483-1.747-0.725c0.381-0.364,0.762-0.729,1.143-1.093
			c0.271,0.528,0.541,1.055,0.812,1.583C326.545,363.813,326.476,363.891,326.407,363.97z"/>
		<path d="M230.665,322.174c-0.314-0.594-0.528-1.116,0.151-1.492c0.388-0.215,0.749-0.363,1.186-0.426
			C231.557,320.898,231.111,321.536,230.665,322.174z"/>
		<path d="M195.727,375.299c-0.349,0.551-0.7,1.1-1.055,1.646c-0.064-0.526-0.126-1.052-0.188-1.578
			C194.899,375.345,195.314,375.322,195.727,375.299z"/>
		<path d="M194.939,401.551c-0.262,0.413-0.524,0.827-0.786,1.24C193.641,401.945,194.118,401.838,194.939,401.551z"/>
		<path d="M170.904,360.12c0.596-0.263,1.192-0.525,1.788-0.788C172.236,360.279,171.919,360.297,170.904,360.12z"/>
		<path d="M226.557,392.523c0.192,0.51,0.388,1.018,0.591,1.524C226.295,393.597,226.154,393.414,226.557,392.523z"/>
		<path d="M297.105,351.168c0.361-0.615,0.39-1.02,1.226-0.823c-0.36,0.338-0.719,0.675-1.079,1.013
			C297.203,351.295,297.154,351.231,297.105,351.168z"/>
		<path d="M195.78,320.919c-0.81-0.067-1.621-0.132-2.431-0.198c0.013-0.091,0.025-0.183,0.038-0.275
			c0.789,0.168,1.578,0.339,2.369,0.499C195.763,320.947,195.773,320.922,195.78,320.919z"/>
		<path d="M192.517,320.378c-0.339-0.004-0.757-0.016-1.095-0.033c-0.027-0.001-0.026-0.081,0.001-0.081
			c0.339,0.004,0.757,0.016,1.095,0.033C192.545,320.299,192.544,320.378,192.517,320.378z"/>
		<path d="M203.841,365.656c0.263,0.729-0.195,0.694-0.532,1.211c-0.062-0.046-0.125-0.093-0.187-0.139
			c0.25-0.349,0.505-0.697,0.746-1.049C203.872,365.673,203.842,365.662,203.841,365.656z"/>
		<path d="M214.291,326.571c0.013,0.311,0.026,0.621,0.041,0.932C214.052,327.143,213.958,326.943,214.291,326.571z"/>
		<path d="M216.001,359.578c-0.171,0.254-0.364,0.597-0.531,0.816c-0.03,0.039-0.152-0.053-0.132-0.099
			c0.121-0.273,0.329-0.62,0.474-0.913C215.878,359.445,215.939,359.51,216.001,359.578z"/>
		<path d="M233.984,336.067c-0.734-0.092-1.331,0.08-1.973,0.434c-0.667,0.14-1.338,0.28-2.004,0.415
			c1.247-0.831,2.632-1.171,4.075-1.445c2.225-0.422,4.342-0.402,6.58-0.234c-1.357,0.126-2.711,0.219-4.065,0.379
			C235.721,335.72,234.853,335.912,233.984,336.067z"/>
		<path d="M257.63,331.577c1.271,0.993,2.567,1.86,3.584,3.13c-0.049,0.073-0.097,0.145-0.146,0.218
			c-1.201-1.039-2.401-2.078-3.602-3.116C257.521,331.732,257.575,331.655,257.63,331.577z"/>
		<path d="M257.624,325.563c0.207-0.833,0.373-0.91,1.22-0.806C258.719,325.592,258.327,325.474,257.624,325.563z"/>
		<path d="M253.925,423.422c0.677,0.088,1.355,0.175,2.033,0.263c-0.639-0.334-1.279-0.668-1.918-1.003
			c1.306-0.546,2.404,0.061,3.295,1.045c-0.229,0.036-0.513,0.055-0.721,0.098c-0.034,0.007-0.046,0.097-0.01,0.107
			c0.442,0.113,0.959,0.203,1.415,0.314c-0.108,0.536-0.489,0.995-1.028,0.934c-1.284-0.147-2.175-0.628-3.144-1.413
			C253.877,423.649,253.898,423.536,253.925,423.422z"/>
		<path d="M253.393,423.329c-0.002,0.319-0.001,0.692-0.011,1.003c-0.001,0.026-0.08,0.023-0.079-0.003
			c0.009-0.31,0.033-0.681,0.052-0.999C253.355,423.317,253.393,423.316,253.393,423.329z"/>
		<path d="M237.309,375.026c0.24-0.981,0.298-1.512,1.38-1.266C238.23,374.185,237.769,374.605,237.309,375.026z"/>
		<path d="M262.024,353.811c0.419-0.283,0.504,0.074,0.66,0.425c-0.212-0.153-0.424-0.312-0.64-0.456
			C262.038,353.776,262.03,353.809,262.024,353.811z"/>
	</g>
</svg>