<svg xmlns="http://www.w3.org/2000/svg" viewBox="174.065 118.509 143.678 168.835">
<g>
		<path d="M228.71,157.791c-0.271,0.154-0.541,0.308-0.85,0.484c0.049,0.174,0.169,0.388,0.15,0.59
			c-0.017,0.18-0.187,0.346-0.407,0.715c0.569-0.12,0.953-0.2,1.352-0.284c0.031,0.127,0.073,0.256,0.092,0.388
			c0.066,0.439,0.383,0.634,0.747,0.541c0.425-0.109,0.458-0.483,0.286-0.857c-0.222-0.48-0.249-0.934,0.134-1.382
			c0.569,0.228,0.819,0.702,1.036,1.175c0.192,0.42,0.305,0.876,0.557,1.288c0.219-0.564,0.733-1.058,0.198-1.655
			c0.332-0.745,0.004-1.54,0.16-2.3c1.769,0.374,1.839,0.582,1.527,1.557c0.694,0.28,1.383,0.558,2.185,0.881
			c0.154-0.135,0.434-0.38,0.746-0.652c0.34,0.05,0.81,0.118,1.484,0.217c0.798,0.85,1.757,1.871,2.774,2.955
			c0.199-0.039,0.463-0.09,0.783-0.153c0.2,0.301,0.41,0.62,0.621,0.938c0.388-0.031,0.782-0.063,1.268-0.103
			c-0.111,0.808,0.659,1.532-0.193,2.227c0.277,0.169,0.505,0.308,0.752,0.458c1.726-3.514,1.228-7.083,0.589-10.728
			c-0.356,0.121-0.58,0.198-0.852,0.29c-0.384-0.509-0.8-0.924-1.539-0.842c-0.268,0.03-0.571-0.245-0.932-0.415
			c-0.068,0.082-0.144,0.181-0.226,0.275c-0.347,0.399-0.744,0.283-1-0.036c-0.234-0.291-0.364-0.742,0.027-1.032
			c0.427-0.316,0.626-0.65,0.402-1.16c-1.155-0.165-1.416,0.087-1.359,1.167c0.044,0.82-0.001,1.644-0.007,2.511
			c-0.654,0.156-0.939-0.438-1.048-0.926c-0.116-0.517,0.059-1.099,0.098-1.547c-0.627-0.253-1.196-0.482-1.824-0.735
			c-0.161,0.62-0.32,1.231-0.535,2.061c-0.284-0.383-0.475-0.548-0.539-0.752c-0.081-0.259-0.142-0.538-0.453-0.391
			c-0.131,0.062-0.149,0.389-0.189,0.602c-0.018,0.097,0.034,0.207,0.067,0.378c-0.278-0.002-0.541-0.004-0.862-0.006
			c-0.039-0.392-0.076-0.77-0.124-1.249c-0.424,0.297-0.814,0.295-1.216-0.246c0.876,0.214,1.043-0.306,1.169-0.897
			c-0.225-0.279-0.443-0.55-0.669-0.829c-0.441,0.913-0.732,1.038-1.631,0.754c-0.498-0.158-1.004-0.29-1.618-0.466
			c-0.036-0.105-0.113-0.332-0.207-0.61c0.315-0.146,0.622-0.288,1.02-0.472c-0.116-0.243-0.219-0.67-0.339-0.675
			c-0.554-0.023-0.758-0.492-1.098-0.761c-0.667-0.528-0.629-0.797,0.126-1.359c-0.373-0.317-0.73-0.393-1.099-0.05
			c-0.252,0.235-0.47,0.507-0.708,0.758c-0.438,0.461-1.063,0.435-1.275-0.129c-0.236-0.626-0.674-1.048-1.106-1.511
			c-0.691-0.743-0.569-1.18,0.41-1.499c0.868-0.283,1.753-0.512,2.714-0.789c-0.648-0.899-0.393-1.766,0.193-2.612
			c-0.896-0.553-1.138-1.275-0.929-2.279c0.176-0.842-0.033-1.786,0.899-2.398c1.007,0.414,2.077-0.672,3.265,0.235
			c-0.098-0.512-0.158-0.83-0.232-1.214c0.39-0.105,0.765-0.207,1.218-0.329c-0.344-0.503-0.627-0.916-0.963-1.407
			c-0.436,0.352-0.845,0.674-1.245,1.006c-0.698,0.58-1.61,0.435-2.086-0.337c-0.327-0.53-0.107-1.137,0.558-1.329
			c0.843-0.244,1.719-0.493,2.501,0.376c0.139-0.348,0.237-0.595,0.337-0.846c-0.356-0.289-0.693-0.561-1.109-0.899
			c0.567-0.157,1.067-0.205,1.465-0.431c0.371-0.21,0.635-0.609,0.941-0.92c-0.313-0.355-0.562-0.636-0.876-0.992
			c0.354-0.094,0.609-0.162,0.717-0.191c0.37-0.771,0.696-1.45,1.062-2.211c0.615,0.108,1.116,0.198,1.619,0.282
			c0.1,0.017,0.223,0.045,0.303,0.004c0.993-0.502,1.63,0.223,2.46,0.678c-0.164,0.407-0.316,0.782-0.502,1.241
			c0.187,0.151,0.42,0.339,0.702,0.566c0.242-0.198,0.49-0.342,0.659-0.551c0.255-0.316,0.512-0.337,0.914-0.307
			c0.678,0.051,1.37-0.072,2.056-0.133c1.553-0.138,2.469,0.676,2.491,2.217c0.001,0.066,0.049,0.13,0.113,0.289
			c0.638-0.171,1.005,0.148,1.246,0.771c0.353,0.916,1.204,1.255,2.043,1.578c-0.051,0.219-0.103,0.438-0.188,0.801
			c0.312-0.25,0.499-0.399,0.661-0.529c0.287,0.213,0.57,0.423,0.852,0.632c0.057-0.041,0.113-0.083,0.17-0.124
			c-0.022-0.118-0.028-0.242-0.068-0.353c-0.157-0.437-0.402-0.962,0.091-1.247c0.627-0.363,1.101-1.184,2.05-0.797
			c0.702,0.286,0.786,0.436,0.5,1.281c-0.147-0.092-0.293-0.183-0.436-0.272c-0.159,0.238-0.312,0.467-0.519,0.777
			c0.411,0.074-0.215,1.035,0.712,0.72c0.56,0.432,1.525,0.527,1.325,1.593c-0.106,0.065-0.313,0.144-0.307,0.191
			c0.044,0.295,0.136,0.582,0.242,0.986c0.549-0.12,1.046-0.228,1.543-0.336c0.008-0.085,0.017-0.171,0.025-0.256
			c-0.218-0.088-0.526-0.315-0.639-0.241c-0.534,0.349-0.658-0.125-0.901-0.374c0.909-0.643,1.651-0.027,2.399,0.294
			c-0.073,0.454-0.142,0.886-0.212,1.318c0.44,0.003,0.842-0.021,1.239,0.019c0.209,0.021,0.424,0.13,0.598,0.253
			c0.058,0.042,0.042,0.335-0.02,0.37c-0.193,0.11-0.423,0.184-0.644,0.205c-0.133,0.013-0.278-0.099-0.53-0.2
			c0.37,0.56,0.65,0.985,0.932,1.412c0.101-0.651,0.669-0.708,1.175-0.914c0.021-0.213,0.044-0.448,0.065-0.661
			c0.64-0.396,0.791,0.203,1.122,0.548c0.228-0.253,0.433-0.482,0.723-0.805c0.031,0.331,0.056,0.583,0.094,0.985
			c-0.468,0.082-0.929,0.162-1.518,0.266c-0.03,0.126-0.1,0.418-0.189,0.794c0.942-0.42,1.094,0.525,1.617,0.876
			c-0.305-0.002-0.61-0.004-0.875-0.006c0.486,0.608,0.889,1.314,0.915,2.252c-0.699,0.044-0.93-1.236-1.798-0.496
			c0.17,0.234,0.345,0.473,0.547,0.751c-0.203,0.12-0.407,0.241-0.709,0.419c0.431,0.057,0.763,0.101,1.131,0.15
			c0.262,0.617,0.533,1.255,0.804,1.895l-0.033-0.038c-0.076,0.4,0.021,0.717,0.46,0.804c0.728,0.144,1.29,0.463,1.41,1.396
			c0.232-0.297,0.373-0.478,0.515-0.661c0.874,0.858,0.874,0.858,0.968,1.837c-0.515-0.23-0.95-0.425-1.451-0.649
			c-0.413,0.879-1.371,0.842-2.15,1.078c-1.096,0.331-2.109,0.759-2.984,1.503c0.013,0.279,0.026,0.548,0.044,0.933
			c0.376,0.079,0.771,0.163,1.202,0.254c-0.456,0.839-1.297,0.763-2.018,0.809c-0.574,0.036-0.723-0.365-0.611-1.305
			c-0.264-0.185-0.592-0.391-0.734,0.074c-0.242,0.79-0.391,1.609-0.567,2.367c-0.476,0.367-0.9,0.859-1.432,1.055
			c-0.523,0.192-1.157,0.081-1.813,0.105c0.028,0.197,0.056,0.392,0.102,0.711c-0.416,0.033-0.836,0.065-1.327,0.104
			c-0.599,0.498-0.926,1.217-1.12,2.069c-0.45,1.975-1.409,3.754-2.305,5.552c-0.142,0.284-0.293,0.563-0.48,0.922
			c0.666,0.692,1.342,1.394,2.048,2.128c0.218,0.001,0.486,0.003,0.852,0.006c-0.292,0.469-0.775,0.713-0.529,1.35
			c0.207-0.172,0.37-0.307,0.559-0.463c0.129,0.265,0.256,0.524,0.418,0.856c0.298-0.214,0.542-0.39,0.761-0.548
			c0.428,0.007,0.985,0.623,0.79,0.95c-0.355,0.594,0.064,1.124-0.042,1.725c0.413-0.297,0.698-0.846,1.386-0.477
			c-0.015,0.257-0.033,0.554-0.051,0.841c-0.417,0.196-1.056-0.108-1.082,0.61l0.021-0.029c-0.322,0.406-0.644,0.811-1.051,1.324
			c-0.117-0.368-0.202-0.636-0.334-1.053c-0.23,0.649-0.415,1.172-0.633,1.785c-1.194-0.09-2.441-0.069-3.044,1.37
			c0.684,0.419,1.215-0.271,1.887-0.299c0.402,0.865-0.181,1.551-0.285,2.413c-0.353-0.087-0.629-0.155-1.102-0.271
			c0.405-0.197,0.616-0.3,0.867-0.422c-0.607-0.689-1.038,0.208-1.629,0.012c-0.122-0.233-0.278-0.533-0.458-0.877
			c-0.262,0.098-0.505,0.189-0.832,0.311c0.135,0.161,0.199,0.312,0.301,0.344c0.411,0.132,0.469,0.406,0.305,0.737
			c-0.154,0.312-0.658,0.386-0.91,0.073c-0.25-0.311-0.404-0.721-0.52-1.111c-0.107-0.363-0.108-0.758-0.15-1.136
			c0.239,0.063,0.499,0.075,0.7,0.191c0.572,0.329,0.931,0.054,1.404-0.401c-0.587-0.118-1.042-0.21-1.481-0.298
			c-0.208,0.176-0.41,0.346-0.611,0.515c-0.084-0.625-0.041-0.677,0.755-0.853c-0.029-0.248-0.059-0.502-0.113-0.958
			c-0.935,0.791-1.618,1.679-2.767,1.776c-0.057-0.27-0.137-0.646-0.216-1.021c-0.073-0.005-0.146-0.011-0.219-0.016
			c-0.535,1.28-1.123,2.541-1.591,3.845c-0.523,1.459-0.961,2.95-1.393,4.439c-0.284,0.979-0.527,1.973-0.724,2.973
			c-0.159,0.807-0.092,0.777,0.661,1.177c0.727,0.387,1.384,0.573,1.977-0.161c0.924,0.222,1.012,1.063,1.316,1.7
			c0.079,0.166-0.127,0.531-0.29,0.735c-0.308,0.384-0.679,0.717-1.031,1.078c0.565,1.181,0.176,2.091-1.394,3.059
			c-0.287-0.252-0.594-0.522-0.908-0.799c-1.276,0.508-0.595,1.664-0.892,2.456c0.82,0.781,1.816,0.898,2.77,1.042
			c0.801,0.12,1.6,0.25,1.933,1.042c0.231,0.551,0.886-0.218,0.951,0.433c0.874-0.018,1.099,0.592,1.252,1.282
			c0.021,0.096,0.111,0.177,0.225,0.348c0.267-0.086,0.569-0.148,0.839-0.277c0.525-0.251,1.036-0.402,1.628-0.214
			c0.206,0.065,0.501,0.007,0.702-0.096c0.619-0.32,1.318-0.446,1.894-0.895c0.33-0.257,0.827-0.297,1.381-0.478
			c0.179,0.198,0.439,0.474,0.684,0.762c0.216,0.255,0.494,0.362,0.728,0.119c0.175-0.182,0.352-0.519,0.295-0.721
			c-0.049-0.173-0.419-0.283-0.666-0.361c-0.102-0.032-0.249,0.121-0.384,0.143c-0.559,0.091-1.028-0.201-1.011-0.756
			c0.025-0.804-0.402-1.231-1.107-1.657c-0.464,0.47-0.934,0.946-1.403,1.422c-0.08-0.049-0.16-0.097-0.24-0.146
			c0.156-0.44,0.246-0.92,0.486-1.308c0.23-0.372,0.558-0.633,1.134-0.511c0.889,0.189,1.237-0.095,1.486-0.962
			c1.922-0.64,2.048-0.631,2.6,0.287c0.357-0.68,0.688-1.313,1.049-2.001c-0.386-0.471-0.643-0.987-0.457-1.761
			c0.115-0.481-0.256-1.08,0.084-1.641c0.662-0.103,1.255-0.013,1.715,0.622c-0.037,0.139-0.078,0.306-0.126,0.471
			c-0.385,1.336,0.071,2.326,1.362,2.834c0.524,0.206,1.042,0.301,1.343,0.913c0.098,0.2,0.748,0.146,1.149,0.171
			c0.198,0.012,0.425-0.136,0.598-0.082c0.725,0.223,1.119-0.186,1.553-0.728c-0.807-0.624-1.345-1.351-0.905-2.479
			c-1.407,0.958-1.674,0.898-2.52-0.533c0.77-0.061,1.423,0.769,2.254,0.179c-0.119-0.989,0.044-1.974,0.872-2.925
			c0.182,0.62,0.324,1.105,0.474,1.618c0.425-0.081,0.762-0.145,1.11-0.212c0.197-0.863,0.197-0.863,1.082-0.729
			c0.102,0.249,0.207,0.507,0.329,0.808c0.243-0.04,0.474-0.088,0.708-0.116c0.334-0.04,0.696,0.004,0.999-0.112
			c0.558-0.214,0.957-0.584,0.856-1.286c-0.027-0.186,0.087-0.391,0.158-0.676c0.688,0.372,1.26,0.685,1.35,1.522
			c0.063,0.582,0.211,1.17,0.423,1.716c0.301,0.774-0.086,1.277-0.534,1.805c-0.29,0.342-0.541,0.715-0.843,1.119
			c0.297,0.204,0.52,0.357,0.763,0.524c0.148-0.156,0.288-0.305,0.359-0.38c1.045,0.227,2.025,0.44,3.104,0.674
			c-0.105,0.152-0.296,0.31-0.272,0.422c0.04,0.189,0.18,0.449,0.339,0.505c0.987,0.349,0.981,1.162,0.994,1.98
			c0.001,0.067,0.025,0.134,0.049,0.251c0.203,0.066,0.429,0.139,0.643,0.209c0.035,0.077,0.083,0.138,0.09,0.202
			c0.135,1.272,0.134,1.269,1.425,1.067c0.169-0.026,0.345-0.001,0.54,0c0.123,0.167,0.257,0.33,0.371,0.507
			c0.413,0.644,0.393,0.821-0.158,1.362c-0.125,0.123-0.293,0.202-0.413,0.329c-0.335,0.353-0.499,0.755-0.36,1.258
			c0.112,0.407,0.237,0.826,0.247,1.241c0.009,0.415-0.118,0.833-0.185,1.249c-0.492,0.236-0.985,0.472-1.52,0.728
			c-0.134-0.108-0.293-0.237-0.468-0.379c-0.269,0.201-0.758,0.39-0.774,0.613c-0.049,0.694-0.664,0.89-0.972,1.339
			c-0.347,0.504-0.608,0.462-0.913-0.088c-0.063-0.114-0.067-0.26-0.088-0.35c-1.058-0.413-1.367,0.306-1.676,1.056
			c-0.756-0.465-1.458-0.898-2.15-1.324c-0.314,0.849-0.312,0.854,0.543,1.49c-0.203,0.068-0.358,0.177-0.49,0.154
			c-0.987-0.17-0.986-0.178-1.534,0.666c-1.202-0.679-1.38-1.033-1.008-2.186c-1.516,0.348-2.502,1.485-3.734,2.174
			c-1.229,0.687-2.389,1.501-3.551,2.3c-1.188,0.818-2.34,1.686-3.443,2.484c0.396,0.454,0.851,0.789,1.032,1.236
			c0.164,0.404,0.029,0.929,0.025,1.485c0.75-0.067,1.364-0.123,2.026-0.182c0.051,1.062,0.867,1.16,1.556,1.297
			c0.556,0.111,1.012,0.329,1.366,0.727c0.124,0.14,0.08,0.429,0.113,0.65c-0.195,0.01-0.422,0.09-0.579,0.018
			c-0.431-0.198-0.863-0.345-1.149-0.837c-0.437-0.752-0.732-0.688-1.21,0.084c-0.104,0.167-0.288,0.392-0.446,0.4
			c-0.732,0.04-0.827,0.532-0.882,1.093c-0.038,0.385-0.101,0.766-0.16,1.199c0.649,0.402,0.935,0.927,0.458,1.72
			c-0.332-0.151-0.638-0.291-1.085-0.494c-0.086,0.347-0.222,0.656-0.23,0.969c-0.037,1.303-0.537,1.644-1.784,1.051
			c-0.304,0.364-0.628,0.752-0.973,1.165c1.36,0.643,2.493,0.129,3.466-0.545c0.939-0.649,2.036-1.11,2.745-2.111
			c0.201-0.284,0.815-0.275,1.287-0.413c-0.271-0.504-0.683-0.519-1.105-0.576c-1.042-0.139-1.834-0.663-2.441-1.729
			c0.326-0.041,0.556-0.135,0.747-0.083c0.678,0.185,1.34,0.425,2.013,0.632c0.389,0.119,0.785,0.213,1.274,0.152
			c-0.179-0.268-0.359-0.536-0.561-0.838c0.356-0.39,0.693-0.569,1.223-0.434c1.034,0.263,1.331-0.019,1.236-1.066
			c-0.009-0.105,0-0.212,0-0.196c-0.564-0.418-1.23-0.691-1.519-1.185c-0.327-0.56-1.076-0.476-1.281-1.124
			c-0.183-0.579-0.496-1.116-0.843-1.872c0.571,0.104,0.939,0.156,1.299,0.24c0.273,0.064,0.532,0.186,0.805,0.25
			c0.742,0.174,0.76,0.188,0.781,1.092c0.454,0.003,0.91,0.006,1.36,0.009c0.512-0.936,0.979-1.185,1.777-0.956
			c0.52,0.149,0.559,0.291,0.402,1.487c0.693-0.245,0.693-0.245,0.967-1.569c-0.114-0.1-0.24-0.22-0.375-0.328
			c-0.134-0.108-0.277-0.206-0.441-0.327c0.102-0.743,0.408-1.266,1.182-1.431c0.12,0.228,0.225,0.429,0.331,0.629
			c0.181-0.555,0.172-1.134,0.819-1.378c0.622-0.235,1.079-0.017,1.482,0.442c-0.296,0.172-0.766,0.164-0.7,0.949
			c0.297-0.432,0.486-0.707,0.674-0.982c0.262-0.147,0.566-0.248,0.779-0.447c1.051-0.988,1.317-0.959,1.947,0.178
			c0.5,0.175,0.91,0.33,1.328,0.458c0.109,0.034,0.251,0.007,0.366-0.03c0.597-0.188,1.182-0.417,1.787-0.57
			c0.241-0.061,0.523,0.035,0.775,0.059c0.171-0.286,0.359-0.603,0.664-1.114c-0.006-0.022-0.079-0.282-0.178-0.634
			c-0.152,0.176-0.241,0.273-0.323,0.375c-0.972,1.208-1.57,1.208-3.109,0.305c-0.287-0.168-0.607-0.284-0.92-0.401
			c-0.23-0.086-0.484-0.11-0.709-0.206c-1.026-0.44-1.167-0.979-0.497-1.978c0.478,0.288,1.11-0.386,1.54,0.222
			c0.223,0.316,0.331,0.713,0.543,1.191c0.723,0.199,1.169-0.664,2.008-1.008c-0.108,0.416-0.231,0.703-0.245,0.995
			c-0.014,0.283,0.084,0.572,0.169,1.067c0.687-0.73,1.223-1.33,1.798-1.892c0.205-0.201,0.609-0.49,0.74-0.417
			c0.301,0.17,0.576,0.506,0.701,0.835c0.127,0.335,0.062,0.743,0.081,1.119c0.069,0.003,0.139,0.005,0.208,0.008
			c0.019-0.21,0.039-0.42,0.062-0.676c0.741-0.114,1.34,0.142,1.799,0.754c0.083,0.093,0.166,0.186,0.249,0.279
			c-0.088,1.08,0.51,1.884,1.051,2.803c0.223-0.236,0.377-0.399,0.525-0.555c0.82,0.282,1.598,0.549,2.436,0.838
			c0.063-0.056,0.191-0.169,0.348-0.308c0.193,0.12,0.396,0.246,0.625,0.389c0.141-0.495,0.271-0.954,0.421-1.479
			c0.638-0.074,1.23-0.753,2-0.332c0.209,0.115,0.335,0.383,0.461,0.536c-0.609,0.529-1.144,0.989-1.667,1.464
			c-0.021,0.019,0.075,0.167,0.159,0.344c0.262-0.299,0.483-0.551,0.685-0.781c0.426,0.251,0.833,0.493,1.217,0.719
			c-0.072,0.887-0.146,1.791-0.227,2.781c-0.576-0.113-0.745,0.195-0.838,0.682c-0.158,0.83-0.372,1.654-1.096,2.375
			c-0.298-0.232-0.587-0.456-0.95-0.737c0.306-0.831,0.595-1.614,0.908-2.462c-0.508,0.058-0.994,0.029-1.316,0.627
			c-0.257,0.478-0.7,0.81-0.824,1.427c-0.062,0.309-0.696,0.502-1.068,0.752c-0.404,0.486-1.145,0.72-1.04,1.589
			c-0.451-0.098-0.811-0.176-1.179-0.256c0.01,0.554,0.01,0.554,0.7,0.784c0.127,0.324,0.245,0.628,0.4,1.024
			c0.356-0.295,0.745-0.464,0.855-0.744c0.163-0.415,0.365-0.641,0.853-0.615c-0.218-0.645-0.415-1.228-0.612-1.812
			c0.561,0.296,0.998,0.053,1.341-0.267c0.317,0.29,0.634,0.561,0.929,0.854c0.224,0.223,0.437,0.461,0.625,0.714
			c0.286,0.386,0.246,0.783-0.203,0.965c-0.636,0.258-0.753,0.843-1.131,1.4c0.576,0.118,1.047,0.224,1.522,0.311
			c0.912,0.168,1.278,0.566,1.409,1.597c0.164-0.026,0.327-0.051,0.566-0.088c0.183,0.335,0.38,0.694,0.618,1.128
			c0.317-1.001,1.08-1.309,2.005-1.48c0.734,0.218,0.919,0.903,1.036,1.61c0.083,0.503-0.001,1.036,0.624,1.312
			c0.201,0.089,0.286,0.438,0.612,0.612c-0.098-0.298-0.195-0.596-0.346-1.054c0.517,0.151,0.937,0.274,1.4,0.41
			c0.24-0.158,0.504-0.331,0.792-0.52c0.076,0.032,0.191,0.048,0.256,0.113c0.395,0.397,0.818,0.776,1.156,1.219
			c0.32,0.419,0.231,1.035-0.092,1.238c-0.348,0.219-0.887,0.108-1.167-0.357c-0.28-0.465-0.607-0.536-0.931-0.415
			c-0.202,0.555-0.304,1.062-0.558,1.475c-0.37,0.602-0.973-0.136-1.68,0.234c0.797,0.258,1.43,0.392,1.995,0.666
			c0.563,0.273,1.059,0.688,1.622,1.065c0.304-0.217,0.615-0.439,0.985-0.704c-0.362-0.901,0.175-1.649,0.415-2.481
			c0.847-0.009,1.41,0.498,2.049,0.988c0.149-0.433,0.259-0.755,0.392-1.143c0.255,0.065,0.535,0.136,0.897,0.228
			c0.067-0.439,0.124-0.813,0.181-1.187l-0.032,0.031c0.491,0.336,0.754,0.724,0.415,1.338c-0.069,0.126,0.06,0.361,0.146,0.784
			c0.216-0.378,0.319-0.557,0.455-0.794c0.533,0.223,1.096,0.41,1.609,0.688c0.498,0.27,0.647,0.878,0.473,1.499
			c-0.1,0.358-0.185,0.721-0.317,1.238c0.464-0.107,0.753-0.173,1.138-0.262c0.329,0.2,0.767,0.417,1.147,0.709
			c0.379,0.292,0.684,0.678,1.05,0.988c0.389,0.33,0.577,0.874,0.288,1.077c-0.345,0.242-0.725,0.27-1.021-0.135
			c-0.409-0.559-0.82-1.116-1.237-1.668c-0.148-0.196-0.315-0.378-0.453-0.543c-0.295,0.438-0.585,0.875-0.884,1.305
			c-0.059,0.085-0.216,0.137-0.225,0.216c-0.169,1.445-1.288,1.044-2.159,1.118c-0.065,0.005-0.135-0.051-0.201-0.048
			c-0.063,0.003-0.123,0.048-0.223,0.091c0.053,0.64,0.741,0.344,1.186,0.827c-0.95-0.092-1.695-0.164-2.582-0.25
			c-0.17,0.302-0.459,0.589-1.133,0.465c-0.772-0.141-1.087,0.572-1.382,1.259c0.301,0.08,0.556,0.149,0.858,0.23
			c0.143-0.299,0.276-0.574,0.464-0.966c0.147,0.656,0.271,1.204,0.412,1.833c-0.592,0.521-1.22-0.188-1.991,0
			c-0.41,0.26,0.001,0.797-0.082,1.317c-0.259-0.137-0.46-0.243-0.733-0.388c-0.198,0.585-0.391,1.156-0.62,1.833
			c-0.302-0.27-0.524-0.469-0.75-0.672c-0.05,0.029-0.125,0.047-0.15,0.091c-0.258,0.479-0.579,0.621-1.132,0.401
			c-0.532-0.212-1.122-0.279-1.796-0.434c-0.104,0.26-0.252,0.63-0.414,1.036c-0.516-0.202-0.78-0.589-0.886-1.1
			c-0.071-0.345-0.164-0.692-0.176-1.041c-0.017-0.492-0.147-0.726-0.716-0.786c-0.302-0.032-0.561-0.481-0.853-0.756
			c-0.662-0.207-1.376-0.43-2.185-0.683c0.06,0.27,0.192,0.528,0.143,0.745c-0.043,0.189-0.289,0.333-0.48,0.534
			c0.663,0.171,1.25,0.359,1.851,0.456c0.194,0.031,0.426-0.178,0.641-0.277c0.945,1.143,0.522,2.316,0.095,3.594
			c-0.539-0.046-1.052-0.09-1.563-0.133c-0.04,0.297,0.031,0.761-0.166,0.958c-0.195,0.196-0.66,0.123-1.044,0.173
			c0.238,0.803,0.852,1.215,1.81,1.241c-0.339,0.781-0.551,1.448-1.341,1.655c-0.602-0.736-0.602-0.736-0.848-3.201
			c-0.888,0.17-1.717,0.07-2.343-0.675c-0.351,0.434-0.367,1.227-1.095,1.159c-0.419-0.039-0.823-0.36-1.205-0.601
			c-0.1-0.063-0.09-0.299-0.143-0.5c0.382-0.06,0.769-0.017,0.998-0.186c0.214-0.158,0.261-0.543,0.373-0.809
			c-0.763-0.433-1.45-0.824-2.252-1.279c-0.223,0.465-0.454,0.945-0.684,1.425c0.051,0.043,0.101,0.085,0.152,0.128
			c0.167-0.122,0.335-0.244,0.538-0.392c0.224,0.303,0.462,0.625,0.783,1.058c-0.78,0.065-1.493-0.477-2.003,0.463
			c-0.317-0.408-0.543-0.697-0.807-1.036c-0.141,0.222-0.297,0.467-0.462,0.726c0.185,0.253,0.345,0.47,0.634,0.865
			c-0.769-0.07-1.354-0.122-1.939-0.176c-0.198-0.018-0.426-0.113-0.59-0.048c-0.586,0.235-1.015,0.032-1.395-0.398
			c-0.429-0.484-0.496-0.993-0.128-1.548c0.064-0.096,0.052-0.241,0.078-0.375c-0.559-0.191-0.507,0.251-0.58,0.526
			c-0.156-0.045-0.264-0.051-0.341-0.103c-0.844-0.567-1.842-0.597-2.79-0.773c-0.196-0.036-0.48,0.192-0.667,0.362
			c-0.225,0.203-0.389,0.473-0.616,0.761c-0.231-0.147-0.469-0.215-0.56-0.37c-0.385-0.657-1.027-0.625-1.647-0.691
			c-1.569-0.167-3.166-0.215-4.695-0.563c-1.289-0.294-2.507-0.918-3.736-1.445c-0.809-0.347-1.56-0.816-2.509-0.699
			c-0.291,0.036-0.607-0.137-1.036-0.246c-0.076,0.395-0.303,0.821-0.185,1.104c0.413,0.994,0.503,2.144,1.391,2.927
			c1.064,0.937,1.75,2.184,2.602,3.294c1.851,2.411,2.493,5.245,2.903,8.166c0.102,0.726,0.195,1.455,0.337,2.174
			c0.314,1.589,0.005,3.151-0.143,4.724c-0.092,0.985-0.086,1.979-0.126,2.969c-0.05,1.26-0.174,2.522-0.131,3.779
			c0.042,1.213,0.121,2.423,0.54,3.613c0.329,0.933,0.606,1.909,0.475,2.978c-0.135,1.108-0.042,2.245-0.02,3.369
			c0.005,0.262,0.125,0.523,0.229,0.929c0.668-2.049,1.286-3.943,1.911-5.86c0.348-0.057,0.689-0.113,1.201-0.196
			c-0.264,0.885-0.534,1.689-0.74,2.509c-0.223,0.888-0.412,1.787-0.57,2.689c-0.15,0.855-0.241,1.72-0.358,2.581
			c-0.079-0.001-0.159-0.001-0.238-0.002c-0.087-0.786-0.173-1.572-0.26-2.358c-0.059-0.014-0.117-0.028-0.176-0.042
			c-0.37,1.032-0.74,2.063-1.133,3.157c0.625,0.281,1.209,0.521,1.773,0.804c0.435,0.218,0.796,0.244,1.054-0.346
			c0.051,0.075,0.101,0.15,0.152,0.225c-0.12,0.147-0.232,0.412-0.362,0.421c-0.447,0.03-0.903-0.011-1.35-0.065
			c-0.164-0.02-0.326-0.137-0.47-0.237c-0.485-0.338-1.013-0.522-1.608-0.491c0.068-0.105,0.22-0.253,0.192-0.307
			c-0.214-0.41-0.464-0.801-0.703-1.199c-0.342,0.069-0.641,0.129-0.94,0.189c-0.098-0.086-0.253-0.264-0.285-0.244
			c-0.323,0.2-0.626,0.433-0.928,0.652c-0.283-0.1-0.604-0.213-0.967-0.341c-0.404,0.407-0.808,0.814-1.308,1.317
			c-0.118-0.041-0.427-0.149-0.748-0.261c-0.226-0.771-0.457-1.559-0.695-2.369c-0.949,0.636-1.396,1.981-2.847,1.617
			c-0.382,0.598-0.753,1.177-1.126,1.761c-0.827-0.206-1.258-0.627-1.332-1.404c-0.04-0.418-0.137-0.83-0.233-1.387
			c-0.277,0.229-0.512,0.365-0.669,0.563c-0.337,0.426-0.607,0.764-1.299,0.661c-0.367-0.054-0.832,0.43-1.223,0.713
			c-0.193,0.14-0.317,0.375-0.58,0.699c-0.149-0.419-0.245-0.657-0.318-0.902c-0.157-0.527-0.202-1.053-0.756-1.442
			c-0.287-0.201-0.293-0.824-0.392-1.264c-0.08-0.36-0.109-0.731-0.342-1.103c-0.073,0.216-0.167,0.428-0.216,0.65
			c-0.128,0.577-0.186,1.174-0.362,1.735c-0.449,1.429-1.08,1.698-2.445,1.077c-0.11,0.119-0.228,0.246-0.407,0.439
			c-0.351-0.242-0.713-0.491-1.075-0.739c-0.349,0.452-0.44,1.139-1.179,1.308c-0.76-0.504-0.486-1.586-1.247-2.258
			c-0.121,0.92-0.229,1.745-0.337,2.57c-0.045,0.003-0.091,0.007-0.136,0.01c-0.042-0.22-0.122-0.441-0.12-0.661
			c0.017-2.859-0.61-5.594-1.566-8.268c-0.133-0.372-0.464-0.779,0.108-1.055c1.019,2.857,2.037,5.712,3.056,8.567
			c1.093-2.586,2.525-4.953,3.109-7.649c0.609-2.806,1.6-5.484,2.628-8.155c0.311-0.807,0.479-1.689,0.581-2.553
			c0.166-1.4,0.294-2.813,0.305-4.221c0.01-1.263-0.182-2.526-0.248-3.791c-0.16-3.057-0.205-6.136-0.962-9.116
			c-0.458-1.804-1.169-3.546-1.802-5.303c-0.496-1.378-1.347-2.52-2.3-3.64c-1.371-1.612-2.57-3.372-3.83-5.078
			c-1.528-2.068-3.091-4.109-4.53-6.245c-0.904-1.343-2.01-2.548-2.592-4.095c-0.047-0.125-0.161-0.239-0.269-0.325
			c-1.541-1.231-3.199-2.127-5.271-1.956c-1.236,0.102-2.304,0.565-3.247,1.339c-0.212,0.174-0.367,0.42-0.532,0.645
			c-0.074,0.101-0.164,0.135-0.323-0.074c-0.349,0.526-0.659,1.021-0.997,1.496c-0.388,0.547-0.83,1.058-1.187,1.623
			c-0.173,0.274-0.314,0.65-0.279,0.958c0.086,0.74-0.107,1.243-0.84,1.499c-0.117,0.041-0.195,0.193-0.307,0.31
			c0.068,0.57,0.937,0.975,0.236,1.616c0.897,0.482,0.914-0.786,1.656-0.574c0.309,1.159,0.21,2.306-0.309,3.502
			c-0.723-0.387-0.903-1.028-0.992-1.806c-0.7,0.544-0.737,1.722-1.858,1.617c0.11,0.379,0.235,0.677,0.277,0.986
			c0.075,0.558-0.365,1.229-0.879,1.232c-0.793,0.004-1.309,0.326-1.567,1.098c-0.543,0.032-1.055,0.063-1.625,0.096
			c-0.102,0.215-0.22,0.463-0.342,0.719c0.425,0.341,0.825,0.661,1.228,0.984c0.485-0.161,0.977-0.323,1.477-0.488
			c0.177,0.879-0.03,1.195-0.87,1.429c-0.122,0.005-0.244,0.011-0.366,0.016c-0.992,0.05-1.24-0.737-1.628-1.46
			c-0.358,0.553-0.628,1.028-0.138,1.678c0.206,0.273,0.195,0.734,0.216,1.114c0.021,0.39-0.132,0.711-0.61,0.658
			c-0.473-0.053-0.589,0.283-0.73,0.612c-0.192,0.449-0.404,0.889-0.585,1.342c-0.059,0.148-0.125,0.374-0.057,0.478
			c0.351,0.536,0.042,1.063-0.011,1.578c-0.033,0.322-0.224,0.622-0.685,0.676c-0.37,0.044-0.704,0.342-1.077,0.421
			c-0.28,0.06-0.597-0.049-0.921-0.085c0.004-0.541,0.007-0.995,0.01-1.423c0.302-0.24,0.575-0.456,0.901-0.714
			c-0.136-0.201-0.245-0.363-0.312-0.461c-0.928,0.108-1.791,0.209-2.819,0.329c0.761,0.525,0.761,0.525,1.318,0.099
			c0.027,1.239-0.264,1.725-1.245,2.069c-0.13,0.046-0.302,0.157-0.389,0.112c-0.718-0.376-1.233,0.17-1.915,0.319
			c1.157,0.648,1.189,0.647,2.452-0.065c0.146,0.446,0.146,0.446-0.719,1.974c-1.29,0.19-1.596-1.15-2.598-1.688
			c0.153,0.792,0.283,1.466,0.414,2.141l0.03-0.02c-0.212-0.269-0.423-0.538-0.604-0.768c-1.056-0.048-0.838,0.928-1.147,1.469
			c-0.784-0.128-0.551-0.833-0.799-1.261c-0.218-0.062-0.438-0.124-0.747-0.211c0.245-0.332,0.443-0.6,0.641-0.867
			c-0.806-0.632-0.786-0.608-1.466-0.009c-0.577,0.508-1.21,0.951-1.839,1.438c-0.766-0.257-1.257-0.853-1.664-1.422
			c-0.375-0.524-0.482-1.24-0.701-1.854c-0.436,0.221-0.817,0.577-1.194,0.573c-0.805-0.01-1.243-0.689-1.84-1.311
			c0.531-0.188,0.961-0.34,1.474-0.521c-0.554-0.195-1.013-0.357-1.472-0.519c0.007-0.065,0.013-0.131,0.02-0.196
			c0.245-0.047,0.489-0.094,0.783-0.15c-0.206-0.478-0.461-0.897-0.559-1.35c-0.091-0.424-0.014-0.883-0.011-1.321
			c-0.111-0.011-0.201-0.049-0.235-0.02c-0.997,0.83-1.889,0.461-2.759-0.228c-0.262-0.207-0.533-0.403-1.011-0.763
			c0.597-0.166,0.94-0.262,1.339-0.373c-0.065-0.274-0.136-0.572-0.188-0.79c-0.513-0.249-0.975-0.411-1.362-0.68
			c-0.319-0.221-0.57-0.568-0.283-1.002c0.283-0.429,0.835-0.664,1.255-0.537c0.198,0.06,0.386,0.151,0.488,0.191
			c0.66-0.491,1.246-0.926,1.831-1.361c0.329,0.18,0.603,0.33,1.095,0.599c-0.719-1.571-0.515-2.944,0.283-4.277
			c-0.095-0.029-0.189-0.057-0.284-0.086c-0.493,0.586-1.014,1.153-1.467,1.768c-0.2,0.271-0.21,0.687-0.679,0.693
			c-0.46,0.006-0.927,0.052-1.278-0.343c-0.117-0.131-0.236-0.26-0.298-0.33c0.455-0.32,0.899-0.636,1.348-0.947
			c0.898-0.622,1.767-1.292,2.705-1.846c0.871-0.514,1.676-0.213,2.253,0.624c0.529,0.767,1.123,1.489,1.762,2.328
			c0.03-0.248,0.09-0.382,0.047-0.439c-0.708-0.949-0.324-1.963-0.168-2.952c0.101-0.639,0.36-0.809,1.081-0.912
			c0.277-0.04,0.549-0.11,0.813-0.165c0.475,0.109,0.376,0.876,0.975,0.832c-0.146,0.656-0.29,1.307-0.457,2.063
			c0.432-0.085,0.835-0.165,1.36-0.268c-0.156-0.303-0.258-0.5-0.358-0.698c-0.183-0.363-0.364-0.727-0.546-1.091
			c-0.041-0.163-0.082-0.326-0.093-0.37c0.654-0.365,1.225-0.683,1.852-1.033c0.633,0.562,1.28,1.135,2.026,1.797
			c0.272-0.046,0.471-0.207,0.216-0.674c-0.298-0.545-0.617-1.102-0.276-1.787c1.164-0.087,1.229,0.868,1.56,1.554
			c0.467,0.141,0.934,0.281,1.435,0.431c0.862-1.037,1.465-1.208,2.58-0.669c-0.279,0.649-0.558,1.298-0.87,2.024
			c0.167,0.15,0.411,0.369,0.81,0.727c0.138-0.872,0.252-1.595,0.34-2.151c0.772-0.15,1.375-0.266,2.046-0.396
			c0.218,0.491,0.43,0.97,0.597,1.348c0.376,0.194,0.686,0.354,1.036,0.534c0.327-0.345,0.116-1.083,0.755-1.358
			c0.089-0.038,0.108-0.501,0.006-0.68c-0.521-0.92-0.275-1.857-0.159-2.85c-0.169-0.226-0.435-0.47-0.548-0.771
			c-0.086-0.228,0.025-0.53,0.05-0.824c0.363,0.171,0.67,0.298,0.958,0.459c0.096,0.053,0.208,0.193,0.204,0.289
			c-0.019,0.548,0.393,0.691,0.77,0.906c0.128-0.347,0.241-0.667,0.37-0.982c0.021-0.052,0.112-0.075,0.171-0.111
			c0.066,0.012,0.16-0.001,0.192,0.038c0.583,0.718,0.574,0.712,1.221,0.031c0.203-0.214,0.457-0.379,0.786-0.647
			c0.16,0.473,0.266,0.789,0.437,1.294c1.619-2.144,3.297-4.055,5.646-5.344c-0.212-0.001-0.427-0.024-0.636-0.001
			c-0.937,0.105-1.892,0.144-2.804,0.36c-0.844,0.2-1.628,0.644-2.465,0.887c-0.486,0.141-1.045,0.202-1.539,0.113
			c-1.103-0.197-2.128-0.256-3.171,0.329c-0.406,0.228-1.018,0.088-1.637,0.121c-0.228,0.213-0.555,0.517-0.978,0.912
			c-0.328-0.557-0.603-1.026-0.887-1.508c-0.025,0.322-0.051,0.658-0.098,1.256c-0.786-1.029-1.445-1.891-2.159-2.825
			c-0.166,0.065-0.437,0.138-0.673,0.271c-0.58,0.326-1.157,0.662-1.708,1.034c-0.183,0.123-0.284,0.368-0.423,0.557
			c-0.065,0.017-0.132,0.02-0.199,0.01c-0.132-0.145-0.237-0.347-0.402-0.428c-1.067-0.521-1.877-1.252-2.147-2.464
			c-0.012-0.056-0.099-0.095-0.176-0.164c-0.229,0.113-0.469,0.232-0.77,0.38c-0.175-0.239-0.365-0.442-0.491-0.68
			c-0.328-0.624-0.32-0.783-0.032-1.484c0.198,0.001,0.399,0.003,0.662,0.004c0.039-0.286,0.075-0.553,0.113-0.837
			c0.114-0.015,0.233-0.071,0.31-0.036c0.867,0.389,1.635-0.213,2.459-0.229c0.368-0.007,0.736,0.003,1.2,0.006
			c-0.112-0.601-0.225-1.207-0.35-1.879c0.27-0.048,0.521-0.092,0.79-0.14c0.048-0.608,0.096-1.216,0.149-1.877
			c1.034,0.136,1.019,1.159,1.758,1.562c0.621-0.274,1.309-0.578,2.005-0.886c-0.833-1.583-0.745-1.777,0.832-1.814
			c-0.08-0.474-0.158-0.934-0.241-1.428c-0.396-0.029-0.813,0.052-1.091-0.109c-0.335-0.193-0.551-0.591-0.838-0.924
			c0.414-0.382,0.743-0.685,1.158-1.069c0.721,0.357,1.45,0.719,2.192,1.087c-0.09,0.141-0.206,0.324-0.386,0.606
			c0.823,0.13,1.623,0.157,2.175,1.057c-0.348,0.218-0.706,0.442-1.124,0.704c0.312,0.45,0.52,0.751,0.767,1.108
			c0.525-0.271,0.979-0.506,1.344-0.695c-0.323-1.08-0.608-2.036-0.908-3.041c-0.244,0.079-0.537,0.174-0.919,0.299
			c-0.077-0.282-0.136-0.545-0.221-0.8c-0.083-0.25-0.192-0.491-0.322-0.817c-0.402,0.346-0.706,0.607-1.01,0.868
			c-0.063-0.031-0.125-0.062-0.188-0.093c0.137-0.523,0.274-1.046,0.435-1.659c0.515,0.229,1,0.422,1.464,0.657
			c0.468,0.237,0.815,0.055,1.149-0.252c0.331-0.304,0.247-0.674,0.047-0.962c-0.284-0.408-0.32-0.735-0.019-1.153
			c0.11-0.153,0.021-0.45,0.022-0.706c0.299,0.043,0.548,0.042,0.77,0.118c0.801,0.274,1.279,0.205,1.608-0.271
			c0.24-0.346,0.103-0.938-0.392-1.545c-0.204,0.979-1.226,0.648-1.741,1.15c-0.084,0.082-0.347,0.027-0.385,0.104
			c-0.428,0.873-1.257,0.975-2.068,1.17c-0.223,0.054-0.38,0.379-0.551,0.562c-0.75-0.238-0.908-0.775-0.879-1.422
			c0.273-0.166,0.421-0.456,0.854-0.463c0.55-0.008,1.096-0.252,1.811-0.438c-0.47-0.753-0.843-1.352-1.204-1.93
			c-0.693,0.365-1.277,0.671-1.86,0.978c-0.332,0.175-0.379,0.556-0.121,0.665c0.602,0.253,0.429,0.715,0.461,1.139
			c-0.599,0.241-0.935,0.59-0.667,1.303c0.092,0.245,0.011,0.555,0.009,0.869c-0.847-0.17-1.347-0.661-1.348-1.436
			c-0.001-0.671,0.224-1.342,0.361-2.078c-1.084-0.069-1.993-0.543-2.852-1.185c-0.176,0.117-0.388,0.258-0.717,0.476
			c-0.177-0.304-0.337-0.579-0.469-0.805c-0.289,0.092-0.449,0.101-0.551,0.182c-0.417,0.334-0.745,0.24-1.1-0.121
			c-0.546-0.555-0.703-0.569-1.345-0.173c-0.324,0.2-0.615,0.454-0.992,0.738c-0.415-0.492-0.818-0.968-1.198-1.419
			c0.294-0.273,0.525-0.488,0.766-0.713c0.341,0.176,0.708,0.366,1.2,0.62c-0.096-0.686,0.242-1.327-0.493-1.801
			c-0.256,0.239-0.525,0.491-0.871,0.814c-0.315-0.558-0.634-1.048-0.876-1.573c-0.19-0.413,0.027-0.81,0.527-0.991
			c0.253-0.092,0.586-0.159,0.818-0.07c0.479,0.184,0.9,0.246,1.404,0.057c0.258-0.097,0.611,0.058,0.929,0.1
			c-0.058-1.092-0.127-1.169-1.055-1.13c-0.281,0.012-0.565,0.044-0.841,0.099c-1.08,0.215-1.631-0.336-1.498-1.682
			c1.071,0.125,2.145,0.235,3.211,0.393c0.154,0.023,0.249,0.333,0.417,0.405c0.118,0.051,0.312-0.078,0.489-0.131
			c-0.124,0.722-0.244,1.424-0.371,2.161c0.734-0.089,1.314-0.16,1.961-0.238c-0.068-0.139-0.103-0.318-0.212-0.415
			c-0.545-0.49-0.593-1.077-0.433-1.746c0.06-0.249,0.083-0.563-0.016-0.785c-0.704-1.588-0.437-2.259,1.211-2.916
			c0.031-0.012,0.053-0.046,0.079-0.07c-0.882-1.374-0.794-2.128,0.478-3.193c0.66,0.359,1.369,0.745,2.06,1.121
			c-0.3,0.53-0.537,0.948-0.859,1.516c0.791-0.183,1.33-0.427,1.668-1.153c-0.164-0.073-0.415-0.103-0.473-0.225
			c-0.125-0.262-0.275-0.624-0.181-0.846c0.083-0.195,0.48-0.341,0.745-0.353c0.372-0.018,0.751,0.109,1.221,0.19
			c-0.296,0.429-0.562,0.814-0.833,1.206c0.653,0.322,1.221,0.597,1.798,0.027c0.073-0.072,0.29-0.069,0.404-0.019
			c0.991,0.439,1.767,0.003,2.542-0.618c-0.144-0.845-1.022-1.575-0.399-2.714c-0.517,0.065-0.903,0.113-1.308,0.163
			c-0.674-1.073-0.668-1.106,0.378-1.628c0.314,0.236,0.657,0.478,0.977,0.745c0.123,0.103,0.247,0.253,0.284,0.403
			c0.245,0.991,1.164,1.098,1.762,1.564c0.617-1.004,1.157-1.881,1.711-2.782c0.225,0.002,0.451-0.052,0.633,0.014
			c0.649,0.238,1.21,0.096,1.823-0.189c0.631-0.293,1.335-0.439,2.018-0.605c0.165-0.04,0.37,0.113,0.562,0.152
			c0.236,0.048,0.478,0.068,0.747-0.068c-0.525-0.271-1.05-0.541-1.604-0.827c-0.219,0.225-0.404,0.422-0.838,0.257
			c-0.576-0.219-1.254-0.168-1.835-0.378c-0.594-0.215-1.028-0.001-1.291,0.404c-0.447,0.69-1.17,0.38-1.739,0.59
			c-0.333,0.123-0.587-0.501-0.339-0.88c0.11-0.168,0.323-0.266,0.462-0.42c0.163-0.181,0.296-0.39,0.442-0.586
			c-0.055-0.054-0.11-0.108-0.165-0.162c-0.229,0.173-0.458,0.346-0.735,0.555c-0.143-0.075-0.3-0.139-0.437-0.233
			c-0.943-0.643-1.264-0.641-2.204,0.003c-0.369,0.253-0.717,0.361-0.832-0.254l-0.029,0.031c0.246-0.426,0.726-0.7,0.786-1.259
			c0.009-0.082,0.313-0.131,0.55-0.223c-0.162-0.714,0.096-1.232,0.916-1.522c0.466-0.165,0.844-0.578,1.388-0.971
			c-0.528-0.415-1.037-0.815-1.651-1.297c0.319-0.215,0.632-0.426,0.977-0.659c0.116,0.133,0.319,0.366,0.488,0.56
			c0.465,0.003,0.87,0.006,1.143,0.008c0.37-0.36,0.737-0.718,1.183-1.152c-0.263-0.254-0.638-0.616-1.022-0.987
			c-1.13,0.15-1.396,0.009-1.778-0.946c-0.187-0.467-0.103-0.638,0.416-0.614c0.637,0.03,1.252-0.174,1.914-0.013
			c0.595,0.144,1.251,0.038,1.948,0.043c0.056-0.122,0.143-0.311,0.243-0.527c-0.208-0.2-0.412-0.396-0.665-0.639
			c0.504-0.519,0.963-0.99,1.48-1.523c-0.089-0.228-0.26-0.574-0.358-0.939c-0.09-0.334-0.173-0.699-0.129-1.034
			c0.059-0.441,0.126-0.999,0.649-1.123c0.534-0.126,1.134-0.176,1.539,0.458c-0.411,0.623-1.031,1.196-0.684,2.063
			c0.504,0.003,1.012,0.007,1.546,0.01c-0.064-0.782-0.123-1.511-0.189-2.314c0.809,0.064,0.994,0.871,1.706,1.345
			c-0.174-0.471-0.288-0.782-0.43-1.167c0.643-0.136,1.527,0.062,1.59-1.102c-0.744-0.683-1.214-1.543-0.316-2.614
			c0.005-0.002,0.068-0.035,0.136-0.052c1.559-0.412,2.584,0.556,3.501,1.519c0.381,0.4,0.789,0.51,1.376,0.846
			c-0.026-0.404,0.016-0.689-0.072-0.924c-0.205-0.544-0.001-1.061,0.553-1.027c0.689,0.042,1.084-0.231,1.491-0.744
			c0.502-0.633,1.236-0.687,1.914-0.282c0.494,0.295,0.455,0.678-0.109,1.066c0.057-0.287,0.23-0.618-0.309-0.63
			c-0.506-0.011-0.856,0.158-0.998,0.766C227.854,157.898,228.282,157.844,228.71,157.791z M229.542,139.024
			c-0.189,0.064-0.378,0.128-0.653,0.221c0.333,0.346,0.479,0.686,0.964,0.57c-0.12-0.306-0.218-0.556-0.32-0.811
			c0.242-0.164,0.485-0.328,0.901-0.61C229.813,138.432,229.408,138.411,229.542,139.024z M242.468,198.261
			c0.215,0.702,0.215,0.702,0.748,0.345c-0.251-0.107-0.509-0.217-0.767-0.327c0.027-0.443-0.09-0.805-0.546-1.005
			C241.733,198.159,241.767,198.215,242.468,198.261z M243.796,139.12c-0.168,0.186-0.337,0.373-0.505,0.559
			c0.032,0.054,0.064,0.109,0.096,0.163c0.231-0.06,0.463-0.121,0.761-0.199c-0.17-0.232-0.272-0.37-0.374-0.509
			c-0.192-0.369-0.321-0.794-0.592-1.092c-0.307-0.337,0.306-0.954-0.456-1.163c-0.167,0.507-0.324,0.979-0.522,1.579
			C242.798,138.703,243.3,138.909,243.796,139.12z M274.097,217.55c-0.317-0.095-0.634-0.189-0.95-0.284
			c0.275,0.401,0.607,0.463,0.978,0.256c-0.278,0.274-0.18,0.545-0.023,0.942c0.589-0.453,1.097-0.843,1.565-1.202
			c-0.56-0.508-1.014-0.92-1.468-1.331c-0.046,0.042-0.093,0.084-0.139,0.125c0.147,0.511,0.294,1.021,0.469,1.629
			C274.294,217.604,274.201,217.572,274.097,217.55z M237.994,196.146c-0.158-0.306-0.267-0.688-0.833-0.519
			c0.208,0.407,0.492,0.516,0.852,0.498c-0.023,0.462-0.045,0.925-0.077,1.593c0.046,0.069,0.216,0.325,0.266,0.401
			c0.681,0.226,1.174,0.39,1.681,0.558c0.217-0.38-0.105-0.561-0.29-0.791c-0.218-0.27-0.435-0.541-0.637-0.793
			c0.077-0.285,0.144-0.533,0.203-0.75C238.715,196.268,238.355,196.207,237.994,196.146z M277.429,225.816
			c-0.515,0.356-1.008-0.081-1.591-0.139c0.8,1.032,0.795,1.216,0.009,2.136c-0.173,0.203-0.354,0.399-0.533,0.597
			c-0.58,0.644-0.42,1.412-0.362,2.188c0.239,0.06,0.482,0.121,0.771,0.195c-0.258-0.769-0.204-1.466,0.203-2.014
			c0.517-0.695,0.863-1.427,1.059-2.261c0.061-0.26,0.273-0.485,0.41-0.729c0.246-0.378,0.468-0.773,0.743-1.128
			c0.289-0.373,0.63-0.707,0.944-1.061c0.037-0.041,0.051-0.103,0.093-0.192c-0.122-0.135-0.253-0.281-0.379-0.421
			c-0.795,0.56-0.799,0.536-1.817,0.701c-0.325,0.053-0.624,0.265-0.955,0.413c0.032,0.375,0.057,0.671,0.083,0.98
			c0.391-0.087,0.707-0.156,1.042-0.23C277.26,225.236,277.345,225.526,277.429,225.816z M213.811,196.024
			c1.217-0.255,1.356-0.159,1.64,1.121c0.78,0.557,1.407-0.378,2.176-0.25c-0.182-0.161-0.394-0.313-0.599-0.305
			c-0.429,0.017-0.708-0.33-0.604-0.547c0.293-0.613-0.388-0.604-0.462-0.967c-0.251,0.095-0.5,0.288-0.696,0.244
			c-0.707-0.158-1.07,0.257-1.43,0.727c-0.546-0.278-1.091-0.557-1.655-0.845c-0.063,0.982,0.556,1.524,1.271,2.056
			C213.585,196.8,213.698,196.412,213.811,196.024z M274.353,220.995c0.173-0.239,0.362-0.467,0.516-0.718
			c0.361-0.586,0.904-0.852,1.563-0.844c0.229,0.003,0.455,0.182,0.801,0.332c-0.204-0.421-0.452-0.699-0.424-0.946
			c0.025-0.229,0.346-0.425,0.535-0.635c-0.29-0.436-0.327-0.661-0.251-1.317c0.012-0.103-0.053-0.214-0.073-0.288
			c-0.759,0.796-1.476,1.555-2.202,2.306c-0.25,0.259-0.461,0.493-0.404,0.916c0.054,0.397-0.02,0.811-0.035,1.22
			c-0.196,0.409-0.393,0.818-0.613,1.278c0.206,0.016,0.366,0.028,0.579,0.044C274.347,221.867,274.35,221.431,274.353,220.995z
			 M231.631,198.2c-0.043,0.195-0.087,0.39-0.128,0.575c0.259,0.077,0.497,0.147,0.754,0.223c0.056-0.182,0.095-0.31,0.147-0.478
			c-0.283-0.107-0.54-0.204-0.796-0.301c-0.21-0.377-0.768-0.742-0.113-1.14c0.718,0.001,0.537,1.054,1.408,0.95
			c-0.395-1.167-0.614-2.308-1.79-3.007c-0.887-0.526-1.751-1.07-2.771-1.252c-0.788-0.14-1.596-0.159-2.39-0.268
			c-0.269-0.037-0.525-0.179-0.785-0.277c-0.295-0.111-0.579-0.263-0.883-0.336c-1.572-0.381-3.148-0.744-4.723-1.11
			c-0.833-0.194-1.667-0.38-2.544-0.58c-0.018,0.293-0.035,0.566-0.051,0.836c0.303,0.089,0.56,0.164,0.893,0.262
			c-0.133,0.294-0.239,0.527-0.348,0.767c-0.863-0.35-0.92-1.209-1.34-1.791c-0.26-0.362-0.495-0.547-0.923-0.573
			c-0.001,0.143,0.05,0.308-0.01,0.385c-0.905,1.138-2.619,0.906-3.089-0.452c-0.155-0.447-0.353-0.636-0.789-0.693
			c-0.477-0.063-0.948-0.174-1.602-0.299c1.005,1.237,1.922,2.365,2.877,3.54c0.387-0.169,0.744-0.31,1.087-0.477
			c0.864-0.42,1.203-0.332,1.82,0.394c0.23,0.27,0.557,0.457,0.902,0.731c-0.026,0.284-0.061,0.659-0.1,1.079
			c0.677,0.042,1.434-0.003,1.337,0.984c0.94,0.084,1.801,0.16,2.806,0.25c-0.334,0.611-0.575,1.052-0.768,1.406
			c0.355,0.452,0.68,0.865,1.087,1.383c-0.096-1.899-0.057-1.725,0.855-2.167c-0.111-0.275-0.222-0.552-0.334-0.829
			c1.29-0.64,2.12,0.661,3.285,0.577c-0.267,0.328-0.852,0.358-0.581,0.984c0.726-0.104,1.201,0.672,2.003,0.607
			c0.29-0.024,0.538,0.339,0.209,0.703c-0.027,0.03,0.003,0.112,0.009,0.22c0.268-0.037,0.533-0.072,0.738-0.1
			c0.157-0.623,0.292-1.158,0.441-1.751c0.453,0.043,0.81,0.077,1.173,0.111c-0.094,0.371-0.152,0.6-0.205,0.808
			c0.351,0.121,0.639,0.22,0.961,0.331c-0.092,0.269-0.167,0.488-0.243,0.714c0.85,0.176,0.85,0.176,1.048-0.566
			c0.122-0.457,0.41-0.579,0.79-0.234C231.312,198.662,231.422,198.305,231.631,198.2z M255.811,203.072
			c-0.472-0.102-0.943-0.205-1.508-0.328c-0.133-0.367-0.222-0.896-0.822-0.962c0.016-0.359,0.222-0.473,0.558-0.467
			c0.393,0.007,0.708-0.173,1.058-0.493c-0.254-0.291-0.47-0.539-0.634-0.727c-0.373,0.182-0.64,0.299-0.895,0.439
			c-0.596,0.327-0.612,0.821-0.046,1.214c0.215,0.946-0.379,1.736-0.495,2.584c-1.237-0.248-2.506-0.445-3.17-1.668
			c-0.589,0.193-1.1,0.33-1.496-0.092c-0.637-0.679-1.791-0.863-1.986-1.949c0.734-0.53,0.954,0.135,1.287,0.512
			c0.28-0.119,0.515-0.22,0.674-0.287c-0.235-0.373-0.441-0.699-0.68-1.08c0.656-0.239,1.139-0.505,1.407-1.226
			c-0.579,0.098-1.248,0.01-1.482,0.288c-0.618,0.736-1.457,0.783-2.21,0.999c-0.127,0.466-0.244,0.893-0.367,1.346
			c-0.449,0.077-0.909,0.293-1.271,0.184c-0.44-0.133-0.796-0.54-1.2-0.836c-0.18,0.04-0.382,0.096-0.587,0.126
			c-0.202,0.029-0.408,0.03-0.627,0.044c-0.262,0.623-0.672,1.001-1.319,1.154c-0.225,0.053-0.437,0.318-0.577,0.536
			c-0.333,0.517-0.62,1.063-0.961,1.658c1.145,1.835,1.496,4.034,1.742,6.299c0.059-0.008,0.157-0.016,0.252-0.036
			c1.18-0.257,1.667,0.124,1.67,1.311c0.001,0.302-0.004,0.605-0.006,0.937c0.475-0.023,0.923-0.188,1.136-0.031
			c0.81,0.595,1.607,0.151,2.568,0.177c-0.189-0.473-0.331-0.829-0.534-1.337c-0.528,0.442-0.914,0.766-1.342,1.124
			c-0.103-0.219-0.23-0.393-0.267-0.585c-0.158-0.823-0.007-0.984,0.905-1.15c0.217-0.04,0.408-0.22,0.595-0.327
			c0.495,0.477,0.495,0.472,1.012,0.432c0.654-0.051,1.304-0.124,1.885,0.329c0.145,0.114,0.408,0.077,0.617,0.11
			c-0.6-0.365-0.768-0.907-0.923-1.474c0.736-0.3,1.396-0.568,2.173-0.885c-0.004,0.528-0.006,0.924-0.009,1.362
			c0.463-0.065,0.835-0.117,1.291-0.18c-0.256-0.628-0.431-1.201,0.063-1.711c0.722-0.232,1.22-0.008,1.425,0.898
			c1.301-1.301,2.49-2.49,3.717-3.716c-0.319-0.466-0.572-0.834-0.787-1.147c0.05-0.504,0.095-0.953,0.141-1.401
			c0.478,0.418,0.956,0.837,1.471,1.288c0.4-0.771,0.831-1.603,1.333-2.572c-0.324-0.125-0.624-0.362-0.822-0.295
			c-0.618,0.208-1.2,0.529-1.155,1.32C256.375,203.015,255.856,202.366,255.811,203.072z M266.163,231.737l0.022,0.026
			c-0.109-0.621-0.887-1.078-0.426-1.869c0.17-0.054,0.373-0.111,0.57-0.181c0.898-0.322,0.984-0.61,0.478-1.45
			c-0.236-0.393-0.465-0.806-0.235-1.29c0.194-0.409,0.394-0.815,0.545-1.127c0.283-0.054,0.473-0.124,0.662-0.118
			c0.397,0.013,0.818-0.004,1.183,0.124c0.384,0.135,0.713,0.424,1.231,0.749c-0.381-0.673-0.645-1.139-0.938-1.656
			c0.785-0.165,1.421-0.299,2.057-0.433c0.001-0.073,0.003-0.146,0.004-0.22c-0.54-0.197-1.09-0.372-1.618-0.599
			c-0.43-0.185-0.846-0.437-0.783-1.007c0.059-0.536,0.352-0.926,0.876-1.088c0.443-0.137,0.901-0.229,1.481-0.373
			c-0.805-0.35-1.441-0.767-1.702-1.486c-0.236-0.65-0.317-1.357-0.451-1.971c-0.297,0.4-0.571,0.823-0.899,1.199
			c-0.58,0.666-1.061,1.37-1.119,2.313c0.321-0.21,0.612-0.45,0.801-0.753c0.191-0.307,0.279-0.678,0.413-1.021
			c0.113,0.562,0.801,1.009,0.38,1.589c-0.362,0.5-0.784,1.014-1.297,1.329c-0.5,0.306-1.095,0.048-1.611-0.23
			c-0.486-0.261-1.06-0.436-0.865-1.267c-0.088,0.028-0.176,0.056-0.264,0.084c-0.07,0.893-0.14,1.786-0.212,2.693
			c-1.08,0.211-1.597-0.649-2.299-1.211c-0.491,0.64-1.034,0.992-1.849,0.775c-0.352-0.094-0.641,0.06-0.663,0.576
			c-0.026,0.624-0.534,0.88-1.098,0.917c-0.344,0.022-0.707-0.037-1.041-0.132c-0.764-0.218-1.524-0.297-2.325-0.333
			c-0.941-0.043-1.528,0.316-2.061,0.965c-0.198,0.241-0.389,0.486-0.622,0.776c0.431,0.24,0.844,0.457,0.725,1.066
			c-0.48-0.054-0.95-0.106-1.565-0.175c0.046,0.254,0.05,0.47,0.126,0.656c0.117,0.288,0.457,0.605,0.396,0.824
			c-0.194,0.7,0.445,1.142,0.44,1.782c-0.002,0.215,0.378,0.471,0.629,0.643c1.125,0.777,2.409,1.386,3.366,2.329
			c1.209,1.191,2.696,1.915,4.03,2.886c0.427,0.311,0.998,0.424,1.517,0.634c0.092-0.484,0.166-0.872,0.225-1.185
			c0.719,0.005,1.328,0.009,2.152,0.014c-0.318,0.615-0.549,1.064-0.812,1.571c0.782,0.064,1.563,0.314,2.233,0.139
			c0.925-0.242,2.166-0.079,2.621-1.509c-0.065-0.036-0.193-0.097-0.31-0.174c-0.148-0.097-0.304-0.19-0.428-0.313
			c-0.468-0.464-0.451-0.915,0.036-1.431c0.097-0.103,0.188-0.212,0.276-0.323c0.398-0.501,0.139-1.313-0.488-1.529
			c-0.199,0.131-0.401,0.263-0.583,0.382C266.74,232.113,266.451,231.925,266.163,231.737z M206.081,206.921
			c-0.028,0.078-0.056,0.157-0.083,0.235c0.639,0.434,1.277,0.869,1.952,1.328c1.601-0.475,2.638,0.553,3.59,1.433
			c0.38,1.14-0.648,1.644-0.826,2.361c0.278,0.647,0.512,1.192,0.761,1.771c-0.241,0.211-0.487,0.426-0.619,0.542
			c-0.415-0.234-0.741-0.575-1.037-0.55c-0.463,0.039-0.56,0.52-0.629,0.992c0.688,0.189,1.32,0.426,1.971,0.514
			c0.332,0.045,0.733-0.117,1.046-0.289c1.18-0.649,2.274-1.52,3.766-1.22c0.232,0.047,0.49-0.024,0.735-0.054
			c0.764-0.095,1.528-0.193,2.291-0.297c0.117-0.016,0.33-0.079,0.328-0.109c-0.038-0.572,0.45-0.422,0.664-0.395
			c1.424,0.177,2.811-0.099,4.21-0.249c0.601-0.065,1.075-0.279,1.423-0.795c0.584-0.864,1.258-1.673,1.778-2.572
			c0.452-0.782,0.743-1.657,1.102-2.484c-0.557-0.215-1.074-0.415-1.584-0.611c0.161-0.504,0.289-0.906,0.43-1.346
			c-0.503-0.288-1.002-0.599-1.055-1.275c0.23-0.098,0.422-0.18,0.715-0.306c-0.776-0.45-1.318,0.1-1.971,0.042
			c0.151,0.513,0.275,0.936,0.417,1.416c0.308-0.063,0.599-0.122,0.912-0.186c0.112,0.422,0.241,0.777-0.183,1.076
			c-0.365,0.258-0.633,0.069-0.975-0.059c-0.365-0.137-0.789-0.118-1.336-0.185c-0.086-0.446-0.188-0.975-0.303-1.573
			c-0.271,0.128-0.508,0.24-0.713,0.337c0.047,0.483,0.087,0.893,0.132,1.354c-0.41,0.023-0.709,0.039-1.024,0.057
			c-0.115,0.466-0.157,0.939-0.347,1.342c-0.297,0.631-0.409,1.242-0.049,2.023c-1.081,0.061-2.067,0.195-2.907,0.823
			c0.211,0.405,0.803,0.706,0.314,1.355c-0.902-0.56-1.802-1.119-2.669-1.657c-1.124,0.919-2.429,0.335-2.789-1.091
			c-1.434,0.008-2.025-0.865-2.069-2.119c-0.779-0.16-1.464-0.3-2.187-0.449C208.417,207.017,207.305,207.163,206.081,206.921z
			 M223.318,174.099c0.279,0.479,0.409,0.703,0.531,0.912c-0.615,0.537-1.211,0.83-1.979,0.472
			c-0.209-0.097-0.487-0.048-0.733-0.064c-0.48-0.033-0.886-0.009-1.103,0.566c-0.316,0.836-0.321,1.13,0.175,1.651
			c-0.095,0.157-0.188,0.311-0.396,0.655c0.602-0.215,0.983-0.228,1.258,0.175c0.347,0.509,0.776,0.881,1.513,0.632
			c-0.003,0.485-0.006,0.861-0.009,1.275c0.646,0.145,1.25,0.28,1.909,0.427c-0.002,0.36-0.12,0.74,0.016,0.969
			c0.339,0.572,0.291,1.101-0.097,1.791c0.706-0.112,1.239-0.197,1.583-0.252c0.312-0.586,0.543-1.019,0.807-1.515
			c-0.215-0.755-0.939-0.563-1.556-0.615c-0.426-0.565-0.972-1.071-0.837-1.804c0.838,0.069,1.599,0.093,2.345,0.212
			c0.266,0.042,0.515,0.29,0.735,0.486c0.197,0.175,0.343,0.408,0.515,0.618c-0.101,0.197-0.207,0.404-0.392,0.765
			c0.277-0.162,0.447-0.32,0.505-0.286c0.665,0.39,1.314,0.809,1.966,1.22c0.16-0.128,0.318-0.255,0.503-0.403
			c0.125,0.215,0.255,0.387,0.331,0.58c0.115,0.291,0.192,0.597,0.29,0.913c0.196-0.086,0.384-0.185,0.583-0.253
			c0.527-0.181,1.712,0.096,1.937,0.476c0.371,0.627-0.159,1.025-0.419,1.488c1.154,0.961,1.154,0.961,1.149,1.887
			c0.155-0.206,0.351-0.436,0.352-0.667c0.003-1.578,0.11-3.176-0.104-4.728c-0.2-1.45-0.739-2.856-1.16-4.272
			c-0.49-1.649-1.688-2.61-3.297-2.925c-1.482-0.29-3.008-0.371-4.52-0.479C224.996,173.956,224.262,174.057,223.318,174.099z
			 M236.364,178.773c0.534-0.725,0.991-1.296,1.393-1.904c0.564-0.851,1.126-1.707,1.605-2.606c0.158-0.297,0.183-0.79,0.048-1.094
			c-0.289-0.649-0.659-1.291-1.318-1.628c-0.302,0.152-0.559,0.27-0.803,0.409c-0.296,0.169-0.562,0.41-0.877,0.52
			c-0.316,0.11-0.71,0.02-1.009,0.155c-0.561,0.253-1.078,0.604-1.684,0.955C234.601,175.311,235.452,176.981,236.364,178.773z
			 M225.594,190.245c0.046-0.107,0.091-0.214,0.137-0.321c-0.466,0.306-0.931,0.611-1.409,0.924
			c0.154,0.395,0.292,0.749,0.439,1.125c0.299,0.101,0.591,0.249,0.899,0.295c1.901,0.282,3.634,1.096,5.444,1.667
			c0.847,0.267,1.52,0.717,1.984,1.479c0.085,0.14,0.202,0.261,0.434,0.556c0.157-1.471,0.293-2.745,0.433-4.055
			c-0.971,0.044-1.926-0.413-2.878,0.119c-0.212,0.119-0.559,0.054-0.829-0.001c-0.473-0.095-0.933-0.248-1.433-0.387
			c-0.205-0.405-0.424-0.84-0.67-1.327c-0.48,0.224-0.921,0.429-1.585,0.738C226.269,190.812,225.932,190.528,225.594,190.245z
			 M245.996,152.246c-0.541,1.019-0.449,1.917-0.184,2.926c0.508,1.934,0.818,3.923,0.607,5.949
			c0.065-0.027,0.162-0.035,0.189-0.083c0.875-1.532,1.651-3.104,2.012-4.851c0.096-0.464-0.108-0.747-0.502-0.932
			c-0.702-0.33-0.915-0.937-0.939-1.649c-0.008-0.243,0.002-0.487,0.004-0.762c-1.228-0.311-1.384-1.219-1.277-2.292
			c-0.49-0.05-0.916-0.094-1.522-0.156c0.327,0.414,0.738,0.703,0.712,0.946C245.025,152.009,245.519,152.028,245.996,152.246z
			 M230.398,165.663c0.283,0.484,0.428,0.827,0.048,1.168c-0.104,0.093-0.134,0.325-0.118,0.485c0.07,0.705,0.17,1.407,0.259,2.11
			c0.038-0.001,0.077-0.002,0.115-0.002c0.046-0.297,0.092-0.593,0.137-0.89c0.862,1.161,0.88,2.649,1.709,4.074
			c0.15-0.625,0.25-1.017,0.336-1.411c0.142-0.65,0.273-1.302,0.415-1.951c0.007-0.031,0.075-0.048,0.12-0.074
			c0.039,0.175,0.074,0.332,0.108,0.488c0.068,0.007,0.136,0.013,0.203,0.02c0.194-0.682,0.387-1.364,0.561-1.974
			c-0.742-0.792-1.641-0.999-2.556-1.163c-0.047,0.061-0.094,0.122-0.141,0.183c0.388,0.29,0.777,0.579,1.137,0.848
			c-0.534,0.815-0.832,0.887-1.191,0.306c-0.228-0.369-0.337-0.846-0.376-1.285C231.125,166.165,231.053,165.84,230.398,165.663z
			 M241.967,221.521c0.249,0.307,0.518,0.577,0.313,0.992c-0.051,0.104,0.14,0.367,0.27,0.513c0.184,0.206,0.407,0.38,0.625,0.553
			c1.006,0.798,1.569,2.045,2.813,2.627c0.768,0.36,0.875,0.45,1.41-0.197c0.155-0.187,0.276-0.402,0.433-0.634
			c-0.344-0.572-0.669-1.144-1.029-1.693c-0.132-0.201-0.329-0.372-0.527-0.515c-0.41-0.296-0.658-0.195-0.845,0.297
			c-0.104,0.275-0.23,0.543-0.371,0.87c-0.998-0.561-1.86-1.058-2.341-2.027c0.37-0.274,0.583-0.18,0.87,0.059
			c0.45,0.375,0.88,0.204,1.28-0.199c-0.702-0.435-1.337-0.829-2.01-1.247C242.61,221.087,242.327,221.278,241.967,221.521z
			 M215.667,181.184c-0.003,0.374-0.005,0.749-0.007,1.092c0.367,0.247,0.724,0.487,1.05,0.707c0.058-0.41,0.114-0.806,0.169-1.202
			c0.266-0.044,0.532-0.088,0.824-0.137c-0.058-0.338-0.15-0.612-0.14-0.883c0.01-0.298,0.243-0.605-0.153-0.917
			c-0.489,0.318-1.074,0.574-1.601,0.125c-0.429-0.366-0.754-0.855-1.165-1.336c-1.078,0.709-1.749,1.684-1.572,3.157
			C214.242,181.077,214.242,181.077,215.667,181.184z M224.335,172.629c2.392,0.405,4.704,0.796,7.016,1.188
			c-0.231-0.325-0.519-0.482-0.822-0.601c-0.327-0.129-0.675-0.204-1.001-0.336c-1.066-0.433-2.115-0.911-3.195-1.304
			c-0.323-0.118-0.726-0.016-1.22-0.014c-0.164-0.28,0.178-1.197-0.812-1.014c-0.226,0.491-0.45,0.961-0.66,1.438
			c-0.162,0.366,0.086,1.333,0.414,1.539c0.138-0.028,0.308-0.062,0.435-0.088C224.439,173.171,224.395,172.941,224.335,172.629z
			 M235.483,167.857c-0.331,0.993-0.638,1.914-0.945,2.835c0.054,0.025,0.109,0.051,0.163,0.076c0.314-0.29,0.628-0.58,0.942-0.87
			c0.056,0.044,0.113,0.088,0.169,0.132c-0.202,0.423-0.404,0.845-0.653,1.366c0.789,0.005,1.495,0.01,2.174,0.015
			c0.226-0.769,0.352-1.383-0.094-2.084C236.734,168.532,236.553,168.223,235.483,167.857z M229.251,167.428
			c-0.166,0.521-0.276,0.925-0.428,1.313c-0.072,0.183-0.194,0.385-0.352,0.491c-0.636,0.423-1.296,0.811-2.111,1.314
			c0.852,0.259,1.559,0.56,2.293,0.663c0.411,0.057,0.716,0.147,1.021,0.414c0.418,0.367,0.877,0.689,1.318,1.03
			c0.048-0.056,0.095-0.111,0.143-0.167c-0.108-0.159-0.185-0.36-0.33-0.471c-0.627-0.478-0.967-1.127-1.101-1.873
			c-0.131-0.724-0.178-1.464-0.269-2.195c-0.05-0.405-0.115-0.808-0.175-1.223c-0.434,0.039-0.751,0.067-1.069,0.096
			c-0.002,0.059-0.004,0.117-0.006,0.176C228.517,167.13,228.849,167.265,229.251,167.428z M258.842,196.502
			c-0.68-0.384-1.624-0.554-1.431-1.663c-0.626-0.113-0.708,0.301-0.727,0.76c-0.039,0.962-0.26,1.87-0.783,2.716
			c0.819-0.003,1.374,0.848,2.38,0.673c-0.145-0.708-0.275-1.344-0.397-1.943C258.154,196.809,258.767,197.232,258.842,196.502z
			 M260.698,200.969c-0.941,0.252-0.997,0.464-0.27,1.443c-0.42-0.003-0.781-0.005-1.171-0.008c-0.1,0.233-0.192,0.444-0.328,0.759
			c0.503,0.211,0.941,0.407,1.388,0.578c0.393,0.15,0.93-0.331,1.221,0.277c0.898-0.539,0.898-0.539,1.004-1.132
			C261.673,202.499,260.899,202.011,260.698,200.969z M267.695,202.429c-0.444-0.265-0.821-0.502-1.211-0.717
			c-0.408-0.226-0.885-0.114-0.854,0.207c0.047,0.477,0.163,0.972,0.373,1.398c0.141,0.286,0.488,0.365,0.809,0.082
			c0.57-0.503,1.166-0.325,1.74-0.001c0.326,0.184,0.63,0.407,0.961,0.624c0.153-0.606-0.317-1.546-1.255-2.587
			C268.099,201.716,267.948,201.983,267.695,202.429z M291.755,237.085c-0.031-0.19-0.032-0.3-0.067-0.397
			c-0.679-1.872-0.227-1.754-2.421-1.237c-0.279,0.066-0.545,0.398-0.713,0.671c-0.202,0.328-0.127,0.675,0.241,0.891
			c0.827-0.154,0.827-0.154,1.205,0.338C290.5,236.976,290.5,236.976,291.755,237.085z M289.38,228.144
			c0.094-0.028,0.188-0.057,0.282-0.085c0.061-0.257,0.257-0.626,0.155-0.75c-0.237-0.289-0.618-0.46-0.921-0.666
			c0.027-0.376,0.055-0.762,0.087-1.193c0.369,0.077,0.793,0.181,0.81-0.426c-0.718-0.346-1.516,0.275-2.199-0.288
			c-0.255,0.601-0.469,1.104-0.699,1.645c0.49,0.231,0.999,0.395,1.415,0.69C288.716,227.359,289.027,227.781,289.38,228.144z
			 M262.631,219.498c-0.037,0.072-0.074,0.145-0.112,0.217c-0.123,0.441-0.254,0.879-0.366,1.323
			c-0.156,0.616-0.15,0.618,0.531,1.084c0.205-0.31,0.568-0.554,0.324-1.019c-0.34-0.649-0.089-1.275,0.053-1.958
			c0.474,0.027,0.892,0.051,1.558,0.089c-0.667-0.553-1.135-0.941-1.624-1.346c-0.434,0.341-0.814,0.64-1.154,0.906
			C262.125,219.048,262.378,219.273,262.631,219.498z M258.536,203.58c-0.194,1.138-1.563,1.685-0.987,3.075
			c1.012-0.664,1.957-1.284,2.902-1.904c-0.028-0.057-0.056-0.113-0.084-0.17c-0.258,0.067-0.516,0.134-0.775,0.201
			C259.272,204.418,258.974,204.079,258.536,203.58z M272.751,223.408c-0.388,0.486-0.732,1.002-0.698,1.654
			c0.011,0.213,0.104,0.488,0.258,0.613c0.249,0.2,0.528,0.057,0.734-0.16c0.166-0.175,0.326-0.357,0.473-0.549
			c0.297-0.388,0.658-0.652,1.31-0.601C274.214,223.634,273.527,223.425,272.751,223.408z M216.924,200.048
			c-0.222,0.295-0.445,0.592-0.692,0.92c0.465,0.573,0.875,1.079,1.283,1.581c0.852-0.611,0.878-0.788,0.369-2.204
			C217.587,200.253,217.291,200.162,216.924,200.048z M239.959,217.623c0.513,0.003,0.915-0.097,1.222,0.031
			c0.568,0.235,0.93,0.082,1.296-0.442c-0.638-0.372-1.267-0.74-1.952-1.139c-0.254,0.516-1.052,0.32-1.121,1.016
			C239.645,217.32,239.87,217.537,239.959,217.623z M206.776,208.118c-0.712,0.049-1.412-0.092-1.876,0.177
			c-0.568,0.328-0.938,0.999-1.418,1.55c0.195,0.185,0.345,0.328,0.44,0.418c0.252-0.117,0.462-0.213,0.671-0.31
			c0.17-0.078,0.37-0.122,0.503-0.242C205.606,209.252,206.094,208.77,206.776,208.118z M222.006,187.083
			c0.38,0.305,0.762,0.61,1.11,0.889c0.264-0.171,0.433-0.281,0.637-0.413c0.029,0.372,0.052,0.676,0.083,1.081
			c0.318-0.221,0.558-0.388,0.796-0.554c-0.264-0.581-0.49-1.078-0.722-1.588C223.249,186.535,222.571,186.372,222.006,187.083z
			 M242.605,162.904c-0.452,0.144-0.896,0.285-1.281,0.407c-0.581,0.594-0.134,1.029,0.182,1.41
			c-0.109,0.264-0.192,0.464-0.289,0.699c0.639-0.472,1.213-0.896,1.792-1.324C242.887,163.738,242.745,163.319,242.605,162.904z
			 M257.848,221.565c-0.518,0.408-1.023,0.805-1.572,1.237c0.77,0.302,1.765-0.402,2.286,0.725c0.377-0.374,0.665-0.659,0.948-0.941
			C258.933,222.231,258.431,221.922,257.848,221.565z M236.595,129.469c-0.669,0.016-1.072,0.049-1.509,0.397
			c-0.319,0.254-0.888,0.195-1.346,0.275c0.662,0.271,0.78,1.318,1.727,1.055C235.78,130.716,236.124,130.191,236.595,129.469z
			 M217.969,208.949c0.761,0.132,1.266-0.055,1.792-0.654c-0.607-0.561-1.173-1.085-1.74-1.609c-0.075,0.028-0.15,0.056-0.225,0.083
			C217.852,207.49,217.91,208.211,217.969,208.949z M216.646,187.832c0.918-0.797,2.025-0.667,3.25,0.164
			c-0.234-0.388-0.467-0.776-0.736-1.222c0.348,0.05,0.649,0.127,0.947,0.118c0.115-0.003,0.225-0.202,0.337-0.312
			c-0.608,0.309-0.965-0.071-1.191-0.306c-0.786,0.218-1.438,0.402-2.093,0.579C216.72,186.972,216.545,187.234,216.646,187.832z
			 M219.96,207.996c0.718-0.223,1.021-0.672,1.188-1.224c0.085-0.281,0.337-0.666-0.066-0.837c-0.238-0.101-0.605-0.004-0.876,0.102
			c-0.451,0.178-0.626,0.531-0.458,1.027C219.837,207.328,219.874,207.608,219.96,207.996z M242.759,152.991
			c0.586,0.225,1.115,0.429,1.643,0.632c0.044-0.064,0.089-0.129,0.133-0.194c-0.346-0.463-0.76-0.892-1.02-1.4
			c-0.264-0.515-0.375-1.107-0.553-1.665c-0.062,0.009-0.123,0.018-0.185,0.026C242.77,151.27,242.764,152.15,242.759,152.991z
			 M206.697,230.78c-0.588-0.352-1.128,0.346-1.639-0.053c-0.08,0.18-0.252,0.376-0.223,0.536c0.079,0.434,0.244,0.852,0.39,1.325
			C205.992,232.177,206.426,231.615,206.697,230.78z M209.133,186.15c0.157,0.012,0.295,0.035,0.432,0.031
			c0.956-0.025,1.099-0.227,0.622-1.056c-0.381-0.662-0.867-1.263-1.376-1.99c-0.108,0.423-0.182,0.712-0.25,0.979
			C209.681,184.843,209.783,185.218,209.133,186.15z M206.646,185.998c-0.468,0.43-0.856,0.786-1.344,1.233
			c0.846,0.051,1.525,0.092,2.262,0.136c0.002-0.349,0.004-0.648,0.007-0.968C207.272,186.27,206.986,186.146,206.646,185.998z
			 M263.758,196.6c0.12,0.275,0.222,0.507,0.323,0.74c0.053-0.023,0.107-0.047,0.16-0.07c0.036-0.714,0.073-1.427,0.113-2.209
			c-0.235-0.024-0.48-0.048-0.842-0.085c0.051,0.585,0.039,1.062-0.518,1.325c-0.128,0.06-0.088,0.476-0.15,0.897
			C263.252,196.93,263.503,196.767,263.758,196.6z M281.023,227.531c0.408-0.453,0.383-0.45,0.35-0.764
			c-0.057-0.548-0.09-1.098-0.11-1.648c-0.008-0.226,0.043-0.454,0.073-0.73c-0.447-0.003-0.807-0.005-1.226-0.008
			c0.023,0.409,0.041,0.747,0.059,1.072C281.501,225.745,280.643,226.879,281.023,227.531z M252.347,213.297
			c-0.081,0.04-0.161,0.08-0.242,0.12c0.088,0.574,0.149,1.154,0.27,1.72c0.13,0.608-0.543,1.205,0.017,1.839
			c0.252-0.173,0.501-0.344,0.728-0.5c0.068-0.517-0.909-0.935-0.033-1.365c-0.32-0.513-1.091-0.85-0.435-1.572
			C252.55,213.458,252.448,213.378,252.347,213.297z M224.942,200.997c0.06-1.011,0.089-1.757-0.6-2.447
			c-0.322,0.382-0.617,0.731-0.852,1.009C223.999,200.062,224.383,200.443,224.942,200.997z M207.585,214.798
			c0.509-0.339,0.99-0.659,1.564-1.041c-0.325-0.325-0.542-0.541-0.851-0.85c-0.471,0.441-0.883,0.828-1.288,1.208
			c0.13,0.201,0.179,0.293,0.244,0.371C207.32,214.565,207.404,214.629,207.585,214.798z M211.252,182.028
			c-0.724,1.119-0.724,1.119-0.174,2.115c0.36-0.322,0.716-0.642,1.136-1.017C211.885,182.75,211.577,182.399,211.252,182.028z
			 M211.405,226.561c0.648,0.008,1.106-0.152,1.498-0.639c-0.301-0.218-0.549-0.398-0.797-0.579
			c-0.128-0.094-0.252-0.269-0.381-0.272c-0.238-0.005-0.541,0.016-0.703,0.158c-0.32,0.279-0.04,0.549,0.13,0.806
			C211.246,226.179,211.303,226.346,211.405,226.561z M248.374,219.875c-0.623-0.048-1.157-0.089-1.683-0.13
			c-0.232,0.822-0.196,1.077,0.157,1.205C247.439,221.164,248.161,220.683,248.374,219.875z M271.987,231.892
			c0.114-0.231,0.204-0.464,0.337-0.668c0.135-0.208,0.314-0.387,0.473-0.579c-0.516-0.044-0.962-0.001-1.347,0.176
			c-0.389,0.179-1.037,0.041-1.109,0.714C270.881,231.651,271.386,231.761,271.987,231.892z M187.544,234.417
			c-0.115,0.927,0.212,1.678,0.667,2.444c-0.155-0.87,0.244-1.487,0.946-2.042C188.548,234.667,188.087,234.552,187.544,234.417z
			 M248.311,141.367c-0.552-0.029-1.023-0.598-1.158,0.289c0.646,0.163,1.289,0.326,2.017,0.509c0.002-0.312,0.01-0.553,0.004-0.793
			c-0.006-0.262-0.025-0.525-0.039-0.787c-0.058-0.023-0.117-0.047-0.176-0.07C248.733,140.815,248.505,141.113,248.311,141.367z
			 M206.965,193.271c-1.104-1.673-1.141-1.7-1.947-1.617c0.304,0.555,0.626,1.143,1.009,1.843
			C206.23,193.448,206.538,193.374,206.965,193.271z M265.389,189.236c0.456-0.363,0.76-0.575,1.027-0.825
			c0.299-0.28,0.564-0.595,0.85-0.901c-0.151-0.203-0.335-0.45-0.57-0.765C266.219,187.574,265.397,188.014,265.389,189.236z
			 M277.411,212.079c-0.299-0.472-0.577-0.912-0.942-1.49c-0.256,0.269-0.569,0.458-0.66,0.724
			c-0.148,0.435,0.056,0.823,0.508,1.091C276.649,212.305,277.01,212.198,277.411,212.079z M246.393,166.482
			c-0.576-0.087-1.049-0.158-1.556-0.235c-0.133,0.166-0.279,0.347-0.501,0.625c0.553,0.271,1.026,0.503,1.565,0.767
			C246.087,167.199,246.221,166.884,246.393,166.482z M223.96,164.261c0.421,0.202,0.7,0.337,0.962,0.463
			c0.963-0.697,0.936-0.954-0.217-1.641C224.469,163.455,224.232,163.83,223.96,164.261z M246.502,145.329
			c-0.649,0.152-0.924,0.31-0.922,0.824c0.005,0.869,0.115,1.368,0.539,1.614C246.245,146.97,246.364,146.209,246.502,145.329z
			 M243.922,142.109c-0.038-0.601-0.067-1.044-0.096-1.492c-0.822,0.117-0.822,0.117-1.04,1.346
			C243.136,142.008,243.481,142.052,243.922,142.109z M273.931,237.847c-0.287,0.145-0.438,0.462-0.321,0.788
			c0.136,0.379,0.401,0.712,0.644,1.123c0.272-0.217,0.587-0.47,0.85-0.68C274.739,238.694,274.381,238.319,273.931,237.847z
			 M192.345,228.47c-0.787,0.511,0.198,1.234-0.203,1.8c-0.015,0.022,0.16,0.179,0.245,0.27
			C193.256,229.846,193.227,229.164,192.345,228.47z M234.904,144.076c0.274,0.157,0.493,0.283,0.674,0.386
			c0.256-0.354,0.465-0.628,0.657-0.913c0.229-0.342,0.27-0.644-0.274-0.83C235.626,143.149,235.295,143.575,234.904,144.076z
			 M242.527,220.417c0.929,0.235,1.359-0.535,2.054-0.738c-0.53-0.574-1.109-0.208-1.632-0.339
			C242.813,219.686,242.703,219.968,242.527,220.417z M274.35,233.605c-0.394-0.213-0.679-0.368-0.99-0.536
			c-0.46,0.744-0.256,1.256,0.224,1.831C273.849,234.452,274.061,234.094,274.35,233.605z M272.114,201.104
			c-0.113-0.84-0.113-0.84-1.061-1.304c-0.109,0.351-0.214,0.687-0.358,1.148C271.214,201.005,271.605,201.048,272.114,201.104z
			 M278.098,221.406c1.214,0.105,2.1,0.001,2.406-0.284c0.071-0.066,0.044-0.239,0.066-0.384c-0.51-0.061-0.947-0.114-1.487-0.179
			C279.296,221.336,278.692,221.268,278.098,221.406z M233.691,189.659c-0.081,0.59-0.167,1.083-0.203,1.579
			c-0.01,0.131,0.146,0.393,0.208,0.388c0.169-0.015,0.401-0.096,0.481-0.228C234.543,190.788,234.441,190.41,233.691,189.659z
			 M272.101,228.449c0.287,0.434,0.489,0.741,0.693,1.05c0.397,0.015,0.775,0.141,1.107-0.195
			C273.481,228.74,273.003,228.387,272.101,228.449z M218.114,172.644c-0.347-0.3-0.708-0.613-1.186-1.028
			c0.226,0.803,0.388,1.491,0.633,2.148c0.047,0.125,0.424,0.126,0.649,0.185c0.013-0.047,0.027-0.094,0.04-0.141
			c-0.169-0.16-0.338-0.319-0.505-0.477C217.868,173.102,217.966,172.92,218.114,172.644z M262.458,191.32
			c-0.388,0.634-0.928,0.983-0.833,1.803c0.534-0.363,0.961-0.654,1.455-0.99C262.876,191.867,262.717,191.658,262.458,191.32z
			 M211.406,202.848c0.447-0.241,0.905-0.488,1.363-0.736c-0.02-0.077-0.039-0.153-0.059-0.23c-0.588-0.004-1.177-0.008-1.799-0.012
			C211.072,202.19,211.21,202.462,211.406,202.848z M237.872,148.015c0.425-0.529,0.768-0.955,1.168-1.452
			c-0.208-0.067-0.376-0.176-0.438-0.132c-0.489,0.343-0.958,0.715-1.43,1.081c-0.016,0.012-0.003,0.063-0.003,0.163
			C237.383,147.778,237.62,147.893,237.872,148.015z M285.489,223.669c-0.834-0.471-1.467-0.828-2.313-1.306
			c0.245,0.59,0.386,0.929,0.538,1.294C284.262,223.661,284.783,223.665,285.489,223.669z M238.264,201.856
			c0.002-0.309,0.003-0.493,0.005-0.732c-0.446,0.163-0.814,0.298-1.08,0.395c0.465,0.371,0.925,0.737,1.427,1.137
			c0.163-0.187,0.386-0.44,0.695-0.793C238.9,201.86,238.631,201.858,238.264,201.856z M205.037,190.421
			c0.475,0.645,0.724,0.331,0.796-0.028c0.087-0.437,0.026-0.904,0.03-1.412c-0.245-0.088-0.517-0.186-1.003-0.359
			c0.363,0.555,0.601,0.919,0.929,1.421C205.53,190.173,205.281,190.298,205.037,190.421z M239.654,172.288
			c0.604-0.691,0.165-1.291,0.23-2.035c-0.377,0.31-0.607,0.499-0.811,0.667C239.256,171.351,239.417,171.731,239.654,172.288z
			 M220.601,204.192c-0.168-0.73-0.3-1.303-0.432-1.875c-0.053,0.012-0.105,0.023-0.158,0.035c-0.13,0.586-0.26,1.172-0.396,1.783
			C219.848,204.148,220.114,204.164,220.601,204.192z M248.331,216.058c0.03,0.598-0.301,1.219,0.355,1.694
			C249.303,216.541,249.303,216.541,248.331,216.058z M203.745,187.439c0.403-0.62-0.025-0.908-0.424-1.268
			c-0.314,0.154-0.748,0.077-0.942,0.593C202.847,186.995,203.289,187.214,203.745,187.439z M201.091,229.504
			c-0.001-0.084-0.002-0.168-0.002-0.252c-0.424-0.221-0.848-0.442-1.322-0.689c-0.003,0.379-0.005,0.687-0.008,1.131
			C200.234,229.626,200.663,229.565,201.091,229.504z M236.225,199.984c0.068,0.069,0.136,0.138,0.204,0.207
			c0.458-0.057,0.916-0.115,1.454-0.182c-0.308-0.643-0.832-0.594-1.277-0.585C236.475,199.427,236.352,199.788,236.225,199.984z
			 M292.661,235.266c-0.744,0.147-0.392,0.606-0.298,0.963c0.132,0.505,0.412,0.803,0.985,0.561
			C293.124,236.292,292.902,235.799,292.661,235.266z M201.982,190.794c0.36,0.315,0.616,0.539,0.87,0.762
			c0.243-0.103,0.454-0.192,0.747-0.316c-0.416-0.333-0.74-0.592-1.048-0.839C202.46,190.464,202.241,190.615,201.982,190.794z
			 M281.204,237.886c-0.4,0.39-0.227,0.7,0.091,1.074c0.435-0.225,0.86-0.444,1.467-0.758
			C282.068,238.062,281.633,237.973,281.204,237.886z M211.625,194.841c-0.024-0.435-0.049-0.78-0.58-0.586
			c-0.552,0.202-0.938-0.035-1.289-0.423c-0.033-0.036-0.126-0.017-0.229-0.026c-0.001,0.202-0.003,0.402-0.004,0.631
			C210.217,194.57,210.89,194.7,211.625,194.841z M235.751,196.679c0.194,0.073,0.339,0.128,0.464,0.176
			c0.242-0.403,0.436-0.727,0.655-1.092c-0.211-0.192-0.449-0.408-0.757-0.689C235.975,195.689,235.862,196.187,235.751,196.679z
			 M230.688,190.558c-0.592-1.122-1.267-0.291-1.923-0.146C229.406,190.46,230.047,190.509,230.688,190.558z M213.104,170.706
			c0.179,0.364,0.246,0.63,0.413,0.795c0.127,0.126,0.381,0.123,0.578,0.178c0.015-0.194,0.089-0.406,0.033-0.576
			c-0.09-0.278-0.265-0.528-0.454-0.885C213.405,170.447,213.225,170.603,213.104,170.706z M222.057,188.952
			c-0.06,0.275-0.183,0.49-0.122,0.622c0.271,0.591,0.636,1.117,1.488,1.514c-0.238-0.532-0.349-0.885-0.542-1.185
			C222.688,189.604,222.414,189.357,222.057,188.952z M247.949,152.663c-0.065,0.846,0.243,1.509,1.038,2.19
			C248.908,153.829,248.307,153.301,247.949,152.663z M241.608,167.598c0.133-0.765-0.18-1.215-0.833-1.54
			c0.09,0.54,0.179,1.08,0.274,1.652C241.24,167.672,241.408,167.639,241.608,167.598z M264.451,201.187
			c-0.394-0.351-0.701-0.624-1.007-0.898c-0.075,0.051-0.151,0.102-0.226,0.153c0.148,0.461,0.296,0.922,0.488,1.522
			C263.996,201.661,264.158,201.493,264.451,201.187z M198.382,231.037c0.318-0.509,0.558-0.893,0.803-1.286
			c-0.316-0.179-0.605-0.342-1.076-0.609C198.218,229.895,198.296,230.441,198.382,231.037z M239.595,142.264
			c-0.324,1.142-0.227,1.311,0.945,1.758c-0.033-0.236-0.011-0.58-0.097-0.61C239.942,143.238,239.802,142.784,239.595,142.264z
			 M202.158,194.77c0.407,0.433,0.817,0.066,1.271,0.001c-0.059-0.276-0.114-0.535-0.208-0.978
			C202.802,194.177,202.496,194.459,202.158,194.77z M239.485,132.758c-0.07-0.061-0.139-0.122-0.209-0.184
			c-0.901,0.187-0.991,0.998-1.119,1.788C238.6,133.828,239.042,133.293,239.485,132.758z M233.635,139.65
			c-1.117-0.707-1.22-0.67-1.59,0.353C232.665,140.45,232.936,139.705,233.635,139.65z M194.63,234.786
			c0.468,0.423,0.73-0.038,1.062-0.135c0.344-0.101,0.701-0.154,1.053-0.228c-0.026-0.095-0.053-0.19-0.079-0.285
			C196.136,234.893,195.133,233.756,194.63,234.786z M205.999,214.579c-0.396,0.169-0.656,0.281-1.017,0.435
			c0.428,0.498,0.742,0.878,1.424,0.591C206.274,215.273,206.162,214.991,205.999,214.579z M209.091,228.762
			c-0.074-0.617-0.129-1.075-0.19-1.587C207.982,227.972,207.999,228.194,209.091,228.762z M268.803,192.831
			c-0.078-0.016-0.157-0.031-0.236-0.047c-0.169,0.465-0.339,0.93-0.526,1.444c0.277,0.002,0.477,0.003,0.752,0.005
			C268.797,193.743,268.8,193.287,268.803,192.831z M202.064,232.645c-0.744-0.797-0.853-0.788-1.723-0.012
			C200.942,232.637,201.503,232.641,202.064,232.645z M213.64,189.275c0.038,0.077,0.077,0.154,0.115,0.23
			c0.424,0.003,0.848,0.006,1.4,0.009c-0.271-0.336-0.459-0.569-0.699-0.867C214.152,188.881,213.896,189.078,213.64,189.275z
			 M202.951,230.181c-0.035,0.513-0.062,0.907-0.089,1.301c0.065,0.033,0.13,0.066,0.196,0.099c0.288-0.245,0.577-0.489,0.9-0.763
			C203.592,230.586,203.337,230.425,202.951,230.181z M212.994,203.687c0.165-0.448,0.05-0.787-0.315-1.218
			c-0.294,0.41-0.522,0.729-0.804,1.123C212.327,203.63,212.64,203.657,212.994,203.687z M222.591,160.175
			c0.049-0.08,0.097-0.161,0.146-0.241c-0.239-0.246-0.156-0.754-0.763-0.758c-0.128,0.211-0.262,0.431-0.454,0.749
			C221.948,160.025,222.27,160.1,222.591,160.175z M246.602,217.605c-0.442-0.177-0.702-0.281-1.037-0.416
			c-0.003,0.499-0.006,0.848-0.008,1.198c0.095,0.064,0.191,0.129,0.286,0.193C246.049,218.317,246.254,218.053,246.602,217.605z
			 M236.855,187.652c0.357-0.062,0.637-0.111,0.883-0.154c0.014,0.174,0.021,0.258,0.028,0.343c0.247-0.787,0.247-0.787-0.908-0.812
			C236.858,187.195,236.857,187.36,236.855,187.652z M218.873,189.531c0.109-0.286,0.211-0.553,0.325-0.85
			c-0.327-0.139-0.571-0.242-0.809-0.343C218.046,188.966,218.046,188.966,218.873,189.531z M278.989,214.922
			c-0.061-0.474-0.112-0.872-0.163-1.271c-0.055,0.002-0.11,0.004-0.165,0.006c-0.151,0.469-0.301,0.938-0.48,1.496
			C278.471,215.071,278.719,214.999,278.989,214.922z M189.651,238.361c-0.618-0.384-0.62-0.386-1.062-0.061
			c-0.035,0.026-0.029,0.106-0.042,0.159c0.256,0.163,0.502,0.319,0.759,0.483C189.447,238.706,189.549,238.533,189.651,238.361z
			 M274.149,212.983c-0.068,0.56-0.125,1.036-0.183,1.513c0.044,0.023,0.087,0.046,0.131,0.069c0.252-0.446,0.504-0.893,0.773-1.371
			C274.706,213.146,274.484,213.081,274.149,212.983z M272.124,233.95c-0.825-0.326-1.515-0.598-2.205-0.87
			c0.462,0.455,0.973,0.819,1.521,1.114C271.558,234.257,271.812,234.068,272.124,233.95z M218.817,163.331
			c0.031,0.389,0.015,0.662,0.088,0.908c0.038,0.129,0.284,0.322,0.347,0.293c0.16-0.073,0.352-0.238,0.387-0.398
			C219.765,163.566,219.262,163.584,218.817,163.331z M229.982,137.678c0.01,0.097,0.021,0.194,0.031,0.291
			c0.301,0.073,0.601,0.146,1.02,0.247c-0.058-0.467-0.093-0.751-0.148-1.197C230.504,137.296,230.243,137.487,229.982,137.678z
			 M272.109,220.57c0.412-0.181,0.773-0.34,1.209-0.531c-0.724-0.081-1.32-0.148-2.114-0.237
			C271.589,220.128,271.841,220.342,272.109,220.57z M230.423,143.622c0.062-0.029,0.124-0.057,0.186-0.086
			c-0.086-0.401-0.172-0.801-0.277-1.293c-0.29,0.201-0.491,0.34-0.58,0.402C230.004,143.013,230.213,143.317,230.423,143.622z
			 M248.722,135.015c-0.035,0.213-0.036,0.439-0.112,0.637c-0.095,0.248-0.251,0.474-0.4,0.744c0.185,0.024,0.354,0.046,0.533,0.07
			C249.071,135.982,249.065,135.515,248.722,135.015z M216.48,169.309c0.088,0.089,0.177,0.178,0.265,0.267
			c0.34-0.291,0.679-0.582,1.036-0.888c-0.14-0.162-0.228-0.264-0.389-0.451C217.068,168.618,216.774,168.964,216.48,169.309z
			 M196.673,227.971c0.049-0.048,0.099-0.095,0.148-0.143c-0.266-0.29-0.531-0.579-0.853-0.931
			c-0.213,0.285-0.366,0.489-0.488,0.652C195.921,227.705,196.297,227.838,196.673,227.971z M210.81,192.305
			c-0.249,0.085-0.548,0.123-0.558,0.201c-0.055,0.405-0.202,0.879,0.4,1.16C210.706,193.202,210.751,192.812,210.81,192.305z
			 M221.634,163.056c-0.124-0.447-0.229-0.824-0.348-1.253c-0.217,0.088-0.405,0.164-0.652,0.263
			C220.965,162.408,221.002,162.938,221.634,163.056z M282.409,220.424c-0.199-0.314-0.415-0.654-0.747-1.178
			c-0.144,0.465-0.303,0.714-0.237,0.813C281.677,220.436,282.071,220.518,282.409,220.424z M265.523,219.16
			c0.055,0.027,0.11,0.054,0.165,0.081c0.247-0.345,0.493-0.69,0.802-1.122c-0.395,0.03-0.648,0.05-0.961,0.074
			C265.527,218.551,265.525,218.856,265.523,219.16z M211.475,171.146c-0.089,0.043-0.178,0.087-0.267,0.13
			c-0.043,0.26-0.085,0.52-0.146,0.892c0.356-0.06,0.626-0.106,0.896-0.152c0.041-0.088,0.082-0.176,0.123-0.264
			C211.88,171.551,211.677,171.349,211.475,171.146z M201.123,194.218c-0.175,0.228-0.301,0.354-0.38,0.505
			c-0.071,0.136-0.091,0.3-0.15,0.511c0.449-0.035,0.805-0.063,1.209-0.094C201.591,194.852,201.392,194.583,201.123,194.218z
			 M214.786,174.022c-0.311-0.341-0.548-0.6-0.767-0.84c-0.62,0.291-0.385,0.611-0.221,0.919
			C214.122,174.075,214.391,174.053,214.786,174.022z M198.921,233.29c0.234,0.324,0.351,0.567,0.409,0.554
			c0.431-0.098,0.945-0.021,1.34-0.542C200.097,233.298,199.637,233.295,198.921,233.29z M210.498,226.239
			c-0.511,0.103-0.868,0.345-0.884,0.93C210.542,226.992,210.551,226.982,210.498,226.239z M199.588,235.739
			c-0.997,0.247-0.997,0.247-1.063,1.185C198.941,236.46,199.23,236.137,199.588,235.739z M264.216,214.349
			c-0.295-0.588-0.707-0.424-1.08-0.28c-0.076,0.029-0.07,0.268-0.124,0.504C263.48,214.486,263.828,214.421,264.216,214.349z
			 M207.598,229.569c-0.764,0.537-0.764,0.537-0.445,1.759C207.326,230.643,207.451,230.15,207.598,229.569z M245.163,134.486
			c0.512,0.426,0.828,0.228,1.045-0.041c0.074-0.091-0.105-0.386-0.192-0.663C245.688,134.053,245.459,134.242,245.163,134.486z
			 M213.569,169.321c0.447,0.335,0.798,0.222,1.041-0.184c0.067-0.112-0.035-0.326-0.07-0.566
			C214.155,168.868,213.866,169.092,213.569,169.321z M255.75,141.419c-0.406-0.201-0.756-0.373-1.108-0.547
			C254.821,141.689,254.821,141.689,255.75,141.419z M233.857,161.799c0.357-0.134,0.376-0.327,0.187-0.571
			c-0.117-0.151-0.239-0.3-0.41-0.514c-0.167,0.226-0.279,0.378-0.411,0.557C233.468,161.475,233.672,161.645,233.857,161.799z
			 M269.112,215.936c0.205,0.29,0.363,0.514,0.667,0.943c0.092-0.558,0.143-0.862,0.22-1.327
			C269.612,215.72,269.409,215.808,269.112,215.936z M192.202,239.624c-0.125-0.555-0.621-0.404-0.956-0.602
			C191.166,239.773,191.166,239.773,192.202,239.624z M256.028,193.126c0.398,1.03,0.398,1.03,1.11,0.682
			C256.808,193.606,256.514,193.425,256.028,193.126z M250.763,216.396c-0.081-0.028-0.162-0.055-0.242-0.082
			c-0.191,0.291-0.382,0.582-0.596,0.908c0.261,0.077,0.426,0.126,0.616,0.182C250.617,217.059,250.69,216.727,250.763,216.396z
			 M222.355,161.952c-0.345,0.191-0.613,0.349-0.344,0.66c0.093,0.108,0.404,0.178,0.497,0.109
			C222.914,162.417,222.481,162.223,222.355,161.952z M229.076,205.792c0.337-0.528,0.159-0.795-0.289-1.016
			C228.553,205.412,228.553,205.412,229.076,205.792z M211.496,199.046c0.44,0.747,0.755,0.562,1.096,0.21
			C212.343,198.445,211.968,199.001,211.496,199.046z M282.116,237.594c0.072-0.077,0.143-0.154,0.215-0.231
			c-0.346-0.298-0.584-0.762-1.256-0.578C281.422,237.055,281.769,237.325,282.116,237.594z M250.981,148.022
			c-0.199,0.421-0.319,0.674-0.541,1.143c0.483-0.188,0.746-0.29,1.057-0.41C251.342,148.535,251.228,148.373,250.981,148.022z
			 M215.088,193.374c-0.355,0.091-0.711,0.182-1.278,0.327C214.571,193.958,214.571,193.958,215.088,193.374z M203.843,239.453
			c0.278-0.302,0.568-0.616,0.861-0.934C204.056,238.484,204.056,238.484,203.843,239.453z M260.887,214.889
			c0.382-0.745,0.306-0.895-0.538-0.951C260.547,214.289,260.703,214.565,260.887,214.889z M234.073,145.068
			c-0.174,0.419-0.354,0.649-0.298,0.759c0.128,0.252,0.376,0.416,0.714,0.113C234.39,145.732,234.29,145.523,234.073,145.068z
			 M260.73,218.495c0.464-0.288,0.736-0.457,1.05-0.653C261.099,217.472,261.099,217.472,260.73,218.495z M252.435,219.652
			c-0.009-0.057-0.018-0.115-0.027-0.172c-0.332-0.051-0.664-0.124-0.997-0.134c-0.073-0.002-0.153,0.222-0.319,0.482
			C251.665,219.753,252.05,219.702,252.435,219.652z M278.88,231.027c0.553,0.319,0.553,0.319,0.833-0.195
			C279.356,230.582,279.099,230.668,278.88,231.027z M229.704,162.474c-0.116-0.513-0.173-0.77-0.244-1.084
			c-0.274,0.026-0.515,0.049-0.926,0.088C228.956,161.838,229.232,162.073,229.704,162.474z M263.239,216.515
			c0.041,0.068,0.082,0.135,0.122,0.203c0.389-0.149,0.778-0.297,1.167-0.446c-0.025-0.066-0.05-0.132-0.075-0.198
			C264.048,216.221,263.644,216.368,263.239,216.515z M197.814,232.393c0.384-0.165,0.768-0.331,1.347-0.58
			C198.405,231.627,198.07,231.941,197.814,232.393z M228.578,164.184c-0.726-0.577-0.726-0.577-1.101-0.007
			C227.833,164.178,228.16,164.181,228.578,164.184z M241.269,172.455c-0.238,0.904,0.537,0.501,0.703,0.773
			C241.783,173.02,241.594,172.813,241.269,172.455z M214.913,184.483c0.042,0.098,0.084,0.197,0.126,0.295
			c0.286-0.113,0.572-0.226,0.925-0.365C215.365,183.725,215.165,184.204,214.913,184.483z M240.88,132.556
			c-0.658,0.328-0.633,0.605-0.244,0.91c0.031,0.024,0.118-0.022,0.239-0.049C240.876,133.183,240.877,132.935,240.88,132.556z
			 M210.702,188.994c-0.041-0.859-0.141-0.936-0.793-0.591C210.179,188.604,210.414,188.779,210.702,188.994z M249.495,170.601
			c-0.2,0.239-0.345,0.414-0.585,0.701c0.409,0.003,0.629,0.004,0.958,0.006C249.733,171.053,249.644,170.884,249.495,170.601z
			 M241.947,146.762c-0.292,0.155-0.465,0.246-0.696,0.369c0.177,0.193,0.321,0.349,0.597,0.65
			C241.891,147.348,241.914,147.111,241.947,146.762z M254.753,146.412c0.362,0.702,0.783,0.611,1.224,0.49
			C255.643,146.768,255.31,146.635,254.753,146.412z M238.632,187.008c-0.18,0.791-0.18,0.791,0.18,1.368
			C238.741,187.836,238.687,187.422,238.632,187.008z M216.051,166.112c-0.421,0.273-0.509,0.491-0.066,0.709
			c0.075,0.037,0.189-0.006,0.386-0.018C216.252,166.545,216.161,166.349,216.051,166.112z M243.542,214.926
			c0.007,0.09,0.013,0.179,0.019,0.269c0.276,0.002,0.554,0.011,0.828-0.014c0.015-0.001,0.004-0.285,0.005-0.49
			C244.068,214.781,243.805,214.854,243.542,214.926z M276.373,208.523c0.25,0.706,0.25,0.706,1.179,0.508
			C277.185,208.874,276.844,208.727,276.373,208.523z M275.625,232.419c0.552-0.144,0.552-0.144,0.464-0.778
			C275.934,231.901,275.78,232.16,275.625,232.419z M192.941,232.419c-0.07,0.012-0.14,0.023-0.21,0.035
			c-0.034,0.318-0.152,0.65,0.359,0.876C193.041,233.026,192.991,232.723,192.941,232.419z M250.352,202.341
			c0.459,0.414,0.459,0.414,0.933,0.112C250.974,202.416,250.663,202.379,250.352,202.341z M219.165,200.478
			c0.2,0.581,0.442,0.721,0.823,0.418c0.032-0.025,0.013-0.113,0.024-0.242C219.764,200.603,219.51,200.55,219.165,200.478z
			 M237.15,140.36c-0.091-0.018-0.183-0.035-0.274-0.053c-0.057,0.427-0.114,0.853-0.172,1.28c0.078,0.011,0.156,0.021,0.234,0.032
			C237.009,141.2,237.079,140.78,237.15,140.36z M228.946,165.294c-0.231,0.282-0.39,0.477-0.608,0.743
			C228.949,166.157,229.278,166.133,228.946,165.294z M272.202,236.326c0.455-0.077,0.642-0.318,0.697-0.854
			C272.448,235.667,271.998,235.682,272.202,236.326z M196.755,240.342c-0.111,0.289-0.205,0.532-0.337,0.877
			C196.978,241.084,197.294,240.96,196.755,240.342z M279.265,231.522c-0.344,0.023-0.608,0.041-0.873,0.059
			C278.683,231.936,278.965,232.152,279.265,231.522z M229.161,143.916c0.2-0.378,0.341-0.79-0.415-0.711
			C228.921,143.505,229.041,143.711,229.161,143.916z M238.402,130.711c-0.287,0.361-0.493,0.62-0.81,1.018
			C238.247,131.588,238.468,131.34,238.402,130.711z M221.368,163.821c0.352,0.433,0.602,0.36,0.969-0.182
			C221.879,163.725,221.623,163.773,221.368,163.821z M222.784,200.426c0.018-0.093,0.037-0.186,0.055-0.28
			c-0.243-0.022-0.486-0.043-0.73-0.065c-0.011,0.073-0.022,0.146-0.033,0.219C222.313,200.342,222.548,200.384,222.784,200.426z
			 M254.454,195.905c1.047,0.288,1.047,0.288,1.118-0.179C255.268,195.775,254.967,195.822,254.454,195.905z M263.73,188.19
			c0.369,0.003,0.569,0.004,0.871,0.006c-0.217-0.282-0.354-0.461-0.547-0.712C263.941,187.73,263.872,187.88,263.73,188.19z
			 M246.801,221.755c-0.474-0.113-0.744-0.177-1.164-0.278c0.272,0.325,0.424,0.506,0.604,0.722
			C246.379,222.089,246.508,221.987,246.801,221.755z M233.778,148.381c-0.285,0.587-0.285,0.587,0.15,1.092
			C233.872,149.063,233.834,148.788,233.778,148.381z M253.43,217.982c-0.038-0.318-0.067-0.553-0.11-0.91
			C253.009,217.458,252.65,217.724,253.43,217.982z M212.985,206.067c-0.012-0.096-0.024-0.192-0.035-0.288
			c-0.235,0.061-0.469,0.121-0.704,0.181c0.017,0.07,0.033,0.139,0.05,0.208C212.525,206.135,212.755,206.101,212.985,206.067z
			 M286.115,232.576c-0.002,0.343-0.004,0.595-0.007,1.044C286.523,233.14,286.514,232.888,286.115,232.576z M230.651,185.475
			c-0.065,0.29-0.121,0.541-0.178,0.791C231.066,186.102,231.184,185.859,230.651,185.475z M217.038,164.12
			c-0.011,0.098-0.022,0.197-0.033,0.295c0.214,0.051,0.427,0.111,0.644,0.139c0.027,0.004,0.077-0.161,0.172-0.372
			C217.509,164.157,217.274,164.138,217.038,164.12z M239.349,165.71c0.751,0.008,0.835-0.233,0.68-0.785
			C239.799,165.19,239.64,165.374,239.349,165.71z M269.829,237.149c0.022-0.088,0.043-0.175,0.065-0.263
			c-0.22-0.064-0.44-0.127-0.719-0.208C269.158,237.498,269.576,237.135,269.829,237.149z M235.524,172.061
			c-0.635-0.35-0.635-0.35-0.825,0.228C234.948,172.22,235.149,172.165,235.524,172.061z M217.225,190.27
			c0.02-0.047,0.039-0.093,0.059-0.139c-0.197-0.113-0.39-0.239-0.597-0.331c-0.041-0.018-0.139,0.092-0.329,0.229
			C216.73,190.132,216.977,190.201,217.225,190.27z M214.867,208.369c-0.27,0.113-0.451,0.189-0.677,0.284
			c0.327,0.106,0.606,0.197,1,0.326C215.048,208.71,214.969,208.563,214.867,208.369z M231.859,146.972
			c-0.182-0.147-0.293-0.293-0.43-0.326c-0.083-0.02-0.208,0.135-0.313,0.212c0.124,0.128,0.234,0.277,0.381,0.368
			C231.536,147.252,231.686,147.098,231.859,146.972z M210.898,195.894c-0.005-0.029-0.01-0.058-0.015-0.087
			c-0.12,0.035-0.24,0.07-0.36,0.106c0.017,0.046,0.034,0.092,0.051,0.138C210.682,195.998,210.79,195.946,210.898,195.894z
			 M220.668,181.462c0.427,0.33,0.682,0.32,0.589-0.292C221.022,181.286,220.845,181.374,220.668,181.462z M199.486,193.587
			c0.082,0.076,0.165,0.152,0.247,0.228c0.128-0.161,0.26-0.319,0.375-0.489c0.005-0.008-0.193-0.178-0.204-0.169
			C199.755,193.29,199.623,193.441,199.486,193.587z M245.105,132.664c0.217,0.256,0.297,0.431,0.381,0.433
			c0.171,0.005,0.345-0.084,0.518-0.134c-0.005-0.053-0.009-0.106-0.014-0.158C245.76,132.768,245.529,132.732,245.105,132.664z
			 M271.98,227.622c0.103-0.002,0.206-0.004,0.31-0.006c-0.014-0.197-0.029-0.395-0.043-0.592c-0.063,0.006-0.178,0.001-0.181,0.019
			C272.027,227.234,272.006,227.428,271.98,227.622z M238.151,145.75c-0.065-0.121-0.127-0.243-0.196-0.362
			c-0.053-0.092-0.115-0.18-0.232-0.362C237.504,145.579,237.804,145.706,238.151,145.75z M216.469,174.85
			c-0.09-0.052-0.179-0.104-0.268-0.156c-0.115,0.234-0.23,0.469-0.346,0.703c0.062,0.033,0.124,0.066,0.186,0.099
			C216.184,175.281,216.327,175.065,216.469,174.85z M236.2,164.643c-0.194,0.272-0.317,0.445-0.509,0.713
			C236.258,165.36,236.334,165.154,236.2,164.643z M190.952,236.248c-0.262-0.107-0.396-0.161-0.571-0.233
			c-0.002,0.255-0.003,0.429-0.004,0.641C190.558,236.527,190.69,236.434,190.952,236.248z M243.861,132.826
			c0.12,0.158,0.164,0.267,0.237,0.294c0.047,0.017,0.205-0.114,0.197-0.135c-0.04-0.105-0.102-0.217-0.19-0.282
			C244.074,132.679,243.951,132.779,243.861,132.826z M234.934,150.104c-0.135-0.503-0.218-0.784-0.693-0.552
			C234.434,149.707,234.613,149.849,234.934,150.104z M200.505,231.639c0.026-0.069,0.051-0.138,0.077-0.208
			c-0.199-0.051-0.398-0.103-0.597-0.154c-0.018,0.074-0.036,0.148-0.053,0.222C200.122,231.546,200.314,231.593,200.505,231.639z
			 M203.687,233.386c0.046-0.034,0.093-0.068,0.139-0.102c-0.103-0.14-0.206-0.279-0.309-0.419c-0.045,0.033-0.09,0.066-0.135,0.099
			C203.483,233.104,203.585,233.245,203.687,233.386z M230.738,202.371c0.007-0.102,0.014-0.204,0.022-0.305
			c-0.192,0.014-0.384,0.027-0.576,0.041c-0.006,0.047-0.013,0.093-0.019,0.14C230.356,202.288,230.547,202.33,230.738,202.371z
			 M213.16,201.663c-0.023,0.067-0.047,0.133-0.07,0.2c0.102,0.112,0.204,0.223,0.354,0.389c0.093-0.21,0.145-0.328,0.198-0.447
			C213.481,201.758,213.32,201.711,213.16,201.663z M283.657,211.843c0.017,0.034,0.035,0.069,0.052,0.103
			c0.151-0.069,0.301-0.139,0.452-0.208c-0.037-0.048-0.098-0.141-0.107-0.136C283.917,211.675,283.788,211.76,283.657,211.843z
			 M214.712,196.907c-0.06,0.018-0.119,0.035-0.179,0.053c0.04,0.153,0.079,0.307,0.118,0.46c0.07-0.021,0.139-0.042,0.209-0.063
			C214.811,197.207,214.762,197.057,214.712,196.907z M250.941,229.474c0.086,0.011,0.172,0.022,0.258,0.033
			c0.016-0.168,0.031-0.335,0.047-0.503c-0.101,0.008-0.282-0.001-0.289,0.028C250.927,229.173,250.943,229.325,250.941,229.474z
			 M228.269,188.48c0.037,0.083,0.075,0.166,0.112,0.249c0.172-0.091,0.346-0.18,0.513-0.28c0.005-0.003-0.074-0.172-0.084-0.169
			C228.627,188.338,228.449,188.41,228.269,188.48z M251.007,154.292c0.149,0.088,0.234,0.178,0.296,0.164
			c0.088-0.02,0.193-0.103,0.225-0.185c0.019-0.049-0.116-0.218-0.137-0.21C251.277,154.103,251.178,154.183,251.007,154.292z
			 M266.118,216.78c0.021-0.068,0.042-0.136,0.063-0.204c-0.242-0.049-0.483-0.098-0.725-0.147
			c-0.014,0.081-0.028,0.162-0.042,0.243C265.649,216.709,265.884,216.745,266.118,216.78z M219.264,170.86
			c-0.083-0.034-0.166-0.069-0.249-0.103c-0.052,0.179-0.105,0.358-0.157,0.537c0.096,0.02,0.272,0.069,0.277,0.055
			C219.193,171.191,219.225,171.024,219.264,170.86z"/>
		<path d="M219.32,222.142c-0.22,0.553-0.386,0.968-0.575,1.442c-0.275-0.042-0.534-0.082-0.827-0.127
			c-0.027-0.4-0.049-0.743-0.072-1.087c-0.332-0.265-0.663-0.531-1.055-0.845c-0.517,0.294-1.06,0.602-1.748,0.993
			c-0.062-0.413-0.113-0.751-0.172-1.144c0.422-0.043,0.728-0.075,1.03-0.106c0.326-0.603,0.931-1.051,0.877-1.833
			c1.011,0.359,1.153,0.76,0.767,1.666C218.143,221.453,218.725,221.794,219.32,222.142z"/>
		<path d="M226.1,140.7c0.567,0.07,1.056,0.13,1.605,0.198c-0.107,0.854-0.269,1.585-1.377,1.634
			c-0.225,0.01-0.434,0.388-0.658,0.603c-0.569,0.057-0.845-0.356-0.997-0.778c-0.173-0.48-0.233-1.008-0.284-1.521
			c-0.04-0.408,0.35-0.702,0.963-0.8C225.81,139.962,225.81,139.962,226.1,140.7z"/>
		<path d="M297.092,236.787c-0.005-0.792,0.208-1.05,0.999-1.369c0.24-0.097,0.43-0.324,0.632-0.504
			c0.315-0.28,0.594-0.61,0.939-0.844c0.391-0.266,0.749-0.059,1.018,0.258c0.281,0.332,0.035,0.588-0.177,0.829
			c-0.439,0.499-0.846,1.034-1.338,1.475c-0.402,0.361-0.89,0.638-1.37,0.896C297.399,237.743,297.095,237.406,297.092,236.787z"/>
		<path d="M252.358,187.956c0.374,1.044,0.168,2.026-0.298,3.064c-1.382-0.401-1.709-1.459-1.909-2.724
			C250.852,188.187,251.523,188.084,252.358,187.956z"/>
		<path d="M258.182,151.249c0.895-0.009,1.6-0.228,2.014-1.21c0.509,0.549,0.918,0.99,1.408,1.518
			c-0.892,0.264-1.593,0.525-2.318,0.669C258.705,152.341,258.552,152.16,258.182,151.249z"/>
		<path d="M194.41,213.626c0.182,1.321,0.092,1.508-0.94,1.998c-0.554-0.474-0.554-0.474-1.098-2.318
			C193.067,213.415,193.7,213.514,194.41,213.626z"/>
		<path d="M196.219,183.983c0.623,0.433,1.107,0.304,1.486-0.3c0.292,0.441,0.525,0.791,0.747,1.126
			c-0.47,0.55-0.854,1.185-1.659,0.786C196.284,185.342,196.047,184.682,196.219,183.983z"/>
		<path d="M198.855,216.475c0.067,0.011,0.133,0.007,0.199-0.01c0.597,0.079,0.85,0.345,0.995,0.936
			c0.125,0.51-0.19,0.692-0.555,0.862c-0.436,0.203-0.759,0.081-0.964-0.449c-0.173-0.448-0.262-0.929-0.424-1.525
			C198.426,216.368,198.641,216.421,198.855,216.475z"/>
		<path d="M260.994,140.992c0.367,0.303,0.698,0.577,1.002,0.829c-0.592,1.678-0.592,1.678-1.783,1.636
			c0.168-0.438,0.531-0.908,0.43-1.236C260.496,141.741,260.492,141.436,260.994,140.992z"/>
		<path d="M289.479,219.915c-0.087,0.68-0.163,1.276-0.268,2.097c-0.576-0.449-0.975-0.76-1.352-1.054
			c-0.099-0.649,0.04-1.147,0.557-1.544C288.754,219.574,289.06,219.718,289.479,219.915z"/>
		<path d="M296.75,239.121c-0.758,1.124-1.313,1.247-2.717,0.605C295.007,238.647,295.962,238.434,296.75,239.121z"/>
		<path d="M265.352,208.131c-0.39-0.248-0.874-0.557-1.43-0.911c1.323-0.45,2.516-0.855,3.789-1.288
			C266.94,206.65,266.234,207.309,265.352,208.131z"/>
		<path d="M219.637,220.721c0.71,0.194,1.319,0.523,1.629,1.234c0.085,0.194,0.115,0.602,0.035,0.642
			c-0.217,0.109-0.558,0.175-0.758,0.076C219.809,222.308,219.18,221.833,219.637,220.721z"/>
		<path d="M308.551,230.845c0.056,0.274,0.141,0.691,0.233,1.145c-0.988,0.225-1.697,0.022-2.32-0.771
			c0.202-0.215,0.425-0.451,0.59-0.626C307.577,230.681,307.999,230.752,308.551,230.845z"/>
		<path d="M197.353,206.556c0.489,0.18,0.932,0.344,1.393,0.514c0.178,0.326,0.378,0.691,0.586,1.07
			c-0.408,0.563-0.872,0.286-1.299,0.102C197.247,207.901,197.438,207.176,197.353,206.556z"/>
		<path d="M293.571,241.673c1.241-0.655,1.83-0.458,2.262,0.701C294.815,242.944,294.574,242.874,293.571,241.673z"/>
		<path d="M260.684,211.479c-0.231-0.296-0.495-0.634-0.773-0.99c0.672-0.499,1.276-0.54,1.989-0.254
			c0.022,0.334,0.044,0.671,0.069,1.05C261.551,211.348,261.173,211.405,260.684,211.479z"/>
		<path d="M206.677,175.526c-0.187-0.07-0.526-0.123-0.536-0.214c-0.066-0.567-0.456-0.686-0.974-0.684
			c-0.004-0.071-0.007-0.143-0.011-0.214c0.206-0.123,0.437-0.218,0.612-0.376c0.192-0.173,0.332-0.404,0.495-0.61
			c0.229,0.163,0.464,0.331,0.74,0.528c-0.107,0.484-0.231,1.042-0.354,1.601C206.648,175.557,206.677,175.526,206.677,175.526z"/>
		<path d="M301.5,236.317c0.268,0.38,0.478,0.678,0.816,1.16c-0.68,0.131-1.164,0.224-1.654,0.318
			c-0.196-0.319-0.358-0.582-0.567-0.921C300.555,236.691,300.963,236.529,301.5,236.317z"/>
		<path d="M287.427,219.417c-0.981,0.4-1.444-0.347-2.315-0.538c0.48-0.374,0.793-0.618,1.097-0.855
			C286.924,218.184,287.035,218.819,287.427,219.417z"/>
		<path d="M207.601,182.549c-1.045-0.142-0.957-1.086-1.624-1.75c0.59,0.004,1.051-0.134,1.269,0.037
			C207.745,181.23,207.762,181.844,207.601,182.549z"/>
		<path d="M298.892,225.392c-0.801,0.395-1.185,0.307-2.009-0.466c0.261-0.16,0.521-0.32,0.782-0.48
			c0.477-0.025,1.127,0.133,1.194,0.979C298.86,225.423,298.892,225.392,298.892,225.392z"/>
		<path d="M259.654,183.737c0.612,0.438,1.194,0.854,1.822,1.302c-0.249,0.479-0.835,0.56-1.205,0.294
			C259.831,185.016,259.387,184.504,259.654,183.737z"/>
		<path d="M232.554,277.222c0.525,0.595,0.979,1.108,1.475,1.67c-0.12,0.226-0.258,0.452-0.598,0.208
			c-0.368-0.263-0.75-0.516-1.079-0.822C231.937,277.895,232.103,277.558,232.554,277.222z"/>
		<path d="M257.773,189.924c0.686,0.141,1.158,0.238,1.629,0.335c0.046,0.187,0.089,0.32,0.111,0.456
			c0.054,0.344-0.027,0.705-0.379,0.754c-0.194,0.027-0.477-0.231-0.641-0.427C258.248,190.752,258.074,190.403,257.773,189.924z"/>
		<path d="M203.958,241.379c0.961,0,0.961,0,2.068-0.663c0.106,0.792-0.14,1.202-0.845,1.414
			C204.503,242.334,204.313,241.82,203.958,241.379z"/>
		<path d="M298.217,237.881c0.611-0.059,1.125-0.108,1.791-0.172c0.139,0.099,0.408,0.289,0.689,0.488
			C299.947,238.796,299.328,238.723,298.217,237.881z"/>
		<path d="M252.486,171.007c0.086-0.197,0.125-0.404,0.247-0.53c0.104-0.108,0.313-0.19,0.46-0.169
			c0.381,0.056,0.754,0.174,1.313,0.313c-0.447,0.368-0.732,0.603-1.046,0.861C253.135,171.323,252.84,171.179,252.486,171.007z"/>
		<path d="M197.947,243.484c0.307,0.332,0.641,0.643,0.905,1.006c0.092,0.127,0.01,0.381,0.008,0.578
			c-0.217-0.013-0.476,0.044-0.645-0.053c-0.615-0.353-0.682-0.898-0.24-1.551C197.977,243.464,197.947,243.484,197.947,243.484z"/>
		<path d="M307.787,232.871c-0.458,0.753-0.864,0.769-1.81,0.072C306.419,232.372,306.856,232.355,307.787,232.871z"/>
		<path d="M277.888,206.157c-1.156-0.287-1.353-0.583-1-1.495C277.534,204.914,277.932,205.312,277.888,206.157z"/>
		<path d="M210.866,164.621c0.335-0.402,0.554-0.667,0.786-0.946c0.301,0.208,0.581,0.403,0.849,0.589
			c-0.326,0.191-0.656,0.384-0.986,0.577c0.056,0.105,0.113,0.21,0.169,0.316C211.444,165,211.204,164.842,210.866,164.621z"/>
		<path d="M207.269,166.191c0.833-0.709,1.478-0.306,2.326-0.228C208.794,166.596,208.15,166.469,207.269,166.191z"/>
		<path d="M230.818,152.181c0.209,0.03,0.417,0.076,0.627,0.086c0.192,0.009,0.386-0.02,0.71-0.04
			c-0.022,0.384-0.046,0.793-0.084,1.453c-0.594-0.531-0.99-0.884-1.385-1.238C230.729,152.355,230.773,152.268,230.818,152.181z"/>
		<path d="M287.137,215.03c0.287-0.386,0.45-0.606,0.615-0.827c0.855,0.645,0.998,0.783,1.104,1.088
			C288.243,215.676,287.84,215.086,287.137,215.03z"/>
		<path d="M296.434,224.29c-0.333,0.478-0.697,0.449-1.063,0.256c-0.299-0.157-0.537-0.405-0.26-0.747
			c0.212-0.261,0.512-0.374,0.807-0.084C296.091,223.885,296.243,224.076,296.434,224.29z"/>
		<path d="M250.866,171.426c0.24-0.258,0.5-0.19,0.743-0.022c0.355,0.245,0.695,0.509,1.134,0.834
			c-0.993,0.18-1.162,0.092-1.854-0.842C250.887,171.397,250.866,171.426,250.866,171.426z"/>
		<path d="M290.255,240.291c0.011,0.248,0.102,0.547,0.014,0.616c-0.281,0.219-0.629,0.353-0.98,0.535
			C289.066,240.35,289.066,240.35,290.255,240.291z"/>
		<path d="M251.879,174.258c-0.206-0.208-0.456-0.344-0.492-0.522c-0.082-0.414,0.161-0.47,0.5-0.31
			c0.031,0.015,0.139-0.05,0.152-0.094c0.13-0.455,0.376-0.252,0.507-0.048c0.08,0.124,0.055,0.404-0.037,0.53
			C252.383,173.986,252.147,174.078,251.879,174.258z"/>
		<path d="M276.778,202.196c-0.233-0.324-0.466-0.648-0.758-1.054c0.322-0.131,0.557-0.227,0.799-0.325
			c0.448,0.416,0.229,0.855,0.268,1.262C276.984,202.118,276.881,202.157,276.778,202.196z"/>
		<path d="M241.659,193.033c-1.124,0.101-1.382-0.23-1.089-1.163C240.96,192.288,241.31,192.661,241.659,193.033z"/>
		<path d="M249.773,174.199c-0.458-0.025-0.612-0.245-0.559-0.681c0.037-0.303-0.105-0.68,0.486-0.646
			C249.836,173.295,250.133,173.713,249.773,174.199z"/>
		<path d="M280.305,207.566c0.378-0.807,0.924,0.062,1.381-0.204c-0.081,0.216-0.162,0.432-0.274,0.731
			C281.018,207.906,280.669,207.74,280.305,207.566z"/>
		<path d="M209.076,233.78c0.122-0.005,0.244-0.01,0.366-0.016c0.417,0.722,0.417,0.722,0.245,1.307
			C209.094,234.809,209.064,234.305,209.076,233.78z"/>
		<path d="M291.806,219.443c0.07,0.513,0.118,0.861,0.166,1.21c-0.078,0.036-0.157,0.073-0.235,0.109
			c-0.251-0.279-0.502-0.559-0.816-0.908C291.227,219.712,291.434,219.616,291.806,219.443z"/>
		<path d="M191.382,244.011c0.474,0.607,0.474,0.607,0.402,1.1C190.959,244.757,190.913,244.65,191.382,244.011z"/>
		<path d="M243.914,195.469c-0.587,0.078-0.587,0.078-0.904-0.701C243.683,194.594,243.683,194.594,243.914,195.469z"/>
		<path d="M287.878,242.617c0.656-0.376,0.656-0.376,1.147,0.062C288.605,243.1,288.243,242.828,287.878,242.617z"/>
		<path d="M257.855,277.168c0.503,0.403,1.006,0.807,1.509,1.21C258.716,278.156,257.98,278.043,257.855,277.168z"/>
		<path d="M283.683,209.216c-0.306-0.157-0.613-0.314-0.971-0.497C283.258,208.331,283.289,208.346,283.683,209.216z"/>
		<path d="M260.081,145.531c-0.209-0.533,0.142-0.848,0.587-1.312c-0.087,0.572-0.152,0.995-0.219,1.434
			c-0.167-0.068-0.285-0.115-0.402-0.162C260.048,145.493,260.081,145.531,260.081,145.531z"/>
		<path d="M273.419,203.976c0.129,0.503,0.212,0.827,0.348,1.358C273.185,204.923,272.892,204.652,273.419,203.976z"/>
		<path d="M278.747,207.898c-0.083-0.093-0.166-0.186-0.249-0.279c0.287-0.608,0.587,0.05,0.893-0.117
			C279.38,208.174,279.012,207.924,278.747,207.898z"/>
		<path d="M207.406,171.613c0.21,0.491,0.163,0.789-0.428,0.946C206.919,172.134,206.916,171.815,207.406,171.613z"/>
		<path d="M250.268,175.213c-0.137-0.285-0.209-0.437-0.303-0.633c0.189-0.089,0.369-0.175,0.778-0.369
			C250.537,174.644,250.427,174.877,250.268,175.213z"/>
		<path d="M308.663,228.658c0.36,0.002,0.72,0.005,1.08,0.007C309.382,229.063,309.022,229.036,308.663,228.658z"/>
		<path d="M266.163,231.737c0.026,0.383,0.051,0.766,0.08,1.196c0.253,0.311,1.049,0.331,0.765,1.005
			c-0.189,0.449,0.39,0.899-0.133,1.356c-0.181,0.158-0.033,0.695-0.036,1.052c-0.671,0.089-1.199-0.044-2.016-0.498
			c0.003-0.385,0.005-0.792,0.008-1.226c0.349-0.031,0.661-0.058,1.174-0.104c-0.315-0.264-0.497-0.436-0.701-0.578
			c-0.078-0.054-0.21-0.02-0.308-0.055c-1.303-0.458-1.431-1.204-0.335-2.281c0.221,0.422,0.436,0.83,0.742,1.413
			c0.325-0.516,0.556-0.882,0.783-1.252C266.185,231.763,266.163,231.737,266.163,231.737z"/>
		<path d="M265.824,226.572c-0.263-0.074-0.6-0.138-0.912-0.265c-0.346-0.14-0.808-0.239-0.748-0.751
			c0.06-0.515,0.324-0.941,0.84-1.126c0.26-0.093,0.548-0.109,0.821-0.17c0.343-0.077,0.704-0.216,0.926,0.202
			c0.236,0.444,0.251,0.865-0.152,1.248C266.349,225.947,266.135,226.223,265.824,226.572z"/>
		<path d="M251.716,206.49c-0.963-0.099-1.273-0.882-1.845-1.353c0.23-0.705,0.755-0.652,1.369-0.612
			C251.392,205.151,251.544,205.781,251.716,206.49z"/>
		<path d="M224.681,207.047c-0.005,0.001,0.225-0.053,0.476-0.111c-0.001,0.092,0.022,0.165-0.005,0.198
			c-0.397,0.488-1.008,0.589-1.52,0.513c-0.543-0.081-0.734-0.651-0.805-1.216C223.676,206,223.873,206.997,224.681,207.047z"/>
		<path d="M215.914,192.644c-0.079-0.225-0.158-0.45-0.238-0.676c0.071-0.028,0.141-0.056,0.212-0.084
			c0.091,0.224,0.182,0.447,0.273,0.671C216.079,192.585,215.996,192.614,215.914,192.644z"/>
	</g>
</svg>