<svg xmlns="http://www.w3.org/2000/svg" viewBox="326.313 291.052 95.137 172.440">
<g id="ox24oV_1_">
		<g>
			<g>
				<path d="M411.804,357.999c-0.271-0.017-0.542-0.034-0.836-0.053c-0.058,0.406-0.118,0.833-0.201,1.416
					c-0.601-0.507-1.04-0.959-1.801-0.61c-0.233,0.107-0.715-0.327-1.125-0.534c-0.938,0.632-2.215,0.931-2.211,2.427
					c-0.701,0.039-1.316-0.089-1.861-0.567c-0.387-0.34-0.776-0.201-1.029,0.235c-0.231,0.398-0.48,0.762-1.039,0.852
					c-0.166-0.211-0.348-0.443-0.586-0.746c-0.661,0.811-1.298,0.298-2.079-0.044c0.308,0.683-1.233,1.48,0.382,1.87
					c-0.105,0.124-0.179,0.212-0.255,0.301c0.209,0.126,0.385,0.233,0.628,0.38c-0.116,0.419-0.236,0.854-0.37,1.34
					c-0.322-0.279-0.514-0.481-0.74-0.633c-0.651-0.436-0.68-0.784-0.051-1.347c-0.394-0.28-0.78-0.554-1.246-0.885
					c-0.273,0.25-0.539,0.493-0.862,0.789c-0.321-0.145-0.721-0.326-1.123-0.508c-0.265,0.423,0.098,1.059-0.524,1.294l0.034,0.035
					c-0.814-0.687-0.814-0.687-1.377-2.022c-0.407,0.032-0.804,0.032-1.188,0.101c-0.493,0.088-0.951,0.136-1.117,0.831
					c-0.189,0.787-0.837,1.246-1.721,1.3c-0.104,0.338-0.201,0.655-0.298,0.97c-0.826-0.228-0.935-0.509-0.482-1.303
					c-0.188-0.083-0.372-0.163-0.544-0.239c-0.073,0.04-0.131,0.065-0.18,0.102c-0.025,0.019-0.031,0.06-0.047,0.091
					c-0.623,1.278-1.603,1.591-2.848,0.016c-0.494,0.087-0.845,0.291-0.722,0.882c-1.086,0.832-0.795,2.216-1.44,3.339
					c1.025,0.383,1.991,0.55,2.98,0.622c-0.271,0.198-0.541,0.395-1.033,0.756c0.497,0.036,0.751,0.055,1.027,0.075
					c0-0.366,0-0.6,0-0.833c-0.14-0.512-0.14-0.512,0.271-1.315c0.86-0.115,1.664,0.145,2.449,0.507
					c0.217,0.1,0.44,0.272,0.658,0.267c0.857-0.018,1.506,0.428,2.171,0.865c0.397,0.261,0.755,0.512,1.328,0.297
					c0.546-0.205,0.976,0.148,1.273,0.796c0.257,0.561,0.186,0.69-0.369,1.205c-0.4,0.371-0.773,0.787-1.079,1.238
					c-0.289,0.427-0.055,0.72,0.502,0.705c0.488-0.013,0.979-0.031,1.113,0.604c-1.034,0.693-1.836,0.56-2.335-0.406
					c-0.261,0.098-0.526,0.198-1.029,0.388c0.799,0.191,0.954,0.558,1.078,1.15c0.18,0.862-0.707,0.596-0.808,1.227
					c-0.641-0.956-1.419-0.744-2.203-0.544c-0.311,0.079-0.634,0.113-0.855,0.151c-0.614,0.365-1.176,0.698-1.737,1.032
					c-0.717-0.435-1.53,0.082-2.212-0.174c-0.575-0.216-1.035-0.736-1.595-1.158c-0.391,0.618-1.061,1.149-1.015,2.182
					c0.086,1.932,0.021,3.871-0.007,5.807c-0.009,0.645,0.054,1.236,0.516,1.584c0.45,0.056,0.802,0.11,1.156,0.139
					c0.189,0.016,0.453,0.066,0.56-0.033c0.667-0.613,1.298-0.28,1.863,0.033c0.945-0.946,1.965-1.749,2.387-3.046
					c0.484,0.129,0.876,0.234,1.221,0.326c0.542,1.006,1.063,1.974,1.584,2.943c0.071-0.016,0.143-0.033,0.214-0.049
					c-0.086-0.863-0.173-1.726,0.445-2.381c0.43,0.268,0.783,0.487,1.192,0.742c-0.175,0.335-0.38,0.727-0.656,1.256
					c0.449,0.063,0.821,0.116,1.182,0.166c0.073,0.357,0.162,0.788,0.271,1.315c-0.628,0.73-1.325,1.573-2.061,2.381
					c-0.318,0.349-0.672,0.632-1.246,0.575c-0.828-0.082-1.312,0.293-1.583,1.095c-0.144,0.425-0.232,0.868-0.344,1.303
					c-0.196,0.767-0.316,0.981-0.944,1.634c-0.786-0.368-1.602-0.728-2.395-1.132c-0.392-0.2-0.46-0.412-0.565-1.178
					c0.439-0.034,0.877-0.099,1.314-0.093c0.439,0.006,0.968-0.192,1.129,0.551c0.049,0.225,0.54,0.323,0.734-0.076
					c0.219-0.45,0.393-0.922,0.605-1.426c-1.5-0.115-2.849-0.218-4.303-0.329c-0.709,0.871-0.996,2.22-2.155,2.854
					c0.115,3.363,0.235,6.672,0.336,9.982c0.023,0.752-0.035,1.506-0.03,2.258c0.017,2.319,0.088,4.629,0.737,6.886
					c0.179,0.623,0.207,1.293,0.274,1.944c0.104,0.998,0.202,1.998,0.265,2.999c0.051,0.817,0.013,1.64,0.071,2.456
					c0.163,2.31,0.293,4.625,0.554,6.924c0.2,1.754,0.509,3.494,0.411,5.267c-0.088,1.588-0.243,3.174-0.278,4.763
					c-0.047,2.135-0.006,4.271-0.004,6.407c0.001,0.934,0,1.868,0.121,2.832c1.274-2.089,1.802-4.511,3.273-6.515
					c-0.111,0.498-0.223,0.995-0.344,1.535c0.283,0.046,0.505,0.083,0.731,0.12c-1.563,5.8-2.508,10.606-2.44,12.506
					c0.341-0.26,0.41-0.497,0.349-0.89c-0.141-0.91,0.003-1.046,0.942-1.176c0.404-0.056,0.805-0.133,1.304-0.216
					c0,0.459,0,0.851,0,1.278c0.38,0.152,0.807,0.322,1.318,0.527c0.247-0.27,0.517-0.565,0.908-0.994
					c0.448-0.055,1.083-0.132,1.748-0.213c0.189,0.676-0.377,1.614,0.785,1.697c-0.765,1.105-1.708,1.112-2.742,0.007
					c-1.068,0.581-2.237,0.741-3.396,0.551c-0.247,0.565-0.382,1.12-0.706,1.521c-0.19,0.235-0.699,0.346-1.038,0.302
					c-1.203-0.157-1.183-1.152-1.246-2.22c-0.769,0.846-1.436,1.582-2.074,2.284c-0.423-0.109-0.75-0.193-1.138-0.293
					c-0.093,0.439-0.176,0.83-0.259,1.225c-0.875-0.283-0.956-0.392-1.002-1.304c-0.023-0.447-0.038-0.896-0.079-1.341
					c-0.008-0.087-0.119-0.164-0.181-0.243c-0.48,0.16-0.48,0.16-1.012,1.149c-0.274-0.266-0.517-0.503-0.776-0.755
					c-0.045,0.251-0.068,0.49-0.131,0.719c-0.214,0.768-0.734,1.168-1.501,1.072c-0.939-0.117-1.87-0.302-2.806-0.458
					c-0.207,0.271-0.355,0.5-0.54,0.696c-0.143,0.151-0.332,0.26-0.684,0.526c-0.041-0.792-0.07-1.36-0.1-1.95
					c-0.607,0.036-1.174,0.069-1.684,0.099c-0.194-0.414-0.379-0.809-0.564-1.205l0.02,0.025c-0.049-1.221-0.04-1.232,1.501-1.821
					c0.169,0.427,0.339,0.856,0.542,1.366c0-0.286,0.054-0.529-0.009-0.737c-0.28-0.92-0.6-1.828-0.891-2.745
					c-0.153-0.482-0.28-0.972-0.408-1.462c-0.737-2.823-1.812-5.508-3.188-8.082c-0.503-0.941-0.871-1.954-1.352-3.051
					c0.36-0.222,0.716-0.441,1.189-0.733c1.329,2.876,2.626,5.627,3.869,8.402c0.534,1.194,1.062,2.41,1.397,3.668
					c0.341,1.284,0.451,2.63,0.642,3.952c0.073,0.502,0.091,1.013,0.121,1.367c0.116-0.308,0.335-0.724,0.423-1.167
					c0.092-0.465,0.074-0.955,0.075-1.434c0-0.203-0.124-0.409-0.107-0.607c0.123-1.482-0.322-2.881-0.63-4.297
					c-0.143-0.658,0.035-1.079,0.799-1.4c0.082,0.15,0.195,0.355,0.343,0.625c0.128-0.224,0.263-0.348,0.25-0.454
					c-0.271-2.112,0.117-4.203,0.183-6.303c0.045-1.45,0.021-2.903,0.093-4.352c0.068-1.379,0.252-2.752,0.327-4.131
					c0.068-1.246,0.069-2.495,0.077-3.743c0.015-2.219-0.073-4.442,0.049-6.654c0.079-1.439,0.48-2.858,0.687-4.293
					c0.4-2.772,0.785-5.547,1.137-8.325c0.181-1.433,0.296-2.876,0.404-4.317c0.115-1.525-0.065-2.97-1.144-4.191
					c-0.305-0.345-0.578-0.542-1.049-0.506c-1.099,0.084-2.203,0.114-3.302,0.198c-1.001,0.077-1.997,0.205-2.998,0.288
					c-0.178,0.015-0.365-0.079-0.548-0.122c0-0.076,0-0.151,0-0.227c0.938-0.128,1.873-0.27,2.813-0.38
					c0.783-0.092,1.542-0.21,2.317-0.428c0.83-0.233,1.801,0.004,2.705,0.085c0.156,0.014,0.301,0.258,0.435,0.41
					c0.268,0.303,0.526,0.615,0.874,1.025c0-3.302,0-6.453,0-9.642c-0.401,0.026-0.752,0.048-1.141,0.074c0,0.284,0,0.549,0,0.705
					c-1.079-0.142-2.168-0.286-3.035-0.401c-0.522,0.639-0.916,1.065-1.24,1.538c-0.2,0.292-0.416,0.393-0.757,0.426
					c-0.157,0.015-0.289,0.283-0.432,0.437c0.033,0.071,0.066,0.143,0.1,0.214c0.564-0.078,1.129-0.156,1.693-0.234l-0.005-0.022
					c-0.036,0.098-0.048,0.258-0.113,0.283c-1.139,0.451-2.286,0.615-3.359-0.146c-0.257-0.182-0.492-0.505-0.57-0.806
					c-0.17-0.652-0.03-0.838,0.765-1.32c-0.452-0.448,0.445-1.077-0.295-1.598c-0.617,0.56-1.304,0.456-2.003,0.128
					c-0.788-0.369-1.594-0.409-2.408-0.094c-0.183,0.071-0.366,0.161-0.522,0.278c-0.584,0.442-0.803,0.437-1.352-0.144
					c-0.239-0.252-0.461-0.375-0.815-0.254c-0.325,0.111-0.669,0.176-1.01,0.233c-1.034,0.172-1.639-0.212-2.043-1.285
					c0.583-0.328,0.968,0.106,1.386,0.371c0.283,0.179,0.53,0.501,0.907,0.075c-0.171-0.432-0.347-0.874-0.512-1.292
					c-0.823-0.345-1.798-0.193-2.391-1.051c-0.182,0.168-0.326,0.302-0.493,0.457c-0.619-0.214-1.183-0.492-1.345-1.401
					c0.526,0.095,0.974,0.176,1.422,0.257c0.081-0.338,0.092-0.771,0.289-1.09c0.166-0.27,0.547-0.407,0.966-0.694
					c0.006-0.087,0.011-0.357,0.046-0.624c0.035-0.271,0.099-0.537,0.158-0.848c1.176-0.295,2.049,0.227,2.84,0.88
					c0.054,0.717-0.505,0.802-0.966,0.984c0.41,0.437,0.727,0.775,1.056,1.126c-0.123,0.333-0.238,0.644-0.372,1.007
					c0.79,0.154,1.519,0.296,2.331,0.454c0.079-0.201,0.172-0.434,0.312-0.791c-0.367,0.083-0.617,0.14-0.938,0.213
					c-0.504-0.613-1.071-1.168-0.581-2.145c0.13-0.26-0.16-0.762-0.317-1.127c-0.159-0.37-0.512-0.683-0.181-1.246
					c0.41,0.18,0.831,0.365,1.263,0.555c0.649-0.51,0.129-1.133,0.083-1.755c1.109-0.303,1.533,0.578,2.167,1.197
					c0.297-0.095,0.617-0.199,0.955-0.307c-0.027-0.562-0.051-1.073-0.075-1.577c0.675-0.2,0.95-0.153,1.28,0.598
					c0.259,0.59,0.681,0.721,1.191,0.813c0.113,0.02,0.245-0.065,0.43-0.12c-0.302-0.544-0.576-1.038-0.866-1.56
					c0.2-0.187,0.367-0.343,0.581-0.543c0.35,0.118,0.728,0.245,1.119,0.378c0.104-0.296,0.191-0.543,0.28-0.796
					c0.124,0,0.241-0.035,0.317,0.006c0.329,0.18,0.633,0.408,0.972,0.566c0.22,0.103,0.483,0.115,0.727,0.167
					c0.489,0.452,1.18,0.746,1.211,1.554c-0.824,0.389-1.159-0.433-1.792-0.821c-0.092,0.494-0.164,0.878-0.202,1.082
					c0.911,0.567,1.672,1.041,2.48,1.543c0.505-0.375,1.001-0.742,1.495-1.109c-0.216,0.534-0.401,1.081-0.653,1.595
					c-0.252,0.516,0.026,0.658,0.403,0.785c0.332-0.299,0.631-0.568,0.976-0.879c0.22,0.32,0.405,0.59,0.639,0.931
					c0.025-0.207,0.096-0.366,0.046-0.461c-0.314-0.606-0.651-1.2-0.994-1.79c-0.042-0.072-0.158-0.11-0.247-0.141
					c-0.061-0.022-0.136-0.004-0.205-0.004c-0.515-0.463-1.029-0.925-1.673-1.504c0.383-0.126,0.554-0.185,0.726-0.238
					c0.161-0.049,0.325-0.092,0.487-0.138c0.452,0.082,0.9,0.579,1.415-0.017c-0.225-0.242-0.437-0.47-0.683-0.735
					c-0.27,0.292-0.492,0.533-0.714,0.774c-0.451-0.331-0.359-0.856-0.478-1.307c-0.014-0.055-0.164-0.074-0.349-0.15
					c0.023,0.275,0.039,0.47,0.058,0.69c-0.593,0.428-1.3,0.283-1.964,0.361c-0.149-0.413-0.297-0.826-0.458-1.274
					c-0.305,0.077-0.523,0.131-0.76,0.191c-0.38-0.458-0.477-0.914-0.283-1.463c0.232-0.659,0.248-0.686,1.017-0.619
					c0.411,0.036,0.824,0.049,1.17,0.069c0.261-0.462,0.439-0.952,0.767-1.301c0.235-0.251,0.67-0.433,1.017-0.436
					c0.829-0.008,1.439,0.419,1.787,1.487c0.167-0.407,0.327-0.602,0.306-0.775c-0.106-0.857-0.256-1.708-0.399-2.559
					c-0.016-0.098-0.058-0.231-0.132-0.276c-0.974-0.589-1.334-1.621-1.886-2.713c-0.341,0.454-0.612,0.817-0.913,1.217
					c-0.487-0.341-0.711-1.186-1.566-0.857c-0.365,0.678,0.37,0.486,0.604,0.67c-0.508,0.751-0.811,0.826-1.237,0.237
					c-0.224-0.311-0.33-0.741-0.385-1.132c-0.064-0.454-0.015-0.925-0.015-1.502c-1.078,0.508-2.014,0.949-2.952,1.391
					c-0.375-0.553-0.337-1.181-0.354-1.82c-0.012-0.438-0.149-0.9-0.341-1.298c-0.238-0.493-0.209-0.945,0.232-1.177
					c0.442-0.233,0.918-0.071,1.21,0.626c0.222-0.977,0.842-1.56,1.004-2.394c0.063-0.324,0.522-0.57,0.869-0.921
					c-0.272-0.251-0.602-0.555-0.932-0.859c1.609,0.484,2.357,2.119,3.761,2.733c0.36-0.459,0.709-0.904,1.033-1.318
					c0.604,0.245,1.232,0.177,1.357,0.894c0.013,0.077,0.361,0.096,0.583,0.15c0.237-1.747-0.366-3.34-0.534-4.842
					c-0.412-0.502-0.749-0.913-1.186-1.445c-0.205,0.577-0.384,1.081-0.526,1.481c-0.875-0.175-1.66-0.332-2.443-0.489
					c0.077-0.388,0.163-0.823,0.25-1.258c-0.051-0.03-0.102-0.061-0.152-0.091c-0.305,0.403-0.611,0.806-0.978,1.29
					c-0.366-0.626-0.589-1.009-0.87-1.49c0.362-0.169,0.699-0.299,1.008-0.479c0.323-0.187,0.618-0.422,0.974-0.67
					c-0.879-0.74-0.98,0.54-1.677,0.468c-0.141-0.179-0.345-0.439-0.55-0.698c-0.643,0.366-0.643,0.366-1.261-0.064
					c-0.26,0.231-0.528,0.47-0.905,0.804c0.483-0.022,0.815-0.037,1.174-0.053c0.037,0.603,0.677,1.126,0.278,1.864
					c-0.885-0.11-1.048-1.139-1.793-1.417c-0.022-0.456,0.094-0.841-0.543-1.126c-0.689-0.307-1.321-0.824-2.151-1.262
					c0.508-0.204,0.872-0.351,1.237-0.496c0.31-0.124,0.314-0.326,0.148-0.573c0.254,0.082,0.546,0.108,0.752,0.255
					c0.432,0.307,0.539-0.062,0.731-0.321c-0.495,0.023-0.989,0.046-1.483,0.068c-0.32-0.078-0.32-0.078-0.67-0.609
					c0.804,0.075,1.237-1.289,2.15-0.387c0.185-0.383,0.314-0.789,0.553-1.116c0.464-0.635,1.105-0.71,1.789-0.32
					c0.295,0.168,0.62,0.299,0.948,0.389c0.124,0.034,0.354-0.055,0.424-0.161c0.069-0.104,0.047-0.334-0.026-0.453
					c-0.176-0.283-0.406-0.533-0.695-0.899c0.526-0.222,0.959-0.404,1.476-0.622c-0.432-0.403-0.848-0.791-1.252-1.168
					c-0.382,0.284-0.719,0.536-1.094,0.815c-0.484-0.618-0.949-1.213-1.448-1.852c-0.234,0.123-0.433,0.244-0.644,0.334
					c-0.373,0.16-0.732,0.215-1.01-0.191c-0.175-0.255-0.382-0.421-0.721,0.006c0.376,0.258,0.741,0.509,1.11,0.763
					c-0.22,0.787-0.37,0.896-1.383,0.892c-0.033-0.52-0.066-1.05-0.107-1.695c-0.143-0.058-0.417-0.169-0.684-0.277
					c-0.57,0.514-1.122,1.011-1.741,1.569c-0.365-0.814-0.849-1.306-1.787-1.574c-0.311,0.247-0.705,0.561-1.139,0.906
					c-0.345-0.4-0.1-1.186-0.334-1.912c1.11,0.459,1.11,0.459,1.494-0.413c0.234,0.122,0.464,0.243,0.828,0.432
					c-0.09-0.337-0.168-0.545-0.196-0.76c-0.028-0.22-0.006-0.446-0.006-0.669c0.071-0.039,0.141-0.077,0.212-0.116
					c0.231,0.203,0.463,0.405,0.655,0.573c0.318-0.297,0.672-0.629,1.06-0.991c-0.449-0.199-0.83-0.615-0.845-1.245
					c0.53-0.504,0.483,0.319,0.911,0.268c0.284-0.603,0.595-1.261,0.925-1.962c0.408,0.245,0.703,0.421,0.994,0.596
					c0.27-0.24,0.544-0.483,0.934-0.829c0,0.555,0,0.938,0,1.322c1.239-0.032,1.896-0.481,2.178-1.458
					c0.546,0.001,0.843-0.096,1.564-0.512c0.609,0.751,0.609,0.814-0.056,1.981c0.488-0.107,0.903-0.161,1.292-0.293
					c0.532-0.181,1.402,0.028,1.766,0.434c0.393,0.439,0.23,0.905,0.12,1.428c0.252,0.148,0.514,0.302,0.823,0.483
					c0.052-0.108,0.106-0.18,0.123-0.259c0.101-0.46,0.079-0.865-0.311-1.232c-0.214-0.201-0.331-0.526-0.436-0.816
					c-0.206-0.567-0.047-0.705,0.773-0.596c0.104-2.427-0.097-4.818-0.406-7.317c-0.406,0.074-0.724,0.132-1.076,0.196
					c0.051,0.247,0.085,0.418,0.137,0.671c-0.397-0.09-0.725-0.164-1.188-0.269c-0.184,0.222-0.379,0.52-0.638,0.742
					c-0.148,0.127-0.509,0.245-0.589,0.17c-0.308-0.289-0.604-0.146-0.872-0.038c-0.823,0.328-1.37-0.01-1.854-0.647
					c-0.122-0.16-0.36-0.276-0.565-0.321c-1.085-0.237-1.516-0.694-1.453-1.78c0.037-0.638,0.235-1.267,0.378-1.99
					c-0.358-0.103-0.825-0.238-1.396-0.402c0,0.433,0,0.844,0,1.221c-2.136,1.004-2.692,0.827-3.385-1.027
					c0.055-0.03,0.126-0.098,0.164-0.083c1.014,0.408,1.563-0.464,2.288-0.838c0.097-0.05,0.181-0.218,0.189-0.336
					c0.03-0.476,0.168-0.899,0.632-1.086c0.363-0.147,0.763-0.201,1.247-0.321c0.301-0.651,0.975-0.69,1.698-0.662
					c1.056,0.042,1.223-0.157,1.257-1.213c0.015-0.479,0.186-0.952,0.205-1.43c0.03-0.752,0.169-1.504-0.152-2.255
					c-0.145-0.34-0.07-0.775-0.098-1.206c-0.183-0.165-0.434-0.392-0.749-0.676c-0.133,0.186-0.293,0.434-0.476,0.663
					c-0.888,1.112-2.278,0.964-2.922-0.126c-0.379-0.641-0.756-1.014-1.546-0.89c-0.47,0.074-0.971,0.069-1.441-0.005
					c-0.328-0.051-0.628-0.277-1.108-0.504c-0.547,0.189-1.255,0.123-1.73-0.391c-0.263,0.112-0.61,0.33-0.665,0.272
					c-0.291-0.307-0.586-0.658-0.72-1.048c-0.077-0.225,0.064-0.652,0.255-0.818c0.563-0.489,1.199-0.893,1.885-1.386
					c0.924,0.346,1.911,0.717,2.908,1.09c-0.057-0.423-0.24-0.866-0.129-1.217c0.108-0.344,0.514-0.594,0.831-0.929
					c0.35,0.289,0.608,0.503,0.933,0.772c0.223-0.097,0.488-0.213,0.779-0.339c-0.066-0.15-0.082-0.271-0.149-0.321
					c-0.162-0.118-0.339-0.247-0.528-0.29c-0.396-0.09-0.789-0.081-1.066-0.5c-0.352-0.531-0.573-1.074-0.617-1.783
					c0.734,0.002,1.472,0.495,2.097-0.251c-0.028-0.108-0.116-0.3-0.12-0.494c-0.014-0.626,0.467-0.941,1.03-0.683
					c0.344,0.158,0.676,0.342,0.983,0.5c0.569-0.172,1.035-0.752,1.632-0.214c0.738-0.864-0.204-1.61-0.166-2.551
					c0.652-0.118,1.27-0.229,2.008-0.363c0.417-0.663,0.553-0.695,1.315-0.119c0.302,0.228,0.577,0.49,0.827,0.704
					c0.578-0.254,1.104-0.486,1.718-0.756c0.061-0.264,0.145-0.627,0.236-1.018c-1.061-0.565-1.457-1.48-1.268-2.67
					c0.096-0.6,0.409-1.026,1.009-1.198c0.57-0.163,1.011,0.101,1.395,0.476c0.413,0.403,0.806,0.828,1.255,1.293
					c-0.417,0.292-0.865,0.59-1.291,0.916c-0.11,0.084-0.149,0.26-0.224,0.39c-0.463-0.221-0.924-0.439-1.554-0.737
					c0.19,0.66,0.366,1.085,0.922,1.273c0.218-0.198,0.416-0.378,0.614-0.558c0.341-0.147,0.682-0.294,1.073-0.463
					c-0.052,0.227-0.1,0.438-0.15,0.656c0.074-0.009,0.167,0.005,0.185-0.025c0.548-0.92,1.088-1.845,1.632-2.768
					c0.347-0.588,0.709-0.704,1.284-0.339c0.495,0.315,0.971,0.668,1.176,1.274c0.11,0.325,0.278,0.63,0.421,0.948
					c1.523-1.048,2.544-1.057,3.371-0.021c-0.723,0.588-1.445,1.175-2.342,1.904c0.779,0.18,1.323,0.305,1.911,0.441
					c0.105-0.146,0.254-0.355,0.425-0.594c0.505,0.365,1.044,0.472,0.865,1.159c-0.022,0.084,0.187,0.237,0.302,0.345
					c0.392,0.368,0.789,0.731,1.139,1.054c0.559,0,1.137-0.042,1.702,0.027c0.159,0.019,0.278,0.362,0.459,0.617
					c-0.971,0.356-0.68,1.252-0.973,1.994c0.188-0.095,0.306-0.154,0.477-0.24c0,0.247,0,0.487,0,0.845
					c-0.407-0.045-0.764-0.084-1.14-0.126c-0.116,0.234-0.236,0.478-0.358,0.726c0.724,0.717,1.882,0.893,2.216,1.971
					c-0.135,0.246-0.319,0.468-0.37,0.717c-0.031,0.148,0.148,0.339,0.232,0.511c0.185-0.1,0.427-0.158,0.542-0.311
					c0.199-0.264,0.321-0.587,0.535-1.001c0.515,0.453,0.97,0.853,1.511,1.328c0.847-0.217,1.449,0.26,1.805,1.184
					c0.054-0.046,0.109-0.092,0.163-0.137c-0.026-0.169,0.008-0.4-0.09-0.498c-0.472-0.471-0.459-0.957-0.174-1.511
					c0.116-0.225,0.149-0.493,0.208-0.699c0.699,0.055,1.395,0.036,2.057,0.179c0.869,0.187,1.659,0.591,2.303,1.458
					c-0.375-1.319-0.221-1.727,0.674-2.084c0.782-0.312,1.204-0.135,1.645,0.721c-0.1,0.114-0.198,0.257-0.326,0.364
					c-0.105,0.088-0.244,0.134-0.438,0.234c0.779,0.344,0.779,0.344,1.993,0.118c0.021,0.203,0.026,0.405,0.065,0.6
					c0.157,0.769,0.309,1.529,1.284,1.71c0.243,0.045,0.451,0.282,0.673,0.43c0.404-0.666,0.261-0.871-0.943-1.169
					c0.023-0.257,0.046-0.524,0.065-0.738c0.245-0.35,1.165-0.569,1.586-0.417c0.442,0.16,0.527,0.512,0.467,0.921
					c-0.04,0.272-0.025,0.654-0.192,0.784c-0.498,0.387-0.036,0.722-0.013,1.064c0.032,0.464,0.323,0.532,0.741,0.388
					c0.202-0.07,0.448-0.012,0.669-0.012c-0.032,0.542-0.056,0.959-0.078,1.329c-0.42-0.081-0.861-0.167-1.35-0.262
					c0.28,0.682,0.527,1.285,0.809,1.972c0.155-0.017,0.412-0.046,0.699-0.078c-0.022,0.134-0.004,0.267-0.059,0.314
					c-0.204,0.175-0.42,0.345-0.656,0.472c-0.405,0.219-0.831,0.399-1.24,0.61c-0.084,0.044-0.197,0.161-0.189,0.233
					c0.09,0.825-0.509,1.116-1.069,1.468c-0.194,0.122-0.304,0.376-0.509,0.643c-0.352-0.215-0.615-0.376-0.927-0.567
					c-0.305,0.45-0.617,0.946-0.963,1.417c-0.487,0.662-0.868,0.608-1.217-0.146c-0.072-0.156-0.165-0.303-0.255-0.45
					c-0.09-0.146-0.188-0.286-0.267-0.406c0.236-0.855,1.266-0.284,1.652-1.043c-0.353-0.153-0.68-0.294-1.062-0.459
					c-0.255,0.431-0.538,0.778-1.111,0.764c-0.214-0.005-0.453,0.252-0.648,0.425c-0.81,0.716-1.694,1.07-2.905,0.544
					c-0.117,0.236-0.254,0.513-0.396,0.801c-1.067-1.177-1.024-1.101-2.269-0.286c-0.543,0.356-0.839,0.869-1.139,1.119
					c-0.69,0.13-1.192,0.234-1.698,0.316c-0.231,0.038-0.48,0.08-0.698,0.027c-0.095-0.023-0.214-0.306-0.177-0.427
					c0.049-0.161,0.221-0.358,0.375-0.394c0.177-0.042,0.391,0.076,0.587,0.123c0.478-0.394,0.387-0.853,0.189-1.327
					c0.388-0.047,0.78,0.514,1.266-0.112c-0.493,0.044-0.879,0.078-1.264,0.113c-0.386,0.794-1.132,0.438-1.808,0.563
					c-0.139,0.198-0.312,0.445-0.505,0.722c0.304,0.089,0.568,0.166,0.855,0.249c0.039,0.326,0.234,0.777,0.09,0.957
					c-0.463,0.58-0.697-0.304-1.186-0.274c-0.097,0.479-0.197,0.971-0.305,1.5c0.418,0,0.756,0,1.175,0
					c0.023,0.031,0.106,0.104,0.139,0.196c0.108,0.302,0.624,0.504,0.317,0.88c-0.111,0.136-0.507,0.003-0.741,0.084
					c-0.276,0.096-0.518,0.29-0.852,0.487c-0.043-0.026-0.21-0.128-0.489-0.298c-0.141,0.744-0.266,1.408-0.358,1.892
					c0.871,1.178,1.636,2.214,2.442,3.304c-0.069,0.129-0.188,0.352-0.402,0.756c0.456-0.168,0.726-0.268,1.076-0.397
					c0.306,1.074,0.217,2.153,0.104,3.298c0.152,0.12,0.362,0.275,0.56,0.443c0.507,0.429,0.513,0.405,0.899-0.203
					c0.176-0.277,0.489-0.468,0.785-0.738c0.365,0.105,0.775,0.183,1.15,0.341c0.53,0.224,0.619,0.483,0.254,0.941
					c-0.35,0.44-0.809,0.793-1.236,1.199c-0.33-0.241-0.574-0.418-0.865-0.631c-0.245,0.207-0.473,0.399-0.685,0.579
					c0.433,1.118-0.024,2.125-1.044,2.491c-0.408,0.146-0.788,0.374-1.17,0.584c-0.363,0.199-0.712,0.424-1.075,0.642
					c-0.208-0.19-0.432-0.394-0.666-0.607c-0.487,0.411-0.952,0.804-1.594,1.345c0,0.644,0.025,1.473-0.007,2.3
					c-0.032,0.823-0.122,1.643-0.191,2.521c0.417-0.036,0.72-0.062,1.137-0.098c0.279,0.788,0.561,1.588,0.795,2.25
					c0.542,0.141,0.991,0.258,1.432,0.373c0.284-0.594-0.593-1.294,0.212-1.784c0.58,0.179,0.754,1.055,1.539,0.847
					c0-0.391,0-0.749,0-1.042c0.683,0,1.295,0,1.931,0c-0.462-1.529-0.948-1.7-2.762-1.039c-0.148-0.955-0.061-1.162,0.591-1.398
					c0.776-0.28,1.395-0.088,1.783,0.576c0.227,0.388,0.377,0.831,0.652,1.178c0.229,0.288,0.59,0.472,0.876,0.689
					c0.361-0.414,0.717-0.805,1.052-1.214c0.099-0.121,0.19-0.287,0.197-0.437c0.027-0.624,0.403-0.919,0.887-1.045
					c0.139-0.706,0.27-1.364,0.404-2.043c1.542,0.295,2.527,1.286,3.701,2.311c-0.063-0.398-0.17-0.655-0.124-0.882
					c0.084-0.415,0.149-0.925,0.422-1.188c0.372-0.358,0.846-0.05,1.21,0.226c0.219,0.166,0.397,0.385,0.594,0.581
					c-0.544,0.471-1.087,0.942-1.556,1.349c-0.078,0.574-0.148,1.09-0.232,1.707c0.275,0.032,0.544,0.062,0.91,0.104
					c-0.28-1.035,0.069-1.796,0.567-2.526c0.132-0.194,0.191-0.437,0.284-0.658c0.701,0.249,1.317,0.748,2.142,0.627
					c0.59-0.086,1.194-0.079,1.975-0.125c0.048,0.062,0.231,0.299,0.458,0.592c0.355-0.11,0.74-0.23,1.131-0.351
					c0.854,0.773,0.908,0.997,0.489,2.044c0.56,0.875,1.276-0.577,1.875,0.253c0.115,0.539,0.115,0.539-0.706,2.069
					c0.575-0.232,1.034-0.206,1.282,0.422c0.837-0.724-0.403-1.318,0.016-1.931c1.111,0.146,1.504,0.95,1.141,2.479
					c0.911-0.017,1.044,1.198,2.02,1.278c0.174-0.832-0.367-1.991,1.087-2.133c0.648,0.747,0.411,1.625,0.503,2.456
					c-0.099,0.043-0.197,0.085-0.296,0.128c-0.262-0.274-0.524-0.547-0.82-0.856c-0.052,0.576-0.104,1.146-0.165,1.819
					c-0.252-0.101-0.513-0.206-0.794-0.319c-0.267,0.596-0.542,1.213-0.832,1.861c0.471,0.229,1.112-0.053,1.379,0.546
					L411.804,357.999z M400.624,350.371c-0.184-0.04-0.367-0.081-0.604-0.133c-0.049,0.257-0.09,0.47-0.161,0.841
					c0.34-0.315,0.553-0.512,0.766-0.709c-0.044,0.282-0.088,0.565-0.152,0.979c0.357-0.157,0.592-0.26,0.797-0.35
					C401.012,350.748,400.818,350.56,400.624,350.371z M401.658,358.355c-0.215,0.131-0.431,0.263-0.594,0.363
					c0.048,0.345,0.09,0.646,0.136,0.969c0.231-0.019,0.419-0.035,0.681-0.056c-0.089-0.473-0.164-0.868-0.238-1.264
					c0.422-0.223,0.461-0.535,0.259-0.926c-0.926,0.244-0.926,0.244-0.831,1.027C401.27,358.428,401.467,358.389,401.658,358.355z
					 M377.981,323.812c-0.533,0.724-0.376,1.517-0.311,2.515c0.461-0.47,0.783-0.798,1.098-1.119
					c-0.279-0.488-0.546-0.954-0.811-1.418c0.481-0.15,1.081-0.173,1.412-0.483c0.41-0.383,0.951-0.079,1.356-0.402
					c-0.975-0.615-1.737,0.311-2.634,0.113C378.046,323.341,378.013,323.577,377.981,323.812z M382.824,326.38
					c-0.401,0.292-0.518,1.012-1.239,0.825c-0.334,0.655-0.913,0.153-1.367,0.275c-0.698,0.187-0.983-0.038-1.196-0.728
					c-0.056-0.183-0.129-0.361-0.222-0.617c-0.398,0.188-0.724,0.342-0.876,0.413c-0.511,1.086,0.456,1.627,0.512,2.426
					c0.408,0.042,0.816,0.084,1.221,0.126c0.667-0.833,0.658-0.823,1.448-0.089c0.172,0.16,0.431,0.225,0.563,0.291
					c-0.711,1.409-0.711,1.409-1.976,0.549c-0.547,0.631-0.699,1.508-1.276,2.125c-0.066,0.071,0.046,0.308,0.075,0.469
					c0.64-0.236,0.535,0.408,0.715,0.656c0.334,0.461,0.781,0.485,1.246,0.465c0.615-0.027,1.227-0.107,1.905-0.17
					c0.194-0.641,0.456-1.264,1.2-1.536c0.162-0.059,0.269-0.366,0.334-0.579c0.262-0.858,0.517-1.72,0.732-2.592
					c0.058-0.233,0.058-0.599-0.08-0.732c-0.167-0.16-0.51-0.138-0.838-0.208c-0.267-0.412-0.585-0.901-0.904-1.393
					c0.359-0.356,0.614-0.729,0.059-1.401C382.845,325.547,382.835,325.963,382.824,326.38z M385.183,360.584
					c-0.259-1.011-1.664-0.233-1.934-1.131c0.784-0.992,1.451,0.082,2.314,0.033c-0.402-0.483-0.724-0.87-1.047-1.256
					c0.014-0.073,0.027-0.146,0.041-0.219c1.227,0.633,1.485-0.662,2.443-0.935c-1.397-0.718-2.63-1.353-3.925-2.019
					c-0.113,1.339-0.19,2.606-0.333,3.866c-0.14,1.232-0.328,2.46-0.529,3.684c-0.284,1.731-0.331,2.964-0.067,3.769
					c0.22-1.327,1.336-2.261,1.241-3.446C384.027,362.093,384.582,361.369,385.183,360.584z M381.515,349.457
					c0.204-1.339,0.416-2.665,0.605-3.995c0.059-0.41,0.097-0.832,0.069-1.243c-0.013-0.201-0.258-0.572-0.298-0.559
					c-0.556,0.18-0.507-0.52-0.833-0.572c-0.291,0.411-0.517,0.854-0.857,1.178c-0.366,0.349-0.472,0.714-0.439,1.189
					c0.146,2.104,0.451,4.198,0.36,6.317c-0.028,0.646,0.016,0.648,0.819,0.932c0.12-0.702,0.238-1.392,0.367-2.146
					c-0.347,0.042-0.547,0.066-0.773,0.094c-0.319-0.592-0.387-1.194-0.133-1.992C380.822,348.96,381.138,349.187,381.515,349.457z
					 M372.193,346.595c0.46,0.614,0.847,1.132,1.238,1.654c0.669-0.597,0.743-0.591,1.359-0.034
					c0.233,0.211,0.493,0.393,0.741,0.589c0-1.313,0-2.509,0-3.676c-1.054-0.263-1.144-0.185-1.592,1.288
					c-0.204-0.171-0.397-0.333-0.587-0.494C372.942,346.159,372.589,346.364,372.193,346.595z M376.36,338.614
					c-0.682,0.426-0.95,0.981-0.569,1.238c0.39,0.264,0.28,0.401,0.197,0.699c-0.045,0.161,0.052,0.369,0.109,0.548
					c0.055,0.176,0.199,0.341,0.202,0.513c0.025,1.338,0.002,2.677,0.043,4.014c0.028,0.917,0.136,1.831,0.208,2.747
					c0.22-0.311,0.27-0.611,0.345-0.905c0.28-1.092,0.22-2.177,0.061-3.285c-0.205-1.431-0.301-2.877-0.448-4.317
					C376.468,339.465,376.414,339.064,376.36,338.614z M394.202,316.734c-0.315,1.355,0.888,1.76,1.678,2.553
					c-0.016-0.922,0.498-1.421,1.251-1.768c-0.128-0.323-0.237-0.599-0.31-0.786C395.914,316.734,395.103,316.734,394.202,316.734z
					 M375.481,321.021c0.361-0.823,0.736-1.607,1.04-2.417c0.083-0.222,0.052-0.633-0.096-0.76
					c-0.195-0.168-0.567-0.215-0.845-0.179c-0.287,0.036-0.553,0.233-0.963,0.422c0.398,0.188,0.66,0.311,0.95,0.448
					c-1.092,0.219-0.47,1.162-0.839,1.671C375.005,320.506,375.239,320.759,375.481,321.021z M376.03,332.359
					c-0.778-0.048-0.803,0.332-0.776,0.736c0.075,1.135,0.156,2.27,0.242,3.404c0.004,0.053,0.076,0.1,0.149,0.191
					c0.196-0.069,0.408-0.144,0.575-0.203C376.154,335.067,376.093,333.734,376.03,332.359z M383.482,351.501
					c-0.052,0.869-0.095,1.58-0.13,2.173c0.713,0,1.379,0,2.298,0C384.826,352.848,384.195,352.216,383.482,351.501z
					 M369.531,315.978c0.918,0.233,1.221,0.071,1.965-1.091c-0.371-0.274-0.746-0.551-1.118-0.825
					C369.861,314.615,369.861,314.615,369.531,315.978z M379.031,304.147c-1.516,0.963-2.232,1.979-2.21,3.044
					c0.197-0.1,0.49-0.156,0.522-0.28c0.173-0.66,0.676-0.961,1.191-1.298c0.243-0.159,0.433-0.452,0.556-0.724
					C379.165,304.722,379.066,304.479,379.031,304.147z M405.134,350.23c0.008,1.177,0.57,1.848,1.668,2.112
					c0.375-0.375,0.042-0.619-0.089-0.914c-0.132-0.295-0.184-0.625-0.261-0.902C406.007,350.426,405.612,350.337,405.134,350.23z
					 M379.166,318.916c-0.135-1.021,0.646-0.698,1.043-0.934c-0.125-0.353-0.216-0.712-0.377-1.037
					c-0.169-0.342-0.435-0.379-0.738-0.114C378.466,317.379,378.444,318.035,379.166,318.916z M371.568,382.133
					c-0.414,0.409-0.578,0.796-0.23,1.265c0.211,0.284,0.472,0.531,0.746,0.835c0.19-0.359,0.331-0.623,0.475-0.894
					C372.228,382.934,371.926,382.568,371.568,382.133z M385.082,343.343c-0.221-0.451-0.413-0.843-0.634-1.294
					c-0.749,0.557-0.676,1.109-0.361,1.746C384.384,343.659,384.681,343.524,385.082,343.343z M380.316,358.706
					c0.502-1.815,0.499-2.906,0-3.558C380.316,356.406,380.316,357.556,380.316,358.706z M387.427,353.315
					c0.522,0.649,0.818,0.725,1.499,0.299c0.154-0.096,0.209-0.352,0.31-0.535c-0.194-0.083-0.413-0.268-0.578-0.228
					C388.235,352.953,387.836,353.154,387.427,353.315z M363.169,383.413c1.305-0.116,1.605-0.458,1.127-1.198
					C363.105,382.629,363.105,382.629,363.169,383.413z M377.221,318.941c0.171,0.781,0.431,1.283,1.061,1.483
					c0.266-0.169,0.506-0.321,0.809-0.513C378.466,319.587,377.917,319.302,377.221,318.941z M387.394,313.685
					c0.014-0.074,0.029-0.149,0.043-0.224c-0.371-0.121-0.736-0.277-1.116-0.353c-0.393-0.079-0.847-0.256-1.214,0.349
					C385.947,313.445,386.65,313.823,387.394,313.685z M366.729,332.313c0.625,0.026,0.973-0.223,1.255-0.758
					c-0.427-0.182-0.81-0.345-1.255-0.535C366.729,331.465,366.729,331.833,366.729,332.313z M387.034,360.631
					c-0.028,0.381-0.081,0.656-0.053,0.923c0.014,0.13,0.182,0.243,0.28,0.363c0.118-0.099,0.296-0.176,0.343-0.301
					c0.13-0.344,0.205-0.708,0.32-1.131C387.644,360.531,387.385,360.574,387.034,360.631z M372.254,330.682
					c1.26-0.216,1.535-0.586,1.127-1.465C373.011,329.698,372.661,330.153,372.254,330.682z M396.547,323.792
					c-0.266-0.286-0.415-0.446-0.655-0.703c-0.258,0.481-0.464,0.864-0.669,1.246c0.073,0.064,0.146,0.129,0.219,0.193
					C395.778,324.305,396.114,324.081,396.547,323.792z M378.602,316.651c0.393-0.293,0.99-0.408,0.819-1.13
					c-0.428,0.087-0.803,0.163-1.203,0.244C378.351,316.072,378.458,316.318,378.602,316.651z M363.199,386.243
					c0.857,0.404,0.857,0.404,1.395,0.113c-0.245-0.28-0.479-0.548-0.747-0.855C363.607,385.777,363.431,385.978,363.199,386.243z
					 M404.624,349.967c-0.756,0.176-0.695,0.764-0.665,1.152c0.028,0.365,0.447,0.27,0.796,0.139
					C404.71,350.812,404.667,350.396,404.624,349.967z M394.879,349.072c0.653,0.252,1.166-0.146,1.82-0.105
					C395.956,348.312,395.861,348.32,394.879,349.072z M390.417,317.285c0.614,1.009,0.816,1.029,1.674,0.306
					C391.565,317.494,391.087,317.407,390.417,317.285z M371.453,364.855c-0.636-0.139-0.712,0.448-1.068,0.582
					c-0.087-0.094-0.184-0.274-0.258-0.265c-0.132,0.017-0.25,0.147-0.401,0.249C370.575,365.94,370.575,365.94,371.453,364.855z
					 M397.88,356.157c-0.471,0.422-0.886,0.733-1.01,1.366C397.559,357.292,398.001,356.996,397.88,356.157z M372.847,349.337
					c-0.22-0.305-0.439-0.609-0.7-0.971C371.761,349.162,372.257,349.287,372.847,349.337z M402.791,356.516
					c-0.356-0.516-0.579-0.84-0.838-1.215C401.726,355.996,401.726,355.996,402.791,356.516z M390.207,361.833
					c-0.34-0.051-0.512-0.058-0.671-0.106c-0.175-0.054-0.339-0.147-0.519-0.228C388.911,362.293,388.994,362.322,390.207,361.833z
					 M370.902,310.624c-0.295,0.088-0.528,0.157-0.773,0.23c0.141,0.485,0.457,0.523,0.915,0.339
					C371.004,311.03,370.965,310.872,370.902,310.624z M381.53,390.857c0.368-0.247,0.576-0.387,0.854-0.574
					c-0.222-0.195-0.378-0.332-0.657-0.578C381.654,390.127,381.608,390.401,381.53,390.857z M375.477,330.061
					c-0.245,0.235-0.512,0.38-0.503,0.507c0.018,0.263,0.053,0.653,0.608,0.5C375.554,330.803,375.525,330.524,375.477,330.061z
					 M371.702,363.892c0.45-0.353,0.73-0.573,1.024-0.804C372.118,362.674,372.083,362.698,371.702,363.892z M375.269,313.819
					c0.527-0.245,0.868-0.404,1.268-0.59c-0.097-0.139-0.181-0.262-0.307-0.443C375.932,313.107,375.679,313.378,375.269,313.819z
					 M379.001,335.557c0.064,1.357,0.064,1.357,0.627,1.327C379.451,336.511,379.268,336.123,379.001,335.557z M391.544,324.034
					c-0.268,0.332-0.536,0.665-0.89,1.104C391.387,325.015,391.505,324.543,391.544,324.034z M372.85,345.328
					c-0.457-0.222-0.771-0.374-1.084-0.527C372.076,345.007,372.094,345.753,372.85,345.328z M385.593,335.585
					c-0.284,0.382-0.448,0.603-0.685,0.92C385.582,336.564,385.845,336.419,385.593,335.585z M383.06,387.49
					c0.228-0.629,0.228-0.629-0.539-0.653C382.722,387.08,382.877,387.267,383.06,387.49z M404.915,355.695
					c-0.011,0.243-0.164,0.535,0.256,0.598c0.105,0.016,0.336-0.144,0.339-0.228C405.519,355.722,405.303,355.609,404.915,355.695z
					 M374.862,309.649c0.353,0.247,0.553,0.387,0.899,0.629C375.599,309.811,375.656,309.377,374.862,309.649z M386.936,338.977
					c0.09-0.107,0.18-0.214,0.27-0.322c-0.245-0.182-0.49-0.365-0.735-0.547c-0.06,0.062-0.12,0.124-0.18,0.186
					C386.506,338.522,386.721,338.749,386.936,338.977z M362.782,317.559c0.293,0.028,0.51,0.049,0.756,0.073
					c0-0.264,0-0.457,0-0.675C363.289,317.155,363.076,317.324,362.782,317.559z M369.418,345.211
					c0.081,0.433,0.122,0.657,0.176,0.947C370.169,345.815,369.942,345.608,369.418,345.211z M374.434,365.494
					c-0.211-0.308-0.313-0.457-0.473-0.691c-0.12,0.273-0.19,0.434-0.284,0.648C373.92,365.465,374.079,365.474,374.434,365.494z
					 M409.851,357.852c-0.06,0.077-0.12,0.155-0.181,0.232c0.174,0.102,0.349,0.204,0.523,0.306c0.04-0.06,0.08-0.121,0.12-0.181
					C410.159,358.09,410.005,357.971,409.851,357.852z M395.643,360.446c-0.075-0.012-0.149-0.025-0.224-0.037
					c-0.024,0.191-0.047,0.381-0.071,0.572c0.065,0.011,0.13,0.022,0.196,0.034C395.577,360.825,395.61,360.635,395.643,360.446z
					 M371.42,323.211c0.086,0.003,0.173,0.007,0.259,0.01c-0.013-0.196-0.025-0.392-0.038-0.588
					c-0.06,0.001-0.121,0.001-0.181,0.002C371.447,322.827,371.433,323.019,371.42,323.211z M382.831,337.723
					c-0.373,0.187-0.547,0.275-0.817,0.41C382.575,338.24,382.575,338.24,382.831,337.723z M382.036,323.141
					c0.007-0.086,0.014-0.173,0.02-0.26c-0.187,0-0.374,0-0.56,0c-0.005,0.043-0.01,0.086-0.015,0.13
					C381.666,323.054,381.851,323.098,382.036,323.141z M379.364,326.51c0.228,0.602,0.228,0.602,0.687,0.508
					C379.854,326.873,379.705,326.763,379.364,326.51z M371.561,323.753c-0.058-0.047-0.116-0.094-0.174-0.141
					c-0.118,0.172-0.236,0.344-0.354,0.516c0.037,0.028,0.074,0.056,0.111,0.083C371.282,324.059,371.421,323.905,371.561,323.753z"
					/>
				<path d="M356.721,358.847c-0.111,0.083-0.286,0.144-0.323,0.253c-0.234,0.693-0.438,1.396-0.652,2.096
					c-0.248,0.809-0.721,0.915-1.332,0.288c-0.241-0.247-0.46-0.516-0.841-0.947c-0.194,0.379-0.333,0.65-0.433,0.845
					c-0.772-0.173-1.094-0.588-1.364-1.099c-0.143-0.271-0.395-0.485-0.716-0.866c-0.271,0.833-1.555,0.74-1.094,2.004
					c0.504-0.132,0.982-0.257,1.437-0.376c-0.124,0.804-0.486,1.148-1.267,1.079c-0.569-0.05-1.17-0.06-1.463-0.73
					c-0.106-0.241-0.343-0.424-0.464-0.566c-0.75,0.144-1.444,0.278-2.109,0.406c-0.241-0.352-0.414-0.603-0.607-0.884
					c-0.715,0.087-1.45,0.206-1.998-0.444c-0.083-0.098-0.202-0.173-0.263-0.282c-0.548-0.982-0.5-1.142,0.554-1.908
					c0.026-0.329-0.182-0.624-0.455-0.477c-0.97,0.523-1.297-0.197-1.698-0.791c-0.151-0.223-0.25-0.48-0.406-0.787
					c-0.717,0.352-1.495,0.242-2.189,0.704c-0.668,0.445-1.487-0.027-1.961-0.979c-0.124-0.249-0.142-0.55-0.265-1.063
					c0.639,0.252,1.039,0.41,1.513,0.597c0.383-0.276,0.801-0.579,1.267-0.916c0.164,0.13,0.343,0.273,0.507,0.404
					c1.011-0.151,1.235-1.106,1.82-1.796c0.339,0.265,0.656,0.514,1.077,0.843c0.398-0.527,0.224-1.537,1.396-1.596
					c0.036,0.01,0.295,0.085,0.602,0.174c0.055-1.155,0.719-1.673,1.934-1.633c-0.52-1.26,0.213-1.925,0.831-2.493
					c0.807,0.071,1.48,0.131,2.077,0.184c0.321,0.248,0.617,0.478,0.962,0.745c-0.337,0.468-1.711,0.447-1.107,1.746
					c0.409-0.187,0.748-0.342,0.899-0.411c0.215-0.38,0.288-0.686,0.477-0.799c0.21-0.125,0.525-0.075,0.804-0.102
					c0.063-0.297,0.117-0.556,0.188-0.891c0.614,0.108,1.168,0.07,1.467-0.655c0.797,0.476,1.517,0.907,2.268,1.355
					c0.116,0.616,0.233,1.241,0.373,1.985c0.582,0.283,1.046,1.059,1.83,1.142c0.311-0.393,0.579-0.685,0.791-1.012
					c0.195-0.302,0.33-0.644,0.484-0.952c-0.572-0.386-0.644,0.227-0.949,0.278c-0.35-0.615-0.35-0.615,0.54-1.292
					c0.335,0.364,0.677,0.736,1.019,1.108c0.309,0.721-0.376,1.601,0.262,2.316c0.303,0.34,0.8,0.507,1.278,0.792
					c-0.032,0.261-0.071,0.586-0.108,0.893c0.337,0.197,0.484,0.114,0.544-0.211c0.084-0.454,0.218-0.886,0.808-1.018
					c0.009,0.212-0.04,0.454,0.049,0.62c0.058,0.108,0.32,0.105,0.681,0.204c-0.863,0.464-0.626,1.374-1.362,1.838
					c1.196,0.547,2.228,1.019,3.26,1.491c-0.004,0.036-0.007,0.072-0.011,0.108c-0.201-0.031-0.409-0.037-0.6-0.098
					c-0.46-0.146-0.951-0.253-1.36-0.493c-1.022-0.602-2.085-0.724-3.298-0.416c-0.212,0.71-0.443,1.484-0.71,2.377
					c-0.732-0.547-0.76-1.271-1.028-1.93c-0.307,0.445-0.514,0.999-0.912,1.246c-0.363,0.225-0.536,0.478-0.683,0.818
					L356.721,358.847z M349.445,360.081c-0.673-0.691-0.818-0.666-1.811,0.323C348.244,360.296,348.811,360.195,349.445,360.081z
					 M351.891,359.137c1.258,0.353,1.436,0.367,1.999,0.139c-0.369-0.061-0.793-0.007-0.912-0.172
					C352.564,358.53,352.298,358.847,351.891,359.137z M358.235,352.234c0.527,0.151,0.863,0.247,1.199,0.343
					c0.042-0.065,0.085-0.129,0.127-0.194c-0.197-0.232-0.393-0.464-0.603-0.711C358.715,351.862,358.56,351.982,358.235,352.234z
					 M347.499,358.859c-0.189-0.305-0.32-0.516-0.511-0.823c-0.049,0.312-0.083,0.524-0.125,0.785
					C347.085,358.834,347.237,358.843,347.499,358.859z M355.513,358.647c-0.164-0.08-0.295-0.143-0.425-0.207
					c-0.074,0.199-0.148,0.398-0.258,0.692C355.109,358.934,355.279,358.814,355.513,358.647z M352.995,352.393
					c-0.079-0.294-0.137-0.515-0.217-0.813C352.159,352.07,352.563,352.196,352.995,352.393z M351.508,351.054
					c-0.072-0.012-0.145-0.024-0.217-0.036c-0.045,0.201-0.09,0.401-0.135,0.602c0.145,0.023,0.29,0.046,0.524,0.083
					C351.605,351.42,351.557,351.237,351.508,351.054z M354.611,356.363c0.279,0.402,0.46,0.507,0.716,0.059
					C355.09,356.403,354.907,356.388,354.611,356.363z"/>
				<path d="M369.013,452.44c-0.087,0.322-0.174,0.644-0.295,1.09c-0.312-0.171-0.609-0.241-0.748-0.428
					c-0.409-0.547-0.909-0.528-1.481-0.381c-0.564,0.145-1.135,0.264-1.707,0.376c-0.568,0.112-1.141,0.201-1.65,0.29
					c-0.417-0.387-0.336-0.678,0.02-0.903c0.339-0.214,0.699-0.399,1.061-0.573c0.148-0.071,0.327-0.108,0.492-0.111
					c0.671-0.012,1.342-0.005,2.067-0.005c0.128-0.627-0.35-1.142-0.605-1.816c0.325-0.247,0.669-0.508,1.071-0.813
					c0.579,1.187,0.843,2.438,1.796,3.3C369.033,452.465,369.013,452.44,369.013,452.44z"/>
				<path d="M359.137,326.688c0.234-0.694,0.702-0.787,1.138-0.821c0.267-0.406,0.506-0.769,0.788-1.197
					c0.45,0.391,1.047,0.418,1.151,1.139c0.034,0.238,0.587,0.402,0.888,0.589c-0.109,0.358-0.255,0.709-0.317,1.074
					c-0.069,0.41-0.32,0.576-0.644,0.43c-0.701-0.316-1.417-0.525-2.174-0.658C359.666,327.191,359.411,326.881,359.137,326.688z"/>
				<path d="M367.151,324.713c-0.359-0.281-0.613-0.48-0.966-0.756c0.039,0.36,0.063,0.579,0.099,0.909
					c-0.211-0.124-0.343-0.202-0.54-0.318c0.013,0.254,0.024,0.467,0.036,0.704c-0.102,0-0.245,0.042-0.29-0.007
					c-0.205-0.224-0.468-0.45-0.538-0.72c-0.045-0.176,0.239-0.416,0.318-0.648c0.272-0.8,0.918-1.212,1.625-1.505
					c0.32-0.133,0.765-0.151,1.092-0.041c0.716,0.242,0.825,0.691,0.333,1.273C367.973,324.014,367.54,324.349,367.151,324.713z"/>
				<path d="M402.878,346.028c-0.824,0.855-1.271,0.929-2.025,0.34c-0.842-0.657-0.897-1.308-0.198-2.434
					C401.471,344.555,402.606,344.832,402.878,346.028z"/>
				<path d="M371.847,391.003c0.035,0.001,0.077,0.017,0.102,0.002c0.986-0.568,0.986-0.568,2.075-0.11
					c0.35-0.287,0.714-0.586,1.129-0.927c0.183,0.661,0.125,1.184-0.361,1.625c-0.125,0.114-0.225,0.26-0.321,0.401
					c-0.422,0.618-0.984,0.703-1.499,0.196c-0.39-0.384-0.751-0.797-1.128-1.203C371.842,390.981,371.847,391.003,371.847,391.003z"
					/>
				<path d="M336.712,360.278c-0.831-0.166-1.147-0.897-1.546-1.504c-0.227-0.346,0.008-0.712,0.513-0.756
					c0.671-0.058,1.35-0.014,2.143-0.014c-0.187,0.469-0.316,0.853-0.492,1.214C337.156,359.572,336.934,359.902,336.712,360.278z"
					/>
				<path d="M359.103,321.14c0.105-0.431,0.177-0.726,0.261-1.07c0.574-0.114,1.067-0.511,1.789-0.089
					c0.877,0.513,0.952,0.447,0.479,1.463C360.811,321.345,359.982,321.246,359.103,321.14z"/>
				<path d="M381.06,299.052c-0.027,0.611-0.048,1.077-0.071,1.574c-0.322,0.264-0.693,0.569-1.065,0.874
					c-0.719-0.953-0.781-1.378-0.368-2.448C380.054,299.052,380.551,299.052,381.06,299.052z"/>
				<path d="M408.805,361.371c0.117,0.343,0.237,1.047-0.229,0.898c-0.582-0.186-0.701,0.217-1.092,0.382
					c-0.544-0.558-0.751-1.257-0.957-1.965c0.482-0.401,0.848-0.433,1.264,0.013C408.029,360.956,408.387,361.102,408.805,361.371z"
					/>
				<path d="M366.813,335.056c0.531,0.688,0.955-0.089,1.548-0.063c-0.209,0.568-0.934,1.006-0.249,1.699
					c-0.531,0.12-0.892,0.202-1.237,0.28C366.02,336.051,366.012,335.949,366.813,335.056z"/>
				<path d="M391.505,313.925c-0.971-0.263-1.766-0.648-2.205-1.654c0.836-0.283,1.603-0.196,2.509,0.078
					C391.308,312.852,390.931,313.305,391.505,313.925z"/>
				<path d="M358.29,328.017c0.402-0.06,0.736-0.111,1.055-0.159c0.384,0.549-0.09,0.911-0.348,1.032
					c-0.473,0.223-1.055,0.578-1.752-0.095c0.316-0.158,0.595-0.296,0.921-0.459c-0.378-0.4-0.607-0.641-0.89-0.94
					C358.088,327.208,358.088,327.208,358.29,328.017z"/>
				<path d="M335.632,354.436c0.14,0.012,0.44,0.037,0.927,0.078c-0.701,0.472-0.791,1.067-0.643,1.711
					c-0.255,0.186-0.475,0.346-0.749,0.546c-0.221-0.17-0.529-0.306-0.668-0.541c-0.186-0.315-0.077-0.66,0.22-0.923
					C335,355.059,335.263,354.79,335.632,354.436z"/>
				<path d="M364.743,320.421c0.342,0.617,0.066,1.081-0.503,1.545c-0.455-0.28-0.94-0.578-1.473-0.906
					C363.387,320.577,363.901,320.061,364.743,320.421z"/>
				<path d="M389.657,328.425c0.315,0.543,0.555,1.028,0.231,1.588c-0.816,0.071-1.384-0.181-1.437-0.628
					C388.401,328.965,388.792,328.639,389.657,328.425z"/>
				<path d="M366.963,337.534c0.741,0.227,1.411,0.431,2.064,0.631c-0.216,0.453-1.084,0.979-1.509,0.841
					C367.128,338.88,366.837,338.06,366.963,337.534z"/>
				<path d="M394.876,362.976c0.094,0.242,0.21,0.479,0.277,0.729c0.055,0.204,0.052,0.424,0.08,0.679
					c-0.911,0.061-1.446-0.257-1.65-1.081c0.291-0.718,0.897-0.12,1.327-0.291C394.91,363.011,394.876,362.976,394.876,362.976z"/>
				<path d="M369.374,369.664c-0.723-0.555-0.861-1.227-0.698-2.04c0.409,0.127,0.766,0.238,1.172,0.364
					C369.714,368.537,369.817,369.153,369.374,369.664z"/>
				<path d="M362.778,325.211c0.769-0.293,1.442-0.473,2.008,0.222C364.335,326.374,363.62,326.324,362.778,325.211z"/>
				<path d="M365.179,332.274c-1.069,0.162-1.515-0.159-1.734-1.246C364.549,331.051,365.134,331.471,365.179,332.274z"/>
				<path d="M403.599,363.579c-0.235-0.08-0.482-0.164-0.779-0.265c0.019-0.326,0.036-0.625,0.05-0.876
					c0.366-0.205,0.676-0.379,0.984-0.551C404.268,362.487,404.225,362.789,403.599,363.579z"/>
				<path d="M341.283,357.52c-0.898,0.336-1.026,0.23-1.281-1.035c0.685-0.325,0.685-0.325,1.281-0.05
					C341.283,356.787,341.283,357.157,341.283,357.52z"/>
				<path d="M358.66,344.787c-0.121,0.57-0.216,1.02-0.334,1.577c-0.715-0.44-0.882-0.99-0.945-1.708
					C357.792,344.698,358.144,344.734,358.66,344.787z"/>
				<path d="M340.966,360.89c-0.735-0.162-0.693-0.82-0.93-1.407c0.207-0.094,0.37-0.203,0.549-0.242
					c0.551-0.121,0.795,0.071,0.711,0.602c-0.057,0.363-0.219,0.71-0.334,1.065L340.966,360.89z"/>
				<path d="M411.78,358.014c0.676,0.503,0.697,1.114,0.327,1.799c-0.91-0.113-0.738-0.862-0.892-1.434
					c0.193-0.124,0.39-0.252,0.588-0.379C411.804,357.999,411.78,358.014,411.78,358.014z"/>
				<path d="M384.947,382.751c-1.034,0.271-1.332-0.434-1.761-1.044C384.368,381.608,384.705,381.812,384.947,382.751z"/>
				<path d="M386.43,347.268c-0.663-0.386-1.088-0.779-1.072-1.55C386.436,346.042,386.437,346.043,386.43,347.268z"/>
				<path d="M411.38,362.633c-0.849-0.531-0.938-0.673-0.936-1.412C411.361,361.817,411.361,361.817,411.38,362.633z"/>
				<path d="M340.961,360.907c0.19-0.137,0.381-0.273,0.565-0.406c0.649,0.671,0.649,0.671-0.12,1.261
					c-0.299-0.219,0.178-0.816-0.437-0.879C340.966,360.89,340.961,360.907,340.961,360.907z"/>
				<path d="M356.696,358.876c0.319-0.085,0.638-0.169,1.108-0.294c-0.152,0.492-0.268,0.87-0.45,1.459
					c-0.273-0.518-0.452-0.856-0.631-1.194C356.721,358.847,356.696,358.876,356.696,358.876z"/>
				<path d="M339.993,357.888c-0.152,0.469-0.259,0.713-0.306,0.969c-0.039,0.213-0.008,0.438-0.008,0.641
					C338.988,358.885,339.005,358.585,339.993,357.888z"/>
				<path d="M394.75,383.893c0.121,0.157,0.241,0.312,0.399,0.517c-0.078,0.116-0.179,0.241-0.254,0.381
					c-0.083,0.153-0.142,0.318-0.246,0.555C394.143,384.453,394.145,384.445,394.75,383.893z"/>
				<path d="M360.779,341.812c-0.114,0.533-0.203,0.947-0.303,1.414C359.745,342.351,359.766,342.25,360.779,341.812z"/>
				<path d="M406.52,319.97c-0.299,0.354-0.526,0.624-0.781,0.926C405.495,320.113,405.704,319.856,406.52,319.97z"/>
				<path d="M406.432,322.438c-0.233-0.387-0.078-0.624,0.282-0.799C406.966,322.107,406.966,322.107,406.432,322.438z"/>
				<path d="M357.126,351.405c0.121-0.229,0.242-0.459,0.413-0.784c0.33,0.518,0.138,0.726-0.139,0.906
					C357.309,351.487,357.218,351.446,357.126,351.405z"/>
				<path d="M359.782,318.395c0.172,0.141,0.313,0.255,0.479,0.391C359.728,318.969,359.728,318.969,359.782,318.395z"/>
				<path d="M407.208,321.349c0.242-0.226,0.366-0.341,0.525-0.49C407.996,321.391,407.712,321.365,407.208,321.349z"/>
			</g>
		</g>
	</g>
</svg>