<svg xmlns="http://www.w3.org/2000/svg" viewBox="46.963 290.700 133.330 173.610">
<g>
		<path d="M130.309,378.921c0.173,0.318,0.213,0.684,0.32,1.026c0.022,0.07-0.145,0.066-0.164,0.123
			c-0.225-0.293-0.434-0.586-0.658-0.881c-0.224-0.295-0.492-0.567-0.702-0.875c-1.481-2.161-2.752-4.422-3.969-6.741
			c-0.131-0.249-0.386-0.42-0.514-0.674c-0.198-0.396-0.271-0.842-0.437-1.253c0.005,0.518,0.107,0.844,0.442,1.247
			c0.375,0.98,0.749,2.05,1.161,2.993c0.413,0.943,0.899,1.727,1.307,2.653c0.244,0.556,0.368,1.17,0.547,1.753
			c-0.512,0.12-1.022,0.235-1.533,0.355c0.448,0.833,1.103,1.506,1.723,2.202c0.407,0.457,0.851,0.849,1.259,1.288
			c1.674,1.804,3.368,3.499,5.289,5.05c1.921,1.551,3.868,3.117,5.934,4.487c2.759,1.829,5.649,3.452,8.488,5.144
			c1.709,1.018,3.438,2.005,5.147,3.013c1.901,1.121,3.807,2.228,5.691,3.365c0.8,0.483,1.587,1.004,2.35,1.51
			c0.153,0.101,0.322,0.278,0.456,0.287c1.002,0.07,1.448,0.634,2.124,1.254c0.676,0.621,1.353,1.183,2.005,1.813
			c0.652,0.63,1.101,1.258,1.339,2.132c0.003,0.01,0.03-0.017,0.02-0.022c-0.6-0.322-1.216-0.65-1.822-0.975
			c0.185,0.569,0.366,1.137,0.554,1.706c-0.603-0.456-1.154-0.879-1.766-1.341c-0.613-0.463-1.005-0.795-1.862-0.822
			c-0.362-0.012-0.805-0.327-1.164-0.563c-0.8-0.526-1.698-1.057-2.512-1.591c-0.062,0.06-0.116,0.123-0.175,0.185
			c1.462,1.911,2.93,3.827,4.388,5.736c-0.569,0.1-0.995-0.255-1.376-0.59c-1.524-1.341-2.971-2.629-4.482-3.965
			c-0.124-0.11-0.326-0.182-0.503-0.168c0.174,0.259,0.354,0.514,0.538,0.769c0.75,1.036,1.574,1.992,2.227,3.104
			c0.429,0.73,0.589,1.602,0.869,2.399c-0.076,0.048-0.149,0.09-0.224,0.135c-1.75-1.724-3.501-3.448-5.251-5.172
			c0.033,0.389,0.068,0.778,0.101,1.167c-0.793-0.837-1.589-1.696-2.389-2.519c-0.293-0.301-0.595-0.532-0.903-0.808
			c-0.186-0.735-0.532-1.126-1.221-1.44c0.252,0.672,0.62,1.068,1.248,1.407c0.521,0.75,0.999,1.463,1.538,2.217
			c0.328,0.459,0.736,0.973,1.088,1.434c-0.386,0.101-0.777,0.192-1.165,0.289c1.221,2.242,2.446,4.488,3.659,6.729
			c-0.721-0.182-1.392-0.64-1.947-1.081c-1.237-0.983-2.342-1.964-3.513-2.988c-0.419-0.367-0.834-0.687-1.347-0.918
			c-0.513-0.232-0.885-0.612-1.295-0.992c-0.41-0.379-0.804-0.772-1.221-1.147c-1.214-1.092-2.174-2.318-3.105-3.66
			c-0.489-0.705-1.115-1.229-1.838-1.69c0.18,0.868,0.581,1.566,0.388,2.469c-2.666-2.792-4.954-5.816-7.151-8.985
			c0.965,2.098,1.923,4.199,2.889,6.296c-0.619,0.143-1.239,0.285-1.858,0.427c-1.971-2.219-3.939-4.443-5.912-6.659
			c0.302,0.979,0.541,1.981,1.157,2.807c0.615,0.827,1.209,1.524,1.788,2.392c0.256,0.383,0.53,0.92,0.757,1.346
			c-0.326-0.111-0.649-0.262-0.98-0.365c-0.057-0.018-0.044,0.077-0.091,0.086c0.83,0.857,1.636,1.728,2.482,2.569
			c1.793,1.783,3.557,3.57,5.429,5.278c1.252,1.142,2.552,2.18,3.945,3.175c1.178,0.842,2.396,1.444,3.666,2.251
			c1.27,0.807,2.568,1.771,3.928,2.558c3.302,1.91,6.697,3.741,10.061,5.587c2.412,1.324,4.859,2.648,7.261,4.024
			c0.389,0.223,0.712,0.611,0.995,0.962c-0.318-0.113-0.638-0.234-0.958-0.349c0.382,0.539,0.76,1.081,1.138,1.624
			c-1.747-0.563-3.382-1.36-5.057-2.103c2.027,1.866,3.975,3.597,5.353,6.016c-3.946-2.623-7.757-5.439-11.716-8.043
			c0.123,0.129,0.23,0.27,0.369,0.382c1.519,1.226,3.021,2.392,4.543,3.643c0.559,0.459,1.011,1.093,1.3,1.775
			c-3.229-1.881-6.285-4.011-9.342-6.163c0.849,0.99,1.704,1.946,2.539,2.953c1.042,1.256,2.093,2.488,3.069,3.818
			c0.39,0.531,0.557,1.231,0.709,1.872c-0.494-0.513-1.014-1.077-1.527-1.56c-0.247-0.233-0.663-0.41-0.873-0.583
			c-0.21-0.173-0.279-0.508-0.39-0.598c-0.11-0.091-0.228,0.007-0.159,0.127c0.069,0.119,0.408,0.262,0.534,0.477
			c0.221,0.377,0.423,0.91,0.631,1.321c-0.333-0.009-0.67-0.034-1.005-0.049c0.153,0.647,0.302,1.294,0.452,1.942
			c-0.076,0.048-0.152,0.091-0.228,0.143c-1.109-1.184-2.349-2.149-3.347-3.452c-1.293-1.687-2.654-3.381-4.076-4.979
			c0.288,1.51,0.79,2.788,1.609,4.102c0.503,0.806,0.746,1.669,0.829,2.62c-3.602-4.507-7.19-9.028-10.711-13.6
			c-0.078,0.053-0.157,0.106-0.235,0.159c1.006,2.375,2.029,4.604,3.659,6.623c-0.337-0.143-0.674-0.286-1.012-0.429
			c-0.165,0.305-0.329,0.611-0.494,0.916c-1.056-1.505-2.167-2.621-3.823-3.45c0.442,0.943,0.89,1.879,1.336,2.823
			c-1.242-1.073-2.262-2.152-3.182-3.548c-0.177-0.269-0.326-0.573-0.773-0.401c-0.027,0.01-0.189-0.195-0.251-0.281
			c-0.67-0.926-1.515-1.57-2.509-2.152c-0.058,1.053,0.057,1.941-0.578,2.845c-0.177-0.468-0.348-0.933-0.53-1.403
			c-1.222-0.211-1.937-0.965-2.46-2.02c-0.77-1.554-1.336-3.054-2.032-4.617c-0.123-0.276-0.32-0.514-0.562-0.707
			c0.207,0.786,0.436,1.521,0.614,2.325c0.254,1.148,0.354,2.223,0.239,3.424c-0.051,0.528,0.069,1.005,0.474,1.422
			c1.802,1.853,3.616,3.73,5.426,5.594c0.726,0.747,1.352,1.576,2.042,2.367c0.69,0.791,1.607,1.101,2.542,1.567
			c0.714,0.356,1.392,0.807,1.897,1.449c-1.129-0.235-2.342-0.483-3.33-1.07c-1.873-1.113-3.563-2.347-5.404-3.478
			c-0.315-0.193-0.803-0.135-1.12-0.241c-0.317-0.105-0.437-0.392-0.699-0.491c-0.077-0.029-0.088,0.184-0.155,0.193
			c0.273,0.182,0.577,0.29,0.839,0.48c0.508,0.37,0.969,0.784,1.484,1.145c0.744,0.522,1.517,0.985,2.253,1.531
			c0.345,0.257,0.587,0.635,0.823,0.994c-1.018-0.367-1.914-0.973-2.97-1.238c0.443,0.422,0.888,0.842,1.333,1.262
			c-1.58-0.667-3.088-1.327-4.458-2.375c0.024,0.223,0.048,0.446,0.073,0.669c-0.812-0.258-1.457-0.818-2.276-1.058
			c0.838,1.358,1.883,2.555,2.8,3.859c-1.051-0.435-1.821-0.982-2.529-1.885c-0.352-0.449-0.608-0.726-1.201-0.922
			c-0.37-0.123-0.731-0.454-0.984-0.801c-0.933-1.276-1.854-2.569-2.763-3.873c-0.128-0.183-0.29-0.383-0.489-0.503
			c0.045,0.219,0.05,0.467,0.145,0.672c0.668,1.453,1.372,2.873,2.058,4.318c0.155,0.326,0.281,0.674,0.349,1.033
			c-1.324-0.871-2.221-1.852-2.916-3.284c-0.5,0.51-1.083,0.864-1.25,1.609c-0.167,0.745,0.026,1.537,0.031,2.296
			c0.539-0.24,1.068-0.487,1.605-0.727c0.084,0.157,0.169,0.315,0.253,0.472c-0.538,0.551-1.144,0.562-1.87,0.663
			c-0.137,5.134,0.094,10.245,0.341,15.372c1.45-2.137,2.902-4.279,4.351-6.414c0.338,0.187,0.262,0.479,0.18,0.779
			c-0.501,1.839-0.97,3.642-1.454,5.473c0.892-0.099,1.784-0.194,2.676-0.291c0.051,0.675,0.104,1.35,0.156,2.025
			c-0.389-0.225-0.778-0.451-1.166-0.676c-0.532,0.367-0.739,0.836-1.433,0.562c-0.399,0.917-0.792,1.826-1.194,2.748
			c-0.628-0.45-0.905-0.576-0.696-1.441c0.342-1.415,0.812-2.916,1.208-4.374c0.039-0.143,0.091-0.46,0.117-0.628
			c-1.572,2.283-2.856,4.755-4.487,7.004c-0.271-0.46-0.542-0.92-0.812-1.38c-0.865,1.074-1.729,2.149-2.594,3.224
			c-0.197-1.476-0.543-2.721-1.434-3.933c-0.686,0.686-0.768,1.597-1.214,2.425c-0.887-0.206-1.125-0.771-1.338-1.595
			c-0.129-0.5-0.199-0.98-0.301-1.48c-0.632,0.734-1.058,1.543-1.399,2.441c-0.774-0.045-1.403-0.22-2.214-0.212
			c-0.638,0.006-1.152,0.592-1.489,1.126c-0.621-0.081-1.111-0.447-1.701-0.609c-0.009-0.003-0.041,0.018-0.032,0.017
			c0.506-0.052,1.03-0.112,1.543-0.167c-0.277-0.787-0.554-1.575-0.831-2.362c0.075-0.046,0.149-0.093,0.224-0.139
			c0.397,0.549,0.794,1.099,1.191,1.648c0.678-0.085,1.355-0.172,2.033-0.256c-0.35-0.682-0.687-1.354-1.048-2.034
			c-0.173-0.326-0.286-0.582-0.108-0.939c0.175,0.154,0.379,0.2,0.545,0.38c0.383,0.416,0.728,0.907,1.101,1.337
			c0.017-0.349,0.055-0.792,0.04-1.125c-0.06-1.383-0.193-2.665-0.248-4.048c-0.026-0.645,0.263-1.143,0.807-1.507
			c0.212,0.451,0.387,0.923,0.611,1.37c0.024,0.048,0.108-0.037,0.147-0.016c-0.054-0.849-0.127-1.692-0.176-2.541
			c-0.133-2.337-0.292-4.666-0.356-7.009c-0.074-2.694-0.018-5.387-0.1-8.087c-0.025-0.827-0.222-1.649-0.41-2.456
			c-0.345,1.485-0.482,2.972-1.08,4.393c-0.089-0.101-0.19,0.104-0.261-0.067c-0.07-0.171-0.017-0.335-0.093-0.602
			c-0.077-0.267-0.204-0.515-0.438-0.821c-0.586-0.768-0.637-1.674-0.429-2.633c-0.972,0.994-1.381,2.287-2.123,3.44
			c-0.427-1.001-0.205-1.931-0.141-2.981c-1.546,2.921-2.964,5.893-4.25,8.938c-0.089-0.022-0.179-0.044-0.269-0.066
			c0.099-0.805,0.197-1.61,0.297-2.415c-0.668,1.563-1.382,2.99-2.522,4.266c0.669-3.103,1.711-6.067,2.725-9.066
			c-0.989,1.089-1.845,2.349-2.56,3.607c-0.991,1.743-1.908,3.414-2.904,5.131c-0.189,0.326-0.463,0.601-0.699,0.896
			c-0.275-0.466-0.333-0.91-0.125-1.409c0.739-1.782,1.496-3.53,2.237-5.307c0.126-0.303,0.271-0.611,0.398-0.916
			c-0.686,0.597-1.431,1.119-2.046,1.797c-0.615,0.678-1.108,1.458-1.607,2.218c-0.499,0.76-0.862,1.501-1.375,2.276
			c-0.395,0.596-0.931,1.161-1.556,1.555c0.289-1.119,0.589-2.242,0.877-3.364c-1.218,1.277-2.439,2.552-3.666,3.821
			c-0.281-0.342-0.562-0.685-0.842-1.027c-0.613,0.496-1.227,0.99-1.841,1.484c-0.275-0.523-0.553-1.04-0.826-1.566
			c1.696-0.966,2.887-2.453,4.204-3.829c1.487-1.552,3.035-2.913,4.544-4.418c0.202-0.202,0.385-0.451,0.462-0.726
			c0.386-1.381,0.69-2.762,0.96-4.165c-0.69,1.09-1.384,2.176-2.073,3.266c-0.087-0.039-0.175-0.077-0.262-0.116
			c0.118-0.565,0.238-1.132,0.355-1.696c-0.354,0.065-0.511,0.3-0.65,0.605c-0.525,1.148-1.008,2.274-1.563,3.409
			c-0.266,0.544-0.643,1.043-1.049,1.498c0.466-1.38,0.915-2.768,1.367-4.153c-0.038-0.023-0.075-0.046-0.113-0.069
			c-0.421,0.565-0.841,1.131-1.26,1.698c-0.053-0.026-0.105-0.053-0.158-0.079c0.143-0.483,0.281-0.962,0.426-1.447
			c-0.763,0.794-1.22,1.635-1.762,2.608c-0.542,0.974-1.134,1.999-1.923,2.824c0.456-1.578,1.11-3.09,1.62-4.653
			c-1.362,1.591-2.738,3.141-3.883,4.898c0.053-0.256,0.074-0.545,0.19-0.778c0.685-1.375,1.22-2.73,2.192-3.948
			c0.09-0.113,0.237-0.338,0.31-0.482c-0.488,0.134-0.768,0.5-1.103,0.844c-0.335,0.344-0.636,0.66-0.951,1.011
			c-0.364-0.143-0.728-0.285-1.093-0.427c1.05-1.236,2.115-2.46,3.178-3.686c0.049,0.064,0.092,0.133,0.145,0.193
			c0.088-0.791,0.277-1.644,0.348-2.419c0.071-0.775-0.138-1.373,0.239-2.075c-0.095-0.019-0.185-0.045-0.276-0.069
			c-0.371,0.903-0.71,1.792-1.067,2.707c-0.419,1.076-0.973,1.983-1.816,2.787c0.571-2.283,1.121-4.525,1.691-6.829
			c0.08-0.324,0.177-0.743,0.622-0.738c-0.11-0.6,0.261-0.879,0.496-1.382c0.235-0.503,0.454-1.012,0.67-1.526
			c0.111-0.265,0.125-0.573,0.187-0.847c-0.36-0.23-0.57,0.089-0.704,0.354c-0.747,1.483-1.508,2.939-2.198,4.409
			c-0.69,1.47-1.316,2.91-1.966,4.379c-0.468,1.057-0.887,2.112-1.307,3.185c-0.24,0.614-0.412,1.176-0.921,1.624
			c0.192-3.97,1.03-7.572,2.511-11.258c-0.056,0.014-0.152-0.115-0.195-0.06c-0.166,0.207-0.316,0.419-0.419,0.666
			c-1.069,2.556-2.171,5.095-3.117,7.7c-0.802,2.21-1.454,4.415-1.97,6.722c-0.148,0.661-0.529,1.186-1.087,1.588
			c0.194-3.441,0.525-6.781,1.476-10.107c-0.075-0.034-0.151-0.061-0.225-0.098c-0.446,0.986-0.899,1.898-1.293,2.923
			c-0.395,1.025-0.777,2.115-1.367,3.066c0.324-2.736,0.809-5.398,1.588-8.045c-0.3,0.452-0.641,0.9-0.894,1.376
			c-0.578,1.088-1.18,2.093-1.976,3.035c-0.459,0.542-0.797,1.169-1.117,1.798c-0.32,0.629-0.701,1.057-1.308,1.41
			c0.099-0.521,0.235-1.051,0.335-1.561c0.01-0.049-0.113-0.043-0.121-0.087c-0.497,0.869-0.962,1.713-1.458,2.585
			c-0.496,0.872-1.013,1.663-1.595,2.515c-0.582,0.852-0.973,1.868-1.857,2.499c0.075-1.943,0.534-3.808,0.895-5.714
			c-0.663,1.272-1.338,2.537-2.012,3.802c-0.065-0.041-0.13-0.083-0.196-0.124c0.487-1.358,0.973-2.709,1.453-4.074
			c-0.059,0.027-0.02-0.136-0.099-0.06c-0.08,0.076-0.207,0.219-0.286,0.362c-0.99,1.806-1.839,3.656-2.609,5.59
			c-0.126,0.318-0.451,0.602-0.738,0.798c0.257-1.648,0.437-3.4,1.093-4.925c0.657-1.525,1.476-2.825,2.132-4.326
			c-2.268,1.993-4.093,4.035-5.561,6.703c-0.566,1.028-1.109,2.143-1.712,3.2c-0.239,0.42-0.551,0.813-1.092,0.846
			c0.493-2.697,1.457-5.048,2.837-7.414c-0.064-0.059-0.125-0.118-0.191-0.175c-0.628,0.429-1.312,0.801-1.817,1.374
			c-0.805,0.913-1.686,1.695-2.504,2.593c-0.456,0.501-0.88,1.06-1.335,1.568c-0.293-0.407-0.575-0.82-0.888-1.217
			c-0.024-0.03,0.133-0.121,0.153-0.153c0.02-0.032-0.001-0.133-0.04-0.123c-0.3,0.074-0.579,0.237-0.864,0.311
			c-0.038,0.01-0.129-0.038-0.061-0.113c0.068-0.075,0.248-0.215,0.376-0.311c0.629-0.472,1.349-0.951,1.932-1.482
			c1.499-1.364,2.975-2.77,4.621-3.927c4.962-3.487,9.848-6.942,14.744-10.537c1.027-0.754,2.101-1.575,3.126-2.406
			c0.431-0.349,0.618-0.754,0.608-1.376c-0.038-2.348-0.037-4.699,0.447-7.044c0.336-1.628,0.984-3.216,1.466-4.82
			c0.126-0.419,0.214-0.875,0.241-1.318c-0.963,1.352-1.819,2.717-2.552,4.217c-0.117,0.24-0.143,0.48-0.357,0.717
			c-0.214,0.237-0.562,0.537-0.86,0.724c-0.064,0.04-0.158-0.097-0.226-0.1c0.086-0.764,0.179-1.524,0.261-2.287
			c-1.306,1.398-2.363,2.936-3.935,4.062c0.939-1.892,1.866-3.789,2.784-5.691c-0.072-0.044-0.147-0.086-0.217-0.132
			c-0.429,0.691-0.798,1.364-1.231,2.064c-0.595,0.962-1.193,1.695-2.295,2.134c-0.173,0.069-0.541-0.089-0.73-0.14
			c-1.182,1.419-2.375,2.755-3.485,4.25c-0.461,0.621-0.707,1.436-1.028,2.162c-0.321,0.726-0.623,1.492-0.957,2.224
			c-0.035,0.076-0.169,0.122-0.242,0.161c-0.182-0.605,0.073-1.194-0.385-1.699c0.14-0.594,0.205-1.203,0.361-1.794
			c0.393-1.494,0.967-2.813,1.758-4.153c0.972-1.647,2.068-3.276,3.081-4.91c-1.465,0.647-2.817,1.445-4.405,1.761
			c0.445-0.302,0.909-0.584,1.336-0.909c1.422-1.082,2.814-2.216,4.246-3.278c1.193-0.884,2.357-1.737,3.409-2.791
			c1.393-0.536,2.492-1.558,3.672-2.411c1.311-0.947,2.659-1.976,3.912-2.899c1.253-0.924,2.472-1.677,3.61-2.645
			c0.778-0.662,1.575-1.177,2.404-1.684c0.829-0.507,1.256-1.341,2.069-1.82c1.42-0.837,2.665-1.823,3.995-2.79
			c1.696-1.234,3.392-2.499,5.057-3.782c0.117-0.09,0.248-0.203,0.299-0.336c0.693-1.839,1.355-3.675,2.032-5.515
			c-0.086-0.041-0.171-0.083-0.257-0.125c-0.776,1.276-1.553,2.552-2.329,3.828c-0.308-0.152-0.616-0.305-0.924-0.457
			c1.114-2.696,2.225-5.384,3.338-8.088c-0.899,0.654-1.584,1.198-2.217,2.167c-0.861,1.318-1.698,2.744-2.459,4.181
			c-0.762,1.436-1.385,2.924-2.15,4.413c-0.475,0.924-1.007,1.788-2.064,2.158c0.504-2.59,1.346-5.061,2.229-7.547
			c-0.077,0.005-0.267-0.014-0.314-0.028c-0.048-0.015-0.017-0.003-0.018-0.012c-0.007-0.198,0.12-0.348,0.231-0.488
			c0.557-0.705,1.003-1.411,1.465-2.184c0.721-1.206,1.384-2.383,2.424-3.377c0.076-0.072,0.203-0.271,0.245-0.383
			c-0.256-0.005-0.731-0.073-0.941-0.04c-0.211,0.033-0.196,0.169-0.264,0.266c-0.305,0.442-0.437,0.898-0.74,1.336
			c-0.398,0.577-0.737,0.885-1.488,0.963c-0.75,0.079-1.42,0.411-1.991,0.936c0.174-0.518,0.374-1.036,0.549-1.551
			c-0.09,0.025-0.339,0.107-0.384,0.169c-2.332,3.211-4.427,6.506-6.288,9.99c-0.78,1.461-1.023,3.052-1.444,4.633
			c0.02-0.303-0.008-0.59,0.036-0.898c0.045-0.308,0.13-0.637,0.166-0.951c-0.83,0.624-1.609,0.592-2.646,0.714
			c-0.144,0.017-0.483-0.284-0.527-0.519c-0.26-1.386-0.204-2.695,0.131-4.078c0.132-0.543,0.269-1.084,0.328-1.642
			c-1.493,2.052-2.4,4.331-3.404,6.646c-0.678-1.316-0.168-2.384-0.045-3.772c-0.504-0.139-0.848-0.08-1.111,0.418
			c-1.052,1.991-2.151,3.982-3.142,6.011c-1.117,2.288-1.887,4.671-2.576,7.112c-0.073,0.26-0.161,0.531-0.266,0.754
			s-0.223,0.338-0.347,0.531c-0.077-3.809,0.987-7.113,2.358-10.623c-0.133,0.142-0.366,0.298-0.456,0.469
			c-0.308,0.586-0.679,1.418-1.161,1.787c-0.823,0.628-1.21,1.301-1.687,2.103c-0.57,0.96-0.945,1.866-1.421,2.849
			c-0.48-0.34-0.506-0.685-0.287-1.212c0.342-0.822,0.741-1.641,1.073-2.46c0.207-0.51,0.085-0.821-0.265-1.21
			c-0.817,1.016-1.631,2.03-2.452,3.041c-0.038-0.014-0.076-0.029-0.114-0.043c0.238-0.496,0.478-0.991,0.717-1.487
			c-0.048-0.042-0.093-0.083-0.142-0.125c-0.331,0.33-0.709,0.631-0.999,0.998c-1.283,1.623-2.561,3.258-3.806,4.902
			c-0.254,0.335-0.399,0.782-0.59,1.116c-0.191,0.333-0.408,0.478-0.736,0.297c-0.328-0.181-0.288-0.465-0.093-0.762
			c0.801-1.216,1.608-2.508,2.44-3.707c0.611-0.882,1.317-1.781,1.789-2.705c0.861-1.684,2.146-2.857,3.349-4.24
			c1.203-1.383,2.401-2.637,3.671-3.974c0.286-0.301,0.555-0.569,0.575-1.072c0.004-0.102,0.198-0.281,0.34-0.376
			c2.408-1.604,4.578-3.464,6.706-5.448c1.685-1.571,3.493-3.009,5.248-4.52c2.166-1.865,4.309-3.797,6.461-5.686
			c-0.621-1.488-0.306-2.613,0.289-4.053c-0.093-0.02-0.185-0.041-0.278-0.061c-0.867,1.903-1.727,3.808-2.585,5.715
			c-0.377,0.008-0.753,0.015-1.13,0.023c-0.493,0.927-0.972,1.842-1.607,2.683c-0.834-0.874-1.131-1.563-0.789-2.758
			c0.136-0.476,0.385-0.939,0.569-1.406c0.183-0.467,0.364-0.925,0.439-1.426c-1.547,2.015-3.105,3.994-4.631,6.033
			c-0.751,1.004-1.375,2.066-2.129,3.106c-0.297,0.409-0.805,0.848-1.181,1.214c0.299-1.654,0.878-3.278,1.662-4.739
			c0.784-1.461,1.678-2.689,2.483-4.111c-1.113,0.873-2.136,1.481-2.905,2.743c-0.18,0.295-0.698,0.66-1.029,0.854
			c-0.201-0.626-0.376-1.272-0.564-1.906c-1.269,0.836-2.442,1.313-3.974,1.349c-0.013-0.401-0.031-0.804-0.039-1.204
			c2.157-0.594,4.077-1.617,5.958-2.796c3.54-2.219,6.869-4.624,10.051-7.318c2.638-2.233,5.119-4.617,7.6-7.019
			c1.442-1.396,2.755-2.903,4.114-4.382c0.432-0.47,0.649-0.971,0.82-1.602c0.401-1.482,0.85-2.996,1.326-4.473
			c0.138-0.43,0.286-0.874,0.366-1.322c-1.322,2.846-2.83,5.443-4.846,7.857c0.398-0.783,0.794-1.562,1.193-2.347
			c-0.34-0.172-0.574-0.477-0.981-0.499c-0.407-0.022-0.614,0.1-0.694-0.401c-0.677,0.923-1.336,1.813-2.01,2.743
			c-0.353,0.487-0.639,0.96-1.033,1.467c-0.242,0.311-0.419,0.535-0.906,0.661c-0.261,0.068-0.558,0.482-0.793,0.736
			c-0.366,0.395-0.868,0.819-1.26,1.215c-0.071-0.047-0.131-0.102-0.197-0.152c0.317-0.727,0.633-1.455,0.95-2.182
			c-0.215-0.198-0.432-0.391-0.646-0.592c-0.466,1.123-0.955,2.179-1.434,3.309c-0.479,1.13-0.848,2.209-1.84,3.016
			c0.06-0.646,0.118-1.297,0.175-1.945c-0.276,0.207-0.551,0.414-0.827,0.621c0.081-0.912,0.161-1.824,0.242-2.735
			c-1.664,2.097-3.081,4.294-5.17,6.006c0.898-1.488,1.8-2.972,2.698-4.461c-0.041-0.003-0.069-0.098-0.11-0.075
			c-0.435,0.237-0.848,0.507-1.275,0.756c-0.047-0.06-0.093-0.12-0.14-0.18c0.959-1.389,1.921-2.778,2.882-4.165
			c-0.637-0.295-0.981,0.417-1.552-0.13c0.33-0.702,0.66-1.404,0.991-2.105c-0.395,0.313-0.789,0.626-1.183,0.939
			c-0.208-0.184-0.411-0.375-0.623-0.554c-0.135,0.057-0.36,0.184-0.424,0.3c-0.571,1.028-1.517,1.629-2.154,2.592
			c-0.052,0.079-0.18,0.175-0.261,0.188c-1.183,0.178-1.851,0.859-2.737,1.591c-0.386,0.319-0.49,0.835-0.9,1.154
			c-0.411,0.32-1.01,0.383-1.5,0.557c-0.355-0.267-0.701-0.533-1.052-0.799c2.229-1.551,4.462-3.102,6.688-4.655
			c0.162-0.113,0.318-0.233,0.485-0.327c1.178-0.666,2.13-1.492,2.918-2.574c0.169-0.232,0.45-0.519,0.665-0.55
			c0.669-0.097,1.061-0.404,1.495-0.807c2.265-2.098,4.414-4.229,6.542-6.439c1.007-1.046,2.08-2.018,3.024-3.121
			c1.359-1.59,2.64-3.255,3.921-4.905c0.751-0.968,1.566-1.899,2.25-2.905c1.653-2.431,2.814-5.044,4.144-7.675
			c0.065-0.13,0.12-0.472,0.147-0.64c-0.751,0.802-1.518,1.652-2.246,2.469c-0.398,0.447-0.746,0.657-1.325,0.76
			c0.168-1.028,0.666-1.862,0.458-2.922c-1.366,1.849-2.725,3.708-4.086,5.556c-0.151-0.733,0.172-1.336,0.462-1.957
			c0.29-0.621,0.502-1.115,0.705-1.742c-1.289,0.961-2.579,1.906-3.864,2.866c-0.054-0.069-0.108-0.137-0.162-0.205
			c1.495-1.485,2.995-2.964,4.499-4.44c-0.297-0.059-0.594-0.119-0.89-0.177c1.163-1.341,2.37-2.643,3.498-4.014
			c0.752-0.914,1.463-1.817,2.109-2.823c0.545-0.849,0.748-1.686,0.629-2.712c-0.07-0.601-0.202-1.268-0.327-1.871
			c-0.371,0.841-0.733,1.689-1.102,2.533c0.014-0.016,0.031-0.024,0.042-0.046c-0.59-0.076-0.731-0.527-0.617-1.032
			c0.293-1.286,0.627-2.359,1.048-3.624c0.187-0.56,0.33-1.08,0.899-1.518c0.154-0.118,0.256-0.833,0.215-1.079
			c0.637,0.522,1.019,1.018,1.255,1.831c0.543,1.868,1.331,3.315,2.76,4.69c0.218,0.21,0.547,0.524,0.768,0.763
			c-0.99-0.323-1.791-0.905-2.632-1.503c0.141,1.043,0.546,2.012,1.203,2.803c0.657,0.791,1.264,1.479,1.914,2.227
			c0.426,0.491,0.843,0.953,1.323,1.375c1.469,1.292,2.948,2.491,4.439,3.785c0.155,0.134,0.353,0.469,0.48,0.658
			c-0.524-0.04-1.055-0.099-1.582-0.146c0.501,0.464,1.008,0.922,1.512,1.382c-1.649-0.61-2.898-1.65-4.259-2.734
			c0.448,0.833,0.895,1.667,1.341,2.501c-0.05,0.045-0.1,0.091-0.15,0.136c-0.299-0.321-0.603-0.642-0.902-0.962
			c-0.299-0.32-0.592-0.636-0.889-0.959c-0.252,0.342-0.549,0.586-0.768,0.981c-0.016,0.029,0.12,0.358,0.138,0.427
			c-0.417-0.058-0.833-0.159-1.254-0.23c1.304,1.965,2.619,3.896,4.167,5.682c1.549,1.786,3.405,2.997,5.46,4.133
			c-0.367-0.002-0.742,0.003-1.112,0.005c0.466,0.379,0.938,0.762,1.402,1.136c0.009,0.007-0.021-0.034-0.014-0.026
			c0.392,0.454,0.802,0.915,1.188,1.376c-0.546-0.242-1.266-0.429-1.811-0.547c-0.717-0.156-0.888-0.756-1.613-0.799
			c0.98,0.988,1.944,1.984,2.919,2.973c-0.931-0.184-1.663-0.624-2.411-1.184c-0.747-0.56-1.38-1.205-2.058-1.837
			c0.523,1.544,1.301,2.834,2.303,4.115c-0.07,0.022-0.088,0.193-0.171,0.174c-0.339-0.076-0.7-0.135-0.987-0.332
			c-1.941-1.33-3.607-2.683-5.031-4.591c-0.207-0.278-0.643-0.459-1.004-0.497c0.189,0.534,0.392,1.074,0.59,1.61
			c-0.334-0.168-0.669-0.336-1.003-0.504c1.118,1.793,2.497,3.298,3.984,4.789c0.281-0.25,0.562-0.499,0.844-0.749
			c0.689,0.839,0.738,1.764,0.943,2.792c-1.297-0.967-2.569-1.897-3.887-2.881c1.354,2.276,2.736,3.115,4.973,4.902
			c1.136,0.908,3.52,2.841,4.88,3.904c-0.259,0.174-0.63,0.186-0.937,0.288c0.565,0.525,1.132,1.045,1.699,1.576
			c-0.541,0.23-0.858,0.426-1.441,0.125c-1.548-0.799-2.863-1.946-4.174-3.103c-0.645-0.57-1.217-1.201-1.853-1.79
			c-0.18-0.167-0.442-0.254-0.682-0.315c1.886,2.274,3.96,4.358,6.035,6.458c-0.187-0.078-0.402-0.122-0.567-0.239
			c-1.253-0.888-2.462-1.798-3.688-2.728c-0.385-0.292-0.761-0.407-1.244-0.3c0.343,0.337,0.691,0.673,1.035,1.01
			c-0.037,0.065-0.074,0.129-0.111,0.193c-0.602-0.27-1.202-0.543-1.806-0.811c0.003,0.043-0.102,0.084-0.07,0.125
			c0.352,0.455,0.709,0.907,1.099,1.33c1.063,1.152,2.15,2.279,3.227,3.418c0.077,0.081,0.155,0.161,0.214,0.254
			c0.845,1.344,1.901,2.3,3.1,3.352c0.577,0.507,1.126,1.215,1.645,1.802c-0.181-0.072-0.477-0.141-0.625-0.246
			c-0.89-0.635-1.359-1.256-2.503-1.484c-0.334-0.067-0.654-0.551-1.036-0.737c-0.889-0.434-1.946-0.738-2.916-1.012
			c0.306,0.352,0.571,0.822,0.971,1.071c2.431,1.509,4.872,2.961,7.378,4.324c1.237,0.673,2.467,1.29,3.553,2.187
			c0.111,0.092,0.28,0.168,0.377,0.218c0.872,0.457,1.49,0.979,2.126,1.717c-0.706,0.411-0.932,0.519-1.727,0.091
			c-0.795-0.428-1.771-0.987-2.619-1.432c-0.111-0.059-0.284-0.088-0.413-0.063c2.598,1.984,5.316,3.767,8.11,5.465
			c0.025-0.178,0.049-0.356,0.074-0.535c0.576,0.256,0.57,0.713,0.625,1.282c-4.408-1.781-8.309-4.027-12.008-7.017
			c-0.066,0.072-0.132,0.145-0.199,0.216c0.343,0.395,0.677,0.77,1.015,1.174c0.339,0.404,0.628,0.823,0.994,1.221
			c0.575,0.626,1.133,1.128,1.729,1.795c0.596,0.667,1.216,1.493,1.851,2.19c0.507,0.557,1.105,1.093,1.656,1.622
			c0.332,0.319,0.682,0.641,1.018,0.958c-0.047,0.064-0.095,0.127-0.144,0.191c-0.982-0.581-1.989-1.13-2.965-1.719
			c-1.779-1.072-3.447-2.279-5.122-3.503c-0.205-0.15-0.474-0.205-0.665-0.375c-0.792-0.705-1.522-1.473-2.293-2.2
			c0.348,0.704,0.751,1.352,1.231,1.978c0.268,0.35,0.571,0.512,1.011,0.532c-0.277,0.241-0.291,0.431-0.052,0.722
			c0.994,1.205,1.873,2.393,2.951,3.564c1.078,1.171,2.339,2.308,3.51,3.434c0.159,0.153,0.347,0.346,0.409,0.574
			c-0.174-0.053-0.385-0.073-0.539-0.175c-1.224-0.818-2.396-1.655-3.61-2.495c-0.618-0.428-1.281-0.842-1.974-1.155
			c0.221,0.49,0.453,0.982,0.67,1.472c-0.463-0.313-1.037-0.655-1.47-0.977c-1.46-1.088-2.686-2.21-3.777-3.653
			c-0.223-0.294-0.476-0.564-0.752-0.815c-0.78-0.707-1.543-1.409-2.347-2.098c-0.231-0.198-0.543-0.316-0.838-0.404
			c0.448,1.187,1.121,2.23,1.79,3.299c0.221,0.353,0.406,0.71,0.616,1.067c-0.314-0.183-0.607-0.399-0.93-0.564
			c-0.05-0.026-0.063,0.104-0.105,0.113c0.3,0.293,0.659,0.533,0.939,0.844c0.117,0.129,0.094,0.354,0.209,0.472
			c1.781,1.837,3.616,3.535,5.63,5.115c1.473,1.156,2.841,2.392,4.231,3.671c1.39,1.279,2.981,2.333,4.533,3.434
			c1.34,0.951,2.721,1.828,4.174,2.622c2.507,1.37,4.967,2.716,7.67,3.716c1.634,0.605,3.174,1.387,4.649,2.357
			c0.866,0.57,1.814,1.022,2.763,1.466c1.836,0.859,3.683,1.668,5.541,2.529c0.129,0.06,0.335,0.286,0.441,0.403
			c-0.263-0.051-0.619-0.138-0.872-0.184c-1.157-0.212-2.21-0.357-3.21-0.987c-0.434-0.273-0.798-0.661-1.235-0.921
			c-0.438-0.26-0.836-0.475-1.311-0.672c-0.475-0.197-1.01-0.346-1.505-0.512c0.171,0.202,0.346,0.402,0.518,0.604
			c-0.419,0.447-0.774,0.519-1.336,0.266c-0.386-0.174-0.78-0.347-1.18-0.494c-0.052,0.08-0.104,0.163-0.156,0.244
			c0.481,0.415,0.963,0.821,1.448,1.233c0.343,0.292,0.724,0.522,1.021,0.874c0.179,0.213,0.247,0.514,0.295,0.79
			c0.016,0.093-0.162,0.123-0.19,0.203c-0.641-0.262-1.27-0.541-1.913-0.795c-0.034-0.013-0.05,0.057-0.079,0.064
			c0.539,0.493,1.124,1.009,1.655,1.492c0.53,0.483,1.006,0.866,1.504,1.388c0.243,0.255,0.432,0.672,0.615,0.986
			c-0.692-0.031-1.397-0.22-1.945-0.619c-1.011-0.735-1.871-1.458-2.885-2.183c-0.234-0.167-0.625-0.319-0.904-0.445
			c0.029,0.311,0.123,0.651,0.134,0.956c0.004,0.112-0.156,0.095-0.197,0.071c-2.095-1.244-4.044-2.642-5.918-4.179
			c-0.2-0.164-0.408-0.369-0.513-0.569c-0.564-1.068-1.415-1.527-2.371-2.177c-0.057,0.057-0.116,0.107-0.175,0.163
			c0.639,0.793,1.224,1.636,1.927,2.375c1.733,1.824,3.508,3.557,5.255,5.385c0.332,0.347,0.642,0.852,0.93,1.25
			c-0.373,0.025-0.807-0.116-1.101-0.311c-1.796-1.19-3.34-2.433-4.755-4.051c-0.515-0.588-0.957-1.202-1.615-1.695
			s-1.5-0.875-2.234-1.276c0.997,1.338,2.002,2.677,3,4.016c-0.318,0.155-0.636,0.309-0.954,0.464
			c0.527,0.771,0.998,1.309,0.848,2.29c-0.935-0.116-1.826-0.249-2.638-0.758c-1.162-0.729-2.192-1.569-3.091-2.604
			c-1.429-1.646-2.747-3.357-4.163-5.025c-0.139-0.164-0.36-0.311-0.589-0.337c0.462,0.709,0.929,1.421,1.393,2.131
			c-0.334,0.128-0.668,0.257-1.002,0.384c-1.438-0.598-2.459-1.487-3.441-2.675c-0.551-0.666-1.195-1.192-1.821-1.779
			c-0.072,0.053-0.148,0.102-0.22,0.154c0.449,0.87,0.942,1.736,1.357,2.619c0.416,0.883,0.754,1.778,1.132,2.674
			c-0.07,0.039-0.139,0.076-0.206,0.118c-0.618-0.923-1.204-1.819-1.835-2.744c-0.631-0.925-1.31-1.877-1.947-2.808
			c-0.186-0.611-0.528-1.073-0.922-1.565c-0.064,0.045-0.13,0.09-0.192,0.135C129.608,377.935,130.02,378.389,130.309,378.921z
			 M96.734,404.724c-0.359-0.258-0.439-0.496-0.534-0.93c-0.095-0.434-0.16-0.852-0.466-1.235c-0.306-0.383-0.814-0.674-1.212-0.978
			c-0.16,0.332-0.329,0.668-0.483,1c-1,2.154-1.908,4.268-3.298,6.216c-0.261,0.366-0.415,0.857-0.579,1.279
			c-0.363-0.15-0.383-0.487-0.366-0.821c0.124-2.486,0.321-4.876,0.942-7.28c0.285-1.105,0.644-2.183,0.927-3.287
			c-0.405,0.262-0.845,0.52-1.232,0.802c-0.225,0.164-0.477,0.361-0.569,0.608c-0.713,1.921-1.337,3.84-2.028,5.758
			c-0.286,0.792-0.621,1.562-0.933,2.344c-0.088-0.031-0.175-0.062-0.262-0.093c0.512-3.445,1.251-6.793,2.325-10.107
			c-2.8,5.63-4.536,11.332-5.718,17.496c0.107-0.031,0.299-0.073,0.38-0.134c1.555-1.171,3.075-2.34,4.604-3.529
			c0.686-0.534,1.32-1.132,1.998-1.678c0.11-0.088,0.278-0.097,0.385-0.187c2.046-1.748,4.051-3.521,6.1-5.268
			c1.103-0.941,2.27-1.835,3.386-2.765c-0.365-0.351-0.733-0.702-1.099-1.053c-0.301,0.357-0.602,0.715-0.903,1.072
			c-0.023-0.396-0.046-0.792-0.07-1.188C97.356,402.026,97.024,403.333,96.734,404.724z M108.643,352.313
			c-0.431,0.431-0.954,0.796-1.329,1.276c-0.375,0.479-0.475,1.022-1.049,1.314c-0.259-0.243-0.524-0.488-0.785-0.732
			c-1.885,1.689-3.155,3.618-4.286,5.868c2.659-2.354,5.344-4.65,8.201-6.763C109.144,352.954,108.896,352.634,108.643,352.313z
			 M132.55,423.012c-0.832-2.697-1.927-5.072-3.856-7.161c0.42,1.137,1.13,2.107,1.362,3.309c-0.427-0.459-0.949-0.958-1.316-1.442
			c-0.366-0.484-0.573-0.979-0.888-1.456c-0.315-0.477-0.641-0.889-0.973-1.344C128.292,418.034,130.094,420.629,132.55,423.012z
			 M120.124,339.559c-0.035,0.012-0.068,0.025-0.106,0.042c0.327,0.772,0.499,1.619,0.995,2.304c0.702,0.969,1.52,1.7,2.404,2.534
			c0.384,0.363,0.918,0.698,1.48,0.76c-0.104-0.165-0.236-0.409-0.355-0.554c-0.345-0.424-0.688-0.791-0.928-1.266
			c-0.241-0.475-0.777-0.413-1.095-0.795C121.701,341.6,120.948,340.545,120.124,339.559z M101.859,423.417
			c-0.078-0.022-0.156-0.044-0.234-0.066c-0.712,1.441-1.419,2.883-2.135,4.322C101.186,426.558,101.57,425.366,101.859,423.417z
			 M111.789,418.033c-0.205-0.535-0.407-1.062-0.614-1.6c-0.289,0.654-0.985,0.695-1.272,1.372c-0.218,0.515-0.325,1.24-0.539,1.788
			C110.177,419.083,110.98,418.552,111.789,418.033z M130.868,371.682c1.048,2.084,2.168,3.985,3.86,5.613
			C133.682,375.234,132.403,373.408,130.868,371.682z M105.471,409.735c-0.078-0.016-0.15-0.036-0.225-0.053
			c-0.471,1.281-0.942,2.562-1.411,3.844c0.07,0.042,0.134,0.087,0.209,0.126c0.312-0.37,0.779-0.705,0.927-1.172
			C105.261,411.567,105.305,410.661,105.471,409.735z M106.986,377.808c0.976-0.988,1.336-2.113,1.696-3.426
			C107.537,375.22,107.332,376.507,106.986,377.808z M120.898,334.337c0.581,1.362,1.24,2.556,2.271,3.63
			C122.567,336.601,121.972,335.396,120.898,334.337z M98.589,358.512c0.649-1.044,1.302-2.085,1.955-3.127
			C99.307,356.189,98.934,357.117,98.589,358.512z M141.375,420.992c0.22,1.487,0.58,2.453,1.976,3.151
			C142.695,423.091,142.035,422.041,141.375,420.992z M106.324,421.947c-1.288,0.181-1.894,0.547-2.041,1.891
			C104.962,423.207,105.646,422.581,106.324,421.947z M128.329,375.44c-0.252-1.143-0.575-2.057-1.517-2.801
			C127.317,373.573,127.823,374.507,128.329,375.44z M109,408.418c0.731-0.649,0.95-1.258,0.655-2.203
			C109.439,406.95,109.222,407.685,109,408.418z M147.693,404.099c-0.08,0.082-0.161,0.163-0.241,0.245
			c0.492,0.574,0.889,1.134,1.589,1.466C148.592,405.238,148.143,404.668,147.693,404.099z M119.568,312.479
			c0.159,0.761,0.361,0.978,1.087,0.587C120.292,312.871,119.93,312.675,119.568,312.479z M111.784,388.586
			c-0.151,0.532-0.302,1.064-0.452,1.596C111.921,389.701,112.052,389.306,111.784,388.586z M100.717,415.978
			c0.005-0.02-0.244-0.466-0.285-0.541c-0.179,0.446-0.322,0.934-0.485,1.396c0.082,0.057,0.162,0.108,0.245,0.168
			C100.359,416.642,100.607,416.403,100.717,415.978z M94.757,344.07c0.061,0.062,0.121,0.124,0.182,0.185
			c0.426-0.494,0.852-0.988,1.278-1.482c-0.062-0.053-0.125-0.105-0.188-0.158C95.606,343.1,95.181,343.585,94.757,344.07z
			 M149.863,379.825c-0.089,0.086-0.177,0.173-0.265,0.259c0.369,0.309,0.739,0.618,1.108,0.927
			c0.068-0.079,0.135-0.159,0.203-0.238C150.56,380.457,150.212,380.141,149.863,379.825z M96.595,419.762
			c0.085,0.044,0.169,0.089,0.254,0.133c0.146-0.315,0.292-0.63,0.438-0.944c-0.069-0.034-0.137-0.067-0.206-0.101
			C96.919,419.154,96.756,419.458,96.595,419.762z M125.159,331.647c0.313,0.292,0.626,0.584,0.938,0.878
			C126.024,331.888,125.806,331.661,125.159,331.647z M105.128,350.915c0.063,0.048,0.126,0.097,0.189,0.146
			c0.241-0.316,0.484-0.63,0.726-0.945c-0.061-0.046-0.121-0.093-0.181-0.139C105.617,350.289,105.371,350.601,105.128,350.915z
			 M155.674,384.652c-0.102-0.069-0.206,0.05-0.126,0.144c0.08,0.094,0.413,0.361,0.569,0.47c0.029,0.02,0.109-0.075,0.086-0.101
			C156.076,385.024,155.776,384.721,155.674,384.652z M130.607,371.49c0.071-0.048,0.142-0.096,0.213-0.144
			c-0.173-0.26-0.346-0.519-0.519-0.779c-0.066,0.044-0.132,0.089-0.197,0.133C130.271,370.964,130.439,371.227,130.607,371.49z
			 M158.765,426.987c0.096,0.049,0.187-0.119,0.157-0.147c-0.151-0.137-0.449-0.351-0.651-0.46c-0.055-0.03-0.191,0.089-0.105,0.177
			C158.251,426.645,158.669,426.938,158.765,426.987z"/>
		<path d="M113.747,305.99c0.311-0.278,0.643-0.583,0.962-0.863c0.021,0.706-0.241,1.372-0.672,1.9
			c-1.504,1.845-3.034,3.573-4.611,5.335c0.156-0.567,0.062-1.134,0.107-1.707c0.064-0.828,0.672-1.143,1.286-1.59
			c0.05,0.298,0.09,0.597,0.135,0.895c1.116-1.245,2.11-2.489,2.83-4.004C113.788,305.951,113.733,306.003,113.747,305.99z"/>
		<path d="M136.823,384.969c0.409,0.067,0.878,0.113,1.278,0.152s0.608,0.184,0.792,0.52c0.328,0.599,0.649,1.197,0.984,1.787
			c0.231,0.407,0.135,0.687-0.177,1.006C138.117,387.719,137.578,386.446,136.823,384.969z"/>
		<path d="M109.007,434.571c-0.821-1.629-0.294-2.634,1.016-3.772c0.173,0.462,0.389,0.88,0.512,1.368
			c0.049,0.194-0.018,0.436-0.139,0.607C109.956,433.39,109.472,433.974,109.007,434.571z"/>
		<path d="M109.023,454.471c-0.94-0.253-1.879-0.525-2.819-0.785c-0.315,0.266-0.633,0.543-0.946,0.804
			c0.028-0.585,0.111-1.404,0.802-1.475c0.691-0.071,1.211,0.335,1.854,0.462c-0.141-0.475-0.27-0.966-0.405-1.448
			c0.987-0.03,1.311,0.686,2.025,1.232c-0.385,0.131-0.77,0.262-1.155,0.392c0.306,0.154,0.616,0.302,0.918,0.461
			c-0.072,0.086-0.237,0.3-0.288,0.358C108.956,454.53,109.036,454.474,109.023,454.471z"/>
		<path d="M141.837,411.827c-1.119-1.818-2.197-3.634-3.294-5.479c1.258,0.634,1.629,1.201,2.416,2.501
			c0.361,0.597,1.107,1.921,1.167,2.783C142.055,411.741,141.932,411.756,141.837,411.827z"/>
		<path d="M85.207,432.267c0.753-0.608,0.968-1.516,1.574-2.24c0.476,0.139,0.95,0.277,1.425,0.425
			c-0.514,0.602-1.004,1.309-1.554,1.861C86.103,432.863,85.772,432.637,85.207,432.267z"/>
		<path d="M130.653,453.295c-0.006-0.217-0.075-0.555,0.052-0.731c0.425-0.586,0.932-1.052,1.396-1.578
			c0.051-0.058,0.117-0.135,0.168-0.147c1.014-0.222,1.644-0.856,2.455-1.439c-0.133,0.198-0.247,0.418-0.397,0.602
			c-0.638,0.778-1.288,1.576-1.921,2.345c-0.276,0.336-0.478,0.363-0.836,0.158c-0.226,0.252-0.409,0.543-0.654,0.781
			C130.85,453.352,130.734,453.27,130.653,453.295z"/>
		<path d="M159.848,384.565c1.173,0.214,2.054,0.832,3.049,1.451c-0.411,0.236-0.787,0.558-1.277,0.338
			C160.764,385.971,160.265,385.391,159.848,384.565z"/>
		<path d="M129.936,326.655c-0.029-0.014,0.004,0.03,0.012,0.024c0.17-0.133,0.108-0.35,0.111-0.543
			c1.158-0.102,1.756,0.196,2.424,1.143c-0.565,0.304-0.964,0.32-1.509-0.043C130.648,327.021,130.289,326.826,129.936,326.655z"/>
		<path d="M85.747,351.007c0.698-1.069,1.608-1.586,2.744-2.114C88.221,350.311,86.948,350.556,85.747,351.007z"/>
		<path d="M94.929,380.694c-0.28-1.277,0.388-1.947,1.381-2.651c0.037,0.555-0.273,0.818-0.559,1.261
			C95.467,379.746,95.21,380.241,94.929,380.694z"/>
		<path d="M110.185,446.512c-0.958-1.217-1.915-2.435-2.873-3.652C108.575,443.914,109.53,444.99,110.185,446.512z"/>
		<path d="M135.739,450.44c-0.013,0.297-0.025,0.594-0.037,0.891c-0.176-0.046-0.352-0.092-0.527-0.139
			c-0.401,0.564-0.293,1.191-0.917,1.596c-0.12-0.266-0.239-0.531-0.359-0.797C134.512,451.474,135.126,450.957,135.739,450.44z"/>
		<path d="M168.327,386.601c0.5,1.13-0.464,1.345-1.369,1.694C167.414,387.73,167.87,387.165,168.327,386.601z"/>
		<path d="M67.394,408.662c0.343-0.467,0.686-0.935,1.029-1.402c0.154,0.31,0.309,0.62,0.463,0.93
			C68.459,408.771,68.078,408.902,67.394,408.662z"/>
		<path d="M90.712,346.154c0.434,0.337,0.868,0.674,1.302,1.011c-0.287,0.266-0.575,0.533-0.862,0.799
			c-0.227-0.513-0.455-1.027-0.683-1.54C90.55,346.334,90.631,346.244,90.712,346.154z"/>
		<path d="M102.185,323.156c-0.169-1.123,0.664-1.501,1.511-2.028c-0.086,0.434-0.288,0.707-0.584,1.035
			C102.816,322.49,102.492,322.831,102.185,323.156z"/>
		<path d="M82.004,351.029c0.578-0.283,0.986-0.395,1.454,0.119c-0.358,0.445-0.663,0.594-1.229,0.648
			C82.153,351.541,82.078,351.285,82.004,351.029z"/>
		<path d="M133.837,347.706c-0.761-0.204-1.19-0.568-1.582-1.245C133.2,346.438,133.465,346.91,133.837,347.706z"/>
		<path d="M141.702,362.171c0.788-0.08,1.251-0.146,1.381,0.747c-0.494-0.164-0.988-0.328-1.482-0.492
			C141.635,362.341,141.668,362.256,141.702,362.171z"/>
		<path d="M127.93,317.593c-0.273-0.238-0.547-0.476-0.821-0.713c0.562-0.003,1.124-0.006,1.686-0.008
			C128.507,317.112,128.219,317.353,127.93,317.593z"/>
		<path d="M109.115,322.436c-0.247-0.018-0.584-0.022-0.806-0.073c-0.222-0.051-0.284-0.158-0.466-0.245
			c0.206-0.305,0.4-0.612,0.602-0.917C108.667,321.613,108.897,322.023,109.115,322.436z"/>
		<path d="M99.195,375.244c-0.179,0.837-0.804,1.273-1.366,1.867c-0.073-0.057-0.146-0.113-0.219-0.171
			c0.428-0.73,0.722-1.429,1.577-1.704C99.196,375.234,99.197,375.235,99.195,375.244z"/>
		<path d="M71.805,392.871c-0.221,0.448-0.441,0.895-0.662,1.343C71.047,393.572,71.334,393.264,71.805,392.871z"/>
		<path d="M141.457,430.739c0.324,0.181,0.641,0.367,0.959,0.554c-0.527,0.333-0.802,0.231-1.075-0.312
			C141.283,430.865,141.465,430.846,141.457,430.739z"/>
		<path d="M167.915,410.195c0.333,0.266,0.716,0.054,1.089-0.019c-0.067,0.427-0.311,0.49-0.669,0.66
			c-0.109-0.252-0.152-0.508-0.399-0.663C167.928,410.168,167.907,410.189,167.915,410.195z"/>
		<path d="M164.269,388.435c0.52,0.113,1.04,0.227,1.56,0.34C165.165,389.051,164.806,388.862,164.269,388.435z"/>
		<path d="M103.864,452.846c-0.323,0.136-0.646,0.271-0.97,0.406C103.112,452.771,103.371,452.696,103.864,452.846z"/>
		<path d="M89.024,351.444c-0.126,0.424-0.253,0.848-0.379,1.272C88.304,352.124,88.549,351.847,89.024,351.444z"/>
		<path d="M112.54,450.607c-0.146-0.128-0.41-0.222-0.52-0.368c-0.11-0.146-0.101-0.375-0.12-0.501
			c-0.019-0.126,0.135-0.035,0.157-0.117C112.223,449.952,112.385,450.277,112.54,450.607z"/>
		<path d="M158.109,416.887c0.153,0.063,0.545,0.156,0.643,0.222c0.098,0.066,0.069,0.163-0.048,0.176
			c-0.117,0.013-0.51-0.077-0.675-0.091C158.045,417.089,158.072,416.987,158.109,416.887z"/>
		<path d="M157.902,415.598c-0.082-0.06-0.336-0.363-0.381-0.45c-0.045-0.087,0.022-0.14,0.098-0.135
			c0.076,0.004,0.279,0.142,0.345,0.211c0.066,0.069,0.102,0.239,0.082,0.304C158.027,415.592,157.984,415.659,157.902,415.598z"/>
		<path d="M142.549,435.757c-0.085,0.018-0.464-0.011-0.542-0.034c-0.079-0.023-0.068-0.129,0.011-0.146
			c0.079-0.018,0.456-0.034,0.54-0.012C142.642,435.587,142.634,435.74,142.549,435.757z"/>
		<path d="M54.963,436.713c0.167,0.149,0.333,0.297,0.5,0.446C55.025,437.433,55.023,437.089,54.963,436.713z"/>
		<path d="M146.92,391.232c0.134,0.02,0.539,0.234,0.717,0.298c-0.03,0.093-0.071,0.18-0.124,0.262
			c-0.163-0.096-0.586-0.273-0.687-0.363C146.726,391.34,146.786,391.212,146.92,391.232z"/>
		<path d="M161.69,388.993c0.148,0.073,0.433,0.282,0.599,0.414c0.037,0.03-0.037,0.152-0.081,0.132
			c-0.192-0.085-0.505-0.241-0.637-0.338C161.52,389.164,161.634,388.965,161.69,388.993z"/>
		<path d="M135.569,341.311c-0.069-0.044-0.368-0.325-0.417-0.391s0.021-0.141,0.09-0.098c0.069,0.044,0.37,0.322,0.419,0.388
			C135.711,341.277,135.639,341.356,135.569,341.311z"/>
	</g>
</svg>