<?xml version="1.0" encoding="utf-8"?>
<svg version="1.1" xmlns="http://www.w3.org/2000/svg" xmlns:xlink="http://www.w3.org/1999/xlink" xml:space="preserve" viewBox="17 274 223 28">
<g>
		<g>
			<g>
				<path d="M124.482,297.08c5.862-5.786,14.774-5.557,22.451-6.162c8.577-0.676,17.156-1.328,25.745-1.824
					c17.16-0.993,34.352-1.325,51.512-0.154c1.194,0.082,1.189-1.777,0-1.858c-19.004-1.297-38.04-0.737-57.032,0.493
					c-9.034,0.585-18.086,1.195-27.101,2.036c-6.197,0.578-12.303,1.628-16.889,6.155
					C122.316,296.607,123.63,297.921,124.482,297.08L124.482,297.08z"/>
			</g>
			<g>
				<path d="M136.945,290.652c0.168-1.285,0.537-2.55,1.126-3.706c0.442-0.868,1.329-2.759,2.365-2.925
					c-0.301-0.08-0.603-0.159-0.904-0.239c0.176,0.162-1.467,2.705-1.66,2.992c-0.735,1.094-1.596,2.07-2.542,2.984
					c-0.861,0.833,0.454,2.146,1.314,1.314c1.058-1.023,7.001-7.638,3.903-8.796c-1.445-0.54-2.857,1.719-3.473,2.678
					c-1.115,1.736-1.721,3.665-1.988,5.699C134.932,291.835,136.792,291.823,136.945,290.652L136.945,290.652z"/>
			</g>
			<g>
				<path d="M152.724,289.17c0.563-1.12,1.178-2.214,1.922-3.225c0.415-0.564,0.869-1.099,1.361-1.598
					c0.285-0.289,1.324-0.866,0.752-1.089c-0.556-0.217-0.883,0.68-1.251,1.138c-0.409,0.509-0.831,1.008-1.265,1.496
					c-0.867,0.978-1.784,1.907-2.735,2.804c-0.872,0.822,0.444,2.135,1.314,1.314c1.546-1.458,2.989-3.013,4.305-4.683
					c0.694-0.881,2.146-2.565,0.952-3.668c-1.237-1.142-2.97,0.913-3.708,1.712c-1.332,1.442-2.372,3.113-3.251,4.861
					C150.583,289.298,152.186,290.24,152.724,289.17L152.724,289.17z"/>
			</g>
			<g>
				<path d="M167.778,288.003c0.598-1.515,1.457-2.904,2.538-4.123c0.279-0.314,3.077-3.082,3.286-2.824
					c-0.08-0.301-0.159-0.603-0.239-0.904c-0.123,0.727-1.281,1.656-1.76,2.192c-0.493,0.552-0.986,1.104-1.479,1.656
					c-1.017,1.139-1.982,2.497-3.332,3.251c-1.044,0.584-0.108,2.19,0.938,1.605c2.263-1.265,3.907-3.765,5.609-5.671
					c0.798-0.894,3.106-3.078,0.929-3.976c-1.598-0.659-3.801,1.819-4.746,2.794c-1.551,1.6-2.721,3.435-3.537,5.506
					C165.547,288.622,167.343,289.105,167.778,288.003L167.778,288.003z"/>
			</g>
			<g>
				<path d="M181.714,287.661c0.63-1.42,1.549-2.597,2.73-3.604c0.684-0.583,1.436-1.084,2.202-1.552
					c0.304-0.186,0.612-0.365,0.922-0.54c0.154-0.089,0.31-0.175,0.466-0.26c0.536-0.232,0.285-0.331-0.755-0.295
					c-0.491,0.199-1.107,1.054-1.553,1.383c-0.567,0.418-1.165,0.794-1.758,1.174c-1.194,0.763-2.363,1.537-3.418,2.488
					c-0.89,0.803,0.428,2.114,1.314,1.314c1.637-1.476,3.637-2.435,5.36-3.796c0.949-0.75,3.199-2.544,1.786-3.88
					c-1.24-1.173-3.679,0.998-4.64,1.688c-1.814,1.302-3.347,2.882-4.261,4.943C179.629,287.807,181.23,288.754,181.714,287.661
					L181.714,287.661z"/>
			</g>
			<g>
				<path d="M196.811,287.106c0.376-1.292,2.417-2.425,3.434-3.244c0.486-0.392,3.325-2.947,3.89-2.55
					c-0.154-0.268-0.307-0.535-0.46-0.802c0.03,0.948-3.514,2.374-4.216,2.807c-1.407,0.868-2.763,1.824-4.136,2.745
					c-0.988,0.663-0.059,2.274,0.938,1.605c2.235-1.5,4.498-2.862,6.801-4.244c1.041-0.625,3.548-2.224,2.105-3.644
					c-1.381-1.359-4.027,1.031-5.075,1.841c-1.706,1.319-4.44,2.816-5.074,4.992C194.683,287.762,196.476,288.254,196.811,287.106
					L196.811,287.106z"/>
			</g>
			<g>
				<path d="M212.085,287.796c1.099-1.259,2.26-2.455,3.515-3.56c0.706-0.622,2.962-2.947,4.094-2.56
					c-0.216-0.216-0.433-0.433-0.649-0.649c0.293,0.799-6.962,4.678-7.65,5.098c-1.018,0.624-0.086,2.232,0.938,1.605
					c2.263-1.385,4.665-2.659,6.803-4.232c0.891-0.656,2.684-2.147,1.462-3.375c-1.177-1.183-3.378,0.486-4.311,1.169
					c-2.04,1.492-3.857,3.291-5.516,5.19C209.987,287.379,211.297,288.699,212.085,287.796L212.085,287.796z"/>
			</g>
			<g>
				<path d="M143.05,291.18c1.276,1.491,2.783,2.83,4.557,3.701c0.963,0.473,3.046,1.576,4.054,0.751
					c2.809-2.301-5.768-5.306-7.044-5.687c-1.148-0.343-1.639,1.45-0.494,1.792c1.252,0.374,2.468,0.829,3.636,1.418
					c0.541,0.273,1.068,0.57,1.583,0.887c0.222,0.134,0.441,0.273,0.656,0.418c0.695-0.379,0.718-0.581,0.069-0.608
					c-0.367-0.274-1.086-0.362-1.522-0.576c-0.563-0.275-1.103-0.603-1.612-0.968c-0.966-0.693-1.798-1.542-2.569-2.443
					C143.585,288.956,142.276,290.275,143.05,291.18L143.05,291.18z"/>
			</g>
			<g>
				<path d="M158.518,289.825c0.825,1.286,1.934,2.262,3.232,3.057c1.267,0.776,2.803,1.717,4.312,1.794
					c0.503,0.026,0.927-0.447,0.929-0.929c0.006-1.432-1.358-2.176-2.452-2.86c-1.366-0.854-2.954-1.22-4.315-2.022
					c0.153,0.267,0.307,0.535,0.46,0.802c-0.005-0.059-0.01-0.117-0.015-0.176c-0.091,0.219-0.181,0.438-0.272,0.657
					c0.041-0.033,0.083-0.065,0.124-0.098c0.937-0.742-0.386-2.049-1.314-1.314c-1.139,0.901,0.183,1.845,1.026,2.145
					c0.9,0.32,1.77,0.697,2.605,1.162c0.468,0.26,2.297,1.132,2.295,1.705c0.31-0.31,0.619-0.62,0.929-0.929
					c-1.101-0.056-2.453-0.977-3.374-1.54c-1.027-0.628-1.911-1.371-2.565-2.39C159.48,287.883,157.87,288.814,158.518,289.825
					L158.518,289.825z"/>
			</g>
			<g>
				<path d="M173.531,289.037c1.09,1.602,2.805,2.551,4.418,3.557c1.014,0.633,3.236,2.603,4.33,1.146
					c0.998-1.33-0.576-2.866-1.543-3.601c-1.581-1.202-3.613-1.297-5.167-2.421c-0.97-0.702-1.899,0.91-0.938,1.605
					c0.786,0.569,1.656,0.793,2.567,1.086c0.65,0.209,1.266,0.449,1.848,0.81c0.614,0.382,1.021,0.855,1.691,1.068
					c1.137,0.361-0.744-0.619-0.939-0.737c-0.533-0.324-1.062-0.653-1.588-0.988c-1.101-0.7-2.324-1.361-3.074-2.463
					C174.467,287.116,172.856,288.044,173.531,289.037L173.531,289.037z"/>
			</g>
			<g>
				<path d="M188.922,288.458c1.537,1.634,3.55,2.687,5.5,3.749c1.15,0.626,3.219,2.062,4.366,0.63
					c2.445-3.053-6.663-5.388-8.068-5.919c0,0.597,0,1.195,0,1.792c0.088-0.012,0.175-0.024,0.263-0.037
					c1.179-0.164,0.677-1.955-0.494-1.792c-0.088,0.012-0.175,0.024-0.263,0.037c-1.008,0.14-0.746,1.51,0,1.792
					c1.238,0.468,2.477,0.935,3.715,1.403c0.663,0.25,1.367,0.464,2.004,0.779c0.296,0.147,1.793,0.954,0.781,0.424
					c-2.242-1.173-4.735-2.308-6.489-4.173C189.415,286.271,188.103,287.587,188.922,288.458L188.922,288.458z"/>
			</g>
			<g>
				<path d="M205.466,288.302c1.173,1.555,2.494,2.942,4.058,4.111c1.023,0.765,3.053,2.217,4.424,1.546
					c1.377-0.674,0.637-2.167-0.274-2.818c-2.096-1.498-4.206-2.942-6.224-4.549c-0.926-0.738-2.25,0.569-1.314,1.314
					c0.719,0.573,6.439,5.038,6.652,4.736c0.268-0.153,0.535-0.307,0.802-0.46c-1.357,0.157-2.729-1.02-3.696-1.831
					c-1.053-0.883-1.996-1.889-2.823-2.986C206.36,286.421,204.745,287.346,205.466,288.302L205.466,288.302z"/>
			</g>
			<g>
				<path d="M222.144,289.011c2.848,1.023,5.702,2.259,8.638,3.007c1.178,0.3,3.596,1.046,4.128-0.614
					c0.537-1.675-1.43-2.289-2.599-2.624c-2.922-0.838-5.929-1.393-8.936-1.813c-1.17-0.163-1.675,1.627-0.494,1.792
					c1.782,0.249,3.551,0.547,5.31,0.927c0.946,0.204,1.888,0.427,2.824,0.672c0.267,0.072,0.534,0.143,0.801,0.215
					c0.488,0.3,0.968,0.302,1.44,0.004c-0.051-0.057-2.382-0.461-2.71-0.557c-0.728-0.214-1.44-0.479-2.155-0.733
					c-1.921-0.681-3.836-1.379-5.754-2.068C221.511,286.814,221.025,288.609,222.144,289.011L222.144,289.011z"/>
			</g>
		</g>
		<g>
			<g>
				<path d="M133.618,295.766c-4.586-4.527-10.693-5.577-16.889-6.155c-9.015-0.841-18.066-1.451-27.101-2.036
					c-18.992-1.23-38.028-1.79-57.032-0.493c-1.187,0.081-1.196,1.94,0,1.858c17.16-1.171,34.352-0.839,51.512,0.154
					c8.589,0.497,17.168,1.148,25.745,1.824c7.67,0.605,16.592,0.378,22.451,6.162C133.156,297.921,134.47,296.608,133.618,295.766
					L133.618,295.766z"/>
			</g>
			<g>
				<path d="M121.699,290.652c-0.255-1.95-0.821-3.809-1.856-5.494c-0.617-1.003-2.107-3.442-3.605-2.883
					c-3.1,1.159,2.851,7.78,3.903,8.796c0.86,0.832,2.176-0.481,1.314-1.314c-0.946-0.914-1.807-1.89-2.542-2.984
					c-0.193-0.287-1.836-2.83-1.66-2.992c-0.301,0.08-0.603,0.159-0.904,0.239c1.007,0.161,1.941,2.078,2.365,2.925
					c0.583,1.163,0.957,2.417,1.126,3.706C119.994,291.821,121.854,291.836,121.699,290.652L121.699,290.652z"/>
			</g>
			<g>
				<path d="M105.667,288.232c-0.88-1.749-1.921-3.416-3.251-4.861c-0.766-0.832-2.446-2.823-3.708-1.712
					c-1.218,1.073,0.28,2.816,0.951,3.668c1.316,1.67,2.758,3.225,4.305,4.683c0.87,0.82,2.187-0.492,1.314-1.314
					c-0.951-0.897-1.868-1.825-2.735-2.804c-0.433-0.489-0.855-0.987-1.265-1.496c-0.368-0.458-0.695-1.354-1.251-1.138
					c-0.572,0.223,0.467,0.8,0.752,1.089c0.492,0.499,0.946,1.034,1.361,1.598c0.743,1.011,1.359,2.105,1.922,3.225
					C104.6,290.239,106.203,289.299,105.667,288.232L105.667,288.232z"/>
			</g>
			<g>
				<path d="M90.8,287.509c-0.815-2.067-1.986-3.91-3.537-5.506c-0.951-0.978-3.145-3.465-4.746-2.794
					c-2.174,0.912,0.124,3.074,0.929,3.976c1.695,1.898,3.356,4.412,5.61,5.671c1.045,0.584,1.983-1.02,0.938-1.605
					c-1.351-0.755-2.315-2.112-3.332-3.251c-0.493-0.552-0.986-1.104-1.479-1.656c-0.478-0.536-1.637-1.465-1.76-2.192
					c-0.08,0.301-0.159,0.603-0.239,0.904c0.212-0.262,3.039,2.546,3.286,2.824c1.082,1.218,1.941,2.607,2.538,4.123
					C89.442,289.103,91.24,288.624,90.8,287.509L90.8,287.509z"/>
			</g>
			<g>
				<path d="M76.676,286.723c-0.874-1.971-2.32-3.519-4.044-4.788c-0.967-0.711-3.593-3.038-4.857-1.843
					c-1.356,1.283,0.678,2.981,1.605,3.734c1.765,1.434,3.848,2.414,5.542,3.942c0.886,0.799,2.205-0.511,1.314-1.314
					c-0.996-0.898-2.092-1.639-3.219-2.361c-0.594-0.38-1.193-0.753-1.766-1.165c-0.486-0.349-1.217-1.315-1.744-1.519
					c-0.33,0.055-0.659,0.111-0.989,0.166c0.156,0.086,0.312,0.172,0.468,0.258c0.256,0.217,0.638,0.36,0.927,0.533
					c0.73,0.437,1.44,0.903,2.106,1.433c1.324,1.054,2.365,2.311,3.054,3.862C75.555,288.752,77.157,287.808,76.676,286.723
					L76.676,286.723z"/>
			</g>
			<g>
				<path d="M61.768,286.612c-0.632-2.168-3.37-3.675-5.074-4.992c-1.04-0.804-3.698-3.196-5.075-1.841
					c-1.438,1.415,1.06,3.016,2.105,3.644c2.302,1.382,4.567,2.745,6.801,4.244c0.996,0.668,1.927-0.941,0.938-1.605
					c-1.373-0.921-2.729-1.877-4.136-2.745c-0.731-0.451-4.246-1.857-4.216-2.807c-0.153,0.267-0.307,0.535-0.46,0.802
					c0.535-0.375,3.509,2.243,3.89,2.55c1.045,0.844,3.047,1.915,3.434,3.244C60.31,288.252,62.104,287.764,61.768,286.612
					L61.768,286.612z"/>
			</g>
			<g>
				<path d="M46.015,286.482c-1.603-1.836-3.351-3.554-5.299-5.024c-0.977-0.738-3.264-2.55-4.528-1.335
					c-1.168,1.123,0.413,2.577,1.243,3.213c2.174,1.666,4.689,2.966,7.022,4.394c1.023,0.626,1.958-0.981,0.938-1.605
					c-0.743-0.455-7.941-4.303-7.65-5.098c-0.216,0.216-0.433,0.433-0.649,0.649c1.131-0.387,3.387,1.938,4.094,2.56
					c1.255,1.105,2.415,2.301,3.515,3.56C45.489,288.698,46.799,287.379,46.015,286.482L46.015,286.482z"/>
			</g>
			<g>
				<path d="M112.421,289.866c-0.771,0.901-1.603,1.749-2.569,2.443c-0.446,0.32-0.916,0.608-1.404,0.86
					c-0.485,0.25-1.308,0.368-1.73,0.684c-0.65,0.026-0.627,0.229,0.069,0.608c0.145-0.094,0.29-0.188,0.435-0.282
					c0.582-0.152,1.256-0.745,1.804-1.023c1.167-0.59,2.384-1.044,3.636-1.418c1.143-0.341,0.656-2.136-0.494-1.792
					c-1.257,0.375-9.888,3.452-7.044,5.687c1.028,0.808,3.079-0.269,4.054-0.751c1.773-0.876,3.279-2.209,4.557-3.701
					C114.509,290.276,113.201,288.955,112.421,289.866L112.421,289.866z"/>
			</g>
			<g>
				<path d="M96.663,288.887c-0.654,1.019-1.538,1.762-2.565,2.39c-0.921,0.564-2.273,1.484-3.374,1.54
					c0.31,0.31,0.62,0.62,0.929,0.929c-0.002-0.57,1.845-1.455,2.295-1.705c0.836-0.464,1.707-0.837,2.605-1.162
					c0.83-0.301,2.176-1.235,1.026-2.145c-0.928-0.734-2.252,0.572-1.314,1.314c0.042,0.033,0.083,0.065,0.124,0.098
					c-0.091-0.219-0.182-0.438-0.272-0.657c-0.005,0.059-0.01,0.117-0.015,0.176c0.153-0.267,0.307-0.535,0.46-0.802
					c-1.361,0.802-2.949,1.171-4.315,2.022c-1.096,0.683-2.458,1.426-2.453,2.86c0.002,0.483,0.424,0.955,0.929,0.929
					c1.519-0.078,3.037-1.017,4.312-1.794c1.301-0.793,2.407-1.771,3.232-3.057C98.915,288.815,97.307,287.882,96.663,288.887
					L96.663,288.887z"/>
			</g>
			<g>
				<path d="M81.65,288.099c-0.705,1.035-1.815,1.659-2.848,2.32c-0.6,0.384-1.205,0.761-1.813,1.131
					c-0.195,0.118-2.076,1.099-0.939,0.737c1.165-0.37,2.083-1.405,3.333-1.814c0.977-0.319,1.927-0.539,2.772-1.15
					c0.96-0.695,0.033-2.308-0.938-1.605c-1.553,1.124-3.587,1.221-5.167,2.421c-0.97,0.736-2.544,2.272-1.543,3.601
					c1.095,1.454,3.329-0.521,4.33-1.146c1.613-1.006,3.328-1.956,4.419-3.557C83.929,288.045,82.32,287.115,81.65,288.099
					L81.65,288.099z"/>
			</g>
			<g>
				<path d="M66.549,287.144c-1.754,1.864-4.249,3.001-6.489,4.173c-0.877,0.459,0.154-0.083,0.545-0.302
					c0.602-0.337,1.285-0.541,1.93-0.785c1.341-0.507,2.683-1.013,4.024-1.52c0.746-0.282,1.01-1.651,0-1.792
					c-0.088-0.012-0.175-0.024-0.263-0.037c-1.17-0.163-1.675,1.628-0.494,1.792c0.088,0.012,0.175,0.024,0.263,0.037
					c0-0.597,0-1.195,0-1.792c-1.399,0.528-10.525,2.88-8.068,5.919c1.094,1.353,2.974,0.119,4.094-0.484
					c2.039-1.097,4.168-2.191,5.771-3.895C68.683,287.587,67.371,286.27,66.549,287.144L66.549,287.144z"/>
			</g>
			<g>
				<path d="M49.715,287.364c-0.827,1.097-1.77,2.103-2.823,2.986c-0.967,0.81-2.339,1.988-3.696,1.831
					c0.268,0.154,0.535,0.307,0.802,0.46c0.213,0.302,5.933-4.163,6.652-4.736c0.935-0.745-0.388-2.052-1.314-1.314
					c-2.018,1.607-4.131,3.048-6.224,4.549c-0.899,0.645-1.676,2.157-0.274,2.818c1.388,0.655,3.386-0.771,4.424-1.546
					c1.565-1.17,2.884-2.555,4.058-4.111C52.04,287.347,50.427,286.419,49.715,287.364L49.715,287.364z"/>
			</g>
			<g>
				<path d="M34.148,287.219c-0.824,0.296-10.407,3.979-10.619,3.358c0.151,0.443,9.393-1.68,10.376-1.817
					c1.18-0.165,0.678-1.956-0.494-1.792c-3.01,0.42-6.008,0.988-8.936,1.813c-1.181,0.333-3.127,0.951-2.599,2.624
					c0.526,1.664,2.971,0.906,4.128,0.614c2.935-0.741,5.792-1.984,8.638-3.007C35.759,288.609,35.277,286.813,34.148,287.219
					L34.148,287.219z"/>
			</g>
		</g>
	</g>
</svg>
