<?xml version="1.0" encoding="utf-8"?>
<svg version="1.1" xmlns="http://www.w3.org/2000/svg" xmlns:xlink="http://www.w3.org/1999/xlink" xml:space="preserve" viewBox="41 158 175 46">
<g>
		<g>
			<g>
				<path d="M48.963,199.289c-1.087,0-2.161-0.172-3.208-0.586c-0.477-0.189-0.711-0.728-0.522-1.205
					c0.188-0.477,0.731-0.713,1.206-0.523c2.79,1.104,5.968,0.038,9.254-1.251l32.19-12.638c9.11-3.575,19.436-7.63,30.022-7.773
					c2.053-0.016,4.722,0.082,7.063,1.216c2.543,1.236,4.251,3.599,4.351,6.024c0.061,1.47-0.565,2.986-1.675,4.055
					c-0.978,0.944-2.2,1.423-3.429,1.312c-0.512-0.04-0.894-0.486-0.854-0.998c0.04-0.51,0.492-0.877,0.999-0.853
					c0.695,0.047,1.403-0.23,1.995-0.799c0.722-0.695,1.145-1.708,1.107-2.641c-0.073-1.75-1.37-3.488-3.306-4.427
					c-1.988-0.966-4.378-1.058-6.225-1.031c-10.248,0.14-19.969,3.955-29.37,7.646l-32.19,12.638
					C53.945,198.407,51.421,199.289,48.963,199.289z"/>
			</g>
			<g>
				<path d="M59.903,195.003c1.456-2.928,2.154-5.885,3.224-8.953c1.303-3.738,3.587-7.027,5.804-10.267
					c-0.577-0.156-1.154-0.313-1.732-0.469c-0.274,3.648-0.475,7.488-1.499,11.014c-1.194,4.112-4.256,6.173-7.746,8.237
					c-1.029,0.608-0.095,2.215,0.938,1.605c3.206-1.896,6.422-3.935,7.966-7.481c1.749-4.017,1.876-9.074,2.199-13.375
					c0.074-0.991-1.256-1.165-1.732-0.469c-2.017,2.949-4.058,5.922-5.425,9.242c-1.367,3.32-1.987,6.728-3.603,9.978
					C57.768,195.132,59.37,196.075,59.903,195.003L59.903,195.003z"/>
			</g>
			<g>
				<path d="M76.714,189.483c5.905-6.162,6.686-15.46,13.332-21.329c-0.518-0.301-1.035-0.603-1.553-0.904
					c-0.875,3.799-1.414,7.972-3.347,11.405c-1.851,3.287-4.805,5.783-7.728,8.079c-0.94,0.738,0.384,2.045,1.314,1.314
					c3.057-2.401,6.066-5.039,8.018-8.455c2.05-3.586,2.62-7.879,3.534-11.849c0.213-0.926-0.857-1.519-1.553-0.904
					c-2.818,2.488-4.871,5.466-6.593,8.794c-2.127,4.11-3.49,9.144-6.739,12.534C74.572,189.032,75.884,190.348,76.714,189.483
					L76.714,189.483z"/>
			</g>
			<g>
				<path d="M97.733,180.954c2.716-2.673,3.722-6.478,6.25-9.337c2.815-3.184,6.221-5.757,10.12-7.449
					c-0.375-0.486-0.751-0.973-1.126-1.46c-4.454,5.699-7.45,13.549-14.736,16.196c-1.115,0.405-0.634,2.202,0.494,1.792
					c7.785-2.828,10.797-10.585,15.556-16.674c0.66-0.844-0.133-1.891-1.126-1.46c-3.734,1.62-6.944,4.024-9.761,6.952
					c-2.909,3.025-4.062,7.248-6.985,10.124C95.564,180.48,96.879,181.794,97.733,180.954L97.733,180.954z"/>
			</g>
			<g>
				<path d="M71.971,191.495c6.227-0.141,11.476,3.922,16.561,7.016c0.156-0.577,0.313-1.154,0.469-1.732
					c-5.975,0.291-13.493-0.937-17.416-5.919c-0.74-0.939-2.047,0.384-1.314,1.314c4.211,5.348,12.31,6.776,18.73,6.463
					c0.91-0.044,1.278-1.24,0.469-1.732c-5.409-3.291-10.883-7.419-17.499-7.27C70.777,189.663,70.772,191.522,71.971,191.495
					L71.971,191.495z"/>
			</g>
			<g>
				<path d="M92.976,183.465c7.086-0.428,11.478,4.43,16.907,8.106c0.156-0.577,0.313-1.154,0.469-1.732
					c-6.983,0.257-12.374-3.214-17.498-7.539c-0.908-0.767-2.23,0.541-1.314,1.314c5.487,4.632,11.329,8.359,18.812,8.084
					c0.948-0.035,1.229-1.217,0.469-1.732c-5.804-3.93-10.345-8.813-17.845-8.36C91.787,181.678,91.779,183.537,92.976,183.465
					L92.976,183.465z"/>
			</g>
		</g>
		<g>
			<g>
				<path d="M207.825,199.289c-2.459,0-4.982-0.882-7.409-1.833l-32.191-12.638c-9.4-3.692-19.12-7.507-29.368-7.646
					c-1.853-0.018-4.239,0.067-6.227,1.031c-1.935,0.938-3.232,2.677-3.305,4.427c-0.039,0.933,0.385,1.944,1.106,2.639
					c0.593,0.572,1.305,0.848,1.997,0.8c0.505-0.025,0.959,0.343,0.999,0.853c0.04,0.512-0.342,0.958-0.854,0.998
					c-1.226,0.111-2.452-0.368-3.431-1.312c-1.109-1.069-1.735-2.584-1.673-4.055c0.101-2.425,1.809-4.788,4.351-6.024
					c2.339-1.134,4.998-1.247,7.065-1.216c10.586,0.143,20.911,4.198,30.02,7.773l32.191,12.638
					c3.284,1.289,6.463,2.354,9.254,1.251c0.476-0.19,1.017,0.042,1.206,0.523c0.189,0.477-0.044,1.016-0.522,1.205
					C209.986,199.117,208.911,199.289,207.825,199.289z"/>
			</g>
			<g>
				<path d="M198.489,194.065c-1.616-3.25-2.236-6.658-3.603-9.978c-1.367-3.32-3.408-6.294-5.425-9.242
					c-0.476-0.695-1.806-0.524-1.732,0.469c0.32,4.266,0.433,9.4,2.199,13.375c1.571,3.536,4.748,5.578,7.966,7.481
					c1.032,0.61,1.968-0.996,0.938-1.605c-3.49-2.064-6.552-4.125-7.746-8.237c-1.024-3.526-1.225-7.366-1.499-11.014
					c-0.577,0.156-1.154,0.313-1.732,0.469c2.217,3.24,4.501,6.529,5.804,10.267c1.069,3.068,1.768,6.024,3.224,8.953
					C197.417,196.074,199.02,195.133,198.489,194.065L198.489,194.065z"/>
			</g>
			<g>
				<path d="M181.388,188.169c-3.24-3.381-4.617-8.436-6.739-12.534c-1.721-3.325-3.778-6.309-6.594-8.794
					c-0.695-0.614-1.767-0.023-1.553,0.904c0.916,3.975,1.483,8.261,3.534,11.849c1.952,3.415,4.963,6.055,8.018,8.455
					c0.93,0.731,2.254-0.576,1.314-1.314c-2.923-2.296-5.877-4.792-7.728-8.079c-1.933-3.433-2.472-7.606-3.347-11.405
					c-0.518,0.301-1.035,0.603-1.553,0.904c6.648,5.869,7.426,15.165,13.332,21.329
					C180.903,190.348,182.216,189.033,181.388,188.169L181.388,188.169z"/>
			</g>
			<g>
				<path d="M160.369,179.64c-2.927-2.88-4.083-7.094-6.985-10.124c-2.809-2.933-6.028-5.333-9.761-6.952
					c-0.987-0.428-1.79,0.61-1.126,1.46c4.759,6.09,7.77,13.845,15.556,16.674c1.126,0.409,1.611-1.386,0.494-1.792
					c-7.282-2.646-10.282-10.497-14.736-16.196c-0.375,0.487-0.751,0.973-1.126,1.46c3.91,1.697,7.279,4.278,10.12,7.449
					c2.553,2.849,3.528,6.659,6.25,9.337C159.908,181.793,161.223,180.48,160.369,179.64L160.369,179.64z"/>
			</g>
			<g>
				<path d="M184.817,189.636c-6.616-0.149-12.09,3.979-17.499,7.27c-0.808,0.491-0.442,1.687,0.469,1.732
					c6.421,0.313,14.518-1.114,18.73-6.463c0.732-0.929-0.574-2.254-1.314-1.314c-3.928,4.988-11.444,6.209-17.416,5.919
					c0.156,0.577,0.313,1.154,0.469,1.732c5.085-3.094,10.335-7.156,16.561-7.016C186.013,191.522,186.013,189.663,184.817,189.636
					L184.817,189.636z"/>
			</g>
			<g>
				<path d="M163.812,181.607c-7.504-0.454-12.04,4.43-17.845,8.36c-0.758,0.514-0.481,1.697,0.469,1.732
					c7.478,0.275,13.325-3.452,18.812-8.084c0.915-0.773-0.405-2.081-1.314-1.314c-5.124,4.326-10.505,7.797-17.497,7.539
					c0.156,0.577,0.313,1.154,0.469,1.732c5.429-3.676,9.82-8.535,16.907-8.106C165.006,183.537,165.002,181.678,163.812,181.607
					L163.812,181.607z"/>
			</g>
		</g>
	</g>
</svg>
