<?xml version="1.0" encoding="utf-8"?>
<svg version="1.1" xmlns="http://www.w3.org/2000/svg" xmlns:xlink="http://www.w3.org/1999/xlink" xml:space="preserve" viewBox="421 247 46 238">
<g>
		<g>
			<g>
				<path d="M444.447,478.436c-6.993-11.239-3.867-21.753-0.461-33.483c1.221-4.205,3.019-8.63,3.082-13.064
					c0.069-4.89-2.296-9.363-4.534-13.554c-0.67-1.255-2.578-0.14-1.908,1.115c3.724,6.974,4.835,12.438,2.608,20.167
					c-1.49,5.17-3.166,10.314-4.476,15.532c-2.138,8.518-0.863,16.938,3.781,24.402
					C443.289,480.756,445.201,479.648,444.447,478.436L444.447,478.436z"/>
			</g>
			<g>
				<path d="M444.089,442.128c0.097-2.868-0.724-5.598-2.541-7.844c-2.129-2.634-5.357-3.485-7.97-5.481
					c-0.911-0.696-2.044,0.627-1.511,1.511c1.357,2.256,3.127,3.907,5.318,5.339c1.51,0.986,3.073,1.904,3.64,3.738
					c0.473,1.531,0.48,3.04,1.149,4.53c0.581,1.295,2.486,0.173,1.908-1.115c-1.287-2.866-0.758-5.433-3.421-7.585
					c-2.485-2.009-4.969-3.167-6.686-6.021c-0.504,0.504-1.008,1.008-1.511,1.511c2.01,1.536,4.555,2.275,6.439,3.971
					c2.124,1.911,3.072,4.641,2.977,7.447C441.832,443.55,444.042,443.548,444.089,442.128L444.089,442.128z"/>
			</g>
			<g>
				<path d="M447.002,431.836c0.082-3.186,0.133-6.71,2.072-9.411c1.887-2.629,5.045-2.601,7.761-3.817
					c-0.446-0.578-0.893-1.157-1.339-1.735c-3.389,3.166-8.645,4.056-10.183,8.938c-0.428,1.359,1.704,1.941,2.13,0.587
					c1.282-4.07,6.71-5.249,9.615-7.963c0.981-0.916-0.264-2.216-1.339-1.735c-3.285,1.471-6.337,1.39-8.554,4.61
					c-2.12,3.079-2.281,6.918-2.373,10.526C444.756,433.258,446.965,433.258,447.002,431.836L447.002,431.836z"/>
			</g>
			<g>
				<path d="M440.964,455.334c1.487-2.705,3.193-5.911,6.471-6.661c2.772-0.634,5.616-0.506,8.409-1.261
					c-0.358-0.616-0.716-1.231-1.075-1.846c-3.833,3.794-10.318,1.875-14.075,5.714c-0.995,1.017,0.566,2.581,1.562,1.562
					c1.98-2.023,5.56-2.073,8.117-2.656c2.287-0.521,4.276-1.394,5.958-3.058c0.788-0.78-0.015-2.133-1.075-1.846
					c-3.274,0.885-7.252,0.379-10.294,1.967c-2.806,1.465-4.438,4.299-5.907,6.97C438.371,455.466,440.279,456.582,440.964,455.334
					L440.964,455.334z"/>
			</g>
			<g>
				<path d="M440.171,461.386c-0.199-2.854-0.704-5.405-3.119-7.204c-2.785-2.074-6.542-3.133-9.719-4.45
					c-1.059-0.439-1.809,1.127-1.075,1.846c1.754,1.719,3.733,3.09,6.015,4.022c1.629,0.665,3.019,0.894,4.114,2.465
					c0.971,1.393,1.479,3.091,1.73,4.747c0.213,1.401,2.342,0.806,2.13-0.587c-0.392-2.583-1.552-5.842-3.865-7.319
					c-1.269-0.81-2.822-1.089-4.17-1.737c-1.655-0.795-3.084-1.87-4.393-3.153c-0.358,0.616-0.717,1.231-1.075,1.846
					c2.514,1.042,5.142,1.967,7.554,3.229c2.692,1.41,3.457,3.341,3.663,6.294C438.06,462.797,440.27,462.808,440.171,461.386
					L440.171,461.386z"/>
			</g>
			<g>
				<path d="M442.498,418.747c-0.32-4.7-4.675-7.187-8.572-8.761c-1.064-0.43-1.807,1.122-1.075,1.846
					c1.156,1.144,2.33,2.248,3.704,3.129c1.596,1.022,2.563,2.515,3.696,4.01c0.848,1.119,2.767,0.019,1.908-1.115
					c-1.051-1.386-2.029-3.044-3.428-4.107c-1.504-1.143-2.963-2.137-4.318-3.479c-0.358,0.616-0.716,1.231-1.075,1.846
					c2.862,1.156,6.709,3.087,6.95,6.631C440.385,420.158,442.595,420.168,442.498,418.747L442.498,418.747z"/>
			</g>
		</g>
		<g>
			<g>
				<path d="M445.967,426.524c4.647-7.469,5.92-15.879,3.781-24.402c-1.23-4.899-2.797-9.731-4.2-14.583
					c-1.005-3.473-2.063-6.823-1.694-10.475c0.389-3.853,2.225-7.27,4.026-10.642c0.669-1.254-1.237-2.371-1.908-1.115
					c-2.108,3.947-4.24,8.015-4.482,12.573c-0.252,4.766,1.723,9.544,3.03,14.045c3.401,11.713,6.512,22.276-0.461,33.483
					C443.306,426.62,445.217,427.73,445.967,426.524L445.967,426.524z"/>
			</g>
			<g>
				<path d="M446.627,389.101c-0.095-2.806,0.849-5.536,2.977-7.447c1.886-1.694,4.428-2.435,6.439-3.971
					c-0.504-0.504-1.008-1.008-1.511-1.511c-1.712,2.846-4.214,4.007-6.686,6.021c-2.673,2.178-2.118,4.685-3.421,7.585
					c-0.578,1.286,1.326,2.411,1.908,1.115c0.609-1.356,0.697-2.671,1.059-4.096c0.537-2.114,2.009-3.048,3.729-4.171
					c2.196-1.434,3.958-3.078,5.318-5.339c0.532-0.885-0.6-2.208-1.511-1.511c-2.613,1.996-5.839,2.845-7.97,5.481
					c-1.815,2.245-2.637,4.977-2.541,7.845C444.465,390.519,446.675,390.526,446.627,389.101L446.627,389.101z"/>
			</g>
			<g>
				<path d="M443.714,378.81c-0.093-3.604-0.251-7.452-2.373-10.526c-2.224-3.221-5.248-3.129-8.554-4.61
					c-1.065-0.477-2.327,0.811-1.339,1.735c2.905,2.715,8.336,3.903,9.615,7.963c0.426,1.352,2.56,0.774,2.13-0.587
					c-1.537-4.88-6.794-5.772-10.183-8.938c-0.446,0.578-0.892,1.157-1.339,1.735c2.719,1.218,5.871,1.18,7.761,3.817
					c1.939,2.705,1.99,6.218,2.072,9.411C441.541,380.229,443.751,380.234,443.714,378.81L443.714,378.81z"/>
			</g>
			<g>
				<path d="M449.45,401.192c-1.47-2.674-3.104-5.501-5.907-6.971c-3.035-1.591-7.029-1.084-10.294-1.967
					c-1.059-0.286-1.863,1.066-1.075,1.846c1.681,1.664,3.665,2.536,5.958,3.058c2.577,0.586,6.131,0.626,8.117,2.656
					c0.996,1.018,2.558-0.545,1.562-1.562c-3.755-3.837-10.243-1.92-14.075-5.714c-0.358,0.615-0.717,1.231-1.075,1.846
					c2.793,0.755,5.637,0.627,8.409,1.261c3.278,0.75,4.985,3.956,6.471,6.661C448.227,403.554,450.136,402.44,449.45,401.192
					L449.45,401.192z"/>
			</g>
			<g>
				<path d="M450.545,408.36c0.206-2.953,0.956-4.877,3.663-6.293c2.413-1.263,5.039-2.187,7.554-3.229
					c-0.358-0.616-0.717-1.231-1.075-1.846c-1.212,1.188-2.533,2.213-4.05,2.986c-1.447,0.738-3.141,1.027-4.513,1.903
					c-2.31,1.475-3.475,4.747-3.865,7.319c-0.211,1.391,1.917,1.991,2.13,0.587c0.233-1.539,0.674-3.103,1.531-4.424
					c1.092-1.684,2.563-2.078,4.313-2.788c2.283-0.926,4.263-2.304,6.015-4.022c0.734-0.719-0.015-2.285-1.075-1.846
					c-3.168,1.313-6.944,2.383-9.719,4.45c-2.408,1.794-2.921,4.355-3.119,7.204C448.236,409.779,450.446,409.773,450.545,408.36
					L450.545,408.36z"/>
			</g>
			<g>
				<path d="M448.218,365.72c0.241-3.535,4.09-5.475,6.95-6.631c-0.358-0.615-0.717-1.231-1.075-1.846
					c-1.356,1.342-2.81,2.34-4.319,3.479c-1.401,1.058-2.378,2.723-3.428,4.107c-0.859,1.133,1.059,2.235,1.908,1.115
					c1.132-1.494,2.1-2.988,3.696-4.01c1.374-0.88,2.548-1.984,3.704-3.129c0.732-0.724-0.01-2.276-1.075-1.846
					c-3.898,1.575-8.252,4.059-8.572,8.761C445.912,367.139,448.122,367.133,448.218,365.72L448.218,365.72z"/>
			</g>
		</g>
		<g>
			<g>
				<path d="M443.995,373.023c-6.993-11.239-3.867-21.753-0.461-33.483c1.221-4.205,3.019-8.63,3.082-13.064
					c0.069-4.89-2.296-9.363-4.534-13.554c-0.67-1.255-2.578-0.14-1.908,1.115c3.724,6.975,4.835,12.438,2.608,20.167
					c-1.49,5.17-3.166,10.313-4.476,15.532c-2.138,8.519-0.863,16.938,3.781,24.402
					C442.837,375.343,444.749,374.235,443.995,373.023L443.995,373.023z"/>
			</g>
			<g>
				<path d="M443.638,336.715c0.097-2.868-0.724-5.598-2.541-7.845c-2.129-2.633-5.357-3.485-7.97-5.481
					c-0.911-0.696-2.044,0.627-1.511,1.511c1.357,2.256,3.127,3.907,5.318,5.339c1.509,0.987,3.073,1.904,3.639,3.738
					c0.473,1.531,0.48,3.04,1.149,4.529c0.581,1.295,2.486,0.173,1.908-1.115c-1.287-2.866-0.758-5.432-3.421-7.585
					c-2.485-2.009-4.969-3.167-6.686-6.021c-0.504,0.504-1.008,1.008-1.511,1.511c2.01,1.536,4.555,2.275,6.439,3.971
					c2.124,1.911,3.072,4.641,2.977,7.447C441.38,338.137,443.59,338.135,443.638,336.715L443.638,336.715z"/>
			</g>
			<g>
				<path d="M446.55,326.423c0.082-3.187,0.133-6.71,2.072-9.411c1.887-2.629,5.044-2.601,7.761-3.818
					c-0.446-0.578-0.893-1.157-1.339-1.735c-3.389,3.167-8.645,4.056-10.183,8.938c-0.428,1.359,1.704,1.941,2.13,0.587
					c1.282-4.07,6.71-5.249,9.615-7.963c0.981-0.916-0.264-2.216-1.339-1.735c-3.285,1.471-6.337,1.39-8.554,4.61
					c-2.12,3.079-2.281,6.919-2.373,10.526C444.304,327.846,446.514,327.845,446.55,326.423L446.55,326.423z"/>
			</g>
			<g>
				<path d="M440.513,349.921c1.487-2.705,3.193-5.911,6.472-6.661c2.772-0.634,5.616-0.506,8.409-1.261
					c-0.358-0.615-0.717-1.231-1.075-1.846c-3.833,3.794-10.318,1.875-14.075,5.714c-0.995,1.017,0.566,2.581,1.562,1.562
					c1.98-2.023,5.56-2.073,8.117-2.656c2.287-0.521,4.276-1.393,5.958-3.058c0.788-0.78-0.015-2.133-1.075-1.846
					c-3.274,0.885-7.252,0.379-10.294,1.967c-2.805,1.465-4.438,4.299-5.907,6.971C437.92,350.053,439.827,351.169,440.513,349.921
					L440.513,349.921z"/>
			</g>
			<g>
				<path d="M439.72,355.974c-0.199-2.854-0.704-5.405-3.119-7.204c-2.784-2.074-6.542-3.133-9.719-4.45
					c-1.059-0.439-1.809,1.127-1.075,1.846c1.754,1.719,3.733,3.09,6.015,4.022c1.629,0.665,3.019,0.894,4.114,2.465
					c0.971,1.393,1.479,3.091,1.73,4.747c0.213,1.401,2.342,0.806,2.13-0.587c-0.392-2.583-1.552-5.842-3.865-7.319
					c-1.269-0.81-2.822-1.089-4.17-1.737c-1.655-0.795-3.084-1.87-4.393-3.153c-0.358,0.615-0.717,1.231-1.075,1.846
					c2.515,1.042,5.143,1.967,7.554,3.229c2.692,1.409,3.457,3.341,3.663,6.293C437.608,357.384,439.819,357.395,439.72,355.974
					L439.72,355.974z"/>
			</g>
			<g>
				<path d="M442.046,313.334c-0.32-4.7-4.676-7.187-8.572-8.761c-1.064-0.43-1.807,1.122-1.075,1.846
					c1.156,1.144,2.33,2.248,3.704,3.128c1.596,1.022,2.563,2.515,3.696,4.01c0.848,1.119,2.767,0.019,1.908-1.115
					c-1.051-1.386-2.029-3.044-3.428-4.107c-1.504-1.143-2.963-2.137-4.318-3.479c-0.358,0.616-0.717,1.231-1.075,1.846
					c2.862,1.156,6.709,3.087,6.95,6.631C439.933,314.745,442.143,314.755,442.046,313.334L442.046,313.334z"/>
			</g>
		</g>
		<g>
			<g>
				<path d="M445.516,321.112c4.647-7.469,5.921-15.879,3.781-24.402c-1.23-4.899-2.796-9.731-4.2-14.583
					c-1.005-3.473-2.063-6.823-1.694-10.475c0.389-3.853,2.225-7.27,4.026-10.642c0.67-1.254-1.237-2.371-1.908-1.115
					c-2.108,3.947-4.24,8.015-4.482,12.573c-0.252,4.766,1.723,9.544,3.03,14.045c3.401,11.713,6.512,22.276-0.461,33.483
					C442.855,321.207,444.765,322.318,445.516,321.112L445.516,321.112z"/>
			</g>
			<g>
				<path d="M446.175,283.688c-0.095-2.806,0.849-5.536,2.977-7.447c1.886-1.694,4.428-2.435,6.439-3.971
					c-0.504-0.504-1.008-1.008-1.511-1.511c-1.712,2.846-4.214,4.007-6.686,6.021c-2.673,2.178-2.118,4.685-3.421,7.585
					c-0.578,1.286,1.326,2.411,1.908,1.115c0.609-1.356,0.697-2.671,1.059-4.096c0.537-2.114,2.009-3.048,3.729-4.171
					c2.196-1.434,3.958-3.078,5.318-5.339c0.532-0.885-0.6-2.208-1.511-1.512c-2.613,1.997-5.839,2.845-7.97,5.481
					c-1.815,2.245-2.637,4.977-2.541,7.845C444.013,285.106,446.223,285.113,446.175,283.688L446.175,283.688z"/>
			</g>
			<g>
				<path d="M443.262,273.397c-0.093-3.603-0.251-7.452-2.373-10.526c-2.224-3.221-5.248-3.13-8.554-4.61
					c-1.065-0.477-2.327,0.811-1.339,1.735c2.905,2.715,8.336,3.903,9.615,7.963c0.426,1.351,2.559,0.774,2.131-0.587
					c-1.537-4.88-6.794-5.772-10.183-8.938c-0.446,0.578-0.893,1.157-1.339,1.735c2.72,1.218,5.871,1.18,7.761,3.818
					c1.939,2.705,1.99,6.218,2.072,9.411C441.089,274.816,443.299,274.821,443.262,273.397L443.262,273.397z"/>
			</g>
			<g>
				<path d="M448.998,295.78c-1.47-2.674-3.104-5.501-5.907-6.97c-3.034-1.591-7.029-1.084-10.294-1.967
					c-1.059-0.286-1.863,1.066-1.075,1.846c1.681,1.665,3.665,2.536,5.958,3.058c2.577,0.587,6.131,0.626,8.117,2.656
					c0.996,1.018,2.558-0.545,1.562-1.562c-3.755-3.837-10.243-1.92-14.075-5.714c-0.358,0.616-0.717,1.231-1.075,1.846
					c2.793,0.755,5.637,0.627,8.409,1.261c3.278,0.75,4.985,3.956,6.471,6.661C447.775,298.141,449.684,297.028,448.998,295.78
					L448.998,295.78z"/>
			</g>
			<g>
				<path d="M450.093,302.947c0.206-2.953,0.956-4.877,3.663-6.294c2.413-1.263,5.039-2.187,7.554-3.229
					c-0.358-0.615-0.716-1.231-1.075-1.846c-1.212,1.188-2.533,2.213-4.05,2.986c-1.447,0.738-3.141,1.027-4.513,1.903
					c-2.31,1.475-3.474,4.747-3.865,7.319c-0.211,1.391,1.917,1.991,2.13,0.587c0.234-1.539,0.674-3.103,1.531-4.424
					c1.092-1.684,2.563-2.078,4.313-2.788c2.283-0.925,4.263-2.304,6.015-4.022c0.734-0.719-0.015-2.286-1.075-1.846
					c-3.168,1.313-6.944,2.382-9.719,4.45c-2.408,1.794-2.921,4.356-3.119,7.204C447.785,304.366,449.995,304.36,450.093,302.947
					L450.093,302.947z"/>
			</g>
			<g>
				<path d="M447.766,260.307c0.241-3.535,4.09-5.475,6.95-6.631c-0.358-0.616-0.716-1.231-1.075-1.846
					c-1.356,1.342-2.81,2.339-4.318,3.479c-1.401,1.058-2.378,2.723-3.428,4.107c-0.859,1.133,1.059,2.235,1.908,1.115
					c1.132-1.494,2.1-2.988,3.696-4.01c1.375-0.88,2.548-1.984,3.704-3.128c0.732-0.724-0.01-2.276-1.075-1.846
					c-3.898,1.575-8.252,4.059-8.572,8.761C445.46,261.727,447.67,261.72,447.766,260.307L447.766,260.307z"/>
			</g>
		</g>
	</g>
</svg>
