<?xml version="1.0" encoding="utf-8"?>
<svg version="1.1" xmlns="http://www.w3.org/2000/svg" xmlns:xlink="http://www.w3.org/1999/xlink" xml:space="preserve" viewBox="25 16 140 143">
<g>
		<g>
			<g>
				<g>
					<path d="M93.638,30.184c-0.265-0.886-1.875-6.265-0.522-6.64c0.572-0.158,0.929,1.417,0.934,1.715
						c0.009,0.505-0.068,1.02-0.166,1.515c-0.237,1.189-0.681,2.291-1.27,3.348c-0.637,1.144,1.118,2.17,1.755,1.026
						c1.276-2.29,3.514-8.793-0.749-9.576c-4.677-0.859-2.585,7.007-1.943,9.154C92.052,31.974,94.015,31.442,93.638,30.184
						L93.638,30.184z"/>
				</g>
				<g>
					<path d="M94.332,31.408c0.72-0.889,1.498-1.709,2.464-2.335c0.699-0.453,2.367-1.36,3.286-1.016
						c2.055,0.768-1.565,1.241-2.133,1.253c-1.348,0.031-2.698,0.029-4.046,0.043c-1.307,0.014-1.311,2.047,0,2.033
						c2.22-0.024,4.993,0.373,7.096-0.507c1.418-0.594,2.477-1.993,1.605-3.506c-0.922-1.601-3.09-1.52-4.641-1.071
						c-2.057,0.596-3.744,2.033-5.068,3.668C92.079,30.979,93.508,32.426,94.332,31.408L94.332,31.408z"/>
				</g>
				<g>
					<path d="M93.751,32.079c1.257-0.005,2.528-0.014,3.779,0.127c0.621,0.07,4.455,1.281,2.748,2.102
						c-0.842,0.405-2.83-0.872-3.48-1.329c-1.034-0.727-1.909-1.654-2.764-2.577c-0.891-0.962-2.326,0.478-1.437,1.437
						c1.46,1.576,3.04,3.107,5.065,3.924c1.418,0.572,4.028,1.229,4.892-0.544c0.745-1.529-0.39-3.299-1.675-4.097
						c-2.03-1.261-4.841-1.085-7.128-1.076C92.444,30.052,92.441,32.084,93.751,32.079L93.751,32.079z"/>
				</g>
				<g>
					<path d="M92.322,31.725c0.858,0.765,1.589,1.615,2.12,2.641c0.407,0.785,1.236,2.505,0.931,3.41
						c-0.264,0.238-0.529,0.475-0.793,0.712c-0.487-0.455-0.734-1.009-0.741-1.663c-0.072-0.595-0.053-1.214-0.046-1.811
						c0.014-1.267,0.126-2.526,0.28-3.783c0.159-1.295-1.876-1.284-2.033,0c-0.282,2.303-0.846,5.515,0.279,7.682
						c0.673,1.295,2.319,2.182,3.727,1.477c1.612-0.807,1.455-2.867,1.142-4.35c-0.473-2.244-1.729-4.238-3.429-5.753
						C92.786,29.42,91.343,30.853,92.322,31.725L92.322,31.725z"/>
				</g>
				<g>
					<path d="M92.105,30.728c-0.395,1.519-0.939,2.979-1.743,4.333c-0.38,0.639-0.805,1.326-1.454,1.728
						c-0.9,0.559-2.28,0.168-2.518-0.952c-0.561-2.646,5.579-3.466,7.192-4.211c1.186-0.548,0.155-2.3-1.026-1.755
						c-2.33,1.076-5.137,1.152-7.049,3.05c-1.491,1.479-1.577,3.321-0.208,4.936c1.394,1.644,3.619,1.616,5.216,0.256
						c1.924-1.638,2.934-4.475,3.55-6.845C94.394,30.001,92.434,29.46,92.105,30.728L92.105,30.728z"/>
				</g>
				<g>
					<path d="M92.307,29.561c-1.291,0.18-7.514-0.006-6.504-2.37c0.062-0.656,0.416-0.799,1.061-0.429
						c0.266,0.113,0.532,0.226,0.798,0.34c0.473,0.241,0.942,0.557,1.368,0.872c0.994,0.734,1.861,1.636,2.6,2.623
						c0.775,1.035,2.54,0.023,1.755-1.026c-1.368-1.828-3.092-3.532-5.208-4.472c-1.572-0.698-3.956-0.808-4.662,1.149
						c-0.627,1.737,0.703,3.462,2.142,4.268c2.163,1.211,4.795,1.339,7.191,1.005C94.137,31.341,93.588,29.382,92.307,29.561
						L92.307,29.561z"/>
				</g>
			</g>
			<g>
				<path d="M79.052,34.511c2.616,0,2.62-4.065,0-4.065C76.437,30.446,76.432,34.511,79.052,34.511L79.052,34.511z"/>
			</g>
			<g>
				<path d="M74.122,39.182c2.616,0,2.62-4.065,0-4.065C71.506,35.117,71.502,39.182,74.122,39.182L74.122,39.182z"/>
			</g>
			<g>
				<path d="M82.729,38.966c0-0.058,0-0.115,0-0.173c0-2.616-4.065-2.62-4.065,0c0,0.058,0,0.115,0,0.173
					C78.663,41.582,82.729,41.586,82.729,38.966L82.729,38.966z"/>
			</g>
		</g>
		<g>
			<g>
				<g>
					<path d="M59.732,41.774c-0.842-0.64-1.636-1.339-2.375-2.096c-0.285-0.292-0.561-0.594-0.829-0.902
						c-0.162-0.184-0.32-0.371-0.474-0.562c-0.521-0.326-0.558-0.666-0.114-1.019c0.21-0.648,0.55-0.641,1.018,0.02
						c0.138,0.174,0.275,0.347,0.413,0.52c0.271,0.391,0.504,0.844,0.704,1.274c0.482,1.038,0.774,2.164,0.908,3.298
						c0.152,1.284,2.186,1.299,2.033,0c-0.249-2.107-0.861-4.258-2.159-5.976c-0.976-1.292-2.719-2.227-4.278-1.331
						c-3.919,2.253,2.339,7.171,4.127,8.529C59.748,44.32,60.762,42.556,59.732,41.774L59.732,41.774z"/>
				</g>
				<g>
					<path d="M61.147,42.281c0.063-1.252,0.266-2.519,0.805-3.663c0.389-0.826,1.298-2.404,2.316-2.472
						c1.465-0.097-1.022,2.162-1.356,2.415c-1.074,0.815-2.165,1.609-3.248,2.413c-1.038,0.771-0.026,2.537,1.026,1.755
						c1.711-1.272,3.875-2.47,5.198-4.171c1.01-1.3,1.422-3.422-0.403-4.239c-1.774-0.795-3.519,0.667-4.52,2.013
						c-1.278,1.718-1.745,3.847-1.851,5.949C59.048,43.588,61.081,43.585,61.147,42.281L61.147,42.281z"/>
				</g>
				<g>
					<path d="M60.974,43.379c0.832-0.61,5.9-4.485,6.398-2.455c0.492,2.004-5.961,1.096-6.959,0.9
						c-1.278-0.252-1.825,1.707-0.54,1.96c2.281,0.449,4.678,0.808,6.95,0.109c1.416-0.435,3.543-1.431,3.202-3.245
						c-0.322-1.711-2.373-2.415-3.891-2.28c-2.298,0.206-4.404,1.949-6.186,3.255C58.904,42.389,59.917,44.154,60.974,43.379
						L60.974,43.379z"/>
				</g>
				<g>
					<path d="M59.854,43.89c1.262,0.12,2.478,0.491,3.575,1.131c0.722,0.421,2.304,1.357,2.472,2.237
						c0.302,1.59-1.535,0.288-1.838,0.004c-0.401-0.376-0.719-0.857-1.041-1.298c-0.796-1.092-1.492-2.249-2.144-3.431
						c-0.633-1.145-2.389-0.121-1.755,1.026c1.093,1.978,2.433,4.625,4.389,5.895c1.333,0.866,3.394,0.857,4.261-0.691
						c0.999-1.784-0.754-3.59-2.037-4.614c-1.708-1.362-3.719-2.087-5.879-2.292C58.552,41.734,58.56,43.767,59.854,43.89
						L59.854,43.89z"/>
				</g>
				<g>
					<path d="M58.904,43.111c0.563,1.454,1.011,2.957,1.16,4.516c0.151,1.576-0.445,4.741-2.614,2.829
						c-1.998-1.761,2.186-5.586,3.152-7.296c0.645-1.14-1.111-2.166-1.755-1.026c-1.307,2.312-3.645,4.151-3.981,6.93
						c-0.251,2.078,0.849,3.479,2.893,3.934c5.962,1.325,4.199-7.605,3.106-10.428C60.397,41.363,58.43,41.888,58.904,43.111
						L58.904,43.111z"/>
				</g>
				<g>
					<path d="M58.486,42.051c-1.2,1.156-4.443,3.683-6.271,2.627c-0.577,0.002-0.694-0.267-0.352-0.806
						c-0.059-0.646,0.258-0.955,0.953-0.927c0.596-0.142,1.234-0.157,1.842-0.159c1.364-0.003,2.65,0.24,3.95,0.635
						c1.254,0.381,1.791-1.58,0.54-1.96c-2.303-0.7-5.075-1.109-7.416-0.322c-1.568,0.527-3.014,2.035-2.28,3.769
						c1.865,4.411,8.364,0.61,10.47-1.419C60.867,42.579,59.428,41.143,58.486,42.051L58.486,42.051z"/>
				</g>
			</g>
			<g>
				<path d="M49.402,54.319c2.616,0,2.62-4.065,0-4.065C46.786,50.254,46.781,54.319,49.402,54.319L49.402,54.319z"/>
			</g>
			<g>
				<path d="M48.158,60.996c2.616,0,2.62-4.065,0-4.065C45.542,56.931,45.538,60.996,48.158,60.996L48.158,60.996z"/>
			</g>
			<g>
				<path d="M56.299,55.543c-0.034-0.047-0.068-0.093-0.102-0.14c-0.644-0.887-1.767-1.322-2.781-0.729
					c-0.876,0.512-1.378,1.888-0.729,2.781c0.034,0.047,0.068,0.093,0.102,0.14c0.644,0.887,1.767,1.323,2.781,0.729
					C56.446,57.812,56.948,56.436,56.299,55.543L56.299,55.543z"/>
			</g>
		</g>
		<g>
			<g>
				<g>
					<path d="M39.335,71.158c-1.286-0.03-2.555-0.143-3.818-0.398c-0.48-0.097-0.957-0.213-1.429-0.346
						c-0.216-0.056-0.43-0.12-0.641-0.193c-0.697-0.556-0.683-0.875,0.042-0.955c1.634-0.972,4.579,1.834,5.555,2.89
						c0.89,0.963,2.324-0.477,1.437-1.437c-1.781-1.928-7.399-6.054-9.345-2.111c-2.059,4.172,5.989,4.532,8.198,4.584
						C40.644,73.221,40.644,71.189,39.335,71.158L39.335,71.158z"/>
				</g>
				<g>
					<path d="M40.733,70.826c-0.668-1.036-1.242-2.125-1.515-3.337c-0.182-0.806-0.488-3.308,0.63-3.293
						c1.033,0.014,0.065,2.498-0.15,3.189c-0.343,1.104-0.691,2.206-1.036,3.309c-0.392,1.251,1.57,1.787,1.96,0.54
						c0.585-1.87,3.884-10.175-0.983-9.504c-1.811,0.249-2.48,2.257-2.593,3.832c-0.162,2.262,0.73,4.424,1.933,6.289
						C39.684,72.948,41.444,71.929,40.733,70.826L40.733,70.826z"/>
				</g>
				<g>
					<path d="M41.232,71.593c0.445-1.394,0.872-2.855,1.582-4.142c0.249-0.451,0.527-0.917,0.914-1.265
						c0.571-0.512,2.098-1.038,1.491,0.279c-1.036,2.247-3.432,3.43-5.56,4.412c-1.186,0.548-0.155,2.3,1.026,1.755
						c2.04-0.942,4.051-2.034,5.455-3.838c0.908-1.166,2.108-3.253,0.798-4.544c-1.298-1.279-3.484-0.603-4.647,0.499
						c-1.674,1.585-2.343,4.188-3.019,6.304C38.873,72.302,40.835,72.836,41.232,71.593L41.232,71.593z"/>
				</g>
				<g>
					<path d="M40.492,72.859c1.578-0.917,4.907-2.115,6.69-0.991c1.243,0.784-0.155,1.249-1.062,1.199
						c-0.522-0.029-1.043-0.226-1.539-0.381c-1.329-0.412-2.609-0.941-3.87-1.528c-1.178-0.549-2.212,1.203-1.026,1.755
						c2.072,0.965,4.508,2.211,6.84,2.246c1.654,0.025,3.485-1.144,3.317-2.994c-0.166-1.831-2.116-2.367-3.639-2.546
						c-2.371-0.28-4.685,0.292-6.736,1.484C38.336,71.761,39.358,73.518,40.492,72.859L40.492,72.859z"/>
				</g>
				<g>
					<path d="M39.472,72.814c1.237,0.794,2.374,1.695,3.366,2.783c0.852,0.935,2.697,3.887,0.033,4.126
						c-3.058,0.275-1.923-6.202-2.112-7.849c-0.147-1.285-2.181-1.3-2.033,0c0.294,2.573-0.49,5.387,0.723,7.811
						c0.963,1.923,2.7,2.592,4.704,1.748c5.749-2.421-1.01-8.677-3.656-10.374C39.393,70.351,38.373,72.109,39.472,72.814
						L39.472,72.814z"/>
				</g>
				<g>
					<path d="M38.413,72.009c-0.232,1.345-0.64,2.611-1.347,3.786c-0.334,0.555-0.71,1.107-1.188,1.549
						c-0.6,0.555-1.268,1.051-1.856,0.332c-0.546-0.667-0.081-1.084,0.45-1.655c0.423-0.454,0.928-0.843,1.435-1.197
						c1.018-0.711,2.125-1.245,3.299-1.641c1.233-0.415,0.704-2.379-0.54-1.96c-2.062,0.695-4.111,1.771-5.631,3.361
						c-1.174,1.228-2.192,3.377-0.736,4.801c1.45,1.418,3.736,0.611,5.016-0.604c1.689-1.602,2.669-3.98,3.058-6.233
						C40.594,71.27,38.635,70.72,38.413,72.009L38.413,72.009z"/>
				</g>
			</g>
			<g>
				<path d="M37.056,87.773c2.616,0,2.62-4.065,0-4.065C34.44,83.707,34.436,87.773,37.056,87.773L37.056,87.773z"/>
			</g>
			<g>
				<path d="M39.975,93.905c2.616,0,2.62-4.065,0-4.065C37.359,89.84,37.355,93.905,39.975,93.905L39.975,93.905z"/>
			</g>
			<g>
				<path d="M44.275,84.222c-0.055-0.018-0.11-0.036-0.165-0.054c-2.494-0.81-3.563,3.114-1.081,3.92
					c0.055,0.018,0.11,0.036,0.165,0.053C45.688,88.952,46.756,85.028,44.275,84.222L44.275,84.222z"/>
			</g>
		</g>
		<g>
			<g>
				<g>
					<path d="M40.09,106.869c-0.808,0.56-1.635,1.079-2.506,1.534c-0.587,0.307-2.254,1.419-2.896,1.222
						c-0.153-0.358-0.305-0.715-0.458-1.073c0.253-0.23,0.542-0.388,0.867-0.472c0.416-0.163,0.865-0.251,1.305-0.321
						c1.282-0.201,2.576-0.131,3.845,0.119c1.278,0.251,1.825-1.707,0.54-1.96c-2.559-0.504-9.644-0.647-8.919,3.748
						c0.751,4.553,7.419,0.225,9.248-1.042C42.184,107.884,41.168,106.121,40.09,106.869L40.09,106.869z"/>
				</g>
				<g>
					<path d="M40.802,105.785c-1.041-0.397-2.06-0.917-2.915-1.642c-0.744-0.631-2.075-1.981-1.843-3.076
						c0.323-1.522,1.561,1.207,1.754,1.758c0.47,1.338,0.907,2.689,1.36,4.033c0.415,1.233,2.379,0.704,1.96-0.54
						c-0.707-2.099-1.168-4.811-2.622-6.56c-1.041-1.252-2.843-1.867-3.997-0.399c-1.198,1.524-0.233,3.659,0.793,4.99
						c1.265,1.641,3.061,2.669,4.97,3.397C41.485,108.212,42.014,106.247,40.802,105.785L40.802,105.785z"/>
				</g>
				<g>
					<path d="M41.824,106.249c-0.329-0.997-0.659-1.998-0.904-3.02c-0.159-0.665-0.831-4.456,0.652-3.805
						c1.926,0.846-0.739,5.763-1.416,6.978c-0.637,1.144,1.118,2.17,1.755,1.026c1.134-2.035,2.184-4.196,2.217-6.575
						c0.02-1.487-0.288-3.795-2.137-4.003c-1.525-0.171-2.813,1.266-3.223,2.595c-0.729,2.366,0.359,5.111,1.096,7.344
						C40.271,108.026,42.235,107.496,41.824,106.249L41.824,106.249z"/>
				</g>
				<g>
					<path d="M41.888,107.725c0.487-1.123,1.118-2.133,1.997-2.994c0.706-0.691,2.027-1.845,3.083-1.876
						c0.778-0.023,0.913,0.524,0.371,1.144c-0.489,0.559-1.369,0.796-2.038,1.029c-1.417,0.494-2.881,0.836-4.352,1.121
						c-1.283,0.249-0.74,2.208,0.54,1.96c2.228-0.432,5.141-0.874,6.951-2.38c1.23-1.023,1.801-2.985,0.576-4.268
						c-1.389-1.455-3.688-0.327-5.029,0.582c-1.71,1.16-3.035,2.762-3.856,4.656C39.618,107.887,41.368,108.923,41.888,107.725
						L41.888,107.725z"/>
				</g>
				<g>
					<path d="M40.988,108.189c1.562-0.091,3.12-0.036,4.652,0.305c1.284,0.286,4.484,1.997,2.059,3.508
						c-2.354,1.466-5.014-4.136-6.225-5.456c-0.886-0.966-2.321,0.474-1.437,1.437c1.814,1.978,2.826,4.8,5.436,5.943
						c1.801,0.788,3.373,0.201,4.416-1.417c1.058-1.642,0.608-3.606-0.914-4.791c-2.094-1.63-5.474-1.709-7.987-1.563
						C39.688,106.231,39.679,108.265,40.988,108.189L40.988,108.189z"/>
				</g>
				<g>
					<path d="M39.833,108.31c0.609,1.253,0.998,2.574,1.083,3.97c0.052,0.842-0.104,3.922-1.537,3.265
						c-1.94-0.888,1.108-6.046,1.796-7.027c0.753-1.073-1.008-2.09-1.755-1.026c-1.375,1.959-2.614,4.498-2.57,6.952
						c0.028,1.54,0.911,3.322,2.664,3.311c1.896-0.012,3.065-1.915,3.348-3.572c0.401-2.35-0.251-4.798-1.273-6.899
						C41.016,106.108,39.263,107.137,39.833,108.31L39.833,108.31z"/>
				</g>
			</g>
			<g>
				<path d="M46.732,122.093c2.616,0,2.62-4.065,0-4.065C44.117,118.028,44.112,122.093,46.732,122.093L46.732,122.093z"/>
			</g>
			<g>
				<path d="M52.698,125.339c2.616,0,2.62-4.066,0-4.066C50.083,121.274,50.078,125.339,52.698,125.339L52.698,125.339z"/>
			</g>
			<g>
				<path d="M51.854,114.533c-0.055,0.018-0.11,0.036-0.165,0.054c-2.478,0.805-1.418,4.732,1.081,3.92
					c0.055-0.018,0.11-0.036,0.164-0.053C55.413,117.648,54.352,113.721,51.854,114.533L51.854,114.533z"/>
			</g>
		</g>
		<g>
			<g>
				<g>
					<path d="M61.556,135.51c-0.376,1.079-0.818,2.118-1.361,3.124c-0.189,0.35-1.729,3.496-2.368,1.847
						c-0.332-0.858,1.311-2.238,1.825-2.687c0.85-0.742,1.806-1.303,2.829-1.771c1.188-0.544,0.156-2.297-1.026-1.755
						c-1.785,0.818-3.469,2.021-4.66,3.601c-1.045,1.386-1.532,3.515-0.006,4.774c3.36,2.771,5.992-4.478,6.728-6.592
						C63.948,134.812,61.985,134.28,61.556,135.51L61.556,135.51z"/>
				</g>
				<g>
					<path d="M61.632,134.048c-1.1,0.293-2.213,0.485-3.356,0.415c-0.655-0.04-3.256-0.43-3.352-1.298
						c0.205-0.224,0.409-0.448,0.614-0.673c0.438,0.12,0.846,0.303,1.224,0.549c0.482,0.273,0.926,0.624,1.377,0.942
						c0.944,0.667,1.885,1.339,2.827,2.008c1.069,0.759,2.085-1.003,1.026-1.755c-1.794-1.274-3.734-3.162-5.914-3.705
						c-1.561-0.389-3.273,0.204-3.405,1.993c-0.131,1.777,1.618,2.918,3.076,3.464c2.069,0.774,4.327,0.576,6.422,0.018
						C63.435,135.671,62.9,133.71,61.632,134.048L61.632,134.048z"/>
				</g>
				<g>
					<path d="M62.523,133.767c-1.074-0.772-2.161-1.554-3.116-2.475c-0.499-0.481-2.375-3.238-0.996-3.149
						c0.966,0.062,1.82,1.987,2.123,2.767c0.488,1.255,0.687,2.616,0.846,3.943c0.153,1.283,2.188,1.298,2.033,0
						c-0.266-2.23-0.623-4.526-1.881-6.444c-0.863-1.316-2.644-3.323-4.36-2.191c-1.546,1.02-1.435,3.259-0.647,4.707
						c1.065,1.957,3.212,3.33,4.973,4.596C62.561,136.288,63.576,134.525,62.523,133.767L62.523,133.767z"/>
				</g>
				<g>
					<path d="M63.532,134.837c-0.282-1.309-0.309-2.624-0.011-3.934c0.116-0.51,0.289-0.999,0.498-1.477
						c0.321-0.732,0.447-1.379,1.271-1.244c1.35,0.221-0.519,2.61-0.963,3.212c-0.728,0.988-1.538,1.907-2.375,2.803
						c-0.892,0.956,0.542,2.396,1.437,1.437c1.522-1.63,3.517-3.645,4.221-5.814c0.495-1.526-0.012-3.553-1.746-4.025
						c-1.836-0.499-3.027,1.298-3.668,2.719c-0.984,2.181-1.125,4.543-0.625,6.863C61.847,136.656,63.807,136.115,63.532,134.837
						L63.532,134.837z"/>
				</g>
				<g>
					<path d="M63.229,135.807c1.052-0.862,2.185-1.613,3.415-2.199c0.747-0.356,2.06-0.969,2.945-0.715
						c1.055,0.304,1.545,1.4,1.006,2.345c-1.242,2.177-6.118-0.548-7.948-0.919c-1.277-0.259-1.824,1.7-0.54,1.96
						c2.505,0.508,4.877,2.064,7.514,1.715c2.291-0.303,3.531-1.917,3.185-4.236c-0.877-5.881-8.636-1.336-11.013,0.611
						C60.779,135.2,62.225,136.63,63.229,135.807L63.229,135.807z"/>
				</g>
				<g>
					<path d="M62.141,136.635c1.019,0.539,1.951,1.176,2.757,2.007c0.604,0.623,2.415,2.629,1.753,3.634
						c-0.412,0.099-0.824,0.198-1.237,0.297c-0.28-0.266-0.508-0.57-0.684-0.911c-0.315-0.529-0.518-1.132-0.702-1.716
						c-0.388-1.232-0.549-2.487-0.57-3.777c-0.021-1.307-2.054-1.311-2.033,0c0.038,2.339,0.475,4.934,1.794,6.922
						c0.911,1.374,2.787,2.583,4.338,1.402c1.549-1.179,1.328-3.451,0.516-4.989c-1.061-2.008-2.929-3.577-4.907-4.625
						C62.011,134.268,60.983,136.021,62.141,136.635L62.141,136.635z"/>
				</g>
			</g>
			<g>
				<path d="M74.734,144.172c2.616,0,2.62-4.066,0-4.066C72.118,140.107,72.114,144.172,74.734,144.172L74.734,144.172z"/>
			</g>
			<g>
				<path d="M81.468,143.291c2.616,0,2.62-4.065,0-4.065C78.852,139.226,78.848,143.291,81.468,143.291L81.468,143.291z"/>
			</g>
			<g>
				<path d="M75.462,134.899c-0.034,0.047-0.068,0.093-0.102,0.14c-0.646,0.889-0.152,2.266,0.729,2.781
					c1.028,0.601,2.134,0.161,2.781-0.729c0.034-0.047,0.068-0.093,0.102-0.14c0.646-0.889,0.152-2.266-0.729-2.781
					C77.216,133.569,76.109,134.008,75.462,134.899L75.462,134.899z"/>
			</g>
		</g>
		<g>
			<g>
				<g>
					<path d="M95.779,145.837c0.265,0.886,1.875,6.266,0.522,6.64c-0.572,0.158-0.929-1.417-0.934-1.715
						c-0.009-0.505,0.068-1.02,0.166-1.514c0.237-1.189,0.681-2.291,1.27-3.348c0.637-1.144-1.118-2.17-1.755-1.026
						c-1.276,2.29-3.514,8.793,0.748,9.576c4.677,0.859,2.585-7.007,1.943-9.154C97.365,144.047,95.402,144.579,95.779,145.837
						L95.779,145.837z"/>
				</g>
				<g>
					<path d="M95.085,144.612c-0.72,0.889-1.498,1.709-2.464,2.335c-0.699,0.453-2.367,1.36-3.286,1.016
						c-2.055-0.768,1.565-1.241,2.133-1.253c1.348-0.031,2.698-0.029,4.046-0.043c1.307-0.014,1.311-2.047,0-2.033
						c-2.22,0.024-4.993-0.373-7.096,0.507c-1.418,0.594-2.477,1.993-1.605,3.506c0.922,1.602,3.09,1.52,4.641,1.071
						c2.057-0.596,3.744-2.033,5.068-3.668C97.339,145.042,95.909,143.595,95.085,144.612L95.085,144.612z"/>
				</g>
				<g>
					<path d="M95.666,143.942c-1.257,0.005-2.528,0.015-3.779-0.127c-0.621-0.07-4.455-1.281-2.748-2.103
						c0.842-0.405,2.83,0.872,3.48,1.329c1.034,0.727,1.909,1.654,2.764,2.577c0.891,0.962,2.326-0.478,1.437-1.437
						c-1.46-1.576-3.04-3.107-5.065-3.924c-1.418-0.572-4.028-1.229-4.892,0.544c-0.745,1.529,0.39,3.299,1.675,4.097
						c2.03,1.261,4.841,1.085,7.128,1.076C96.974,145.969,96.976,143.936,95.666,143.942L95.666,143.942z"/>
				</g>
				<g>
					<path d="M97.095,144.296c-0.858-0.765-1.589-1.615-2.12-2.641c-0.407-0.785-1.235-2.505-0.931-3.41
						c0.264-0.237,0.529-0.475,0.793-0.712c0.487,0.455,0.734,1.009,0.741,1.663c0.072,0.595,0.053,1.214,0.046,1.811
						c-0.014,1.267-0.126,2.526-0.28,3.783c-0.159,1.295,1.876,1.284,2.033,0c0.282-2.303,0.846-5.515-0.279-7.682
						c-0.673-1.295-2.319-2.182-3.727-1.477c-1.612,0.807-1.455,2.867-1.142,4.35c0.473,2.244,1.729,4.238,3.429,5.753
						C96.631,146.601,98.074,145.168,97.095,144.296L97.095,144.296z"/>
				</g>
				<g>
					<path d="M97.312,145.293c0.394-1.519,0.939-2.979,1.743-4.333c0.38-0.639,0.805-1.326,1.454-1.728
						c0.9-0.559,2.28-0.168,2.518,0.952c0.561,2.646-5.579,3.466-7.192,4.211c-1.186,0.548-0.155,2.3,1.026,1.755
						c2.329-1.076,5.137-1.152,7.049-3.049c1.491-1.479,1.577-3.322,0.208-4.936c-1.393-1.643-3.619-1.616-5.216-0.256
						c-1.924,1.638-2.934,4.475-3.55,6.845C95.023,146.02,96.983,146.561,97.312,145.293L97.312,145.293z"/>
				</g>
				<g>
					<path d="M97.11,146.46c1.291-0.18,7.514,0.007,6.504,2.37c-0.062,0.656-0.416,0.799-1.061,0.429
						c-0.266-0.113-0.532-0.226-0.798-0.339c-0.473-0.241-0.942-0.557-1.368-0.872c-0.994-0.734-1.861-1.636-2.599-2.623
						c-0.775-1.035-2.54-0.023-1.755,1.026c1.368,1.828,3.092,3.532,5.208,4.472c1.572,0.698,3.956,0.808,4.662-1.149
						c0.627-1.737-0.703-3.462-2.142-4.268c-2.163-1.211-4.795-1.339-7.191-1.005C95.28,144.68,95.829,146.638,97.11,146.46
						L97.11,146.46z"/>
				</g>
			</g>
			<g>
				<path d="M110.365,145.575c2.616,0,2.62-4.065,0-4.065C107.749,141.51,107.745,145.575,110.365,145.575L110.365,145.575z"/>
			</g>
			<g>
				<path d="M115.295,140.904c2.616,0,2.62-4.065,0-4.065C112.679,136.839,112.675,140.904,115.295,140.904L115.295,140.904z"/>
			</g>
			<g>
				<path d="M106.689,137.055c0,0.058,0,0.115,0,0.173c0,2.616,4.065,2.62,4.065,0c0-0.058,0-0.115,0-0.173
					C110.754,134.439,106.689,134.435,106.689,137.055L106.689,137.055z"/>
			</g>
		</g>
		<g>
			<g>
				<g>
					<path d="M129.685,134.247c0.843,0.64,1.636,1.34,2.375,2.096c0.285,0.292,0.561,0.594,0.829,0.902
						c0.162,0.184,0.32,0.371,0.474,0.562c0.521,0.326,0.559,0.666,0.114,1.019c-0.21,0.648-0.55,0.641-1.018-0.02
						c-0.138-0.173-0.275-0.347-0.413-0.52c-0.27-0.391-0.504-0.844-0.704-1.274c-0.482-1.038-0.774-2.164-0.908-3.298
						c-0.151-1.283-2.186-1.299-2.033,0c0.249,2.107,0.861,4.258,2.159,5.976c0.976,1.292,2.718,2.227,4.278,1.331
						c3.919-2.253-2.339-7.171-4.127-8.529C129.67,131.701,128.656,133.465,129.685,134.247L129.685,134.247z"/>
				</g>
				<g>
					<path d="M128.27,133.74c-0.063,1.252-0.266,2.519-0.805,3.663c-0.389,0.826-1.298,2.404-2.315,2.472
						c-1.465,0.097,1.022-2.162,1.356-2.415c1.074-0.815,2.165-1.609,3.248-2.413c1.038-0.771,0.026-2.537-1.026-1.755
						c-1.711,1.272-3.875,2.47-5.198,4.171c-1.01,1.3-1.422,3.422,0.403,4.239c1.774,0.795,3.519-0.667,4.52-2.013
						c1.278-1.718,1.745-3.847,1.851-5.949C130.369,132.433,128.336,132.436,128.27,133.74L128.27,133.74z"/>
				</g>
				<g>
					<path d="M128.443,132.642c-0.832,0.61-5.9,4.485-6.398,2.455c-0.492-2.004,5.961-1.096,6.959-0.899
						c1.278,0.251,1.825-1.707,0.54-1.96c-2.281-0.449-4.678-0.808-6.95-0.109c-1.416,0.435-3.542,1.431-3.201,3.245
						c0.322,1.711,2.373,2.415,3.891,2.28c2.298-0.206,4.404-1.949,6.186-3.255C130.514,133.632,129.501,131.867,128.443,132.642
						L128.443,132.642z"/>
				</g>
				<g>
					<path d="M129.564,132.131c-1.262-0.12-2.478-0.491-3.575-1.131c-0.722-0.421-2.304-1.357-2.472-2.237
						c-0.303-1.59,1.535-0.288,1.838-0.004c0.401,0.376,0.719,0.857,1.041,1.298c0.796,1.092,1.492,2.249,2.144,3.43
						c0.633,1.145,2.389,0.121,1.755-1.026c-1.093-1.978-2.433-4.625-4.389-5.895c-1.333-0.866-3.394-0.857-4.261,0.691
						c-0.999,1.784,0.754,3.59,2.037,4.614c1.708,1.361,3.719,2.087,5.879,2.292C130.865,134.287,130.857,132.254,129.564,132.131
						L129.564,132.131z"/>
				</g>
				<g>
					<path d="M130.513,132.91c-0.563-1.454-1.011-2.956-1.16-4.516c-0.151-1.576,0.445-4.741,2.614-2.829
						c1.998,1.761-2.186,5.586-3.152,7.296c-0.645,1.14,1.111,2.166,1.755,1.026c1.307-2.312,3.645-4.15,3.981-6.93
						c0.251-2.078-0.849-3.479-2.893-3.934c-5.962-1.326-4.199,7.605-3.106,10.428C129.021,134.658,130.987,134.133,130.513,132.91
						L130.513,132.91z"/>
				</g>
				<g>
					<path d="M130.932,133.97c1.2-1.156,4.443-3.684,6.271-2.627c0.577-0.002,0.694,0.267,0.352,0.806
						c0.059,0.646-0.258,0.955-0.953,0.927c-0.596,0.142-1.234,0.157-1.842,0.159c-1.364,0.003-2.65-0.24-3.95-0.635
						c-1.254-0.381-1.791,1.58-0.54,1.96c2.303,0.7,5.075,1.109,7.416,0.322c1.568-0.527,3.014-2.035,2.28-3.769
						c-1.865-4.411-8.364-0.61-10.47,1.419C128.55,133.442,129.989,134.878,130.932,133.97L130.932,133.97z"/>
				</g>
			</g>
			<g>
				<path d="M140.016,125.767c2.616,0,2.62-4.065,0-4.065C137.4,121.702,137.395,125.767,140.016,125.767L140.016,125.767z"/>
			</g>
			<g>
				<path d="M141.259,119.09c2.616,0,2.62-4.065,0-4.065C138.643,115.025,138.639,119.09,141.259,119.09L141.259,119.09z"/>
			</g>
			<g>
				<path d="M133.118,120.478c0.034,0.047,0.068,0.093,0.102,0.14c0.644,0.887,1.767,1.323,2.781,0.729
					c0.876-0.512,1.378-1.888,0.729-2.781c-0.034-0.047-0.068-0.093-0.102-0.14c-0.644-0.887-1.767-1.323-2.781-0.729
					C132.971,118.209,132.469,119.585,133.118,120.478L133.118,120.478z"/>
			</g>
		</g>
		<g>
			<g>
				<g>
					<path d="M150.082,104.863c1.286,0.03,2.555,0.144,3.818,0.398c0.48,0.097,0.957,0.213,1.429,0.346
						c0.216,0.056,0.43,0.12,0.641,0.193c0.697,0.556,0.683,0.875-0.042,0.955c-1.634,0.972-4.579-1.834-5.555-2.89
						c-0.889-0.963-2.324,0.477-1.437,1.437c1.781,1.928,7.399,6.054,9.345,2.112c2.059-4.172-5.989-4.532-8.198-4.584
						C148.773,102.799,148.774,104.832,150.082,104.863L150.082,104.863z"/>
				</g>
				<g>
					<path d="M148.685,105.195c0.668,1.036,1.242,2.125,1.515,3.338c0.182,0.805,0.488,3.308-0.63,3.292
						c-1.033-0.014-0.065-2.498,0.15-3.189c0.344-1.104,0.691-2.206,1.036-3.31c0.392-1.251-1.57-1.787-1.96-0.54
						c-0.585,1.87-3.884,10.175,0.983,9.504c1.811-0.249,2.48-2.257,2.593-3.832c0.162-2.262-0.73-4.424-1.933-6.289
						C149.733,103.073,147.973,104.091,148.685,105.195L148.685,105.195z"/>
				</g>
				<g>
					<path d="M148.185,104.428c-0.446,1.394-0.872,2.855-1.582,4.142c-0.249,0.451-0.527,0.917-0.915,1.265
						c-0.571,0.512-2.098,1.038-1.491-0.279c1.036-2.247,3.432-3.43,5.56-4.412c1.186-0.548,0.155-2.3-1.026-1.755
						c-2.04,0.942-4.051,2.034-5.455,3.838c-0.908,1.166-2.108,3.253-0.798,4.544c1.298,1.279,3.484,0.603,4.648-0.499
						c1.673-1.585,2.343-4.188,3.019-6.304C150.544,103.719,148.582,103.184,148.185,104.428L148.185,104.428z"/>
				</g>
				<g>
					<path d="M148.925,103.162c-1.578,0.917-4.908,2.115-6.69,0.991c-1.242-0.783,0.155-1.25,1.062-1.199
						c0.522,0.029,1.043,0.227,1.54,0.381c1.329,0.412,2.609,0.941,3.87,1.528c1.178,0.549,2.212-1.203,1.026-1.755
						c-2.072-0.965-4.508-2.211-6.84-2.246c-1.654-0.025-3.485,1.144-3.317,2.994c0.166,1.831,2.115,2.367,3.639,2.547
						c2.371,0.279,4.685-0.293,6.736-1.484C151.081,104.26,150.059,102.503,148.925,103.162L148.925,103.162z"/>
				</g>
				<g>
					<path d="M149.946,103.207c-1.237-0.794-2.374-1.695-3.366-2.783c-0.852-0.935-2.697-3.887-0.033-4.126
						c3.058-0.275,1.923,6.202,2.112,7.849c0.147,1.285,2.181,1.3,2.033,0c-0.294-2.573,0.49-5.387-0.723-7.81
						c-0.963-1.923-2.701-2.592-4.704-1.748c-5.749,2.422,1.01,8.677,3.656,10.374C150.024,105.67,151.044,103.912,149.946,103.207
						L149.946,103.207z"/>
				</g>
				<g>
					<path d="M151.004,104.012c0.232-1.345,0.64-2.611,1.347-3.786c0.334-0.555,0.71-1.107,1.188-1.549
						c0.6-0.555,1.268-1.051,1.856-0.332c0.546,0.667,0.081,1.084-0.45,1.655c-0.423,0.454-0.928,0.843-1.435,1.197
						c-1.018,0.711-2.125,1.245-3.299,1.641c-1.233,0.415-0.704,2.379,0.54,1.96c2.062-0.694,4.111-1.771,5.631-3.361
						c1.174-1.227,2.192-3.377,0.736-4.801c-1.45-1.418-3.736-0.611-5.016,0.604c-1.688,1.602-2.669,3.98-3.058,6.233
						C148.823,104.751,150.782,105.301,151.004,104.012L151.004,104.012z"/>
				</g>
			</g>
			<g>
				<path d="M152.361,92.313c2.616,0,2.62-4.065,0-4.065C149.745,88.248,149.741,92.313,152.361,92.313L152.361,92.313z"/>
			</g>
			<g>
				<path d="M149.442,86.181c2.616,0,2.62-4.065,0-4.065C146.826,82.116,146.822,86.181,149.442,86.181L149.442,86.181z"/>
			</g>
			<g>
				<path d="M145.143,91.799c0.055,0.018,0.11,0.036,0.165,0.053c2.494,0.81,3.562-3.114,1.081-3.92
					c-0.055-0.018-0.11-0.036-0.165-0.054C143.729,87.069,142.661,90.993,145.143,91.799L145.143,91.799z"/>
			</g>
		</g>
		<g>
			<g>
				<g>
					<path d="M149.327,69.152c0.807-0.56,1.635-1.079,2.506-1.534c0.588-0.307,2.254-1.418,2.896-1.222
						c0.153,0.358,0.305,0.715,0.458,1.073c-0.253,0.23-0.542,0.388-0.867,0.472c-0.416,0.163-0.865,0.251-1.305,0.32
						c-1.282,0.201-2.577,0.131-3.845-0.119c-1.278-0.251-1.825,1.707-0.54,1.96c2.559,0.504,9.644,0.647,8.919-3.748
						c-0.751-4.553-7.419-0.225-9.248,1.042C147.234,68.137,148.249,69.9,149.327,69.152L149.327,69.152z"/>
				</g>
				<g>
					<path d="M148.615,70.236c1.041,0.397,2.06,0.917,2.915,1.641c0.744,0.631,2.075,1.981,1.843,3.076
						c-0.323,1.522-1.561-1.207-1.754-1.758c-0.47-1.338-0.907-2.689-1.36-4.033c-0.415-1.233-2.379-0.704-1.96,0.54
						c0.707,2.098,1.168,4.81,2.622,6.56c1.041,1.252,2.843,1.867,3.997,0.399c1.198-1.524,0.233-3.659-0.793-4.99
						c-1.265-1.641-3.061-2.669-4.97-3.397C147.932,67.809,147.403,69.774,148.615,70.236L148.615,70.236z"/>
				</g>
				<g>
					<path d="M147.594,69.772c0.329,0.997,0.659,1.998,0.904,3.02c0.159,0.665,0.831,4.456-0.652,3.805
						c-1.926-0.846,0.739-5.763,1.416-6.978c0.638-1.144-1.118-2.17-1.755-1.026c-1.135,2.035-2.184,4.196-2.217,6.575
						c-0.02,1.487,0.288,3.795,2.137,4.003c1.525,0.171,2.814-1.266,3.223-2.594c0.729-2.366-0.359-5.111-1.096-7.344
						C149.146,67.995,147.182,68.525,147.594,69.772L147.594,69.772z"/>
				</g>
				<g>
					<path d="M147.53,68.296c-0.487,1.123-1.118,2.133-1.997,2.994c-0.706,0.691-2.027,1.845-3.083,1.876
						c-0.778,0.023-0.913-0.524-0.371-1.144c0.489-0.559,1.369-0.796,2.038-1.028c1.417-0.494,2.881-0.836,4.352-1.121
						c1.283-0.249,0.74-2.208-0.54-1.96c-2.228,0.432-5.141,0.873-6.951,2.379c-1.23,1.023-1.801,2.985-0.576,4.268
						c1.389,1.455,3.688,0.327,5.029-0.582c1.71-1.16,3.035-2.762,3.856-4.656C149.799,68.134,148.049,67.098,147.53,68.296
						L147.53,68.296z"/>
				</g>
				<g>
					<path d="M148.429,67.832c-1.562,0.091-3.12,0.036-4.652-0.305c-1.284-0.286-4.484-1.997-2.059-3.508
						c2.354-1.467,5.014,4.136,6.225,5.456c0.886,0.966,2.321-0.474,1.437-1.437c-1.814-1.978-2.826-4.8-5.436-5.943
						c-1.801-0.788-3.373-0.201-4.416,1.417c-1.058,1.642-0.608,3.606,0.914,4.791c2.094,1.63,5.474,1.709,7.987,1.563
						C149.73,69.789,149.738,67.756,148.429,67.832L148.429,67.832z"/>
				</g>
				<g>
					<path d="M149.584,67.711c-0.609-1.253-0.998-2.574-1.083-3.97c-0.052-0.842,0.104-3.922,1.538-3.265
						c1.939,0.888-1.108,6.047-1.796,7.027c-0.753,1.073,1.008,2.09,1.755,1.026c1.375-1.959,2.615-4.497,2.57-6.952
						c-0.028-1.54-0.912-3.322-2.664-3.311c-1.896,0.012-3.065,1.915-3.348,3.572c-0.401,2.35,0.251,4.798,1.273,6.899
						C148.401,69.913,150.154,68.884,149.584,67.711L149.584,67.711z"/>
				</g>
			</g>
			<g>
				<path d="M142.685,57.993c2.616,0,2.62-4.065,0-4.065C140.069,53.927,140.064,57.993,142.685,57.993L142.685,57.993z"/>
			</g>
			<g>
				<path d="M136.719,54.747c2.616,0,2.62-4.066,0-4.066C134.103,50.682,134.099,54.747,136.719,54.747L136.719,54.747z"/>
			</g>
			<g>
				<path d="M137.563,61.488c0.055-0.018,0.11-0.036,0.165-0.053c2.478-0.805,1.418-4.732-1.081-3.92
					c-0.055,0.018-0.11,0.036-0.165,0.053C134.005,58.373,135.065,62.3,137.563,61.488L137.563,61.488z"/>
			</g>
		</g>
		<g>
			<g>
				<g>
					<path d="M127.861,40.511c0.376-1.079,0.818-2.118,1.361-3.124c0.189-0.35,1.729-3.496,2.367-1.847
						c0.332,0.858-1.311,2.238-1.825,2.687c-0.85,0.742-1.806,1.303-2.829,1.771c-1.188,0.544-0.156,2.297,1.026,1.755
						c1.785-0.818,3.469-2.021,4.66-3.601c1.045-1.386,1.532-3.515,0.006-4.774c-3.36-2.772-5.992,4.478-6.728,6.592
						C125.469,41.209,127.432,41.741,127.861,40.511L127.861,40.511z"/>
				</g>
				<g>
					<path d="M127.785,41.973c1.1-0.293,2.213-0.485,3.356-0.416c0.655,0.04,3.256,0.43,3.352,1.298
						c-0.205,0.224-0.41,0.448-0.614,0.673c-0.438-0.12-0.846-0.303-1.224-0.549c-0.482-0.273-0.926-0.624-1.377-0.942
						c-0.944-0.667-1.885-1.339-2.827-2.008c-1.068-0.759-2.085,1.003-1.026,1.755c1.793,1.274,3.734,3.162,5.914,3.705
						c1.561,0.389,3.273-0.204,3.405-1.993c0.131-1.777-1.618-2.918-3.076-3.464c-2.069-0.774-4.327-0.576-6.422-0.018
						C125.982,40.35,126.518,42.311,127.785,41.973L127.785,41.973z"/>
				</g>
				<g>
					<path d="M126.894,42.253c1.074,0.773,2.161,1.555,3.116,2.475c0.499,0.481,2.375,3.238,0.996,3.149
						c-0.966-0.062-1.82-1.987-2.123-2.767c-0.488-1.255-0.687-2.616-0.846-3.944c-0.153-1.283-2.188-1.298-2.033,0
						c0.267,2.23,0.623,4.526,1.881,6.444c0.863,1.316,2.644,3.323,4.36,2.19c1.546-1.02,1.435-3.259,0.647-4.707
						c-1.065-1.957-3.212-3.33-4.973-4.596C126.857,39.733,125.841,41.496,126.894,42.253L126.894,42.253z"/>
				</g>
				<g>
					<path d="M125.885,41.183c0.282,1.309,0.309,2.624,0.011,3.934c-0.116,0.51-0.289,0.999-0.499,1.477
						c-0.321,0.732-0.447,1.379-1.271,1.244c-1.35-0.221,0.519-2.61,0.963-3.212c0.728-0.988,1.538-1.907,2.375-2.803
						c0.892-0.955-0.542-2.396-1.437-1.437c-1.522,1.63-3.517,3.645-4.221,5.814c-0.495,1.526,0.012,3.554,1.746,4.025
						c1.836,0.499,3.027-1.298,3.668-2.719c0.984-2.181,1.125-4.543,0.625-6.863C127.57,39.365,125.61,39.906,125.885,41.183
						L125.885,41.183z"/>
				</g>
				<g>
					<path d="M126.188,40.213c-1.052,0.862-2.185,1.613-3.415,2.199c-0.747,0.356-2.06,0.969-2.945,0.715
						c-1.055-0.304-1.545-1.401-1.006-2.345c1.242-2.177,6.118,0.548,7.948,0.919c1.277,0.259,1.824-1.7,0.54-1.96
						c-2.505-0.508-4.877-2.064-7.514-1.715c-2.291,0.303-3.53,1.917-3.185,4.236c0.877,5.881,8.636,1.336,11.013-0.611
						C128.638,40.821,127.192,39.39,126.188,40.213L126.188,40.213z"/>
				</g>
				<g>
					<path d="M127.277,39.386c-1.019-0.54-1.951-1.176-2.757-2.007c-0.604-0.623-2.415-2.629-1.753-3.634
						c0.412-0.099,0.824-0.198,1.237-0.297c0.28,0.266,0.508,0.57,0.684,0.911c0.315,0.529,0.518,1.132,0.702,1.715
						c0.388,1.232,0.549,2.487,0.57,3.778c0.021,1.307,2.054,1.311,2.033,0c-0.038-2.339-0.475-4.934-1.794-6.922
						c-0.911-1.374-2.787-2.583-4.338-1.402c-1.549,1.179-1.328,3.451-0.516,4.989c1.061,2.008,2.929,3.577,4.907,4.625
						C127.406,41.753,128.434,39.999,127.277,39.386L127.277,39.386z"/>
				</g>
			</g>
			<g>
				<path d="M114.683,35.914c2.616,0,2.62-4.065,0-4.065C112.067,31.849,112.063,35.914,114.683,35.914L114.683,35.914z"/>
			</g>
			<g>
				<path d="M107.949,36.795c2.616,0,2.62-4.065,0-4.065C105.333,32.73,105.329,36.795,107.949,36.795L107.949,36.795z"/>
			</g>
			<g>
				<path d="M113.955,41.122c0.034-0.047,0.068-0.093,0.102-0.14c0.646-0.889,0.152-2.266-0.729-2.781
					c-1.028-0.601-2.134-0.162-2.781,0.729c-0.034,0.047-0.068,0.093-0.102,0.14c-0.646,0.889-0.152,2.266,0.729,2.781
					C112.201,42.452,113.308,42.013,113.955,41.122L113.955,41.122z"/>
			</g>
		</g>
	</g>
</svg>
