<?xml version="1.0" encoding="utf-8"?>
<svg version="1.1" xmlns="http://www.w3.org/2000/svg" xmlns:xlink="http://www.w3.org/1999/xlink" xml:space="preserve" viewBox="253 243 47 241">
<g>
		<g>
			<g>
				<path d="M279.328,478.403c2.782-21.199,1.635-46.916-8.699-66.169c-0.673-1.253-2.581-0.139-1.908,1.115
					c5.311,9.894,7.574,22.082,8.814,33.146c1.191,10.629,0.974,21.312-0.416,31.908
					C276.934,479.808,279.145,479.794,279.328,478.403L279.328,478.403z"/>
			</g>
			<g>
				<path d="M280.146,463.919c-0.998-6.459-8.366-9.932-13.875-11.835c-0.968-0.334-1.66,0.824-1.247,1.623
					c2.893,5.6,7.451,10.04,13.132,12.771c1.275,0.613,2.397-1.291,1.115-1.908c-5.373-2.582-9.603-6.68-12.34-11.978
					c-0.416,0.541-0.832,1.082-1.247,1.623c4.806,1.66,11.461,4.655,12.332,10.292C278.232,465.907,280.362,465.312,280.146,463.919
					L280.146,463.919z"/>
			</g>
			<g>
				<path d="M280.185,445.958c2.115-5.806,6.441-10.294,12.08-12.774c-0.504-0.504-1.008-1.008-1.511-1.511
					c-2.758,5.504-6.401,10.487-11.855,13.553c-1.24,0.697-0.127,2.606,1.115,1.908c5.768-3.242,9.727-8.516,12.648-14.346
					c0.522-1.042-0.509-1.952-1.511-1.511c-6.179,2.717-10.792,7.769-13.095,14.094
					C277.567,446.709,279.702,447.286,280.185,445.958L280.185,445.958z"/>
			</g>
			<g>
				<path d="M276.577,427.83c-5.086-3.637-11.152-4.383-17.254-4.496c-0.955-0.018-1.461,1.223-0.781,1.886
					c4.326,4.221,10.932,6.94,16.964,6.223c1.395-0.166,1.411-2.377,0-2.209c-5.428,0.645-11.481-1.75-15.402-5.576
					c-0.26,0.629-0.521,1.257-0.781,1.886c5.756,0.107,11.345,0.766,16.139,4.194C276.62,430.567,277.724,428.651,276.577,427.83
					L276.577,427.83z"/>
			</g>
			<g>
				<path d="M272.885,416.674c-0.551-7.745-2.208-15.525-8.414-20.745c-0.664-0.559-1.961-0.256-1.886,0.781
					c0.523,7.178,3.12,13.63,7.698,19.182c0.905,1.098,2.461-0.473,1.562-1.562c-4.179-5.068-6.573-11.069-7.051-17.62
					c-0.629,0.26-1.257,0.521-1.886,0.781c5.777,4.859,7.254,11.974,7.767,19.183C270.776,418.084,272.986,418.095,272.885,416.674
					L272.885,416.674z"/>
			</g>
		</g>
		<g>
			<g>
				<path d="M276.916,429.302c-1.39-10.596-1.607-21.279-0.416-31.908c1.24-11.064,3.503-23.252,8.814-33.146
					c0.672-1.253-1.234-2.37-1.908-1.115c-10.334,19.253-11.48,44.972-8.699,66.169C274.889,430.692,277.101,430.71,276.916,429.302
					L276.916,429.302z"/>
			</g>
			<g>
				<path d="M276.019,415.406c0.87-5.63,7.526-8.632,12.332-10.292c-0.416-0.541-0.832-1.082-1.248-1.623
					c-2.736,5.297-6.967,9.396-12.34,11.978c-1.281,0.616-0.162,2.521,1.115,1.908c5.682-2.731,10.24-7.171,13.132-12.771
					c0.411-0.795-0.281-1.957-1.248-1.623c-5.513,1.904-12.876,5.372-13.875,11.835C273.673,416.21,275.802,416.809,276.019,415.406
					L276.019,415.406z"/>
			</g>
			<g>
				<path d="M275.98,396.271c-2.304-6.326-6.916-11.377-13.095-14.094c-1.001-0.44-2.034,0.468-1.512,1.512
					c2.921,5.829,6.88,11.104,12.648,14.345c1.241,0.698,2.356-1.21,1.115-1.908c-5.455-3.066-9.096-8.048-11.855-13.553
					c-0.504,0.504-1.008,1.008-1.512,1.512c5.641,2.481,9.965,6.966,12.08,12.774C274.332,398.183,276.468,397.611,275.98,396.271
					L275.98,396.271z"/>
			</g>
			<g>
				<path d="M278.573,380.638c4.794-3.428,10.389-4.087,16.139-4.194c-0.26-0.629-0.521-1.257-0.781-1.886
					c-3.93,3.835-9.956,6.223-15.402,5.576c-1.409-0.167-1.397,2.044,0,2.209c6.027,0.716,12.641-2.005,16.964-6.223
					c0.678-0.662,0.175-1.904-0.781-1.886c-6.105,0.113-12.168,0.859-17.254,4.496C276.311,379.55,277.413,381.467,278.573,380.638
					L278.573,380.638z"/>
			</g>
			<g>
				<path d="M283.359,367.573c0.513-7.206,1.986-14.32,7.767-19.183c-0.629-0.26-1.257-0.521-1.886-0.781
					c-0.477,6.551-2.872,12.552-7.051,17.62c-0.898,1.089,0.657,2.661,1.562,1.562c4.579-5.553,7.175-12.005,7.698-19.182
					c0.076-1.04-1.219-1.342-1.886-0.781c-6.204,5.218-7.863,13.002-8.414,20.745C281.048,368.992,283.258,368.986,283.359,367.573
					L283.359,367.573z"/>
			</g>
		</g>
		<g>
			<g>
				<path d="M279.328,379.153c2.782-21.199,1.635-46.916-8.699-66.169c-0.673-1.253-2.581-0.139-1.908,1.115
					c5.311,9.894,7.574,22.082,8.814,33.146c1.191,10.629,0.974,21.312-0.416,31.908
					C276.934,380.559,279.145,380.545,279.328,379.153L279.328,379.153z"/>
			</g>
			<g>
				<path d="M280.146,364.67c-0.998-6.459-8.366-9.932-13.875-11.835c-0.968-0.334-1.66,0.824-1.247,1.623
					c2.893,5.6,7.451,10.04,13.132,12.771c1.275,0.613,2.397-1.291,1.115-1.908c-5.373-2.582-9.603-6.68-12.34-11.978
					c-0.416,0.541-0.832,1.082-1.247,1.623c4.806,1.66,11.461,4.655,12.332,10.292C278.232,366.658,280.362,366.063,280.146,364.67
					L280.146,364.67z"/>
			</g>
			<g>
				<path d="M280.185,346.709c2.115-5.806,6.441-10.294,12.08-12.774c-0.504-0.504-1.008-1.008-1.511-1.512
					c-2.758,5.504-6.401,10.487-11.855,13.553c-1.24,0.697-0.127,2.606,1.115,1.908c5.768-3.241,9.727-8.516,12.648-14.345
					c0.522-1.042-0.509-1.952-1.511-1.512c-6.179,2.717-10.792,7.769-13.095,14.094C277.567,347.46,279.702,348.037,280.185,346.709
					L280.185,346.709z"/>
			</g>
			<g>
				<path d="M276.577,328.581c-5.086-3.637-11.152-4.383-17.254-4.496c-0.955-0.018-1.461,1.223-0.781,1.886
					c4.326,4.221,10.932,6.94,16.964,6.223c1.395-0.166,1.411-2.377,0-2.209c-5.428,0.645-11.481-1.751-15.402-5.576
					c-0.26,0.629-0.521,1.257-0.781,1.886c5.756,0.107,11.345,0.767,16.139,4.194C276.62,331.318,277.724,329.402,276.577,328.581
					L276.577,328.581z"/>
			</g>
			<g>
				<path d="M272.885,317.424c-0.551-7.745-2.208-15.525-8.414-20.745c-0.664-0.559-1.961-0.256-1.886,0.781
					c0.523,7.178,3.12,13.63,7.698,19.182c0.905,1.098,2.461-0.473,1.562-1.562c-4.179-5.068-6.573-11.069-7.051-17.62
					c-0.629,0.26-1.257,0.521-1.886,0.781c5.777,4.859,7.254,11.974,7.767,19.183C270.776,318.835,272.986,318.846,272.885,317.424
					L272.885,317.424z"/>
			</g>
		</g>
		<g>
			<g>
				<path d="M276.916,330.053c-1.39-10.596-1.607-21.279-0.416-31.908c1.24-11.064,3.503-23.252,8.814-33.146
					c0.672-1.253-1.234-2.37-1.908-1.115c-10.334,19.253-11.48,44.972-8.699,66.169
					C274.889,331.443,277.101,331.461,276.916,330.053L276.916,330.053z"/>
			</g>
			<g>
				<path d="M276.019,316.157c0.87-5.63,7.526-8.632,12.332-10.292c-0.416-0.541-0.832-1.082-1.248-1.623
					c-2.736,5.297-6.967,9.396-12.34,11.978c-1.281,0.616-0.162,2.521,1.115,1.908c5.682-2.731,10.24-7.171,13.132-12.771
					c0.411-0.795-0.281-1.957-1.248-1.623c-5.513,1.904-12.876,5.372-13.875,11.835C273.673,316.961,275.802,317.56,276.019,316.157
					L276.019,316.157z"/>
			</g>
			<g>
				<path d="M275.98,297.021c-2.304-6.326-6.916-11.377-13.095-14.094c-1.001-0.44-2.034,0.468-1.512,1.511
					c2.921,5.829,6.88,11.104,12.648,14.346c1.241,0.697,2.356-1.21,1.115-1.908c-5.455-3.066-9.096-8.048-11.855-13.553
					c-0.504,0.504-1.008,1.008-1.512,1.512c5.641,2.481,9.965,6.966,12.08,12.774C274.332,298.934,276.468,298.362,275.98,297.021
					L275.98,297.021z"/>
			</g>
			<g>
				<path d="M278.573,281.389c4.794-3.428,10.389-4.087,16.139-4.194c-0.26-0.629-0.521-1.257-0.781-1.886
					c-3.93,3.835-9.956,6.223-15.402,5.576c-1.409-0.167-1.397,2.043,0,2.209c6.027,0.716,12.641-2.005,16.964-6.223
					c0.678-0.662,0.175-1.904-0.781-1.886c-6.105,0.113-12.168,0.859-17.254,4.496C276.311,280.301,277.413,282.218,278.573,281.389
					L278.573,281.389z"/>
			</g>
			<g>
				<path d="M283.359,268.324c0.513-7.206,1.986-14.32,7.767-19.183c-0.629-0.26-1.257-0.521-1.886-0.781
					c-0.477,6.551-2.872,12.552-7.051,17.62c-0.898,1.089,0.657,2.661,1.562,1.562c4.579-5.553,7.175-12.005,7.698-19.182
					c0.076-1.04-1.219-1.342-1.886-0.781c-6.204,5.218-7.863,13.002-8.414,20.745C281.048,269.743,283.258,269.737,283.359,268.324
					L283.359,268.324z"/>
			</g>
		</g>
	</g>
</svg>
